<?xml version="1.0" encoding="UTF-8"?>
<svg width="1351px" height="455px" viewBox="0 0 1351 455" version="1.1" xmlns="http://www.w3.org/2000/svg" xmlns:xlink="http://www.w3.org/1999/xlink">
    <!-- Generator: Sketch 54.1 (76490) - https://sketchapp.com -->
    <title>tfgaming</title>
    <desc>Created with Sketch.</desc>
    <g id="Page-1" stroke="none" stroke-width="1" fill="none" fill-rule="evenodd">
        <g id="Artboard" transform="translate(-4689.000000, -1684.000000)" fill-rule="nonzero" stroke="#F0BA41">
            <path d="M4842.10086,1728.74253 C4844.23421,1729.0092 4845.90086,1729.07587 4847.10086,1728.94253 C4848.30087,1728.8092 4850.10085,1729.74252 4852.50086,1731.74253 C4854.90088,1733.74254 4859.03417,1735.94252 4864.90086,1738.34253 C4870.76756,1740.74254 4875.10085,1742.67586 4877.90086,1744.14253 C4880.70088,1745.60921 4884.63417,1747.94252 4889.70086,1751.14253 C4892.10088,1754.87588 4894.03419,1757.34253 4895.50086,1758.54253 C4896.96754,1759.74254 4897.6342,1761.34252 4897.50086,1763.34253 C4897.36753,1765.34254 4897.56753,1768.47584 4898.10086,1772.74253 L4893.70086,1777.94253 C4889.16751,1777.4092 4885.83421,1777.0092 4883.70086,1776.74253 C4881.56752,1776.47586 4879.63421,1776.54253 4877.90086,1776.94253 C4876.16752,1777.34253 4873.83421,1777.94253 4870.90086,1778.74253 L4869.30086,1776.34253 L4856.90086,1776.34253 C4854.23418,1776.34253 4851.83421,1776.27587 4849.70086,1776.14253 C4847.56752,1776.0092 4845.23421,1776.54253 4842.70086,1777.74253 C4840.16752,1778.94254 4835.96756,1780.87585 4830.10086,1783.54253 L4830.50086,1789.94253 C4856.36766,1787.27585 4876.70079,1786.2092 4891.50086,1786.74253 C4906.30094,1787.27587 4919.50081,1788.60919 4931.10086,1790.74253 C4942.70092,1792.87588 4952.16749,1795.54252 4959.50086,1798.74253 C4966.83423,1801.94255 4971.70085,1803.47587 4974.10086,1803.34253 C4976.50088,1803.2092 4978.36752,1803.34253 4979.70086,1803.74253 C4981.0342,1804.14253 4983.30085,1805.00919 4986.50086,1806.34253 C4987.8342,1808.74254 4988.90086,1810.60919 4989.70086,1811.94253 C4990.50087,1813.27587 4992.36752,1815.54252 4995.30086,1818.74253 C4998.23421,1821.94255 5001.76751,1826.47584 5005.90086,1832.34253 C5010.03422,1838.20923 5012.2342,1842.34252 5012.50086,1844.74253 C5012.76753,1847.14254 5013.0342,1850.34251 5013.30086,1854.34253 C5011.16752,1856.74254 5009.4342,1858.54253 5008.10086,1859.74253 C5006.76752,1860.94254 5003.96755,1861.47587 4999.70086,1861.34253 C4995.43418,1861.2092 4991.23422,1862.00919 4987.10086,1863.74253 C4982.96751,1865.47587 4980.16754,1866.07587 4978.70086,1865.54253 C4977.23419,1865.0092 4975.96754,1864.87586 4974.90086,1865.14253 C4973.83419,1865.4092 4971.70088,1865.8092 4968.50086,1866.34253 L4968.90086,1863.94253 C4960.63416,1864.74254 4952.63424,1865.94252 4944.90086,1867.54253 L4944.90086,1865.14253 L4955.30086,1859.14253 L4955.30086,1857.94253 C4945.96748,1860.87588 4938.96755,1863.00919 4934.30086,1864.34253 C4929.63417,1865.67587 4925.90088,1866.14253 4923.10086,1865.74253 C4920.30085,1865.34253 4918.03421,1866.00919 4916.30086,1867.74253 C4914.56752,1869.47587 4912.76754,1870.34253 4910.90086,1870.34253 C4909.03419,1870.34253 4907.8342,1870.07587 4907.30086,1869.54253 C4906.76753,1869.0092 4905.8342,1868.34254 4904.50086,1867.54253 L4904.10086,1870.34253 L4896.10086,1869.94253 L4894.90086,1871.94253 L4874.50086,1873.94253 L4874.50086,1871.54253 C4871.56752,1871.8092 4869.23421,1872.2092 4867.50086,1872.74253 C4865.76752,1873.27587 4864.36754,1873.07587 4863.30086,1872.14253 C4862.23419,1871.20919 4860.50088,1869.94254 4858.10086,1868.34253 C4856.76752,1865.67585 4855.76753,1863.47587 4855.10086,1861.74253 C4854.43419,1860.00919 4853.96753,1856.87589 4853.70086,1852.34253 C4853.4342,1847.80918 4852.43421,1844.60921 4850.70086,1842.74253 C4848.96752,1840.87586 4846.90088,1838.20922 4844.50086,1834.74253 L4845.30086,1833.54253 L4846.50086,1836.34253 L4848.10086,1835.14253 C4849.4342,1834.07586 4852.90084,1833.47587 4858.50086,1833.34253 C4864.10089,1833.2092 4867.96752,1832.74254 4870.10086,1831.94253 C4868.23419,1831.67586 4866.43421,1831.34253 4864.70086,1830.94253 C4862.96752,1830.54253 4860.43421,1829.54254 4857.10086,1827.94253 C4853.76751,1826.34252 4847.96757,1823.40922 4839.70086,1819.14253 L4837.70086,1815.54253 L4842.10086,1808.74253 C4844.23421,1807.40919 4846.10086,1806.2092 4847.70086,1805.14253 C4849.30087,1804.07586 4853.23417,1803.54253 4859.50086,1803.54253 C4865.76756,1803.54253 4871.03418,1804.20919 4875.30086,1805.54253 C4879.56755,1806.87587 4882.76752,1808.07586 4884.90086,1809.14253 L4893.70086,1813.54253 C4894.50087,1818.60922 4896.63418,1822.60918 4900.10086,1825.54253 C4893.43416,1832.4759 4885.70091,1837.67585 4876.90086,1841.14253 C4881.43422,1842.47587 4884.70085,1843.4092 4886.70086,1843.94253 C4888.70087,1844.47587 4890.30086,1845.34253 4891.50086,1846.54253 C4892.70087,1847.74254 4894.63418,1849.54252 4897.30086,1851.94253 C4897.56753,1855.40922 4898.90085,1858.07586 4901.30086,1859.94253 C4912.76759,1854.87584 4921.3675,1851.47587 4927.10086,1849.74253 C4932.83423,1848.00919 4938.50084,1845.27588 4944.10086,1841.54253 C4949.70089,1837.80918 4953.50085,1834.94254 4955.50086,1832.94253 C4957.50087,1830.94252 4960.36751,1828.34255 4964.10086,1825.14253 C4960.36751,1821.94252 4957.30088,1819.14254 4954.90086,1816.74253 C4952.50085,1814.34252 4947.56757,1811.54255 4940.10086,1808.34253 C4932.63416,1805.14252 4923.96758,1802.54254 4914.10086,1800.54253 C4904.23415,1798.54252 4893.36759,1797.2092 4881.50086,1796.54253 C4869.63414,1795.87586 4860.63423,1795.87586 4854.50086,1796.54253 C4848.3675,1797.2092 4841.16757,1797.94253 4832.90086,1798.74253 C4832.90086,1801.94255 4833.0342,1812.40911 4833.30086,1830.14253 C4833.56753,1847.87595 4833.56753,1863.54246 4833.30086,1877.14253 C4833.0342,1890.7426 4833.76752,1899.54251 4835.50086,1903.54253 C4837.23421,1907.54255 4839.43418,1912.60917 4842.10086,1918.74253 C4852.76758,1916.34252 4861.96749,1914.27587 4869.70086,1912.54253 C4877.43424,1910.80919 4887.76747,1909.14254 4900.70086,1907.54253 C4913.63426,1905.94252 4924.30082,1906.27585 4932.70086,1908.54253 C4941.10091,1910.80921 4947.03418,1913.54252 4950.50086,1916.74253 C4953.96755,1919.94255 4957.10085,1922.27586 4959.90086,1923.74253 C4962.70088,1925.20921 4966.36751,1927.67585 4970.90086,1931.14253 C4971.96754,1932.47587 4972.96753,1933.74253 4973.90086,1934.94253 C4974.8342,1936.14254 4977.76751,1939.40917 4982.70086,1944.74253 C4987.63422,1950.07589 4991.36752,1955.07584 4993.90086,1959.74253 C4996.43421,1964.40922 4996.96754,1968.14252 4995.50086,1970.94253 C4994.03419,1973.74255 4992.23421,1978.7425 4990.10086,1985.94253 L4980.90086,1985.94253 L4974.10086,1993.14253 C4973.03419,1992.6092 4972.2342,1992.14253 4971.70086,1991.74253 C4971.16753,1991.34253 4970.4342,1991.4092 4969.50086,1991.94253 C4968.56753,1992.47587 4967.16754,1993.0092 4965.30086,1993.54253 L4957.70086,2003.14253 L4954.50086,2003.54253 L4953.30086,2001.94253 C4946.90083,2009.6759 4941.70088,2017.94249 4937.70086,2026.74253 L4940.10086,2027.14253 C4938.50086,2029.00921 4936.50088,2032.47584 4934.10086,2037.54253 C4931.70085,2042.60922 4930.50086,2045.80919 4930.50086,2047.14253 L4933.70086,2042.74253 C4932.90086,2046.20922 4932.16753,2048.87586 4931.50086,2050.74253 C4930.83419,2052.60921 4928.76755,2056.5425 4925.30086,2062.54253 C4921.83418,2068.54256 4918.76754,2073.00918 4916.10086,2075.94253 C4913.43418,2078.87588 4909.56756,2083.27584 4904.50086,2089.14253 C4899.96751,2091.00921 4896.43421,2092.27586 4893.90086,2092.94253 C4891.36752,2093.6092 4889.03421,2094.87586 4886.90086,2096.74253 C4884.76752,2098.60921 4882.56754,2099.67586 4880.30086,2099.94253 C4878.03419,2100.2092 4876.03421,2100.80919 4874.30086,2101.74253 C4872.56752,2102.67587 4870.76754,2103.4092 4868.90086,2103.94253 C4867.03419,2104.47587 4864.50088,2104.2092 4861.30086,2103.14253 C4858.10085,2102.07586 4855.96754,2101.14254 4854.90086,2100.34253 C4852.23418,2094.7425 4850.50087,2088.74256 4849.70086,2082.34253 C4850.76754,2081.54253 4851.83419,2081.14253 4852.90086,2081.14253 L4851.70086,2077.14253 L4854.50086,2077.14253 L4850.90086,2066.74253 L4852.10086,2067.54253 L4854.50086,2066.74253 L4852.10086,2065.14253 L4849.70086,2054.74253 L4846.90086,2053.94253 C4846.6342,2051.80919 4845.96754,2049.80921 4844.90086,2047.94253 C4843.83419,2046.07586 4842.96753,2044.74254 4842.30086,2043.94253 C4841.63419,2043.14253 4840.6342,2042.07587 4839.30086,2040.74253 L4809.30086,2047.14253 L4807.30086,2048.74253 C4804.36752,2050.07587 4802.10087,2051.0092 4800.50086,2051.54253 C4798.90086,2052.07587 4797.56754,2052.27587 4796.50086,2052.14253 C4795.43419,2052.0092 4793.70088,2051.67587 4791.30086,2051.14253 L4790.90086,2052.34253 L4788.10086,2053.94253 L4786.90086,2052.34253 C4779.43416,2054.47588 4771.83424,2055.54253 4764.10086,2055.54253 C4761.70085,2053.94252 4760.2342,2051.54255 4759.70086,2048.34253 L4762.90086,2047.14253 L4764.10086,2040.74253 L4770.90086,2038.34253 L4762.50086,2028.34253 L4758.10086,2026.34253 C4758.36753,2024.20919 4757.70087,2022.07588 4756.10086,2019.94253 C4756.90087,2018.60919 4757.4342,2016.74254 4757.70086,2014.34253 C4757.96753,2011.94252 4758.0342,2010.34254 4757.90086,2009.54253 C4757.76753,2008.74253 4758.10086,2007.54254 4758.90086,2005.94253 C4758.10086,2002.47585 4757.4342,1999.94254 4756.90086,1998.34253 C4756.36753,1996.74252 4754.90088,1994.40921 4752.50086,1991.34253 C4750.10085,1988.27585 4746.36756,1982.47591 4741.30086,1973.94253 C4737.83418,1970.47585 4735.36754,1967.87587 4733.90086,1966.14253 C4732.43419,1964.40919 4730.83421,1963.6092 4729.10086,1963.74253 C4727.36752,1963.87587 4725.16754,1963.94253 4722.50086,1963.94253 L4719.70086,1967.54253 C4719.70086,1964.87585 4719.90086,1962.94254 4720.30086,1961.74253 C4720.70087,1960.54253 4720.56753,1959.6092 4719.90086,1958.94253 C4719.23419,1958.27586 4718.36754,1957.14254 4717.30086,1955.54253 L4720.50086,1951.94253 L4730.10086,1950.74253 L4728.50086,1946.34253 C4726.10085,1949.00921 4723.30088,1950.34253 4720.10086,1950.34253 C4717.70085,1947.67585 4714.36755,1942.34257 4710.10086,1934.34253 C4705.83418,1926.34249 4702.36754,1921.14254 4699.70086,1918.74253 L4691.30086,1915.94253 L4692.10086,1911.94253 L4694.50086,1909.94253 L4688.10086,1903.14253 C4689.96754,1903.4092 4691.70086,1903.14254 4693.30086,1902.34253 C4693.0342,1898.34251 4692.96753,1895.47587 4693.10086,1893.74253 C4693.2342,1892.00919 4692.90087,1890.94253 4692.10086,1890.54253 C4691.30086,1890.14253 4690.50087,1889.4092 4689.70086,1888.34253 L4694.90086,1887.54253 C4694.10086,1885.94252 4693.56753,1884.34254 4693.30086,1882.74253 C4695.43421,1883.8092 4697.43419,1883.8092 4699.30086,1882.74253 L4697.30086,1880.34253 L4700.90086,1880.74253 L4700.90086,1877.14253 L4702.90086,1876.34253 C4717.03427,1854.74242 4724.2342,1840.6759 4724.50086,1834.14253 C4724.76753,1827.60917 4724.2342,1823.07588 4722.90086,1820.54253 C4721.56752,1818.00919 4721.0342,1816.14254 4721.30086,1814.94253 L4722.50086,1809.54253 C4723.56754,1809.54253 4724.50086,1809.4092 4725.30086,1809.14253 C4726.10087,1808.87586 4727.90085,1809.40919 4730.70086,1810.74253 C4733.50088,1812.07587 4737.5675,1814.07585 4742.90086,1816.74253 L4743.30086,1821.54253 L4762.10086,1813.54253 L4758.90086,1813.54253 L4764.10086,1809.94253 C4764.10086,1808.34252 4764.50086,1806.74254 4765.30086,1805.14253 C4779.9676,1795.54248 4794.76746,1785.80925 4809.70086,1775.94253 L4795.90086,1771.34253 C4788.30083,1768.80919 4783.76754,1766.94254 4782.30086,1765.74253 C4780.83419,1764.54253 4778.90088,1763.14254 4776.50086,1761.54253 L4769.30086,1739.94253 L4770.90086,1738.74253 C4775.70089,1740.87588 4779.30085,1742.40919 4781.70086,1743.34253 C4784.10088,1744.27587 4786.83418,1745.0092 4789.90086,1745.54253 C4792.96755,1746.07587 4797.30084,1745.8092 4802.90086,1744.74253 C4808.50089,1743.67586 4817.3008,1742.47587 4829.30086,1741.14253 L4832.90086,1733.14253 L4842.10086,1728.74253 Z M4816.90086,1786.34253 L4812.90086,1786.34253 C4811.30086,1786.34253 4799.8343,1793.00913 4778.50086,1806.34253 L4820.90086,1792.74253 L4820.10086,1788.34253 L4816.90086,1786.34253 Z M4822.50086,1801.94253 C4817.1675,1803.54254 4812.76755,1804.80919 4809.30086,1805.74253 C4805.83418,1806.67587 4800.03424,1809.14251 4791.90086,1813.14253 C4783.76749,1817.14255 4777.16756,1821.34251 4772.10086,1825.74253 C4767.03417,1830.14255 4762.90088,1832.94253 4759.70086,1834.14253 C4756.50085,1835.34254 4751.83423,1837.54252 4745.70086,1840.74253 C4747.30087,1854.3426 4748.76752,1867.6758 4750.10086,1880.74253 L4752.10086,1881.94253 L4752.90086,1879.54253 C4763.03425,1873.9425 4774.1008,1869.94254 4786.10086,1867.54253 L4787.30086,1865.54253 C4788.10087,1866.07587 4788.83419,1866.4092 4789.50086,1866.54253 C4790.16753,1866.67587 4791.70085,1866.2092 4794.10086,1865.14253 C4796.50088,1864.07586 4799.43418,1862.60921 4802.90086,1860.74253 C4801.30086,1862.60921 4800.50086,1864.60919 4800.50086,1866.74253 L4807.70086,1861.54253 C4807.70086,1864.20921 4807.0342,1866.60919 4805.70086,1868.74253 C4810.76756,1872.47588 4816.3675,1874.34253 4822.50086,1874.34253 C4823.0342,1864.20915 4823.63419,1856.60922 4824.30086,1851.54253 C4824.96753,1846.47584 4824.50087,1830.076 4822.90086,1802.34253 L4822.50086,1801.94253 Z M4800.50086,1821.14253 C4801.8342,1821.14253 4802.83419,1821.0092 4803.50086,1820.74253 C4804.16753,1820.47586 4805.30086,1820.6092 4806.90086,1821.14253 C4808.50087,1821.67587 4810.90085,1822.34253 4814.10086,1823.14253 C4816.50088,1825.80921 4818.43419,1827.67586 4819.90086,1828.74253 C4821.36754,1829.8092 4822.16753,1831.20919 4822.30086,1832.94253 C4822.4342,1834.67587 4822.50086,1836.34252 4822.50086,1837.94253 L4808.10086,1850.34253 L4807.30086,1848.74253 L4803.70086,1851.54253 L4805.70086,1845.54253 L4803.30086,1846.34253 L4803.30086,1843.14253 L4800.90086,1843.14253 L4800.10086,1842.34253 C4796.36751,1843.67587 4793.30088,1844.54253 4790.90086,1844.94253 C4788.50085,1845.34253 4784.96755,1846.67585 4780.30086,1848.94253 C4775.63417,1851.20921 4772.23421,1853.20919 4770.10086,1854.94253 C4767.96752,1856.67587 4764.90088,1858.87585 4760.90086,1861.54253 L4757.70086,1860.74253 C4755.83419,1858.60919 4754.50087,1857.07587 4753.70086,1856.14253 C4752.90086,1855.20919 4752.4342,1854.00921 4752.30086,1852.54253 C4752.16753,1851.07586 4752.50086,1850.0092 4753.30086,1849.34253 C4754.10087,1848.67586 4754.90086,1847.67587 4755.70086,1846.34253 L4754.10086,1845.54253 L4753.30086,1843.14253 C4764.50092,1836.7425 4772.30084,1832.20921 4776.70086,1829.54253 C4781.10089,1826.87585 4784.90085,1825.14254 4788.10086,1824.34253 C4791.30088,1823.54253 4795.43417,1822.47587 4800.50086,1821.14253 Z M4802.50086,1872.74253 L4810.10086,1876.74253 L4810.50086,1874.34253 L4805.70086,1869.54253 L4802.50086,1872.74253 Z M4800.50086,1874.34253 L4799.30086,1875.14253 C4802.23421,1877.27588 4804.36752,1878.87586 4805.70086,1879.94253 C4807.0342,1881.0092 4808.10086,1881.54253 4808.90086,1881.54253 L4811.30086,1881.54253 L4800.90086,1873.94253 L4800.50086,1874.34253 Z M4792.90086,1885.94253 L4790.50086,1889.94253 C4784.3675,1893.14255 4778.90089,1897.14251 4774.10086,1901.94253 C4770.63418,1900.60919 4768.10087,1899.6092 4766.50086,1898.94253 C4764.90086,1898.27586 4763.30087,1897.20921 4761.70086,1895.74253 C4760.10086,1894.27586 4757.56755,1891.67588 4754.10086,1887.94253 C4754.10086,1894.0759 4754.30086,1898.00919 4754.70086,1899.74253 C4755.10087,1901.47587 4754.70087,1903.20919 4753.50086,1904.94253 C4752.30086,1906.67587 4751.96753,1910.14251 4752.50086,1915.34253 C4753.0342,1920.54256 4753.70086,1924.27585 4754.50086,1926.54253 C4755.30087,1928.80921 4756.23419,1932.20918 4757.30086,1936.74253 C4765.3009,1936.2092 4771.63417,1935.87587 4776.30086,1935.74253 C4780.96755,1935.6092 4786.1675,1934.87587 4791.90086,1933.54253 C4797.63423,1932.20919 4806.63414,1929.94255 4818.90086,1926.74253 L4817.70086,1925.54253 L4820.90086,1925.54253 L4812.10086,1912.74253 L4812.50086,1910.74253 C4810.63419,1908.34252 4809.16754,1906.67587 4808.10086,1905.74253 C4807.03419,1904.80919 4805.90087,1903.47587 4804.70086,1901.74253 C4803.50086,1900.00919 4801.63421,1897.67588 4799.10086,1894.74253 C4796.56752,1891.80918 4794.50087,1889.00921 4792.90086,1886.34253 L4792.90086,1885.94253 Z M4891.30086,1935.94253 L4890.10086,1937.54253 C4888.76752,1937.54253 4887.56754,1937.4092 4886.50086,1937.14253 C4885.43419,1936.87586 4877.5676,1939.20917 4862.90086,1944.14253 C4848.23412,1949.07589 4835.70092,1953.47585 4825.30086,1957.34253 C4814.90081,1961.20922 4805.76757,1963.47586 4797.90086,1964.14253 C4790.03416,1964.8092 4785.4342,1965.0092 4784.10086,1964.74253 L4780.10086,1963.94253 L4778.90086,1965.54253 L4777.30086,1963.54253 C4775.43419,1961.94252 4773.03421,1959.94254 4770.10086,1957.54253 C4767.16752,1955.14252 4763.30089,1951.94255 4758.50086,1947.94253 L4755.70086,1941.54253 L4753.30086,1941.54253 L4748.50086,1949.14253 L4745.30086,1951.94253 C4749.03422,1954.34254 4751.83419,1956.07586 4753.70086,1957.14253 C4755.56754,1958.2092 4758.10085,1960.14252 4761.30086,1962.94253 C4764.50088,1965.74255 4770.10082,1970.7425 4778.10086,1977.94253 L4780.50086,1975.14253 C4781.56754,1974.87586 4782.36753,1974.54253 4782.90086,1974.14253 C4783.4342,1973.74253 4784.83419,1973.6092 4787.10086,1973.74253 C4789.36754,1973.87587 4791.30086,1974.94253 4792.90086,1976.94253 C4794.50087,1978.94254 4798.23417,1979.34254 4804.10086,1978.14253 C4809.96756,1976.94253 4824.23408,1973.67589 4846.90086,1968.34253 L4847.70086,1963.14253 L4851.30086,1959.94253 L4853.30086,1956.74253 C4854.90087,1955.14252 4856.23419,1953.87587 4857.30086,1952.94253 C4858.36754,1952.00919 4860.10085,1951.07587 4862.50086,1950.14253 C4864.90088,1949.20919 4867.03419,1949.34253 4868.90086,1950.54253 C4870.76754,1951.74254 4873.43418,1953.27586 4876.90086,1955.14253 L4878.90086,1953.94253 C4878.6342,1954.2092 4878.50086,1954.54253 4878.50086,1954.94253 C4878.50086,1955.34253 4878.76753,1956.07586 4879.30086,1957.14253 L4881.70086,1961.94253 C4884.63421,1963.80921 4887.70085,1965.27586 4890.90086,1966.34253 L4892.90086,1968.74253 L4889.30086,1971.14253 C4888.23419,1970.87586 4887.4342,1970.54253 4886.90086,1970.14253 C4886.36753,1969.74253 4885.8342,1969.74253 4885.30086,1970.14253 C4884.76753,1970.54253 4884.10087,1970.87586 4883.30086,1971.14253 C4888.63422,1973.80921 4894.23417,1976.34252 4900.10086,1978.74253 L4898.10086,1981.14253 L4886.90086,1981.14253 L4894.90086,1984.74253 L4893.70086,1985.14253 L4897.70086,1986.34253 L4897.70086,1987.14253 C4895.83419,1987.14253 4892.70089,1986.67587 4888.30086,1985.74253 C4883.90084,1984.80919 4880.03421,1984.87586 4876.70086,1985.94253 C4873.36751,1987.0092 4869.03422,1988.20919 4863.70086,1989.54253 C4858.63417,1998.87591 4852.5009,2007.27583 4845.30086,2014.74253 L4848.50086,2015.94253 C4850.36754,2014.07586 4852.50085,2013.27586 4854.90086,2013.54253 L4857.30086,2011.54253 L4862.10086,2016.74253 L4874.50086,2020.34253 C4875.0342,2021.67587 4876.36752,2023.34252 4878.50086,2025.34253 C4880.63421,2027.34254 4883.43418,2030.34251 4886.90086,2034.34253 L4882.10086,2036.34253 L4884.10086,2038.34253 C4881.16752,2038.6092 4878.23421,2039.14253 4875.30086,2039.94253 L4877.70086,2041.94253 L4876.50086,2041.54253 L4891.70086,2054.34253 L4896.10086,2051.94253 C4900.36755,2045.80917 4903.63419,2041.14255 4905.90086,2037.94253 C4908.16754,2034.74252 4910.90085,2029.00924 4914.10086,2020.74253 C4917.30088,2012.47582 4920.56751,2002.74259 4923.90086,1991.54253 C4927.23421,1980.34248 4929.50086,1970.67591 4930.70086,1962.54253 C4931.90087,1954.40916 4932.0342,1949.67587 4931.10086,1948.34253 C4930.16753,1947.00919 4929.4342,1945.54254 4928.90086,1943.94253 C4926.50085,1942.34252 4924.56754,1940.74254 4923.10086,1939.14253 C4921.63419,1937.54252 4918.56755,1936.6092 4913.90086,1936.34253 C4909.23417,1936.07586 4905.50088,1936.0092 4902.70086,1936.14253 C4899.90085,1936.27587 4896.23422,1936.34253 4891.70086,1936.34253 L4891.30086,1935.94253 Z M4824.90086,1999.54253 L4794.90086,2004.34253 L4796.50086,2008.74253 L4798.50086,2010.74253 L4803.70086,2023.14253 L4805.70086,2024.34253 L4805.70086,2026.34253 L4816.50086,2019.54253 L4809.70086,2022.34253 L4819.30086,2013.94253 L4817.70086,2011.54253 L4819.30086,2011.94253 C4817.16752,2010.60919 4816.2342,2008.74254 4816.50086,2006.34253 L4820.10086,2010.74253 L4826.90086,2003.14253 L4825.30086,1999.94253 L4824.90086,1999.54253 Z M5182.97645,1817.95513 L5182.90086,1817.94253 L5183.06928,1817.6899 L5182.97645,1817.95513 L5182.97645,1817.95513 Z M5183.06928,1817.6899 L5184.10086,1814.74253 L5185.30086,1814.34253 L5183.06928,1817.6899 L5183.06928,1817.6899 Z M5182.97645,1817.95513 L5185.30086,1818.34253 L5184.50086,1822.74253 L5182.90086,1820.34253 C5180.76752,1827.2759 5179.56753,1834.20916 5179.30086,1841.14253 C5179.56753,1839.00919 5180.63419,1837.27587 5182.50086,1835.94253 L5180.50086,1841.54253 L5179.30086,1842.34253 C5178.50086,1844.74254 5177.8342,1846.54253 5177.30086,1847.74253 C5176.76753,1848.94254 5176.30087,1850.74252 5175.90086,1853.14253 C5175.50086,1855.54254 5174.90087,1857.94252 5174.10086,1860.34253 C5173.30086,1862.74254 5172.70087,1865.14252 5172.30086,1867.54253 C5171.90086,1869.94254 5170.63421,1873.80917 5168.50086,1879.14253 C5169.56754,1880.47587 5170.50086,1881.80919 5171.30086,1883.14253 C5175.56755,1878.07584 5178.96752,1874.07588 5181.50086,1871.14253 C5184.03421,1868.20918 5188.1675,1863.20923 5193.90086,1856.14253 C5199.63423,1849.07583 5204.30085,1842.00923 5207.90086,1834.94253 C5211.50088,1827.87583 5214.16752,1821.60923 5215.90086,1816.14253 C5217.63421,1810.67584 5217.96754,1806.94254 5216.90086,1804.94253 C5215.83419,1802.94252 5215.30086,1801.4092 5215.30086,1800.34253 C5215.30086,1799.27586 5216.10086,1797.74254 5217.70086,1795.74253 C5219.30087,1793.74252 5220.50086,1792.07587 5221.30086,1790.74253 L5229.70086,1799.14253 L5233.30086,1798.34253 L5233.30086,1800.74253 C5239.7009,1807.14256 5246.76749,1811.94252 5254.50086,1815.14253 C5255.56754,1820.47589 5258.10084,1824.87585 5262.10086,1828.34253 L5261.30086,1829.94253 L5264.50086,1834.34253 C5262.90086,1836.74254 5261.76753,1838.87586 5261.10086,1840.74253 C5260.43419,1842.60921 5258.56755,1846.00917 5255.50086,1850.94253 C5252.43418,1855.87589 5249.16755,1860.20918 5245.70086,1863.94253 L5241.70086,1861.94253 L5238.90086,1865.94253 L5230.90086,1871.94253 C5231.96754,1870.34252 5232.36753,1868.60921 5232.10086,1866.74253 L5225.30086,1874.34253 L5218.90086,1879.14253 C5221.30088,1877.27586 5222.36753,1874.87588 5222.10086,1871.94253 C5207.96746,1877.00922 5193.9676,1882.47584 5180.10086,1888.34253 C5180.10086,1889.94254 5179.8342,1891.0092 5179.30086,1891.54253 L5242.10086,1966.34253 C5244.76754,1967.67587 5246.96752,1968.54253 5248.70086,1968.94253 C5250.43421,1969.34253 5253.36751,1969.87586 5257.50086,1970.54253 C5261.63422,1971.2092 5268.23415,1972.20919 5277.30086,1973.54253 L5272.90086,1976.34253 L5298.10086,1980.34253 L5298.10086,1979.54253 C5295.70085,1979.27586 5293.56754,1978.20921 5291.70086,1976.34253 C5297.30089,1978.20921 5302.10084,1979.60919 5306.10086,1980.54253 C5310.10088,1981.47587 5322.76742,1988.0758 5344.10086,2000.34253 L5336.50086,1999.14253 L5338.90086,2001.14253 L5334.50086,2004.34253 L5346.10086,2009.94253 C5343.43418,2009.14253 5341.36754,2008.54253 5339.90086,2008.14253 C5338.43419,2007.74253 5336.96754,2007.54253 5335.50086,2007.54253 C5334.03419,2007.54253 5333.0342,2007.74253 5332.50086,2008.14253 C5331.96753,2008.54253 5331.0342,2009.14253 5329.70086,2009.94253 C5328.63419,2011.0092 5328.36753,2012.20919 5328.90086,2013.54253 L5321.30086,2015.54253 C5320.50086,2016.6092 5319.90087,2017.34253 5319.50086,2017.74253 C5319.10086,2018.14253 5318.90086,2018.94253 5318.90086,2020.14253 C5318.90086,2021.34254 5318.6342,2023.27585 5318.10086,2025.94253 L5332.10086,2025.94253 C5328.36751,2026.47587 5325.03421,2027.80919 5322.10086,2029.94253 C5323.96573,2030.50199 5325.76536,2030.67021 5327.4998,2030.44719 C5327.43349,2030.47759 5327.36718,2030.50938 5327.30086,2030.54253 C5326.50086,2030.94253 5325.16754,2032.00919 5323.30086,2033.74253 C5321.43419,2035.47587 5318.36755,2038.34251 5314.10086,2042.34253 C5315.4342,2044.74254 5316.76752,2047.00919 5318.10086,2049.14253 C5314.63418,2052.34255 5312.10087,2056.07584 5310.50086,2060.34253 L5311.70086,2062.34253 L5305.30086,2068.74253 C5303.70086,2070.34254 5301.23421,2071.60919 5297.90086,2072.54253 C5294.56751,2073.47587 5290.30089,2074.47586 5285.10086,2075.54253 C5279.90084,2076.6092 5273.63423,2076.6092 5266.30086,2075.54253 C5258.96749,2074.47586 5253.70088,2073.07587 5250.50086,2071.34253 C5247.30085,2069.60919 5243.70088,2067.54254 5239.70086,2065.14253 L5236.10086,2059.14253 C5235.56753,2059.14253 5234.6342,2058.67587 5233.30086,2057.74253 C5231.96752,2056.80919 5230.36754,2055.54254 5228.50086,2053.94253 C5210.10077,2033.4091 5197.90089,2017.80925 5191.90086,2007.14253 C5185.90083,1996.47581 5174.23428,1968.47609 5156.90086,1923.14253 L5149.30086,1938.34253 C5150.90087,1931.9425 5152.16753,1927.60921 5153.10086,1925.34253 C5154.0342,1923.07585 5154.4342,1921.34254 5154.30086,1920.14253 C5154.16753,1918.94253 5154.10086,1917.67587 5154.10086,1916.34253 C5138.90079,1964.0761 5130.56754,1990.80917 5129.10086,1996.54253 C5127.63419,2002.27589 5126.2342,2009.94248 5124.90086,2019.54253 L5128.50086,2014.74253 L5126.90086,2037.14253 L5123.30086,2039.54253 C5121.16752,2038.47586 5119.56754,2038.47586 5118.50086,2039.54253 L5112.50086,2046.74253 L5099.30086,2052.34253 L5087.30086,2043.14253 L5076.90086,2023.94253 L5078.50086,2021.54253 C5076.90086,2018.87585 5075.70087,2015.80922 5074.90086,2012.34253 L5073.65995,2011.7698 C5073.19714,2009.70115 5073.74411,2007.75874 5075.30086,2005.94253 L5071.70086,1999.14253 L5039.30086,1977.54253 C5042.76755,1978.87587 5045.63419,1980.00919 5047.90086,1980.94253 C5050.16754,1981.87587 5051.83419,1982.34253 5052.90086,1982.34253 L5053.70086,1979.94253 L5052.10086,1978.74253 L5050.90086,1975.94253 L5047.70086,1975.14253 L5047.30086,1973.54253 L5056.10086,1975.94253 L5045.30086,1970.34253 C5054.63424,1972.20921 5061.43418,1973.54253 5065.70086,1974.34253 C5069.96755,1975.14254 5073.43418,1975.47587 5076.10086,1975.34253 C5078.76754,1975.2092 5081.83418,1975.14253 5085.30086,1975.14253 L5087.70086,1969.94253 L5092.90086,1968.74253 L5107.30086,1918.74253 L5097.70086,1911.54253 L5079.70086,1887.94253 L5067.70086,1880.34253 C5067.4342,1875.54251 5067.2342,1872.14254 5067.10086,1870.14253 C5066.96753,1868.14252 5067.10086,1866.47587 5067.50086,1865.14253 C5067.90087,1863.80919 5068.63419,1861.67588 5069.70086,1858.74253 L5075.30086,1854.34253 L5081.30086,1847.94253 C5080.76753,1839.94249 5080.50086,1834.34255 5080.50086,1831.14253 C5080.50086,1827.94252 5079.96754,1825.34254 5078.90086,1823.34253 L5074.10086,1814.34253 L5065.30086,1806.74253 C5067.16754,1805.14252 5068.70086,1803.74254 5069.90086,1802.54253 C5071.10087,1801.34253 5073.63418,1800.94253 5077.50086,1801.34253 C5081.36755,1801.74253 5085.10085,1802.47586 5088.70086,1803.54253 C5092.30088,1804.6092 5095.30085,1806.47585 5097.70086,1809.14253 C5100.10088,1811.80921 5103.83417,1815.67584 5108.90086,1820.74253 L5114.10086,1813.14253 L5118.90086,1808.74253 C5117.30086,1812.20922 5116.2342,1814.60919 5115.70086,1815.94253 C5115.16753,1817.27587 5114.50087,1819.47585 5113.70086,1822.54253 C5112.90086,1825.60921 5113.76752,1829.20918 5116.30086,1833.34253 C5118.83421,1837.47589 5120.43419,1841.47585 5121.10086,1845.34253 C5121.76753,1849.20922 5122.90086,1855.94248 5124.50086,1865.54253 C5126.10087,1858.07583 5127.76752,1851.94256 5129.50086,1847.14253 C5131.23421,1842.34251 5134.16751,1830.87596 5138.30086,1812.74253 C5142.43422,1794.60911 5144.76753,1782.0759 5145.30086,1775.14253 C5145.8342,1768.20916 5144.96754,1763.54254 5142.70086,1761.14253 C5140.43419,1758.74252 5138.90087,1756.94254 5138.10086,1755.74253 C5137.30086,1754.54253 5136.36754,1752.60921 5135.30086,1749.94253 L5136.90086,1749.54253 L5136.90086,1747.54253 L5142.50086,1744.74253 C5143.0342,1744.74253 5143.56753,1744.67587 5144.10086,1744.54253 C5144.6342,1744.4092 5146.63418,1744.87586 5150.10086,1745.94253 C5153.56755,1747.0092 5158.03417,1749.00918 5163.50086,1751.94253 C5168.96756,1754.87588 5172.96752,1757.47585 5175.50086,1759.74253 C5178.03421,1762.00921 5181.16751,1765.00918 5184.90086,1768.74253 C5185.96754,1771.40921 5187.03419,1773.67586 5188.10086,1775.54253 C5189.16754,1777.40921 5189.4342,1781.87583 5188.90086,1788.94253 C5188.36753,1796.00923 5187.76753,1801.07585 5187.10086,1804.14253 C5186.43419,1807.20921 5185.6342,1809.67586 5184.70086,1811.54253 C5183.76753,1813.40921 5182.10088,1817.1425 5179.70086,1822.74253 L5181.30086,1822.74253 L5182.97645,1817.95513 L5182.97645,1817.95513 Z M5327.4998,2030.44719 C5328.23349,2030.11075 5328.96717,2029.94253 5329.70086,2029.94253 C5328.97923,2030.18308 5328.24554,2030.3513 5327.4998,2030.44719 L5327.4998,2030.44719 Z M5073.65995,2011.7698 C5073.67281,2011.82728 5073.68644,2011.88486 5073.70086,2011.94253 L5069.70086,2009.94253 L5073.65995,2011.7698 L5073.65995,2011.7698 Z M5146.10086,1921.54253 C5142.63418,1933.27592 5140.03421,1940.94251 5138.30086,1944.54253 C5136.56752,1948.14255 5135.56753,1951.34252 5135.30086,1954.14253 C5135.0342,1956.94255 5134.30087,1959.40919 5133.10086,1961.54253 C5131.90086,1963.67588 5131.36753,1966.00919 5131.50086,1968.54253 C5131.6342,1971.07588 5130.56754,1974.47584 5128.30086,1978.74253 C5126.03419,1983.00922 5124.50087,1986.87585 5123.70086,1990.34253 C5122.90086,1993.80922 5122.36753,1997.14252 5122.10086,2000.34253 C5121.8342,2003.54255 5121.70086,2005.94252 5121.70086,2007.54253 C5123.0342,2005.40919 5124.03419,2003.94254 5124.70086,2003.14253 C5125.36753,2002.34253 5125.70086,2001.20921 5125.70086,1999.74253 C5125.70086,1998.27586 5126.36752,1996.27588 5127.70086,1993.74253 C5129.0342,1991.20919 5130.90085,1986.6759 5133.30086,1980.14253 C5135.70088,1973.60917 5136.90086,1968.34255 5136.90086,1964.34253 C5136.90086,1960.34251 5137.23419,1956.87588 5137.90086,1953.94253 C5138.56753,1951.00918 5139.50086,1948.54254 5140.70086,1946.54253 C5141.90087,1944.54252 5142.6342,1942.27588 5142.90086,1939.74253 C5143.16753,1937.20919 5143.70086,1935.20921 5144.50086,1933.74253 C5145.30087,1932.27586 5145.70086,1930.94254 5145.70086,1929.74253 C5145.70086,1928.54253 5145.96753,1926.20922 5146.50086,1922.74253 L5146.10086,1921.54253 Z M5134.50086,1947.14253 L5130.90086,1955.94253 L5132.10086,1955.94253 L5134.90086,1947.94253 L5134.50086,1947.14253 Z M5130.90086,1956.74253 L5123.70086,1974.34253 L5126.90086,1972.74253 C5128.76754,1967.94251 5130.23419,1962.74256 5131.30086,1957.14253 L5130.90086,1956.74253 Z M5124.50086,1975.54253 C5124.76753,1976.87587 5124.50087,1977.87586 5123.70086,1978.54253 C5122.90086,1979.2092 5122.0342,1980.60919 5121.10086,1982.74253 C5120.16753,1984.87588 5119.56753,1987.14252 5119.30086,1989.54253 L5121.30086,1986.74253 L5121.30086,1989.54253 C5122.90087,1985.00918 5124.16753,1981.74254 5125.10086,1979.74253 C5126.0342,1977.74252 5126.4342,1976.54253 5126.30086,1976.14253 C5126.16753,1975.74253 5126.10086,1975.27587 5126.10086,1974.74253 L5124.50086,1975.54253 Z M5669.48241,1950.10047 C5669.46132,1949.46937 5669.44208,1948.83736 5669.42466,1948.20443 L5670.50086,1948.74253 L5669.48241,1950.10047 L5669.48241,1950.10047 Z M5669.42466,1948.20443 L5668.90086,1947.94253 L5669.30086,1939.14253 C5669.30086,1942.18381 5669.34213,1945.20444 5669.42466,1948.20443 L5669.42466,1948.20443 Z M5669.48241,1950.10047 C5669.72068,1957.23175 5670.1935,1964.24574 5670.90086,1971.14253 L5672.50086,1959.14253 L5672.50086,1973.54253 L5674.10086,1973.54253 L5674.90086,1965.54253 C5674.6342,1976.20925 5675.30086,1986.74248 5676.90086,1997.14253 L5678.50086,1998.74253 C5679.0342,1999.54254 5679.56753,2000.07586 5680.10086,2000.34253 C5680.6342,2000.6092 5680.96753,2001.14253 5681.10086,2001.94253 C5681.2342,2002.74254 5681.56753,2004.07586 5682.10086,2005.94253 L5689.30086,2005.94253 L5690.50086,2007.54253 C5692.36754,2009.14254 5693.63419,2010.34253 5694.30086,2011.14253 C5694.96753,2011.94254 5695.56753,2012.34253 5696.10086,2012.34253 L5698.50086,2012.34253 C5700.10087,2015.54255 5702.10085,2018.34252 5704.50086,2020.74253 L5706.50086,2019.94253 L5708.10086,2019.94253 L5714.10086,2032.74253 C5712.50086,2035.94255 5710.83421,2041.47583 5709.10086,2049.34253 C5707.36752,2057.20924 5705.96754,2062.47585 5704.90086,2065.14253 C5701.96752,2065.4092 5699.43421,2065.54253 5697.30086,2065.54253 C5695.16752,2065.54253 5692.63421,2067.00918 5689.70086,2069.94253 C5686.76752,2072.87588 5683.76755,2074.14253 5680.70086,2073.74253 C5677.63418,2073.34253 5675.16754,2074.14252 5673.30086,2076.14253 C5671.43419,2078.14254 5668.96755,2078.74254 5665.90086,2077.94253 C5662.83418,2077.14253 5660.23421,2076.8092 5658.10086,2076.94253 C5655.96752,2077.07587 5654.6342,2077.07587 5654.10086,2076.94253 C5653.56753,2076.8092 5653.0342,2076.6092 5652.50086,2076.34253 L5649.70086,2079.14253 C5640.36748,2078.07586 5633.96755,2076.94254 5630.50086,2075.74253 C5627.03418,2074.54253 5623.30088,2074.87586 5619.30086,2076.74253 C5615.30084,2078.60921 5600.03433,2079.54253 5573.50086,2079.54253 C5546.9674,2079.54253 5529.96757,2080.07586 5522.50086,2081.14253 C5515.03416,2082.2092 5509.90088,2082.14254 5507.10086,2080.94253 L5497.30086,2076.74253 L5490.50086,2057.14253 L5485.70086,2054.34253 L5484.10086,2051.54253 L5486.90086,2051.94253 L5480.50086,2043.14253 L5479.30086,2045.14253 C5479.30086,2041.14251 5479.56753,2038.20921 5480.10086,2036.34253 C5480.6342,2034.47586 5481.76752,2031.07589 5483.50086,2026.14253 C5485.23421,2021.20917 5486.63419,2013.94258 5487.70086,2004.34253 C5488.76754,1994.74248 5489.16753,1989.07587 5488.90086,1987.34253 C5488.6342,1985.60919 5488.36753,1983.54254 5488.10086,1981.14253 L5484.50086,1981.94253 C5483.70086,1982.74254 5482.90087,1984.47585 5482.10086,1987.14253 C5481.30086,1989.80921 5480.2342,1992.60918 5478.90086,1995.54253 L5477.30086,1995.54253 C5477.0342,1995.54253 5475.83421,1995.87586 5473.70086,1996.54253 C5471.56752,1997.2092 5468.36755,1998.07586 5464.10086,1999.14253 L5458.10086,2006.74253 C5455.96752,2005.67586 5453.23421,2003.94254 5449.90086,2001.54253 C5446.56751,1999.14252 5444.2342,1997.4092 5442.90086,1996.34253 C5441.56752,1995.27586 5440.10087,1994.6092 5438.50086,1994.34253 C5438.76753,1993.8092 5436.96755,1990.67589 5433.10086,1984.94253 C5429.23418,1979.20917 5426.23421,1975.00921 5424.10086,1972.34253 C5421.96752,1969.67585 5419.43421,1965.94256 5416.50086,1961.14253 L5411.30086,1957.54253 L5412.90086,1955.14253 L5410.50086,1955.14253 L5412.50086,1953.94253 L5413.30086,1952.34253 L5410.90086,1949.14253 L5415.70086,1948.74253 L5416.50086,1941.94253 L5416.90086,1943.94253 C5417.4342,1942.87586 5417.70086,1942.14253 5417.70086,1941.74253 C5417.70086,1941.34253 5417.16754,1938.0759 5416.10086,1931.94253 C5415.03419,1925.80917 5412.63422,1918.47591 5408.90086,1909.94253 C5405.16751,1901.40916 5402.43421,1896.07588 5400.70086,1893.94253 C5398.96752,1891.80919 5396.90088,1889.27588 5394.50086,1886.34253 C5390.23418,1885.54253 5387.16754,1885.14253 5385.30086,1885.14253 C5383.43419,1885.14253 5382.10087,1884.8092 5381.30086,1884.14253 C5380.50086,1883.47586 5379.30087,1882.34254 5377.70086,1880.74253 L5379.30086,1876.34253 L5371.30086,1871.94253 L5370.90086,1867.14253 L5365.70086,1862.34253 L5364.50086,1856.74253 L5368.50086,1851.94253 C5367.70086,1851.67586 5367.0342,1851.4092 5366.50086,1851.14253 C5365.96753,1850.87586 5365.30087,1851.0092 5364.50086,1851.54253 C5363.70086,1852.07587 5362.6342,1852.87586 5361.30086,1853.94253 L5361.30086,1851.54253 C5370.63424,1847.54251 5378.96749,1844.34254 5386.30086,1841.94253 C5393.63423,1839.54252 5397.70086,1838.07587 5398.50086,1837.54253 C5388.90082,1832.74251 5380.23424,1826.60924 5372.50086,1819.14253 L5370.90086,1813.94253 L5373.70086,1813.14253 L5372.10086,1811.94253 C5380.1009,1811.67586 5387.3675,1811.54253 5393.90086,1811.54253 C5400.43423,1811.54253 5406.83417,1811.94253 5413.10086,1812.74253 C5419.36756,1813.54254 5426.56749,1815.80918 5434.70086,1819.54253 C5442.83424,1823.27588 5456.6341,1821.4759 5476.10086,1814.14253 C5495.56763,1806.80916 5505.70086,1803.2092 5506.50086,1803.34253 C5507.30087,1803.47587 5508.23419,1803.67586 5509.30086,1803.94253 L5509.30086,1800.54253 C5509.30086,1799.34253 5509.83419,1795.34257 5510.90086,1788.54253 C5511.96754,1781.7425 5512.76753,1774.74257 5513.30086,1767.54253 C5513.8342,1760.3425 5513.70087,1754.27589 5512.90086,1749.34253 C5512.10086,1744.40917 5510.36754,1740.54255 5507.70086,1737.74253 C5505.03418,1734.94252 5503.4342,1733.14254 5502.90086,1732.34253 C5502.36753,1731.54253 5501.96753,1730.20921 5501.70086,1728.34253 L5504.90086,1728.34253 L5504.90086,1725.54253 C5508.10088,1726.07587 5510.43419,1726.67586 5511.90086,1727.34253 C5513.36754,1728.0092 5515.23419,1727.87587 5517.50086,1726.94253 C5519.76754,1726.00919 5522.50085,1726.67585 5525.70086,1728.94253 C5528.90088,1731.20921 5531.90085,1732.34253 5534.70086,1732.34253 C5537.50088,1732.34253 5539.70086,1733.07586 5541.30086,1734.54253 C5542.90087,1736.00921 5544.30086,1737.14253 5545.50086,1737.94253 C5546.70087,1738.74254 5548.63418,1739.80919 5551.30086,1741.14253 C5553.70088,1743.54254 5555.50086,1745.27586 5556.70086,1746.34253 C5557.90087,1747.4092 5558.96753,1748.74252 5559.90086,1750.34253 C5560.8342,1751.94254 5561.10087,1753.47586 5560.70086,1754.94253 C5560.30086,1756.40921 5559.70087,1758.74252 5558.90086,1761.94253 L5552.50086,1766.74253 C5544.76749,1775.80924 5539.83421,1785.80914 5537.70086,1796.74253 C5538.76754,1797.27587 5539.70086,1797.6092 5540.50086,1797.74253 C5541.30087,1797.87587 5542.90085,1797.6092 5545.30086,1796.94253 L5556.10086,1793.94253 L5557.70086,1793.14253 C5561.16755,1793.94254 5564.63418,1793.14254 5568.10086,1790.74253 L5568.90086,1793.14253 C5570.2342,1791.54252 5571.43419,1790.74253 5572.50086,1790.74253 C5573.56754,1790.74253 5574.90086,1790.47587 5576.50086,1789.94253 C5578.10087,1789.4092 5580.03419,1788.94253 5582.30086,1788.54253 C5584.56754,1788.14253 5587.03418,1787.6092 5589.70086,1786.94253 C5592.36754,1786.27586 5594.23419,1785.4092 5595.30086,1784.34253 L5604.10086,1767.54253 L5607.70086,1768.34253 L5617.70086,1780.74253 L5635.70086,1786.74253 L5639.70086,1790.74253 C5645.30089,1794.20922 5650.7675,1797.40918 5656.10086,1800.34253 C5657.70087,1803.80922 5658.96753,1806.14253 5659.90086,1807.34253 C5660.8342,1808.54254 5661.10087,1809.60919 5660.70086,1810.54253 C5660.30086,1811.47587 5660.10086,1813.00919 5660.10086,1815.14253 L5656.90086,1816.34253 L5655.30086,1819.54253 C5651.03418,1821.67588 5646.16756,1823.60919 5640.70086,1825.34253 C5635.23417,1827.07587 5632.10087,1828.2092 5631.30086,1828.74253 C5630.50086,1829.27587 5629.30087,1829.8092 5627.70086,1830.34253 C5625.03418,1835.14256 5622.70087,1838.94252 5620.70086,1841.74253 C5618.70085,1844.54255 5615.76755,1850.54249 5611.90086,1859.74253 C5608.03418,1868.94258 5601.03425,1887.40906 5590.90086,1915.14253 L5592.50086,1918.34253 L5586.90086,1929.54253 C5583.70085,1935.94256 5582.0342,1941.60917 5581.90086,1946.54253 C5581.76753,1951.47589 5581.30087,1959.54248 5580.50086,1970.74253 L5577.70086,1971.94253 L5574.10086,1967.94253 L5571.30086,1974.34253 L5561.70086,1968.34253 L5559.70086,1972.34253 L5556.90086,1970.74253 C5555.56752,1972.60921 5553.96754,1973.14254 5552.10086,1972.34253 L5550.10086,1975.54253 L5547.30086,1973.54253 C5547.0342,1972.20919 5546.70087,1971.0092 5546.30086,1969.94253 C5545.90086,1968.87586 5545.56753,1967.60921 5545.30086,1966.14253 C5545.0342,1964.67586 5544.56753,1963.27587 5543.90086,1961.94253 C5543.23419,1960.60919 5542.96753,1959.6092 5543.10086,1958.94253 C5543.2342,1958.27586 5542.90087,1957.27587 5542.10086,1955.94253 L5543.70086,1953.94253 L5540.50086,1951.14253 L5538.90086,1953.94253 C5537.56752,1953.94253 5536.70087,1953.87587 5536.30086,1953.74253 C5535.90086,1953.6092 5535.16754,1953.74253 5534.10086,1954.14253 C5533.03419,1954.54253 5531.30088,1955.0092 5528.90086,1955.54253 L5527.70086,1953.94253 L5526.90086,1955.14253 C5522.63418,1957.27588 5518.63422,1959.67585 5514.90086,1962.34253 L5513.30086,1961.94253 C5513.0342,1964.34254 5512.96753,1966.00919 5513.10086,1966.94253 C5513.2342,1967.87587 5513.0342,1968.6092 5512.50086,1969.14253 C5511.96753,1969.67587 5511.56753,1970.2092 5511.30086,1970.74253 C5511.56753,1971.27587 5511.6342,1972.94252 5511.50086,1975.74253 C5511.36753,1978.54255 5511.30086,1980.80919 5511.30086,1982.54253 C5511.30086,1984.27587 5511.16753,1985.80919 5510.90086,1987.14253 C5510.6342,1988.47587 5510.56753,1989.74253 5510.70086,1990.94253 C5510.8342,1992.14254 5511.0342,1993.80919 5511.30086,1995.94253 L5513.70086,1996.74253 L5514.90086,1995.54253 C5514.6342,2006.74259 5515.96752,2017.54248 5518.90086,2027.94253 C5522.36755,2028.74254 5525.70085,2029.60919 5528.90086,2030.54253 C5532.10088,2031.47587 5540.1008,2031.4092 5552.90086,2030.34253 C5565.70093,2029.27586 5579.76745,2027.80921 5595.10086,2025.94253 C5610.43427,2024.07586 5618.90086,2022.47587 5620.50086,2021.14253 L5625.30086,2017.14253 C5628.50088,2009.9425 5630.96752,2004.67588 5632.70086,2001.34253 C5634.43421,1998.00918 5636.16752,1992.8759 5637.90086,1985.94253 C5639.63421,1979.00916 5641.23419,1970.60925 5642.70086,1960.74253 C5644.16754,1950.87582 5645.30086,1945.00921 5646.10086,1943.14253 L5646.10086,1961.94253 L5654.90086,1926.34253 C5654.10086,1930.60922 5653.56753,1935.00918 5653.30086,1939.54253 C5653.0342,1944.07589 5652.90086,1948.07585 5652.90086,1951.54253 L5657.70086,1928.74253 L5656.50086,1941.14253 L5658.10086,1939.14253 L5656.90086,1944.34253 L5656.90086,1941.54253 L5655.30086,1942.74253 L5656.90086,1955.94253 L5662.50086,1927.14253 L5662.50086,1932.34253 C5663.56754,1932.87587 5664.50086,1933.0092 5665.30086,1932.74253 L5664.90086,1942.74253 L5667.70086,1936.34253 C5666.10086,1945.67591 5665.4342,1954.74249 5665.70086,1963.54253 L5668.10086,1948.74253 L5669.30086,1950.34253 L5669.48241,1950.10047 L5669.48241,1950.10047 Z M5580.90086,1808.34253 C5573.43416,1809.14254 5567.43422,1809.6092 5562.90086,1809.74253 C5558.36751,1809.87587 5553.23423,1810.54253 5547.50086,1811.74253 C5541.7675,1812.94254 5538.50087,1813.87586 5537.70086,1814.54253 C5536.90086,1815.2092 5536.10087,1815.8092 5535.30086,1816.34253 L5558.50086,1812.74253 C5553.96751,1814.60921 5549.43422,1815.8092 5544.90086,1816.34253 C5545.70087,1816.6092 5546.50086,1816.67587 5547.30086,1816.54253 C5548.10087,1816.4092 5548.96753,1816.54253 5549.90086,1816.94253 C5550.8342,1817.34253 5552.03419,1817.2092 5553.50086,1816.54253 C5554.96754,1815.87586 5557.03418,1815.14254 5559.70086,1814.34253 L5560.90086,1812.34253 C5567.56756,1812.34253 5574.23416,1811.00921 5580.90086,1808.34253 Z M5544.90086,1816.34253 C5541.96752,1816.6092 5539.8342,1816.74253 5538.50086,1816.74253 C5537.16752,1816.74253 5536.4342,1816.87586 5536.30086,1817.14253 C5536.16753,1817.4092 5535.70087,1817.8092 5534.90086,1818.34253 L5537.30086,1820.34253 L5536.10086,1821.94253 L5546.50086,1820.34253 L5546.90086,1819.14253 L5541.70086,1820.34253 L5539.30086,1818.74253 C5541.43421,1819.0092 5543.30086,1818.34254 5544.90086,1816.74253 L5544.90086,1816.34253 Z M5572.50086,1818.34253 L5570.10086,1818.94253 C5569.56753,1819.07587 5568.43421,1819.07587 5566.70086,1818.94253 C5564.96752,1818.8092 5563.16754,1819.0092 5561.30086,1819.54253 C5559.43419,1820.07587 5557.63421,1820.2092 5555.90086,1819.94253 C5554.16752,1819.67586 5552.8342,1820.00919 5551.90086,1820.94253 C5550.96753,1821.87587 5548.76755,1822.4092 5545.30086,1822.54253 C5541.83418,1822.67587 5539.56754,1823.14253 5538.50086,1823.94253 C5537.43419,1824.74254 5535.83421,1825.4092 5533.70086,1825.94253 L5533.70086,1830.74253 C5533.70086,1831.8092 5533.6342,1833.27586 5533.50086,1835.14253 C5533.36753,1837.00921 5532.76754,1839.27585 5531.70086,1841.94253 C5533.0342,1841.67586 5534.16753,1841.27587 5535.10086,1840.74253 C5536.0342,1840.2092 5538.96751,1839.74253 5543.90086,1839.34253 C5548.83422,1838.94253 5556.10082,1838.07587 5565.70086,1836.74253 L5568.50086,1839.94253 L5575.70086,1843.94253 L5578.90086,1847.54253 L5581.30086,1847.94253 L5592.10086,1819.14253 L5572.50086,1818.34253 Z M5508.50086,1824.74253 C5505.56752,1825.54254 5502.63421,1825.8092 5499.70086,1825.54253 L5498.50086,1827.14253 L5489.30086,1829.54253 L5486.90086,1833.14253 L5507.70086,1826.74253 L5508.50086,1824.74253 Z M5531.70086,1825.14253 L5529.30086,1834.34253 L5525.70086,1835.14253 C5525.96753,1836.74254 5526.2342,1837.74253 5526.50086,1838.14253 C5526.76753,1838.54253 5526.8342,1839.07586 5526.70086,1839.74253 C5526.56753,1840.4092 5526.50086,1841.54252 5526.50086,1843.14253 C5527.30087,1842.34253 5528.63419,1842.07586 5530.50086,1842.34253 C5531.8342,1836.47584 5532.50086,1830.74256 5532.50086,1825.14253 L5531.70086,1825.14253 Z M5506.10086,1833.14253 C5504.23419,1833.4092 5497.96758,1835.94251 5487.30086,1840.74253 C5476.63414,1845.54256 5466.10092,1850.47584 5455.70086,1855.54253 C5455.96753,1863.00924 5457.43418,1870.07583 5460.10086,1876.74253 C5473.9676,1868.47582 5488.23412,1860.34257 5502.90086,1852.34253 L5504.10086,1853.94253 L5506.10086,1852.34253 C5506.36753,1847.27584 5506.6342,1843.67588 5506.90086,1841.54253 C5507.16753,1839.40919 5507.16753,1837.87587 5506.90086,1836.94253 C5506.6342,1836.00919 5506.36753,1834.74254 5506.10086,1833.14253 Z M5542.10086,1844.34253 C5538.90085,1845.4092 5535.83421,1845.54254 5532.90086,1844.74253 L5530.50086,1848.34253 L5540.90086,1845.54253 L5542.10086,1844.34253 Z M5610.10086,1852.34253 C5609.56753,1853.94254 5609.10087,1855.40919 5608.70086,1856.74253 C5608.30086,1858.07587 5606.96754,1861.14251 5604.70086,1865.94253 C5602.43419,1870.74256 5600.56754,1873.94252 5599.10086,1875.54253 C5597.63419,1877.14254 5595.70088,1879.67585 5593.30086,1883.14253 L5594.10086,1885.14253 L5596.90086,1883.14253 C5592.63418,1892.74258 5589.03421,1902.60915 5586.10086,1912.74253 L5589.30086,1915.54253 C5602.90093,1881.94236 5609.96753,1863.54255 5610.50086,1860.34253 C5611.0342,1857.14252 5611.96752,1853.54255 5613.30086,1849.54253 L5610.10086,1852.34253 Z M5558.90086,1853.54253 C5555.43418,1854.07587 5551.83422,1854.80919 5548.10086,1855.74253 C5544.36751,1856.67587 5541.90087,1857.4092 5540.70086,1857.94253 C5539.50086,1858.47587 5538.36754,1858.74253 5537.30086,1858.74253 L5536.50086,1861.54253 L5530.50086,1864.34253 L5528.50086,1870.74253 L5528.50086,1866.74253 L5526.50086,1867.14253 L5523.70086,1879.94253 L5523.70086,1877.14253 L5521.30086,1880.74253 L5520.90086,1878.34253 L5519.70086,1885.94253 L5520.90086,1884.34253 L5520.90086,1887.54253 L5526.10086,1883.54253 C5525.8342,1879.27584 5526.63419,1875.27588 5528.50086,1871.54253 L5526.90086,1880.74253 L5528.50086,1881.54253 L5529.30086,1875.54253 L5530.10086,1877.14253 L5531.70086,1878.34253 L5558.90086,1853.54253 Z M5569.70086,1861.14253 C5564.63417,1864.34255 5561.10087,1866.60919 5559.10086,1867.94253 C5557.10085,1869.27587 5552.9009,1872.34251 5546.50086,1877.14253 C5540.10083,1881.94256 5535.70088,1884.87586 5533.30086,1885.94253 L5536.10086,1893.94253 L5558.90086,1908.34253 L5572.50086,1872.34253 L5570.90086,1871.94253 L5572.50086,1871.14253 L5572.90086,1868.74253 L5567.30086,1871.94253 C5568.6342,1869.27585 5569.83419,1867.6092 5570.90086,1866.94253 C5571.96754,1866.27586 5572.4342,1865.6092 5572.30086,1864.94253 C5572.16753,1864.27586 5572.2342,1863.27587 5572.50086,1861.94253 L5569.70086,1861.14253 Z M5594.10086,1862.34253 C5591.96752,1865.54255 5590.90086,1868.74252 5590.90086,1871.94253 L5594.50086,1862.34253 L5594.10086,1862.34253 Z M5412.90086,1867.94253 C5412.10086,1867.94253 5411.56753,1867.8092 5411.30086,1867.54253 C5411.0342,1867.27586 5407.96756,1867.80919 5402.10086,1869.14253 C5396.23417,1870.47587 5392.76754,1871.60919 5391.70086,1872.54253 C5390.63419,1873.47587 5389.30087,1874.47586 5387.70086,1875.54253 L5395.70086,1883.94253 L5406.10086,1898.74253 L5421.30086,1912.74253 C5421.30086,1910.60919 5421.4342,1909.0092 5421.70086,1907.94253 C5421.96753,1906.87586 5421.16754,1905.34254 5419.30086,1903.34253 C5417.43419,1901.34252 5414.63422,1897.67589 5410.90086,1892.34253 L5419.30086,1897.94253 L5412.90086,1867.94253 Z M5500.90086,1878.74253 L5467.30086,1894.34253 L5469.30086,1903.14253 L5467.70086,1903.94253 L5473.70086,1931.14253 L5474.50086,1928.74253 L5500.50086,1905.94253 C5499.96753,1898.20916 5500.50086,1890.60924 5502.10086,1883.14253 L5499.70086,1882.74253 C5500.50087,1881.94253 5501.0342,1880.87587 5501.30086,1879.54253 L5500.90086,1878.74253 Z M5585.70086,1884.74253 C5584.63419,1888.20922 5583.03421,1891.27585 5580.90086,1893.94253 L5581.70086,1895.94253 L5585.70086,1885.14253 L5585.70086,1884.74253 Z M5593.30086,1887.14253 L5583.70086,1909.54253 L5584.90086,1911.54253 C5585.16753,1909.94252 5585.4342,1908.8092 5585.70086,1908.14253 C5585.96753,1907.47586 5586.90086,1905.40922 5588.50086,1901.94253 C5590.10087,1898.47585 5591.83419,1893.54256 5593.70086,1887.14253 L5593.30086,1887.14253 Z M5526.50086,1891.14253 L5525.70086,1893.54253 L5522.90086,1893.54253 L5522.10086,1895.94253 C5519.96752,1897.0092 5518.10087,1898.34252 5516.50086,1899.94253 C5515.43419,1901.80921 5514.76753,1903.80919 5514.50086,1905.94253 C5514.2342,1908.07588 5513.70087,1909.67586 5512.90086,1910.74253 L5514.10086,1913.54253 L5509.70086,1923.94253 L5511.30086,1923.54253 L5509.70086,1931.94253 C5513.96755,1929.80919 5517.23419,1928.4092 5519.50086,1927.74253 C5521.76754,1927.07586 5523.90085,1926.27587 5525.90086,1925.34253 C5527.90087,1924.40919 5529.56752,1923.74253 5530.90086,1923.34253 C5532.2342,1922.94253 5533.30086,1922.34254 5534.10086,1921.54253 L5527.30086,1914.34253 L5526.10086,1913.54253 L5531.70086,1914.34253 L5527.70086,1909.14253 L5534.10086,1911.94253 C5533.8342,1909.80919 5533.70086,1908.2092 5533.70086,1907.14253 C5533.70086,1906.07586 5533.4342,1905.27587 5532.90086,1904.74253 C5532.36753,1904.2092 5531.56754,1903.27587 5530.50086,1901.94253 L5532.50086,1902.74253 L5532.50086,1898.74253 L5528.90086,1895.54253 L5531.70086,1896.34253 L5529.30086,1888.34253 L5526.50086,1891.14253 Z M5579.30086,1893.14253 C5576.90085,1896.87588 5575.4342,1900.60918 5574.90086,1904.34253 L5580.10086,1893.94253 L5579.30086,1893.14253 Z M5579.30086,1897.94253 C5576.90085,1901.94255 5575.70086,1905.80918 5575.70086,1909.54253 C5576.50087,1908.74253 5577.10086,1908.07587 5577.50086,1907.54253 C5577.90087,1907.0092 5578.30086,1905.94254 5578.70086,1904.34253 C5579.10087,1902.74252 5580.10086,1900.07588 5581.70086,1896.34253 L5579.30086,1897.94253 Z M5496.90086,1916.34253 C5494.76752,1918.74254 5492.50088,1921.14252 5490.10086,1923.54253 L5485.30086,1928.34253 C5484.23419,1929.4092 5483.4342,1929.94253 5482.90086,1929.94253 L5481.30086,1929.94253 L5479.30086,1932.74253 L5477.30086,1933.54253 L5479.30086,1943.94253 C5484.90089,1942.34252 5490.3675,1939.94255 5495.70086,1936.74253 C5496.76754,1930.07583 5498.23419,1923.2759 5500.10086,1916.34253 L5496.90086,1916.34253 Z M5508.50086,1919.14253 C5506.36752,1923.94256 5505.30086,1928.74251 5505.30086,1933.54253 L5506.90086,1933.54253 L5509.30086,1919.14253 L5508.50086,1919.14253 Z M5838.50086,1717.94253 C5838.76753,1717.94253 5838.96753,1717.87587 5839.10086,1717.74253 C5839.2342,1717.6092 5843.90082,1719.54251 5853.10086,1723.54253 C5862.30091,1727.54255 5870.1675,1731.40918 5876.70086,1735.14253 C5883.23423,1738.87588 5887.70085,1740.67587 5890.10086,1740.54253 C5892.50088,1740.4092 5894.10086,1740.6092 5894.90086,1741.14253 C5895.70087,1741.67587 5897.03419,1741.94253 5898.90086,1741.94253 L5902.90086,1746.34253 C5910.36757,1750.87589 5917.70083,1755.80917 5924.90086,1761.14253 L5923.70086,1764.74253 C5914.36748,1770.60923 5905.56757,1776.87583 5897.30086,1783.54253 L5903.30086,1785.94253 C5905.16754,1788.07588 5906.76752,1789.60919 5908.10086,1790.54253 C5909.4342,1791.47587 5910.30086,1792.94252 5910.70086,1794.94253 C5911.10087,1796.94254 5910.8342,1798.60919 5909.90086,1799.94253 C5908.96753,1801.27587 5907.56754,1803.67585 5905.70086,1807.14253 L5889.70086,1822.34253 C5902.50093,1819.94252 5911.7675,1818.47587 5917.50086,1817.94253 C5923.23423,1817.4092 5927.50085,1816.54254 5930.30086,1815.34253 C5933.10088,1814.14253 5936.63418,1812.34254 5940.90086,1809.94253 C5942.50087,1810.47587 5943.63419,1811.07586 5944.30086,1811.74253 C5944.96753,1812.4092 5947.76751,1813.47586 5952.70086,1814.94253 C5957.63422,1816.40921 5963.43416,1818.47585 5970.10086,1821.14253 C5972.50088,1824.34255 5974.30086,1826.60919 5975.50086,1827.94253 C5976.70087,1829.27587 5977.36753,1830.27586 5977.50086,1830.94253 C5977.6342,1831.6092 5978.10086,1832.47586 5978.90086,1833.54253 C5978.10086,1834.6092 5977.30087,1835.2092 5976.50086,1835.34253 C5975.70086,1835.47587 5974.76754,1836.27586 5973.70086,1837.74253 C5972.63419,1839.20921 5971.10087,1839.8092 5969.10086,1839.54253 C5967.10085,1839.27586 5965.70087,1839.54253 5964.90086,1840.34253 C5964.10086,1841.14254 5963.2342,1841.6092 5962.30086,1841.74253 C5961.36753,1841.87587 5960.10087,1842.07586 5958.50086,1842.34253 L5960.90086,1847.14253 C5958.50085,1847.67587 5956.70087,1847.8092 5955.50086,1847.54253 C5954.30086,1847.27586 5952.76754,1846.87587 5950.90086,1846.34253 C5949.03419,1845.8092 5947.30087,1845.54253 5945.70086,1845.54253 L5945.30086,1846.74253 C5944.23419,1846.47586 5943.4342,1846.14253 5942.90086,1845.74253 C5942.36753,1845.34253 5940.43421,1845.14253 5937.10086,1845.14253 C5933.76751,1845.14253 5930.50088,1845.4092 5927.30086,1845.94253 C5924.10085,1846.47587 5918.23424,1846.94253 5909.70086,1847.34253 C5901.16749,1847.74253 5891.03426,1849.60918 5879.30086,1852.94253 C5867.56747,1856.27588 5858.36756,1859.14252 5851.70086,1861.54253 C5845.03416,1863.94254 5837.43424,1867.14251 5828.90086,1871.14253 C5829.16753,1874.07588 5829.2342,1876.34252 5829.10086,1877.94253 C5828.96753,1879.54254 5828.90086,1881.07586 5828.90086,1882.54253 C5828.90086,1884.00921 5828.70087,1885.60919 5828.30086,1887.34253 C5827.90086,1889.07587 5827.56753,1892.20918 5827.30086,1896.74253 C5851.30098,1883.6758 5867.90082,1876.40921 5877.10086,1874.94253 C5886.30091,1873.47586 5892.96751,1871.67588 5897.10086,1869.54253 C5901.23422,1867.40919 5903.83419,1866.47586 5904.90086,1866.74253 C5905.96754,1867.0092 5907.43419,1866.87587 5909.30086,1866.34253 L5910.10086,1868.34253 C5914.90089,1871.00921 5919.9675,1872.87586 5925.30086,1873.94253 L5933.30086,1882.34253 L5932.10086,1887.54253 C5929.70085,1889.14254 5927.90087,1890.27586 5926.70086,1890.94253 C5925.50086,1891.6092 5923.23421,1892.0092 5919.90086,1892.14253 C5916.56751,1892.27587 5914.36754,1892.87586 5913.30086,1893.94253 C5912.23419,1895.0092 5910.76754,1895.4092 5908.90086,1895.14253 C5907.03419,1894.87586 5904.56755,1896.07585 5901.50086,1898.74253 C5898.43418,1901.40921 5893.43423,1905.5425 5886.50086,1911.14253 C5888.63421,1911.14253 5890.43419,1911.07587 5891.90086,1910.94253 C5893.36754,1910.8092 5896.36751,1911.74252 5900.90086,1913.74253 C5905.43422,1915.74254 5908.96752,1917.60919 5911.50086,1919.34253 C5914.03421,1921.07587 5917.43418,1923.40918 5921.70086,1926.34253 L5922.10086,1931.94253 C5919.96752,1933.0092 5916.30089,1934.07586 5911.10086,1935.14253 C5905.90084,1936.2092 5901.96754,1937.27586 5899.30086,1938.34253 L5897.30086,1942.34253 L5889.30086,1949.94253 C5889.56753,1951.0092 5891.10085,1953.94251 5893.90086,1958.74253 C5896.70088,1963.54256 5898.16753,1971.40914 5898.30086,1982.34253 C5898.4342,1993.27592 5898.10087,2001.60917 5897.30086,2007.34253 C5896.50086,2013.07589 5895.96753,2021.00915 5895.70086,2031.14253 C5899.43422,2031.14253 5902.76752,2031.34253 5905.70086,2031.74253 C5908.63421,2032.14253 5913.70083,2031.8092 5920.90086,2030.74253 C5928.1009,2029.67586 5932.16753,2028.74254 5933.10086,2027.94253 C5934.0342,2027.14253 5934.90086,2026.47587 5935.70086,2025.94253 C5940.23422,2014.20914 5944.30085,2004.60924 5947.90086,1997.14253 C5951.50088,1989.67583 5956.23417,1973.54266 5962.10086,1948.74253 C5967.96756,1923.94241 5971.90085,1908.67589 5973.90086,1902.94253 C5975.90087,1897.20917 5978.10085,1890.34257 5980.50086,1882.34253 C5980.2342,1884.20921 5978.90088,1890.60914 5976.50086,1901.54253 C5974.10085,1912.47592 5973.16753,1920.40917 5973.70086,1925.34253 C5974.2342,1930.27589 5974.16753,1934.54251 5973.50086,1938.14253 C5972.83419,1941.74255 5972.96753,1944.94252 5973.90086,1947.74253 C5974.8342,1950.54255 5975.16753,1952.87586 5974.90086,1954.74253 C5974.6342,1956.60921 5974.50086,1959.67584 5974.50086,1963.94253 L5977.30086,1959.14253 C5976.76753,1962.60922 5977.30086,1965.80918 5978.90086,1968.74253 L5980.10086,1969.14253 L5980.10086,1959.54253 L5982.50086,1972.34253 L5983.70086,1973.54253 L5985.30086,1976.34253 L5987.30086,1968.74253 L5988.50086,1976.34253 L5990.50086,1965.54253 C5989.70086,1970.87589 5990.76752,1975.27585 5993.70086,1978.74253 L5994.90086,1977.14253 L5995.30086,1981.14253 C5995.8342,1980.07586 5996.30086,1979.27587 5996.70086,1978.74253 C5997.10087,1978.2092 5997.2342,1976.87588 5997.10086,1974.74253 C5996.96753,1972.60919 5996.90086,1969.00922 5996.90086,1963.94253 C5997.16753,1965.27587 5997.63419,1966.47586 5998.30086,1967.54253 C5998.96753,1968.6092 5999.36753,1972.87583 5999.50086,1980.34253 C5999.6342,1987.80924 6000.03419,1992.40919 6000.70086,1994.14253 C6001.36753,1995.87587 6002.23419,1997.80919 6003.30086,1999.94253 L6004.90086,1998.34253 C6004.6342,2002.34255 6004.36753,2005.14252 6004.10086,2006.74253 C6003.8342,2008.34254 6003.90086,2009.47586 6004.30086,2010.14253 C6004.70087,2010.8092 6005.0342,2011.94252 6005.30086,2013.54253 C6007.70088,2014.07587 6009.96752,2015.14252 6012.10086,2016.74253 C6013.70087,2020.20922 6014.96753,2022.80919 6015.90086,2024.54253 C6016.8342,2026.27587 6018.96751,2029.34251 6022.30086,2033.74253 C6025.63421,2038.14255 6028.63418,2042.07585 6031.30086,2045.54253 C6031.0342,2047.14254 6030.90086,2048.47586 6030.90086,2049.54253 C6030.90086,2050.6092 6030.2342,2052.00919 6028.90086,2053.74253 C6027.56752,2055.47587 6026.96753,2057.54252 6027.10086,2059.94253 C6027.2342,2062.34254 6026.36754,2064.20919 6024.50086,2065.54253 C6022.63419,2066.87587 6021.70086,2068.20919 6021.70086,2069.54253 L6021.70086,2075.14253 C6019.83419,2077.00921 6017.70088,2077.54254 6015.30086,2076.74253 L6015.30086,2081.94253 C6014.76753,2081.67586 6013.90087,2081.4092 6012.70086,2081.14253 C6011.50086,2080.87586 6009.36755,2080.67587 6006.30086,2080.54253 C6003.23418,2080.4092 6000.23421,2080.6092 5997.30086,2081.14253 L5998.70086,2085.34253 C5999.10087,2086.54254 5999.4342,2087.27586 5999.70086,2087.54253 C5998.90086,2088.07587 5998.0342,2088.4092 5997.10086,2088.54253 C5996.16753,2088.67587 5992.36756,2087.40921 5985.70086,2084.74253 C5979.03416,2082.07585 5973.36755,2080.2092 5968.70086,2079.14253 C5964.03417,2078.07586 5961.0342,2077.94253 5959.70086,2078.74253 C5958.36752,2079.54254 5956.76754,2080.07586 5954.90086,2080.34253 L5953.30086,2077.54253 C5951.43419,2077.8092 5949.63421,2078.0092 5947.90086,2078.14253 C5946.16752,2078.27587 5942.83422,2077.74254 5937.90086,2076.54253 C5932.96751,2075.34253 5927.50089,2074.87586 5921.50086,2075.14253 C5915.50083,2075.4092 5909.83422,2074.74254 5904.50086,2073.14253 C5899.1675,2071.54252 5895.43421,2071.40919 5893.30086,2072.74253 C5891.16752,2074.07587 5889.10087,2074.74253 5887.10086,2074.74253 C5885.10085,2074.74253 5883.23421,2074.54253 5881.50086,2074.14253 C5879.76752,2073.74253 5877.16755,2072.87587 5873.70086,2071.54253 C5869.96751,2067.00918 5867.36754,2063.87587 5865.90086,2062.14253 C5864.43419,2060.40919 5863.36753,2058.34254 5862.70086,2055.94253 C5862.03419,2053.54252 5861.70086,2051.14254 5861.70086,2048.74253 C5861.70086,2046.34252 5860.23421,2043.87588 5857.30086,2041.34253 C5854.36752,2038.80919 5852.6342,2036.74254 5852.10086,2035.14253 C5851.56753,2033.54252 5851.0342,2031.40921 5850.50086,2028.74253 L5859.30086,2017.14253 L5868.90086,2011.54253 C5870.50087,2004.60916 5872.10086,1999.34255 5873.70086,1995.74253 C5875.30087,1992.14251 5876.76752,1986.27591 5878.10086,1978.14253 C5879.4342,1970.00916 5879.90087,1965.27587 5879.50086,1963.94253 C5879.10086,1962.60919 5878.50087,1961.00921 5877.70086,1959.14253 C5855.56742,1990.34269 5838.36759,2015.74243 5826.10086,2035.34253 C5813.83414,2054.94263 5807.70086,2066.94251 5807.70086,2071.34253 L5807.70086,2086.34253 L5799.70086,2091.14253 C5797.03418,2088.74252 5795.2342,2087.0092 5794.30086,2085.94253 C5793.36753,2084.87586 5792.4342,2084.4092 5791.50086,2084.54253 C5790.56753,2084.67587 5789.16754,2084.6092 5787.30086,2084.34253 L5787.30086,2074.54253 C5787.30086,2072.27585 5786.56754,2069.20922 5785.10086,2065.34253 C5783.63419,2061.47585 5782.70087,2059.47587 5782.30086,2059.34253 C5781.90086,2059.2092 5781.4342,2058.87587 5780.90086,2058.34253 C5781.70087,2057.8092 5782.16753,2057.07587 5782.30086,2056.14253 C5782.4342,2055.20919 5782.96753,2053.67588 5783.90086,2051.54253 C5784.8342,2049.40919 5785.70086,2047.54254 5786.50086,2045.94253 L5794.10086,2043.54253 L5819.30086,2005.94253 L5814.90086,2004.34253 C5811.70085,2001.67585 5809.56754,1999.67587 5808.50086,1998.34253 C5807.43419,1997.00919 5806.6342,1995.07588 5806.10086,1992.54253 C5805.56753,1990.00919 5804.36754,1987.07588 5802.50086,1983.74253 C5800.63419,1980.40918 5797.43422,1973.94258 5792.90086,1964.34253 C5795.03421,1960.87585 5796.70086,1958.00921 5797.90086,1955.74253 C5799.10087,1953.47585 5800.70085,1948.54257 5802.70086,1940.94253 C5804.70087,1933.34249 5805.6342,1928.07588 5805.50086,1925.14253 C5805.36753,1922.20918 5805.50086,1920.4092 5805.90086,1919.74253 C5806.30087,1919.07586 5806.6342,1918.2092 5806.90086,1917.14253 L5803.30086,1912.34253 L5809.30086,1907.14253 L5817.30086,1875.54253 L5761.70086,1896.74253 L5756.10086,1903.14253 C5754.23419,1902.34253 5752.76754,1901.67587 5751.70086,1901.14253 C5750.63419,1900.6092 5749.10087,1899.67587 5747.10086,1898.34253 C5745.10085,1897.00919 5741.83422,1894.47588 5737.30086,1890.74253 L5734.90086,1885.14253 L5738.90086,1880.34253 C5741.03421,1880.6092 5742.96752,1880.8092 5744.70086,1880.94253 C5746.43421,1881.07587 5772.23395,1869.80931 5822.10086,1847.14253 C5821.56753,1839.67583 5822.36752,1832.0759 5824.50086,1824.34253 L5831.70086,1820.34253 L5846.50086,1801.14253 L5838.50086,1803.14253 L5838.50086,1801.14253 C5829.16748,1804.87588 5822.50088,1807.74252 5818.50086,1809.74253 C5814.50084,1811.74254 5811.36754,1812.67587 5809.10086,1812.54253 C5806.83419,1812.4092 5803.70088,1812.47586 5799.70086,1812.74253 C5800.2342,1810.34252 5800.36753,1808.40921 5800.10086,1806.94253 C5799.8342,1805.47586 5799.56753,1803.34255 5799.30086,1800.54253 C5799.0342,1797.74252 5798.4342,1794.74255 5797.50086,1791.54253 C5796.56753,1788.34252 5795.96753,1785.67588 5795.70086,1783.54253 C5795.4342,1781.40919 5795.10087,1779.87587 5794.70086,1778.94253 C5794.30086,1778.00919 5794.10086,1777.0092 5794.10086,1775.94253 L5795.70086,1776.34253 L5795.70086,1774.34253 C5796.50087,1774.07586 5797.10086,1773.74253 5797.50086,1773.34253 C5797.90087,1772.94253 5799.50085,1772.54253 5802.30086,1772.14253 C5805.10088,1771.74253 5808.16751,1772.54252 5811.50086,1774.54253 C5814.83421,1776.54254 5819.70083,1776.20921 5826.10086,1773.54253 C5832.5009,1770.87585 5838.30084,1768.14255 5843.50086,1765.34253 C5848.70089,1762.54252 5855.56749,1758.0759 5864.10086,1751.94253 C5862.50086,1750.60919 5861.30087,1749.67587 5860.50086,1749.14253 C5859.70086,1748.6092 5858.76754,1748.14253 5857.70086,1747.74253 C5856.63419,1747.34253 5854.63421,1746.74254 5851.70086,1745.94253 L5851.30086,1744.74253 C5854.50088,1746.87588 5857.96751,1747.67587 5861.70086,1747.14253 C5860.10086,1745.80919 5858.96753,1744.8092 5858.30086,1744.14253 C5857.63419,1743.47586 5856.70087,1743.07587 5855.50086,1742.94253 C5854.30086,1742.8092 5852.50088,1742.47587 5850.10086,1741.94253 C5847.96752,1738.47585 5846.16754,1735.94254 5844.70086,1734.34253 C5843.23419,1732.74252 5841.70087,1730.27588 5840.10086,1726.94253 C5838.50086,1723.60918 5837.76753,1721.54254 5837.90086,1720.74253 C5838.0342,1719.94253 5838.2342,1719.0092 5838.50086,1717.94253 Z M5886.50086,1798.34253 L5869.70086,1823.14253 L5883.70086,1809.94253 L5892.90086,1797.14253 L5886.50086,1798.34253 Z M5870.90086,1901.94253 C5869.83419,1902.74254 5868.70087,1903.2092 5867.50086,1903.34253 C5866.30086,1903.47587 5863.03422,1904.87585 5857.70086,1907.54253 C5852.3675,1910.20921 5844.23425,1914.60917 5833.30086,1920.74253 L5832.10086,1924.34253 L5828.50086,1924.34253 L5829.30086,1943.94253 L5870.90086,1901.94253 Z M5883.70086,1913.94253 C5882.90086,1914.2092 5882.0342,1914.67586 5881.10086,1915.34253 C5880.16753,1916.0092 5878.30088,1917.54252 5875.50086,1919.94253 C5872.70085,1922.34254 5867.96756,1926.60917 5861.30086,1932.74253 L5876.90086,1924.34253 L5877.30086,1920.34253 L5882.90086,1916.74253 L5883.70086,1913.94253 Z M5960.10086,2080.74253 C5963.83422,2081.8092 5967.83418,2082.2092 5972.10086,2081.94253 C5966.7675,2084.07588 5961.56756,2084.07588 5956.50086,2081.94253 L5960.10086,2080.74253 Z M5982.90086,2085.14253 L5985.70086,2089.54253 L5973.30086,2083.94253 L5982.90086,2085.14253 Z" id="tfgaming" transform="translate(5359.700863, 1910.972641) rotate(-4.000000) translate(-5359.700863, -1910.972641) "></path>
        </g>
    </g>
</svg>