<?xml version="1.0" encoding="UTF-8"?>
<svg width="1100px" height="297px" viewBox="0 0 1100 297" version="1.1" xmlns="http://www.w3.org/2000/svg" xmlns:xlink="http://www.w3.org/1999/xlink">
    <!-- Generator: Sketch 54.1 (76490) - https://sketchapp.com -->
    <title>whoweare</title>
    <desc>Created with Sketch.</desc>
    <g id="Page-1" stroke="none" stroke-width="1" fill="none" fill-rule="evenodd">
        <g id="Artboard" transform="translate(-4851.000000, -2769.000000)" fill-rule="nonzero" stroke="#F0BA41">
            <path d="M5087.24408,2968.62694 C5087.43564,2968.45279 5087.71428,2968.24381 5088.08,2968 L5087.24408,2968.62694 L5087.24408,2968.62694 Z M5087.24408,2968.62694 C5087.10041,2968.75755 5087.00571,2968.86857 5086.96,2968.96 C5086.85333,2969.17333 5086.8,2969.49333 5086.8,2969.92 C5086.8,2970.34667 5086.37334,2971.19999 5085.52,2972.48 C5084.66666,2973.76001 5083.81334,2975.25332 5082.96,2976.96 C5082.10666,2978.66668 5081.30667,2980.10666 5080.56,2981.28 C5079.81333,2982.45334 5079.01334,2984.10666 5078.16,2986.24 L5078.48,2986.56 C5079.12,2985.70666 5079.86666,2984.64001 5080.72,2983.36 L5081.04,2984 C5079.75999,2987.62668 5078.90667,2990.18666 5078.48,2991.68 C5078.05333,2993.17334 5077.57334,2995.19999 5077.04,2997.76 C5076.50666,3000.32001 5076.13333,3001.92 5075.92,3002.56 L5076.56,3003.52 L5076.88,3005.12 L5078.48,3006.08 C5077.41333,3006.93334 5077.09333,3007.99999 5077.52,3009.28 L5078.48,3009.28 L5078.48,3013.12 L5080.4,3014.08 C5081.04,3015.36001 5081.89333,3016.32 5082.96,3016.96 C5084.66668,3016.96 5086,3016.85333 5086.96,3016.64 C5087.92,3016.42667 5088.98666,3016.48 5090.16,3016.8 C5091.33334,3017.12 5092.13333,3017.54666 5092.56,3018.08 C5092.98667,3018.61334 5093.52,3019.09333 5094.16,3019.52 L5094.16,3022.72 C5094.16,3023.36 5093.57334,3024.10666 5092.4,3024.96 C5091.22666,3025.81334 5090.74667,3027.19999 5090.96,3029.12 C5091.17333,3031.04001 5090.32001,3032.74666 5088.4,3034.24 C5086.47999,3035.73334 5085.36,3037.33332 5085.04,3039.04 C5084.72,3040.74668 5084.34667,3042.23999 5083.92,3043.52 C5083.49333,3044.80001 5083.06667,3045.70666 5082.64,3046.24 C5082.21333,3046.77334 5081.68,3047.46666 5081.04,3048.32 C5078.05332,3050.24001 5075.70668,3051.78666 5074,3052.96 C5072.29332,3054.13334 5070.16001,3055.2 5067.6,3056.16 C5065.03999,3057.12 5062.90668,3057.76 5061.2,3058.08 C5059.49332,3058.4 5058.10667,3058.77333 5057.04,3059.2 C5055.97333,3059.62667 5054.48001,3059.46667 5052.56,3058.72 C5050.63999,3057.97333 5048.88001,3058.29333 5047.28,3059.68 C5045.67999,3061.06667 5044.18667,3061.70667 5042.8,3061.6 C5041.41333,3061.49333 5040.50667,3061.33333 5040.08,3061.12 C5039.65333,3060.90667 5038.90667,3060.58667 5037.84,3060.16 C5036.34666,3057.81332 5035.49333,3055.46668 5035.28,3053.12 C5033.35999,3051.62666 5031.86667,3050.50667 5030.8,3049.76 C5029.73333,3049.01333 5028.66667,3048.16 5027.6,3047.2 C5026.53333,3046.24 5024.61335,3044.48001 5021.84,3041.92 L5017.36,3037.12 L5015.76,3035.84 L5013.84,3033.28 L5011.28,3032.32 L5007.44,3028.8 L5002.32,3024.64 C5000.18666,3021.43998 4998.58667,3019.25334 4997.52,3018.08 C4996.45333,3016.90666 4995.17334,3015.25334 4993.68,3013.12 C4992.18666,3010.98666 4990.48001,3008.80001 4988.56,3006.56 C4986.63999,3004.31999 4984.72001,3001.54668 4982.8,2998.24 C4980.87999,2994.93332 4978.21335,2990.77336 4974.8,2985.76 C4971.38665,2980.74664 4968.18668,2975.3067 4965.2,2969.44 C4962.21332,2963.5733 4956.24004,2953.06674 4947.28,2937.92 L4946.64,2937.6 C4945.35999,2942.08002 4944.24,2945.86665 4943.28,2948.96 C4942.32,2952.05335 4941.04001,2955.62665 4939.44,2959.68 C4937.83999,2963.73335 4936.82667,2966.39999 4936.4,2967.68 C4936.4,2967.46667 4936.50667,2966.88 4936.72,2965.92 C4936.93333,2964.96 4937.25333,2964.05334 4937.68,2963.2 C4938.10667,2962.34666 4938.37333,2961.6 4938.48,2960.96 C4938.58667,2960.32 4938.74667,2959.73334 4938.96,2959.2 C4939.17333,2958.66666 4939.28,2958.29333 4939.28,2958.08 L4939.28,2957.44 L4939.92,2957.12 C4940.13333,2955.19999 4940.77333,2953.17334 4941.84,2951.04 C4941.84,2950.82667 4941.78667,2950.66667 4941.68,2950.56 C4941.57333,2950.45333 4941.62667,2950.18667 4941.84,2949.76 C4942.05333,2949.33333 4942.16,2948.48001 4942.16,2947.2 L4941.2,2947.2 C4939.27999,2950.82668 4937.68001,2954.66665 4936.4,2958.72 L4935.12,2958.72 L4934.48,2960 L4935.12,2960 C4935.12,2960.85334 4934.8,2962.29332 4934.16,2964.32 C4933.52,2966.34668 4932.66667,2968.42666 4931.6,2970.56 L4930.96,2970.88 C4930.10666,2972.16001 4929.57333,2973.01333 4929.36,2973.44 C4929.14667,2973.86667 4928.88,2974.34666 4928.56,2974.88 C4928.24,2975.41334 4927.65334,2976.42666 4926.8,2977.92 C4925.94666,2979.41334 4924.88001,2981.33332 4923.6,2983.68 L4923.28,2983.04 L4922.96,2984.32 L4921.68,2984.64 C4917.83998,2991.89337 4913.46669,2998.6133 4908.56,3004.8 L4907.92,3005.12 C4905.35999,3008.32002 4903.01334,3011.41332 4900.88,3014.4 L4899.6,3015.36 L4897.04,3019.52 L4896.08,3019.84 L4894.48,3022.4 L4892.56,3024 L4892.24,3024.96 L4888.4,3028.8 C4887.97333,3029.65334 4886.74668,3031.14666 4884.72,3033.28 C4882.69332,3035.41334 4881.52,3036.64 4881.2,3036.96 C4880.88,3037.28 4880.50667,3038.07999 4880.08,3039.36 C4878.15999,3040.21334 4876.34668,3041.06666 4874.64,3041.92 L4872.08,3040 C4871.44,3038.71999 4871.33333,3037.33334 4871.76,3035.84 L4870.16,3035.84 L4870.16,3034.56 L4871.44,3034.56 L4868.56,3032 L4872.08,3032.64 L4872.72,3031.68 L4872.08,3031.36 L4871.44,3030.08 L4872.08,3029.44 L4870.48,3027.84 L4874.96,3029.12 L4867.6,3023.04 C4868.66667,3023.89334 4869.99999,3024.69333 4871.6,3025.44 C4873.20001,3026.18667 4874.10667,3026.56 4874.32,3026.56 L4874,3025.6 L4874.96,3025.28 L4874,3024.32 L4873.04,3023.04 C4874.10667,3023.46667 4875.22666,3023.78667 4876.4,3024 C4877.57334,3024.21333 4878.48,3024.42667 4879.12,3024.64 L4879.44,3023.68 L4873.68,3017.92 L4878.8,3019.84 L4878.8,3020.48 L4879.76,3020.48 L4879.44,3019.84 C4877.30666,3018.34666 4875.38668,3016.74668 4873.68,3015.04 L4872.72,3014.4 C4875.06668,3015.46667 4876.66666,3016.21333 4877.52,3016.64 C4878.37334,3017.06667 4878.96,3017.28 4879.28,3017.28 C4879.6,3017.28 4880.08,3017.38667 4880.72,3017.6 L4880.08,3016.64 L4883.6,3016.96 L4879.76,3014.4 L4880.08,3013.76 C4880.72,3014.18667 4881.30666,3014.4 4881.84,3014.4 C4882.37334,3014.4 4883.01333,3014.45333 4883.76,3014.56 C4884.50667,3014.66667 4885.51999,3014.82667 4886.8,3015.04 L4888.72,3013.76 L4894.48,3006.08 C4895.76001,3004.37332 4897.57332,3001.44002 4899.92,2997.28 C4902.26668,2993.11998 4903.97333,2989.49335 4905.04,2986.4 C4906.10667,2983.30665 4907.17333,2981.06667 4908.24,2979.68 C4909.30667,2978.29333 4909.89333,2976.96001 4910,2975.68 C4910.10667,2974.39999 4910.37333,2973.44 4910.8,2972.8 C4911.22667,2972.16 4911.6,2971.36 4911.92,2970.4 C4912.24,2969.44 4912.72,2968.10668 4913.36,2966.4 C4914,2964.69332 4915.17332,2961.49336 4916.88,2956.8 L4916.56,2955.84 L4915.6,2957.12 L4914.96,2956.16 L4914.32,2957.12 L4913.68,2956.16 L4913.68,2955.2 L4918.48,2952 L4918.8,2950.72 L4915.28,2952.96 L4919.44,2949.76 L4919.44,2948.16 C4919.22667,2948.37333 4916.45336,2950.29332 4911.12,2953.92 C4905.78664,2957.54668 4902.00001,2959.84 4899.76,2960.8 C4897.51999,2961.76 4895.92,2962.66666 4894.96,2963.52 C4894,2964.37334 4892.34668,2965.75999 4890,2967.68 L4890,2968.96 L4889.36,2968.32 C4888.29333,2968.32 4887.49334,2968.64 4886.96,2969.28 C4886.42666,2969.92 4885.41334,2970.87999 4883.92,2972.16 C4882.42666,2973.44001 4881.04001,2974.61333 4879.76,2975.68 L4879.76,2976.64 C4880.4,2976.64 4880.93333,2976.48 4881.36,2976.16 C4881.78667,2975.84 4882.16,2975.62667 4882.48,2975.52 C4882.8,2975.41333 4883.22666,2975.14667 4883.76,2974.72 C4884.29334,2974.29333 4884.88,2973.86667 4885.52,2973.44 L4886.16,2972.48 L4887.12,2972.48 L4887.44,2971.52 L4888.72,2970.88 L4888.08,2974.4 L4888.08,2973.76 L4886.8,2975.68 C4885.94666,2976.53334 4884.45334,2977.75999 4882.32,2979.36 C4880.18666,2980.96001 4878.64,2981.70667 4877.68,2981.6 C4876.72,2981.49333 4875.86667,2981.86666 4875.12,2982.72 C4874.37333,2983.57334 4873.25334,2984.05333 4871.76,2984.16 C4870.42855,2984.2551 4868.50357,2984.73177 4865.98502,2985.59001 L4864.08,2984.32 L4862.48,2981.76 L4861.2,2981.12 C4860.98667,2980.05333 4860.77333,2979.2 4860.56,2978.56 C4860.34667,2977.92 4860.13333,2977.06667 4859.92,2976 L4859.44,2973.6 C4859.33333,2973.06666 4859.06667,2972.26667 4858.64,2971.2 C4858.64,2970.77333 4858.74667,2970.34667 4858.96,2969.92 C4859.17333,2969.49333 4859.28,2968.21334 4859.28,2966.08 C4859.28,2963.94666 4859.12,2962.50667 4858.8,2961.76 C4858.48,2961.01333 4858,2960.21334 4857.36,2959.36 C4855.43999,2958.93333 4853.84001,2958.29334 4852.56,2957.44 L4852.24,2955.84 L4853.2,2955.84 L4851.92,2952.96 L4853.2,2952 L4853.2,2952.96 L4854.16,2952.32 C4854.37333,2951.25333 4854.69333,2950.50667 4855.12,2950.08 C4855.54667,2949.65333 4855.65333,2949.38667 4855.44,2949.28 C4855.22667,2949.17333 4855.12,2948.8 4855.12,2948.16 L4856.72,2949.44 L4856.72,2946.88 L4857.04,2947.52 L4857.36,2945.92 C4856.29333,2945.49333 4855.33334,2944.85334 4854.48,2944 L4856.4,2943.04 C4856.4,2942.18666 4856.61333,2941.12001 4857.04,2939.84 L4857.68,2939.84 L4857.04,2940.16 L4856.72,2942.4 L4857.68,2942.08 L4858.32,2940.8 L4859.28,2942.08 L4858.32,2942.4 L4857.68,2944.64 L4859.28,2944.32 C4859.28,2943.25333 4859.38667,2942.56 4859.6,2942.24 C4859.81333,2941.92 4859.81333,2941.6 4859.6,2941.28 C4859.38667,2940.96 4859.17333,2940.58667 4858.96,2940.16 C4860.45334,2938.87999 4861.46666,2937.92 4862,2937.28 C4862.53334,2936.64 4863.12,2936.32 4863.76,2936.32 C4864.4,2936.32 4865.25333,2936.10667 4866.32,2935.68 L4867.6,2933.76 C4869.94668,2932.47999 4871.65333,2931.57334 4872.72,2931.04 C4873.78667,2930.50666 4874.85333,2930.24 4875.92,2930.24 C4876.98667,2930.24 4878.47999,2930.13333 4880.4,2929.92 L4886.8,2923.52 L4934.16,2876.8 L4945.04,2864.96 L4946.64,2863.36 L4947.6,2861.44 L4945.04,2862.08 L4943.44,2864.32 L4943.44,2863.36 L4942.16,2864.64 L4940.24,2865.28 L4939.92,2865.92 C4938.21332,2866.77334 4936.98667,2867.30667 4936.24,2867.52 C4935.49333,2867.73333 4934.96,2868.05333 4934.64,2868.48 C4934.32,2868.90667 4933.94667,2869.33333 4933.52,2869.76 L4931.28,2872 C4931.28,2871.14666 4931.6,2870.61333 4932.24,2870.4 L4930.64,2870.4 C4931.28,2869.76 4932.08,2869.17334 4933.04,2868.64 C4934,2868.10666 4934.69333,2867.62667 4935.12,2867.2 L4934.48,2866.56 C4933.62666,2866.98667 4931.81335,2867.78666 4929.04,2868.96 C4926.26665,2870.13334 4924.45334,2871.14666 4923.6,2872 L4922.96,2872.64 L4916.56,2875.84 L4916.56,2876.8 L4915.6,2875.84 C4913.89332,2877.33334 4911.97334,2878.50666 4909.84,2879.36 L4909.2,2880.64 L4908.56,2880 L4901.52,2886.08 C4902.16,2886.08 4902.58667,2886.02667 4902.8,2885.92 C4903.01333,2885.81333 4903.38666,2885.65333 4903.92,2885.44 C4904.45334,2885.22667 4905.67999,2884.42667 4907.6,2883.04 C4909.52001,2881.65333 4911.01333,2880.69334 4912.08,2880.16 C4913.14667,2879.62666 4913.94666,2879.14667 4914.48,2878.72 C4915.01334,2878.29333 4915.6,2878.08 4916.24,2878.08 L4916.56,2877.44 C4918.48001,2876.15999 4920.71999,2875.09334 4923.28,2874.24 L4923.92,2875.84 C4923.28,2876.05333 4922.64,2875.94667 4922,2875.52 L4922,2876.16 C4920.07999,2877.44001 4918.26668,2878.71999 4916.56,2880 L4916.56,2879.36 L4915.6,2880.32 L4912.4,2882.88 L4911.12,2882.24 L4908.88,2885.12 L4908.56,2883.84 L4907.6,2885.76 C4906.96,2886.18667 4906.32,2886.18667 4905.68,2885.76 L4905.68,2886.72 L4905.04,2887.36 L4904.72,2888 L4903.44,2886.4 L4901.52,2888.96 C4901.30667,2889.17333 4901.09333,2889.22667 4900.88,2889.12 C4900.66667,2889.01333 4900.08,2889.28 4899.12,2889.92 C4898.16,2890.56 4896.40001,2891.62666 4893.84,2893.12 L4893.84,2891.84 L4893.2,2892.8 C4891.49332,2893.44 4890.21334,2893.86667 4889.36,2894.08 C4888.50666,2894.29333 4887.97333,2894.4 4887.76,2894.4 C4887.54667,2894.4 4887.33333,2894.29333 4887.12,2894.08 L4885.84,2891.2 L4884.88,2890.56 C4884.45333,2889.70666 4883.60001,2887.84001 4882.32,2884.96 C4881.03999,2882.07999 4880.66666,2879.78668 4881.2,2878.08 C4881.73334,2876.37332 4881.68,2874.88001 4881.04,2873.6 C4880.4,2872.31999 4880.13333,2870.61334 4880.24,2868.48 C4880.34667,2866.34666 4880.34667,2864.74667 4880.24,2863.68 C4880.13333,2862.61333 4879.86667,2861.81334 4879.44,2861.28 C4879.01333,2860.74666 4878.58667,2860.26667 4878.16,2859.84 C4877.73333,2859.41333 4877.2,2858.66667 4876.56,2857.6 L4876.24,2858.24 C4876.24,2856.95999 4876.13333,2856.05334 4875.92,2855.52 C4875.70667,2854.98666 4875.81333,2854.56 4876.24,2854.24 C4876.66667,2853.92 4877.09333,2853.22667 4877.52,2852.16 L4877.52,2853.12 L4878.16,2852.16 L4880.72,2850.24 C4881.57334,2849.6 4882.58666,2848.90667 4883.76,2848.16 C4884.93334,2847.41333 4885.78666,2847.09333 4886.32,2847.2 C4886.85334,2847.30667 4887.38666,2847.25333 4887.92,2847.04 C4888.45334,2846.82667 4889.09333,2846.29334 4889.84,2845.44 C4890.58667,2844.58666 4891.70666,2844.37333 4893.2,2844.8 C4894.69334,2845.22667 4895.92,2845.22667 4896.88,2844.8 C4897.84,2844.37333 4898.69333,2844.32 4899.44,2844.64 C4900.18667,2844.96 4900.66667,2845.17333 4900.88,2845.28 C4901.09333,2845.38667 4901.30667,2845.65333 4901.52,2846.08 C4904.93335,2844.37332 4908.02665,2842.24001 4910.8,2839.68 L4910.16,2838.72 L4908.56,2838.08 L4908.24,2836.16 L4907.28,2835.84 C4906.85333,2834.34666 4906.42667,2832.96001 4906,2831.68 C4906.42667,2832.10667 4907.06666,2832.21333 4907.92,2832 L4907.28,2831.04 L4908.56,2829.44 L4907.6,2828.8 L4907.92,2826.88 L4911.44,2824.64 C4912.29334,2814.39995 4912.50667,2807.89335 4912.08,2805.12 C4911.65333,2802.34665 4911.28,2800.58667 4910.96,2799.84 C4910.64,2799.09333 4910.05334,2798.08001 4909.2,2796.8 C4906.85332,2795.73333 4904.82668,2794.34668 4903.12,2792.64 C4903.33333,2792 4903.38667,2791.46667 4903.28,2791.04 C4903.17333,2790.61333 4903.38666,2790.18667 4903.92,2789.76 C4904.45334,2789.33333 4905.25333,2788.48001 4906.32,2787.2 C4907.17334,2786.98667 4907.86666,2786.72 4908.4,2786.4 C4908.93334,2786.08 4910.05332,2786.02667 4911.76,2786.24 C4913.46668,2786.45333 4915.11999,2786.88 4916.72,2787.52 C4918.32001,2788.16 4919.49333,2788.8 4920.24,2789.44 C4920.98667,2790.08 4921.89333,2790.93333 4922.96,2792 C4924.24001,2794.13334 4925.46666,2795.99999 4926.64,2797.6 C4927.81334,2799.20001 4928.50667,2800.32 4928.72,2800.96 C4936.40004,2793.91996 4942.26665,2789.38668 4946.32,2787.36 C4950.37335,2785.33332 4954.47998,2783.52001 4958.64,2781.92 C4962.80002,2780.31999 4965.04,2779.41333 4965.36,2779.2 C4965.68,2778.98667 4965.94667,2778.66667 4966.16,2778.24 L4957.84,2781.44 L4968.08,2776.96 C4966.79999,2777.17333 4965.68,2777.33333 4964.72,2777.44 C4963.76,2777.54667 4961.46668,2778.34666 4957.84,2779.84 C4954.21332,2781.33334 4951.06668,2782.93332 4948.4,2784.64 C4945.73332,2786.34668 4943.92,2787.41333 4942.96,2787.84 C4942,2788.26667 4940.66668,2788.90666 4938.96,2789.76 C4942.37335,2787.19999 4944.87999,2785.44 4946.48,2784.48 C4948.08001,2783.52 4949.89332,2782.66667 4951.92,2781.92 C4953.94668,2781.17333 4957.19998,2779.73334 4961.68,2777.6 C4958.47998,2778.45334 4955.38668,2779.09333 4952.4,2779.52 C4953.68001,2779.09333 4955.06666,2778.34667 4956.56,2777.28 L4954.96,2777.28 L4955.28,2776.96 C4958.05335,2775.67999 4960.07999,2774.93333 4961.36,2774.72 C4962.64001,2774.50667 4963.76,2773.97334 4964.72,2773.12 C4965.68,2772.26666 4967.38665,2771.57334 4969.84,2771.04 C4972.29335,2770.50666 4974.85332,2770.29333 4977.52,2770.4 C4980.18668,2770.50667 4981.68,2770.50667 4982,2770.4 C4982.32,2770.29333 4982.69333,2770.13333 4983.12,2769.92 C4983.33333,2769.92 4983.54667,2769.97333 4983.76,2770.08 C4983.97333,2770.18667 4984.66666,2770.56 4985.84,2771.2 C4987.01334,2771.84 4988.45332,2772.69333 4990.16,2773.76 C4991.22667,2775.46668 4992.08,2776.64 4992.72,2777.28 C4993.36,2777.92 4994,2779.30666 4994.64,2781.44 C4995.28,2783.57334 4994.64001,2786.34665 4992.72,2789.76 C4990.79999,2793.17335 4989.09334,2795.62666 4987.6,2797.12 C4986.10666,2798.61334 4984.29334,2800.74665 4982.16,2803.52 L4968.4,2816.64 L4967.12,2819.2 C4965.41332,2819.41333 4964.02667,2820.26666 4962.96,2821.76 C4962.74667,2821.97333 4962.69333,2822.24 4962.8,2822.56 C4962.90667,2822.88 4962.74667,2823.25333 4962.32,2823.68 C4961.89333,2824.10667 4961.14667,2824.95999 4960.08,2826.24 L4961.68,2825.6 L4963.6,2823.68 L4963.28,2824.64 C4965.84001,2824 4968.29332,2822.82668 4970.64,2821.12 L4972.56,2818.24 L4973.2,2818.24 L4974.48,2816.32 L4977.68,2813.44 L4978.32,2813.76 L4978.64,2812.8 C4979.49334,2812.58667 4980.24,2812.05334 4980.88,2811.2 L4981.2,2811.52 L4982.48,2811.52 C4982.69333,2811.52 4982.96,2811.36 4983.28,2811.04 C4983.6,2810.72 4984.08,2810.34667 4984.72,2809.92 C4985.36,2809.49333 4985.94666,2809.44 4986.48,2809.76 C4987.01334,2810.08 4987.49333,2810.02667 4987.92,2809.6 C4988.34667,2809.17333 4988.82666,2809.12 4989.36,2809.44 C4989.89334,2809.76 4990.48,2810.02667 4991.12,2810.24 C4992.40001,2808.74666 4993.99999,2807.89333 4995.92,2807.68 L4998.48,2809.92 L4999.12,2811.2 L4999.44,2810.56 L5001.04,2812.48 C5002.53334,2813.12 5003.65333,2813.49333 5004.4,2813.6 C5005.14667,2813.70667 5005.84,2813.86667 5006.48,2814.08 C5007.12,2814.29333 5007.86666,2814.61333 5008.72,2815.04 C5009.57334,2815.46667 5011.06666,2816.10666 5013.2,2816.96 L5013.2,2819.68 C5013.2,2820.42667 5013.83999,2821.28 5015.12,2822.24 C5016.40001,2823.2 5017.25333,2824.16 5017.68,2825.12 C5018.10667,2826.08 5018.16,2826.82666 5017.84,2827.36 C5017.52,2827.89334 5017.36,2828.32 5017.36,2828.64 C5017.36,2828.96 5017.30667,2829.22667 5017.2,2829.44 L5016.4,2831.04 L5015.76,2831.36 L5014.16,2833.92 C5012.23999,2835.62668 5010.8,2836.96 5009.84,2837.92 C5008.88,2838.88 5007.70667,2839.68 5006.32,2840.32 C5004.93333,2840.96 5003.76,2841.38667 5002.8,2841.6 C5001.84,2841.81333 5000.82667,2842.34666 4999.76,2843.2 C4998.69333,2844.05334 4996.56002,2845.54666 4993.36,2847.68 L4991.12,2850.24 L4992.4,2848.64 L4991.44,2848 L4991.76,2846.4 L4988.88,2848.64 L4987.28,2850.56 L4987.6,2851.84 L4989.84,2851.84 L4988.24,2852.8 L4987.92,2852.16 C4987.49333,2852.58667 4986.85334,2852.90667 4986,2853.12 L4986.32,2852.16 C4985.89333,2851.73333 4985.78667,2851.09334 4986,2850.24 L4983.76,2852.8 L4985.04,2851.84 C4985.25333,2852.05333 4984.56001,2852.95999 4982.96,2854.56 C4981.35999,2856.16001 4979.92001,2857.81332 4978.64,2859.52 L4980.24,2859.52 L4982.48,2856.64 L4983.44,2856.64 C4982.58666,2857.28 4981.94667,2858.13333 4981.52,2859.2 L4980.88,2859.84 L4981.52,2860.16 L4979.6,2862.4 L4978.64,2862.08 L4978.32,2863.36 L4978.96,2864.64 C4980.02667,2865.49334 4981.30666,2865.70667 4982.8,2865.28 C4983.65334,2866.13334 4984.34666,2866.72 4984.88,2867.04 C4985.41334,2867.36 4985.78667,2867.52 4986,2867.52 L4985.04,2864.96 L4981.2,2861.44 L4982.16,2861.44 L4985.68,2864 L4986.32,2862.72 L4986.64,2863.36 L4987.6,2863.04 L4988.56,2865.6 C4989.62667,2865.81333 4990.37333,2866.02667 4990.8,2866.24 C4991.22667,2866.45333 4992.23999,2867.04 4993.84,2868 C4995.44001,2868.96 4996.98666,2869.70666 4998.48,2870.24 C4999.97334,2870.77334 5000.88,2871.04 5001.2,2871.04 C5001.52,2871.04 5001.89333,2870.93333 5002.32,2870.72 L5003.28,2870.08 L5004.24,2871.04 C5008.08002,2871.89334 5011.06666,2872.37333 5013.2,2872.48 C5015.33334,2872.58667 5018.42665,2873.43999 5022.48,2875.04 C5026.53335,2876.64001 5028.82666,2877.76 5029.36,2878.4 C5029.89334,2879.04 5030.69333,2879.78666 5031.76,2880.64 L5028.88,2883.2 L5026.32,2885.76 C5026.53333,2886.4 5026.74667,2886.82667 5026.96,2887.04 C5027.17333,2887.25333 5027.22667,2887.46667 5027.12,2887.68 C5027.01333,2887.89333 5027.06667,2888.21333 5027.28,2888.64 C5025.14666,2889.06667 5023.22668,2890.02666 5021.52,2891.52 L5020.24,2893.12 C5018.31999,2893.33333 5016.82667,2894.07999 5015.76,2895.36 L5015.12,2898.24 C5014.05333,2898.66667 5013.09334,2899.30666 5012.24,2900.16 L5015.12,2901.44 L5015.76,2902.72 L5013.52,2903.04 L5013.2,2904.32 C5011.49332,2904.10667 5010.26667,2903.89333 5009.52,2903.68 C5008.77333,2903.46667 5008.18667,2903.46667 5007.76,2903.68 C5007.33333,2903.89333 5006.8,2904.21333 5006.16,2904.64 L5005.84,2904.32 C5004.77333,2904.96 5003.28001,2905.6 5001.36,2906.24 C4999.43999,2906.88 4998.16,2907.41333 4997.52,2907.84 C4996.88,2908.26667 4996.18667,2908.58667 4995.44,2908.8 C4994.69333,2909.01333 4994,2909.38666 4993.36,2909.92 C4992.72,2910.45334 4992.08,2910.82667 4991.44,2911.04 L4988.08,2912.16 C4987.76,2912.26667 4987.28,2912.32 4986.64,2912.32 L4986.32,2912.96 C4984.39999,2914.02667 4982.48001,2915.19999 4980.56,2916.48 L4980.24,2915.52 L4978.32,2917.44 L4967.76,2923.52 L4967.44,2922.56 L4967.12,2924.16 L4964.24,2925.44 C4966.58668,2927.78668 4973.78661,2934.02662 4985.84,2944.16 C4997.89339,2954.29338 5006.74664,2961.86664 5012.4,2966.88 C5018.05336,2971.89336 5022.69332,2974.93333 5026.32,2976 C5029.94668,2977.06667 5033.25332,2977.76 5036.24,2978.08 C5039.22668,2978.4 5042.58665,2978.56 5046.32,2978.56 C5050.05335,2978.56 5053.83998,2978.24 5057.68,2977.6 C5061.52002,2976.96 5064.93332,2976.05334 5067.92,2974.88 C5070.90668,2973.70666 5073.51999,2972.26668 5075.76,2970.56 C5078.00001,2968.85332 5079.22667,2967.89333 5079.44,2967.68 L5080.4,2966.72 L5085.52,2962.88 L5086.16,2963.52 L5091.92,2958.4 C5091.70667,2959.68001 5091.01334,2960.8 5089.84,2961.76 C5088.66666,2962.72 5086.64001,2964.74665 5083.76,2967.84 C5080.87999,2970.93335 5079.33333,2972.64 5079.12,2972.96 C5078.90667,2973.28 5078.69333,2973.65333 5078.48,2974.08 L5076.88,2975.04 C5076.66667,2975.68 5076.56,2976.32 5076.56,2976.96 L5081.04,2972.8 C5081.89334,2971.94666 5082.85333,2971.2 5083.92,2970.56 L5086.16,2968.32 L5085.52,2969.92 L5087.24408,2968.62694 L5087.24408,2968.62694 Z M4865.98502,2985.59001 L4866,2985.6 L4865.04,2985.92 C4865.36378,2985.80436 4865.67879,2985.69437 4865.98502,2985.59001 L4865.98502,2985.59001 Z M4975.44,2779.52 C4974.15999,2779.52 4973.04,2779.46667 4972.08,2779.36 C4971.12,2779.25333 4968.77335,2779.73333 4965.04,2780.8 C4961.30665,2781.86667 4957.20002,2783.41332 4952.72,2785.44 C4948.23998,2787.46668 4941.41338,2792.10663 4932.24,2799.36 L4929.36,2802.88 L4934.48,2822.08 C4944.29338,2814.82663 4953.67996,2806.82671 4962.64,2798.08 C4964.98668,2795.09332 4966.79999,2792.96001 4968.08,2791.68 C4969.36001,2790.39999 4970.74666,2788.80001 4972.24,2786.88 C4973.73334,2784.95999 4974.53333,2783.57334 4974.64,2782.72 C4974.74667,2781.86666 4975.01333,2780.80001 4975.44,2779.52 Z M4948.56,2859.52 C4947.92,2859.30667 4947.01334,2859.46666 4945.84,2860 C4944.66666,2860.53334 4943.86667,2861.01333 4943.44,2861.44 L4941.84,2863.04 C4942.90667,2862.4 4943.97333,2861.97333 4945.04,2861.76 L4946,2860.8 L4948.56,2859.52 Z M4974.48,2865.92 L4973.84,2867.52 L4975.12,2868.48 L4977.36,2869.44 L4977.36,2868.64 C4977.36,2868.32 4977.09334,2868 4976.56,2867.68 C4976.02666,2867.36 4975.44,2866.66667 4974.8,2865.6 L4974.48,2865.92 Z M4962.96,2874.24 L4961.04,2875.84 L4960.08,2876.16 L4959.12,2877.76 L4957.84,2877.76 C4957.41333,2879.46668 4957.14667,2880.69333 4957.04,2881.44 C4956.93333,2882.18667 4956.88,2882.61333 4956.88,2882.72 L4956.88,2883.52 L4956.56,2883.52 C4955.49333,2886.93335 4954.64,2889.27999 4954,2890.56 C4953.36,2891.84001 4953.04,2892.90666 4953.04,2893.76 C4953.04,2894.61334 4952.93333,2895.99999 4952.72,2897.92 C4952.93333,2897.70667 4953.2,2897.49333 4953.52,2897.28 C4953.84,2897.06667 4954.16,2896.96 4954.48,2896.96 C4954.8,2896.96 4955.38666,2896.85333 4956.24,2896.64 L4956.56,2896.32 L4960.08,2894.4 L4959.44,2893.76 L4960.72,2892.8 L4961.04,2893.12 C4962.53334,2892.69333 4964.13332,2891.94667 4965.84,2890.88 L4967.12,2889.92 L4966.8,2888.96 C4967.01333,2888.53333 4966.96,2887.57334 4966.64,2886.08 C4966.32,2884.58666 4966.05333,2883.30667 4965.84,2882.24 C4965.62667,2881.17333 4965.30667,2879.46668 4964.88,2877.12 L4961.68,2878.72 L4960.08,2880.64 L4959.12,2879.68 L4960.08,2879.36 L4961.04,2877.12 L4963.6,2874.88 L4964.24,2873.6 L4962.96,2874.24 Z M4931.28002,2903.67998 C4931.70667,2903.25331 4931.92,2902.50666 4931.92,2901.44 C4929.35999,2903.57334 4926.69335,2905.70666 4923.92,2907.84 L4923.92,2908.8 C4923.49333,2909.86667 4922.74667,2910.18667 4921.68,2909.76 L4919.44,2912 L4917.52,2913.6 L4916.88,2914.56 L4917.84,2915.52 L4917.52,2915.52 L4916.88,2914.56 L4916.24,2915.52 L4908.56,2921.92 L4908.24,2923.2 L4902.48,2928 C4905.04001,2927.14666 4907.38666,2925.97334 4909.52,2924.48 C4911.65334,2922.98666 4915.49331,2920.53335 4921.04,2917.12 C4926.58669,2913.70665 4929.68,2911.89333 4930.32,2911.68 C4930.96,2911.46667 4931.6,2911.14667 4932.24,2910.72 L4936.4,2897.6 L4932.24,2900.8 C4932.24,2902.08 4931.92001,2903.03998 4931.28002,2903.67998 L4931.28002,2903.67998 Z M4991.44,2906.88 C4991.01333,2906.88 4990.74667,2906.82667 4990.64,2906.72 C4990.53333,2906.61333 4989.73334,2906.98666 4988.24,2907.84 C4986.74666,2908.69334 4984.72001,2910.07999 4982.16,2912 C4982.58667,2912.64 4983.22666,2912.64 4984.08,2912 L4984.72,2911.04 L4990.16,2908.48 L4990.48,2908.8 L4991.44,2906.88 Z M4982.48,2908.16 C4979.91999,2909.22667 4977.78668,2910.08 4976.08,2910.72 C4974.37332,2911.36 4968.72005,2914.66664 4959.12,2920.64 L4959.76,2921.28 L4963.6,2919.04 L4963.6,2920 L4964.56,2919.04 C4969.89336,2915.83998 4975.33331,2912.64002 4980.88,2909.44 L4982.48,2908.16 Z M4962.32,2920.64 L4960.72,2922.24 L4962.96,2924.16 L4963.6,2923.84 C4962.74666,2922.98666 4962.42667,2921.92001 4962.64,2920.64 L4962.32,2920.64 Z M4853.2,2952.96 L4854.16,2952.64 L4856.08,2954.88 L4858.32,2955.84 C4857.25333,2956.48 4856.4,2956.58667 4855.76,2956.16 L4856.72,2957.44 C4855.65333,2957.65333 4854.8,2957.65333 4854.16,2957.44 L4854.16,2958.08 L4853.52,2957.76 L4852.56,2955.84 C4853.2,2956.05333 4853.73333,2956.37333 4854.16,2956.8 L4854.16,2954.88 L4852.56,2954.56 L4853.2,2952.96 Z M4913.04,2957.12 L4913.68,2957.44 L4913.36,2958.4 L4911.12,2959.68 C4910.69333,2959.04 4910.58667,2958.4 4910.8,2957.76 L4909.84,2958.08 L4909.2,2960 L4908.56,2958.72 L4908.24,2959.36 L4908.56,2960.64 L4905.04,2963.52 L4904.72,2962.24 L4903.44,2962.88 L4902.8,2964.48 C4902.37333,2965.12 4901.73334,2965.22667 4900.88,2964.8 L4900.56,2965.44 L4897.04,2968.64 C4897.04,2968.21333 4896.82667,2967.78667 4896.4,2967.36 L4895.44,2968 C4895.01333,2968.85334 4894.48,2969.70666 4893.84,2970.56 L4894.48,2967.36 C4896.40001,2965.65332 4898.53332,2964.26667 4900.88,2963.2 L4901.52,2962.24 L4898.64,2963.84 L4903.76,2960 L4904.08,2960.96 L4912.72,2955.84 L4913.04,2957.12 Z M4892.90987,2968.1792 L4893.2,2969.92 C4892.56,2970.56 4891.81334,2971.09333 4890.96,2971.52 L4891.92,2969.92 L4890.64,2970.24 L4890.32,2972.48 L4890,2970.56 L4892.90987,2968.1792 L4892.90987,2968.1792 Z M4892.90987,2968.1792 L4892.88,2968 L4893.52,2967.68 L4892.90987,2968.1792 L4892.90987,2968.1792 Z M4870.16,3029.44 L4870.16,3029.76 L4866.32,3027.84 L4870.16,3029.44 Z M5293.8,2882.84 L5293.56923,2882.97846 L5293.52,2882.88 L5293.8,2882.84 L5293.8,2882.84 Z M5293.56923,2882.97846 L5294.16,2884.16 L5293.52,2884.16 L5293.2,2883.2 L5293.56923,2882.97846 L5293.56923,2882.97846 Z M5293.8,2882.84 L5294.8,2882.24 L5295.44,2881.6 L5296.4,2882.56 C5297.04,2881.49333 5297.89333,2880.64 5298.96,2880 L5298,2880.96 L5298.96,2880.96 L5299.28,2879.04 L5292.88,2881.28 C5291.81333,2882.56001 5291.28,2883.94666 5291.28,2885.44 L5290.96,2885.12 L5290.32,2885.76 L5289.68,2884.16 L5288.08,2885.44 L5289.36,2885.12 L5289.04,2886.08 L5286.48,2887.04 L5286.16,2885.76 L5285.2,2887.68 L5284.56,2887.04 L5283.92,2887.68 L5282,2888.64 L5281.68,2888 L5281.36,2888.96 C5280.07999,2889.17333 5279.01334,2889.6 5278.16,2890.24 C5277.94667,2889.6 5278.05333,2889.06667 5278.48,2888.64 L5277.52,2888.64 L5277.2,2888.96 L5275.92,2888.96 L5275.92,2889.92 C5275.92,2890.13333 5275.76,2890.66666 5275.44,2891.52 C5275.12,2892.37334 5275.22666,2894.61332 5275.76,2898.24 C5276.29334,2901.86668 5276.82666,2906.29331 5277.36,2911.52 C5277.89334,2916.74669 5278.05333,2921.22665 5277.84,2924.96 C5277.62667,2928.69335 5277.73333,2930.98666 5278.16,2931.84 C5278.58667,2932.69334 5278.69333,2933.97332 5278.48,2935.68 C5278.26667,2937.38668 5278.16,2938.66666 5278.16,2939.52 C5278.16,2940.37334 5278.26667,2941.54666 5278.48,2943.04 L5279.12,2943.04 C5279.33333,2947.52002 5279.6,2950.66666 5279.92,2952.48 C5280.24,2954.29334 5280.45333,2956.26666 5280.56,2958.4 C5280.66667,2960.53334 5280.82667,2962.93332 5281.04,2965.6 C5281.25333,2968.26668 5281.41333,2970.77332 5281.52,2973.12 C5281.62667,2975.46668 5281.78667,2979.62664 5282,2985.6 L5282.96,2984.96 L5282.32,2987.52 C5282.10667,2988.37334 5282.16,2989.12 5282.48,2989.76 C5282.8,2990.4 5282.8,2991.25333 5282.48,2992.32 C5282.16,2993.38667 5282.32,2995.35999 5282.96,2998.24 C5283.6,3001.12001 5283.92,3003.35999 5283.92,3004.96 C5283.92,3006.56001 5284.13333,3008.21332 5284.56,3009.92 C5284.98667,3011.62668 5285.30667,3013.59999 5285.52,3015.84 C5285.73333,3018.08001 5285.41334,3020.90665 5284.56,3024.32 C5283.70666,3027.73335 5282.8,3030.98665 5281.84,3034.08 C5280.88,3037.17335 5279.86667,3039.41333 5278.8,3040.8 C5277.73333,3042.18667 5277.09333,3043.2 5276.88,3043.84 C5276.66667,3044.48 5276.34667,3045.75999 5275.92,3047.68 C5275.06666,3048.32 5274.37334,3048.85333 5273.84,3049.28 C5273.30666,3049.70667 5271.81335,3050.02667 5269.36,3050.24 C5266.90665,3050.45333 5264.18668,3051.35999 5261.2,3052.96 C5258.21332,3054.56001 5255.54668,3055.62666 5253.2,3056.16 C5250.85332,3056.69334 5248.82668,3056.48 5247.12,3055.52 C5245.41332,3054.56 5243.70668,3053.97333 5242,3053.76 C5240.29332,3053.54667 5238.96,3052.96 5238,3052 C5237.04,3051.04 5235.92001,3050.18667 5234.64,3049.44 C5233.35999,3048.69333 5232.13334,3048.21333 5230.96,3048 C5229.78666,3047.78667 5228.24001,3047.25334 5226.32,3046.4 C5226.74667,3047.25334 5227.06667,3048 5227.28,3048.64 L5227.6,3048.32 L5228.56,3051.2 C5227.27999,3049.70666 5226.42667,3048.10668 5226,3046.4 L5223.76,3045.76 L5223.12,3046.4 C5221.62666,3044.47999 5220.24001,3042.56001 5218.96,3040.64 L5219.6,3040.64 C5220.24,3039.14666 5220.02667,3037.65334 5218.96,3036.16 L5216.72,3034.24 L5217.36,3032.64 L5214.8,3029.76 L5216.08,3029.44 L5216.72,3027.84 L5218,3027.52 C5217.14666,3026.02666 5217.25333,3024.53334 5218.32,3023.04 C5215.11998,3021.11999 5212.29335,3019.52001 5209.84,3018.24 C5207.38665,3016.95999 5196.88009,3012.16004 5178.32,3003.84 L5183.12,3005.12 L5183.44,3004.48 L5176.72,3002.24 C5187.38672,3004.37334 5193.51999,3005.49333 5195.12,3005.6 C5196.72001,3005.70667 5198.37332,3005.97333 5200.08,3006.4 L5200.08,3005.44 L5195.6,3004.16 L5194.96,3002.56 L5195.92,3002.88 L5195.6,3003.84 C5197.73334,3004.26667 5200.18665,3004.37333 5202.96,3004.16 L5202.96,3003.52 C5199.11998,3002.88 5195.49335,3001.81334 5192.08,3000.32 C5192.50667,3000.32 5193.94665,3000.58666 5196.4,3001.12 C5198.85335,3001.65334 5202.26664,3002.24 5206.64,3002.88 C5211.01336,3003.52 5214.15999,3003.84 5216.08,3003.84 C5215.65333,3003.62667 5215.28,3003.36 5214.96,3003.04 C5214.64,3002.72 5214.37333,3002.56 5214.16,3002.56 C5213.94667,3002.56 5213.62667,3002.45333 5213.2,3002.24 L5212.88,3001.6 L5212.24,3001.92 C5211.6,3001.70667 5211.12,3001.49333 5210.8,3001.28 C5210.48,3001.06667 5209.94667,3000.96 5209.2,3000.96 C5208.45333,3000.96 5207.22668,3000.74667 5205.52,3000.32 L5204.24,2998.72 L5203.92,2999.68 L5202.96,2999.68 L5203.28,2999.04 C5202.85333,2999.46667 5202.32,2999.68 5201.68,2999.68 L5201.04,2997.76 C5199.97333,2998.61334 5199.12,2998.93333 5198.48,2998.72 L5198.16,2997.76 C5197.09333,2998.18667 5196.24,2997.86667 5195.6,2996.8 L5195.28,2997.44 L5194.96,2997.12 C5194.74667,2997.12 5193.89334,2996.96 5192.4,2996.64 C5190.90666,2996.32 5189.20001,2996.05333 5187.28,2995.84 L5187.28,2996.48 C5185.57332,2996.05333 5183.97334,2995.41334 5182.48,2994.56 C5184.18668,2994.77333 5187.54664,2995.14666 5192.56,2995.68 C5197.57336,2996.21334 5201.78665,2996.48 5205.2,2996.48 C5208.61335,2996.48 5212.29331,2996.16 5216.24,2995.52 C5220.18669,2994.88 5223.17332,2994.4 5225.2,2994.08 C5227.22668,2993.76 5229.19999,2993.17334 5231.12,2992.32 L5234,2979.84 L5235.28,2979.52 C5236.56001,2977.17332 5237.46666,2975.57334 5238,2974.72 C5238.53334,2973.86666 5238.90667,2972.74667 5239.12,2971.36 C5239.33333,2969.97333 5239.6,2968.32001 5239.92,2966.4 C5240.24,2964.47999 5240.88,2962.66668 5241.84,2960.96 C5242.8,2959.25332 5243.28,2957.49334 5243.28,2955.68 C5243.28,2953.86666 5243.91999,2950.88002 5245.2,2946.72 C5246.48001,2942.55998 5247.97332,2928.32012 5249.68,2904 L5248.08,2903.68 L5245.52,2905.6 L5245.84,2904 L5244.88,2904 C5244.66667,2904.42667 5244.56,2904.85333 5244.56,2905.28 C5244.56,2905.70667 5244.45333,2906.02667 5244.24,2906.24 L5244.24,2904.96 L5242.96,2904.32 C5244.88001,2902.82666 5247.11999,2901.65334 5249.68,2900.8 L5250,2899.2 C5248.29332,2900.05334 5246.85334,2900.69333 5245.68,2901.12 C5244.50666,2901.54667 5239.01338,2904.53331 5229.2,2910.08 C5229.41333,2910.08 5229.57333,2910.18667 5229.68,2910.4 C5229.78667,2910.61333 5230.42666,2910.50667 5231.6,2910.08 C5232.77334,2909.65333 5233.84,2909.22667 5234.8,2908.8 C5235.76,2908.37333 5237.19999,2907.62667 5239.12,2906.56 L5238.8,2906.88 L5235.28,2909.12 L5236.24,2909.12 L5236.24,2910.72 L5234,2911.36 L5234.64,2910.72 L5235.28,2909.12 C5234.21333,2909.54667 5233.04001,2910.08 5231.76,2910.72 L5231.76,2911.36 C5231.76,2911.57333 5231.70667,2911.78667 5231.6,2912 C5231.49333,2912.21333 5231.22667,2912.64 5230.8,2913.28 L5228.88,2914.24 L5230.8,2911.68 L5228.88,2912.32 L5227.6,2913.92 L5227.6,2913.28 L5226,2913.92 L5226,2915.84 L5224.72,2916.48 L5224.08,2914.88 L5221.2,2916.8 L5221.52,2918.4 L5220.88,2917.44 L5219.92,2918.72 L5218.96,2917.44 L5218,2919.04 L5217.36,2917.76 L5216.4,2919.04 L5216.72,2918.72 L5217.04,2919.68 L5216.4,2920.96 C5216.4,2920.53333 5216.45333,2920.26667 5216.56,2920.16 C5216.66667,2920.05333 5216.61333,2919.94667 5216.4,2919.84 C5216.18667,2919.73333 5216.08,2919.36 5216.08,2918.72 L5215.44,2919.68 L5215.76,2920.96 L5213.84,2921.92 L5213.84,2920.32 L5212.88,2920.96 L5211.28,2923.52 L5210.96,2922.88 L5210.64,2921.92 L5210.32,2922.24 L5210.32,2923.84 L5208.4,2924.48 L5209.68,2923.84 L5209.36,2922.24 L5208.08,2924.16 L5206.8,2924.16 L5206.16,2925.44 L5205.52,2924.48 L5203.92,2925.12 L5203.92,2925.44 L5205.2,2925.12 L5205.2,2925.76 L5203.92,2927.04 L5203.6,2925.44 L5202,2927.68 L5201.68,2926.72 L5200.08,2927.04 L5199.12,2928.96 L5195.6,2931.52 L5195.6,2930.56 L5196.24,2930.24 L5197.2,2928.96 L5194.96,2929.6 C5194.32,2930.24 5193.89333,2930.98666 5193.68,2931.84 C5190.90665,2933.54668 5188.13335,2934.93333 5185.36,2936 L5185.36,2935.04 C5184.72,2935.46667 5184.4,2936 5184.4,2936.64 C5183.33333,2937.06667 5182.05334,2937.65333 5180.56,2938.4 C5179.06666,2939.14667 5177.57334,2939.94666 5176.08,2940.8 L5175.44,2940.16 C5175.01333,2940.58667 5174.26667,2941.17333 5173.2,2941.92 C5172.13333,2942.66667 5170.90667,2943.14667 5169.52,2943.36 C5168.13333,2943.57333 5166.05335,2944.63999 5163.28,2946.56 C5160.50665,2948.48001 5157.62668,2950.07999 5154.64,2951.36 C5151.65332,2952.64001 5149.73334,2953.28 5148.88,2953.28 C5148.02666,2953.28 5147.49333,2953.33333 5147.28,2953.44 C5147.06667,2953.54667 5146.64,2953.70667 5146,2953.92 L5145.68,2952.96 L5144.72,2953.92 C5144.50667,2953.92 5144.29333,2954.02667 5144.08,2954.24 C5143.86667,2954.45333 5143.01334,2954.61333 5141.52,2954.72 C5140.02666,2954.82667 5138.96,2954.66667 5138.32,2954.24 C5137.68,2953.81333 5136.93334,2953.28 5136.08,2952.64 C5136.50667,2952.85333 5137.04,2953.01333 5137.68,2953.12 C5138.32,2953.22667 5139.38666,2953.22667 5140.88,2953.12 C5142.37334,2953.01333 5143.54666,2952.85333 5144.4,2952.64 C5143.54666,2952.42667 5142.53334,2952.16 5141.36,2951.84 C5140.18666,2951.52 5139.44,2951.2 5139.12,2950.88 C5138.8,2950.56 5138.10667,2950.4 5137.04,2950.4 C5136.4,2949.11999 5135.97333,2948.21334 5135.76,2947.68 C5135.54667,2947.14666 5135.12,2946.61334 5134.48,2946.08 C5133.84,2945.54666 5132.88001,2944.42668 5131.6,2942.72 L5130.32,2942.4 C5129.89333,2941.11999 5129.78667,2940.32 5130,2940 C5130.21333,2939.68 5129.94667,2939.14667 5129.2,2938.4 C5128.45333,2937.65333 5128.29333,2936.32001 5128.72,2934.4 C5129.14667,2932.47999 5129.14667,2930.93334 5128.72,2929.76 C5128.29333,2928.58666 5127.76,2927.04001 5127.12,2925.12 L5124.24,2923.84 L5123.92,2922.56 L5123.6,2922.56 C5123.38667,2921.70666 5123.06667,2920.64001 5122.64,2919.36 C5123.49334,2918.29333 5124.29333,2917.17334 5125.04,2916 C5125.78667,2914.82666 5126.26667,2913.86667 5126.48,2913.12 C5126.69333,2912.37333 5127.01333,2911.78667 5127.44,2911.36 C5127.86667,2910.93333 5128.18667,2910.29334 5128.4,2909.44 L5129.36,2909.76 L5130.32,2908.48 C5130.53333,2908.48 5131.86665,2907.73334 5134.32,2906.24 C5136.77335,2904.74666 5139.11999,2903.89333 5141.36,2903.68 C5143.60001,2903.46667 5145.51999,2902.45334 5147.12,2900.64 C5148.72001,2898.82666 5149.57333,2897.92 5149.68,2897.92 L5150.16,2897.92 L5150.8,2896.64 L5155.92,2891.84 L5156.56,2891.2 C5159.97335,2887.78665 5164.9333,2882.93336 5171.44,2876.64 C5177.9467,2870.34664 5181.94666,2866.56001 5183.44,2865.28 C5184.08,2864.85333 5184.72,2864.21334 5185.36,2863.36 C5188.13335,2861.01332 5190.63999,2858.93334 5192.88,2857.12 C5195.12001,2855.30666 5206.26657,2844.4801 5226.32,2824.64 L5226.32,2823.36 L5226.64,2824 L5228.56,2822.4 C5223.86664,2822.18667 5220.24001,2822.13333 5217.68,2822.24 C5215.11999,2822.34667 5212.61335,2822.18667 5210.16,2821.76 C5207.70665,2821.33333 5204.61335,2820.32001 5200.88,2818.72 C5197.14665,2817.11999 5194.64001,2816.10667 5193.36,2815.68 L5190.48,2812.32 C5189.84,2811.57333 5189.36,2810.24001 5189.04,2808.32 C5188.72,2806.39999 5187.86667,2804.37334 5186.48,2802.24 C5185.09333,2800.10666 5184.50667,2798.72 5184.72,2798.08 C5184.93333,2797.44 5185.14667,2796.58667 5185.36,2795.52 L5186.96,2794.88 L5189.04,2796.96 C5189.57334,2797.49334 5190.42666,2797.81333 5191.6,2797.92 C5192.77334,2798.02667 5194.15999,2798.45333 5195.76,2799.2 C5197.36001,2799.94667 5199.11999,2800.32 5201.04,2800.32 C5202.96001,2800.32 5205.73332,2800 5209.36,2799.36 C5212.98668,2798.72 5218.58663,2797.06668 5226.16,2794.4 C5233.73337,2791.73332 5238.47999,2790.24 5240.4,2789.92 C5242.32001,2789.6 5244.13332,2789.12 5245.84,2788.48 L5249.36,2784.64 C5251.49334,2784.64 5253.30666,2783.68001 5254.8,2781.76 C5256.08001,2782.4 5257.35999,2782.50667 5258.64,2782.08 L5261.84,2784.32 C5262.69334,2783.89333 5263.38666,2783.57333 5263.92,2783.36 C5264.45334,2783.14667 5264.93333,2783.25333 5265.36,2783.68 C5265.78667,2784.10667 5266.26666,2784.32 5266.8,2784.32 C5267.33334,2784.32 5267.92,2784.37333 5268.56,2784.48 C5269.2,2784.58667 5270.15999,2784.58667 5271.44,2784.48 C5272.72001,2784.37333 5273.89333,2784.64 5274.96,2785.28 C5276.02667,2785.92 5277.14666,2786.34667 5278.32,2786.56 C5279.49334,2786.77333 5280.66666,2787.41333 5281.84,2788.48 C5283.01334,2789.54667 5284.98665,2791.25332 5287.76,2793.6 C5288.61334,2794.88001 5289.36,2795.78666 5290,2796.32 C5290.64,2796.85334 5290.96,2797.6 5290.96,2798.56 C5290.96,2799.52 5290.74667,2800.21333 5290.32,2800.64 C5289.89333,2801.06667 5289.46667,2802.02666 5289.04,2803.52 C5283.49331,2808.64003 5279.86668,2811.99999 5278.16,2813.6 C5276.45332,2815.20001 5275.12,2816.21333 5274.16,2816.64 C5273.2,2817.06667 5271.60001,2818.29332 5269.36,2820.32 C5267.11999,2822.34668 5264.29335,2825.06665 5260.88,2828.48 C5261.94667,2828.26667 5262.8,2828 5263.44,2827.68 C5264.08,2827.36 5264.72,2827.41333 5265.36,2827.84 C5266,2828.26667 5266.69333,2828.58667 5267.44,2828.8 C5268.18667,2829.01333 5268.82666,2829.12 5269.36,2829.12 C5269.89334,2829.12 5270.37333,2829.01333 5270.8,2828.8 C5270.8,2829.01333 5270.90667,2829.22667 5271.12,2829.44 C5271.33333,2829.65333 5271.65333,2829.86667 5272.08,2830.08 C5271.44,2831.14667 5271.01333,2831.84 5270.8,2832.16 C5270.58667,2832.48 5270.74666,2833.17333 5271.28,2834.24 C5271.81334,2835.30667 5271.70667,2836.42666 5270.96,2837.6 C5270.21333,2838.77334 5270.26666,2845.65327 5271.12,2858.24 L5293.84,2850.56 L5293.52,2849.6 L5296.72,2848.32 L5295.44,2847.68 C5297.14668,2847.68 5298.85332,2847.25334 5300.56,2846.4 L5301.2,2844.8 C5303.12001,2843.51999 5305.03999,2842.02668 5306.96,2840.32 L5308.56,2839.04 L5309.52,2839.68 L5312.08,2839.04 C5312.93334,2837.97333 5313.52,2837.28 5313.84,2836.96 C5314.16,2836.64 5314.32,2836.26667 5314.32,2835.84 C5314.32,2835.41333 5314.42667,2834.88 5314.64,2834.24 L5315.28,2834.24 L5317.52,2836.48 L5319.44,2836.16 L5320.72,2834.56 L5321.68,2835.2 L5322,2834.56 C5323.49334,2835.41334 5324.98666,2835.84 5326.48,2835.84 L5328.08,2833.92 L5329.68,2835.84 C5330.10667,2836.05333 5330.42667,2836.16 5330.64,2836.16 C5330.85333,2836.16 5331.22666,2836.42666 5331.76,2836.96 C5332.29334,2837.49334 5333.04,2837.86667 5334,2838.08 C5334.96,2838.29333 5336.61332,2839.14666 5338.96,2840.64 C5341.30668,2842.13334 5343.49332,2842.66667 5345.52,2842.24 C5347.54668,2841.81333 5349.83999,2842.39999 5352.4,2844 C5354.96001,2845.60001 5357.09332,2846.82666 5358.8,2847.68 L5363.28,2854.4 L5362.96,2856 C5362.32,2856.42667 5361.84,2856.69333 5361.52,2856.8 C5361.2,2856.90667 5360.56,2857.44 5359.6,2858.4 C5358.64,2859.36 5357.46667,2859.78667 5356.08,2859.68 C5354.69333,2859.57333 5353.68,2859.89333 5353.04,2860.64 C5352.4,2861.38667 5351.54667,2861.65333 5350.48,2861.44 C5349.41333,2861.22667 5348.61334,2861.33333 5348.08,2861.76 C5347.54666,2862.18667 5346.64001,2862.61333 5345.36,2863.04 C5345.57333,2864.32001 5345.68,2865.59999 5345.68,2866.88 C5347.38668,2868.58668 5349.19999,2869.97333 5351.12,2871.04 L5348.24,2872 L5348.88,2872.96 L5347.92,2873.6 L5348.56,2874.88 L5343.12,2874.88 L5345.68,2873.92 C5345.46667,2873.92 5345.30667,2873.81333 5345.2,2873.6 C5345.09333,2873.38667 5343.70668,2873.38667 5341.04,2873.6 C5338.37332,2873.81333 5335.44002,2874.13333 5332.24,2874.56 C5329.03998,2874.98667 5326.96,2875.36 5326,2875.68 C5325.04,2876 5324.34667,2876.10667 5323.92,2876 C5323.49333,2875.89333 5323.17333,2875.73333 5322.96,2875.52 L5322.96,2876.16 C5322.10666,2876.8 5321.04001,2877.12 5319.76,2877.12 L5319.76,2876.16 L5319.44,2877.12 L5314.96,2878.08 L5314.64,2877.76 C5313.78666,2878.18667 5312.82667,2878.61333 5311.76,2879.04 L5312.08,2878.08 L5311.76,2877.44 L5311.44,2879.04 C5310.15999,2878.4 5308.88001,2878.4 5307.6,2879.04 L5307.6,2880 L5303.76,2881.28 L5303.44,2880.64 L5301.84,2881.28 L5300.88,2880.64 L5300.88,2882.24 L5299.92,2880.64 L5299.6,2882.24 L5299.28,2881.28 L5298.32,2881.28 L5298,2883.2 L5297.36,2882.56 C5296.72,2883.41334 5295.86667,2883.84 5294.8,2883.84 L5295.44,2883.52 L5295.76,2882.56 L5293.8,2882.84 L5293.8,2882.84 Z M5257.68,2825.6 L5255.12,2828.48 L5256.08,2828.16 L5257.68,2825.92 L5257.68,2825.6 Z M5249.04,2833.28 C5241.5733,2840.32004 5236.56001,2844.26666 5234,2845.12 C5231.43999,2845.97334 5227.97336,2848.10665 5223.6,2851.52 C5219.22664,2854.93335 5215.86668,2857.59999 5213.52,2859.52 L5212.88,2859.2 L5211.92,2860.16 L5210.96,2860.8 L5210.64,2859.84 L5210.32,2861.76 C5208.18666,2863.46668 5206.69334,2864.58666 5205.84,2865.12 C5204.98666,2865.65334 5204.45333,2865.92 5204.24,2865.92 C5204.02667,2865.92 5203.70667,2866.02667 5203.28,2866.24 L5201.04,2868.48 L5199.44,2869.44 L5198.48,2871.04 C5195.27998,2872.96001 5192.29335,2875.30665 5189.52,2878.08 L5189.84,2878.72 L5189.04,2878.72 C5188.72,2878.72 5188.45333,2878.88 5188.24,2879.2 C5188.02667,2879.52 5187.6,2879.89333 5186.96,2880.32 L5186.32,2879.68 C5186.10667,2880.53334 5185.68,2881.17333 5185.04,2881.6 L5183.76,2881.28 L5183.12,2884.8 L5182.48,2883.84 L5182.16,2885.44 L5181.2,2885.12 C5179.91999,2886.82668 5178.42668,2888.10666 5176.72,2888.96 L5177.04,2889.28 L5175.44,2889.6 L5175.44,2891.2 C5174.15999,2891.84 5173.30667,2892.42666 5172.88,2892.96 C5172.45333,2893.49334 5172.02667,2893.76 5171.6,2893.76 L5170.32,2896 L5168.4,2896.96 L5168.4,2898.24 C5167.11999,2899.30667 5165.84001,2900.47999 5164.56,2901.76 C5163.27999,2903.89334 5161.68001,2905.70666 5159.76,2907.2 L5160.4,2907.52 L5159.44,2908.8 L5160.4,2908.8 C5160.61333,2908.8 5164.07997,2907.57335 5170.8,2905.12 C5177.52003,2902.66665 5187.0666,2898.66669 5199.44,2893.12 C5211.8134,2887.57331 5229.62655,2878.50673 5252.88,2865.92 C5252.88,2865.28 5252.98667,2864.64 5253.2,2864 C5253.41333,2863.36 5253.46667,2859.9467 5253.36,2853.76 C5253.25333,2847.5733 5253.09333,2843.25335 5252.88,2840.8 C5252.66667,2838.34665 5252.4,2837.01333 5252.08,2836.8 C5251.76,2836.58667 5251.6,2836.37333 5251.6,2836.16 C5249.03999,2837.86668 5247.28,2839.2 5246.32,2840.16 C5245.36,2841.12 5244.4,2841.6 5243.44,2841.6 C5242.48,2841.6 5241.57334,2841.92 5240.72,2842.56 C5239.86666,2843.2 5238.90667,2843.73333 5237.84,2844.16 L5237.84,2843.52 L5244.24,2839.68 C5244.66667,2839.46667 5244.88,2838.82667 5244.88,2837.76 C5245.52,2837.12 5246.37333,2836.58667 5247.44,2836.16 L5249.68,2833.6 L5249.04,2833.28 Z M5326.8,2872.96 L5326,2872.96 C5325.68,2872.96 5325.09334,2873.12 5324.24,2873.44 C5323.38666,2873.76 5322.90667,2873.86667 5322.8,2873.76 C5322.69333,2873.65333 5322.42667,2873.6 5322,2873.6 L5321.68,2873.92 L5320.4,2873.92 C5320.18667,2873.92 5319.65334,2874.13333 5318.8,2874.56 C5317.94666,2874.98667 5317.2,2875.41333 5316.56,2875.84 C5316.98667,2875.84 5317.41333,2875.89333 5317.84,2876 C5318.26667,2876.10667 5323.70661,2875.09334 5334.16,2872.96 C5332.45332,2872.96 5331.06667,2872.90667 5330,2872.8 C5328.93333,2872.69333 5328.4,2872.74667 5328.4,2872.96 C5328.4,2873.17333 5328.18667,2873.28 5327.76,2873.28 L5326.8,2872.96 Z M5339.6,2875.2 L5334.48,2875.84 L5338.32,2874.88 L5339.6,2875.2 Z M5281.68,2875.84 C5281.04,2876.05333 5280.50667,2876.21333 5280.08,2876.32 C5279.65333,2876.42667 5279.06667,2876.69333 5278.32,2877.12 C5277.57333,2877.54667 5276.88,2877.86667 5276.24,2878.08 L5277.2,2879.04 L5274,2880.32 L5273.68,2880.96 L5280.08,2878.72 L5281.36,2877.44 L5282.96,2876.16 L5281.68,2875.84 Z M5300.56,2880 L5299.6,2879.04 L5299.6,2880.64 C5301.09334,2880.42667 5302.47999,2879.89334 5303.76,2879.04 L5303.12,2878.4 L5300.56,2880 Z M5282.96,2884.8 L5275.6,2887.04 L5275.28,2888.32 L5277.2,2887.68 L5277.84,2888.32 L5278.48,2887.04 L5283.28,2885.12 L5282.96,2884.8 Z M5183.44,3004.48 C5196.24006,3009.38669 5202.96,3011.84 5203.6,3011.84 L5205.84,3011.84 C5198.58663,3008.85332 5191.12004,3006.40001 5183.44,3004.48 Z M5197.52,3007.68 C5198.58667,3008.10667 5201.14665,3008.95999 5205.2,3010.24 C5209.25335,3011.52001 5211.86666,3012.10667 5213.04,3012 C5214.21334,3011.89333 5215.54666,3011.94667 5217.04,3012.16 L5217.04,3011.52 C5210.8533,3010.45333 5204.6667,3009.17334 5198.48,3007.68 L5197.52,3007.68 Z M5211.92,3036.8 L5213.84,3036.8 C5214.26667,3036.8 5214.74666,3036.85333 5215.28,3036.96 C5215.81334,3037.06667 5216.29333,3037.06667 5216.72,3036.96 C5217.14667,3036.85333 5217.68,3036.90667 5218.32,3037.12 C5215.97332,3037.54667 5213.84001,3037.44 5211.92,3036.8 Z M5524.56,2777.6 C5526.26668,2780.58668 5527.6,2782.82666 5528.56,2784.32 C5529.52,2785.81334 5530.42666,2787.67999 5531.28,2789.92 C5532.13334,2792.16001 5533.62666,2796.3733 5535.76,2802.56 L5537.36,2800.64 L5531.92,2786.56 L5532.56,2786.56 C5538.53336,2802.56008 5543.86664,2818.87992 5548.56,2835.52 L5550.48,2836.48 L5552.4,2833.6 L5554.96,2836.16 L5557.52,2834.24 L5557.52,2831.68 L5559.44,2833.28 L5560.72,2829.44 L5561.68,2831.04 L5563.28,2828.48 L5567.12,2832.96 L5568.72,2832 L5570,2833.92 L5573.52,2834.24 L5574.16,2832.96 L5577.04,2836.8 L5579.92,2835.84 L5581.2,2837.12 C5581.84,2836.90667 5582.37333,2837.01333 5582.8,2837.44 C5583.22667,2837.86667 5584.98665,2838.66666 5588.08,2839.84 C5591.17335,2841.01334 5594.95998,2842.45332 5599.44,2844.16 L5605.52,2852.16 L5602.64,2858.88 C5601.57333,2858.88 5600.88,2858.77333 5600.56,2858.56 C5600.24,2858.34667 5599.54667,2858.45333 5598.48,2858.88 C5597.41333,2859.30667 5596.24001,2859.57333 5594.96,2859.68 C5593.67999,2859.78667 5592.72,2860.21333 5592.08,2860.96 C5591.44,2861.70667 5590.26668,2862.82666 5588.56,2864.32 C5582.79997,2863.68 5578.48001,2863.14667 5575.6,2862.72 C5572.71999,2862.29333 5570.10668,2862.24 5567.76,2862.56 C5565.41332,2862.88 5562.10669,2863.14667 5557.84,2863.36 C5558.26667,2865.92001 5558.64,2867.94666 5558.96,2869.44 C5559.28,2870.93334 5559.92,2873.11999 5560.88,2876 C5561.84,2878.88001 5563.49332,2884.58662 5565.84,2893.12 L5569.36,2888 C5570.64001,2887.78667 5571.38667,2887.52 5571.6,2887.2 C5571.81333,2886.88 5572.18666,2886.88 5572.72,2887.2 C5573.25334,2887.52 5573.84,2887.78667 5574.48,2888 L5577.04,2885.76 L5578.32,2887.68 L5582.48,2890.88 C5583.12,2892.80001 5583.6,2894.39999 5583.92,2895.68 C5584.24,2896.96001 5584.02667,2899.30665 5583.28,2902.72 C5582.53333,2906.13335 5581.25334,2908.95999 5579.44,2911.2 C5577.62666,2913.44001 5576.77333,2914.98666 5576.88,2915.84 C5576.98667,2916.69334 5576.82667,2917.44 5576.4,2918.08 C5575.97333,2918.72 5576.18666,2919.99999 5577.04,2921.92 C5577.89334,2923.84001 5583.43995,2935.46656 5593.68,2956.8 L5594.64,2952.64 L5594.96,2959.36 C5595.17333,2948.47995 5595.91999,2937.70672 5597.2,2927.04 L5597.84,2927.04 C5597.41333,2934.5067 5597.94666,2941.86663 5599.44,2949.12 L5599.44,2917.12 L5600.72,2917.12 C5600.72,2918.18667 5601.09333,2920.26665 5601.84,2923.36 C5602.58667,2926.45335 5603.17333,2929.38665 5603.6,2932.16 L5604.88,2930.56 C5604.88,2931.84001 5604.45334,2932.90666 5603.6,2933.76 C5604.02667,2934.18667 5604.34667,2934.45333 5604.56,2934.56 C5604.77333,2934.66667 5604.88,2934.98666 5604.88,2935.52 C5604.88,2936.05334 5604.98667,2936.85333 5605.2,2937.92 L5606.8,2939.2 C5606.8,2940.69334 5606.85333,2941.86666 5606.96,2942.72 C5607.06667,2943.57334 5607.06667,2944.42666 5606.96,2945.28 C5606.85333,2946.13334 5607.06666,2947.62666 5607.6,2949.76 C5608.13334,2951.89334 5608.66666,2953.70666 5609.2,2955.2 C5609.73334,2956.69334 5610.21333,2958.98665 5610.64,2962.08 C5611.06667,2965.17335 5611.81333,2968.42665 5612.88,2971.84 L5611.92,2974.08 L5613.2,2974.4 C5613.2,2974.82667 5613.46666,2976.05332 5614,2978.08 C5614.53334,2980.10668 5614.90667,2982.55999 5615.12,2985.44 C5615.33333,2988.32001 5615.86666,2991.83998 5616.72,2996 C5617.57334,3000.16002 5618.53333,3002.98666 5619.6,3004.48 C5620.24,3003.62666 5620.61333,3002.93334 5620.72,3002.4 C5620.82667,3001.86666 5620.98667,3000.69334 5621.2,2998.88 C5621.41333,2997.06666 5621.2,2992.48004 5620.56,2985.12 C5619.92,2977.75996 5619.28,2973.70667 5618.64,2972.96 C5618,2972.21333 5617.46667,2971.41334 5617.04,2970.56 L5618,2971.52 L5618.32,2970.56 L5619.6,2970.88 C5620.02667,2976.64003 5620.66666,2982.29331 5621.52,2987.84 L5623.12,2988.16 C5623.54667,2991.57335 5624.02666,2994.34666 5624.56,2996.48 C5625.09334,2998.61334 5625.30667,3002.18664 5625.2,3007.2 C5625.09333,3012.21336 5625.30666,3015.62666 5625.84,3017.44 C5626.37334,3019.25334 5626.58667,3020.74666 5626.48,3021.92 C5626.37333,3023.09334 5626.53333,3023.89333 5626.96,3024.32 C5627.38667,3024.74667 5627.92,3025.59999 5628.56,3026.88 L5628.88,3014.4 C5629.52,3018.02668 5629.84,3021.75998 5629.84,3025.6 L5630.48,3024.96 L5629.84,3026.24 C5630.26667,3028.80001 5631.06666,3031.46665 5632.24,3034.24 C5633.41334,3037.01335 5634.10667,3039.14666 5634.32,3040.64 L5633.68,3042.56 L5637.84,3053.12 L5628.24,3062.4 C5627.17333,3061.97333 5626.42667,3061.65333 5626,3061.44 C5625.57333,3061.22667 5624.56001,3061.44 5622.96,3062.08 C5621.35999,3062.72 5618.74668,3063.78666 5615.12,3065.28 L5607.12,3060.8 C5603.70665,3055.67997 5600.29335,3050.77336 5596.88,3046.08 L5594.96,3048 L5596.88,3051.52 L5594.32,3050.88 L5593.04,3048.32 L5591.12,3048 L5589.52,3046.4 L5587.6,3046.08 L5588.88,3047.68 L5585.04,3049.6 L5581.2,3047.36 L5583.44,3047.36 L5581.2,3045.76 L5578.96,3039.68 L5581.2,3037.44 L5583.76,3038.4 L5582.16,3037.76 L5583.76,3037.44 L5580.88,3035.52 L5581.84,3034.88 L5579.28,3032 L5581.52,3033.28 C5581.30667,3032.85333 5580.93334,3031.78668 5580.4,3030.08 C5579.86666,3028.37332 5580.02666,3026.98667 5580.88,3025.92 C5581.73334,3024.85333 5582.37333,3023.52001 5582.8,3021.92 C5583.22667,3020.31999 5583.76,3019.2 5584.4,3018.56 C5585.04,3017.92 5585.36,3016.80001 5585.36,3015.2 C5585.36,3013.59999 5585.09334,3012.00001 5584.56,3010.4 C5584.02666,3008.79999 5583.97333,3007.41334 5584.4,3006.24 C5584.82667,3005.06666 5585.52,3004.16 5586.48,3003.52 C5587.44,3002.88 5587.81333,3001.38668 5587.6,2999.04 C5587.38667,2996.69332 5580.98673,2979.73349 5568.4,2948.16 C5562.2133,2957.76005 5555.28004,2966.50663 5547.6,2974.4 L5537.68,2979.52 L5536.4,2978.56 L5534.8,2980.48 L5527.76,2979.2 L5526.16,2976.64 L5532.88,2975.04 C5529.46665,2973.33332 5526.16002,2971.20001 5522.96,2968.64 C5520.82666,2965.86665 5519.17334,2963.78667 5518,2962.4 C5516.82666,2961.01333 5515.86667,2959.20001 5515.12,2956.96 C5514.37333,2954.71999 5514,2953.06667 5514,2952 C5514,2950.93333 5513.68,2950.02667 5513.04,2949.28 C5512.4,2948.53333 5511.76,2946.98668 5511.12,2944.64 L5514,2945.6 C5512.71999,2942.82665 5511.76,2940.90667 5511.12,2939.84 C5510.48,2938.77333 5510.16,2938.02667 5510.16,2937.6 L5510.16,2936.64 L5515.6,2940.8 C5515.17333,2939.73333 5514.85333,2938.77334 5514.64,2937.92 C5514.42667,2937.06666 5513.89334,2935.94667 5513.04,2934.56 C5512.18666,2933.17333 5510.48001,2930.66668 5507.92,2927.04 L5516.24,2935.04 L5514.32,2932.8 L5520.08,2936.64 L5517.2,2932.48 L5529.36,2938.88 L5539.92,2929.28 L5553.36,2910.4 C5548.87998,2896.1066 5544.82668,2881.70674 5541.2,2867.2 C5540.56,2867.2 5540.02667,2867.09333 5539.6,2866.88 C5539.17333,2866.66667 5536.77336,2867.41332 5532.4,2869.12 C5528.02664,2870.82668 5521.78671,2873.38665 5513.68,2876.8 L5513.68,2882.24 C5513.68,2883.30667 5513.94666,2884.58666 5514.48,2886.08 C5515.01334,2887.57334 5515.91999,2890.13332 5517.2,2893.76 L5523.6,2895.68 L5523.28,2897.6 L5525.84,2898.24 L5523.6,2901.44 L5528.72,2903.68 L5529.68,2905.6 C5526.47998,2907.30668 5523.17335,2908.42666 5519.76,2908.96 C5516.34665,2909.49334 5512.50669,2910.45333 5508.24,2911.84 C5503.97331,2913.22667 5499.86669,2914.29333 5495.92,2915.04 C5491.97331,2915.78667 5487.86669,2917.33332 5483.6,2919.68 C5483.38667,2924.37336 5483.33333,2927.78666 5483.44,2929.92 C5483.54667,2932.05334 5483.33334,2936.10664 5482.8,2942.08 C5482.26666,2948.05336 5481.84,2957.91993 5481.52,2971.68 C5481.2,2985.44007 5480.61334,2993.11999 5479.76,2994.72 C5478.90666,2996.32001 5478.16,2997.97332 5477.52,2999.68 C5473.25331,3001.17334 5469.30668,3001.06668 5465.68,2999.36 L5464.72,3001.28 L5458.64,2996.16 C5458.42667,2994.87999 5457.78667,2992.64002 5456.72,2989.44 C5455.65333,2986.23998 5454.69334,2984.16 5453.84,2983.2 C5452.98666,2982.24 5451.49334,2980.48001 5449.36,2977.92 L5452.24,2978.24 L5450.64,2976.64 L5452.24,2976.64 L5452.56,2975.68 C5448.29331,2973.75999 5444.77335,2972.16001 5442,2970.88 C5439.22665,2969.59999 5435.44002,2968.8 5430.64,2968.48 C5425.83998,2968.16 5422.74667,2968.42666 5421.36,2969.28 C5419.97333,2970.13334 5418.64001,2971.30666 5417.36,2972.8 C5416.29333,2972.58667 5415.44,2972.26667 5414.8,2971.84 C5414.16,2971.41333 5413.41334,2971.41333 5412.56,2971.84 C5411.70666,2972.26667 5410.32001,2972.58667 5408.4,2972.8 L5408.08,2970.56 L5402,2970.56 L5400.72,2967.68 L5396.24,2970.24 L5392.4,2968.64 L5388.24,2970.56 L5389.84,2970.56 L5386,2970.88 C5385.57333,2969.38666 5385.25333,2968.32 5385.04,2967.68 C5384.82667,2967.04 5384.93333,2966.08001 5385.36,2964.8 C5385.78667,2963.51999 5387.17332,2961.92001 5389.52,2960 C5391.86668,2958.07999 5395.27998,2954.45336 5399.76,2949.12 C5420.88011,2933.11992 5432.34666,2924.48001 5434.16,2923.2 C5435.97334,2921.91999 5437.46666,2920.96 5438.64,2920.32 C5439.81334,2919.68 5441.99998,2918.50668 5445.2,2916.8 C5448.40002,2915.09332 5454.15996,2911.57336 5462.48,2906.24 L5462.8,2899.52 C5447.01325,2906.77337 5431.01341,2913.59997 5414.8,2920 L5409.04,2926.4 C5404.98665,2929.17335 5401.14668,2929.06668 5397.52,2926.08 L5389.84,2917.12 L5383.12,2911.36 L5385.68,2906.88 C5387.17334,2906.02666 5388.34666,2905.28 5389.2,2904.64 C5390.05334,2904 5391.65332,2904.16 5394,2905.12 C5396.34668,2906.08 5401.94662,2904.05336 5410.8,2899.04 C5419.65338,2894.02664 5437.94653,2884.90673 5465.68,2871.68 C5466.10667,2865.27997 5466.21333,2860.10669 5466,2856.16 C5465.78667,2852.21331 5465.57333,2849.81334 5465.36,2848.96 C5465.14667,2848.10666 5465.25333,2846.72001 5465.68,2844.8 C5466.32,2844.8 5467.06666,2844.74667 5467.92,2844.64 C5468.77334,2844.53333 5469.78666,2844.58667 5470.96,2844.8 C5472.13334,2845.01333 5473.57332,2845.49333 5475.28,2846.24 C5476.98668,2846.98667 5479.75998,2848.21332 5483.6,2849.92 C5484.02667,2851.84001 5484.98666,2853.33333 5486.48,2854.4 C5485.41333,2855.25334 5485.09333,2856.21333 5485.52,2857.28 L5482,2859.52 L5481.36,2864.64 L5504.08,2856.32 L5505.04,2852.8 L5506.96,2855.04 C5516.98672,2852.90666 5526.37329,2849.17336 5535.12,2843.84 C5528.50663,2818.23987 5524.34668,2803.89335 5522.64,2800.8 C5520.93332,2797.70665 5518.90668,2793.60003 5516.56,2788.48 L5514.96,2790.4 L5514,2790.4 C5512.71999,2789.11999 5511.28001,2787.52001 5509.68,2785.6 C5508.07999,2783.67999 5507.33333,2782.34667 5507.44,2781.6 C5507.54667,2780.85333 5507.70667,2779.94667 5507.92,2778.88 C5510.69335,2779.09333 5513.46665,2778.45334 5516.24,2776.96 L5524.56,2777.6 Z M5618.04598,2787.10036 L5618.32,2787.2 L5618.17438,2787.63686 C5618.12811,2787.46011 5618.0853,2787.28127 5618.04598,2787.10036 L5618.04598,2787.10036 Z M5618.17438,2787.63686 C5618.92034,2790.48613 5620.56886,2792.79383 5623.12,2794.56 L5625.04,2793.28 L5632.72,2806.72 L5635.6,2806.72 L5636.88,2810.24 L5635.6,2811.52 L5639.12,2815.04 L5638.16,2816.32 L5641.36,2821.76 L5638.48,2824.64 L5640.4,2826.88 C5639.11999,2827.09333 5638.16,2827.14667 5637.52,2827.04 C5636.88,2826.93333 5636.4,2827.04 5636.08,2827.36 C5635.76,2827.68 5635.17334,2828.05333 5634.32,2828.48 C5633.46666,2828.26667 5632.82667,2827.89334 5632.4,2827.36 C5631.97333,2826.82666 5631.22667,2826.45333 5630.16,2826.24 C5629.09333,2826.02667 5628.18667,2826.24 5627.44,2826.88 C5626.69333,2827.52 5625.78667,2828.16 5624.72,2828.8 C5622.15999,2827.09332 5619.38668,2825.92 5616.4,2825.28 C5616.18667,2824.64 5615.97333,2824.05334 5615.76,2823.52 C5615.54667,2822.98666 5613.89335,2820.42669 5610.8,2815.84 C5607.70665,2811.25331 5605.94667,2808.10668 5605.52,2806.4 C5605.09333,2804.69332 5604.82667,2802.50668 5604.72,2799.84 C5604.61333,2797.17332 5604.61333,2795.68 5604.72,2795.36 C5604.82667,2795.04 5604.98667,2794.77333 5605.2,2794.56 C5606.26667,2796.05334 5607.75999,2796.37334 5609.68,2795.52 L5611.28,2792.96 L5612.88,2793.28 L5613.2,2790.4 L5611.28,2791.04 L5610.96,2789.76 C5613.30668,2790.4 5615.54666,2790.18667 5617.68,2789.12 L5618.17438,2787.63686 L5618.17438,2787.63686 Z M5618.04598,2787.10036 L5614.8,2785.92 L5618,2786.88 C5618.01476,2786.95379 5618.03008,2787.02724 5618.04598,2787.10036 L5618.04598,2787.10036 Z M5471.44,2786.56 C5472.08,2786.56 5472.45333,2786.45333 5472.56,2786.24 C5472.66667,2786.02667 5474.58665,2786.71999 5478.32,2788.32 C5482.05335,2789.92001 5485.09332,2790.88 5487.44,2791.2 C5489.78668,2791.52 5491.49333,2792.21333 5492.56,2793.28 C5493.62667,2794.34667 5494.58666,2794.77333 5495.44,2794.56 C5496.29334,2794.34667 5497.46666,2794.24 5498.96,2794.24 L5502.16,2798.4 L5517.84,2807.68 C5519.54668,2810.88002 5521.03999,2813.01333 5522.32,2814.08 C5523.60001,2815.14667 5524.34667,2816.69332 5524.56,2818.72 C5524.77333,2820.74668 5524.45334,2822.18666 5523.6,2823.04 C5522.74666,2823.89334 5521.57334,2825.27999 5520.08,2827.2 C5516.45332,2828.26667 5510.64004,2830.61332 5502.64,2834.24 C5494.63996,2837.86668 5488.50669,2840.31999 5484.24,2841.6 L5485.84,2837.12 L5482.32,2836.48 L5486.8,2833.28 L5486.8,2831.36 L5485.84,2830.72 C5484.77333,2831.57334 5483.86667,2832.32 5483.12,2832.96 C5482.37333,2833.6 5480.61335,2834.29333 5477.84,2835.04 C5475.06665,2835.78667 5471.76002,2837.17332 5467.92,2839.2 C5464.07998,2841.22668 5459.65336,2844.69331 5454.64,2849.6 C5449.62664,2854.50669 5446.42667,2857.49333 5445.04,2858.56 C5443.65333,2859.62667 5442.00001,2860.79999 5440.08,2862.08 L5437.52,2865.92 L5435.6,2865.92 L5423.44,2879.36 L5423.44,2876.16 L5421.84,2877.44 C5425.25335,2871.03997 5429.14664,2865.92002 5433.52,2862.08 C5437.89336,2858.23998 5443.3333,2852.42671 5449.84,2844.64 C5456.3467,2836.85329 5461.89331,2830.56002 5466.48,2825.76 C5471.06669,2820.95998 5476.34664,2814.61337 5482.32,2806.72 C5478.69332,2800.95997 5475.97334,2797.06668 5474.16,2795.04 C5472.34666,2793.01332 5471.44,2791.52 5471.44,2790.56 C5471.44,2789.6 5471.44,2788.26668 5471.44,2786.56 Z M5542.16,2819.52 L5544.08,2830.4 L5545.36,2829.44 C5544.07999,2826.23998 5543.44,2823.14668 5543.44,2820.16 L5542.16,2819.52 Z M5538.32,2861.76 L5530,2864.64 L5532.88,2865.12 C5533.52,2865.22667 5534.42666,2865.06667 5535.6,2864.64 C5536.77334,2864.21333 5538.31999,2863.57334 5540.24,2862.72 L5538.64,2862.08 L5538.32,2861.76 Z M5538.96,2864.64 C5535.54665,2865.49334 5533.09334,2866.13333 5531.6,2866.56 C5530.10666,2866.98667 5528.93334,2867.36 5528.08,2867.68 C5527.22666,2868 5526.05334,2868.79999 5524.56,2870.08 C5529.46669,2868.58666 5533.03999,2867.52 5535.28,2866.88 C5537.52001,2866.24 5538.85333,2865.86667 5539.28,2865.76 C5539.70667,2865.65333 5540.13333,2865.38667 5540.56,2864.96 L5538.96,2864.64 Z M5497.36,2883.84 C5495.22666,2884.90667 5492.88001,2885.81333 5490.32,2886.56 C5487.75999,2887.30667 5485.62668,2888.42666 5483.92,2889.92 L5482.96,2896.32 C5483.81334,2896.53333 5484.56,2896.64 5485.2,2896.64 C5485.84,2896.64 5486.74666,2896.42667 5487.92,2896 C5489.09334,2895.57333 5491.06665,2894.72001 5493.84,2893.44 L5497.36,2883.84 Z M5462.16,2908.48 L5449.36,2915.52 C5452.98668,2912.74665 5455.49333,2910.82667 5456.88,2909.76 C5458.26667,2908.69333 5459.22666,2908.21333 5459.76,2908.32 C5460.29334,2908.42667 5461.09333,2908.48 5462.16,2908.48 Z M5602,2931.52 L5602.64,2946.88 L5603.6,2946.88 C5602.53333,2941.97331 5602.10667,2936.96003 5602.32,2931.84 L5602,2931.52 Z M5459.6,2932.16 C5456.82665,2933.44001 5454.58668,2934.29333 5452.88,2934.72 C5451.17332,2935.14667 5448.66668,2936.53332 5445.36,2938.88 C5442.05332,2941.22668 5436.45337,2944.95997 5428.56,2950.08 C5424.71998,2953.92002 5421.94668,2956.63999 5420.24,2958.24 C5418.53332,2959.84001 5417.52,2961.06666 5417.2,2961.92 C5416.88,2962.77334 5416.50667,2964.15999 5416.08,2966.08 C5418.85335,2966.50667 5421.41332,2966.88 5423.76,2967.2 C5426.10668,2967.52 5430.2133,2967.68 5436.08,2967.68 C5441.9467,2967.68 5446.21332,2967.25334 5448.88,2966.4 C5451.54668,2965.54666 5454.37332,2964.48001 5457.36,2963.2 L5460.24,2932.48 L5459.6,2932.16 Z M5870.30368,3018.23347 L5869.52,3017.92 C5869.76381,3018.04191 5870.02504,3018.1464 5870.30368,3018.23347 L5870.30368,3018.23347 Z M5870.30368,3018.23347 C5871.00028,3018.45116 5871.80571,3018.56 5872.72,3018.56 C5865.2533,3016.21332 5859.92002,3014.72 5856.72,3014.08 C5853.51998,3013.44 5851.6,3012.90667 5850.96,3012.48 L5852.24,3012.48 L5852.24,3011.52 L5851.92,3011.84 L5850.96,3011.2 L5849.68,3011.52 L5848.72,3010.24 L5848.72,3011.2 L5850,3012.16 L5847.44,3012.16 L5847.76,3010.24 C5847.33333,3010.88 5846.8,3011.41333 5846.16,3011.84 L5846.8,3010.24 L5844.88,3009.6 L5844.24,3009.92 L5842.96,3009.28 L5842.32,3010.56 L5841.04,3010.24 L5840.72,3009.92 C5841.36,3010.13333 5842.10666,3009.92 5842.96,3009.28 C5840.61332,3009.49333 5838.37334,3009.06667 5836.24,3008 L5836.24,3008.96 L5834.64,3008 L5834,3008.64 L5834.32,3008 L5833.04,3007.36 L5833.36,3008 C5832.50666,3008 5831.86667,3007.89333 5831.44,3007.68 C5831.01333,3007.46667 5829.41335,3007.2 5826.64,3006.88 C5823.86665,3006.56 5822.26667,3006.08 5821.84,3005.44 C5823.12001,3005.22667 5824.02666,3005.01333 5824.56,3004.8 C5825.09334,3004.58667 5825.46667,3004.58667 5825.68,3004.8 C5825.89333,3005.01333 5826.21333,3005.22667 5826.64,3005.44 L5826.96,3005.12 L5826.96,3005.44 C5829.09334,3005.44 5830.64,3005.6 5831.6,3005.92 C5832.56,3006.24 5833.41333,3006.4 5834.16,3006.4 L5836.08,3006.4 C5836.61334,3006.4 5837.14666,3006.34667 5837.68,3006.24 C5838.21334,3006.13333 5838.8,3006.08 5839.44,3006.08 L5839.44,3007.04 L5840.4,3006.4 L5844.56,3006.4 L5843.6,3006.72 L5843.92,3007.36 L5845.2,3005.44 L5844.56,3004.48 L5843.92,3005.12 C5843.28,3004.90667 5842.8,3004.8 5842.48,3004.8 L5840.4,3004.8 C5839.33333,3004.8 5838.69333,3004.69333 5838.48,3004.48 L5838.48,3005.44 C5837.62666,3005.44 5837.09333,3005.22667 5836.88,3004.8 L5836.56,3006.08 L5835.92,3006.08 L5836.24,3004.8 L5835.28,3005.12 L5836.24,3004.16 L5837.2,3004.48 C5837.84,3004.26667 5838.26667,3004.05333 5838.48,3003.84 C5838.69333,3003.62667 5838.96,3003.62667 5839.28,3003.84 C5839.6,3004.05333 5840.18666,3004.16 5841.04,3004.16 L5840.72,3003.52 C5841.36,3003.52 5841.89333,3003.73333 5842.32,3004.16 C5843.60001,3003.73333 5844.98666,3003.2 5846.48,3002.56 L5847.12,3003.52 C5847.54667,3003.30667 5847.92,3003.04 5848.24,3002.72 C5848.56,3002.4 5848.88,3002.29333 5849.2,3002.4 C5849.52,3002.50667 5850.31999,3002.56 5851.6,3002.56 L5851.92,3001.92 L5853.84,3001.6 L5853.84,3000.64 L5852.88,3000.96 L5852.24,3000.64 C5853.94668,3000.21333 5855.28,2999.89333 5856.24,2999.68 C5857.2,2999.46667 5857.73333,2999.36 5857.84,2999.36 C5857.94667,2999.36 5858.32,2999.46667 5858.96,2999.68 L5859.28,2999.04 C5861.20001,2998.61333 5863.11999,2997.97334 5865.04,2997.12 L5864.72,2996.16 L5865.36,2995.52 L5866.32,2995.84 C5867.17334,2994.98666 5867.70667,2994.02667 5867.92,2992.96 C5871.12002,2991.46666 5874.10665,2989.44001 5876.88,2986.88 C5877.30667,2986.02666 5877.68,2985.33334 5878,2984.8 C5878.32,2984.26666 5878.69333,2983.14668 5879.12,2981.44 C5879.54667,2979.73332 5879.86667,2977.65335 5880.08,2975.2 C5880.29333,2972.74665 5880.08,2970.02668 5879.44,2967.04 C5878.8,2964.05332 5879.49332,2948.32014 5881.52,2919.84 C5883.54668,2891.35986 5884.72,2868.16009 5885.04,2850.24 C5885.36,2832.31991 5885.36,2821.86668 5885.04,2818.88 C5884.72,2815.89332 5884.56,2812.48002 5884.56,2808.64 L5877.84,2810.88 L5880.08,2808.64 C5879.01333,2809.06667 5878,2809.38667 5877.04,2809.6 C5876.08,2809.81333 5874.10668,2810.61333 5871.12,2812 C5868.13332,2813.38667 5865.46668,2814.71999 5863.12,2816 C5860.77332,2817.28001 5859.12,2818.29333 5858.16,2819.04 C5857.2,2819.78667 5855.86668,2820.58666 5854.16,2821.44 C5853.94667,2821.44 5852.61335,2822.07999 5850.16,2823.36 C5847.70665,2824.64001 5844.66668,2826.34666 5841.04,2828.48 L5841.04,2826.88 C5840.61333,2827.94667 5840.08,2828.69333 5839.44,2829.12 L5839.44,2828.16 L5836.24,2830.72 L5835.92,2829.76 L5835.6,2831.04 L5834.64,2831.36 L5833.68,2832.32 L5833.36,2831.36 L5831.12,2833.92 L5831.12,2832.96 L5829.2,2833.92 C5828.98667,2834.13333 5828.56,2834.66666 5827.92,2835.52 C5827.28,2836.37334 5826.42667,2837.43999 5825.36,2838.72 C5825.36,2839.57334 5825.46667,2840.21333 5825.68,2840.64 C5825.89333,2841.06667 5825.84,2841.49333 5825.52,2841.92 C5825.2,2842.34667 5824.61334,2843.19999 5823.76,2844.48 L5821.84,2843.52 L5820.24,2845.12 C5819.17333,2845.12 5818.42667,2845.17333 5818,2845.28 C5817.57333,2845.38667 5816.82667,2845.28 5815.76,2844.96 C5814.69333,2844.64 5813.73334,2844.16 5812.88,2843.52 L5810.96,2841.6 L5809.68,2841.28 L5806.16,2835.52 L5802.64,2833.28 C5802.42667,2832.42666 5802.37333,2831.78667 5802.48,2831.36 C5802.58667,2830.93333 5802.37334,2830.4 5801.84,2829.76 C5801.30666,2829.12 5801.2,2828.42667 5801.52,2827.68 C5801.84,2826.93333 5801.84,2826.18667 5801.52,2825.44 C5801.2,2824.69333 5801.30666,2824.05334 5801.84,2823.52 C5802.37334,2822.98666 5802.74667,2822.50667 5802.96,2822.08 L5804.56,2821.12 C5806.48001,2821.76 5807.81333,2822.34666 5808.56,2822.88 C5809.30667,2823.41334 5810.42666,2823.41334 5811.92,2822.88 C5813.41334,2822.34666 5816.02665,2821.22668 5819.76,2819.52 C5823.49335,2817.81332 5828.87996,2814.77336 5835.92,2810.4 C5842.96004,2806.02664 5849.5733,2802.24002 5855.76,2799.04 C5861.9467,2795.83998 5867.17331,2793.44001 5871.44,2791.84 C5875.70669,2790.23999 5878.21333,2789.17334 5878.96,2788.64 C5879.70667,2788.10666 5880.4,2787.62667 5881.04,2787.2 L5882.96,2784.96 L5887.12,2783.36 C5887.33333,2781.65332 5887.97333,2780.26667 5889.04,2779.2 C5891.81335,2777.91999 5894.53332,2776.85334 5897.2,2776 C5899.86668,2775.14666 5901.62666,2774.61333 5902.48,2774.4 C5903.54667,2774.82667 5904.4,2775.09333 5905.04,2775.2 C5905.68,2775.30667 5906.48,2775.94666 5907.44,2777.12 C5908.4,2778.29334 5910.10665,2779.46666 5912.56,2780.64 C5915.01335,2781.81334 5916.72,2782.24 5917.68,2781.92 C5918.64,2781.6 5919.54666,2781.76 5920.4,2782.4 C5921.25334,2783.04 5922.42666,2783.52 5923.92,2783.84 C5925.41334,2784.16 5927.38665,2784.90666 5929.84,2786.08 C5932.29335,2787.25334 5934.37332,2788.53333 5936.08,2789.92 C5937.78668,2791.30667 5940.34665,2793.17332 5943.76,2795.52 C5944.4,2796.58667 5944.82667,2797.28 5945.04,2797.6 C5945.25333,2797.92 5945.41333,2798.50666 5945.52,2799.36 C5945.62667,2800.21334 5945.14667,2801.17333 5944.08,2802.24 C5943.01333,2803.30667 5942.42667,2804.69332 5942.32,2806.4 C5942.21333,2808.10668 5941.57334,2809.59999 5940.4,2810.88 C5939.22666,2812.16001 5938.42667,2813.91999 5938,2816.16 C5937.57333,2818.40001 5936.82667,2821.17332 5935.76,2824.48 C5934.69333,2827.78668 5934.16,2830.29332 5934.16,2832 L5934.16,2840 L5934.8,2837.44 C5934.8,2838.29334 5934.90667,2838.88 5935.12,2839.2 C5935.33333,2839.52 5935.33333,2840.74666 5935.12,2842.88 C5934.90667,2845.01334 5934.8,2848.74664 5934.8,2854.08 L5934.16,2852.8 C5933.94667,2855.36001 5933.94667,2857.81332 5934.16,2860.16 L5934.8,2855.04 L5935.44,2855.04 L5935.44,2860.48 L5936.08,2860.16 L5935.44,2863.36 L5934.8,2863.04 L5934.8,2866.08 C5934.8,2867.25334 5934.85333,2869.65332 5934.96,2873.28 C5935.06667,2876.90668 5935.17333,2879.46666 5935.28,2880.96 C5935.38667,2882.45334 5935.65333,2884.79998 5936.08,2888 L5936.08,2884.8 L5936.72,2884.8 L5937.68,2882.24 C5937.68,2883.30667 5937.73333,2884.16 5937.84,2884.8 C5937.94667,2885.44 5938.10667,2886.55999 5938.32,2888.16 C5938.53333,2889.76001 5938.85333,2892.69331 5939.28,2896.96 L5939.6,2897.6 L5940.72,2898.72 C5941.04,2899.04 5941.09333,2899.78666 5940.88,2900.96 C5940.66667,2902.13334 5940.77333,2904.10665 5941.2,2906.88 L5939.6,2905.6 L5939.6,2907.36 C5939.6,2907.89334 5939.76,2908.69333 5940.08,2909.76 C5940.4,2910.82667 5940.29334,2911.78666 5939.76,2912.64 C5939.22666,2913.49334 5938.96,2914.4 5938.96,2915.36 C5938.96,2916.32 5939.12,2917.43999 5939.44,2918.72 C5939.76,2920.00001 5939.86667,2921.86665 5939.76,2924.32 C5939.65333,2926.77335 5939.97333,2928.53333 5940.72,2929.6 C5941.46667,2930.66667 5941.73333,2931.62666 5941.52,2932.48 C5941.30667,2933.33334 5941.2,2935.14665 5941.2,2937.92 L5941.84,2937.6 L5941.84,2936.64 L5943.12,2936.64 C5943.54667,2935.14666 5943.6,2934.08 5943.28,2933.44 C5942.96,2932.8 5942.74667,2931.62668 5942.64,2929.92 C5942.53333,2928.21332 5942.58667,2926.29334 5942.8,2924.16 L5943.76,2924.16 L5943.76,2926.56 C5943.76,2927.30667 5943.81333,2928.58666 5943.92,2930.4 C5944.02667,2932.21334 5944.29333,2935.46664 5944.72,2940.16 L5944.08,2940.8 L5944.56,2941.76 C5944.66667,2941.97333 5944.66667,2942.45333 5944.56,2943.2 C5944.45333,2943.94667 5944.4,2945.17332 5944.4,2946.88 L5942.8,2946.88 C5942.58667,2949.01334 5942.69333,2951.03999 5943.12,2952.96 L5943.76,2952.96 L5943.76,2959.52 C5943.76,2960.48 5943.81333,2961.33333 5943.92,2962.08 C5944.02667,2962.82667 5944.08,2963.46666 5944.08,2964 L5944.08,2966.4 L5944.72,2966.08 L5945.04,2968.32 L5945.68,2968 C5945.46667,2964.79998 5945.25333,2962.45334 5945.04,2960.96 C5944.82667,2959.46666 5944.72,2957.81334 5944.72,2956 L5944.72,2946.88 C5944.72,2947.30667 5944.77333,2947.68 5944.88,2948 C5944.98667,2948.32 5945.04,2948.90666 5945.04,2949.76 C5945.04,2950.61334 5945.30666,2951.30666 5945.84,2951.84 C5946.37334,2952.37334 5946.42667,2953.59999 5946,2955.52 C5945.57333,2957.44001 5945.73333,2960.10665 5946.48,2963.52 C5947.22667,2966.93335 5947.6,2969.81332 5947.6,2972.16 C5947.6,2974.50668 5947.92,2977.01332 5948.56,2979.68 C5949.2,2982.34668 5949.46667,2985.06665 5949.36,2987.84 C5949.25333,2990.61335 5949.36,2993.11999 5949.68,2995.36 C5950,2997.60001 5949.78667,2999.78666 5949.04,3001.92 C5948.29333,3004.05334 5948.13333,3005.81333 5948.56,3007.2 C5948.98667,3008.58667 5948.98667,3009.49333 5948.56,3009.92 C5948.13333,3010.34667 5947.97333,3011.14666 5948.08,3012.32 C5948.18667,3013.49334 5947.81334,3014.29333 5946.96,3014.72 C5946.10666,3015.14667 5945.57333,3015.94666 5945.36,3017.12 C5945.14667,3018.29334 5944.61334,3020.58665 5943.76,3024 L5942.48,3024.32 L5941.2,3022.72 C5939.70666,3024.21334 5938.00001,3025.17333 5936.08,3025.6 L5934.8,3028.8 L5932.24,3030.4 L5930.96,3033.92 C5929.67999,3034.77334 5928.77334,3035.41333 5928.24,3035.84 C5927.70666,3036.26667 5926.85334,3036.64 5925.68,3036.96 C5924.50666,3037.28 5923.06668,3038.45332 5921.36,3040.48 C5919.65332,3042.50668 5917.78668,3043.62667 5915.76,3043.84 C5913.73332,3044.05333 5911.49335,3044.48 5909.04,3045.12 C5906.58665,3045.76 5904.29334,3046.13333 5902.16,3046.24 C5900.02666,3046.34667 5898.10668,3045.92 5896.4,3044.96 C5894.69332,3044 5892.50668,3043.41333 5889.84,3043.2 C5887.17332,3042.98667 5884.88001,3042.45334 5882.96,3041.6 C5881.03999,3040.74666 5879.81334,3040.21333 5879.28,3040 C5878.74666,3039.78667 5878.16,3039.46667 5877.52,3039.04 C5877.09333,3037.97333 5876.82667,3037.17334 5876.72,3036.64 C5876.61333,3036.10666 5876.24,3035.41334 5875.6,3034.56 C5874.96,3033.70666 5874.16,3032.58667 5873.2,3031.2 C5872.24,3029.81333 5871.92,3028.64 5872.24,3027.68 C5872.56,3026.72 5872.61333,3026.02667 5872.4,3025.6 C5872.18667,3025.17333 5871.97333,3024.53334 5871.76,3023.68 C5869.83999,3023.25333 5868.13334,3022.72 5866.64,3022.08 C5868.13334,3022.50667 5869.83999,3022.61333 5871.76,3022.4 L5872.72,3019.2 L5870.30368,3018.23347 L5870.30368,3018.23347 Z M5727.12,2798.08 C5727.33333,2798.08 5727.44,2798.02667 5727.44,2797.92 C5727.44,2797.81333 5727.92,2798.24 5728.88,2799.2 C5729.84,2800.16 5730.69333,2800.64 5731.44,2800.64 C5732.18667,2800.64 5732.77333,2800.85333 5733.2,2801.28 C5733.62667,2801.70667 5734.21333,2801.92 5734.96,2801.92 C5735.70667,2801.92 5736.50666,2802.08 5737.36,2802.4 C5738.21334,2802.72 5739.59999,2803.2 5741.52,2803.84 C5744.08001,2806.61335 5745.89333,2808.42666 5746.96,2809.28 C5748.02667,2810.13334 5748.66667,2810.93333 5748.88,2811.68 C5749.09333,2812.42667 5749.52,2813.22666 5750.16,2814.08 L5751.12,2814.4 C5750.69333,2815.25334 5750.32,2815.84 5750,2816.16 C5749.68,2816.48 5748.24001,2817.81332 5745.68,2820.16 C5743.11999,2822.50668 5740.88001,2825.49332 5738.96,2829.12 C5737.03999,2832.74668 5734.26668,2837.22664 5730.64,2842.56 C5727.01332,2847.89336 5719.22673,2859.62658 5707.28,2877.76 L5712.4,2883.84 L5715.28,2886.4 C5715.49333,2889.81335 5715.6,2892.21333 5715.6,2893.6 C5715.6,2894.98667 5715.65333,2895.78667 5715.76,2896 C5715.86667,2896.21333 5716.13333,2896.42667 5716.56,2896.64 C5718.26668,2891.09331 5721.03998,2886.18669 5724.88,2881.92 C5722.74666,2885.76002 5721.14667,2889.81331 5720.08,2894.08 L5721.04,2893.44 C5719.97333,2897.49335 5719.38667,2900.10666 5719.28,2901.28 C5719.17333,2902.45334 5718.74667,2903.67999 5718,2904.96 C5717.25333,2906.24001 5716.50667,2913.33327 5715.76,2926.24 C5715.01333,2939.14673 5714.74667,2947.78664 5714.96,2952.16 C5715.17333,2956.53336 5715.38667,2959.04 5715.6,2959.68 L5716.88,2958.72 C5717.09333,2959.57334 5717.36,2960.21333 5717.68,2960.64 C5718,2961.06667 5718.10667,2962.39999 5718,2964.64 C5717.89333,2966.88001 5718.32,2968.48 5719.28,2969.44 C5720.24,2970.4 5720.66667,2971.89332 5720.56,2973.92 C5720.45333,2975.94668 5719.81334,2978.02666 5718.64,2980.16 C5717.46666,2982.29334 5716.66667,2983.84 5716.24,2984.8 C5715.81333,2985.76 5715.28,2987.19999 5714.64,2989.12 L5713.36,2989.12 L5708.24,2994.24 C5706.95999,2994.24 5705.94667,2994.34667 5705.2,2994.56 C5704.45333,2994.77333 5703.70667,2994.82667 5702.96,2994.72 C5702.21333,2994.61333 5701.20001,2994.34667 5699.92,2993.92 L5698.64,2992.32 L5694.16,2989.44 C5693.09333,2987.94666 5692.29334,2986.93334 5691.76,2986.4 C5691.22666,2985.86666 5690.74667,2984.90667 5690.32,2983.52 C5689.89333,2982.13333 5689.62667,2980.85334 5689.52,2979.68 C5689.41333,2978.50666 5689.25333,2977.54667 5689.04,2976.8 C5688.82667,2976.05333 5688.61333,2974.93334 5688.4,2973.44 C5687.76,2973.01333 5687.28,2972.58667 5686.96,2972.16 C5686.64,2971.73333 5686.10667,2971.46667 5685.36,2971.36 C5684.61333,2971.25333 5683.49334,2970.98667 5682,2970.56 L5681.36,2971.2 C5681.36,2970.98667 5681.30667,2970.77333 5681.2,2970.56 C5681.09333,2970.34667 5680.93333,2969.92 5680.72,2969.28 C5680.50667,2968.64 5680.24,2968.05334 5679.92,2967.52 C5679.6,2966.98666 5679.38667,2966.50667 5679.28,2966.08 C5679.17333,2965.65333 5678.90667,2965.22667 5678.48,2964.8 C5678.90667,2963.51999 5679.65333,2962.34667 5680.72,2961.28 C5680.72,2960.85333 5680.66667,2960.53333 5680.56,2960.32 C5680.45333,2960.10667 5680.56,2959.73334 5680.88,2959.2 C5681.2,2958.66666 5681.30667,2958.02667 5681.2,2957.28 C5681.09333,2956.53333 5681.52,2955.04001 5682.48,2952.8 C5683.44,2950.55999 5684.24,2949.12 5684.88,2948.48 L5690,2944.32 C5690.64,2943.25333 5691.17333,2942.34667 5691.6,2941.6 C5692.02667,2940.85333 5692.56,2938.50669 5693.2,2934.56 C5693.84,2930.61331 5694.37333,2925.60003 5694.8,2919.52 C5695.22667,2913.43997 5695.33333,2909.12001 5695.12,2906.56 C5694.90667,2903.99999 5694.69333,2900.58669 5694.48,2896.32 C5692.55999,2899.09335 5687.06671,2906.29328 5678,2917.92 C5668.93329,2929.54672 5663.97334,2935.99999 5663.12,2937.28 C5662.05333,2937.49333 5661.14667,2937.6 5660.4,2937.6 C5659.65333,2937.6 5659.12,2937.54667 5658.8,2937.44 C5658.48,2937.33333 5658.10667,2937.38667 5657.68,2937.6 L5655.44,2935.04 C5653.30666,2937.60001 5651.49334,2939.78666 5650,2941.6 C5648.50666,2943.41334 5647.65333,2944.53333 5647.44,2944.96 C5647.22667,2945.38667 5646.8,2945.92 5646.16,2946.56 C5645.73333,2945.49333 5645.36,2944.69334 5645.04,2944.16 C5644.72,2943.62666 5644.56,2942.93334 5644.56,2942.08 C5644.56,2941.22666 5644.13334,2940.26667 5643.28,2939.2 C5642.42666,2938.13333 5642,2936.64001 5642,2934.72 C5642,2932.79999 5642.16,2930.56001 5642.48,2928 C5642.8,2925.43999 5642.8,2923.57334 5642.48,2922.4 C5642.16,2921.22666 5642,2920.42667 5642,2920 L5644.56,2918.4 C5644.77333,2917.76 5644.82667,2917.28 5644.72,2916.96 C5644.61333,2916.64 5644.61333,2916 5644.72,2915.04 C5644.82667,2914.08 5644.98667,2912.85334 5645.2,2911.36 L5645.84,2911.04 L5646.16,2910.4 L5647.44,2909.44 L5647.44,2908.8 L5649.52,2908.8 C5650.05334,2908.8 5650.69333,2908.42667 5651.44,2907.68 C5652.18667,2906.93333 5653.51999,2905.81334 5655.44,2904.32 C5658.64002,2900.47998 5660.87999,2897.86667 5662.16,2896.48 C5663.44001,2895.09333 5664.87999,2893.28001 5666.48,2891.04 C5668.08001,2888.79999 5670.47998,2885.76002 5673.68,2881.92 C5676.88002,2878.07998 5680.34665,2873.70669 5684.08,2868.8 C5687.81335,2863.89331 5691.33332,2858.77336 5694.64,2853.44 C5697.94668,2848.10664 5701.83998,2842.66669 5706.32,2837.12 C5710.80002,2831.57331 5716.4533,2821.22674 5723.28,2806.08 L5722.96,2804.48 L5723.6,2803.84 L5724.24,2800.64 L5727.12,2798.08 Z M5762.96,2841.28 L5768.72,2841.28 C5770.42668,2841.28 5773.25331,2841.65333 5777.2,2842.4 C5781.14669,2843.14667 5784.82665,2844.05333 5788.24,2845.12 C5791.65335,2846.18667 5793.94666,2847.2 5795.12,2848.16 C5796.29334,2849.12 5797.73332,2850.34666 5799.44,2851.84 L5800.4,2853.12 L5799.12,2856.96 L5800.08,2859.2 C5799.01333,2860.26667 5798.69333,2861.54666 5799.12,2863.04 L5796.56,2864.96 L5796.56,2866.56 L5795.28,2867.2 C5794.85333,2868.69334 5794.10667,2869.76 5793.04,2870.4 C5791.54666,2870.61333 5790.37334,2870.72 5789.52,2870.72 C5788.66666,2870.72 5787.76,2870.98666 5786.8,2871.52 C5785.84,2872.05334 5784.72001,2872.53333 5783.44,2872.96 C5782.15999,2873.38667 5780.40001,2873.28 5778.16,2872.64 C5775.91999,2872 5774.32,2871.36 5773.36,2870.72 C5772.4,2870.08 5771.28001,2869.22667 5770,2868.16 L5765.84,2870.08 L5759.44,2876.16 L5758.96,2875.68 C5758.85333,2875.57333 5758.64,2875.57333 5758.32,2875.68 C5758,2875.78667 5757.52,2875.84 5756.88,2875.84 L5755.6,2878.08 C5755.81333,2879.57334 5756.08,2880.48 5756.4,2880.8 C5756.72,2881.12 5756.72,2885.11996 5756.4,2892.8 C5756.08,2900.48004 5756.08,2905.91998 5756.4,2909.12 C5756.72,2912.32002 5757.2,2914.87999 5757.84,2916.8 C5758.48,2918.72001 5758.69333,2921.86664 5758.48,2926.24 C5758.26667,2930.61336 5757.94667,2936.10663 5757.52,2942.72 C5757.09333,2949.33337 5757.73332,2954.34665 5759.44,2957.76 C5761.14668,2961.17335 5762.16,2963.73332 5762.48,2965.44 C5762.8,2967.14668 5762.64,2968.53333 5762,2969.6 C5761.36,2970.66667 5761.04,2971.94666 5761.04,2973.44 C5761.04,2974.93334 5760.77334,2976.05333 5760.24,2976.8 C5759.70666,2977.54667 5759.01334,2978.98666 5758.16,2981.12 C5757.52,2981.12 5757.09333,2981.06667 5756.88,2980.96 C5756.66667,2980.85333 5756.13334,2981.17333 5755.28,2981.92 C5754.42666,2982.66667 5753.04001,2983.78666 5751.12,2985.28 L5744.08,2983.36 L5741.52,2981.12 C5739.81332,2980.69333 5738.21334,2979.84001 5736.72,2978.56 C5735.86666,2977.06666 5735.17334,2975.84 5734.64,2974.88 C5734.10666,2973.92 5733.89333,2972.53334 5734,2970.72 C5734.10667,2968.90666 5734.10667,2967.52 5734,2966.56 C5733.89333,2965.6 5733.89333,2964.58667 5734,2963.52 C5734.10667,2962.45333 5733.94667,2961.06668 5733.52,2959.36 C5733.09333,2957.65332 5732.56,2956.53334 5731.92,2956 C5731.28,2955.46666 5730.53334,2954.66667 5729.68,2953.6 L5726.16,2952.64 C5725.94667,2952.21333 5726.05333,2951.57334 5726.48,2950.72 L5727.76,2950.4 L5729.04,2948.48 L5732.24,2948.16 C5732.45333,2947.30666 5732.56,2946.66667 5732.56,2946.24 C5732.56,2945.81333 5732.18667,2945.01334 5731.44,2943.84 C5730.69333,2942.66666 5730.21333,2941.65334 5730,2940.8 L5730.32,2940.8 L5730.64,2939.84 L5732.88,2937.92 L5731.28,2936.96 L5731.28,2935.36 L5732.88,2936.32 L5734.16,2935.36 L5734.16,2934.08 C5735.01334,2934.08 5735.65333,2933.76 5736.08,2933.12 C5735.65333,2932.48 5735.44,2931.62667 5735.44,2930.56 L5737.36,2930.56 L5737.36,2929.92 L5738,2929.6 C5738.21333,2929.38667 5739.06666,2928.10668 5740.56,2925.76 C5742.05334,2923.41332 5743.75999,2917.86671 5745.68,2909.12 C5747.60001,2900.37329 5748.72,2894.29335 5749.04,2890.88 C5749.36,2887.46665 5749.89333,2885.17334 5750.64,2884 C5751.38667,2882.82666 5752.50666,2880.53335 5754,2877.12 L5756.56,2875.2 L5763.28,2866.88 C5761.99999,2865.59999 5759.81335,2863.84001 5756.72,2861.6 C5753.62665,2859.35999 5750.58668,2856.85335 5747.6,2854.08 C5746.10666,2852.58666 5744.72001,2850.98668 5743.44,2849.28 L5744.4,2849.28 L5744.08,2848 C5744.72,2847.78667 5745.14667,2847.68 5745.36,2847.68 C5745.57333,2847.68 5746.21333,2847.2 5747.28,2846.24 C5748.34667,2845.28 5749.67999,2844.42667 5751.28,2843.68 C5752.88001,2842.93333 5754.47999,2842.45333 5756.08,2842.24 C5757.68001,2842.02667 5759.97332,2841.70667 5762.96,2841.28 Z M5929.68,2864.64 L5930.64,2872.96 C5930.64,2872.32 5930.69333,2871.73334 5930.8,2871.2 C5930.90667,2870.66666 5930.90667,2869.97334 5930.8,2869.12 C5930.69333,2868.26666 5930.53333,2866.77334 5930.32,2864.64 L5929.68,2864.64 Z M5925.2,2876.8 L5925.2,2879.68 L5925.52,2878.72 L5926.16,2879.36 L5926.8,2889.28 L5928.72,2887.68 C5928.29333,2885.11999 5928.08,2883.36 5928.08,2882.4 C5928.08,2881.44 5927.81334,2880.69334 5927.28,2880.16 C5926.74666,2879.62666 5926.16,2878.61334 5925.52,2877.12 L5925.2,2876.8 Z M5935.31157,2895.86724 L5934.8,2890.24 L5934.16,2890.88 C5934.37333,2889.38666 5934.53333,2888.42667 5934.64,2888 C5934.74667,2887.57333 5934.74667,2887.04 5934.64,2886.4 C5934.53333,2885.76 5934.37333,2884.69334 5934.16,2883.2 C5933.94667,2884.90668 5933.84,2887.09332 5933.84,2889.76 C5933.84,2892.42668 5934.16,2894.18666 5934.8,2895.04 C5935.01117,2895.32155 5935.18169,2895.5973 5935.31157,2895.86724 L5935.31157,2895.86724 Z M5932.24,2905.6 L5932.88,2912 L5933.84,2911.36 C5933.62667,2909.65332 5933.30667,2907.84001 5932.88,2905.92 L5932.24,2905.6 Z M5936.72,2912.32 L5936.72,2917.44 L5937.04,2917.44 L5936.72,2912.32 Z M5937.36,2919.04 L5936.72,2923.2 L5937.04,2922.56 L5937.36,2919.36 L5937.36,2919.04 Z M5936.72,2940.48 L5935.76,2939.2 L5934.8,2939.52 L5936.4,2943.04 L5936.72,2942.4 C5936.93333,2943.46667 5937.36,2944.42666 5938,2945.28 C5938,2942.71999 5937.68,2940.05335 5937.04,2937.28 L5936.72,2940.48 Z" id="whoweare"></path>
        </g>
    </g>
</svg>