<svg xmlns="http://www.w3.org/2000/svg" width="496" height="496" viewBox="0 0 496 496">
    <g>
        <g fill-rule="nonzero">
            <path d="M472.793 427.336L440 417.969v-14.29c9.793-8.792 16-21.503 16-35.679v-16c0-26.473-21.527-48-48-48s-48 21.527-48 48v16c0 14.168 6.207 26.879 16 35.68v14.289l-32.793 9.367c-6.062 1.726-11.238 5.25-15.207 9.8-3.969-4.55-9.145-8.074-15.207-9.8L280 417.969v-14.29c9.793-8.792 16-21.503 16-35.679v-16c0-26.473-21.527-48-48-48s-48 21.527-48 48v16c0 14.168 6.207 26.879 16 35.68v14.289l-32.793 9.367c-6.062 1.726-11.238 5.25-15.207 9.8-3.969-4.55-9.145-8.074-15.207-9.8L120 417.969v-14.29c9.793-8.792 16-21.503 16-35.679v-16c0-26.473-21.527-48-48-48s-48 21.527-48 48v16c0 14.168 6.207 26.879 16 35.68v14.289l-32.793 9.367C9.543 431.23 0 443.886 0 458.106V496h496v-37.895c0-14.218-9.543-26.875-23.207-30.77zM376 352c0-17.648 14.352-32 32-32s32 14.352 32 32v16c0 17.648-14.352 32-32 32s-32-14.352-32-32v-16zm32 64c5.617 0 10.984-1.023 16-2.8v8.6c-1.984 3.063-7.496 10.2-16 10.2s-14.016-7.145-16-10.2v-8.6c5.016 1.777 10.383 2.8 16 2.8zm-192-64c0-17.648 14.352-32 32-32s32 14.352 32 32v16c0 17.648-14.352 32-32 32s-32-14.352-32-32v-16zm32 64c5.617 0 10.984-1.023 16-2.8v8.6c-1.984 3.063-7.496 10.2-16 10.2s-14.016-7.145-16-10.2v-8.6c5.016 1.777 10.383 2.8 16 2.8zm-60.39 26.719l32.956-9.414C225.207 439.352 234.23 448 248 448c13.77 0 22.793-8.648 27.434-14.695l32.964 9.414C315.23 444.672 320 451 320 458.105V480H176v-21.895c0-7.105 4.77-13.433 11.61-15.386zM56 352c0-17.648 14.352-32 32-32s32 14.352 32 32v16c0 17.648-14.352 32-32 32s-32-14.352-32-32v-16zm32 64c5.617 0 10.984-1.023 16-2.8v8.6c-1.984 3.063-7.496 10.2-16 10.2s-14.016-7.145-16-10.2v-8.6c5.016 1.777 10.383 2.8 16 2.8zm-72 42.105c0-7.105 4.77-13.433 11.61-15.386l32.956-9.414C65.207 439.352 74.23 448 88 448c13.77 0 22.793-8.648 27.434-14.695l32.964 9.414C155.23 444.672 160 451 160 458.105V480H16v-21.895zM480 480H336v-21.895c0-7.105 4.77-13.433 11.61-15.386l32.956-9.414C385.207 439.352 394.23 448 408 448c13.77 0 22.793-8.648 27.434-14.695l32.964 9.414C475.23 444.672 480 451 480 458.105V480zM360 288L360 80 136 80 136 288 152 288 152 96 344 96 344 288zM200 40L296 40 296 56 200 56zM64 0L80 0 80 16 64 16zM64 272L80 272 80 288 64 288zM0 136L16 136 16 152 0 152zM0 32L16 32 16 48 0 48zM0 240L16 240 16 256 0 256z"/>
            <path d="M48 200h16v56h16V152h24v136h16V40c0-13.23 10.77-24 24-24h208c13.23 0 24 10.77 24 24v248h16V152h24v104h16v-56h16v56h16v-72h-32v-32h32v-16h-32v-32h32V32h-16v56h-16V32h-16v104h-24V40c0-22.055-17.945-40-40-40H144c-22.055 0-40 17.945-40 40v96H80V32H64v56H48V32H32v72h32v32H32v16h32v32H32v72h16v-56zM416 0L432 0 432 16 416 16z"/>
            <path d="M416 272L432 272 432 288 416 288zM480 136L496 136 496 152 480 152zM480 32L496 32 496 48 480 48zM480 240L496 240 496 256 480 256z"/>
        </g>
        <text font-family="Avenir-Heavy, Avenir" font-size="100" font-weight="600">
            <tspan x="218" y="229">¥</tspan>
        </text>
    </g>
</svg>
