<?xml version="1.0" encoding="UTF-8"?>
<svg width="1173px" height="306px" viewBox="0 0 1173 306" version="1.1" xmlns="http://www.w3.org/2000/svg" xmlns:xlink="http://www.w3.org/1999/xlink">
    <!-- Generator: Sketch 54.1 (76490) - https://sketchapp.com -->
    <title>sendusamessage</title>
    <desc>Created with Sketch.</desc>
    <g id="Page-1" stroke="none" stroke-width="1" fill="none" fill-rule="evenodd">
        <g id="Artboard" transform="translate(-4844.000000, -6370.000000)" fill-rule="nonzero" stroke="#F0BA41">
            <path d="M4957.73,6380.05 C4958.61,6379.83 4959.325,6379.995 4959.875,6380.545 C4960.425,6381.095 4961.52499,6381.755 4963.175,6382.525 C4964.82501,6383.295 4966.74999,6384.33999 4968.95,6385.66 C4971.15001,6386.98001 4973.29499,6388.135 4975.385,6389.125 C4977.47501,6390.115 4980.49998,6392.25998 4984.46,6395.56 C4982.25999,6397.54001 4980.94,6399.84999 4980.5,6402.49 L4976.54,6404.47 L4974.23,6407.11 L4955.75,6411.73 C4956.41,6413.71001 4957.015,6415.35999 4957.565,6416.68 C4958.115,6418.00001 4958.99499,6424.43494 4960.205,6435.985 C4961.41501,6447.53506 4961.30501,6458.58995 4959.875,6469.15 C4958.44499,6479.71005 4957.4,6497.74987 4956.74,6523.27 L4964.33,6523.27 L4963.01,6525.91 L4964.33,6526.24 L4962.68,6529.21 L4957.07,6534.49 L4955.75,6554.62 L4960.04,6550.99 L4961.69,6549.01 L4970.6,6545.05 C4971.70001,6543.94999 4972.36,6543.07 4972.58,6542.41 C4972.8,6541.75 4973.45999,6540.87001 4974.56,6539.77 C4975.66001,6538.66999 4976.595,6537.29501 4977.365,6535.645 C4978.135,6533.99499 4980.11498,6531.68501 4983.305,6528.715 C4986.49502,6525.74499 4991.88496,6519.97004 4999.475,6511.39 C5007.06504,6502.80996 5010.97,6497.58501 5011.19,6495.715 C5011.41,6493.84499 5011.96,6491.92001 5012.84,6489.94 C5011.07999,6491.04001 5009.48501,6491.92 5008.055,6492.58 C5006.62499,6493.24 5001.89504,6496.48497 4993.865,6502.315 C4985.83496,6508.14503 4981.21501,6511.115 4980.005,6511.225 C4978.79499,6511.335 4976.87001,6511.39 4974.23,6511.39 C4973.35,6510.06999 4972.525,6508.97 4971.755,6508.09 C4970.985,6507.21 4970.435,6504.13003 4970.105,6498.85 C4969.775,6493.56997 4969.06001,6490.545 4967.96,6489.775 C4966.85999,6489.005 4965.87,6487.85001 4964.99,6486.31 L4962.35,6485.98 L4961.03,6483.67 L4968.62,6472.12 C4971.04001,6470.79999 4972.85499,6469.755 4974.065,6468.985 C4975.27501,6468.215 4977.03499,6467.995 4979.345,6468.325 C4981.65501,6468.655 4983.68999,6467.88501 4985.45,6466.015 C4987.21001,6464.14499 4989.95998,6461.34002 4993.7,6457.6 C4993.04,6456.27999 4992.655,6455.125 4992.545,6454.135 C4992.435,6453.145 4993.31499,6449.68003 4995.185,6443.74 C4997.05501,6437.79997 4998.75999,6431.75003 5000.3,6425.59 C5001.84001,6419.42997 5002.72,6413.82003 5002.94,6408.76 C5003.16,6403.69997 5002.885,6400.51001 5002.115,6399.19 C5001.345,6397.86999 5000.905,6396.935 5000.795,6396.385 C5000.685,6395.835 5000.63,6394.46001 5000.63,6392.26 L5006.24,6387.64 L5015.15,6391.93 C5015.37,6393.69001 5015.425,6395.065 5015.315,6396.055 C5015.205,6397.045 5015.15,6398.58499 5015.15,6400.675 C5015.15,6402.76501 5014.82,6405.40498 5014.16,6408.595 C5013.5,6411.78502 5013.115,6415.30498 5013.005,6419.155 C5012.895,6423.00502 5012.18001,6429.98995 5010.86,6440.11 L5021.42,6429.55 C5026.70003,6422.28996 5030.71499,6417.28501 5033.465,6414.535 C5036.21501,6411.78499 5038.35999,6408.54002 5039.9,6404.8 C5041.44001,6401.05998 5041.99,6398.695 5041.55,6397.705 C5041.11,6396.715 5040.78,6395.34001 5040.56,6393.58 L5033.3,6391.27 L5034.62,6388.3 C5036.38001,6386.97999 5037.755,6385.935 5038.745,6385.165 C5039.735,6384.395 5041.21999,6383.845 5043.2,6383.515 C5045.18001,6383.185 5046.555,6383.405 5047.325,6384.175 C5048.095,6384.945 5049.35999,6385.66 5051.12,6386.32 C5052,6388.96001 5052.715,6390.775 5053.265,6391.765 C5053.815,6392.755 5053.925,6394.73499 5053.595,6397.705 C5053.265,6400.67501 5052.55001,6404.08498 5051.45,6407.935 C5050.34999,6411.78502 5048.92001,6414.86499 5047.16,6417.175 C5045.39999,6419.48501 5042.87002,6423.27997 5039.57,6428.56 L5010.2,6457.6 L5040.89,6442.09 L5046.17,6436.48 C5047.49001,6436.48 5048.535,6436.425 5049.305,6436.315 C5050.075,6436.205 5051.00999,6435.49001 5052.11,6434.17 C5053.21001,6432.84999 5054.58499,6432.19 5056.235,6432.19 C5057.88501,6432.19 5059.69999,6431.97 5061.68,6431.53 C5063.66001,6431.09 5064.925,6431.035 5065.475,6431.365 C5066.025,6431.695 5066.63,6432.19 5067.29,6432.85 L5068.94,6431.86 L5069.27,6429.55 L5071.58,6431.86 L5080.82,6438.13 C5080.38,6440.77001 5080.16,6442.63999 5080.16,6443.74 C5080.16,6444.84001 5079.55501,6445.99499 5078.345,6447.205 C5077.13499,6448.41501 5075.21001,6450.22999 5072.57,6452.65 L5073.56,6457.27 L5067.95,6459.91 C5059.80996,6467.61004 5052.00004,6475.63996 5044.52,6484 C5042.97999,6484.22 5041.66001,6484.11 5040.56,6483.67 L5039.57,6484.99 L5037.92,6485.32 L5037.92,6486.97 L5033.63,6489.94 C5032.08999,6491.70001 5030.825,6493.12999 5029.835,6494.23 C5028.845,6495.33001 5028.13,6497.63998 5027.69,6501.16 C5027.25,6504.68002 5026.26001,6511.16995 5024.72,6520.63 C5031.32003,6517.98999 5037.47997,6514.58002 5043.2,6510.4 C5040.99999,6504.01997 5039.13001,6497.75003 5037.59,6491.59 C5038.03,6491.59 5038.415,6491.48 5038.745,6491.26 C5039.075,6491.04 5039.405,6491.205 5039.735,6491.755 C5040.065,6492.305 5040.67,6493.12999 5041.55,6494.23 L5041.88,6491.92 L5044.85,6495.22 L5046.83,6494.56 C5045.95,6492.79999 5045.73,6490.82001 5046.17,6488.62 L5048.81,6488.62 L5049.47,6486.97 C5052.11001,6488.73001 5053.925,6489.995 5054.915,6490.765 C5055.905,6491.535 5057.00499,6491.865 5058.215,6491.755 C5059.42501,6491.645 5060.74499,6491.92 5062.175,6492.58 C5063.60501,6493.24 5066.02498,6493.68 5069.435,6493.9 C5072.84502,6494.12 5076.47498,6494.505 5080.325,6495.055 C5084.17502,6495.605 5089.61996,6496.64999 5096.66,6498.19 L5100.95,6503.47 C5099.84999,6504.79001 5099.3,6506.10999 5099.3,6507.43 L5094.02,6510.73 L5094.02,6512.71 C5094.02,6513.37 5093.47001,6514.14 5092.37,6515.02 C5091.26999,6515.9 5089.51001,6517.76999 5087.09,6520.63 C5082.46998,6521.51 5076.91503,6523.15999 5070.425,6525.58 C5063.93497,6528.00001 5060.305,6529.265 5059.535,6529.375 C5058.765,6529.485 5057.72001,6529.76 5056.4,6530.2 L5055.74,6532.51 L5051.12,6534.82 L5052.77,6532.51 L5049.47,6534.49 L5047.49,6536.8 L5042.21,6539.77 L5040.56,6538.78 L5039.57,6541.42 C5037.36999,6542.74001 5035.28001,6543.84 5033.3,6544.72 C5050.68009,6563.42009 5063.16496,6575.51997 5070.755,6581.02 C5078.34504,6586.52003 5085.21997,6589.49 5091.38,6589.93 C5097.54003,6590.37 5104.13996,6590.315 5111.18,6589.765 C5118.22004,6589.215 5125.53496,6587.78501 5133.125,6585.475 C5140.71504,6583.16499 5144.95,6582.065 5145.83,6582.175 C5146.71,6582.285 5147.37,6582.175 5147.81,6581.845 C5148.25,6581.515 5148.69,6581.35 5149.13,6581.35 L5149.13,6582.01 L5137.91,6586.3 L5137.25,6587.62 L5151.11,6585.31 C5147.36998,6586.85001 5144.56501,6587.84 5142.695,6588.28 C5140.82499,6588.72 5139.56,6589.16 5138.9,6589.6 L5135.93,6591.58 L5149.79,6588.94 L5140.22,6593.23 L5143.19,6593.23 L5130.98,6598.84 L5131.97,6599.83 C5136.59002,6597.84999 5141.64997,6596.42 5147.15,6595.54 L5146.49,6595.87 L5146.49,6596.86 L5152.43,6595.21 L5153.42,6596.53 C5145.49996,6600.49002 5138.68003,6605.54997 5132.96,6611.71 L5135.6,6611.71 L5133.62,6616 L5135.27,6618.64 L5138.57,6618.64 C5135.92999,6621.28001 5133.51001,6624.24998 5131.31,6627.55 L5133.29,6630.85 C5132.41,6632.61001 5131.585,6634.69999 5130.815,6637.12 C5130.045,6639.54001 5129.33,6641.29999 5128.67,6642.4 C5128.01,6643.50001 5126.91001,6645.14999 5125.37,6647.35 L5127.35,6651.31 C5122.94998,6652.19 5119.76001,6652.795 5117.78,6653.125 C5115.79999,6653.455 5113.71001,6654.27999 5111.51,6655.6 C5109.30999,6656.92001 5106.01002,6657.58 5101.61,6657.58 C5097.20998,6657.58 5094.13001,6656.75501 5092.37,6655.105 C5090.60999,6653.45499 5089.07001,6652.3 5087.75,6651.64 C5086.42999,6650.98 5084.56001,6649.99001 5082.14,6648.67 L5071.58,6636.13 L5069.6,6635.47 L5040.89,6607.09 L5016.14,6567.16 L5013.5,6572.77 L5012.84,6571.45 L5013.5,6568.81 L5015.81,6567.16 L5014.16,6564.19 C5012.83999,6565.95001 5012.4,6567.70999 5012.84,6569.47 L5010.86,6571.12 L5012.18,6572.77 L5009.54,6575.08 C5007.77999,6580.80003 5005.36002,6586.07998 5002.28,6590.92 L4999.64,6591.58 L5000.96,6593.89 C4998.97999,6595.87001 4996.89001,6597.73999 4994.69,6599.5 L4994.36,6603.46 L4991.06,6604.12 L4992.05,6605.77 L4988.75,6606.1 L4990.73,6606.43 C4989.40999,6608.63001 4988.64,6610.60999 4988.42,6612.37 L4986.44,6611.38 L4986.44,6612.7 L4984.46,6614.35 L4983.8,6612.7 L4978.52,6619.3 L4984.46,6616 L4982.15,6619.3 L4980.5,6619.3 L4980.5,6621.94 L4979.18,6620.62 C4979.18,6621.06 4979.235,6621.445 4979.345,6621.775 C4979.455,6622.105 4979.29,6622.38 4978.85,6622.6 C4978.41,6622.82 4977.75,6623.47999 4976.87,6624.58 L4973.9,6625.9 L4965.98,6635.8 L4959.05,6636.79 L4959.38,6634.81 L4961.69,6634.15 L4959.38,6632.5 C4959.16,6631.17999 4959.49,6630.19 4960.37,6629.53 C4957.94999,6628.87 4955.97001,6629.52999 4954.43,6631.51 C4953.99,6633.27001 4953.77,6634.69999 4953.77,6635.8 C4953.77,6636.90001 4953.44,6637.78 4952.78,6638.44 C4952.12,6639.1 4951.02001,6640.30999 4949.48,6642.07 L4938.92,6639.43 L4939.58,6638.44 L4925.72,6627.88 L4931.66,6625.57 L4933.64,6622.93 L4931.66,6619.63 L4925.06,6613.03 L4921.1,6607.75 L4920.77,6609.73 L4920.11,6607.75 L4917.14,6606.1 C4915.37999,6604.77999 4914.72,6602.91001 4915.16,6600.49 L4913.18,6600.49 L4912.19,6598.84 C4910.64999,6599.28 4909.66,6598.95001 4909.22,6597.85 L4908.89,6597.85 L4909.22,6595.87 L4907.24,6595.87 L4905.92,6592.9 L4916.48,6599.5 L4914.83,6597.19 L4909.55,6593.56 L4909.22,6591.58 L4900.31,6583.66 L4900.97,6582.34 L4898.33,6578.05 C4876.98989,6589.71006 4863.79003,6597.73998 4858.73,6602.14 C4853.66997,6606.54002 4850.59001,6608.74 4849.49,6608.74 L4845.86,6608.74 L4845.2,6593.23 L4873.25,6571.12 L4885.46,6556.27 L4882.49,6552.64 L4877.87,6550.66 C4878.31,6549.33999 4878.695,6548.35 4879.025,6547.69 C4879.355,6547.03 4879.465,6546.37 4879.355,6545.71 C4879.245,6545.05 4879.73999,6544.06001 4880.84,6542.74 C4881.94001,6541.41999 4883.03999,6538.39502 4884.14,6533.665 C4885.24001,6528.93498 4885.405,6525.74501 4884.635,6524.095 C4883.865,6522.44499 4883.15,6520.41001 4882.49,6517.99 C4884.03001,6515.34999 4885.24,6513.42501 4886.12,6512.215 C4887,6511.00499 4887.715,6508.36502 4888.265,6504.295 C4888.815,6500.22498 4890.29999,6493.46005 4892.72,6484 L4887.44,6481.69 L4889.75,6478.72 L4887.77,6476.74 L4895.03,6470.47 L4904.27,6427.9 C4900.74998,6428.12 4898.11001,6428.34 4896.35,6428.56 C4894.58999,6428.78 4892.50001,6428.67 4890.08,6428.23 C4887.65999,6427.79 4885.68001,6427.02001 4884.14,6425.92 C4882.59999,6424.81999 4881.22501,6423.72001 4880.015,6422.62 L4874.57,6417.67 L4866.65,6401.83 L4869.29,6397.21 C4871.49001,6397.21 4873.24999,6397.155 4874.57,6397.045 C4875.89001,6396.935 4877.20999,6397.81499 4878.53,6399.685 C4879.85001,6401.55501 4882.21498,6402.49 4885.625,6402.49 C4889.03502,6402.49 4894.20497,6401.11501 4901.135,6398.365 C4908.06503,6395.61499 4916.53495,6393.03001 4926.545,6390.61 C4936.55505,6388.18999 4942.93499,6385.93501 4945.685,6383.845 C4948.43501,6381.75499 4950.57999,6380.765 4952.12,6380.875 C4953.66001,6380.985 4954.76,6380.875 4955.42,6380.545 C4956.08,6380.215 4956.85,6380.05 4957.73,6380.05 Z M4928.36,6419.98 C4926.59999,6420.42 4925.28,6420.64 4924.4,6420.64 C4923.52,6420.64 4922.585,6421.08 4921.595,6421.96 L4917.14,6425.92 C4916.7,6427.90001 4916.205,6429.43999 4915.655,6430.54 C4915.105,6431.64001 4914.665,6433.94998 4914.335,6437.47 C4914.005,6440.99002 4913.18001,6447.47995 4911.86,6456.94 C4916.70002,6454.07999 4920.49499,6451.88001 4923.245,6450.34 C4925.99501,6448.79999 4929.67998,6447.26001 4934.3,6445.72 C4938.92002,6444.17999 4941.725,6443.685 4942.715,6444.235 C4943.705,6444.785 4944.96999,6445.39 4946.51,6446.05 C4946.51,6441.20998 4946.62,6437.85501 4946.84,6435.985 C4947.06,6434.11499 4946.785,6432.46501 4946.015,6431.035 C4945.245,6429.60499 4944.42,6427.24002 4943.54,6423.94 C4938.25997,6423.94 4933.31002,6422.73001 4928.69,6420.31 L4928.36,6419.98 Z M5043.53,6455.29 C5035.82996,6459.03002 5029.01003,6463.75997 5023.07,6469.48 L5029.67,6465.85 L5025.38,6469.15 L5026.04,6470.47 C5028.02001,6468.48999 5030.54998,6467.72 5033.63,6468.16 C5037.37002,6464.41998 5040.88998,6460.24002 5044.19,6455.62 L5043.53,6455.29 Z M4936.94,6465.19 C4933.85998,6466.29001 4931.44001,6467.115 4929.68,6467.665 C4927.91999,6468.215 4925.72001,6469.36999 4923.08,6471.13 C4920.43999,6472.89001 4915.82003,6475.74998 4909.22,6479.71 L4908.23,6497.53 L4915.82,6489.94 L4936.94,6465.19 Z M4918.46,6472.78 C4914.93998,6473.88001 4911.97001,6475.63999 4909.55,6478.06 L4918.13,6473.11 L4918.46,6472.78 Z M4944.86,6474.43 L4910.87,6509.08 C4918.79004,6505.11998 4925.66497,6501.82001 4931.495,6499.18 C4937.32503,6496.53999 4940.735,6494.89 4941.725,6494.23 C4942.715,6493.57 4943.97999,6493.24 4945.52,6493.24 C4944.86,6487.07997 4944.97,6480.81003 4945.85,6474.43 L4944.86,6474.43 Z M4944.2,6505.78 L4942.88,6508.75 C4939.35998,6512.27002 4933.64004,6517.10997 4925.72,6523.27 C4917.79996,6529.43003 4910.54003,6535.80997 4903.94,6542.41 L4902.95,6549.01 C4916.37007,6541.30996 4925.77497,6536.08501 4931.165,6533.335 C4936.55503,6530.58499 4939.90999,6529.1 4941.23,6528.88 C4941.67,6527.55999 4942.275,6526.625 4943.045,6526.075 C4943.815,6525.525 4944.145,6523.82001 4944.035,6520.96 C4943.925,6518.09999 4944.09,6513.15004 4944.53,6506.11 L4944.2,6505.78 Z M5004.92,6516.67 L5003.27,6518.65 L5001.62,6517.99 L5001.62,6519.64 L4998.32,6520.63 L4992.05,6526.9 L4994.36,6528.55 L4994.36,6528.88 L4987.43,6532.51 L4989.08,6533.5 L4986.44,6536.8 L4983.14,6537.79 C4981.59999,6539.99001 4980.06001,6542.29999 4978.52,6544.72 L4976.21,6546.37 L4998.98,6536.14 L4998.98,6530.53 L5001.95,6527.89 C5002.61,6524.14998 5003.70999,6520.52002 5005.25,6517 L5004.92,6516.67 Z M4942.88,6551.65 C4928.35993,6560.67005 4913.95007,6569.24996 4899.65,6577.39 L4904.93,6583.66 C4910.87003,6588.28002 4915.32499,6591.68999 4918.295,6593.89 C4921.26501,6596.09001 4924.39998,6597.63 4927.7,6598.51 C4931.00002,6599.39 4933.19999,6599.775 4934.3,6599.665 C4935.40001,6599.555 4936.93999,6599.28 4938.92,6598.84 C4939.36,6596.85999 4939.91,6595.04501 4940.57,6593.395 C4941.23,6591.74499 4942,6577.83013 4942.88,6551.65 Z M4988.42,6571.45 C4985.99999,6573.43001 4983.58001,6574.75 4981.16,6575.41 L4976.54,6580.36 C4973.67999,6582.34001 4971.59001,6583.77 4970.27,6584.65 C4968.94999,6585.53 4967.63001,6586.19 4966.31,6586.63 C4964.98999,6587.07 4962.90001,6587.62 4960.04,6588.28 L4957.07,6584.65 C4956.85,6589.05002 4956.685,6592.23999 4956.575,6594.22 C4956.465,6596.20001 4957.12499,6598.06999 4958.555,6599.83 C4959.98501,6601.59001 4960.755,6603.62499 4960.865,6605.935 C4960.975,6608.24501 4960.42501,6610.00499 4959.215,6611.215 C4958.00499,6612.42501 4957.51,6613.525 4957.73,6614.515 C4957.95,6615.505 4958.39,6617.20999 4959.05,6619.63 L4963.01,6621.94 L4966.97,6619.3 C4981.27007,6589.37985 4988.42,6574.09 4988.42,6573.43 C4988.42,6572.77 4988.42,6572.11 4988.42,6571.45 Z M4910.21,6590.92 C4914.83002,6594.44002 4918.12999,6596.96999 4920.11,6598.51 C4922.09001,6600.05001 4923.41,6600.93 4924.07,6601.15 C4924.73,6601.37 4925.5,6601.59 4926.38,6601.81 L4907.57,6587.62 L4910.21,6590.92 Z M5293.67,6371.14 C5293.89,6371.14 5294.275,6371.085 5294.825,6370.975 C5295.375,6370.865 5296.63999,6371.79999 5298.62,6373.78 C5300.60001,6375.76001 5304.00998,6379.05998 5308.85,6383.68 C5310.17001,6385.44001 5311.43499,6386.76 5312.645,6387.64 C5313.85501,6388.52 5315.28499,6390.71998 5316.935,6394.24 C5318.58501,6397.76002 5319.3,6400.12499 5319.08,6401.335 C5318.86,6402.54501 5318.75,6404.24999 5318.75,6406.45 C5317.42999,6407.77001 5316.16501,6408.815 5314.955,6409.585 C5313.74499,6410.355 5311.43502,6411.235 5308.025,6412.225 C5304.61498,6413.215 5302.14001,6413.325 5300.6,6412.555 C5299.05999,6411.785 5297.57501,6411.94999 5296.145,6413.05 C5294.71499,6414.15001 5292.46002,6415.35999 5289.38,6416.68 C5290.70001,6419.76002 5291.635,6422.06999 5292.185,6423.61 C5292.735,6425.15001 5293.175,6427.23999 5293.505,6429.88 C5293.835,6432.52001 5293.56,6435.37998 5292.68,6438.46 C5291.8,6441.54002 5290.59001,6447.03996 5289.05,6454.96 L5293.67,6453.31 L5294.33,6447.37 L5296.64,6447.7 L5300.93,6444.07 L5301.26,6445.39 L5302.25,6444.07 L5307.53,6442.09 L5309.51,6444.73 L5317.1,6448.03 C5318.20001,6449.57001 5318.915,6450.78 5319.245,6451.66 C5319.575,6452.54 5320.235,6453.74999 5321.225,6455.29 C5322.215,6456.83001 5323.47999,6458.47999 5325.02,6460.24 L5323.7,6463.54 L5314.13,6471.79 L5312.81,6470.8 C5287.72987,6494.12012 5273.81501,6506.87999 5271.065,6509.08 C5268.31499,6511.28001 5266.28001,6512.6 5264.96,6513.04 C5263.63999,6513.48 5261.00002,6514.57999 5257.04,6516.34 L5256.05,6515.02 C5254.06999,6516.34001 5251.76001,6517.22 5249.12,6517.66 L5248.46,6519.97 L5240.21,6524.59 L5238.56,6526.57 C5271.78017,6511.82993 5289.21499,6503.91001 5290.865,6502.81 C5292.51501,6501.70999 5294.10999,6500.28001 5295.65,6498.52 L5296.31,6501.16 L5299.94,6503.14 C5300.16,6506.44002 5300.05,6509.51999 5299.61,6512.38 L5302.58,6513.37 C5303.24,6515.13001 5303.9,6516.77999 5304.56,6518.32 L5302.91,6520.96 L5289.71,6527.23 C5290.37,6528.55001 5290.865,6529.705 5291.195,6530.695 C5291.525,6531.685 5292.34999,6535.20497 5293.67,6541.255 C5294.99001,6547.30503 5296.09,6551.26499 5296.97,6553.135 C5297.85,6555.00501 5298.29,6556.54499 5298.29,6557.755 C5298.29,6558.96501 5298.51,6560.39499 5298.95,6562.045 C5299.39,6563.69501 5299.61,6565.12499 5299.61,6566.335 L5299.61,6572.77 L5300.93,6571.45 L5300.93,6576.73 C5300.93,6577.61 5301.04,6578.65499 5301.26,6579.865 C5301.48,6581.07501 5301.59,6582.83499 5301.59,6585.145 C5301.59,6587.45501 5302.13999,6589.81999 5303.24,6592.24 C5304.34001,6594.66001 5305,6597.13499 5305.22,6599.665 C5305.44,6602.19501 5305.495,6603.955 5305.385,6604.945 C5305.275,6605.935 5304.34001,6607.08999 5302.58,6608.41 C5300.81999,6609.73001 5299.94,6611.65499 5299.94,6614.185 C5299.94,6616.71501 5300.38,6619.13499 5301.26,6621.445 C5302.14,6623.75501 5302.525,6625.295 5302.415,6626.065 C5302.305,6626.835 5302.03,6627.76999 5301.59,6628.87 L5299.28,6626.56 C5299.06,6630.74002 5298.95,6634.69998 5298.95,6638.44 C5297.18999,6638.22 5295.48501,6638.275 5293.835,6638.605 C5292.18499,6638.935 5290.975,6639.375 5290.205,6639.925 C5289.435,6640.475 5288.06001,6641.19 5286.08,6642.07 C5283.87999,6640.30999 5282.34,6639.045 5281.46,6638.275 C5280.58,6637.505 5279.755,6637.01 5278.985,6636.79 C5278.215,6636.57 5277.5,6636.24 5276.84,6635.8 L5270.24,6628.21 C5270.68,6626.88999 5270.68,6625.955 5270.24,6625.405 C5269.8,6624.855 5269.14,6623.37001 5268.26,6620.95 C5267.38,6618.52999 5266.72,6615.78002 5266.28,6612.7 L5266.94,6613.36 L5270.57,6615.01 C5269.69,6613.68999 5269.58,6612.15001 5270.24,6610.39 C5268.03999,6607.96999 5266.5,6605.00002 5265.62,6601.48 C5262.53998,6598.17998 5260.23001,6595.76001 5258.69,6594.22 C5257.14999,6592.67999 5255.44501,6591.36001 5253.575,6590.26 C5251.70499,6589.15999 5248.68002,6587.07002 5244.5,6583.99 L5242.52,6581.68 L5239.88,6580.36 L5226.35,6589.27 C5224.80999,6591.69001 5223.10501,6594.10999 5221.235,6596.53 C5219.36499,6598.95001 5218.43,6600.70999 5218.43,6601.81 L5221.07,6600.82 L5220.08,6602.14 L5222.06,6602.14 L5220.41,6606.43 L5222.39,6607.75 L5219.75,6610.39 L5222.39,6612.37 L5217.11,6616.33 L5218.43,6617.32 L5217.44,6619.96 L5214.47,6622.27 C5213.14999,6624.47001 5212.215,6626.11999 5211.665,6627.22 C5211.115,6628.32001 5210.18001,6629.47499 5208.86,6630.685 C5207.53999,6631.89501 5206.935,6632.94 5207.045,6633.82 C5207.155,6634.7 5206.99,6635.47 5206.55,6636.13 C5206.11,6636.79 5205.45,6638.43999 5204.57,6641.08 L5201.93,6642.4 L5196.98,6639.76 L5194.01,6641.245 C5193.35,6641.575 5192.47001,6641.795 5191.37,6641.905 C5190.26999,6642.015 5189.06001,6641.685 5187.74,6640.915 C5186.41999,6640.145 5184.55001,6639.10001 5182.13,6637.78 C5180.58999,6633.59998 5179.435,6630.85001 5178.665,6629.53 C5177.895,6628.20999 5177.84,6626.83501 5178.5,6625.405 C5179.16,6623.97499 5179.49,6622.32501 5179.49,6620.455 C5179.49,6618.58499 5178.77501,6616.77001 5177.345,6615.01 C5175.91499,6613.24999 5175.2,6612.205 5175.2,6611.875 L5175.2,6610.39 L5177.51,6609.4 L5176.19,6608.08 C5175.53,6607.2 5175.74999,6606.10001 5176.85,6604.78 L5173.55,6606.1 L5173.55,6605.44 L5176.19,6603.79 L5174.54,6603.79 L5175.2,6601.15 L5175.86,6602.47 L5177.51,6602.8 L5176.52,6599.83 L5177.51,6598.51 L5175.86,6593.89 L5178.5,6592.9 L5178.83,6594.22 L5179.82,6594.22 L5178.83,6588.61 L5181.14,6591.91 L5185.1,6590.26 L5187.08,6585.97 L5191.04,6583.99 L5194.34,6580.36 L5201.27,6576.4 L5208.53,6567.82 L5205.56,6566.83 L5206.55,6558.25 L5203.91,6556.93 C5204.13,6555.60999 5204.405,6553.35502 5204.735,6550.165 C5205.065,6546.97498 5204.79,6544.39001 5203.91,6542.41 C5204.13,6541.53 5204.46,6541.035 5204.9,6540.925 C5205.34,6540.815 5205.56,6540.485 5205.56,6539.935 C5205.56,6539.385 5205.67,6538.67 5205.89,6537.79 L5211.17,6534.49 L5213.48,6530.86 C5214.36,6529.98 5215.13,6529.32 5215.79,6528.88 C5216.45,6528.44 5217.65999,6527.945 5219.42,6527.395 C5221.18001,6526.845 5222.5,6526.515 5223.38,6526.405 C5224.26,6526.295 5225.24999,6525.91 5226.35,6525.25 L5226.68,6523.93 C5234.60004,6517.10997 5240.97998,6512.05002 5245.82,6508.75 C5250.66002,6505.44998 5261.32992,6495.33008 5277.83,6478.39 L5292.02,6459.91 C5288.27998,6462.11001 5283.66003,6464.74998 5278.16,6467.83 C5272.65997,6470.91002 5269.415,6472.67 5268.425,6473.11 C5267.435,6473.55 5266.17001,6474.21 5264.63,6475.09 L5264.3,6477.07 C5262.97999,6477.29 5261.66001,6477.4 5260.34,6477.4 L5261.33,6479.38 L5258.69,6481.36 L5260.34,6479.71 L5259.35,6477.4 C5257.14999,6480.48002 5255.06001,6483.22999 5253.08,6485.65 C5256.16002,6483.22999 5259.78998,6481.69 5263.97,6481.03 L5257.7,6485.32 L5259.68,6486.64 L5258.36,6487.96 C5254.83998,6491.04002 5251.98001,6494.55998 5249.78,6498.52 L5250.77,6497.53 L5251.76,6497.53 C5249.77999,6499.29001 5245.76503,6501.98498 5239.715,6505.615 C5233.66497,6509.24502 5229.32001,6511.71999 5226.68,6513.04 L5224.7,6515.68 L5223.05,6515.68 L5221.07,6518.98 L5219.42,6518.98 L5217.44,6521.29 C5215.01999,6522.83001 5213.15001,6523.875 5211.83,6524.425 C5210.50999,6524.975 5209.355,6525.25 5208.365,6525.25 L5204.24,6525.25 C5202.69999,6523.48999 5201.655,6522.335 5201.105,6521.785 C5200.555,6521.235 5199.95,6520.24501 5199.29,6518.815 C5198.63,6517.38499 5198.74,6515.07502 5199.62,6511.885 C5200.5,6508.69498 5200.775,6506.11001 5200.445,6504.13 C5200.115,6502.14999 5199.29001,6500.61001 5197.97,6499.51 C5196.64999,6498.40999 5195.88,6497.31001 5195.66,6496.21 L5198.63,6493.9 L5199.62,6489.94 L5201.6,6488.29 L5204.57,6484 C5206.77001,6483.78 5208.2,6483.45 5208.86,6483.01 C5209.52,6482.57 5210.015,6482.57 5210.345,6483.01 C5210.675,6483.45 5211.17,6483.78 5211.83,6484 C5213.15001,6482.89999 5214.195,6482.13 5214.965,6481.69 C5215.735,6481.25 5217.82498,6481.36 5221.235,6482.02 C5224.64502,6482.68 5237.89988,6473.0001 5261,6452.98 C5266.72003,6446.81997 5270.89999,6442.47501 5273.54,6439.945 C5276.18001,6437.41499 5278.48999,6434.61002 5280.47,6431.53 C5282.45001,6428.44998 5283.22,6426.03001 5282.78,6424.27 C5282.34,6422.50999 5281.79,6420.20001 5281.13,6417.34 C5279.58999,6417.78 5278.38,6417.45001 5277.5,6416.35 L5277.83,6415.03 L5275.85,6413.71 C5271.22998,6415.47001 5268.09501,6416.68 5266.445,6417.34 C5264.79499,6418 5262.43002,6418.715 5259.35,6419.485 C5256.26998,6420.255 5249.28505,6423.77497 5238.395,6430.045 C5227.50495,6436.31503 5219.03503,6440.43999 5212.985,6442.42 C5206.93497,6444.40001 5203.525,6445.335 5202.755,6445.225 C5201.985,6445.115 5201.16,6444.95 5200.28,6444.73 L5201.6,6439.45 C5206.66003,6437.02999 5210.94998,6435.05001 5214.47,6433.51 C5217.99002,6431.96999 5224.64495,6428.50503 5234.435,6423.115 C5244.22505,6417.72497 5259.2399,6407.11008 5279.48,6391.27 L5289.38,6380.71 L5287.07,6373.45 L5293.67,6371.14 Z M5306.54,6481.69 C5310.28002,6481.91 5313.46999,6482.02 5316.11,6482.02 C5318.75001,6482.02 5323.80996,6483.17499 5331.29,6485.485 C5338.77004,6487.79501 5344.48998,6489.93999 5348.45,6491.92 C5352.41002,6493.90001 5355.21499,6495.49499 5356.865,6496.705 C5358.51501,6497.91501 5360.87998,6499.61999 5363.96,6501.82 L5362.64,6504.13 L5367.92,6509.08 L5368.91,6512.38 L5365.94,6512.38 L5366.6,6515.68 C5365.27999,6516.12 5364.07001,6516.67 5362.97,6517.33 L5358.68,6516.67 C5358.46,6516.89 5356.37002,6517.055 5352.41,6517.165 C5348.44998,6517.275 5341.96005,6514.63503 5332.94,6509.245 C5323.91995,6503.85497 5318.64001,6500.775 5317.1,6500.005 L5312.15,6497.53 L5310.83,6495.55 L5300.27,6488.95 L5299.61,6485.65 C5301.59001,6484.32999 5303.89999,6483.01001 5306.54,6481.69 Z M5273.21,6534.49 C5271.66999,6534.71 5270.24001,6535.205 5268.92,6535.975 C5267.59999,6536.745 5266.00501,6537.35 5264.135,6537.79 C5262.26499,6538.23 5260.67001,6538.835 5259.35,6539.605 C5258.02999,6540.375 5256.82001,6540.76 5255.72,6540.76 L5253.74,6543.07 C5251.09999,6543.95 5248.68001,6544.83 5246.48,6545.71 L5248.79,6543.73 L5244.17,6546.04 L5245.49,6546.7 L5242.85,6548.02 L5243.84,6546.37 L5240.21,6547.69 L5237.24,6550.99 L5237.24,6549.34 C5233.49998,6551.32001 5230.75001,6552.75 5228.99,6553.63 C5227.22999,6554.51 5225.74501,6555.39 5224.535,6556.27 C5223.32499,6557.15 5221.73001,6558.68999 5219.75,6560.89 L5222.06,6561.55 L5224.37,6566.17 L5220.08,6565.18 L5220.08,6570.625 C5220.08,6571.83501 5219.36501,6573.31999 5217.935,6575.08 C5216.50499,6576.84001 5214.25002,6580.35997 5211.17,6585.64 C5215.57002,6583.65999 5218.59499,6582.505 5220.245,6582.175 C5221.89501,6581.845 5223.32499,6581.46 5224.535,6581.02 C5225.74501,6580.58 5226.845,6580.36 5227.835,6580.36 C5228.825,6580.36 5230.08999,6580.14 5231.63,6579.7 L5232.29,6577.72 L5232.29,6578.71 L5235.92,6577.72 L5233.28,6576.4 C5234.16,6576.4 5235.47999,6576.18 5237.24,6575.74 C5239.00001,6575.3 5241.08999,6575.025 5243.51,6574.915 C5245.93001,6574.805 5247.58,6574.97 5248.46,6575.41 L5244.5,6577.72 C5255.06005,6584.32003 5266.16994,6589.81998 5277.83,6594.22 C5277.83,6591.79999 5278.105,6588.55502 5278.655,6584.485 C5279.205,6580.41498 5279.315,6575.24503 5278.985,6568.975 C5278.655,6562.70497 5277.94001,6557.48002 5276.84,6553.3 C5275.73999,6549.11998 5274.53001,6542.85004 5273.21,6534.49 Z M5320.73,6543.73 C5322.71001,6544.17 5324.41499,6544.5 5325.845,6544.72 C5327.27501,6544.94 5331.34497,6546.42499 5338.055,6549.175 C5344.76503,6551.92501 5350.97997,6555.27998 5356.7,6559.24 C5362.42003,6563.20002 5367.69998,6566.27999 5372.54,6568.48 C5377.38002,6570.68001 5380.295,6572.055 5381.285,6572.605 C5382.275,6573.155 5382.99,6573.76 5383.43,6574.42 C5383.87,6575.08 5384.96999,6576.17999 5386.73,6577.72 C5388.71001,6580.14001 5390.195,6581.735 5391.185,6582.505 C5392.175,6583.275 5392.67,6584.1 5392.67,6584.98 C5392.67,6585.86 5393,6586.575 5393.66,6587.125 C5394.32,6587.675 5395.035,6588.99499 5395.805,6591.085 C5396.575,6593.17501 5398.49998,6595.64999 5401.58,6598.51 C5404.66002,6601.37001 5409.82996,6606.86996 5417.09,6615.01 C5416.65,6615.89 5416.375,6617.04499 5416.265,6618.475 C5416.155,6619.90501 5415.88,6620.95 5415.44,6621.61 C5415,6622.27 5414.45,6623.25999 5413.79,6624.58 C5411.36999,6626.78001 5409.39001,6628.53999 5407.85,6629.86 C5406.30999,6631.18001 5403.89002,6632.88499 5400.59,6634.975 C5397.28998,6637.06501 5394.59501,6637.725 5392.505,6636.955 C5390.41499,6636.185 5387.61002,6635.36 5384.09,6634.48 L5381.12,6630.52 L5378.81,6631.51 L5372.87,6628.87 C5368.68998,6626.00999 5365.61001,6622.16002 5363.63,6617.32 L5362.31,6616 L5357.69,6599.5 C5356.58999,6599.06 5355.43501,6598.345 5354.225,6597.355 C5353.01499,6596.365 5351.42001,6595.815 5349.44,6595.705 C5347.45999,6595.595 5345.26001,6595.595 5342.84,6595.705 C5340.41999,6595.815 5338.88,6595.815 5338.22,6595.705 C5337.56,6595.595 5336.9,6595.21 5336.24,6594.55 C5339.98002,6595.43 5343.38998,6594.88001 5346.47,6592.9 L5327,6592.9 C5331.18002,6591.57999 5334.25999,6590.7 5336.24,6590.26 C5338.22001,6589.82 5339.375,6589.49 5339.705,6589.27 L5341.19,6588.28 L5331.95,6590.26 C5335.47002,6588.93999 5338.87998,6587.18001 5342.18,6584.98 L5337.56,6586.3 L5341.52,6583.66 C5340.19999,6583.66 5339.1,6583.605 5338.22,6583.495 C5337.34,6583.385 5336.07501,6583.605 5334.425,6584.155 C5332.77499,6584.705 5329.97002,6585.52999 5326.01,6586.63 C5331.73003,6584.42999 5337.22997,6581.46002 5342.51,6577.72 L5337.56,6570.46 C5332.05997,6564.73997 5328.21001,6560.83501 5326.01,6558.745 C5323.80999,6556.65499 5321.83001,6555.17 5320.07,6554.29 L5312.15,6550.33 C5313.03,6549.67 5314.34999,6548.9 5316.11,6548.02 C5317.87001,6547.14 5319.29999,6546.59 5320.4,6546.37 C5321.50001,6546.15 5322.545,6546.205 5323.535,6546.535 C5324.525,6546.865 5326.00999,6547.03 5327.99,6547.03 L5320.73,6543.73 Z M5577.14,6378.4 C5578.90001,6381.48002 5580.275,6383.78999 5581.265,6385.33 C5582.255,6386.87001 5583.19,6388.79499 5584.07,6391.105 C5584.95,6393.41501 5586.48999,6397.75997 5588.69,6404.14 L5590.34,6402.16 L5584.73,6387.64 L5585.39,6387.64 C5591.55003,6404.14008 5597.04998,6420.96991 5601.89,6438.13 L5603.87,6439.12 L5605.85,6436.15 L5608.49,6438.79 L5611.13,6436.81 L5611.13,6434.17 L5613.11,6435.82 L5614.43,6431.86 L5615.42,6433.51 L5617.07,6430.87 L5621.03,6435.49 L5622.68,6434.5 L5624,6436.48 L5627.63,6436.81 L5628.29,6435.49 L5631.26,6439.45 L5634.23,6438.46 L5635.55,6439.78 C5636.21,6439.56 5636.76,6439.67 5637.2,6440.11 C5637.64,6440.55 5639.45498,6441.37499 5642.645,6442.585 C5645.83502,6443.79501 5649.73998,6445.27999 5654.36,6447.04 L5660.63,6455.29 L5657.66,6462.22 C5656.55999,6462.22 5655.845,6462.11 5655.515,6461.89 C5655.185,6461.67 5654.47001,6461.78 5653.37,6462.22 C5652.26999,6462.66 5651.06001,6462.935 5649.74,6463.045 C5648.41999,6463.155 5647.43,6463.595 5646.77,6464.365 C5646.11,6465.135 5644.90001,6466.28999 5643.14,6467.83 C5637.19997,6467.17 5632.74501,6466.62 5629.775,6466.18 C5626.80499,6465.74 5624.11001,6465.685 5621.69,6466.015 C5619.26999,6466.345 5615.86002,6466.62 5611.46,6466.84 C5611.9,6469.48001 5612.285,6471.56999 5612.615,6473.11 C5612.945,6474.65001 5613.605,6476.90499 5614.595,6479.875 C5615.585,6482.84501 5617.28999,6488.72996 5619.71,6497.53 L5623.34,6492.25 C5624.66001,6492.03 5625.43,6491.755 5625.65,6491.425 C5625.87,6491.095 5626.255,6491.095 5626.805,6491.425 C5627.355,6491.755 5627.96,6492.03 5628.62,6492.25 L5631.26,6489.94 L5632.58,6491.92 L5636.87,6495.22 C5637.53,6497.20001 5638.025,6498.84999 5638.355,6500.17 C5638.685,6501.49001 5638.465,6503.90998 5637.695,6507.43 C5636.925,6510.95002 5635.60501,6513.86499 5633.735,6516.175 C5631.86499,6518.48501 5630.985,6520.08 5631.095,6520.96 C5631.205,6521.84 5631.04,6522.61 5630.6,6523.27 C5630.16,6523.93 5630.38,6525.24999 5631.26,6527.23 C5632.14,6529.21001 5637.85995,6541.19989 5648.42,6563.2 L5649.41,6558.91 L5649.74,6565.84 C5649.96,6554.61994 5650.72999,6543.51005 5652.05,6532.51 L5652.71,6532.51 C5652.27,6540.21004 5652.81999,6547.79996 5654.36,6555.28 L5654.36,6522.28 L5655.68,6522.28 C5655.68,6523.38001 5656.065,6525.52498 5656.835,6528.715 C5657.605,6531.90502 5658.21,6534.92999 5658.65,6537.79 L5659.97,6536.14 C5659.97,6537.46001 5659.53,6538.56 5658.65,6539.44 C5659.09,6539.88 5659.42,6540.155 5659.64,6540.265 C5659.86,6540.375 5659.97,6540.705 5659.97,6541.255 C5659.97,6541.805 5660.08,6542.62999 5660.3,6543.73 L5661.95,6545.05 C5661.95,6546.59001 5662.005,6547.8 5662.115,6548.68 C5662.225,6549.56 5662.225,6550.44 5662.115,6551.32 C5662.005,6552.2 5662.225,6553.73999 5662.775,6555.94 C5663.325,6558.14001 5663.875,6560.00999 5664.425,6561.55 C5664.975,6563.09001 5665.47,6565.45498 5665.91,6568.645 C5666.35,6571.83502 5667.11999,6575.18998 5668.22,6578.71 L5667.23,6581.02 L5668.55,6581.35 C5668.55,6581.79 5668.825,6583.05499 5669.375,6585.145 C5669.925,6587.23501 5670.31,6589.76499 5670.53,6592.735 C5670.75,6595.70501 5671.3,6599.33498 5672.18,6603.625 C5673.06,6607.91502 5674.04999,6610.82999 5675.15,6612.37 C5675.81,6611.49 5676.195,6610.775 5676.305,6610.225 C5676.415,6609.675 5676.58,6608.46501 5676.8,6606.595 C5677.02,6604.72499 5676.8,6599.99504 5676.14,6592.405 C5675.48,6584.81496 5674.82,6580.635 5674.16,6579.865 C5673.5,6579.095 5672.95,6578.27 5672.51,6577.39 L5673.5,6578.38 L5673.83,6577.39 L5675.15,6577.72 C5675.59,6583.66003 5676.25,6589.48997 5677.13,6595.21 L5678.78,6595.54 C5679.22,6599.06002 5679.715,6601.91999 5680.265,6604.12 C5680.815,6606.32001 5681.035,6610.00497 5680.925,6615.175 C5680.815,6620.34503 5681.035,6623.86499 5681.585,6625.735 C5682.135,6627.60501 5682.355,6629.14499 5682.245,6630.355 C5682.135,6631.56501 5682.3,6632.39 5682.74,6632.83 C5683.18,6633.27 5683.73,6634.14999 5684.39,6635.47 L5684.72,6622.6 C5685.38,6626.34002 5685.71,6630.18998 5685.71,6634.15 L5686.37,6633.49 L5685.71,6634.81 C5686.15,6637.45001 5686.97499,6640.19999 5688.185,6643.06 C5689.39501,6645.92001 5690.11,6648.11999 5690.33,6649.66 L5689.67,6651.64 L5693.96,6662.53 L5684.06,6672.1 C5682.95999,6671.66 5682.19,6671.33 5681.75,6671.11 C5681.31,6670.89 5680.26501,6671.11 5678.615,6671.77 C5676.96499,6672.43 5674.27002,6673.52999 5670.53,6675.07 L5662.28,6670.45 C5658.75998,6665.16997 5655.24002,6660.11002 5651.72,6655.27 L5649.74,6657.25 L5651.72,6660.88 L5649.08,6660.22 L5647.76,6657.58 L5645.78,6657.25 L5644.13,6655.6 L5642.15,6655.27 L5643.47,6656.92 L5639.51,6658.9 L5635.55,6656.59 L5637.86,6656.59 L5635.55,6654.94 L5633.24,6648.67 L5635.55,6646.36 L5638.19,6647.35 L5636.54,6646.69 L5638.19,6646.36 L5635.22,6644.38 L5636.21,6643.72 L5633.57,6640.75 L5635.88,6642.07 C5635.66,6641.63 5635.275,6640.53001 5634.725,6638.77 C5634.175,6637.00999 5634.34,6635.58001 5635.22,6634.48 C5636.1,6633.37999 5636.76,6632.00501 5637.2,6630.355 C5637.64,6628.70499 5638.19,6627.55 5638.85,6626.89 C5639.51,6626.23 5639.84,6625.07501 5639.84,6623.425 C5639.84,6621.77499 5639.565,6620.12501 5639.015,6618.475 C5638.465,6616.82499 5638.41,6615.39501 5638.85,6614.185 C5639.29,6612.97499 5640.005,6612.04 5640.995,6611.38 C5641.985,6610.72 5642.37,6609.18001 5642.15,6606.76 C5641.93,6604.33999 5635.33006,6586.85016 5622.35,6554.29 C5615.96997,6564.19005 5608.82004,6573.20996 5600.9,6581.35 L5590.67,6586.63 L5589.35,6585.64 L5587.7,6587.62 L5580.44,6586.3 L5578.79,6583.66 L5585.72,6582.01 C5582.19998,6580.24999 5578.79002,6578.05001 5575.49,6575.41 C5573.28999,6572.54999 5571.58501,6570.40501 5570.375,6568.975 C5569.16499,6567.54499 5568.175,6565.67501 5567.405,6563.365 C5566.635,6561.05499 5566.25,6559.35001 5566.25,6558.25 C5566.25,6557.14999 5565.92,6556.215 5565.26,6555.445 C5564.6,6554.675 5563.94,6553.08001 5563.28,6550.66 L5566.25,6551.65 C5564.92999,6548.78999 5563.94,6546.81001 5563.28,6545.71 C5562.62,6544.60999 5562.29,6543.84 5562.29,6543.4 L5562.29,6542.41 L5567.9,6546.7 C5567.46,6545.59999 5567.13,6544.61 5566.91,6543.73 C5566.69,6542.85 5566.14,6541.69501 5565.26,6540.265 C5564.38,6538.83499 5562.62001,6536.25002 5559.98,6532.51 L5568.56,6540.76 L5566.58,6538.45 L5572.52,6542.41 L5569.55,6538.12 L5582.09,6544.72 L5592.98,6534.82 L5606.84,6515.35 C5602.21998,6500.60993 5598.04002,6485.76007 5594.3,6470.8 C5593.64,6470.8 5593.09,6470.69 5592.65,6470.47 C5592.21,6470.25 5589.73502,6471.01999 5585.225,6472.78 C5580.71498,6474.54001 5574.28004,6477.17998 5565.92,6480.7 L5565.92,6486.31 C5565.92,6487.41001 5566.195,6488.72999 5566.745,6490.27 C5567.295,6491.81001 5568.22999,6494.44998 5569.55,6498.19 L5576.15,6500.17 L5575.82,6502.15 L5578.46,6502.81 L5576.15,6506.11 L5581.43,6508.42 L5582.42,6510.4 C5579.11998,6512.16001 5575.71002,6513.315 5572.19,6513.865 C5568.66998,6514.415 5564.71002,6515.40499 5560.31,6516.835 C5555.90998,6518.26501 5551.67502,6519.365 5547.605,6520.135 C5543.53498,6520.905 5539.30002,6522.49999 5534.9,6524.92 C5534.68,6529.76002 5534.625,6533.27999 5534.735,6535.48 C5534.845,6537.68001 5534.625,6541.85997 5534.075,6548.02 C5533.525,6554.18003 5533.085,6564.35493 5532.755,6578.545 C5532.425,6592.73507 5531.82,6600.65499 5530.94,6602.305 C5530.06,6603.95501 5529.29,6605.65999 5528.63,6607.42 C5524.22998,6608.96001 5520.16002,6608.85001 5516.42,6607.09 L5515.43,6609.07 L5509.16,6603.79 C5508.94,6602.46999 5508.28001,6600.16002 5507.18,6596.86 C5506.07999,6593.55998 5505.09,6591.415 5504.21,6590.425 C5503.33,6589.435 5501.79001,6587.62001 5499.59,6584.98 L5502.56,6585.31 L5500.91,6583.66 L5502.56,6583.66 L5502.89,6582.67 C5498.48998,6580.68999 5494.86001,6579.04001 5492,6577.72 C5489.13999,6576.39999 5485.23502,6575.575 5480.285,6575.245 C5475.33498,6574.915 5472.14501,6575.19 5470.715,6576.07 C5469.28499,6576.95 5467.91001,6578.15999 5466.59,6579.7 C5465.48999,6579.48 5464.61,6579.15 5463.95,6578.71 C5463.29,6578.27 5462.52,6578.27 5461.64,6578.71 C5460.76,6579.15 5459.33001,6579.48 5457.35,6579.7 L5457.02,6577.39 L5450.75,6577.39 L5449.43,6574.42 L5444.81,6577.06 L5440.85,6575.41 L5436.56,6577.39 L5438.21,6577.39 L5434.25,6577.72 C5433.81,6576.17999 5433.48,6575.08 5433.26,6574.42 C5433.04,6573.76 5433.15,6572.77001 5433.59,6571.45 C5434.03,6570.12999 5435.45999,6568.48001 5437.88,6566.5 C5440.30001,6564.51999 5443.81998,6560.78003 5448.44,6555.28 C5470.22011,6538.77992 5482.04499,6529.87001 5483.915,6528.55 C5485.78501,6527.22999 5487.32499,6526.24 5488.535,6525.58 C5489.74501,6524.92 5491.99998,6523.71001 5495.3,6521.95 C5498.60002,6520.18999 5504.53996,6516.56003 5513.12,6511.06 L5513.45,6504.13 C5497.16992,6511.61004 5480.67008,6518.64997 5463.95,6525.25 L5458.01,6531.85 C5453.82998,6534.71001 5449.87002,6534.60002 5446.13,6531.52 L5438.21,6522.28 L5431.28,6516.34 L5433.92,6511.72 C5435.46001,6510.84 5436.67,6510.07 5437.55,6509.41 C5438.43,6508.75 5440.07999,6508.915 5442.5,6509.905 C5444.92001,6510.895 5450.69495,6508.80503 5459.825,6503.635 C5468.95505,6498.46497 5487.81986,6489.06007 5516.42,6475.42 C5516.86,6468.81997 5516.97,6463.48502 5516.75,6459.415 C5516.53,6455.34498 5516.31,6452.87 5516.09,6451.99 C5515.87,6451.11 5515.98,6449.68001 5516.42,6447.7 C5517.08,6447.7 5517.85,6447.645 5518.73,6447.535 C5519.61,6447.425 5520.65499,6447.48 5521.865,6447.7 C5523.07501,6447.92 5524.55999,6448.415 5526.32,6449.185 C5528.08001,6449.955 5530.93998,6451.21999 5534.9,6452.98 C5535.34,6454.96001 5536.32999,6456.49999 5537.87,6457.6 C5536.76999,6458.48 5536.44,6459.46999 5536.88,6460.57 L5533.25,6462.88 L5532.59,6468.16 L5556.02,6459.58 L5557.01,6455.95 L5558.99,6458.26 C5569.33005,6456.05999 5579.00995,6452.21003 5588.03,6446.71 C5581.20997,6420.30987 5576.92001,6405.51502 5575.16,6402.325 C5573.39999,6399.13498 5571.31001,6394.90003 5568.89,6389.62 L5567.24,6391.6 L5566.25,6391.6 C5564.92999,6390.27999 5563.44501,6388.63001 5561.795,6386.65 C5560.14499,6384.66999 5559.375,6383.295 5559.485,6382.525 C5559.595,6381.755 5559.76,6380.82001 5559.98,6379.72 C5562.84001,6379.94 5565.69999,6379.28001 5568.56,6377.74 L5577.14,6378.4 Z M5673.54741,6388.19724 L5673.83,6388.3 L5673.67983,6388.75051 C5673.63211,6388.56824 5673.58797,6388.38381 5673.54741,6388.19724 L5673.54741,6388.19724 Z M5673.67983,6388.75051 C5674.4491,6391.68883 5676.14914,6394.06863 5678.78,6395.89 L5680.76,6394.57 L5688.68,6408.43 L5691.65,6408.43 L5692.97,6412.06 L5691.65,6413.38 L5695.28,6417.01 L5694.29,6418.33 L5697.59,6423.94 L5694.62,6426.91 L5696.6,6429.22 C5695.27999,6429.44 5694.29,6429.495 5693.63,6429.385 C5692.97,6429.275 5692.475,6429.385 5692.145,6429.715 C5691.815,6430.045 5691.21,6430.43 5690.33,6430.87 C5689.45,6430.65 5688.79,6430.265 5688.35,6429.715 C5687.91,6429.165 5687.14001,6428.78 5686.04,6428.56 C5684.93999,6428.34 5684.005,6428.56 5683.235,6429.22 C5682.465,6429.88 5681.53001,6430.54 5680.43,6431.2 C5677.78999,6429.43999 5674.93002,6428.23 5671.85,6427.57 C5671.63,6426.91 5671.41,6426.305 5671.19,6425.755 C5670.97,6425.205 5669.26502,6422.56502 5666.075,6417.835 C5662.88498,6413.10498 5661.07,6409.86001 5660.63,6408.1 C5660.19,6406.33999 5659.915,6404.08501 5659.805,6401.335 C5659.695,6398.58499 5659.695,6397.045 5659.805,6396.715 C5659.915,6396.385 5660.08,6396.11 5660.3,6395.89 C5661.40001,6397.43001 5662.93999,6397.76 5664.92,6396.88 L5666.57,6394.24 L5668.22,6394.57 L5668.55,6391.6 L5666.57,6392.26 L5666.24,6390.94 C5668.66001,6391.6 5670.96999,6391.38001 5673.17,6390.28 L5673.67983,6388.75051 L5673.67983,6388.75051 Z M5673.54741,6388.19724 L5670.2,6386.98 L5673.5,6387.97 C5673.51522,6388.0461 5673.53102,6388.12185 5673.54741,6388.19724 L5673.54741,6388.19724 Z M5522.36,6387.64 C5523.02,6387.64 5523.405,6387.53 5523.515,6387.31 C5523.625,6387.09 5525.60498,6387.80499 5529.455,6389.455 C5533.30502,6391.10501 5536.43999,6392.095 5538.86,6392.425 C5541.28001,6392.755 5543.03999,6393.46999 5544.14,6394.57 C5545.24001,6395.67001 5546.23,6396.11 5547.11,6395.89 C5547.99,6395.67 5549.19999,6395.56 5550.74,6395.56 L5554.04,6399.85 L5570.21,6409.42 C5571.97001,6412.72002 5573.50999,6414.91999 5574.83,6416.02 C5576.15001,6417.12001 5576.92,6418.71499 5577.14,6420.805 C5577.36,6422.89501 5577.03,6424.38 5576.15,6425.26 C5575.27,6426.14 5574.06001,6427.56999 5572.52,6429.55 C5568.77998,6430.65001 5562.78504,6433.06998 5554.535,6436.81 C5546.28496,6440.55002 5539.96002,6443.07999 5535.56,6444.4 L5537.21,6439.78 L5533.58,6439.12 L5538.2,6435.82 L5538.2,6433.84 L5537.21,6433.18 C5536.10999,6434.06 5535.175,6434.83 5534.405,6435.49 C5533.635,6436.15 5531.82001,6436.865 5528.96,6437.635 C5526.09999,6438.405 5522.69002,6439.83499 5518.73,6441.925 C5514.76998,6444.01501 5510.20503,6447.58997 5505.035,6452.65 C5499.86497,6457.71003 5496.56501,6460.78999 5495.135,6461.89 C5493.70499,6462.99001 5492.00001,6464.19999 5490.02,6465.52 L5487.38,6469.48 L5485.4,6469.48 L5472.86,6483.34 L5472.86,6480.04 L5471.21,6481.36 C5474.73002,6474.75997 5478.74498,6469.48002 5483.255,6465.52 C5487.76502,6461.55998 5493.37497,6455.56504 5500.085,6447.535 C5506.79503,6439.50496 5512.51498,6433.01502 5517.245,6428.065 C5521.97502,6423.11498 5527.41997,6416.57004 5533.58,6408.43 C5529.83998,6402.48997 5527.03501,6398.47501 5525.165,6396.385 C5523.29499,6394.29499 5522.36,6392.755 5522.36,6391.765 C5522.36,6390.775 5522.36,6389.40001 5522.36,6387.64 Z M5595.29,6421.63 L5597.27,6432.85 L5598.59,6431.86 C5597.26999,6428.55998 5596.61,6425.37002 5596.61,6422.29 L5595.29,6421.63 Z M5591.33,6465.19 L5582.75,6468.16 L5585.72,6468.655 C5586.38,6468.765 5587.31499,6468.6 5588.525,6468.16 C5589.73501,6467.72 5591.32999,6467.06 5593.31,6466.18 L5591.66,6465.52 L5591.33,6465.19 Z M5591.99,6468.16 C5588.46998,6469.04 5585.94001,6469.7 5584.4,6470.14 C5582.85999,6470.58 5581.65,6470.965 5580.77,6471.295 C5579.89,6471.625 5578.68001,6472.44999 5577.14,6473.77 C5582.20003,6472.22999 5585.88499,6471.13 5588.195,6470.47 C5590.50501,6469.81 5591.88,6469.425 5592.32,6469.315 C5592.76,6469.205 5593.2,6468.93 5593.64,6468.49 L5591.99,6468.16 Z M5549.09,6487.96 C5546.88999,6489.06001 5544.47001,6489.995 5541.83,6490.765 C5539.18999,6491.535 5536.99001,6492.68999 5535.23,6494.23 L5534.24,6500.83 C5535.12,6501.05 5535.89,6501.16 5536.55,6501.16 C5537.21,6501.16 5538.14499,6500.94 5539.355,6500.5 C5540.56501,6500.06 5542.59999,6499.18001 5545.46,6497.86 L5549.09,6487.96 Z M5512.79,6513.37 L5499.59,6520.63 C5503.33002,6517.76999 5505.91499,6515.79001 5507.345,6514.69 C5508.77501,6513.58999 5509.765,6513.095 5510.315,6513.205 C5510.865,6513.315 5511.68999,6513.37 5512.79,6513.37 Z M5657,6537.13 L5657.66,6552.97 L5658.65,6552.97 C5657.54999,6547.90997 5657.11,6542.74003 5657.33,6537.46 L5657,6537.13 Z M5510.15,6537.79 C5507.28999,6539.11001 5504.98001,6539.99 5503.22,6540.43 C5501.45999,6540.87 5498.87502,6542.29999 5495.465,6544.72 C5492.05498,6547.14001 5486.28004,6550.98997 5478.14,6556.27 C5474.17998,6560.23002 5471.32001,6563.03499 5469.56,6564.685 C5467.79999,6566.33501 5466.755,6567.6 5466.425,6568.48 C5466.095,6569.36 5465.71,6570.78999 5465.27,6572.77 C5468.13001,6573.21 5470.76999,6573.595 5473.19,6573.925 C5475.61001,6574.255 5479.84497,6574.42 5485.895,6574.42 C5491.94503,6574.42 5496.34499,6573.98 5499.095,6573.1 C5501.84501,6572.22 5504.75998,6571.12001 5507.84,6569.8 L5510.81,6538.12 L5510.15,6537.79 Z M5933.68817,6626.55327 L5932.88,6626.23 C5933.13143,6626.35572 5933.40082,6626.46347 5933.68817,6626.55327 L5933.68817,6626.55327 Z M5933.68817,6626.55327 C5934.40654,6626.77776 5935.23714,6626.89 5936.18,6626.89 C5928.47996,6624.46999 5922.98002,6622.93 5919.68,6622.27 C5916.37998,6621.61 5914.4,6621.06 5913.74,6620.62 L5915.06,6620.62 L5915.06,6619.63 L5914.73,6619.96 L5913.74,6619.3 L5912.42,6619.63 L5911.43,6618.31 L5911.43,6619.3 L5912.75,6620.29 L5910.11,6620.29 L5910.44,6618.31 C5910,6618.97 5909.45,6619.52 5908.79,6619.96 L5909.45,6618.31 L5907.47,6617.65 L5906.81,6617.98 L5905.49,6617.32 L5904.83,6618.64 L5903.51,6618.31 L5903.18,6617.98 C5903.84,6618.2 5904.61,6617.98 5905.49,6617.32 C5903.06999,6617.54 5900.76001,6617.10001 5898.56,6616 L5898.56,6616.99 L5896.91,6616 L5896.25,6616.66 L5896.58,6616 L5895.26,6615.34 L5895.59,6616 C5894.71,6616 5894.05,6615.89 5893.61,6615.67 C5893.17,6615.45 5891.52001,6615.175 5888.66,6614.845 C5885.79999,6614.515 5884.15,6614.02 5883.71,6613.36 C5885.03001,6613.14 5885.965,6612.92 5886.515,6612.7 C5887.065,6612.48 5887.45,6612.48 5887.67,6612.7 C5887.89,6612.92 5888.22,6613.14 5888.66,6613.36 L5888.99,6613.03 L5888.99,6613.36 C5891.19001,6613.36 5892.785,6613.525 5893.775,6613.855 C5894.765,6614.185 5895.645,6614.35 5896.415,6614.35 L5898.395,6614.35 C5898.945,6614.35 5899.495,6614.295 5900.045,6614.185 C5900.595,6614.075 5901.2,6614.02 5901.86,6614.02 L5901.86,6615.01 L5902.85,6614.35 L5907.14,6614.35 L5906.15,6614.68 L5906.48,6615.34 L5907.8,6613.36 L5907.14,6612.37 L5906.48,6613.03 C5905.82,6612.81 5905.325,6612.7 5904.995,6612.7 L5902.85,6612.7 C5901.74999,6612.7 5901.09,6612.59 5900.87,6612.37 L5900.87,6613.36 C5899.99,6613.36 5899.44,6613.14 5899.22,6612.7 L5898.89,6614.02 L5898.23,6614.02 L5898.56,6612.7 L5897.57,6613.03 L5898.56,6612.04 L5899.55,6612.37 C5900.21,6612.15 5900.65,6611.93 5900.87,6611.71 C5901.09,6611.49 5901.365,6611.49 5901.695,6611.71 C5902.025,6611.93 5902.63,6612.04 5903.51,6612.04 L5903.18,6611.38 C5903.84,6611.38 5904.39,6611.6 5904.83,6612.04 C5906.15001,6611.6 5907.57999,6611.05 5909.12,6610.39 L5909.78,6611.38 C5910.22,6611.16 5910.605,6610.885 5910.935,6610.555 C5911.265,6610.225 5911.595,6610.115 5911.925,6610.225 C5912.255,6610.335 5913.07999,6610.39 5914.4,6610.39 L5914.73,6609.73 L5916.71,6609.4 L5916.71,6608.41 L5915.72,6608.74 L5915.06,6608.41 C5916.82001,6607.97 5918.195,6607.64 5919.185,6607.42 C5920.175,6607.2 5920.725,6607.09 5920.835,6607.09 C5920.945,6607.09 5921.33,6607.2 5921.99,6607.42 L5922.32,6606.76 C5924.30001,6606.32 5926.27999,6605.66 5928.26,6604.78 L5927.93,6603.79 L5928.59,6603.13 L5929.58,6603.46 C5930.46,6602.58 5931.01,6601.59001 5931.23,6600.49 C5934.53002,6598.94999 5937.60999,6596.86001 5940.47,6594.22 C5940.91,6593.34 5941.295,6592.625 5941.625,6592.075 C5941.955,6591.525 5942.34,6590.37001 5942.78,6588.61 C5943.22,6586.84999 5943.55,6584.70501 5943.77,6582.175 C5943.99,6579.64499 5943.77,6576.84002 5943.11,6573.76 C5942.45,6570.67998 5943.16499,6554.45515 5945.255,6525.085 C5947.34501,6495.71485 5948.555,6471.79009 5948.885,6453.31 C5949.215,6434.82991 5949.215,6424.05002 5948.885,6420.97 C5948.555,6417.88998 5948.39,6414.37002 5948.39,6410.41 L5941.46,6412.72 L5943.77,6410.41 C5942.66999,6410.85 5941.625,6411.18 5940.635,6411.4 C5939.645,6411.62 5937.61002,6412.44499 5934.53,6413.875 C5931.44998,6415.30501 5928.70001,6416.67999 5926.28,6418 C5923.85999,6419.32001 5922.155,6420.365 5921.165,6421.135 C5920.175,6421.905 5918.80001,6422.73 5917.04,6423.61 C5916.82,6423.61 5915.44501,6424.26999 5912.915,6425.59 C5910.38499,6426.91001 5907.25002,6428.66999 5903.51,6430.87 L5903.51,6429.22 C5903.07,6430.32001 5902.52,6431.09 5901.86,6431.53 L5901.86,6430.54 L5898.56,6433.18 L5898.23,6432.19 L5897.9,6433.51 L5896.91,6433.84 L5895.92,6434.83 L5895.59,6433.84 L5893.28,6436.48 L5893.28,6435.49 L5891.3,6436.48 C5891.08,6436.7 5890.64,6437.25 5889.98,6438.13 C5889.32,6439.01 5888.44001,6440.10999 5887.34,6441.43 C5887.34,6442.31 5887.45,6442.97 5887.67,6443.41 C5887.89,6443.85 5887.835,6444.29 5887.505,6444.73 C5887.175,6445.17 5886.57,6446.04999 5885.69,6447.37 L5883.71,6446.38 L5882.06,6448.03 C5880.95999,6448.03 5880.19,6448.085 5879.75,6448.195 C5879.31,6448.305 5878.54001,6448.195 5877.44,6447.865 C5876.33999,6447.535 5875.35,6447.04 5874.47,6446.38 L5872.49,6444.4 L5871.17,6444.07 L5867.54,6438.13 L5863.91,6435.82 C5863.69,6434.94 5863.635,6434.28 5863.745,6433.84 C5863.855,6433.4 5863.635,6432.85 5863.085,6432.19 C5862.535,6431.53 5862.425,6430.815 5862.755,6430.045 C5863.085,6429.275 5863.085,6428.505 5862.755,6427.735 C5862.425,6426.965 5862.535,6426.305 5863.085,6425.755 C5863.635,6425.205 5864.02,6424.71 5864.24,6424.27 L5865.89,6423.28 C5867.87001,6423.94 5869.245,6424.545 5870.015,6425.095 C5870.785,6425.645 5871.93999,6425.645 5873.48,6425.095 C5875.02001,6424.545 5877.71498,6423.39001 5881.565,6421.63 C5885.41502,6419.86999 5890.96996,6416.73502 5898.23,6412.225 C5905.49004,6407.71498 5912.30997,6403.81002 5918.69,6400.51 C5925.07003,6397.20998 5930.45998,6394.73501 5934.86,6393.085 C5939.26002,6391.43499 5941.845,6390.335 5942.615,6389.785 C5943.385,6389.235 5944.1,6388.74 5944.76,6388.3 L5946.74,6385.99 L5951.03,6384.34 C5951.25,6382.57999 5951.90999,6381.15001 5953.01,6380.05 C5955.87001,6378.72999 5958.67499,6377.63 5961.425,6376.75 C5964.17501,6375.87 5965.99,6375.32 5966.87,6375.1 C5967.97001,6375.54 5968.85,6375.815 5969.51,6375.925 C5970.17,6376.035 5970.995,6376.69499 5971.985,6377.905 C5972.975,6379.11501 5974.73499,6380.32499 5977.265,6381.535 C5979.79501,6382.74501 5981.555,6383.185 5982.545,6382.855 C5983.535,6382.525 5984.47,6382.69 5985.35,6383.35 C5986.23,6384.01 5987.43999,6384.505 5988.98,6384.835 C5990.52001,6385.165 5992.55499,6385.93499 5995.085,6387.145 C5997.61501,6388.35501 5999.75999,6389.67499 6001.52,6391.105 C6003.28001,6392.53501 6005.91998,6394.45999 6009.44,6396.88 C6010.1,6397.98001 6010.54,6398.695 6010.76,6399.025 C6010.98,6399.355 6011.145,6399.96 6011.255,6400.84 C6011.365,6401.72 6010.87001,6402.70999 6009.77,6403.81 C6008.66999,6404.91001 6008.065,6406.33999 6007.955,6408.1 C6007.845,6409.86001 6007.18501,6411.39999 6005.975,6412.72 C6004.76499,6414.04001 6003.94,6415.85499 6003.5,6418.165 C6003.06,6420.47501 6002.29001,6423.33498 6001.19,6426.745 C6000.08999,6430.15502 5999.54,6432.73999 5999.54,6434.5 L5999.54,6442.75 L6000.2,6440.11 C6000.2,6440.99 6000.31,6441.595 6000.53,6441.925 C6000.75,6442.255 6000.75,6443.51999 6000.53,6445.72 C6000.31,6447.92001 6000.2,6451.76997 6000.2,6457.27 L5999.54,6455.95 C5999.32,6458.59001 5999.32,6461.11999 5999.54,6463.54 L6000.2,6458.26 L6000.86,6458.26 L6000.86,6463.87 L6001.52,6463.54 L6000.86,6466.84 L6000.2,6466.51 L6000.2,6469.645 C6000.2,6470.85501 6000.255,6473.32998 6000.365,6477.07 C6000.475,6480.81002 6000.585,6483.44999 6000.695,6484.99 C6000.805,6486.53001 6001.08,6488.94998 6001.52,6492.25 L6001.52,6488.95 L6002.18,6488.95 L6003.17,6486.31 C6003.17,6487.41001 6003.225,6488.29 6003.335,6488.95 C6003.445,6489.61 6003.61,6490.76499 6003.83,6492.415 C6004.05,6494.06501 6004.38,6497.08998 6004.82,6501.49 L6005.15,6502.15 L6006.305,6503.305 C6006.635,6503.635 6006.69,6504.40499 6006.47,6505.615 C6006.25,6506.82501 6006.36,6508.85999 6006.8,6511.72 L6005.15,6510.4 L6005.15,6512.215 C6005.15,6512.765 6005.315,6513.58999 6005.645,6514.69 C6005.975,6515.79001 6005.865,6516.78 6005.315,6517.66 C6004.765,6518.54 6004.49,6519.475 6004.49,6520.465 C6004.49,6521.455 6004.655,6522.60999 6004.985,6523.93 C6005.315,6525.25001 6005.425,6527.17499 6005.315,6529.705 C6005.205,6532.23501 6005.535,6534.04999 6006.305,6535.15 C6007.075,6536.25001 6007.35,6537.24 6007.13,6538.12 C6006.91,6539 6006.8,6540.86999 6006.8,6543.73 L6007.46,6543.4 L6007.46,6542.41 L6008.78,6542.41 C6009.22,6540.86999 6009.275,6539.77 6008.945,6539.11 C6008.615,6538.45 6008.395,6537.24001 6008.285,6535.48 C6008.175,6533.71999 6008.23,6531.74001 6008.45,6529.54 L6009.44,6529.54 L6009.44,6532.015 C6009.44,6532.785 6009.495,6534.10499 6009.605,6535.975 C6009.715,6537.84501 6009.99,6541.19998 6010.43,6546.04 L6009.77,6546.7 L6010.265,6547.69 C6010.375,6547.91 6010.375,6548.405 6010.265,6549.175 C6010.155,6549.945 6010.1,6551.20999 6010.1,6552.97 L6008.45,6552.97 C6008.23,6555.17001 6008.34,6557.25999 6008.78,6559.24 L6009.44,6559.24 L6009.44,6566.005 C6009.44,6566.995 6009.495,6567.875 6009.605,6568.645 C6009.715,6569.415 6009.77,6570.075 6009.77,6570.625 L6009.77,6573.1 L6010.43,6572.77 L6010.76,6575.08 L6011.42,6574.75 C6011.2,6571.44998 6010.98,6569.03001 6010.76,6567.49 C6010.54,6565.94999 6010.43,6564.24501 6010.43,6562.375 L6010.43,6552.97 C6010.43,6553.41 6010.485,6553.795 6010.595,6554.125 C6010.705,6554.455 6010.76,6555.06 6010.76,6555.94 C6010.76,6556.82 6011.035,6557.535 6011.585,6558.085 C6012.135,6558.635 6012.19,6559.89999 6011.75,6561.88 C6011.31,6563.86001 6011.475,6566.60998 6012.245,6570.13 C6013.015,6573.65002 6013.4,6576.61999 6013.4,6579.04 C6013.4,6581.46001 6013.73,6584.04499 6014.39,6586.795 C6015.05,6589.54501 6015.325,6592.34999 6015.215,6595.21 C6015.105,6598.07001 6015.215,6600.65499 6015.545,6602.965 C6015.875,6605.27501 6015.655,6607.52999 6014.885,6609.73 C6014.115,6611.93001 6013.95,6613.74499 6014.39,6615.175 C6014.83,6616.60501 6014.83,6617.54 6014.39,6617.98 C6013.95,6618.42 6013.785,6619.24499 6013.895,6620.455 C6014.005,6621.66501 6013.62,6622.49 6012.74,6622.93 C6011.86,6623.37 6011.31,6624.19499 6011.09,6625.405 C6010.87,6626.61501 6010.32,6628.97998 6009.44,6632.5 L6008.12,6632.83 L6006.8,6631.18 C6005.25999,6632.72001 6003.50001,6633.71 6001.52,6634.15 L6000.2,6637.45 L5997.56,6639.1 L5996.24,6642.73 C5994.91999,6643.61 5993.985,6644.27 5993.435,6644.71 C5992.885,6645.15 5992.00501,6645.535 5990.795,6645.865 C5989.58499,6646.195 5988.10001,6647.40499 5986.34,6649.495 C5984.57999,6651.58501 5982.65501,6652.74 5980.565,6652.96 C5978.47499,6653.18 5976.16501,6653.62 5973.635,6654.28 C5971.10499,6654.94 5968.74001,6655.325 5966.54,6655.435 C5964.33999,6655.545 5962.36001,6655.105 5960.6,6654.115 C5958.83999,6653.125 5956.58501,6652.52 5953.835,6652.3 C5951.08499,6652.08 5948.72001,6651.53 5946.74,6650.65 C5944.75999,6649.77 5943.495,6649.22 5942.945,6649 C5942.395,6648.78 5941.79,6648.45 5941.13,6648.01 C5940.69,6646.90999 5940.415,6646.085 5940.305,6645.535 C5940.195,6644.985 5939.81,6644.27 5939.15,6643.39 C5938.49,6642.51 5937.665,6641.35501 5936.675,6639.925 C5935.685,6638.49499 5935.355,6637.285 5935.685,6636.295 C5936.015,6635.305 5936.07,6634.59 5935.85,6634.15 C5935.63,6633.71 5935.41,6633.05 5935.19,6632.17 C5933.20999,6631.73 5931.45001,6631.18 5929.91,6630.52 C5931.45001,6630.96 5933.20999,6631.07 5935.19,6630.85 L5936.18,6627.55 L5933.68817,6626.55327 L5933.68817,6626.55327 Z M5786.03,6399.52 C5786.25,6399.52 5786.36,6399.465 5786.36,6399.355 C5786.36,6399.245 5786.855,6399.685 5787.845,6400.675 C5788.835,6401.665 5789.715,6402.16 5790.485,6402.16 C5791.255,6402.16 5791.86,6402.38 5792.3,6402.82 C5792.74,6403.26 5793.345,6403.48 5794.115,6403.48 C5794.885,6403.48 5795.71,6403.645 5796.59,6403.975 C5797.47,6404.305 5798.89999,6404.8 5800.88,6405.46 C5803.52001,6408.32001 5805.38999,6410.19 5806.49,6411.07 C5807.59001,6411.95 5808.25,6412.775 5808.47,6413.545 C5808.69,6414.315 5809.13,6415.14 5809.79,6416.02 L5810.78,6416.35 C5810.34,6417.23 5809.955,6417.835 5809.625,6418.165 C5809.295,6418.495 5807.81001,6419.86999 5805.17,6422.29 C5802.52999,6424.71001 5800.22001,6427.78998 5798.24,6431.53 C5796.25999,6435.27002 5793.40002,6439.88997 5789.66,6445.39 C5785.91998,6450.89003 5777.89006,6462.98991 5765.57,6481.69 L5770.85,6487.96 L5773.82,6490.6 C5774.04,6494.12002 5774.15,6496.59499 5774.15,6498.025 C5774.15,6499.45501 5774.205,6500.28 5774.315,6500.5 C5774.425,6500.72 5774.7,6500.94 5775.14,6501.16 C5776.90001,6495.43997 5779.75998,6490.38002 5783.72,6485.98 C5781.51999,6489.94002 5779.87001,6494.11998 5778.77,6498.52 L5779.76,6497.86 C5778.65999,6502.04002 5778.055,6504.73499 5777.945,6505.945 C5777.835,6507.15501 5777.395,6508.41999 5776.625,6509.74 C5775.855,6511.06001 5775.085,6518.37493 5774.315,6531.685 C5773.545,6544.99507 5773.27,6553.90498 5773.49,6558.415 C5773.71,6562.92502 5773.93,6565.51 5774.15,6566.17 L5775.47,6565.18 C5775.69,6566.06 5775.965,6566.72 5776.295,6567.16 C5776.625,6567.6 5776.735,6568.97499 5776.625,6571.285 C5776.515,6573.59501 5776.955,6575.245 5777.945,6576.235 C5778.935,6577.225 5779.375,6578.76499 5779.265,6580.855 C5779.155,6582.94501 5778.49501,6585.08999 5777.285,6587.29 C5776.07499,6589.49001 5775.25,6591.085 5774.81,6592.075 C5774.37,6593.065 5773.82,6594.54999 5773.16,6596.53 L5771.84,6596.53 L5766.56,6601.81 C5765.23999,6601.81 5764.195,6601.92 5763.425,6602.14 C5762.655,6602.36 5761.885,6602.415 5761.115,6602.305 C5760.345,6602.195 5759.30001,6601.92 5757.98,6601.48 L5756.66,6599.83 L5752.04,6596.86 C5750.93999,6595.31999 5750.115,6594.275 5749.565,6593.725 C5749.015,6593.175 5748.52,6592.18501 5748.08,6590.755 C5747.64,6589.32499 5747.365,6588.00501 5747.255,6586.795 C5747.145,6585.58499 5746.98,6584.595 5746.76,6583.825 C5746.54,6583.055 5746.32,6581.90001 5746.1,6580.36 C5745.44,6579.92 5744.945,6579.48 5744.615,6579.04 C5744.285,6578.6 5743.735,6578.325 5742.965,6578.215 C5742.195,6578.105 5741.04001,6577.83 5739.5,6577.39 L5738.84,6578.05 C5738.84,6577.83 5738.785,6577.61 5738.675,6577.39 C5738.565,6577.17 5738.4,6576.73 5738.18,6576.07 C5737.96,6575.41 5737.685,6574.805 5737.355,6574.255 C5737.025,6573.705 5736.805,6573.21 5736.695,6572.77 C5736.585,6572.33 5736.31,6571.89 5735.87,6571.45 C5736.31,6570.12999 5737.07999,6568.92001 5738.18,6567.82 C5738.18,6567.38 5738.125,6567.05 5738.015,6566.83 C5737.905,6566.61 5738.015,6566.225 5738.345,6565.675 C5738.675,6565.125 5738.785,6564.465 5738.675,6563.695 C5738.565,6562.925 5739.005,6561.38501 5739.995,6559.075 C5740.985,6556.76499 5741.81,6555.28 5742.47,6554.62 L5747.75,6550.33 C5748.41,6549.22999 5748.96,6548.295 5749.4,6547.525 C5749.84,6546.755 5750.39,6544.33502 5751.05,6540.265 C5751.71,6536.19498 5752.26,6531.02503 5752.7,6524.755 C5753.14,6518.48497 5753.25,6514.03001 5753.03,6511.39 C5752.81,6508.74999 5752.59,6505.23002 5752.37,6500.83 C5750.38999,6503.69001 5744.72505,6511.11494 5735.375,6523.105 C5726.02495,6535.09506 5720.91,6541.74999 5720.03,6543.07 C5718.92999,6543.29 5717.995,6543.4 5717.225,6543.4 C5716.455,6543.4 5715.905,6543.345 5715.575,6543.235 C5715.245,6543.125 5714.86,6543.18 5714.42,6543.4 L5712.11,6540.76 C5709.90999,6543.40001 5708.04001,6545.65499 5706.5,6547.525 C5704.95999,6549.39501 5704.08,6550.55 5703.86,6550.99 C5703.64,6551.43 5703.2,6551.98 5702.54,6552.64 C5702.1,6551.53999 5701.715,6550.715 5701.385,6550.165 C5701.055,6549.615 5700.89,6548.9 5700.89,6548.02 C5700.89,6547.14 5700.45,6546.15001 5699.57,6545.05 C5698.69,6543.94999 5698.25,6542.41001 5698.25,6540.43 C5698.25,6538.44999 5698.415,6536.14001 5698.745,6533.5 C5699.075,6530.85999 5699.075,6528.93501 5698.745,6527.725 C5698.415,6526.51499 5698.25,6525.69 5698.25,6525.25 L5700.89,6523.6 C5701.11,6522.94 5701.165,6522.445 5701.055,6522.115 C5700.945,6521.785 5700.945,6521.125 5701.055,6520.135 C5701.165,6519.145 5701.33,6517.88001 5701.55,6516.34 L5702.21,6516.01 L5702.54,6515.35 L5703.86,6514.36 L5703.86,6513.7 L5706.005,6513.7 C5706.555,6513.7 5707.215,6513.315 5707.985,6512.545 C5708.755,6511.775 5710.12999,6510.62001 5712.11,6509.08 C5715.41002,6505.11998 5717.71999,6502.42501 5719.04,6500.995 C5720.36001,6499.56499 5721.84499,6497.69501 5723.495,6495.385 C5725.14501,6493.07499 5727.61998,6489.94002 5730.92,6485.98 C5734.22002,6482.01998 5737.79498,6477.51003 5741.645,6472.45 C5745.49502,6467.38997 5749.12498,6462.11003 5752.535,6456.61 C5755.94502,6451.10997 5759.95998,6445.50003 5764.58,6439.78 C5769.20002,6434.05997 5775.02996,6423.39008 5782.07,6407.77 L5781.74,6406.12 L5782.4,6405.46 L5783.06,6402.16 L5786.03,6399.52 Z M5822.99,6444.07 L5828.93,6444.07 C5830.69001,6444.07 5833.60498,6444.455 5837.675,6445.225 C5841.74502,6445.995 5845.53998,6446.92999 5849.06,6448.03 C5852.58002,6449.13001 5854.94499,6450.175 5856.155,6451.165 C5857.36501,6452.155 5858.84999,6453.41999 5860.61,6454.96 L5861.6,6456.28 L5860.28,6460.24 L5861.27,6462.55 C5860.16999,6463.65001 5859.84,6464.96999 5860.28,6466.51 L5857.64,6468.49 L5857.64,6470.14 L5856.32,6470.8 C5855.88,6472.34001 5855.11001,6473.44 5854.01,6474.1 C5852.46999,6474.32 5851.26,6474.43 5850.38,6474.43 C5849.5,6474.43 5848.565,6474.705 5847.575,6475.255 C5846.585,6475.805 5845.43001,6476.3 5844.11,6476.74 C5842.78999,6477.18 5840.97501,6477.07 5838.665,6476.41 C5836.35499,6475.75 5834.705,6475.09 5833.715,6474.43 C5832.725,6473.77 5831.57001,6472.89001 5830.25,6471.79 L5825.96,6473.77 L5819.36,6480.04 L5818.865,6479.545 C5818.755,6479.435 5818.535,6479.435 5818.205,6479.545 C5817.875,6479.655 5817.38,6479.71 5816.72,6479.71 L5815.4,6482.02 C5815.62,6483.56001 5815.895,6484.495 5816.225,6484.825 C5816.555,6485.155 5816.555,6489.27996 5816.225,6497.2 C5815.895,6505.12004 5815.895,6510.72998 5816.225,6514.03 C5816.555,6517.33002 5817.05,6519.96999 5817.71,6521.95 C5818.37,6523.93001 5818.59,6527.17498 5818.37,6531.685 C5818.15,6536.19502 5817.82,6541.85997 5817.38,6548.68 C5816.94,6555.50003 5817.59999,6560.66998 5819.36,6564.19 C5821.12001,6567.71002 5822.165,6570.34999 5822.495,6572.11 C5822.825,6573.87001 5822.66,6575.29999 5822,6576.4 C5821.34,6577.50001 5821.01,6578.81999 5821.01,6580.36 C5821.01,6581.90001 5820.735,6583.055 5820.185,6583.825 C5819.635,6584.595 5818.92,6586.07999 5818.04,6588.28 C5817.38,6588.28 5816.94,6588.225 5816.72,6588.115 C5816.5,6588.005 5815.95,6588.335 5815.07,6589.105 C5814.19,6589.875 5812.76001,6591.02999 5810.78,6592.57 L5803.52,6590.59 L5800.88,6588.28 C5799.11999,6587.84 5797.47001,6586.96001 5795.93,6585.64 C5795.05,6584.09999 5794.335,6582.835 5793.785,6581.845 C5793.235,6580.855 5793.015,6579.42501 5793.125,6577.555 C5793.235,6575.68499 5793.235,6574.255 5793.125,6573.265 C5793.015,6572.275 5793.015,6571.23001 5793.125,6570.13 C5793.235,6569.02999 5793.07,6567.60001 5792.63,6565.84 C5792.19,6564.07999 5791.64,6562.925 5790.98,6562.375 C5790.32,6561.825 5789.55,6561.00001 5788.67,6559.9 L5785.04,6558.91 C5784.82,6558.47 5784.93,6557.81 5785.37,6556.93 L5786.69,6556.6 L5788.01,6554.62 L5791.31,6554.29 C5791.53,6553.41 5791.64,6552.75 5791.64,6552.31 C5791.64,6551.87 5791.255,6551.04501 5790.485,6549.835 C5789.715,6548.62499 5789.22,6547.58 5789,6546.7 L5789.33,6546.7 L5789.66,6545.71 L5791.97,6543.73 L5790.32,6542.74 L5790.32,6541.09 L5791.97,6542.08 L5793.29,6541.09 L5793.29,6539.77 C5794.17,6539.77 5794.83,6539.44 5795.27,6538.78 C5794.83,6538.12 5794.61,6537.24001 5794.61,6536.14 L5796.59,6536.14 L5796.59,6535.48 L5797.25,6535.15 C5797.47,6534.93 5798.34999,6533.61001 5799.89,6531.19 C5801.43001,6528.76999 5803.18999,6523.05005 5805.17,6514.03 C5807.15001,6505.00995 5808.305,6498.74002 5808.635,6495.22 C5808.965,6491.69998 5809.515,6489.33501 5810.285,6488.125 C5811.055,6486.91499 5812.20999,6484.55002 5813.75,6481.03 L5816.39,6479.05 L5823.32,6470.47 C5821.99999,6469.14999 5819.74502,6467.33501 5816.555,6465.025 C5813.36498,6462.71499 5810.23002,6460.13001 5807.15,6457.27 C5805.60999,6455.72999 5804.18001,6454.08001 5802.86,6452.32 L5803.85,6452.32 L5803.52,6451 C5804.18,6450.78 5804.62,6450.67 5804.84,6450.67 C5805.06,6450.67 5805.71999,6450.175 5806.82,6449.185 C5807.92001,6448.195 5809.29499,6447.315 5810.945,6446.545 C5812.59501,6445.775 5814.24499,6445.28 5815.895,6445.06 C5817.54501,6444.84 5819.90998,6444.51 5822.99,6444.07 Z M5994.92,6468.16 L5995.91,6476.74 C5995.91,6476.08 5995.965,6475.475 5996.075,6474.925 C5996.185,6474.375 5996.185,6473.66 5996.075,6472.78 C5995.965,6471.9 5995.8,6470.36001 5995.58,6468.16 L5994.92,6468.16 Z M5990.3,6480.7 L5990.3,6483.67 L5990.63,6482.68 L5991.29,6483.34 L5991.95,6493.57 L5993.93,6491.92 C5993.49,6489.27999 5993.27,6487.465 5993.27,6486.475 C5993.27,6485.485 5992.995,6484.715 5992.445,6484.165 C5991.895,6483.615 5991.29,6482.57001 5990.63,6481.03 L5990.3,6480.7 Z M6000.72755,6500.36309 L6000.2,6494.56 L5999.54,6495.22 C5999.76,6493.67999 5999.925,6492.69 6000.035,6492.25 C6000.145,6491.81 6000.145,6491.26 6000.035,6490.6 C5999.925,6489.94 5999.76,6488.84001 5999.54,6487.3 C5999.32,6489.06001 5999.21,6491.31499 5999.21,6494.065 C5999.21,6496.81501 5999.54,6498.63 6000.2,6499.51 C6000.41776,6499.80035 6000.59362,6500.08472 6000.72755,6500.36309 L6000.72755,6500.36309 Z M5997.56,6510.4 L5998.22,6517 L5999.21,6516.34 C5998.99,6514.57999 5998.66,6512.71001 5998.22,6510.73 L5997.56,6510.4 Z M6002.18,6517.33 L6002.18,6522.61 L6002.51,6522.61 L6002.18,6517.33 Z M6002.84,6524.26 L6002.18,6528.55 L6002.51,6527.89 L6002.84,6524.59 L6002.84,6524.26 Z M6002.18,6546.37 L6001.19,6545.05 L6000.2,6545.38 L6001.85,6549.01 L6002.18,6548.35 C6002.4,6549.45001 6002.84,6550.44 6003.5,6551.32 C6003.5,6548.67999 6003.17,6545.93001 6002.51,6543.07 L6002.18,6546.37 Z" id="sendusamessage"></path>
        </g>
    </g>
</svg>