<svg xmlns="http://www.w3.org/2000/svg" width="386.72" height="110.9" viewBox="0 0 386.72 110.9">
  <metadata><?xpacket begin="﻿" id="W5M0MpCehiHzreSzNTczkc9d"?>
<x:xmpmeta xmlns:x="adobe:ns:meta/" x:xmptk="Adobe XMP Core 5.6-c138 79.159824, 2016/09/14-01:09:01        ">
   <rdf:RDF xmlns:rdf="http://www.w3.org/1999/02/22-rdf-syntax-ns#">
      <rdf:Description rdf:about=""/>
   </rdf:RDF>
</x:xmpmeta>
                                                                                                    
                                                                                                    
                                                                                                    
                                                                                                    
                                                                                                    
                                                                                                    
                                                                                                    
                                                                                                    
                                                                                                    
                                                                                                    
                                                                                                    
                                                                                                    
                                                                                                    
                                                                                                    
                                                                                                    
                                                                                                    
                                                                                                    
                                                                                                    
                                                                                                    
                                                                                                    
                           
<?xpacket end="w"?></metadata>
<defs>
    <style>
      .cls-1 {
        fill: #dfa322;
        fill-rule: evenodd;
      }
    </style>
  </defs>
  <path id="点击试玩" class="cls-1" d="M4612.23,7185.34l0.33,0.67-0.67.45,2.69,3.49,5.28,2.59a16.715,16.715,0,0,0,.56,3.09,5.659,5.659,0,0,1,.05,2.65,49.509,49.509,0,0,0-.39,5.85l-1.01.67c-0.07.15-.13,0.27-0.17,0.34a2.634,2.634,0,0,0-.05.67v1.92l0.9,0.79-0.9,5.06-1.46.45-0.34.56,0.56,0.56a2.656,2.656,0,0,0-.33.68,0.83,0.83,0,0,0,0,.62,5.345,5.345,0,0,1,.22,1.07l-0.45,1.01,1.12,1.35h-0.78l1.79,2.81q-9.87,2.925-10.71,2.81c-0.56-.07-1.18-0.15-1.85-0.22l-5.16-5.06c-0.75-.53-1.29-0.92-1.63-1.19a2.218,2.218,0,0,0-1.18-.45,12.336,12.336,0,0,1-2.02-.39l-1.01.9,0.23,1.58,2.58,0.78a7.966,7.966,0,0,0,1.74,2.25c0.56,0.45,1.17,1.84,1.85,4.17s1.29,4.87,1.85,7.65,0.73,4.4.5,4.89a2.192,2.192,0,0,0-.28,1.01,1.025,1.025,0,0,1-.22.73,2.951,2.951,0,0,0-.23,1.58,2.424,2.424,0,0,0,.29,1.35,2.979,2.979,0,0,0-.23,3.49l2.25,1.57,2.69,4.28,2.58,1.8a10.57,10.57,0,0,0,1.12-.9,1.256,1.256,0,0,1,.95-0.34,13.683,13.683,0,0,0,1.52-.11l0.22-.79a69.242,69.242,0,0,1,9.43-4.5l0.67,0.34c0.75-.3,1.87-0.83,3.37-1.58a31.4,31.4,0,0,1,3.53-1.57,41.093,41.093,0,0,0,4.21-1.92l0.34,0.34,0.78-.67h-0.45l4.15-2.7,1.01-1.35-0.89.22,0.44-1.12-0.78-.68,0.11-.45,5.16-2.25-0.11-.56a3.8,3.8,0,0,1-.67-0.62,4.708,4.708,0,0,0-1.24-.84,7.639,7.639,0,0,0-2.75-.79,18.776,18.776,0,0,1-2.52-.45l-0.34-.45c2.54-1.73,4.38-2.96,5.5-3.71a5.382,5.382,0,0,1,3.37-1.02,4.859,4.859,0,0,0,2.46-.28c0.53-.26,1.24-0.58,2.14-0.95l1.9-2.03c-0.07-.67-0.11-1.18-0.11-1.52a1.236,1.236,0,0,0-.28-0.84,12.264,12.264,0,0,1-.84-1.24,16.071,16.071,0,0,0-1.91-1.01,16.476,16.476,0,0,1-1.57-.79,8.448,8.448,0,0,0-1.68-.73,9.164,9.164,0,0,1-2.13-1.07l-0.12-.45-1.57-.9c-0.44.15-1.23,0.45-2.35,0.9a9.151,9.151,0,0,0-2.41,1.29,5.335,5.335,0,0,1-2.98.74,39.5,39.5,0,0,0-7.07,1.35,19.229,19.229,0,0,0-.11-4,6.96,6.96,0,0,1-.11-2.19,6.621,6.621,0,0,0-.06-1.97,4.06,4.06,0,0,1-.11-1.24,3.462,3.462,0,0,0-.06-1.07l0.79-2.25c1.35-.6,2.37-1.05,3.09-1.35a6.128,6.128,0,0,1,2.41-.45c0.9,0,1.7.04,2.41,0.11s1.74,0.16,3.09.23v0.68l-0.34.33c1.19,0,2.11.02,2.75,0.06a5.84,5.84,0,0,0,1.96-.23c0.67-.18,1.68-0.43,3.03-0.73l0.34-1.12-2.25-2.37c-1.42-.74-2.56-1.31-3.42-1.68a24.217,24.217,0,0,1-2.69-1.41,2.949,2.949,0,0,0-2.41-.51,7.893,7.893,0,0,0-1.8.85,5,5,0,0,1-2.13.67c-0.9.12-2.28,0.4-4.15,0.85,0.15-2.63.22-4.45,0.22-5.46a3.725,3.725,0,0,1,.56-2.25,2.012,2.012,0,0,0,.45-1.57,1.888,1.888,0,0,0-.78-1.35,15.534,15.534,0,0,1-2.13-2.31l-1.8-.9-0.11.45a39.9,39.9,0,0,0-4.1-1.63,5.689,5.689,0,0,1-2.13-1.13,2.534,2.534,0,0,0-2.08-.56,15.665,15.665,0,0,1-1.96.17c-0.49,0-1.22-.04-2.19-0.11Zm4.6,54.34a7.862,7.862,0,0,1-1.52-.28,1.2,1.2,0,0,0-.95.05,6.654,6.654,0,0,1-1.23.45l-3.71-9.56a17.66,17.66,0,0,0,4.49,2.25l0.34-.45,1.01,0.23,0.11-.9,3.7-.79,0.11,0.45,3.93-.9-0.45-.45a13.009,13.009,0,0,0,1.41-.79,9.656,9.656,0,0,1,2.8-.73c1.53-.26,3.87-0.81,7.01-1.63Zm22.55,1.12a18.667,18.667,0,0,1-2.02,1.24,2.565,2.565,0,0,1-.95.34h-0.84c0.44-.23.99-0.47,1.62-0.73a6.441,6.441,0,0,0,1.4-.73c0.3-.23.71-0.57,1.24-1.02Zm25.58,8.55a9.362,9.362,0,0,1,.23,2.03,2.59,2.59,0,0,1-2.47-.11l-0.11-1.35-0.79-.45-0.67.9a2.308,2.308,0,0,1,.67,1.4,4.068,4.068,0,0,0,.56,1.52l-0.56,1.01v-0.9h-0.9l-0.33-1.91h-1.46l-0.23.9,0.79,0.45h-0.79a3.739,3.739,0,0,1-1.01-2.02l-0.56.56,0.68,0.11v0.79l-0.57-.34-1.57.23-1.23-.79-0.22.56a1.965,1.965,0,0,1-1.8-.45l-0.9,1.01-1.68.45a2.554,2.554,0,0,1-.9-1.68h-0.9l0.68,0.78-2.25,1.47-0.89,1.12q-4.155-.45-6.9-0.79a28.9,28.9,0,0,1-3.54-.56l-0.11-.34-4.83,3.15-3.02,4.17-1.24-1.02-4.15-4.27c-0.9-.52-1.55-0.92-1.96-1.18a2.437,2.437,0,0,0-1.29-.4,3.46,3.46,0,0,0-1.41.34,15.609,15.609,0,0,0-2.07,1.3c-0.9.63-2.32,1.78-4.27,3.43l-2.13,2.25-2.58-4.5-2.24-.57a1.055,1.055,0,0,0-.23.9l-0.89.45a15.561,15.561,0,0,0,1.12,2.14,6.005,6.005,0,0,1,.73,2.03,2.612,2.612,0,0,1-.45,2.25,11.639,11.639,0,0,0-1.4,2.25,4.527,4.527,0,0,0-.62,2.19c0.04,0.56.13,1.37,0.28,2.42l1.57,1.01,0.67,1.35-0.33.79,1.46,1.01,0.56,1.69,0.78,0.45,1.24,2.14a9.908,9.908,0,0,0,1.23.95,5.113,5.113,0,0,0,1.12.51,1.334,1.334,0,0,0,1.24-.17,16.631,16.631,0,0,1,1.57-.95c0.37-1.06.69-1.88,0.95-2.48a3.946,3.946,0,0,0-.22-2.7,19.2,19.2,0,0,0-1.46-3.26,14.872,14.872,0,0,1-1.24-2.65,12.411,12.411,0,0,0-1.17-2.47,2.314,2.314,0,0,1-.34-2.25,22.57,22.57,0,0,0,1.01-2.87c1.27-1.27,2.15-2.16,2.64-2.64a5.835,5.835,0,0,1,1.34-1.07c0.41-.23,1.03-0.57,1.85-1.02a9.278,9.278,0,0,0,1.24,1.41,3.669,3.669,0,0,1,.84,1.97,7.115,7.115,0,0,1,0,2.76,10.043,10.043,0,0,0-.28,2.08,2.558,2.558,0,0,0,.17,1.12,7.668,7.668,0,0,1,.39,1.13l3.59,3.26c0.67,0.97,1.35,1.99,2.02,3.04a20.147,20.147,0,0,0,1.51,2.14c0.34,0.37.96,1.04,1.85,2.02,0.53,0.23.98,0.41,1.35,0.56a1.348,1.348,0,0,0,1.29-.28,1.977,1.977,0,0,1,1.29-.45,8.026,8.026,0,0,0,1.57-.05,17.563,17.563,0,0,0,1.01-1.47,9.993,9.993,0,0,0,.79-1.91,3.707,3.707,0,0,0-.23-2.81q-0.675-1.47-1.17-2.31c-0.34-.56-0.85-1.4-1.52-2.53l-1.91-1.57a8.679,8.679,0,0,1-.61-1.52,5.773,5.773,0,0,1,.44-2.59,9.9,9.9,0,0,1,1.18-2.7,10.1,10.1,0,0,0,1.13-1.97c0.89,0.22,1.57.38,2.01,0.45a5.741,5.741,0,0,1,1.74.73c0.71,0.41,1.85,1.07,3.43,1.97l-1.35.67,2.24-.22-1.79.45a3.438,3.438,0,0,0,.73.45,8.2,8.2,0,0,0,2.13,0q1.845-.1,12.29,6.98l-0.12.45,1.69,0.9,0.11-.68,0.9,0.9,1.34,0.9,1.24,1.58,1.45,0.9,0.68,1.01,3.59,3.26a2.836,2.836,0,0,1,1.91.23l0.11-.34,1.34,0.45a5.905,5.905,0,0,0,2.02-.9c0.9,0.37,1.59.67,2.08,0.9a1.475,1.475,0,0,0,1.12.17,4.386,4.386,0,0,0,.84-0.51l1.57,0.68,1.13-1.47-0.23-1.12,1.12-.9c0.23-.45.4-0.79,0.51-1.01a0.853,0.853,0,0,0,.05-0.68c-0.07-.22-0.18-0.53-0.33-0.9l0.9-1.46-3.15-6.19c-1.19-.75-2.43-1.58-3.7-2.48s-2.04-1.31-2.3-1.23a4.246,4.246,0,0,1-1.06.11l0.44-1.24-1.01-1.24-0.67.23-0.22.45-0.12-.34-0.44.23-0.34-1.35,1.23-.57-0.89-.22a2.4,2.4,0,0,1,.28-0.84,1.812,1.812,0,0,0,.05-1.07,24.845,24.845,0,0,1-.11-2.82h-0.22v1.24l-0.79-.9-0.56-.22-0.23-.57Zm-0.56,3.27,0.34,0.67-0.45,1.13-1.46,1.23v-0.67l0.67-.23a3.216,3.216,0,0,1,.45-1.06,0.522,0.522,0,0,0,.17-0.45,1.245,1.245,0,0,1-.06-0.4Zm-83.59,3.6-1.57,2.25a12.615,12.615,0,0,0,3.59,1.46l2.13,3.38a7.839,7.839,0,0,0-.11,1.18,2.182,2.182,0,0,1-.78,1.29,2.123,2.123,0,0,0-.68,1.8,3.409,3.409,0,0,1-.28,1.86,2.159,2.159,0,0,0-.22,1.46,2.555,2.555,0,0,0,.39.9,8.892,8.892,0,0,0,.67.73l-0.22.45,1.12,0.34,0.79,1.35,1.23,0.79,4.26,5.06,2.36,1.91,0.56-.67a9.136,9.136,0,0,1,2.47-.34,3.016,3.016,0,0,1,1.12-1.91h0.68a13.224,13.224,0,0,0,.44-1.92,11.27,11.27,0,0,0-.28-2.98,45.3,45.3,0,0,0-1.12-4.72,14.285,14.285,0,0,0-1.29-3.38,18.246,18.246,0,0,1-1.23-2.3,47.752,47.752,0,0,1,5.83-7.32l-7.18,5.18-2.92-3.6c-1.94-1.05-3.31-1.8-4.09-2.25a3.51,3.51,0,0,0-1.85-.62c-0.45.04-1.05,0.05-1.8,0.05Zm133.41-67.51-0.11.34a3.348,3.348,0,0,0,.39.79,0.7,0.7,0,0,1,.17.34v0.22h-0.68a2.056,2.056,0,0,0,.34.85c0.15,0.18.32,0.41,0.5,0.67a2.641,2.641,0,0,0,.51.56,0.6,0.6,0,0,1,.22.51,5.776,5.776,0,0,0,.73.11,0.646,0.646,0,0,1,.4.23,11.329,11.329,0,0,0,.89.78l0.9,1.02,1.23,0.67a46.732,46.732,0,0,1,.34,8.55,134.6,134.6,0,0,1-12.96,4.11,22.983,22.983,0,0,1-3.92.51,4.9,4.9,0,0,1-1.8-.23,2.375,2.375,0,0,1-.67-0.39,1.118,1.118,0,0,0-.51-0.28h-0.22a3.069,3.069,0,0,1-.45-0.06c-0.23-.04-0.53-0.09-0.9-0.17l0.11,0.79-0.78.11,0.45,0.34-0.34.34a2.578,2.578,0,0,0,.45.67,1.2,1.2,0,0,1,.17.9q-0.06.675,4.99,5.85a12.713,12.713,0,0,0,1.63.96c0.41,0.18.89,0.41,1.46,0.67a2.087,2.087,0,0,0,1.45.23,4.715,4.715,0,0,1,1.86,0,9.8,9.8,0,0,0,2.35.05c0.75-.07,1.76-0.11,3.03-0.11a128.065,128.065,0,0,1-12.34,12.32q-5.055,4.215-7.24,6.08a11.014,11.014,0,0,1-2.63,1.91,5.226,5.226,0,0,0-1.24.39,1.536,1.536,0,0,0-.62-0.56,4.669,4.669,0,0,1-.5-0.23,1.194,1.194,0,0,0-.51-0.11,2.076,2.076,0,0,1-.61-0.11,2.053,2.053,0,0,0-.39.06,3.1,3.1,0,0,0-.68.22,1.942,1.942,0,0,0-.62.39h-0.89a6.062,6.062,0,0,0,.22,1.69l-0.56.11,0.11,0.34-0.56-.11-0.11.56-0.22-.45-0.45.23-0.12-.34-0.44.56,0.22,1.24-0.79.11v0.9l1.24,1.13a7.577,7.577,0,0,1,.22,1.35,0.858,0.858,0,0,0,.12.5c0.07,0.12.18,0.32,0.33,0.62a1.62,1.62,0,0,1-.05.4,2.354,2.354,0,0,0-.06.67,1.313,1.313,0,0,0,.34.9,1.556,1.556,0,0,1,.28,1.13,2.1,2.1,0,0,0,.22,1.23,1.888,1.888,0,0,1,.28.9,13.04,13.04,0,0,0,.11,1.3,10.179,10.179,0,0,0,1.18.11,1.663,1.663,0,0,1,.9.34,1.4,1.4,0,0,0,1.23.11,12.386,12.386,0,0,0,1.57-.62,9.669,9.669,0,0,0,1.69-1.01,22.938,22.938,0,0,0,2.41-2.2l0.34-.33,0.89-.45-1.34,1.46,0.9-.68v-0.33l0.56-.12,0.11-.56,0.11,0.23a1.414,1.414,0,0,1,.62-0.34,2.912,2.912,0,0,0,.61-0.23v0.12l0.45-.45h0.45v1.52a27.383,27.383,0,0,1-.95,4.27,26.553,26.553,0,0,1-2.02,5.51,27.34,27.34,0,0,1-1.4,2.42c-0.23.3-.49,0.68-0.79,1.13-0.45-.23-0.8-0.4-1.06-0.51a5.29,5.29,0,0,0-.9-0.28,3.3,3.3,0,0,1-.9-0.34,2.207,2.207,0,0,0-.79-0.28,0.975,0.975,0,0,0-.5,0,4.664,4.664,0,0,1-.45.17h0.9l0.22,0.34,0.23,0.11-0.11.23-0.34.22-0.67.68a7.406,7.406,0,0,0-1.91-.23v-0.45l0.22-.22-0.9.22-0.22,1.35,0.56,0.79-0.34.34a1.34,1.34,0,0,0,.23.33c0.07,0.08.09,0.13,0.06,0.17a0.423,0.423,0,0,0-.06.28,15.528,15.528,0,0,1-1.8-.11,1.722,1.722,0,0,0,.23.51,1.648,1.648,0,0,1,.22.84l-0.45-.34,0.12,0.57-0.34.33-0.22-.78-0.34.45-0.34.56,0.11,0.11,0.23-.22a3.893,3.893,0,0,0-.06,1.12,1.613,1.613,0,0,1,0,.62,3,3,0,0,0-.05.62,1.593,1.593,0,0,1-.12.62,1.322,1.322,0,0,0-.11.45,1.9,1.9,0,0,1-.11.5l0.34,0.68,0.89,0.79a1.27,1.27,0,0,0,.34.73,1.381,1.381,0,0,1,.34.84,7.225,7.225,0,0,1,.05,1.58,5.478,5.478,0,0,0,.06,1.46c0.07,0.37.15,0.97,0.22,1.8a0.7,0.7,0,0,0,.9,0l0.9,1.46c0.37,0.15.65,0.26,0.84,0.34s0.39,0.15.62,0.22a1.676,1.676,0,0,0,1.06-.17,5.282,5.282,0,0,1,1.18-.33,2.074,2.074,0,0,0,.96-0.45c0.33-.27,1.06-0.89,2.18-1.86a14.913,14.913,0,0,1,2.7-1.97,6.86,6.86,0,0,0,1.17-.67,7.036,7.036,0,0,1,.62-0.51v0.23a1.317,1.317,0,0,1,.62-0.4c0.18-.04,1.31-0.54,3.36-1.52a33.181,33.181,0,0,0,3.54-1.8l0.34,0.23,5.94-2.59,0.11-.11a3.334,3.334,0,0,0,.79,1.8,1.536,1.536,0,0,1,1.12-.23,1.182,1.182,0,0,0,.67,1.13,0.9,0.9,0,0,1-.22.67,0.9,0.9,0,0,0,.67-0.45l0.9,1.13,0.67-.79,0.56-.56,0.79,0.67a8.858,8.858,0,0,1,.67-0.62,1.037,1.037,0,0,1,.62-0.16,8.707,8.707,0,0,0,1.18-.12l0.56,0.79,0.56,0.11c0.07-.37.13-0.64,0.17-0.78a2.359,2.359,0,0,0-.23-1.02,9.841,9.841,0,0,0-.5-1.23,0.921,0.921,0,0,1,.11-0.96,1.663,1.663,0,0,0,.34-0.9,0.651,0.651,0,0,1,.22-0.56,0.758,0.758,0,0,0,.28-0.4c0.04-.15.1-0.33,0.17-0.56a21.143,21.143,0,0,1,2.75-1.07,11.822,11.822,0,0,1,1.85-.45,3.485,3.485,0,0,0,.96-0.22,2.886,2.886,0,0,1,.78-0.23,1.964,1.964,0,0,0,.84-0.39l0.34,0.11c0.3-.08.62-0.17,0.95-0.28a15.031,15.031,0,0,1,2.36-.39,20.88,20.88,0,0,1,3.81-.12,18.651,18.651,0,0,1,2.42.23,1.733,1.733,0,0,0,.73.05,0.573,0.573,0,0,1,.44.06c0.12,0.07.25,0.15,0.4,0.23l-2.36.22c1.5,0,2.58-.02,3.25-0.06a1.469,1.469,0,0,1,1.13.17,0.807,0.807,0,0,0,.56.34l-0.56.23,0.56,0.11-0.68.67h-1.96a6.725,6.725,0,0,0-1.46.12,10.484,10.484,0,0,1-1.85.11,27.3,27.3,0,0,1,4.83,1.35h-0.57l0.23,0.22,0.78,0.12c0.3,0.29.53,0.52,0.68,0.67a5.3,5.3,0,0,1,.5,1.86,3.128,3.128,0,0,1-.17,2.25,1.169,1.169,0,0,0-.05,1.35,4.169,4.169,0,0,1,.45,1.74,7.006,7.006,0,0,0,.5,2.19q0.45,1.185.51,1.35a1.62,1.62,0,0,1,.05.4l0.79,0.45,0.45,1.35a9.564,9.564,0,0,0,2.07.62,1.263,1.263,0,0,1,.9.39,3.427,3.427,0,0,0,.84.68c0.75-.08,1.29-0.14,1.63-0.17a2.222,2.222,0,0,0,.95-0.34,0.966,0.966,0,0,1,.96-0.06,4.091,4.091,0,0,1,.73.4,8.66,8.66,0,0,1,.67.62,3.433,3.433,0,0,1,1.01-.34l0.11-.79,0.67,0.34,0.23,0.34a2.465,2.465,0,0,0,1.79.22,2.351,2.351,0,0,1-.33-0.79,2.852,2.852,0,0,1-.12-0.62,1.036,1.036,0,0,0-.22-0.5l0.56-.23a6.913,6.913,0,0,1,.45-1.57,0.659,0.659,0,0,0,.06-0.68,1.633,1.633,0,0,1-.28-0.56l0.33-.11a1.439,1.439,0,0,0,1.12,0l0.34-.68-0.34-1.57,0.45-.45-0.33-.11a1.149,1.149,0,0,1,.22-0.45,0.215,0.215,0,0,0,.06-0.23,1.1,1.1,0,0,1-.06-0.45l0.34-.11c0-1.2.01-2.07,0.05-2.59a0.977,0.977,0,0,0-.11-0.84,0.543,0.543,0,0,1-.28-0.28,1.929,1.929,0,0,0,0-.9h-0.22v-2.14h-0.34q0.45-14.625.56-15.36a4.356,4.356,0,0,1,.56-1.52,5.1,5.1,0,0,1,1.35-.45,2.712,2.712,0,0,1,.17-1.01,1.861,1.861,0,0,0-.73-1.46,8.684,8.684,0,0,1-1.13-1.47c-0.15-.29-0.33-0.71-0.56-1.23a13.623,13.623,0,0,1-1.23-1.18,2.131,2.131,0,0,0-1.01-.62,3.542,3.542,0,0,1-1.35-.9,3.4,3.4,0,0,0-2.02-.85,12.538,12.538,0,0,1-2.86-.73,6.779,6.779,0,0,1-2.13-1.12,4.7,4.7,0,0,0-.95-0.73,6.357,6.357,0,0,1-.79-0.51,3.705,3.705,0,0,0-1.18-.56,2.605,2.605,0,0,0-1.74.17,3,3,0,0,1-2.13,0,2.616,2.616,0,0,0-1.29-.29,4.766,4.766,0,0,0-.5.45l-0.34.57-1.35.11-0.11.67-0.45.23v0.45l0.56,0.34-0.56.78,0.56,0.9a6.31,6.31,0,0,0,1.01.34,2.748,2.748,0,0,1,1.13.85c0.45,0.48,1.27,1.29,2.46,2.41a18,18,0,0,0,.62,2.2,4.643,4.643,0,0,1,.28,1.69c0,0.63.08,1.78,0.23,3.43a1.9,1.9,0,0,1-.45-0.34,1.558,1.558,0,0,0-1.18-.06,2.476,2.476,0,0,1-1.68-.22,3.9,3.9,0,0,0-1.57-.45,11.8,11.8,0,0,1-2.58-.62c-1.16-.37-2.23-0.75-3.2-1.13l0.11,0.45a6.525,6.525,0,0,1-2.13-.11,1.215,1.215,0,0,0-.45,1.35c-3.59.3-5.69,0.49-6.28,0.56a17.658,17.658,0,0,0-2.14.45,1.348,1.348,0,0,1-.22-0.78l-0.11.11a4.1,4.1,0,0,1,.22-0.56,0.266,0.266,0,0,0,0-.34,0.911,0.911,0,0,1-.11-0.56l-0.22-.12a5.287,5.287,0,0,0-.34-0.9l0.34-.22-0.12-.56h0.12l0.11,0.33,0.11-.9-0.34.45a6.309,6.309,0,0,1,.45-2.36l0.23,0.11v-0.56a0.482,0.482,0,0,0-.17-0.28,0.78,0.78,0,0,1-.17-0.56,2.538,2.538,0,0,1,.28-1.01,1.3,1.3,0,0,0,.17-0.9,1.529,1.529,0,0,1,.11-0.96h0.23a1.659,1.659,0,0,1,0-1.24l0.11,0.11a27.631,27.631,0,0,1,.33-2.75c0.15-.86.27-1.45,0.34-1.75s0.15-.74.23-1.35a4.429,4.429,0,0,1,1.9-.67l0.23-.34a42.676,42.676,0,0,0,4.37-1.8v0.11c0.45-.3.84-0.54,1.18-0.73a7.882,7.882,0,0,1,1.57-.56,23.051,23.051,0,0,0,3.42-1.41l0.34,0.34,0.34-.34h0.67a1.192,1.192,0,0,0,.56-0.11,2.4,2.4,0,0,1,.96-0.06,2.119,2.119,0,0,0,1.34-.33,2.19,2.19,0,0,1,.84-0.4,0.934,0.934,0,0,0,.45-0.11v-0.9l0.56,0.34,0.56-.45,0.45-.56a0.455,0.455,0,0,0,.34-0.12,0.55,0.55,0,0,1,.39-0.11,1.075,1.075,0,0,0,.56-0.17,0.676,0.676,0,0,1,.51-0.11c0.15,0.04.37,0.09,0.67,0.17l0.67-.56a1.689,1.689,0,0,1,.57-0.68l-1.01-.45,0.33-.45a3.133,3.133,0,0,1,1.57-.45l-0.11-.34-1.91-1.46-0.11-.67-2.13-2.03-0.11.56a5.372,5.372,0,0,1-.96-0.22,8.493,8.493,0,0,1-.78-0.4,1.185,1.185,0,0,0-.9-0.16,2.383,2.383,0,0,1-.9.05,1.616,1.616,0,0,1-.73-0.22,1.173,1.173,0,0,0-.73-0.17,4.517,4.517,0,0,1-1.68-.62,2.735,2.735,0,0,0-1.35-.51,2.165,2.165,0,0,1-.5.23l-0.56-.45v-0.34a1.926,1.926,0,0,0-.9,0v0.23h0.23l-0.23.22h-1.23c-0.3,0-.45-0.04-0.45-0.11v0.56a3.743,3.743,0,0,1-1.8.23l1.24,0.56-0.45.11,0.11,0.23c-0.6-.15-1.03-0.27-1.29-0.34a0.513,0.513,0,0,0-.5,0,0.375,0.375,0,0,1-.23.11,5.737,5.737,0,0,0-.22,1.58,0.4,0.4,0,0,0-.56,0,4.6,4.6,0,0,1-1.13.61,9.829,9.829,0,0,1-1.9.62l-0.12-.11c0.23-1.8.4-3.04,0.51-3.71a6.355,6.355,0,0,1,.45-1.63c0.18-.41.5-1.07,0.95-1.97l0.34-.11a1.626,1.626,0,0,1-.11.67h0.22l0.11,0.45a3.1,3.1,0,0,0,2.25-.67l0.33-.68,0.12,0.68a6.75,6.75,0,0,1,1.06-.29,1.835,1.835,0,0,0,.79-0.33,2.66,2.66,0,0,1,1.34-.34,3.286,3.286,0,0,0,1.8-.68,2.188,2.188,0,0,1,1.4-.56,1.181,1.181,0,0,0,.95-0.28,8.051,8.051,0,0,0,.62-0.56,0.5,0.5,0,0,1-.11-0.34,0.822,0.822,0,0,0-.28-0.51,1.173,1.173,0,0,1-.06-1.12,1.735,1.735,0,0,0-.17-1.46c-0.26-.41-0.61-1.03-1.06-1.86l-1.24-1.01-1.34-2.03-0.23.23c-0.67-.45-1.19-0.81-1.57-1.07a2.643,2.643,0,0,0-1.34-.45,18.483,18.483,0,0,1-2.36-.4v-0.33a0.5,0.5,0,0,1,.22-0.4,3.773,3.773,0,0,0,.68-0.84l1.46-.68a2.638,2.638,0,0,1,.11-2.02,6.545,6.545,0,0,1-.28-1.01,1.756,1.756,0,0,0-.45-0.79,21.156,21.156,0,0,1-1.29-1.8,8.312,8.312,0,0,1-1.07-.62,10.188,10.188,0,0,1-1.06-.96,13.494,13.494,0,0,0-1.41-1.23,2.181,2.181,0,0,0-1.29-.57,1.482,1.482,0,0,1-1.06-.5,1.857,1.857,0,0,0-1.24-.56,13.67,13.67,0,0,1-2.3-.51l-1.12-1.46c-0.22-.08-0.45-0.15-0.67-0.23a1.283,1.283,0,0,0-.95.23,2.769,2.769,0,0,1-1.91,0,5.361,5.361,0,0,0-1.69-.28,6.387,6.387,0,0,1-.72.05,9.169,9.169,0,0,1-2.47.11h0Zm4.6,33.76-0.56,5.28q-6.405,3.15-8.98,4.28c-1.72.75-2.97,1.29-3.76,1.63s-1.7.73-2.75,1.18c0.9-.9,1.57-1.55,2.02-1.97a3.724,3.724,0,0,1,1.01-.73l0.34-.56,2.36-1.58,0.33-.45,0.34-.11v-0.45l0.45-.11,0.22-.23-0.34-.11c0.23-.15.62-0.43,1.18-0.84a1.643,1.643,0,0,1,1.07-.51l-0.11.23a6.2,6.2,0,0,1,.45-0.62,3.3,3.3,0,0,0,.33-0.51,1.954,1.954,0,0,0,1.01-.34l0.11-.67,0.57-.23v0.23a6.4,6.4,0,0,0,1.9-1.35l0.34,0.22,0.11-.11-0.34-.11a4.485,4.485,0,0,0,2.59-1.58Zm-2.81,30.15-1.9-1.24,0.22,0.56-0.22.23-0.57-.45,2.25,2.25-0.23.45-1.45-1.02,0.11,0.9a5.7,5.7,0,0,1-2.02-1.35l2.47,2.7-2.92-2.36-0.79-1.01-0.78-.34c0.74,0.75,1.27,1.26,1.57,1.52a2.507,2.507,0,0,1,.56.62,9.327,9.327,0,0,1,.34.9l0.11-.23-0.45-.78,1.91,1.68-0.23.34-0.89-.79,0.56,1.24h-0.45a2.753,2.753,0,0,1,.17.45,1.29,1.29,0,0,0,.16.4,4.766,4.766,0,0,0,.45.5l-0.33.34-0.34-.23a14.6,14.6,0,0,1-2.92-3.48l-0.33-.12,0.11,0.45-0.68-.78q1.8,2.13,3.6,4.5l-1.24.22c-0.75-.9-1.29-1.57-1.63-2.02s-0.69-.98-1.06-1.58-1.01-1.61-1.91-3.04q1.8,3.945,2.58,5.35c0.52,0.94.82,1.48,0.9,1.63a59.039,59.039,0,0,1-6.51,2.14,9.879,9.879,0,0,1,.06-1.24c0.03-.3.15-0.94,0.33-1.91a8.832,8.832,0,0,0,.17-2.59,9.566,9.566,0,0,0-.28-1.69,4.261,4.261,0,0,1-.11-1.46,13.4,13.4,0,0,0-.28-2.81c-0.23-1.28-.34-2.01-0.34-2.2a1.192,1.192,0,0,1,.23-0.62c2.02-1.05,4.07-2.09,6.17-3.15l0.33,0.45,0.23-.11h-0.34l0.23-.45,0.78-.11-0.56.56c0.45-.3.73-0.49,0.84-0.56a2.473,2.473,0,0,1,.62-0.23c0.3-.07.52-0.13,0.67-0.16a0.832,0.832,0,0,0,.34-0.17,1.243,1.243,0,0,1,.34-0.23l0.11-.34,0.34,0.23a7.7,7.7,0,0,1,2.13-1.01l0.45-.34c0.14,0.07.29,0,.44-0.23q-0.33,5.97-1.12,11.82h0Zm-6.17-8.55a9.192,9.192,0,0,1-1.06.56c-0.49.22-1,.45-1.52,0.67l0.11,0.12c0.6-.3,1.13-0.55,1.57-0.73a3.046,3.046,0,0,0,.9-0.51v-0.11Zm14.36,4.72-0.56,2.36a4.4,4.4,0,0,1,.45-2.36h0.11Zm38.71,20.82a3.188,3.188,0,0,1,0,1.68,3.393,3.393,0,0,0-.22-0.39,0.346,0.346,0,0,1,0-.39,3.011,3.011,0,0,0,.11-1.02Zm-48.36.67-0.22.23a22.488,22.488,0,0,1-2.3.9c-0.71.22-1.78,0.61-3.2,1.18s-2.62,1.03-3.59,1.4a81.77,81.77,0,0,1,9.2-3.93Zm48.25,2.36,0.11,0.79,0.23,0.11c-0.08.45-.15,0.83-0.23,1.13l-0.45-.23v-1.57Zm56.1-83.7,0.34,0.67a1.738,1.738,0,0,1-.68-0.28,0.659,0.659,0,0,0-.61-0.05,0.827,0.827,0,0,1-.79-0.23,1.726,1.726,0,0,0-.95-0.39,2.445,2.445,0,0,0-1.35.34c-0.52.26-1.35,0.61-2.47,1.06l-0.56,1.58,0.67,1.12a11.141,11.141,0,0,0,5.28,2.93,14.316,14.316,0,0,0,1.62,1.97q0.84,0.84,3.54,18.51-13.125,4.38-16.61,4.89a31.1,31.1,0,0,1-5.05.45,17.13,17.13,0,0,1-2.18-.17,5.649,5.649,0,0,1-1.52-.56l-0.45,1.24a42.9,42.9,0,0,0,5.28,6.97,2.431,2.431,0,0,0,1.17-.51,2.4,2.4,0,0,1,1.74-.22,11.956,11.956,0,0,1,2.36.56,6.191,6.191,0,0,0,2.86.17,11.359,11.359,0,0,0,2.3-.45,2.716,2.716,0,0,1,1.01-.22,2.607,2.607,0,0,0,.9-0.17,17.584,17.584,0,0,1,2.75-.45,16.008,16.008,0,0,1,3.36-.17,2.124,2.124,0,0,0,1.69-.45,1.721,1.721,0,0,1,1.12-.56,5.023,5.023,0,0,0,1.29-.23q1.005,5.52,1.29,7.09a26.86,26.86,0,0,0,1.06,3.88q0.795,2.31,2.19,8.1a105.012,105.012,0,0,0,3.7,11.93,107.972,107.972,0,0,0,5,11.36,71.558,71.558,0,0,0,5.21,8.77c1.69,2.37,2.49,4.04,2.42,5.01a33.526,33.526,0,0,0,0,4.05h0.56l0.33,1.8,0.45,0.23,0.9,1.46v-0.68l0.56,0.34,0.11,1.24a6.363,6.363,0,0,0,1.29.06,0.837,0.837,0,0,1,.68.16,1.208,1.208,0,0,0,.78.23,1.507,1.507,0,0,1,1.07.67,4.1,4.1,0,0,0,1.18,1.02,7.006,7.006,0,0,1,1.62,1.46l1.01,1.12,2.92-1.46c0.82-.9,1.5-1.59,2.02-2.08a10.192,10.192,0,0,0,1.74-3.83,47.253,47.253,0,0,0,1.29-4.89,6.712,6.712,0,0,0,.06-2.81,6.359,6.359,0,0,1,.11-2.87,8.484,8.484,0,0,0,.28-2.53,4.677,4.677,0,0,0-.17-0.79,0.487,0.487,0,0,1-.06-0.22l-0.56,1.46q-0.1-.345-0.33-4.56a34.032,34.032,0,0,0-.56-5.45,4.856,4.856,0,0,1-.23-1.92,5.814,5.814,0,0,0-.05-1.74,5.069,5.069,0,0,0-.57-1.75,1.955,1.955,0,0,1-.33-1.18,7.7,7.7,0,0,0,0-1.18,1.781,1.781,0,0,0-.28-0.95,0.641,0.641,0,0,1-.12-0.62,4.8,4.8,0,0,0-.44-1.97,12.63,12.63,0,0,1-.68-3.21,4.073,4.073,0,0,0-.56-2.14,4.407,4.407,0,0,1-.62-2.13c-0.11-1.05-.24-2.37-0.39-3.94a25.649,25.649,0,0,0-.45-3.26q-0.225-.9-0.45-2.37c0.08,2.93.17,5.27,0.28,7.04s0.19,2.83.23,3.2,0.06,1.05.06,2.03a22.886,22.886,0,0,1-1.01-6.87v7.32c-0.23-.6-0.49-1.28-0.79-2.03l-0.22-.11a10.613,10.613,0,0,0,.61,1.8,10.787,10.787,0,0,1,.51,1.35,5.638,5.638,0,0,1,0,1.57l-0.56-1.12a9.058,9.058,0,0,0,.28,1.57,17.943,17.943,0,0,1,0,3.66c-0.11,2.06-.38,4.67-0.79,7.82a31.251,31.251,0,0,1-1.18,6.13c-0.37.94-.82,2.12-1.34,3.55l0.78-3.6-0.67-.68q-0.57,2.25-.84,3.09a7.359,7.359,0,0,1-.39,1.02c-0.08.11-.27,0.35-0.57,0.73l-4.6-6.08-0.33.68c-0.3-.45-1.4-2.2-3.31-5.23a63.117,63.117,0,0,1-4.88-9.4q-2.025-4.83-3.76-10.52a88.6,88.6,0,0,1-2.53-10.07q-0.78-4.38-.95-6.75a8.993,8.993,0,0,1,0-2.64c0.11-.19.21-0.36,0.28-0.51a33.922,33.922,0,0,0,4.49-1.35,4.387,4.387,0,0,1,2.52-.33,10.958,10.958,0,0,1,2.42.78,3.175,3.175,0,0,0,1.73.45c0.34-.07.73-0.15,1.18-0.22a5.718,5.718,0,0,1,1.12-2.03,4.75,4.75,0,0,0,1.01-1.68l1.01-.45c-1.27-1.43-2.46-2.85-3.59-4.28-1.42-.67-2.48-1.18-3.19-1.52a4.892,4.892,0,0,0-2.53-.39,2.4,2.4,0,0,1-2.13-.68,2.114,2.114,0,0,0-1.23-.84,4.473,4.473,0,0,1-1.46-.51l-0.34.45-0.34-1.57-1.57-.45c0-1.8.04-3.38,0.12-4.73a8.715,8.715,0,0,1,.39-2.64,6.518,6.518,0,0,0,.28-2.31l0.78-.34c-1.12-2.09-1.94-3.54-2.46-4.33a13.574,13.574,0,0,0-1.58-1.97c-0.52-.52-1.3-1.38-2.35-2.58a18.743,18.743,0,0,1-2.97-1.07,21.516,21.516,0,0,1-2.3-1.07,4.066,4.066,0,0,1-2.36.45h0Zm-33.55,9.17a9.5,9.5,0,0,0,.67,2.3,6.83,6.83,0,0,0,1.74,2.76,37.079,37.079,0,0,1,2.98,3.21l1.57,1.12-12.68,14.29,0.22,0.34,1.8-1.58v0.9c2.32-2.17,4.06-3.75,5.22-4.72a5.57,5.57,0,0,1,2.07-1.41,1.433,1.433,0,0,0,.68-0.05l-0.12-.45a1.84,1.84,0,0,0,.56-0.29,1.539,1.539,0,0,1,.85-0.16,4.871,4.871,0,0,0,2.18-1.3,4.685,4.685,0,0,1,2.3-1.29,11.774,11.774,0,0,0,1.97-.23v0.9a14.025,14.025,0,0,0,2.63-.39,4.765,4.765,0,0,1,2.42.06,2.907,2.907,0,0,1,1.79,1.01,0.922,0.922,0,0,0,1.07.5,5.552,5.552,0,0,1,1.85-.05l0.78-1.01-1.12-2.82q-2.46-2.475-3.59-3.6a24.384,24.384,0,0,0-2.36-2.08,9.745,9.745,0,0,0-2.01-1.29,20.676,20.676,0,0,1-2.14-1.13,6.219,6.219,0,0,1-1.29.68,6.861,6.861,0,0,1-3.03-.45,9.394,9.394,0,0,1-4.43-2.93,11.041,11.041,0,0,0-2.19-2.19,0.477,0.477,0,0,1-.39-0.06v1.41Zm62.95-.85,0.33,0.45a1.658,1.658,0,0,0-.84.23c-0.26.15-.47,0.26-0.62,0.34a1.064,1.064,0,0,1-.45.11l0.68,1.01a0.686,0.686,0,0,1-.62.17c-0.26-.04-0.69-0.13-1.29-0.28l1.01,1.24-1.12-.68a22.81,22.81,0,0,0,1.34,2.03,23.678,23.678,0,0,0,1.86,2.25c0.63,0.67,1.73,1.95,3.31,3.82l1.01,0.9,2.13,3.27q1.455,1.125,2.07,1.68a1.873,1.873,0,0,0,.84.57h0.57l0.33,0.56c0.52,0.37,1.09.75,1.68,1.12l2.92-2.25,0.68-1.35,1.12-.33,0.33-.57,1.91,0.68,0.56-1.46a6.863,6.863,0,0,1-1.91-3.04l0.57-.45v-1.47c-1.57-1.42-2.75-2.53-3.54-3.31a8.932,8.932,0,0,0-3.81-1.97,40.41,40.41,0,0,1-5-1.86,18.536,18.536,0,0,0-3.25-1.24c-0.6-.11-1.42-0.24-2.47-0.39h0Zm-64.07,23.63a19.546,19.546,0,0,1-4.38,1.86,51.346,51.346,0,0,0-9.08,4.5c-3.75,2.21-5.73,3.34-5.95,3.37a1.686,1.686,0,0,0-.67.28l0.11,2.59a25.787,25.787,0,0,0,2.8,1.91,15.1,15.1,0,0,0,2.25,1.02,7,7,0,0,0,3.03.28,22.652,22.652,0,0,0,5.33-1.52,18.9,18.9,0,0,1,4.37-1.35,1.9,1.9,0,0,0,1.12-.23,2.228,2.228,0,0,1,1.01-.33,9.873,9.873,0,0,0,2.08-.68q-2.13,13.17-2.69,17.61c-0.38,2.96-1.01,4.84-1.91,5.62a4.121,4.121,0,0,0-1.52,2.48,3.24,3.24,0,0,1-.33,1.4,0.993,0.993,0,0,0-.28.57c0.22,0.3.43,0.56,0.61,0.78a2.672,2.672,0,0,1,.28,1.52,4.7,4.7,0,0,0,.57,2.25,9.763,9.763,0,0,0,1.29,1.92,33.168,33.168,0,0,1,2.07,2.87l0.79,0.22,0.67,1.35,2.69-1.69q1.35-2.475,2.7-5.28l-0.9.45,0.33-1.47c-0.07-.22-0.15-0.43-0.22-0.62a2.2,2.2,0,0,1,.11-1.12,8.015,8.015,0,0,1,.9-1.97,5.1,5.1,0,0,0,.73-1.58,7.515,7.515,0,0,0,.06-1.01l0.44-.22a48.019,48.019,0,0,1,2.47-7.88l-0.67-.79,1.12-2.36q1.23,0.675,1.68.96a1.771,1.771,0,0,0,1.29.11,5.909,5.909,0,0,0,2.25-1.29,7.75,7.75,0,0,1,3.53-1.52,13.166,13.166,0,0,0,3.48-1.07c0.9-.45,2.09-1.05,3.59-1.8a5.532,5.532,0,0,0,.06.84q0.045,0.405-4.55,13.33l-2.02,1.47c-0.44.6-.74,1.03-0.89,1.29a5.477,5.477,0,0,0-.4,1.63,8.12,8.12,0,0,1-.5,2.03,5.543,5.543,0,0,0,.62,1.29,0.719,0.719,0,0,1,.16.68,2.457,2.457,0,0,0-.11.84l2.13,1.69,1.13,1.69a0.846,0.846,0,0,0,.5.05,1.022,1.022,0,0,1,.67.45,18.7,18.7,0,0,0,1.86,1.52l2.13-.56c2.17-2.78,3.72-4.63,4.65-5.57a9.194,9.194,0,0,0,1.97-2.7c0.37-.86.97-2.08,1.79-3.66l-0.56-.34,0.34-.45-0.9.9a19.017,19.017,0,0,1,2.92-6.07l-0.45-.11a4.5,4.5,0,0,1,.05-0.85,0.51,0.51,0,0,0-.05-0.39,0.776,0.776,0,0,0-.45-0.34,24.311,24.311,0,0,0,2.13-7.65l0.34,0.23,0.67-2.14-0.56.56,0.56-1.24,0.56-.11a7.917,7.917,0,0,1,1.12-3.04h-0.33q-9.435,14.85-10.89,16.26t-3.59,3.43l-0.78.79a32.852,32.852,0,0,1,1.01-3.54,18.911,18.911,0,0,1,1.01-2.09c0.45-.82,1.08-2.06,1.91-3.71a74.9,74.9,0,0,0,3.14-8.04q1.905-5.565,1.74-6.02c-0.12-.3-0.25-0.64-0.4-1.01a44.822,44.822,0,0,1-6.17-1.8c-0.6.52-1.48,1.29-2.63,2.3s-5.26,3.47-12.29,7.37l-0.22.45v-0.9a2.437,2.437,0,0,1-2.25.79l-1.46,1.46-0.56.34a2.2,2.2,0,0,1,.23,1.91l0.33,0.68-5.38,7.31-0.23-.79a4.05,4.05,0,0,1,.51-1.4,1.434,1.434,0,0,0,.28-0.79,0.655,0.655,0,0,0-.23-0.56,1.7,1.7,0,0,1-.44-0.62,7.686,7.686,0,0,1,1.12-3.94l0.11,1.46c0.3-1.57.54-2.68,0.73-3.32a1.905,1.905,0,0,0,.17-1.01,0.28,0.28,0,0,1-.12-0.28l-0.33,1.57a9.784,9.784,0,0,0,.17-1.96,1.142,1.142,0,0,1,.39-0.96,3.658,3.658,0,0,0,.67-1.91,27.638,27.638,0,0,1,1.07-4.05,13.3,13.3,0,0,1,1.18-2.99,1.59,1.59,0,0,0,.39-0.73,3.112,3.112,0,0,1,.5-1.01,3.708,3.708,0,0,1,1.13-.67l-0.23-.68,1.46-2.92-1.91-2.03-0.11-.67a3.75,3.75,0,0,0-1.74-.62,6.927,6.927,0,0,1-2.07-.57,18.966,18.966,0,0,0-2.3-.78,4.368,4.368,0,0,1-1.58-.68,0.817,0.817,0,0,0-.72-0.28C4785.61,7219.84,4784.83,7220.44,4784.23,7220.89Zm42.07,9.79a4.613,4.613,0,0,1-.67-4.16Zm5.28,0.62a23.171,23.171,0,0,0,.33,2.36c0.23,1.31.47,2.46,0.73,3.43a2.936,2.936,0,0,0,.96,1.8l-0.45,1.69a5.668,5.668,0,0,1-1.01-3.94l-0.23.56a15.381,15.381,0,0,1-.67-6.86A1.952,1.952,0,0,1,4831.58,7231.3Zm-2.98,9.62a2.371,2.371,0,0,1,.12.9,1.74,1.74,0,0,0-.06.45c-0.22-1.05-.37-1.75-0.45-2.08a2.334,2.334,0,0,1-.05-0.85,5.035,5.035,0,0,0,.05-0.67Q4828.435,7240.245,4828.6,7240.92Zm0.73,2.02,1.46,5.18-0.56-.34c-0.07-.45-0.13-0.81-0.17-1.07a4.211,4.211,0,0,0-.45-1.18,19.53,19.53,0,0,1-.84-2.03Zm4.94,1.91q0.555,0.915.84,1.35c0.19,0.3.23,0.51,0.11,0.62a0.906,0.906,0,0,0-.16.62l-0.45-.45-0.45-2.25Zm-22.66,8.44-1.35,3.49a3.224,3.224,0,0,1,.79-0.9,0.816,0.816,0,0,0,.33-0.73,7.224,7.224,0,0,1,.45-1.86h-0.22Zm43.64,12.6h0.45q0-1.575.06-2.19a17.025,17.025,0,0,1,.33-1.91,3.918,3.918,0,0,0,.06-1.97Zm45.89-72.68v1.13a2.886,2.886,0,0,0,.73,1.41,17.662,17.662,0,0,0,1.4,1.63,9.167,9.167,0,0,1,.96,1.07c0.18,0.26.5,0.65,0.95,1.18a5.189,5.189,0,0,0,.79.33,3.481,3.481,0,0,1,.89.57l2.13,1.68a5.537,5.537,0,0,0,1.63-.5,2.681,2.681,0,0,1,1.8.05,19.5,19.5,0,0,0,4.43.34c2.09,0,3.49-.24,4.21-0.73s1.51-.99,2.41-1.52a11.918,11.918,0,0,0-.84,2.08q-0.285.96-4.49,5.46t-14.53,16.31l-4.94,3.72a21.658,21.658,0,0,1-2.24-.62,3.92,3.92,0,0,0-1.57-.23c-0.53.04-1.27,0.13-2.25,0.28a9.428,9.428,0,0,1,1.01-1.52c0.3-.33.86-0.9,1.69-1.68s2.09-2.2,3.81-4.22h0.45l-0.22.34,2.02-1.8,0.22-.57-0.79.79-0.44-2.02-3.26-2.03a2.172,2.172,0,0,1-.95.51,3.646,3.646,0,0,0-.96.33c-0.37.19-1.27,0.55-2.69,1.07s-3.1,1.17-5.05,1.92q0.675-4.95.84-6.87a16.811,16.811,0,0,1,.85-3.88,5.7,5.7,0,0,1,1.29-2.47,9.878,9.878,0,0,0,1.51-1.75c-0.07-.6-0.19-1.27-0.34-2.02l0.68-.68c-0.3-.15-1.5-0.6-3.59-1.35a18.931,18.931,0,0,1-3.71-1.57c-0.67.37-1.19,0.65-1.57,0.84a6.569,6.569,0,0,0-1.46,1.18,20.994,20.994,0,0,1-4.82,2.76,27.874,27.874,0,0,1-6.23,2.3,6.056,6.056,0,0,1-2.91.17c-0.42-.18-0.88-0.39-1.41-0.62a9.671,9.671,0,0,0,.06,1.3,1.4,1.4,0,0,1-.17.84,2.947,2.947,0,0,0,.11,1.75,3.948,3.948,0,0,0,1.18,2.02,32.3,32.3,0,0,1,2.53,2.65,12.771,12.771,0,0,0,1.34-.06,17.752,17.752,0,0,0,3.14-1.13,27.975,27.975,0,0,0,3.93-1.91c0.9-.56,2.02-1.25,3.37-2.08l-1.57,13.16q-4.6,1.8-7.58,2.65a38.451,38.451,0,0,0-7.35,3.2q-4.365,2.37-5.33,2.76-0.945.39-2.07,0.84l-0.34.45q1.23,1.35,1.74,1.86a11.238,11.238,0,0,1,1.01,1.18,8.283,8.283,0,0,1,.84,1.35,7.635,7.635,0,0,0,1.35,1.69l-0.45.22a1.614,1.614,0,0,0,.73.06,1.485,1.485,0,0,1,.95.51,1.541,1.541,0,0,0,1.24.45,7.847,7.847,0,0,1,1.57-.12l0.78-2.81,3.59-2.02c0.98,1.5,1.67,2.51,2.08,3.03a11.4,11.4,0,0,1,1.01,1.52,2.758,2.758,0,0,1,.39,1.18,4.855,4.855,0,0,0,.23,1.24l-2.92,2.7a3.674,3.674,0,0,1-1.35-.22,1.624,1.624,0,0,0-1.46.39,3.447,3.447,0,0,1-1.12.62h-0.45a2.662,2.662,0,0,0-1.12,2.14,2.276,2.276,0,0,0-1.68.67l1.12,1.24-1.01,1.46a3.159,3.159,0,0,0,.51,1.13,2.816,2.816,0,0,1,.44,1.18,10,10,0,0,0,.57,1.8,14.245,14.245,0,0,1,.61,1.85,20.169,20.169,0,0,0,1.12,2.93h2.08q0.84,0,3.93-2.7c2.05-1.8,3.19-2.77,3.42-2.93l0.22-.56,0.45,0.45,5.16-3.82-0.78.22,2.02-1.35-0.45.45,1.12-1.01,2.13-1.91a1.189,1.189,0,0,1-.56-0.12,0.643,0.643,0,0,0-.56.06,10.869,10.869,0,0,0-1.01.62l1.35-1.24a26.58,26.58,0,0,0,.84-2.87,3.691,3.691,0,0,1,1.01-1.74,28.413,28.413,0,0,0,2.52-3.49c-0.97.68-1.68,1.17-2.13,1.46a2.217,2.217,0,0,1-1.18.45,6.3,6.3,0,0,0-1.4.23l0.45-5.06a26.872,26.872,0,0,0,2.13-2.14,2.777,2.777,0,0,1,1.01-.85c0.3-.11.67-0.28,1.12-0.5l-0.22-.56,0.56,0.33-0.22.57-0.34.33v1.47l1.79,1.57c0.53,1.95.86,3.36,1.01,4.22a3.6,3.6,0,0,0,1.07,2.08c0.56,0.53,1.4,1.39,2.52,2.59a16.246,16.246,0,0,1,2.14-.06,5.326,5.326,0,0,0,2.69-1.07,16.679,16.679,0,0,0,2.07-1.4,1.688,1.688,0,0,1,.62-0.4l-8.08,13.05,0.68-2.58q-1.8,2.7-3.37,5.4l-0.79.22a20.693,20.693,0,0,0-.67,2.25l-1.46,1.01-0.56-.9-0.45.45,1.01,0.9a4.687,4.687,0,0,0-1.12,2.59l-0.9-.45a6.766,6.766,0,0,0,.79,1.3,1.252,1.252,0,0,1,.22,1.07,3.5,3.5,0,0,0,.12,1.51,2.3,2.3,0,0,1-.23,1.69,3.3,3.3,0,0,0-.11,2.31,9.205,9.205,0,0,0,.73,2.19c0.26,0.49.65,1.14,1.18,1.97,0.67,0.37,1.17.64,1.51,0.79a1.6,1.6,0,0,0,.84.17c0.23-.04.49-0.1,0.79-0.17l1.79-1.91,1.35,0.56,0.45,1.35a2.189,2.189,0,0,1,1.34-.9,33.622,33.622,0,0,0,1.01-4.95l-0.56-.23a4.576,4.576,0,0,0,.62-1.52,13.042,13.042,0,0,1,.51-1.91,27.3,27.3,0,0,1,1.68-3.88c0.82-1.65,1.61-3.41,2.35-5.29l0.9-.79a1.082,1.082,0,0,1,.17-0.84,11.252,11.252,0,0,1,1.01-1.41,11.847,11.847,0,0,0,1.29-1.91,12.8,12.8,0,0,1,1.29-1.91,11.535,11.535,0,0,0,1.29-1.97,40.809,40.809,0,0,1,2.25-3.54v0.45q1.9-2.82,2.91-4.33a10.411,10.411,0,0,0,1.07-1.8,0.543,0.543,0,0,1,.39-0.4l0.79-.34q-1.35,11.04-1.97,13.39-0.615,2.37-1.62,7.09l-3.93,2.92a15.138,15.138,0,0,1-.95,2.14,4.721,4.721,0,0,0-.62,2.93,4.652,4.652,0,0,0,.62,1.8,1.732,1.732,0,0,1,.39.84,5.981,5.981,0,0,0,.11.96l1.23,1.12a21.733,21.733,0,0,0,.28,2.7,11.252,11.252,0,0,0,.51,1.63c0.22,0.57.63,1.48,1.23,2.76a6.327,6.327,0,0,0,1.24,1.01,1.769,1.769,0,0,0,1.34.17,5.457,5.457,0,0,0,1.58-.62,9.619,9.619,0,0,1,2.58-.84,27.557,27.557,0,0,1,4.54-.51,21.241,21.241,0,0,1,4.77.28c1.34,0.27,2.28.44,2.8,0.51l-0.56.45c1.2-.22,2.13-0.39,2.81-0.51a3.429,3.429,0,0,1,2.07.34,7.38,7.38,0,0,0,3.09.51,10.021,10.021,0,0,1,3.53.56,8.849,8.849,0,0,0,3.14.56,7.4,7.4,0,0,0,2.75-.45,9.716,9.716,0,0,1,3.26-.5,14.066,14.066,0,0,1,2.52.05,2.525,2.525,0,0,0,.73.12c0.67-.61,1.16-1.06,1.46-1.35a2.088,2.088,0,0,1,1.18-.57c0.48-.07,1.14-0.19,1.96-0.33q1.455-1.92,2.75-3.6a12.651,12.651,0,0,0,1.96-3.77,10.255,10.255,0,0,0,.34-4.56,12.193,12.193,0,0,0-1.8-4.84,19.132,19.132,0,0,1-1.57-2.81l-1.12-.11-0.67-.79-0.34.9-0.9-.23a6.713,6.713,0,0,1-.72-1.18,7.269,7.269,0,0,1-.34-0.95,5.586,5.586,0,0,1-.17-1.52,4.214,4.214,0,0,0-.22-1.52h-0.68a3.086,3.086,0,0,1,.34-0.68,3.692,3.692,0,0,0,0-1.91,3.878,3.878,0,0,0-.84-2.19,1.407,1.407,0,0,1-.34-1.52,8.292,8.292,0,0,0,.34-2.08c0.03-.79.03-1.63,0-2.53s-0.06-2.55-.06-4.95a2.418,2.418,0,0,0-.78.45c0,0.82.01,1.46,0.05,1.91a7.548,7.548,0,0,1-.28,2.14,45.84,45.84,0,0,0-.67,5.4l-0.45.11,0.11-2.36-0.33,1.01a50.358,50.358,0,0,1,0-8.33l-0.79,7.09a9.449,9.449,0,0,1-.28-2.53,23.187,23.187,0,0,1,0-2.47,12.071,12.071,0,0,0,.06-1.35,11.9,11.9,0,0,1,.11-1.69,14.3,14.3,0,0,0,.11-1.75,9.3,9.3,0,0,1,.11-1.52,10.463,10.463,0,0,0,0-2.3q-0.45,4.95-.73,7.42a16.583,16.583,0,0,1-.61,3.38l-0.45.22v-7.53l0.45-.34v-2.36a1.483,1.483,0,0,0-.34.5,15.267,15.267,0,0,0-.39,2.14q-0.285,1.86-.96,6.58l-0.22-.79-0.56,2.93-0.45-.56a6.3,6.3,0,0,0,.39-1.13,0.577,0.577,0,0,0,0-.39,0.231,0.231,0,0,1-.05-0.17l-0.57.22a3.553,3.553,0,0,0,.45-1.23,0.872,0.872,0,0,1,.12-0.51,0.5,0.5,0,0,0-.12-0.51l-0.56,1.35,0.11-4.27,0.79,0.67-0.11-.67-0.45-.23c0-.67.04-1.76,0.11-3.26a8.162,8.162,0,0,1,.34-2.59,4.508,4.508,0,0,1-.68-2.36l-0.67,4.73-0.67-.12-0.45-.9h0.45l0.33,0.45a15.148,15.148,0,0,0,.34-3.26l-0.56.34,0.34-3.26-3.82,19.23a23.382,23.382,0,0,1-.11-4.05l0.34-.22a1.988,1.988,0,0,0-.34-1.91q-1.125,5.85-1.51,7.98a21.606,21.606,0,0,1-.73,3.04,11.923,11.923,0,0,0-.57,2.48h0.23c0.15-1.05.28-1.78,0.39-2.2a3.882,3.882,0,0,1,.34-0.9,2.691,2.691,0,0,1,.39-0.5,35.219,35.219,0,0,0-.45,3.93,14.475,14.475,0,0,1-.56,3.49l0.11-1.8a15.262,15.262,0,0,1-1.9,6.98v-4.28c-0.45,2.25-.79,3.83-1.01,4.73a6.352,6.352,0,0,1-.68,1.85,13.654,13.654,0,0,1-1.01,1.3q-14.58,1.455-15.2,1.35c-0.41-.08-0.8-0.15-1.18-0.23q4.05-20.7,3.37-22.84a8.41,8.41,0,0,1-.51-3.43,7.3,7.3,0,0,0-.11-2.59c-0.19-.86-0.5-2.53-0.95-5a36.027,36.027,0,0,0,3.14-3.38,3.431,3.431,0,0,0,.45-0.17,8.588,8.588,0,0,0,.95-0.9,11.143,11.143,0,0,1,2.3-1.68,3,3,0,0,1,2.3-.57,9.365,9.365,0,0,0,2.08.4l0.56-.79-0.23-.67a1.975,1.975,0,0,0,.9-1.8c0.67-.45,1.46-0.98,2.36-1.58l-0.23-.67,0.45-.23-0.56-2.02c-0.75-.38-1.36-0.72-1.85-1.02a9.682,9.682,0,0,0-3.2-.78,8.092,8.092,0,0,1-2.97-.74c-0.34-.26-0.73-0.54-1.18-0.84l-0.56-1.35a3.59,3.59,0,0,0-1.8.45,3.168,3.168,0,0,0,1.58-.45l0.56,0.68-0.9.22-0.56,1.01a5.671,5.671,0,0,1-.96-0.56,1.02,1.02,0,0,0-.67-0.22,0.651,0.651,0,0,0-.56.22,0.413,0.413,0,0,1-.45.17,1.322,1.322,0,0,0-.56,0,1.842,1.842,0,0,0-.62.28l-0.33.56-0.45-1.01-0.11,1.13-0.68-.45-1.01.78-0.45,2.14-1.57.68-0.67,1.8a15.582,15.582,0,0,1-3.7,2.58q-2.025,1.02-4.72,2.65t-4.71,2.98a6.459,6.459,0,0,1-3.25,1.35l12.12-12.04,5.83-6.07,5.39-5.18a25.263,25.263,0,0,1,2.07-3.66,5.469,5.469,0,0,0,.96-1.74c0.14-.52.41-1.27,0.78-2.25l-1.12-1.58c-1.12-.52-2.08-0.95-2.86-1.29a12.738,12.738,0,0,0-3.65-.73,26.629,26.629,0,0,0-3.42-.17c-0.64.04-1.4,0.06-2.3,0.06h0q-6.84.33-13.69,0.33h0Zm8.64,24.98-6.39,6.98-3.15,2.25,8.98-9.12Zm-20.64,5.91c-1.05,1.16-1.8,2-2.25,2.53l0.23-3.94q2.46-1.8,3.59-2.53a6.928,6.928,0,0,1,1.51-.84,3.279,3.279,0,0,1,.95-0.12C4891.53,7221.3,4890.18,7222.94,4889.14,7224.1Zm55.53,10.85,0.34,0.23c0.3-2.48.52-4.95,0.67-7.43Zm-64.62-6.97-0.68,5.85a10.961,10.961,0,0,1-1.57-.45,7.089,7.089,0,0,1-1.23-.68c-0.45-.3-1.12-0.75-2.02-1.35Zm36.91,6.86-2.24,2.81h-0.79l0.9-1.8a2.507,2.507,0,0,0,1.79-1.12Zm-2.58,3.71-1.79,1.92a7.651,7.651,0,0,1,1.34-2.03Zm42.75,2.59a17.627,17.627,0,0,0-.23,3.94l0.23,0.11v-4.05Zm-45.55,1.69a6.035,6.035,0,0,0-1.8,3.04l-1.57,1.46,0.56-.11-1.12,1.12v-0.56l-0.34.9,0.56-.23-0.89,1.58-1.35.56,0.45-.56-0.9.11a20.176,20.176,0,0,1,1.74-2.53c0.93-1.24,1.66-2.19,2.19-2.87l-0.79,1.8,2.81-3.71h0.45Zm-5.95,9.34-2.81,4.61-0.78.79a17.749,17.749,0,0,1,1.46-2.59l-0.9.79-1.01,1.23-0.22-1.01,0.78-1.01,2.13-1.8,1.24-1.24Z" transform="translate(-4579.25 -7184.69)"/>
</svg>
