<svg xmlns="http://www.w3.org/2000/svg" width="512" height="512" viewBox="0 0 60 60">
    <g>
        <path d="M14 15c1.657 0 3-1.343 3-3V8c0-1.657-1.343-3-3-3H8C6.343 5 5 6.343 5 8v4c0 1.657 1.343 3 3 3zm0-2h-3v-2h4v1c0 .552-.448 1-1 1zm1-5v1h-4V7h3c.552 0 1 .448 1 1zM8 7h1v2H7V8c0-.552.448-1 1-1zm-1 5v-1h2v2H8c-.552 0-1-.448-1-1zM8 21c-.552 0-1 .448-1 1s.448 1 1 1h6c.552 0 1-.448 1-1s-.448-1-1-1zM19 21h-1c-.552 0-1 .448-1 1s.448 1 1 1h1c.552 0 1-.448 1-1s-.448-1-1-1zM10 27H8c-.552 0-1 .448-1 1s.448 1 1 1h2c.552 0 1-.448 1-1s-.448-1-1-1zM19 27h-4c-.552 0-1 .448-1 1s.448 1 1 1h4c.552 0 1-.448 1-1s-.448-1-1-1zM37 14c1.153-.004 2.248-.508 3-1.382 1.093 1.263 2.856 1.713 4.421 1.13 1.565-.583 2.603-2.078 2.603-3.748 0-1.67-1.038-3.165-2.603-3.748-1.565-.583-3.328-.133-4.421 1.13-1.211-1.387-3.213-1.765-4.847-.916-1.634.848-2.475 2.704-2.037 4.493C33.555 12.747 35.16 14.003 37 14zm6-6c1.105 0 2 .895 2 2s-.895 2-2 2-2-.895-2-2 .895-2 2-2zm-6 0c1.105 0 2 .895 2 2s-.895 2-2 2-2-.895-2-2 .895-2 2-2z"/>
        <path d="M57.148 20.991c-1.73-.082-3.451-.297-5.148-.645V7c-.004-3.864-3.136-6.996-7-7H7C3.136.004.004 3.136 0 7v21c.004 3.864 3.136 6.996 7 7h15v1.916c0 .144.01.288.031.431.253 1.759 2.911 17.34 18 22.493.63.213 1.312.213 1.941 0 15.088-5.153 17.746-20.734 18-22.5.02-.141.03-.284.03-.427V24c.007-1.605-1.25-2.93-2.854-3.009zM7 33c-2.76-.003-4.997-2.24-5-5V7c.003-2.76 2.24-4.997 5-5h38c2.76.003 4.997 2.24 5 5v12.856c-2.576-.684-4.99-1.873-7.1-3.5-1.106-.897-2.688-.897-3.794 0-4.565 3.666-10.888 4.476-14.251 4.633-1.604.078-2.863 1.405-2.855 3.011v9zm51 3.916c0 .049-.004.098-.01.146-.236 1.635-2.705 16.117-16.667 20.885-.21.071-.437.071-.647 0-13.961-4.768-16.43-19.247-16.665-20.882-.007-.05-.01-.1-.011-.149V24c-.007-.536.41-.982.945-1.011 3.606-.168 10.4-1.05 15.41-5.072.374-.31.916-.31 1.29 0 5.007 4.022 11.8 4.9 15.41 5.072.535.03.952.475.945 1.011z"/>
        <path d="M55.1 24.838c-4.81-.367-9.458-1.91-13.532-4.494-.34-.233-.79-.233-1.13 0-4.076 2.585-8.725 4.128-13.538 4.494-.511.051-.9.481-.9.995v10.891c0 .05.004.101.011.151.361 2.361 2.758 14.366 14.637 18.833.226.084.474.084.7 0C53.5 51.142 55.77 38.323 55.989 36.876c.007-.05.01-.1.011-.149V25.833c0-.514-.389-.944-.9-.995zM54 36.649c-.257 1.617-2.407 12.842-13 17.051-10.581-4.2-12.741-15.434-13-17.054V26.73c4.602-.476 9.042-1.965 13-4.362 3.958 2.397 8.398 3.886 13 4.362z"/>
        <path d="M35.707 37.293c-.392-.379-1.016-.374-1.402.012s-.391 1.01-.012 1.402l4 4c.187.188.442.293.707.293h.05c.282-.014.545-.147.724-.366l9-11c.34-.428.272-1.05-.15-1.395-.424-.346-1.046-.289-1.398.129l-8.3 10.145z"/>
    </g>
</svg>
