<svg xmlns="http://www.w3.org/2000/svg" enable-background="new 0 0 393.185 393.185" viewBox="0 0 393.185 393.185">
    <path d="M236.063 200.808c1.293 1.04 2.843 1.546 4.383 1.546 2.047 0 4.076-.894 5.459-2.613 8.883-11.046 13.775-24.938 13.775-39.117 0-14.233-4.677-27.649-13.525-38.798-2.404-3.027-6.805-3.535-9.835-1.131-3.028 2.403-3.535 6.806-1.132 9.834 6.864 8.648 10.492 19.055 10.492 30.095 0 11.159-3.695 21.651-10.686 30.343-2.423 3.012-1.944 7.418 1.069 9.841zM157.121 120.723c-3.012-2.422-7.419-1.945-9.842 1.067-8.883 11.046-13.775 24.938-13.775 39.118 0 14.233 4.677 27.649 13.525 38.797 1.383 1.741 3.425 2.649 5.488 2.649 1.524 0 3.06-.496 4.347-1.518 3.028-2.403 3.535-6.806 1.132-9.834-6.864-8.648-10.492-19.055-10.492-30.094 0-11.159 3.695-21.652 10.686-30.343 2.423-3.013 1.944-7.419-1.069-9.842zM180.437 163.143c4.678-4.688 11.355-7.377 18.322-7.377 12.799 0 22.671 8.571 24.008 20.844l.283 2.602c.234 1.888.232 2.412.57 5.239-.084 3.515 1.89-.103 2.6-1.187 3.643-5.562 5.763-12.206 5.763-19.337 0-19.514-15.876-35.39-35.391-35.39-19.514 0-35.39 15.876-35.39 35.39 0 9.02 4.416 16.481 8.973 23.514 3.225 4.977 3.713.775 3.513-1.866l.006-5.928c-.013-6.266 2.381-12.132 6.743-16.504z"/>
    <path d="M286.766 0H106.419c-11.028 0-20 8.972-20 20v300.479c0 11.028 8.972 20 20 20h37.954c7.667 0 4.494-2.881 3.472-4.313-14.192-19.9-22.402-38.601-24.346-50.241-.254-1.521-.387-3.027-.403-4.51-.017-1.54.777-4.535-4.39-4.535h-4.49c-2.75 0-5-2.25-5-5V43.506c0-2.75 2.25-5 5-5h164.751c2.75 0 5 2.25 5 5v194.195c0 4.75 2.73 5.361 3.568 5.617 7.302 2.234 12.831 7.544 16.314 13.324 1.232 2.044 2.917 3.058 2.917-.567V20c0-11.028-8.972-20-20-20zm-74.82 25.462h-30.707c-2.762 0-5-2.239-5-5s2.238-5 5-5h30.707c2.762 0 5 2.239 5 5s-2.239 5-5 5z"/>
    <path d="M283.318 251.038c-2.337-.457-6.733-1.905-10.984-3.305-5.317-1.752-10.815-3.563-14.81-4.352-2.059-.412-6.32-1.769-10.442-3.081-5.459-1.738-11.104-3.536-15.006-4.31-3.774-.744-7.628-.716-10.93.028-1.801-15.561-6.127-52.775-6.879-58.483l.028-.003c-.85-7.799-7.238-13.246-15.536-13.246-4.72 0-9.199 1.776-12.29 4.874-2.791 2.798-4.262 6.43-4.253 10.49l-.054 107.925c-3.654-.739-10.567-3.08-15.673-10.463l-.684-.984c-.899-1.297-1.729-2.492-2.507-3.625-3.711-5.348-9.201-8.415-15.063-8.415-4.889 0-9.493 2.126-12.632 5.833-3.306 3.903-4.619 9.088-3.699 14.599 2.178 13.039 15.551 42.604 43.5 71.419l.051 26.792c0 5.763 4.689 10.452 10.452 10.452h87.92c5.764 0 10.452-4.689 10.452-10.467l-.079-27.453 9.266-15.568c4.03-6.738 6.161-14.46 6.161-22.332l-.001-47.298c-.115-6.337-6.681-17.161-16.308-19.027z"/>
</svg>
