<?xml version="1.0" encoding="UTF-8"?>
<svg width="736px" height="256px" viewBox="0 0 736 256" version="1.1" xmlns="http://www.w3.org/2000/svg" xmlns:xlink="http://www.w3.org/1999/xlink">
    <!-- Generator: Sketch 54.1 (76490) - https://sketchapp.com -->
    <title>foral</title>
    <desc>Created with Sketch.</desc>
    <g id="Page-1" stroke="none" stroke-width="1" fill="none" fill-rule="evenodd">
        <g id="Artboard" transform="translate(-1690.000000, -1658.000000)" fill-rule="nonzero" stroke="#F0BA41">
            <path d="M1806.53493,1658.60547 L1809.08376,1658.60547 C1824.2824,1658.60547 1837.54562,1661.53187 1848.8738,1667.38477 C1849.44021,1667.76237 1850.05381,1668.28157 1850.71462,1668.94238 L1850.71462,1670.2168 C1850.71462,1670.87761 1851.32822,1672.15201 1852.55544,1674.04004 C1853.68826,1676.30568 1854.96266,1679.75128 1856.37868,1684.37695 C1856.28428,1685.03776 1855.62348,1685.98176 1854.39626,1687.20898 C1852.60263,1688.3418 1851.42263,1688.9082 1850.85622,1688.9082 L1850.85622,1689.0498 C1848.96819,1688.9554 1847.50499,1688.9082 1846.46657,1688.9082 C1843.25692,1688.9082 1840.51932,1689.2386 1838.25368,1689.89941 C1830.51276,1689.333 1824.89595,1689.0498 1821.4031,1689.0498 C1815.83341,1689.0498 1809.367,1689.89941 1802.00368,1691.59863 C1793.22434,1693.39226 1778.82833,1695.42186 1758.8152,1697.6875 L1760.08962,1697.6875 L1760.08962,1697.8291 C1759.61761,1697.8291 1759.38161,1697.9235 1759.38161,1698.1123 C1757.87119,1707.26925 1755.79438,1717.03966 1753.15114,1727.42383 C1751.07431,1735.82556 1748.66711,1745.21837 1745.92946,1755.60254 L1746.07106,1755.60254 C1770.99306,1751.16567 1787.18268,1748.19206 1794.6404,1746.68164 C1795.58442,1746.39844 1796.71722,1746.25684 1798.03884,1746.25684 C1801.53169,1746.25684 1806.6765,1747.72004 1813.47341,1750.64648 C1815.45584,1751.30729 1817.01344,1752.5817 1818.14626,1754.46973 C1819.37348,1756.73536 1819.98708,1759.23697 1819.98708,1761.97461 L1819.98708,1763.24902 C1819.98708,1764.75945 1819.65668,1765.70345 1818.99587,1766.08105 C1816.25822,1768.15789 1811.53822,1770.42349 1804.83571,1772.87793 C1802.75888,1773.63314 1800.39888,1774.19954 1797.75563,1774.57715 C1796.71722,1774.57715 1794.12121,1775.33235 1789.96755,1776.84277 C1778.16736,1779.01401 1766.41455,1781.27961 1754.70876,1783.63965 C1753.29274,1782.79003 1752.49034,1782.36523 1752.30153,1782.36523 C1751.92393,1782.36523 1751.12153,1782.97884 1749.89431,1784.20605 C1749.5167,1784.48926 1749.2335,1784.63086 1749.0447,1784.63086 L1747.48708,1783.92285 L1747.06227,1783.92285 C1746.40146,1783.92285 1744.93826,1784.39485 1742.67263,1785.33887 C1741.72861,1785.81087 1740.45421,1786.04688 1738.84938,1786.04688 C1737.90537,1786.23568 1736.44217,1787.13248 1734.45974,1788.7373 C1732.3829,1790.90854 1731.1557,1791.99414 1730.7781,1791.99414 C1729.36207,1793.69337 1728.60687,1794.54297 1728.51247,1794.54297 C1727.85166,1794.54297 1727.37966,1795.01497 1727.09645,1795.95898 C1727.09645,1798.13022 1725.77485,1805.54063 1723.13161,1818.19043 C1722.4708,1821.87209 1721.9988,1824.56249 1721.7156,1826.26172 C1721.14919,1827.96095 1720.39399,1829.47135 1719.44997,1830.79297 C1719.07236,1831.26498 1718.83636,1831.83138 1718.74196,1832.49219 C1718.74196,1832.77539 1719.07236,1832.96419 1719.73317,1833.05859 C1719.92198,1833.2474 1720.01638,1833.4834 1720.01638,1833.7666 C1718.12835,1843.67876 1716.38194,1851.65557 1714.77712,1857.69727 C1714.30511,1859.7741 1713.83311,1863.2669 1713.3611,1868.17578 C1713.0779,1871.95184 1712.9363,1874.12304 1712.9363,1874.68945 C1713.0307,1877.04949 1713.0779,1879.36229 1713.0779,1881.62793 L1713.0779,1882.61914 C1713.0779,1884.60157 1713.5499,1885.87597 1714.49392,1886.44238 L1714.63552,1886.44238 C1714.82432,1886.25358 1715.01312,1885.97038 1715.20192,1885.59277 C1714.91872,1884.55436 1714.77712,1883.56316 1714.77712,1882.61914 C1714.77712,1881.95833 1715.06032,1879.22073 1715.62673,1874.40625 C1715.72113,1874.21745 1715.76833,1873.74545 1715.76833,1872.99023 C1715.76833,1872.51823 1715.72113,1871.05503 1715.62673,1868.60059 C1715.62673,1866.61815 1715.95713,1864.35255 1716.61794,1861.80371 C1716.61794,1860.9541 1716.80674,1860.0101 1717.18435,1858.97168 C1717.75075,1854.0628 1718.31715,1850.098 1718.88356,1847.07715 C1720.01638,1842.35707 1721.29078,1837.77867 1722.70681,1833.3418 C1723.65082,1829.47133 1724.12282,1826.16733 1724.12282,1823.42969 C1725.06684,1818.89841 1725.53884,1816.11361 1725.53884,1815.0752 C1725.53884,1813.75357 1726.48284,1810.11917 1728.37087,1804.17188 C1728.55967,1804.54948 1728.74847,1804.73828 1728.93727,1804.73828 C1729.31488,1804.73828 1730.11728,1803.03908 1731.3445,1799.64062 C1731.72211,1798.50781 1732.38291,1797.94141 1733.32692,1797.94141 L1733.46852,1797.94141 L1733.75173,1798.08301 C1729.12605,1811.86563 1724.78365,1830.32085 1720.72438,1853.44922 C1719.11956,1861.75655 1718.31716,1871.43256 1718.31716,1882.47754 L1718.31716,1908.95703 C1718.31716,1911.97788 1718.22276,1913.48828 1718.03395,1913.48828 L1717.04274,1913.48828 C1715.24911,1913.39388 1714.30511,1913.25228 1714.21071,1913.06348 C1714.11631,1910.70344 1713.97471,1909.52344 1713.78591,1909.52344 C1713.78591,1909.71224 1713.40831,1910.70344 1712.6531,1912.49707 C1712.6531,1912.87468 1712.5587,1913.06348 1712.36989,1913.06348 C1711.89788,1913.15788 1711.37868,1913.20508 1710.81227,1913.20508 L1709.82106,1913.20508 C1706.23381,1913.20508 1703.8266,1912.21388 1702.59938,1910.23145 C1700.80576,1908.15461 1699.43695,1906.59701 1698.49294,1905.55859 C1695.7553,1903.57616 1693.67849,1897.77056 1692.26247,1888.1416 C1691.41286,1881.7223 1690.98806,1874.73669 1690.98806,1867.18457 C1690.98806,1851.98593 1692.97046,1835.56031 1696.93532,1817.90723 C1699.67297,1807.71186 1701.18337,1802.04786 1701.46657,1800.91504 C1700.61696,1800.44303 1699.76736,1799.54623 1698.91774,1798.22461 C1697.31292,1795.67577 1696.08572,1792.93817 1695.2361,1790.01172 C1693.15927,1782.08199 1692.12087,1777.07879 1692.12087,1775.00195 L1692.12087,1773.30273 C1692.21527,1769.62108 1692.45127,1767.63867 1692.82888,1767.35547 C1693.67849,1766.31705 1695.33049,1765.56185 1697.78493,1765.08984 L1706.42263,1764.24023 C1706.51703,1764.24023 1707.79143,1763.90983 1710.24587,1763.24902 L1710.24587,1764.80664 C1710.24587,1765.08985 1710.48187,1765.27865 1710.95388,1765.37305 L1711.09548,1765.37305 C1711.66189,1765.37305 1712.27549,1764.38185 1712.9363,1762.39941 C1713.97471,1759.66177 1715.86272,1753.71456 1718.60036,1744.55762 C1718.97797,1743.04719 1720.01637,1741.58399 1721.7156,1740.16797 C1722.37641,1739.60156 1722.70681,1738.94076 1722.70681,1738.18555 C1722.518,1736.95833 1722.4236,1735.68393 1722.4236,1734.3623 C1722.4236,1732.37987 1722.8956,1730.25587 1723.83962,1727.99023 C1724.02842,1727.42383 1724.12282,1726.95182 1724.12282,1726.57422 C1724.12282,1726.38542 1724.07562,1726.10222 1723.98122,1725.72461 C1725.49164,1718.6445 1726.24685,1711.56449 1726.24685,1704.48438 C1724.26441,1705.05078 1722.56521,1705.33398 1721.14919,1705.33398 L1720.86599,1705.33398 C1713.97468,1705.33398 1709.39627,1699.57558 1707.13063,1688.05859 C1709.11307,1687.11458 1711.09547,1685.88738 1713.0779,1684.37695 C1713.73871,1683.90495 1715.72111,1683.10254 1719.02517,1681.96973 L1719.16677,1681.82812 L1718.45876,1681.82812 L1718.45876,1681.68652 C1718.64756,1681.59212 1718.74196,1681.40332 1718.74196,1681.12012 L1718.74196,1680.83691 C1718.55316,1680.55371 1718.08116,1680.41211 1717.32595,1680.41211 C1715.06031,1680.41211 1712.88911,1681.07291 1710.81227,1682.39453 L1710.67067,1682.53613 L1710.24587,1682.39453 C1709.58506,1682.39453 1707.83866,1682.96093 1705.00661,1684.09375 C1704.91221,1684.18815 1704.77061,1684.23535 1704.58181,1684.23535 L1704.4402,1684.23535 C1704.157,1683.29134 1704.0154,1682.58334 1704.0154,1682.11133 C1704.0154,1674.0872 1723.79222,1667.57359 1763.34645,1662.57031 C1771.84259,1661.43749 1783.3122,1660.21029 1797.75563,1658.88867 C1800.96529,1658.69987 1803.89169,1658.60547 1806.53493,1658.60547 Z M1810.49977,1662.99512 L1802.14528,1662.71191 C1801.20127,1662.71191 1798.41646,1662.90071 1793.79079,1663.27832 L1790.53395,1663.27832 C1788.36272,1663.27832 1785.76672,1663.79752 1782.74587,1664.83594 C1782.55707,1664.93034 1782.27387,1664.97754 1781.89626,1664.97754 L1780.05544,1664.97754 C1774.01374,1664.97754 1768.01934,1665.73274 1762.07204,1667.24316 C1761.50563,1667.62077 1761.17523,1667.99837 1761.08083,1668.37598 C1761.17523,1669.03679 1761.55283,1669.36719 1762.21364,1669.36719 C1768.53854,1668.80078 1773.87215,1668.13998 1778.21462,1667.38477 C1782.17948,1666.62955 1791.33629,1665.87435 1805.68532,1665.11914 C1806.25173,1665.11914 1807.05413,1665.07194 1808.09255,1664.97754 C1809.60297,1664.97754 1814.70058,1665.30794 1823.38552,1665.96875 L1832.44802,1666.39355 C1831.4096,1664.88313 1829.6632,1664.12793 1827.20876,1664.12793 C1819.84544,1663.08951 1815.40864,1662.57031 1813.89821,1662.57031 L1813.61501,1662.57031 C1812.10459,1662.57031 1811.06618,1662.71191 1810.49977,1662.99512 Z M1736.30056,1674.04004 C1733.46851,1674.41765 1732.05251,1674.65365 1732.05251,1674.74805 C1732.14691,1674.74805 1732.19411,1674.79525 1732.19411,1674.88965 C1731.8165,1675.17285 1729.7397,1675.92805 1725.96364,1677.15527 C1724.45322,1677.72168 1723.50922,1678.24088 1723.13161,1678.71289 L1723.13161,1678.99609 C1723.13161,1679.5625 1723.65081,1679.8457 1724.68923,1679.8457 C1725.82205,1679.8457 1726.71885,1679.6569 1727.37966,1679.2793 L1726.10524,1679.2793 C1726.01084,1679.2793 1725.96364,1679.2321 1725.96364,1679.1377 C1727.37966,1678.38248 1730.49487,1677.43848 1735.30935,1676.30566 C1737.29178,1676.02246 1738.28298,1675.83366 1738.28298,1675.73926 C1738.47178,1675.73926 1738.56618,1675.64486 1738.56618,1675.45605 C1738.56618,1674.70084 1737.95258,1674.22884 1736.72536,1674.04004 L1736.30056,1674.04004 Z M1758.2488,1697.6875 L1758.2488,1697.8291 L1758.6736,1697.8291 L1758.6736,1697.6875 L1758.2488,1697.6875 Z M1740.83181,1753.62012 C1740.92621,1754.18653 1741.16221,1754.46973 1741.53981,1754.46973 C1742.01182,1754.46973 1742.34222,1754.04493 1742.53102,1753.19531 C1743.66384,1750.55207 1744.23024,1748.61687 1744.23024,1747.38965 C1745.17426,1743.42478 1745.78786,1740.73438 1746.07106,1739.31836 C1746.44867,1735.9199 1746.82627,1733.8903 1747.20388,1733.22949 C1747.95909,1730.96386 1748.47829,1728.83985 1748.76149,1726.85742 C1749.4223,1724.59179 1750.46071,1720.24938 1751.87673,1713.83008 L1754.70876,1703.77637 C1754.80316,1703.30436 1754.85036,1702.78516 1754.85036,1702.21875 L1754.85036,1702.07715 C1754.85036,1701.51074 1754.80316,1700.61394 1754.70876,1699.38672 C1754.51996,1699.57552 1753.90636,1701.22752 1752.86794,1704.34277 C1751.82952,1709.15725 1750.93272,1712.50845 1750.17751,1714.39648 C1747.72307,1724.40304 1745.55187,1732.71025 1743.66384,1739.31836 C1741.77581,1747.8145 1740.83181,1752.5817 1740.83181,1753.62012 Z M1768.86892,1755.31934 C1768.86892,1755.69694 1769.15212,1755.88574 1769.71852,1755.88574 C1770.00173,1755.88574 1770.14333,1755.74414 1770.14333,1755.46094 L1770.14333,1755.03613 C1770.14333,1754.75293 1769.95453,1754.61133 1769.57692,1754.61133 C1769.19932,1754.61133 1768.96332,1754.84733 1768.86892,1755.31934 Z M1762.78005,1757.01855 L1762.78005,1757.16016 C1762.78005,1757.53776 1763.01605,1757.72656 1763.48806,1757.72656 C1763.96006,1757.72656 1764.33766,1757.53776 1764.62087,1757.16016 C1764.62087,1756.68815 1764.33767,1756.40495 1763.77126,1756.31055 C1763.11045,1756.31055 1762.78005,1756.54655 1762.78005,1757.01855 Z M1756.40798,1759.00098 C1756.40798,1759.37858 1756.64398,1759.56738 1757.11599,1759.56738 L1757.25759,1759.56738 C1758.0128,1759.56738 1758.3904,1759.14258 1758.3904,1758.29297 C1758.2016,1757.82096 1757.9656,1757.58496 1757.68239,1757.58496 C1756.83278,1757.58496 1756.40798,1758.05696 1756.40798,1759.00098 Z M1745.36306,1762.68262 L1745.36306,1762.82422 C1745.36306,1763.10742 1745.64626,1763.34342 1746.21267,1763.53223 L1746.35427,1763.53223 C1748.05349,1763.53223 1749.8943,1762.72983 1751.87673,1761.125 C1752.53754,1760.55859 1752.86794,1759.94499 1752.86794,1759.28418 C1752.58473,1758.71777 1752.20713,1758.43457 1751.73513,1758.43457 C1749.9415,1758.81218 1748.0535,1759.85058 1746.07106,1761.5498 C1745.59906,1762.11621 1745.36306,1762.49381 1745.36306,1762.68262 Z M1714.49392,1888.56641 C1714.49392,1888.66081 1714.54112,1889.08561 1714.63552,1889.84082 L1714.77712,1889.84082 L1714.91872,1888.56641 C1714.91872,1888 1714.82432,1887.4336 1714.63552,1886.86719 C1714.54112,1886.86719 1714.49392,1887.43359 1714.49392,1888.56641 Z M1713.3611,1898.62012 L1713.3611,1898.76172 C1713.3611,1900.74415 1713.6443,1902.86815 1714.21071,1905.13379 C1715.06033,1902.49055 1715.48513,1899.89454 1715.48513,1897.3457 L1715.48513,1897.0625 C1715.48513,1895.26887 1715.24913,1893.28647 1714.77712,1891.11523 C1714.49391,1891.58724 1714.16351,1892.67284 1713.78591,1894.37207 C1713.5027,1895.69369 1713.3611,1897.10969 1713.3611,1898.62012 Z M1884.2103,1724.4502 C1894.21686,1724.4502 1903.98727,1728.0374 1913.52182,1735.21191 C1915.40985,1735.58952 1917.34505,1736.53352 1919.32749,1738.04395 C1920.55471,1738.98796 1921.73471,1740.16796 1922.86753,1741.58398 C1924.28355,1743.66082 1925.36915,1745.50162 1926.12436,1747.10645 C1927.44598,1749.65529 1928.72038,1753.52569 1929.9476,1758.71777 C1931.55243,1766.17549 1932.35483,1773.7747 1932.35483,1781.51562 L1932.35483,1784.63086 C1932.35483,1796.99746 1930.70283,1809.12787 1927.39878,1821.02246 C1925.88835,1825.55373 1924.18915,1829.56574 1922.30112,1833.05859 C1920.60189,1836.07944 1918.43069,1839.28905 1915.78745,1842.6875 C1912.5778,1846.36916 1909.55699,1849.29556 1906.72495,1851.4668 C1897.2848,1858.73571 1887.65599,1862.37012 1877.83823,1862.37012 C1865.75484,1862.37012 1855.13482,1856.98931 1845.97788,1846.22754 C1835.49931,1840.56345 1828.3249,1832.35064 1824.45444,1821.58887 C1822.1888,1815.54717 1821.056,1809.22236 1821.056,1802.61426 L1821.056,1801.19824 C1821.056,1789.87006 1823.98241,1777.97565 1829.8353,1765.51465 C1831.72333,1761.73859 1833.89453,1758.00978 1836.34897,1754.32812 C1838.4258,1751.21288 1841.44661,1747.48407 1845.41147,1743.1416 C1849.37633,1739.27114 1852.39714,1736.62794 1854.47397,1735.21191 C1857.87243,1732.75747 1860.75163,1731.01107 1863.11167,1729.97266 C1870.38058,1726.291 1877.41339,1724.4502 1884.2103,1724.4502 Z M1852.34995,1745.54883 L1852.34995,1745.83203 C1854.52118,1745.07682 1855.60678,1744.46322 1855.60678,1743.99121 C1855.60678,1743.70801 1855.65398,1743.47201 1855.74839,1743.2832 C1855.65398,1742.71679 1855.55958,1742.24479 1855.46518,1741.86719 C1854.23796,1742.15039 1853.43556,1742.62239 1853.05796,1743.2832 C1852.58595,1743.94401 1852.34995,1744.69921 1852.34995,1745.54883 Z M1853.34116,1803.74707 C1853.34116,1818.94571 1858.34436,1831.35933 1868.35092,1840.98828 C1870.14455,1842.49871 1871.51335,1843.58431 1872.45737,1844.24512 C1876.89424,1842.9235 1880.52864,1840.51629 1883.36069,1837.02344 C1886.38154,1833.43618 1890.48794,1825.08177 1895.68003,1811.95996 C1896.81284,1809.12792 1897.99285,1804.50231 1899.22006,1798.08301 C1900.16408,1793.55174 1901.10808,1786.33013 1902.0521,1776.41797 C1903.09051,1763.39056 1903.60971,1752.10975 1903.60971,1742.5752 L1902.0521,1742.5752 C1894.68878,1742.5752 1888.17517,1744.1328 1882.51108,1747.24805 C1880.62305,1748.38087 1878.64065,1749.74967 1876.56381,1751.35449 C1872.78775,1754.84735 1870.42775,1757.25455 1869.48374,1758.57617 C1867.2181,1761.40822 1865.1885,1764.33462 1863.39487,1767.35547 C1861.31804,1770.84832 1859.43003,1775.00193 1857.73081,1779.81641 C1854.80436,1788.02934 1853.34116,1796.00615 1853.34116,1803.74707 Z M1849.51792,1748.94727 L1849.65952,1749.65527 C1849.94272,1749.56087 1850.17872,1749.41927 1850.36753,1749.23047 L1849.94272,1748.66406 L1849.65952,1748.66406 C1849.65952,1748.66406 1849.61232,1748.75846 1849.51792,1748.94727 Z M1827.71128,1788.1709 L1828.13608,1788.1709 C1829.6465,1788.1709 1830.40171,1787.0853 1830.40171,1784.91406 C1830.49611,1783.40364 1830.77931,1782.12924 1831.25131,1781.09082 C1833.23375,1775.42673 1835.54655,1770.47072 1838.18979,1766.22266 C1839.41701,1764.24022 1841.30501,1761.83302 1843.85385,1759.00098 C1846.21389,1756.35773 1848.05469,1753.38413 1849.37631,1750.08008 C1849.18751,1749.98568 1848.90431,1749.93848 1848.52671,1749.93848 L1848.2435,1749.93848 C1847.48829,1749.93848 1846.78029,1750.50488 1846.11948,1751.6377 C1842.53222,1755.41376 1839.70022,1758.81216 1837.62339,1761.83301 C1834.98014,1765.51467 1833.37534,1768.44107 1832.80893,1770.6123 L1830.54331,1774.43555 C1828.65528,1778.30601 1827.71128,1782.88441 1827.71128,1788.1709 Z M1827.28647,1791.28613 C1826.62566,1792.89096 1826.29526,1794.59016 1826.29526,1796.38379 C1826.29526,1798.55502 1826.53126,1799.64062 1827.00327,1799.64062 C1827.38087,1799.82943 1827.61687,1799.92383 1827.71128,1799.92383 L1827.85288,1799.92383 C1828.13608,1799.92383 1828.27768,1799.64063 1828.27768,1799.07422 C1828.65529,1797.18619 1828.84409,1795.53419 1828.84409,1794.11816 L1828.84409,1793.69336 C1828.84409,1792.18294 1828.51369,1791.42773 1827.85288,1791.42773 L1827.28647,1791.28613 Z M1924.28354,1802.33105 L1924.28354,1804.59668 C1924.28354,1805.54069 1923.24514,1809.0807 1921.16831,1815.2168 C1919.94109,1818.23765 1918.57229,1821.11685 1917.06186,1823.85449 C1916.02344,1825.36492 1914.56024,1827.30012 1912.67221,1829.66016 C1911.16179,1831.92579 1910.02899,1834.09699 1909.27378,1836.17383 C1908.89617,1837.30665 1908.70737,1837.92025 1908.70737,1838.01465 L1909.41538,1838.01465 C1910.5482,1838.01465 1911.3506,1837.44825 1911.8226,1836.31543 C1917.29789,1829.61292 1920.8851,1824.13772 1922.58432,1819.88965 L1923.85874,1816.20801 C1923.85874,1816.0192 1924.28354,1815.028 1925.13315,1813.23438 C1926.26597,1810.30793 1926.83237,1807.23992 1926.83237,1804.03027 C1926.83237,1802.51985 1926.73797,1801.05665 1926.54917,1799.64062 C1925.03874,1799.64062 1924.28354,1800.53743 1924.28354,1802.33105 Z M1908.84897,1816.20801 C1909.22658,1817.62403 1909.60418,1818.33203 1909.98178,1818.33203 L1910.12339,1818.33203 C1910.21779,1818.04883 1910.35939,1817.34083 1910.54819,1816.20801 C1910.64259,1816.20801 1910.68979,1816.11361 1910.68979,1815.9248 C1910.50099,1816.01921 1909.88739,1816.11361 1908.84897,1816.20801 Z M1907.71616,1838.86426 C1907.81056,1839.05306 1907.95216,1839.19466 1908.14096,1839.28906 L1908.56577,1839.28906 L1908.56577,1839.00586 L1908.42417,1838.43945 C1908.23536,1838.43945 1907.99936,1838.58105 1907.71616,1838.86426 Z M1902.4769,1844.66992 L1902.4769,1844.81152 C1902.5713,1845.84994 1902.7129,1846.36914 1902.90171,1846.36914 C1904.12893,1845.99153 1904.97853,1845.42513 1905.45053,1844.66992 C1905.73374,1843.91471 1905.87534,1843.25391 1905.87534,1842.6875 L1905.87534,1842.4043 C1903.7985,1843.25391 1902.7129,1843.86751 1902.6185,1844.24512 L1902.4769,1844.66992 Z M1894.97202,1852.88281 L1894.97202,1853.30762 C1894.97202,1853.40202 1895.34962,1853.68522 1896.10483,1854.15723 C1898.37047,1853.21321 1899.97527,1851.70281 1900.91928,1849.62598 C1901.01369,1849.62598 1901.06089,1849.57878 1901.06089,1849.48438 C1900.40007,1848.72916 1899.88087,1848.35156 1899.50327,1848.35156 C1896.67122,1850.33399 1895.16082,1851.8444 1894.97202,1852.88281 Z M2048.26262,1707.74121 C2050.62266,1709.25164 2053.21866,1711.37564 2056.05071,1714.11328 C2059.16596,1717.22853 2061.33716,1719.91893 2062.56438,1722.18457 C2064.0748,1724.54461 2065.2548,1727.09341 2066.10442,1729.83105 C2066.57642,1731.05827 2066.81242,1731.81348 2066.81242,1732.09668 C2066.24602,1732.47429 2065.96282,1732.85189 2065.96282,1733.22949 C2066.24602,1734.07911 2066.38762,1734.78711 2066.38762,1735.35352 C2066.38762,1736.20313 2065.96282,1738.04393 2065.11321,1740.87598 C2064.4524,1742.292 2064.122,1743.5664 2064.122,1744.69922 C2064.122,1745.45443 2064.5468,1746.87043 2065.39641,1748.94727 C2065.49081,1749.41927 2065.53801,1749.79687 2065.53801,1750.08008 C2065.53801,1750.83529 2064.78281,1752.81769 2063.27239,1756.02734 C2061.66756,1760.18101 2060.53476,1762.82421 2059.87395,1763.95703 C2059.59074,1764.61784 2059.02434,1765.08984 2058.17473,1765.37305 C2057.32512,1766.12826 2056.52272,1767.26106 2055.7675,1768.77148 C2052.93546,1772.64195 2050.62266,1776.55955 2048.82903,1780.52441 C2048.07381,1782.12924 2045.43061,1785.48044 2040.89934,1790.57812 L2041.04094,1790.57812 C2043.49538,1788.40689 2046.13858,1786.09409 2048.97063,1783.63965 L2049.11223,1783.63965 C2044.39215,1789.96455 2038.02015,1797.51656 2029.99602,1806.2959 C2023.10471,1813.56481 2017.2519,1819.37042 2012.43742,1823.71289 L2006.20696,1829.37695 C2014.23108,1833.62502 2024.3791,1838.53383 2036.65129,1844.10352 C2045.99704,1848.44599 2052.51065,1851.89159 2056.19231,1854.44043 C2056.85312,1855.00684 2057.84432,1855.99804 2059.16594,1857.41406 C2061.05397,1858.83009 2062.32837,1860.57649 2062.98918,1862.65332 L2063.13078,1863.78613 C2063.13078,1867.46779 2059.44918,1870.11099 2052.08586,1871.71582 C2049.44262,1870.6774 2046.79942,1869.4502 2044.15617,1868.03418 L2035.80168,1863.36133 C2032.78083,1861.5677 2029.42963,1859.3021 2025.74797,1856.56445 C2025.37037,1856.18685 2024.09596,1855.71485 2021.92473,1855.14844 C2019.65909,1854.20442 2015.55269,1852.26922 2009.60539,1849.34277 C2007.81176,1848.49316 2006.82056,1848.06836 2006.63176,1848.06836 L2006.49016,1848.06836 C2006.39576,1848.06836 2006.20696,1848.16276 2005.92375,1848.35156 C2006.11256,1849.10677 2006.44296,1849.62598 2006.91496,1849.90918 C2011.44624,1852.45802 2016.30784,1855.43162 2021.49992,1858.83008 C2025.46479,1861.28452 2029.94879,1863.50292 2034.95207,1865.48535 C2038.35053,1867.09018 2041.60733,1868.83658 2044.72258,1870.72461 C2045.8554,1871.47982 2046.8938,1872.18782 2047.83782,1872.84863 L2045.997,1873.55664 C2044.48657,1874.21745 2043.49537,1875.16145 2043.02336,1876.38867 C2042.74016,1876.76628 2042.45696,1876.95508 2042.17375,1876.95508 L2041.74895,1876.95508 C2040.80493,1876.95508 2037.97293,1875.53908 2033.25285,1872.70703 C2027.49436,1869.30858 2020.83916,1866.24057 2013.28703,1863.50293 C2008.37816,1861.8037 2002.47815,1860.1517 1995.58684,1858.54688 C1983.88105,1855.14842 1974.11064,1852.45802 1966.27532,1850.47559 L1966.13371,1850.47559 C1965.2841,1850.94759 1964.2929,1851.65559 1963.16008,1852.59961 C1962.97128,1852.59961 1962.64088,1853.54361 1962.16887,1855.43164 C1959.14802,1865.5326 1957.63762,1871.71581 1957.63762,1873.98145 L1957.63762,1874.12305 C1957.63762,1874.97266 1958.10962,1877.71026 1959.05364,1882.33594 C1959.43124,1884.69598 1959.62004,1886.53678 1959.62004,1887.8584 C1959.62004,1890.40724 1958.95924,1892.29524 1957.63762,1893.52246 C1957.16561,1894.37207 1956.36321,1894.79688 1955.23039,1894.79688 L1954.66399,1894.79688 C1952.02075,1894.79688 1948.85834,1894.08887 1945.17668,1892.67285 C1943.09985,1891.72884 1941.21185,1890.59604 1939.51262,1889.27441 C1934.03733,1884.83754 1931.29973,1878.93754 1931.29973,1871.57422 C1931.29973,1866.75974 1932.24373,1859.01893 1934.13176,1848.35156 C1936.775,1834.66334 1940.26781,1819.98413 1944.61028,1804.31348 C1947.15912,1795.15653 1951.87912,1779.39171 1958.77043,1757.01855 C1961.69688,1746.63439 1964.24568,1736.67518 1966.41692,1727.14062 C1966.41692,1727.04622 1966.46412,1726.76302 1966.55852,1726.29102 L1966.41692,1726.29102 C1963.30167,1727.32943 1960.70566,1727.84863 1958.62883,1727.84863 C1953.90876,1727.84863 1950.84075,1725.34703 1949.42473,1720.34375 C1949.42473,1719.96614 1948.62233,1718.45574 1947.0175,1715.8125 C1946.6399,1714.86848 1946.4511,1714.11328 1946.4511,1713.54688 L1946.4511,1713.26367 C1946.4511,1712.79166 1946.6399,1712.46126 1947.0175,1712.27246 C1955.04163,1707.36358 1961.60244,1704.38998 1966.70012,1703.35156 C1969.72097,1702.59635 1973.11937,1702.21875 1976.89543,1702.21875 C1979.72748,1701.93555 1981.66268,1701.60515 1982.7011,1701.22754 C1983.45631,1700.84993 1983.88111,1700.61393 1983.97551,1700.51953 C1982.93709,1700.42513 1981.61549,1700.37793 1980.01067,1700.37793 L1978.16985,1700.37793 C1975.99861,1700.37793 1973.87461,1700.70833 1971.79778,1701.36914 L1964.4345,1702.78516 C1961.98006,1703.35157 1959.62005,1704.15397 1957.35442,1705.19238 C1956.97681,1705.38119 1955.89121,1705.71159 1954.09758,1706.18359 C1952.49276,1706.75 1950.41595,1707.7412 1947.86711,1709.15723 C1947.86711,1709.25163 1947.81991,1709.29883 1947.72551,1709.29883 L1947.58391,1709.29883 L1947.44231,1709.15723 C1947.81991,1708.49642 1948.57511,1707.78842 1949.70793,1707.0332 C1951.69036,1705.71158 1953.76717,1704.48438 1955.9384,1703.35156 C1960.18647,1701.18033 1965.09527,1699.52833 1970.66496,1698.39551 C1975.95145,1697.35709 1986.90186,1696.95589 2003.51653,1697.19189 C2020.13119,1697.4279 2035.04641,1700.9443 2048.26262,1707.74121 Z M1971.08977,1717.93652 C1971.08977,1718.40853 1971.27857,1718.64453 1971.65617,1718.64453 C1971.93938,1718.64453 1972.08098,1718.45573 1972.08098,1718.07812 C1971.98658,1717.70052 1971.93938,1717.46452 1971.93938,1717.37012 L1971.23137,1717.37012 C1971.13697,1717.46452 1971.08977,1717.65332 1971.08977,1717.93652 Z M1996.57805,1725.1582 L1996.71965,1725.58301 L1996.71965,1726.57422 C1996.71965,1727.04623 1996.24765,1728.74543 1995.30364,1731.67188 C1995.02043,1732.42709 1994.78443,1734.22069 1994.59563,1737.05273 C1994.12362,1739.97918 1993.79322,1741.58398 1993.60442,1741.86719 C1991.52758,1743.37761 1990.20598,1745.12401 1989.63957,1747.10645 C1989.35637,1748.42807 1988.74277,1750.26887 1987.79875,1752.62891 C1987.51555,1753.38412 1987.13795,1754.89452 1986.66594,1757.16016 C1984.1171,1766.2227 1982.8427,1771.93391 1982.8427,1774.29395 L1982.8427,1775.00195 C1982.8427,1775.66276 1982.9843,1775.99316 1983.2675,1775.99316 C1983.83391,1775.99316 1985.06111,1773.30276 1986.94914,1767.92188 C1987.98756,1765.08983 1988.83716,1762.58823 1989.49797,1760.41699 L1989.63957,1760.41699 C1983.59788,1784.30058 1978.12267,1804.2662 1973.21379,1820.31445 C1977.93387,1817.1048 1983.22027,1813.0456 1989.07317,1808.13672 C1992.37722,1805.49348 1996.95562,1801.24547 2002.80852,1795.39258 C2009.51103,1788.50127 2014.08943,1783.35646 2016.54387,1779.95801 C2027.96645,1765.51458 2033.67766,1753.43136 2033.67766,1743.70801 C2033.67766,1733.70145 2021.31125,1727.51824 1996.57805,1725.1582 Z M2061.99797,1730.11426 C2062.75318,1734.36233 2063.13078,1736.53353 2063.13078,1736.62793 C2063.31959,1735.49511 2063.46119,1734.45671 2063.55559,1733.5127 C2063.55559,1732.56868 2063.13079,1731.57748 2062.28117,1730.53906 C2062.28117,1730.53906 2062.18677,1730.39746 2061.99797,1730.11426 Z M1940.78703,1839.28906 C1940.78703,1839.57227 1941.25903,1839.80827 1942.20305,1839.99707 C1942.95826,1839.14746 1943.57186,1838.06186 1944.04387,1836.74023 C1946.97032,1828.3385 1951.02952,1813.32888 1956.2216,1791.71094 C1959.71446,1779.43874 1963.25446,1765.18433 1966.84172,1748.94727 C1967.40813,1747.43684 1968.16333,1745.54884 1969.10735,1743.2832 C1969.95696,1740.54556 1970.38176,1738.65756 1970.38176,1737.61914 L1970.38176,1737.47754 C1970.28736,1736.34472 1969.86256,1735.77832 1969.10735,1735.77832 L1968.82414,1735.77832 C1968.06893,1735.77832 1967.54973,1736.53352 1967.26653,1738.04395 C1967.26653,1738.23275 1966.74733,1739.83755 1965.70891,1742.8584 L1963.86809,1751.6377 C1953.86153,1788.17108 1946.63992,1815.40551 1942.20305,1833.3418 C1941.82544,1834.56902 1941.35344,1836.55142 1940.78703,1839.28906 Z M2062.56438,1739.31836 C2062.65878,1739.60156 2062.80038,1739.74316 2062.98918,1739.74316 C2063.27239,1739.64876 2063.41399,1739.55436 2063.41399,1739.45996 L2063.41399,1739.17676 C2063.41399,1738.79915 2063.31959,1738.23275 2063.13078,1737.47754 C2062.94198,1737.47754 2062.75318,1737.99674 2062.56438,1739.03516 C2062.56438,1739.03516 2062.56438,1739.12956 2062.56438,1739.31836 Z M2023.90715,1801.90625 C2022.96314,1802.28386 2022.11354,1802.75586 2021.35832,1803.32227 C2020.31991,1804.26628 2019.70631,1805.16308 2019.5175,1806.0127 C2019.80071,1807.23991 2020.22551,1807.85352 2020.79192,1807.85352 L2020.93352,1807.85352 C2021.59433,1807.85352 2022.01913,1807.66472 2022.20793,1807.28711 C2023.43515,1806.05989 2024.19035,1804.87989 2024.47356,1803.74707 C2024.75676,1803.08626 2025.03996,1802.75586 2025.32317,1802.75586 C2026.83359,1802.18945 2028.34399,1800.77345 2029.85442,1798.50781 C2029.94882,1798.50781 2031.36482,1796.80861 2034.10246,1793.41016 C2037.59532,1790.38931 2039.67212,1788.26531 2040.33293,1787.03809 C2041.65455,1785.05565 2043.40096,1782.64845 2045.57219,1779.81641 C2046.70501,1778.02278 2047.79061,1776.04038 2048.82903,1773.86914 C2048.82903,1773.49153 2049.30103,1772.54753 2050.24504,1771.03711 C2051.09466,1769.80989 2052.03866,1767.54429 2053.07707,1764.24023 C2054.11549,1760.74738 2055.34269,1757.63218 2056.75871,1754.89453 C2057.79713,1751.40168 2058.31633,1749.04167 2058.31633,1747.81445 L2058.17473,1747.81445 C2057.98593,1747.81445 2057.56113,1747.72005 2056.90032,1747.53125 C2056.61711,1747.53125 2056.42831,1748.14485 2056.33391,1749.37207 C2056.14511,1749.74968 2055.95631,1750.78808 2055.7675,1752.4873 C2054.16268,1756.26337 2051.47227,1761.92737 2047.69621,1769.47949 C2044.67537,1775.42679 2042.50416,1779.48599 2041.18254,1781.65723 C2038.7281,1782.50684 2036.8401,1784.11164 2035.51848,1786.47168 C2034.66887,1787.8877 2032.92246,1789.9645 2030.27922,1792.70215 C2028.9576,1794.02377 2027.8248,1794.92057 2026.88078,1795.39258 C2024.89835,1797.18621 2023.90715,1799.35741 2023.90715,1801.90625 Z M2061.85637,1747.81445 C2061.85637,1748.00326 2061.76197,1748.23926 2061.57317,1748.52246 L2061.71477,1748.52246 L2061.99797,1747.81445 L2061.85637,1747.81445 Z M2061.14836,1749.93848 C2060.77076,1750.50489 2060.29876,1751.92089 2059.73235,1754.18652 C2059.35474,1755.60255 2058.64674,1757.82095 2057.60832,1760.8418 C2057.98593,1760.8418 2058.36353,1760.3698 2058.74114,1759.42578 C2060.34596,1756.68814 2061.14836,1754.04493 2061.14836,1751.49609 L2061.14836,1749.93848 Z M1989.49797,1760.13379 L1989.63957,1760.13379 L1989.63957,1760.27539 L1989.49797,1760.27539 L1989.49797,1760.13379 Z M2051.23625,1772.02832 C2051.23625,1772.21712 2051.28345,1772.31152 2051.37785,1772.31152 L2051.51946,1772.31152 L2051.51946,1771.88672 C2051.33065,1771.98112 2051.23625,1772.02832 2051.23625,1772.02832 Z M1942.06145,1843.25391 C1940.64543,1845.99155 1939.93742,1848.30435 1939.93742,1850.19238 L1939.79582,1852.88281 C1939.98463,1852.97721 1940.07903,1853.07161 1940.07903,1853.16602 C1940.17343,1853.16602 1940.31503,1852.69402 1940.50383,1851.75 C1941.63665,1848.63475 1942.20305,1845.89715 1942.20305,1843.53711 L1942.20305,1843.25391 L1942.06145,1843.25391 Z M1973.21379,1847.36035 C1972.17538,1848.49317 1971.37297,1849.15397 1970.80657,1849.34277 C1975.05463,1850.28679 1978.26424,1851.18359 1980.43547,1852.0332 C1980.71868,1852.0332 1982.55948,1852.7412 1985.95793,1854.15723 L1985.95793,1854.01562 C1985.95793,1852.78841 1985.39153,1851.986 1984.25871,1851.6084 C1981.23787,1850.00357 1978.31146,1848.77637 1975.47942,1847.92676 C1974.72421,1847.64355 1973.969,1847.45475 1973.21379,1847.36035 Z M2246.66023,1702.78516 C2248.83147,1702.78516 2252.04107,1704.90916 2256.28914,1709.15723 L2256.85554,1709.15723 C2259.12118,1709.15723 2262.00038,1711.18683 2265.49324,1715.24609 C2266.62606,1716.09571 2268.65566,1717.13411 2271.58211,1718.36133 C2272.52612,1718.92774 2272.99812,1719.49414 2272.99812,1720.06055 C2272.62052,1721.19337 2272.29012,1722.23177 2272.00691,1723.17578 C2271.1573,1727.14064 2270.2133,1734.22065 2269.17488,1744.41602 L2269.17488,1745.40723 C2269.17488,1754.37537 2270.96848,1783.1202 2274.55574,1831.64258 C2275.12215,1838.81709 2275.40535,1843.6787 2275.40535,1846.22754 C2275.40535,1849.62599 2274.98055,1851.7028 2274.13093,1852.45801 C2273.47012,1852.74121 2272.99812,1852.88281 2272.71492,1852.88281 L2272.85652,1852.74121 C2269.64687,1851.986 2267.19247,1851.1836 2265.49324,1850.33398 C2263.51081,1849.10676 2260.018,1846.88836 2255.01472,1843.67871 C2254.07071,1843.2067 2253.36271,1842.4987 2252.8907,1841.55469 C2252.04109,1839.76106 2250.86109,1838.01466 2249.35066,1836.31543 C2249.44506,1835.74902 2250.01146,1834.23862 2251.04988,1831.78418 L2251.04988,1831.35938 C2251.04988,1831.07617 2250.81388,1830.22657 2250.34187,1828.81055 L2250.34187,1828.52734 L2250.90828,1824.5625 C2251.28588,1823.71289 2251.47468,1822.81609 2251.47468,1821.87207 C2251.47468,1820.92806 2251.09708,1819.74805 2250.34187,1818.33203 C2249.96427,1817.57682 2249.77547,1816.91602 2249.77547,1816.34961 L2250.34187,1815.0752 L2250.34187,1814.93359 C2250.24747,1814.74479 2250.05867,1813.98959 2249.77547,1812.66797 C2249.49226,1812.57357 2249.25626,1812.52637 2249.06746,1812.52637 C2247.08503,1812.52637 2240.47702,1815.35837 2229.24324,1821.02246 C2219.04788,1826.21454 2210.36307,1830.22655 2203.18855,1833.05859 C2199.6957,1834.38021 2197.00529,1835.04102 2195.11726,1835.04102 L2193.13484,1835.04102 C2192.47403,1836.07943 2190.30283,1839.85544 2186.62117,1846.36914 C2183.60032,1851.93883 2180.72112,1857.74444 2177.98347,1863.78613 C2176.09544,1868.1286 2174.34904,1873.22621 2172.74422,1879.0791 C2172.36661,1881.34474 2172.17781,1883.65754 2172.17781,1886.01758 C2172.17781,1886.67839 2172.27221,1888.84959 2172.46101,1892.53125 C2172.46101,1893.00326 2172.27221,1893.28646 2171.89461,1893.38086 C2171.4226,1893.38086 2169.5346,1892.76726 2166.23054,1891.54004 C2164.34251,1890.69043 2161.41611,1888.80242 2157.45125,1885.87598 L2153.76961,1883.46875 C2152.63679,1881.48632 2152.07039,1879.26792 2152.07039,1876.81348 L2152.07039,1875.96387 C2152.07039,1869.07256 2155.79919,1858.73575 2163.25691,1844.95312 C2164.67293,1842.21548 2173.26334,1825.50666 2189.0284,1794.82617 C2203.28302,1767.07213 2210.92943,1752.29851 2211.96785,1750.50488 C2217.15993,1741.91435 2225.13674,1729.40633 2235.89851,1712.98047 C2237.03133,1710.90364 2238.82493,1708.54363 2241.27937,1705.90039 C2243.54501,1703.82356 2245.33861,1702.78516 2246.66023,1702.78516 Z M2225.42,1764.80664 C2229.00725,1760.36977 2232.21686,1755.69696 2235.0489,1750.78809 C2237.69215,1745.97361 2239.53295,1742.2448 2240.57136,1739.60156 C2237.73932,1742.43361 2235.66252,1744.93521 2234.3409,1747.10645 C2233.30248,1748.80567 2231.79208,1751.40168 2229.80965,1754.89453 C2227.1664,1758.48179 2225.7976,1761.12499 2225.7032,1762.82422 C2225.5144,1763.48503 2225.42,1764.14583 2225.42,1764.80664 Z M2240.57136,1753.05371 C2236.22889,1759.75622 2233.53849,1764.28742 2232.50008,1766.64746 C2225.23116,1779.86367 2217.39595,1793.64609 2208.99422,1807.99512 C2215.31912,1805.25747 2225.60873,1801.15107 2239.86336,1795.67578 L2245.10261,1793.55176 C2242.17617,1768.44096 2240.71297,1755.13054 2240.71297,1753.62012 L2240.71297,1753.05371 L2240.57136,1753.05371 Z M2263.36922,1754.18652 C2262.99161,1756.54656 2262.80281,1758.62336 2262.80281,1760.41699 L2262.80281,1762.68262 C2262.80281,1765.13706 2263.65241,1767.49706 2265.35164,1769.7627 C2265.82365,1767.59146 2266.05965,1765.70346 2266.05965,1764.09863 C2266.05965,1760.98338 2265.21004,1757.67938 2263.51082,1754.18652 L2263.36922,1754.18652 Z M2265.35164,1774.86035 C2264.69083,1775.61556 2264.36043,1776.46516 2264.36043,1777.40918 C2264.36043,1777.78679 2264.73803,1779.39159 2265.49324,1782.22363 C2265.87085,1784.11166 2266.05965,1785.95246 2266.05965,1787.74609 C2265.96524,1789.91733 2265.91804,1791.28613 2265.91804,1791.85254 L2265.91804,1793.12695 C2265.91804,1795.48699 2266.24844,1799.4518 2266.90925,1805.02148 L2266.90925,1806.7207 L2266.48445,1813.09277 L2266.48445,1813.51758 C2266.48445,1818.80406 2267.00365,1824.32647 2268.04207,1830.08496 C2268.89168,1833.20021 2270.16608,1835.79621 2271.86531,1837.87305 L2271.86531,1837.73145 C2270.07168,1829.61292 2269.17488,1820.83371 2269.17488,1811.39355 C2269.17488,1798.74375 2268.84448,1790.01174 2268.18367,1785.19727 C2267.90046,1779.15557 2267.57006,1776.13477 2267.19246,1776.13477 C2266.53165,1775.28515 2265.91805,1774.86035 2265.35164,1774.86035 Z M2199.50691,1810.68555 C2200.82853,1809.74153 2201.48933,1808.56153 2201.48933,1807.14551 L2201.48933,1806.8623 C2200.16771,1808.08952 2199.50691,1809.36393 2199.50691,1810.68555 Z M2199.22371,1810.96875 L2199.22371,1811.25195 C2199.31811,1811.25195 2199.36531,1811.15755 2199.36531,1810.96875 L2199.22371,1810.96875 Z M2185.06355,1837.02344 C2188.74521,1832.02016 2191.95481,1826.82815 2194.69246,1821.44727 C2197.5245,1815.40557 2198.9405,1812.19597 2198.9405,1811.81836 C2196.39166,1814.3672 2194.59806,1816.5856 2193.55965,1818.47363 C2192.42683,1820.17286 2191.19963,1822.43846 2189.878,1825.27051 C2188.93399,1826.96974 2187.75399,1828.95214 2186.33797,1831.21777 C2185.48835,1833.20021 2185.06355,1835.13541 2185.06355,1837.02344 Z M2176.28425,1854.72363 C2176.28425,1855.38444 2176.37865,1856.13964 2176.56746,1856.98926 C2180.06031,1853.02439 2181.80672,1848.06839 2181.80672,1842.12109 C2180.10749,1844.38673 2178.73869,1846.65233 2177.70027,1848.91797 C2176.75626,1850.806 2176.28425,1852.7412 2176.28425,1854.72363 Z M2170.62019,1868.60059 L2170.62019,1868.74219 C2170.62019,1869.4974 2170.66739,1870.1582 2170.76179,1870.72461 C2172.55542,1869.11978 2173.45222,1867.23178 2173.45222,1865.06055 C2173.45222,1864.30533 2173.40502,1863.59733 2173.31062,1862.93652 C2171.51699,1864.54135 2170.62019,1866.42935 2170.62019,1868.60059 Z M2368.51529,1659.45508 L2369.08169,1659.45508 C2376.91702,1659.45508 2382.91142,1661.67348 2387.06509,1666.11035 C2386.87629,1667.71518 2386.59309,1669.17838 2386.21548,1670.5 C2386.12108,1670.5 2386.07388,1670.5944 2386.07388,1670.7832 C2386.07388,1670.8776 2386.12108,1671.0664 2386.21548,1671.34961 C2386.40429,1673.14324 2386.54589,1674.70084 2386.64029,1676.02246 C2386.64029,1678.1937 2386.26269,1681.2617 2385.50747,1685.22656 C2385.50747,1686.07618 2384.89387,1688.81378 2383.66665,1693.43945 C2382.91144,1695.51629 2382.53384,1696.69629 2382.53384,1696.97949 C2382.62824,1698.48992 2382.67544,1699.29232 2382.67544,1699.38672 C2382.67544,1699.66992 2382.43944,1702.83233 2381.96744,1708.87402 C2381.87303,1709.34603 2381.82583,1709.95963 2381.82583,1710.71484 L2381.82583,1711.13965 C2381.82583,1711.32845 2381.96743,1711.51725 2382.25064,1711.70605 C2382.72265,1711.51725 2382.95865,1711.32845 2382.95865,1711.13965 L2383.94986,1705.19238 C2385.36588,1699.24509 2386.07388,1695.75228 2386.07388,1694.71387 C2386.16828,1693.76985 2386.30988,1691.64585 2386.49869,1688.3418 C2386.97069,1685.32095 2387.48989,1682.67775 2388.0563,1680.41211 C2389.37792,1675.22003 2390.03872,1672.15202 2390.03872,1671.20801 L2390.18033,1670.5 L2390.32193,1670.5 C2392.58756,1674.74807 2393.72036,1679.70407 2393.72036,1685.36816 C2391.36033,1698.77318 2388.15072,1713.49959 2384.09146,1729.54785 C2379.27698,1748.61696 2375.68978,1763.34337 2373.32974,1773.72754 C2372.00812,1780.24124 2371.34732,1783.82845 2371.34732,1784.48926 C2378.42743,1782.41242 2385.97944,1781.37402 2394.00357,1781.37402 C2399.10125,1781.37402 2406.88926,1781.84602 2417.36783,1782.79004 C2420.38867,1783.45085 2422.41828,1784.34765 2423.45669,1785.48047 C2424.58951,1786.61329 2425.15591,1787.98209 2425.15591,1789.58691 C2425.15591,1791.85255 2423.73991,1794.30695 2420.90786,1796.9502 C2418.26462,1799.59344 2416.70702,1801.33984 2416.23501,1802.18945 L2415.3854,1803.74707 C2411.89255,1803.18066 2409.24935,1802.89746 2407.45572,1802.89746 C2404.34047,1802.89746 2401.13086,1803.65266 2397.82681,1805.16309 C2401.69727,1806.2959 2406.27568,1806.8623 2411.56216,1806.8623 L2414.819,1806.8623 L2414.819,1807.99512 C2414.819,1808.46712 2414.5358,1808.70312 2413.96939,1808.70312 C2411.79815,1808.60872 2410.47655,1808.56152 2410.00454,1808.56152 L2409.57974,1808.56152 C2402.68843,1808.56152 2393.05962,1810.49673 2380.69302,1814.36719 L2370.63931,1817.05762 C2370.63931,1817.24642 2370.49771,1817.38802 2370.21451,1817.48242 C2366.15524,1818.42644 2357.09283,1819.46484 2343.02701,1820.59766 C2338.49573,1820.97526 2336.23013,1821.21126 2336.23013,1821.30566 C2335.47492,1822.15528 2334.95572,1822.58008 2334.67251,1822.58008 L2334.38931,1822.58008 C2334.29491,1822.58008 2334.24771,1822.43848 2334.24771,1822.15527 L2334.24771,1822.01367 C2334.34211,1820.22004 2335.75811,1816.91604 2338.49576,1812.10156 C2339.25097,1810.77994 2340.52537,1809.08074 2342.319,1807.00391 C2342.03579,1806.24869 2341.89419,1805.49349 2341.89419,1804.73828 C2341.89419,1803.69986 2342.08299,1802.56706 2342.4606,1801.33984 L2342.7438,1801.33984 C2342.6494,1800.96224 2342.6022,1800.72624 2342.6022,1800.63184 L2342.6022,1799.49902 C2342.6022,1798.36621 2342.9798,1797.139 2343.73501,1795.81738 C2344.01822,1795.25097 2344.30142,1794.49577 2344.58462,1793.55176 C2344.77343,1793.36295 2344.86783,1793.07975 2344.86783,1792.70215 L2344.86783,1792.41895 C2344.86783,1792.13574 2344.63183,1791.94694 2344.15982,1791.85254 C2343.87661,1792.23015 2343.59341,1792.41895 2343.31021,1792.41895 C2342.8382,1792.41895 2342.6022,1791.75814 2342.6022,1790.43652 L2341.32779,1783.49805 C2343.78223,1779.53318 2346.42543,1772.50038 2349.25747,1762.39941 C2352.37272,1751.63764 2355.25193,1738.13843 2357.89517,1721.90137 C2360.0664,1707.92994 2361.15201,1696.08273 2361.15201,1686.35938 C2361.15201,1673.33197 2359.1696,1665.35516 2355.20474,1662.42871 C2354.35513,1661.8623 2353.69433,1661.5791 2353.22232,1661.5791 L2353.22232,1661.4375 C2359.35842,1660.11588 2364.45602,1659.45508 2368.51529,1659.45508 Z M2328.30044,1675.03125 C2340.00623,1675.03125 2345.85904,1684.23526 2345.85904,1702.64355 C2345.85904,1717.9366 2341.75263,1740.59262 2333.5397,1770.6123 C2333.5397,1771.08431 2329.6221,1784.96113 2321.78677,1812.24316 C2319.04913,1821.30571 2316.83072,1829.61292 2315.1315,1837.16504 C2314.75389,1839.05307 2314.47069,1840.51627 2314.28189,1841.55469 L2314.42349,1841.55469 C2318.48276,1839.76106 2324.42996,1837.73146 2332.26529,1835.46582 C2338.11818,1833.9554 2344.58459,1832.68099 2351.6647,1831.64258 C2360.06644,1830.13215 2370.12005,1828.05535 2381.82583,1825.41211 C2393.53162,1822.76887 2401.50843,1821.44727 2405.7565,1821.44727 L2405.8981,1821.44727 C2407.21972,1821.44727 2408.21092,1821.58887 2408.87173,1821.87207 L2409.29654,1821.87207 C2413.63901,1821.87207 2416.32941,1823.14647 2417.36783,1825.69531 C2417.55663,1826.26172 2417.65103,1826.82812 2417.65103,1827.39453 C2417.65103,1829.94337 2415.95183,1832.86978 2412.55337,1836.17383 C2412.55337,1836.26823 2412.08137,1836.78743 2411.13736,1837.73145 C2408.96612,1840.18588 2407.69172,1841.97949 2407.31411,1843.1123 C2406.1813,1843.0179 2405.2845,1842.9707 2404.62369,1842.9707 L2404.48208,1842.9707 C2399.85641,1842.9707 2396.41081,1843.4899 2394.14517,1844.52832 C2392.91795,1845.00033 2391.40755,1845.70833 2389.61392,1846.65234 C2391.59635,1847.02995 2393.53155,1847.21875 2395.41958,1847.21875 L2396.9772,1847.21875 C2399.52604,1847.21875 2402.68845,1846.93555 2406.46451,1846.36914 L2406.60611,1846.36914 L2406.60611,1846.51074 C2406.60611,1847.45476 2403.9629,1848.63476 2398.67642,1850.05078 C2394.23955,1851.1836 2384.32754,1853.3548 2368.94009,1856.56445 C2349.87099,1860.81252 2335.42777,1865.01333 2325.61001,1869.16699 C2322.68357,1870.39421 2318.24676,1872.14061 2312.29947,1874.40625 C2312.48827,1875.25586 2312.58267,1876.15266 2312.58267,1877.09668 C2312.58267,1880.49513 2311.54427,1883.23274 2309.46744,1885.30957 C2308.24022,1886.44239 2306.96581,1887.00879 2305.64419,1887.00879 C2304.60578,1887.00879 2303.47298,1886.53679 2302.24576,1885.59277 C2300.35773,1884.36555 2298.23372,1882.71355 2295.87369,1880.63672 C2293.32484,1881.10873 2291.20084,1881.67513 2289.50161,1882.33594 C2287.04718,1883.18555 2284.92317,1884.12955 2283.12954,1885.16797 C2281.52472,1886.11198 2279.77832,1887.33919 2277.89029,1888.84961 C2275.24704,1891.39845 2273.73664,1893.05045 2273.35904,1893.80566 C2271.75421,1895.7881 2270.29101,1898.1953 2268.96939,1901.02734 C2268.59178,1901.59375 2268.30858,1901.87695 2268.11978,1901.87695 C2267.36457,1901.21614 2266.79817,1896.49614 2266.42056,1887.7168 L2266.42056,1884.45996 C2266.42056,1878.51267 2266.84536,1874.83106 2267.69497,1873.41504 C2268.63899,1871.33821 2270.19659,1869.167 2272.36783,1866.90137 C2275.95508,1863.59731 2280.15589,1861.94531 2284.97036,1861.94531 L2284.97036,1861.37891 C2284.97036,1859.30207 2285.34797,1857.74447 2286.10318,1856.70605 C2286.48078,1855.76204 2286.81118,1854.86524 2287.09439,1854.01562 C2287.28319,1854.01562 2287.42479,1853.59082 2287.51919,1852.74121 C2287.51919,1852.45801 2287.28319,1852.26921 2286.81119,1852.1748 C2286.52798,1852.64681 2286.19758,1852.88281 2285.81997,1852.88281 C2285.44237,1852.88281 2285.25357,1852.26921 2285.25357,1851.04199 C2284.68716,1846.69952 2284.40396,1844.38672 2284.40396,1844.10352 C2286.19759,1843.44271 2287.09439,1842.2627 2287.09439,1840.56348 L2287.09439,1839.85547 C2287.09439,1825.88404 2288.93519,1811.62963 2292.61685,1797.0918 C2295.16569,1787.08524 2298.51689,1775.80442 2302.67056,1763.24902 C2306.63542,1750.97683 2310.03383,1739.60161 2312.86587,1729.12305 C2314.09309,1724.49737 2314.98989,1720.39097 2315.5563,1716.80371 C2316.40592,1712.08364 2317.16112,1705.75883 2317.82193,1697.8291 C2318.10513,1694.61945 2318.24673,1691.97625 2318.24673,1689.89941 L2318.24673,1688.4834 C2318.24673,1686.59537 2317.91633,1685.17937 2317.25552,1684.23535 C2316.87792,1683.19693 2315.88671,1681.96973 2314.28189,1680.55371 C2313.14907,1679.6097 2312.58267,1678.9961 2312.58267,1678.71289 L2312.58267,1678.57129 C2312.58267,1678.00488 2314.56507,1677.34408 2318.52994,1676.58887 C2322.778,1675.55045 2326.03481,1675.03125 2328.30044,1675.03125 Z M2335.09732,1686.92578 C2335.09732,1687.8698 2335.38052,1689.7106 2335.94693,1692.44824 C2336.04133,1693.10905 2336.08853,1693.81705 2336.08853,1694.57227 L2336.08853,1695.13867 C2336.08853,1696.6491 2335.80533,1698.6315 2335.23892,1701.08594 C2335.14452,1701.46354 2335.09732,1701.88834 2335.09732,1702.36035 C2335.09732,1702.64356 2335.28612,1704.29556 2335.66372,1707.31641 L2335.66372,1710.29004 C2335.66372,1713.59409 2335.33332,1717.8893 2334.67251,1723.17578 C2334.48371,1725.53582 2334.29491,1727.28222 2334.10611,1728.41504 C2333.7285,1729.64226 2333.3981,1730.63346 2333.1149,1731.38867 C2333.3037,1731.86068 2333.3981,1732.89908 2333.3981,1734.50391 C2333.4925,1734.50391 2333.5397,1734.78711 2333.5397,1735.35352 C2333.5397,1738.09116 2332.9733,1741.63116 2331.84048,1745.97363 C2331.17967,1749.65529 2330.37727,1752.8177 2329.43326,1755.46094 C2328.86685,1756.97136 2328.58365,1757.91536 2328.58365,1758.29297 L2328.58365,1760.27539 C2328.58365,1760.653 2328.20605,1763.8626 2327.45083,1769.9043 C2327.35643,1771.32032 2327.30923,1772.16992 2327.30923,1772.45312 C2327.40363,1772.64193 2327.54523,1772.83073 2327.73404,1773.01953 C2328.20604,1772.73633 2328.44204,1772.26433 2328.44204,1771.60352 C2329.19726,1767.82746 2330.09406,1764.14585 2331.13247,1760.55859 C2331.88769,1757.72655 2332.40689,1754.28094 2332.69009,1750.22168 C2333.0677,1747.86164 2333.5397,1745.54884 2334.10611,1743.2832 C2336.18294,1735.82548 2337.22134,1731.57748 2337.22134,1730.53906 C2337.78775,1727.23501 2338.07095,1724.16701 2338.07095,1721.33496 C2338.54296,1712.83882 2338.77896,1706.32522 2338.77896,1701.79395 C2338.77896,1699.81151 2338.68456,1695.79951 2338.49576,1689.75781 C2338.30695,1689.2858 2338.07095,1688.3418 2337.78775,1686.92578 C2337.31574,1685.50976 2336.74934,1684.80176 2336.08853,1684.80176 L2335.66372,1684.80176 C2335.28612,1685.08496 2335.09732,1685.74576 2335.09732,1686.78418 L2335.09732,1686.92578 Z M2364.69204,1778.8252 L2364.69204,1779.25 C2364.40884,1781.51564 2364.26724,1782.93164 2364.26724,1783.49805 L2364.26724,1783.78125 C2364.26724,1785.38608 2364.55044,1787.03808 2365.11685,1788.7373 L2365.25845,1788.87891 C2366.10806,1787.74609 2366.67447,1786.66049 2366.95767,1785.62207 C2367.52408,1783.82844 2367.80728,1781.94044 2367.80728,1779.95801 C2368.27929,1776.27635 2369.17609,1771.32034 2370.49771,1765.08984 C2371.34732,1761.88019 2372.43292,1758.10419 2373.75454,1753.76172 C2374.50976,1750.74087 2375.31216,1747.20087 2376.16177,1743.1416 C2376.82258,1740.12075 2378.19138,1735.07035 2380.26822,1727.99023 C2380.64582,1726.76301 2380.88182,1725.86621 2380.97622,1725.2998 C2379.277,1726.71583 2378.0498,1728.74543 2377.29458,1731.38867 C2377.29458,1732.33269 2375.92578,1736.58069 2373.18814,1744.13281 C2370.9225,1750.45771 2368.8457,1758.48172 2366.95767,1768.20508 C2365.44725,1775.00199 2364.69204,1778.54199 2364.69204,1778.8252 Z M2373.04654,1730.68066 C2371.63051,1733.79591 2370.92251,1736.43912 2370.92251,1738.61035 L2370.92251,1740.02637 L2371.06411,1740.02637 C2372.00813,1738.04394 2372.57453,1736.72233 2372.76333,1736.06152 C2373.14094,1734.92871 2373.32974,1733.8903 2373.32974,1732.94629 C2373.32974,1732.37988 2373.23534,1731.62468 2373.04654,1730.68066 Z M2307.34341,1840.98828 L2307.34341,1842.2627 C2307.34341,1843.86752 2307.53221,1845.33072 2307.90982,1846.65234 L2308.05142,1846.79395 C2308.42903,1846.41634 2308.94823,1845.51954 2309.60904,1844.10352 C2310.36425,1841.93228 2310.74185,1840.37468 2310.74185,1839.43066 C2310.93065,1837.44823 2311.35545,1835.04103 2312.01626,1832.20898 C2313.80989,1823.90165 2315.50909,1817.43524 2317.11392,1812.80957 C2318.34114,1809.12791 2319.56834,1804.59671 2320.79556,1799.21582 C2321.64517,1796.38377 2323.24998,1791.14457 2325.61001,1783.49805 C2325.98762,1782.27083 2326.22362,1781.42123 2326.31802,1780.94922 C2324.902,1782.45964 2324.0052,1783.68684 2323.62759,1784.63086 C2322.77798,1786.33009 2322.35318,1787.46289 2322.35318,1788.0293 C2321.40916,1791.33335 2319.80436,1795.77015 2317.53872,1801.33984 C2315.17869,1808.04235 2313.05468,1815.45276 2311.16665,1823.57129 C2308.99542,1831.97302 2307.90982,1836.36263 2307.90982,1836.74023 C2307.90982,1837.21224 2307.72102,1838.62824 2307.34341,1840.98828 Z M2318.24673,1787.32129 C2316.5475,1790.71974 2315.6979,1793.74055 2315.6979,1796.38379 L2315.6979,1796.9502 L2315.83951,1796.9502 C2316.87792,1794.77896 2317.53872,1793.22136 2317.82193,1792.27734 C2318.19953,1791.23893 2318.38833,1790.29493 2318.38833,1789.44531 L2318.38833,1788.7373 C2318.38833,1788.1709 2318.34113,1787.6989 2318.24673,1787.32129 Z M2385.08267,1809.12793 L2385.64908,1809.12793 C2389.61394,1809.12793 2393.43714,1807.85353 2397.1188,1805.30469 C2397.1188,1805.21029 2396.3164,1805.02149 2394.71158,1804.73828 C2394.14517,1804.64388 2393.62597,1804.59668 2393.15396,1804.59668 C2390.32191,1804.59668 2387.86751,1805.77668 2385.79068,1808.13672 L2385.08267,1809.12793 Z M2376.72818,1852.1748 C2377.57779,1852.1748 2379.27699,1851.7972 2381.82583,1851.04199 C2384.09147,1850.19238 2386.45147,1848.77638 2388.90591,1846.79395 C2388.0563,1846.69954 2387.3011,1846.65234 2386.64029,1846.65234 L2386.07388,1846.65234 C2383.05303,1846.65234 2380.31543,1847.97395 2377.86099,1850.61719 C2377.76659,1850.71159 2377.38899,1851.23079 2376.72818,1852.1748 Z" id="foral"></path>
        </g>
    </g>
</svg>