<svg xmlns="http://www.w3.org/2000/svg" width="301.22" height="88.34" viewBox="0 0 301.22 88.34">
  <metadata><?xpacket begin="﻿" id="W5M0MpCehiHzreSzNTczkc9d"?>
<x:xmpmeta xmlns:x="adobe:ns:meta/" x:xmptk="Adobe XMP Core 5.6-c138 79.159824, 2016/09/14-01:09:01        ">
   <rdf:RDF xmlns:rdf="http://www.w3.org/1999/02/22-rdf-syntax-ns#">
      <rdf:Description rdf:about=""/>
   </rdf:RDF>
</x:xmpmeta>
                                                                                                    
                                                                                                    
                                                                                                    
                                                                                                    
                                                                                                    
                                                                                                    
                                                                                                    
                                                                                                    
                                                                                                    
                                                                                                    
                                                                                                    
                                                                                                    
                                                                                                    
                                                                                                    
                                                                                                    
                                                                                                    
                                                                                                    
                                                                                                    
                                                                                                    
                                                                                                    
                           
<?xpacket end="w"?></metadata>
<defs>
    <style>
      .cls-1 {
        fill: #dfa322;
        fill-rule: evenodd;
      }
    </style>
  </defs>
  <path id="了解_API" data-name="了解 API" class="cls-1" d="M4674.47,7349.04c-0.33.03-1.19,0.07-2.61,0.13a37.2,37.2,0,0,0-5,.62c-1.92.36-3.89,0.82-5.93,1.38s-3.79,1-5.26,1.33a23.945,23.945,0,0,1-3.67.57,19.555,19.555,0,0,1-2.96-.04,5.943,5.943,0,0,1-3.1-1.38,9.054,9.054,0,0,0-1.99-1.33,0.9,0.9,0,0,0-.53,0,0.538,0.538,0,0,1-.31.09,1.374,1.374,0,0,1-.44-0.09,0.423,0.423,0,0,1-.62,0,2.229,2.229,0,0,0,.31,1.02,1.2,1.2,0,0,1-.36,1.16,2.627,2.627,0,0,0-.48,1.77,2.858,2.858,0,0,0,.35,1.33c0.18,0.27.44,0.67,0.8,1.2l1.32,1.15c0.12,0.48.21,0.86,0.27,1.16a6.223,6.223,0,0,0,.66,1.46,6.547,6.547,0,0,0,1.15,1.55,16.059,16.059,0,0,1,1.55,1.78c0.3,0.12.69,0.26,1.19,0.44a2.262,2.262,0,0,0,1.16.18,1.619,1.619,0,0,1,.84.04,6.95,6.95,0,0,0,1.54.18,2.427,2.427,0,0,0,1.82-.62,2.751,2.751,0,0,1,1.72-.76,9.683,9.683,0,0,0,2.79-.84,19.516,19.516,0,0,0,2.48-1.2,4.171,4.171,0,0,1,1.37-.57,7.6,7.6,0,0,0,1.41-.45,7.612,7.612,0,0,1,1.55-.44c0.53-.09,1.3-0.25,2.3-0.49l-1.06,1.6-3.54,3.1c-0.94,1.13-1.65,1.93-2.12,2.4s-1.26,1.24-2.35,2.3a24.054,24.054,0,0,0-2.78,3.2l-2.39.71,0.09,0.62,0.53,0.35-0.8.27,0.18,0.27-0.44.26-0.27.27,0.35,0.09-0.17.44a6.806,6.806,0,0,0,.62.44,3.579,3.579,0,0,0,.93.4,1.488,1.488,0,0,0,1.28-.13,3.553,3.553,0,0,1,1.63-.4,10.376,10.376,0,0,1,1.95.09,2.555,2.555,0,0,1,1.33.49,6.161,6.161,0,0,0,1.02.71c0.41,0.47.72,0.81,0.92,1.02a2.677,2.677,0,0,1,.53,1.28,24.031,24.031,0,0,1,.4,2.62,38.831,38.831,0,0,1,.14,4.39,43.5,43.5,0,0,1-.54,5.94q-0.48,3.195-.97,5.28a21.07,21.07,0,0,1-.66,2.49,7.254,7.254,0,0,0-.36,1.02l-0.35.17-0.18.89-0.26.09-0.18.62-0.44.27-0.27.53-0.44.35c-1.06-.41-2-0.75-2.83-1.02a40.654,40.654,0,0,1-3.98-1.64q-2.745-1.245-5.75-2.7a28.038,28.038,0,0,0-3.1-1.42,0.134,0.134,0,0,1-.17-0.05q0.96,0.63,4.07,2.22c2.06,1.07,3.19,1.63,3.4,1.69a4.759,4.759,0,0,1,.84.35l0.09,0.36a11.2,11.2,0,0,1-1.86-.63l-0.09-.17-2.21-1.07-0.17-.17-1.07-.18-0.26-.45a10.309,10.309,0,0,1-1.15-.39c-0.36-.15-2.24-1.14-5.66-2.98l-0.09-.08h-0.18c-0.06,0-2.15-1.25-6.28-3.73a5.062,5.062,0,0,0,1.42,1.15l0.08,0.18a0.875,0.875,0,0,1,.45.18l0.44,0.62c0.18,0.12.37,0.24,0.57,0.35s0.61,0.37,1.2.76a9.58,9.58,0,0,1,1.59,1.28l0.18-.17,0.17,0.44a21.15,21.15,0,0,0,2.84,1.86l0.17,0.36c2.07,1.71,4.22,3.4,6.46,5.05a5.667,5.667,0,0,1-.93-0.62c-0.38-.29-0.93-0.68-1.64-1.15v0.18l0.62,0.26,0.62,0.71c4.48,3.43,6.76,5.16,6.81,5.19a0.407,0.407,0,0,0,.18.05l0.27,0.53,0.44,0.26-0.09.18-0.71-.26,0.09,0.53h0.18l0.26,0.26,0.36,0.18v0.27l0.17-.18,0.62,0.71a1.151,1.151,0,0,0-.17.62l-0.36-.18v0.18l0.98,0.44-0.27.18,0.09,0.09-0.27.27-0.79-.62c0.12,0.17.19,0.28,0.22,0.31a0.234,0.234,0,0,1,.04.17v0.31a14.763,14.763,0,0,1-3.71-2.48l-0.09.09c0.77,0.59,1.75,1.34,2.96,2.26s2.08,1.61,2.61,2.09a7.114,7.114,0,0,0,.98.97,0.719,0.719,0,0,1,.35.49,1.081,1.081,0,0,0,.04.35c0.03,0.09.08,0.23,0.14,0.4l1.06,0.89a2.587,2.587,0,0,0,.53,1.6l-0.36.26,0.36,0.45,1.5,0.35a3.482,3.482,0,0,1,.53.89,2.332,2.332,0,0,1,.18.53c0.77,0,1.3-.01,1.59-0.04a1.744,1.744,0,0,1,.58,0,1.36,1.36,0,0,0,.4.04l0.44-.35,0.53-1.07a5.194,5.194,0,0,0,.57-0.26,0.741,0.741,0,0,1,.4-0.09h0.62l0.44-.71a3.467,3.467,0,0,0,.58-0.4,0.682,0.682,0,0,1,.49-0.14h1.06l0.09-.17c0.58-.36,1.2-0.71,1.85-1.07a4.349,4.349,0,0,1,.18-0.57,5.032,5.032,0,0,0,.18-1.02c0.05-.54.11-0.98,0.17-1.33a4.678,4.678,0,0,1,.27-0.98,8.211,8.211,0,0,0,.35-1.46,15.151,15.151,0,0,1,.76-2.58,8.964,8.964,0,0,0,.53-3.28,16.537,16.537,0,0,1,.35-3.72c0.27-1.33.44-2.27,0.53-2.8a1.9,1.9,0,0,0-.04-1.11,1.021,1.021,0,0,1-.14-0.66c0.03-.24.08-0.74,0.14-1.51l-0.18.09-0.18,1.6h-0.17c0.11-1.13.19-1.93,0.22-2.4a10.51,10.51,0,0,1,.35-1.91,17.125,17.125,0,0,0,.44-2.97,28.141,28.141,0,0,0,0-3.9,24.459,24.459,0,0,0-1.85-7.72,7.143,7.143,0,0,0-1.16-1.86c-0.38-.42-0.98-1.16-1.81-2.22a14.562,14.562,0,0,0-1.72-1.55c-0.39-.27-0.81-0.53-1.29-0.8a19.4,19.4,0,0,0-1.85-.89,9.885,9.885,0,0,0-2.53-.66,17.185,17.185,0,0,0-1.94-.18,12.328,12.328,0,0,1-1.37-.09c0.7-.59,1.28-1.09,1.72-1.51s1.45-1.3,3.01-2.66a46.589,46.589,0,0,1,4.16-3.28c1.21-.83,2.03-1.38,2.47-1.64a7.215,7.215,0,0,0,.93-0.62,0.834,0.834,0,0,1,.53-0.22,1.757,1.757,0,0,0,.62-0.14,1.371,1.371,0,0,0,.53-0.31,3.792,3.792,0,0,1,.62-0.44l0.27,0.09-0.18.18a2.452,2.452,0,0,0,.84-0.49,11.793,11.793,0,0,1,1.33-.85,1.82,1.82,0,0,1,1.15-.26,2.626,2.626,0,0,0,1.59-.67c0.74-.5,1.55-1.08,2.43-1.73,0.24-.29.54-0.66,0.89-1.11a5.975,5.975,0,0,0,.84-1.41,2.542,2.542,0,0,0,.27-0.89,1.049,1.049,0,0,1-.05-0.4l-0.35-.09-0.27.27-0.53-1.6c-0.18-.18-0.35-0.34-0.53-0.49a6.49,6.49,0,0,0-.93-0.57,3.955,3.955,0,0,0-1.46-.45,2.884,2.884,0,0,1-1.06-.26c-0.18-.12-0.41-0.3-0.71-0.54q-0.435.09-.75,0.18a0.537,0.537,0,0,1-.49-0.04,0.533,0.533,0,0,0-.44-0.09,1.286,1.286,0,0,1-.48,0c-0.15-.03-0.34-0.08-0.58-0.14h0A5.639,5.639,0,0,1,4674.47,7349.04Zm-31.1,51.31,0.54,0.54,0.35,0.17v-0.09Zm0.98,0.71,0.44,0.54,0.71,0.44-0.09-.27Zm12.29,14.64,0.89,0.53,0.26-.09-0.35-.62a4.109,4.109,0,0,0-1.24-.53,5.477,5.477,0,0,0,.44.71h0Zm49.37-73.18,1.32,1.24a10.344,10.344,0,0,1-.13,1.86c-0.09.48-.38,1.6-0.88,3.37a27.524,27.524,0,0,1-2.44,5.72,30.534,30.534,0,0,1-2.3,3.82c-0.41.5-.91,1.17-1.5,2a21.743,21.743,0,0,1-4.07,1.77c-1.47.47-2.33,0.75-2.56,0.84a9.842,9.842,0,0,1-1.15.31,6.226,6.226,0,0,0-.58.93,1.521,1.521,0,0,0-.09.76,1.05,1.05,0,0,1-.48.88,1.032,1.032,0,0,0-.45.98,10.493,10.493,0,0,1,.09,1.6l1.06,1.06,2.04,6.48,0.97,0.88,0.62-.53,0.44,0.27,0.8-.62,0.35-.53,0.44,0.08a2.874,2.874,0,0,0-.44,1.51l0.44,0.18-0.26.8,0.35,0.18q-0.975,6.555-1.59,10.68t-0.8,5.46a1.647,1.647,0,0,1-1.94-.18,31.721,31.721,0,0,0-.49-3.15,3.922,3.922,0,0,1,.05-1.95,24.4,24.4,0,0,0,.44-3.68l-0.62,1.6,0.09-1.07-0.53,1.78,0.62-3.64-1.33,3.9,0.71-3.63c-0.48,1.47-.86,2.64-1.15,3.5a27.977,27.977,0,0,0-.93,4.35,36.075,36.075,0,0,0-.49,3.68v1.33h-0.62l0.18,0.44,0.62-.18a3.077,3.077,0,0,0-.44,2.13l-0.45.27,0.27,0.35-0.53.8,0.44,0.18,0.53,0.8-0.97.97,0.97,0.09a0.948,0.948,0,0,0,.44.89l-0.35.62,0.35,0.18a3.916,3.916,0,0,0,1.24-.8l-0.17.62a6.449,6.449,0,0,0,1.63.75c0.5,0.15,1.52,1.05,3.05,2.71a18.7,18.7,0,0,0,2.79,2.71,6.919,6.919,0,0,0,1.19.39,8.333,8.333,0,0,1,3.19-1.68,3.121,3.121,0,0,1,.57-1.02,1.171,1.171,0,0,0,.18-1.07,6.1,6.1,0,0,0-.4-1.37,5.675,5.675,0,0,0-.7-1.2,11.39,11.39,0,0,1-.8-1.15,19.374,19.374,0,0,1-1.06-2.26,13.4,13.4,0,0,0,1.46-1.2,13.493,13.493,0,0,1,1.68-1.33c0.79-.56,1.46-1.02,1.99-1.38l-0.27.71-0.79.71a1.748,1.748,0,0,0,0,2.22l-0.09.27-0.8-.45a21.482,21.482,0,0,1,1.86,3.24,23.179,23.179,0,0,0,1.77,3.15l0.44-.98,4.6,4.17,0.09-.35,0.71,0.89,1.15,0.35v0.27h0.26l1.51,0.97-0.18.27-0.26-.27a1.134,1.134,0,0,0,.53.45,0.322,0.322,0,0,1,.22.4,5.872,5.872,0,0,0-.05.84l1.77,1.68,0.27,0.98,0.88,0.62,0.36,0.53,1.32,1.33,0.8-.71,0.62,0.54,0.79-1.33,0.54-.36a20.612,20.612,0,0,1,.75-3.02,1.63,1.63,0,0,0,0-1.37,12.427,12.427,0,0,1-.67-1.55l0.45-.45a25.6,25.6,0,0,0-.18-4.17l-0.44-.17a3.212,3.212,0,0,1,.31-1.38,0.592,0.592,0,0,0-.05-0.71,4.6,4.6,0,0,1-.04-2.26,8.855,8.855,0,0,0-.13-3.19,8.813,8.813,0,0,1-.18-3.15,23.127,23.127,0,0,0,.09-3.51c-0.06-1.12-.08-2.72-0.05-4.79s-0.09-5.94-.35-11.62-0.22-8.78.13-9.31a1.634,1.634,0,0,0,.44-1.07,2.241,2.241,0,0,1-.08-0.7l-4.87-1.6-0.27-.62,4.07-3.28a12.234,12.234,0,0,1,.84-1.69,1.165,1.165,0,0,0,.27-0.8,9.344,9.344,0,0,1-.04-1.06l-1.24-1.24a6.951,6.951,0,0,0-2.21-1.2,5.224,5.224,0,0,0-3.37-.22c-1.12.29-2.62,0.65-4.51,1.06,0.47-2.25.83-3.84,1.06-4.79a9.084,9.084,0,0,0,.22-3.02,9.348,9.348,0,0,0-.57-2.7,4.619,4.619,0,0,0-.8-1.46c-0.23-.24-0.59-0.63-1.06-1.16-0.88-.59-1.53-1-1.94-1.24a2.192,2.192,0,0,0-1.02-.35,3.778,3.778,0,0,1-1.02-.18,5.032,5.032,0,0,0-1.5,2.75h0Zm26.36,2.22a5.158,5.158,0,0,0,.49,1.86,7.252,7.252,0,0,0,1.15,2.26,18.224,18.224,0,0,1,1.46,2.08l1.06,0.71c-0.42,1.66-.73,2.96-0.93,3.91a19.261,19.261,0,0,1-1.68,4.08c-0.92,1.77-1.55,2.93-1.9,3.46s-0.86,1.27-1.51,2.22l-1.06.79,0.18,0.54h0.53a18.881,18.881,0,0,1-1.06,2.39l1.06-.8,0.26,0.18,0.62-.8,1.33,0.09a10.188,10.188,0,0,0,.22,1.33,7.128,7.128,0,0,1-.26,2.4,9.64,9.64,0,0,1-1.15,3.06,33.976,33.976,0,0,0-2,3.94c-0.64.12-1.12,0.21-1.41,0.27a2.008,2.008,0,0,0-.66.22,2.614,2.614,0,0,0-.49.4,10.791,10.791,0,0,1-.84,1.38,0.518,0.518,0,0,0-.05.71,1.218,1.218,0,0,1-.22,1.24,3.52,3.52,0,0,0-.48,1.46v1.77h-0.62a2.931,2.931,0,0,0,1.68,1.07,6.449,6.449,0,0,0,2.03,4.08,1.179,1.179,0,0,0,.4.27,1.011,1.011,0,0,0,.53.04,0.976,0.976,0,0,0,.58-0.35,3.312,3.312,0,0,1,.88-0.67l0.62-.98,0.44-.08,0.45-.63q3.18-1.86,6.45-3.45l-0.44.53,4.34-2.66v-0.45l1.32-1.15-0.09.53-8.05,7.9-3.71,3.9a6.714,6.714,0,0,0-.93.62,0.886,0.886,0,0,1-.53.27h-0.75l0.09,0.17,0.35,0.09-1.68,1.07-0.36.71-1.06.88,1.42,0.45-0.71.26a1.881,1.881,0,0,0,.53,1.07l0.44,0.18V7400l0.45,0.09-0.18.62,1.68,2.39a7.7,7.7,0,0,1,1.15.54,2.256,2.256,0,0,0,.97.22,1.658,1.658,0,0,0,1.37-.89,2.384,2.384,0,0,1,2-.97,4.049,4.049,0,0,0,1.99-.49c0.44-.3,1.04-0.68,1.81-1.16l0.97-1.06,0.18,0.53,1.41-.62,0.09-.53a1.943,1.943,0,0,0,.27.62q0.18,0.27-1.64,10.64t-2.43,12.82a17.753,17.753,0,0,0-.62,3.15q0,0.7.09,2.22l0.88-2.4a2.993,2.993,0,0,1,.62,1.42l1.86-3.9,3.01-2.84,0.44-.62a1.512,1.512,0,0,1,.35.98l0.89-1.51,0.62-.27q0.525-1.245.84-1.95a7.926,7.926,0,0,1,1.41-1.91,3.317,3.317,0,0,0,1.11-1.95,3.785,3.785,0,0,1,.09-1.02,1.427,1.427,0,0,0,.09-0.44c-0.42-.65-0.74-1.14-0.98-1.47a6.463,6.463,0,0,1-.44-0.66l-0.53-.27a12.37,12.37,0,0,1,.13-2.92,22.241,22.241,0,0,0,.31-3.06,29.341,29.341,0,0,1,.31-3.29,32.05,32.05,0,0,0,.31-3.77l0.53-.53c0.36-.47.77-0.97,1.24-1.51v0.71l-0.44.36,0.09,0.18,0.7-.45v-0.53l0.71-.27-0.09.36-0.44.26v0.18c1.24-.35,2.14-0.59,2.7-0.71a4.454,4.454,0,0,0,1.46-.57,7.693,7.693,0,0,1,1.64-.76,2.054,2.054,0,0,1,1.46-.13,1.3,1.3,0,0,0,1.15-.13,1.481,1.481,0,0,1,1.32-.09c0.41,0.17,1.01.41,1.77,0.71l-0.35-.62-0.44-.27,2.3,0.27-0.53-.8,0.53-.27-0.89-.53c0.59-.24,1.03-0.43,1.33-0.58a1.19,1.19,0,0,1,.53-0.18,0.482,0.482,0,0,0,.26.05,2.366,2.366,0,0,1,.45-2.04l-1.15-1.69,0.17-.35a17.549,17.549,0,0,1-5.66-1.51l-0.17-.35c-1.66,0-3.34.06-5.05,0.17l-0.09-.44-1.23.27-0.27-.36a1.2,1.2,0,0,1-.53-0.09,0.481,0.481,0,0,0-.49.18,8.633,8.633,0,0,1-1.01.71l-0.09-.36-0.53-.44-0.89.18a8.386,8.386,0,0,1,.62-3.55l2.12-.8v0.62l0.36,0.36,1.5-.98,0.53,0.09,4.96-2.93a4.261,4.261,0,0,1,.57-1.55,0.8,0.8,0,0,0,.09-0.89c-0.15-.32-0.34-0.78-0.57-1.37-0.48-.47-0.83-0.83-1.07-1.07a3,3,0,0,0-1.1-.62c-0.5-.17-1.32-0.47-2.43-0.88l-0.8-.98c-1.65.59-3.25,1.15-4.78,1.69l-0.09-1.78-0.35,1.24-0.35-1.42-1.86-.62,0.26-.44-0.88-.35a7.465,7.465,0,0,1,.44-3.38q1.245-.525,1.77-0.75a2.247,2.247,0,0,1,.8-0.22h0.62c0.7-.89,1.32-1.64,1.85-2.26s2.45-3.63,5.75-9.01l1.33-.8-0.26-1.15,0.35-.71-0.89-1.51a11.959,11.959,0,0,0-1.28-1.11,21.177,21.177,0,0,0-3.4-1.59,9.5,9.5,0,0,0-3.94-.98,7.069,7.069,0,0,0-2.35.71,16.869,16.869,0,0,1-4.86.98,28.194,28.194,0,0,1-4.82.26,2.7,2.7,0,0,1-1.64-.66,7.449,7.449,0,0,0-1.59-1.15,3.279,3.279,0,0,0-1.28-.58,0.6,0.6,0,0,1-.4-0.05A1.994,1.994,0,0,1,4732.37,7344.74Zm15.57,7.89-1.77,3.73-2.57-.27-0.44-.71-0.79-.53,0.08-.36-2.3-1.24,0.71,0.71-1.77-.71,0.09-.62h5.75a18.755,18.755,0,0,0,2.48-.09Zm-37.69,14.02-6.1,3.19a104.527,104.527,0,0,0,5.93-9.49c0.76-.42,1.43-0.74,1.99-0.98a17.355,17.355,0,0,1,2.47-.75,8.665,8.665,0,0,1,1.91-.36,3.072,3.072,0,0,0,.53.05,58.6,58.6,0,0,1-6.73,8.34h0Zm27.87-7.37c0.65,1.42,1.08,2.41,1.28,2.97s0.43,1.13.67,1.69,0.44,1.11.62,1.64,0.56,1.51,1.15,2.93l0.61,0.53a5.264,5.264,0,0,0-.88,1.69h-0.62c0,0.47-.01.85-0.04,1.15a1.38,1.38,0,0,0,.39.98,2.159,2.159,0,0,1,.49.75,0.644,0.644,0,0,0,.4.4l-4.25,1.95a20.206,20.206,0,0,1,.53-2.79,8.092,8.092,0,0,0,.27-2.35,3.233,3.233,0,0,0-.71-2.27c-0.47-.5-1.15-1.31-2.03-2.44l-2.3-1.33-0.09-.26,3.36-4.53a5.36,5.36,0,0,0,1.15-.8v0.09Zm-21.59,8.96,0.54,0.27a17.574,17.574,0,0,0,.66,2.7,6.025,6.025,0,0,1,.26,2.18c-0.03.88,0.02,2.48,0.14,4.79a2.067,2.067,0,0,0-.62.26c0-.71.01-1.21,0.04-1.5a0.749,0.749,0,0,0-.09-0.58,1,1,0,0,1-.22-0.4c-1.41-.24-2.46-0.43-3.14-0.58a3.324,3.324,0,0,0-2.08.27,13.878,13.878,0,0,1-1.59.66,0.967,0.967,0,0,1-.26-0.48,6.108,6.108,0,0,1-.05-1.47,15.319,15.319,0,0,1,.22-2.13c0.12-.65.21-1.09,0.27-1.33,0.82-.65,1.43-1.11,1.81-1.37a5.3,5.3,0,0,1,1.37-.67c0.53-.17,1.39-0.41,2.57-0.71Zm-10.88,6.66a5.163,5.163,0,0,0,.45,1.06,1.583,1.583,0,0,1,.22.62,1.15,1.15,0,0,0,.26.62,1.508,1.508,0,0,1,.13,1.07l-5.92,3.19,0.35-3.9,4.34-2.75Zm11.68,4.08-0.35.71,1.15-.45,0.26,0.27-0.35.53a2.78,2.78,0,0,1,.13,1.11,6.9,6.9,0,0,0,.05,1.33,5.529,5.529,0,0,1,0,1.29,1.409,1.409,0,0,0,.17.97,2.1,2.1,0,0,0,0,1.86l-0.17.27a5.357,5.357,0,0,1,.17,1.51c0,0.65-.01,1.71-0.04,3.19s-0.02,2.66.04,3.55a16.445,16.445,0,0,1,.05,2c-0.03.44-.05,0.79-0.05,1.06a2.706,2.706,0,0,1-.04.58,0.479,0.479,0,0,0,.04.35l0.27-.26a53.285,53.285,0,0,0,.26,9.22,8.175,8.175,0,0,0-1.59-.44,3.329,3.329,0,0,1-1.37-.62c-0.5-.36-1.28-0.86-2.34-1.51a21.715,21.715,0,0,0,3.45,2.66l-1.15-.44,0.61,0.44-0.17.35a22.842,22.842,0,0,1-2.74-1.41l1.15,1.33a4.138,4.138,0,0,1-2.3-1.33l-0.18-.27-0.53.18-1.59-1.6,0.08-.18,0.53,0.36a0.637,0.637,0,0,1-.53-0.53,11.861,11.861,0,0,0,.4-2.13c0.15-1.13.24-2.09,0.27-2.89a23.263,23.263,0,0,1,.22-2.44c0.12-.82.35-2.18,0.71-4.08l0.35,0.54,1.24-.89v-0.44l2.74-1.96-0.71-1.06a6.375,6.375,0,0,1,1.51-2.04l-0.71-.71,1.06-.89a2.426,2.426,0,0,1-1.06-.4,3.884,3.884,0,0,0-1.99-.35,2.425,2.425,0,0,1-1.64-.31c-0.23-.24-0.56-0.53-0.97-0.89a3.643,3.643,0,0,1-.09-2.13l2.12-1.68v0.35a12.32,12.32,0,0,1,2.08-1.06c0.74-.3,1.23-0.5,1.46-0.62h0.09Zm-10.39,4.92q0.045,0.84-6.42,7.94c0.18-1.89.27-3.82,0.27-5.77,1.94-1.42,3.42-2.45,4.42-3.1a7.873,7.873,0,0,1,1.59-.93,0.392,0.392,0,0,0,.18.04A12.551,12.551,0,0,0,4706.94,7383.9Zm36.4,5.99-11.68,5.67v-0.35a0.6,0.6,0,0,1,.36-0.4,4,4,0,0,0,.88-0.93l0.8-.62,0.62-.71,0.53-.45v-0.44l0.35,0.18,0.09,0.18h0.53a1.519,1.519,0,0,1,.18-1.42l1.24-.36,0.79-1.06,0.36-.18,0.44-.71q2.2-1.95,3.23-2.84a3.141,3.141,0,0,1,1.19-.84,0.477,0.477,0,0,0,.35-0.05Zm-36.36-3.29-0.09,2.49-4.16,2.39q1.335-1.86,2.92-3.81Zm16.45,14.02-0.26,2.48-0.18-.17a3.4,3.4,0,0,1,.18-2.13Zm125.78,8.16a4.763,4.763,0,0,0,.21-1.48v-1.9a2.3,2.3,0,0,1,.42-1.47,3.4,3.4,0,0,0,.32-1.69,5.686,5.686,0,0,0-.42-2.73,2.443,2.443,0,0,1-.32-1.27v0.84H4849a8.149,8.149,0,0,0-.63-2.42,6.353,6.353,0,0,1-.73-2.42l-0.32-4.53c-0.07-.77-0.15-1.69-0.26-2.74s-0.23-2.21-.37-3.48l-0.52-6.11q-1.365-16.32-1.26-17.69a13.148,13.148,0,0,0,.31-2.74v-1.26l-0.1-.11-0.21-.11-0.21-.21-0.63-.52-0.42-.21-1.16-.21c-0.77-.21-1.65-0.49-2.63-0.85s-1.85-.7-2.62-1.05l-1.47-.53-1.16-.42-1.15-.42a23.47,23.47,0,0,0-2.31-.74,17.677,17.677,0,0,1-2.21-.52,10.829,10.829,0,0,0-2.15,0,5.791,5.791,0,0,0-1.53.42v2.53a2.526,2.526,0,0,0,.53,1.47,1.645,1.645,0,0,1-.11,1.69l-1.68,3.79a40.1,40.1,0,0,1-2.52,5.05q-3.045,5.6-7.67,13.91t-4.83,8.43a1.661,1.661,0,0,0-.21,1.05,2.948,2.948,0,0,1-.42-1.48l-0.32-4.21c-0.07-.77-0.1-1.68-0.1-2.74l-0.11-1.05a2.607,2.607,0,0,0-.42-1.05v-2.53a9.659,9.659,0,0,1,.21-2.53q0.21-.525,0-0.63a0.856,0.856,0,0,1-.21-0.63,22.694,22.694,0,0,1-.42,2.94,7.23,7.23,0,0,0-.1,1.48v1.05a55.992,55.992,0,0,1-.74,7.59l-0.21,2.95a3.326,3.326,0,0,1-.42,1.68v-1.26a6.314,6.314,0,0,1,.42-2.53h-0.94v2.95a0.442,0.442,0,0,1-.11.32,0.414,0.414,0,0,1-.31.1v-1.68a2.189,2.189,0,0,0-.53.63l-0.21,1.47-0.1,1.06,0.1,0.42a1.039,1.039,0,0,0,.74.21l-0.53.84v1.26a1.175,1.175,0,0,1-.42-0.63v-1.26a14.459,14.459,0,0,1,.11-1.79c0-1.2.03-2.21,0.1-3.06a17.281,17.281,0,0,0,.11-2.1l-0.11.84a3.964,3.964,0,0,0-.21,1.26l-0.52-.42,0.31-.84-0.31-.84-0.42,3.79v-2.53a48.157,48.157,0,0,1-.53,6.74c-0.07-.14-0.14-0.3-0.21-0.47s-0.14-.37-0.21-0.58a5.718,5.718,0,0,1-.31-2,9.887,9.887,0,0,1,.1-1.58,7.034,7.034,0,0,0,.21-1.9v-2.74l0.21-.63a1.365,1.365,0,0,0,0-1.05,2.112,2.112,0,0,1,0-.95,4.366,4.366,0,0,0-.21-1.58h0.42l-0.42-.42a10.065,10.065,0,0,1-.42,2.95,0.093,0.093,0,0,0,.11.1v0.21l-0.11.63-0.31,1.58c-0.07,1.13-.21,1.69-0.42,1.69h-0.11l-0.1-.21a2.006,2.006,0,0,1-.53-0.63,13.474,13.474,0,0,1-.42,3.79,18.538,18.538,0,0,1,.42-4.21l-0.42.42a3.763,3.763,0,0,1,0-1.27,7.328,7.328,0,0,0,.32-1.79,0.093,0.093,0,0,0-.11-0.1q0,0.21-.21,1.47c-0.28,1.34-.77,3.16-1.47,5.48a26.573,26.573,0,0,0-1.16,6.95c-0.14,2.67-.31,4.08-0.52,4.22l-0.21.21v-4.64h-0.42a6.212,6.212,0,0,0,.42-2.11v-1.26a0.594,0.594,0,0,0,.21.32,0.353,0.353,0,0,1,.31.31,4.859,4.859,0,0,0,.42-2.32,10.131,10.131,0,0,1,.42-2.31,18.945,18.945,0,0,0,.53-2.95v-1.06l-0.42.85a63.078,63.078,0,0,0-2.84,14.74h-0.52v2.11l-0.95.42q0,0.42-.21.42a0.186,0.186,0,0,0-.21.21,1.237,1.237,0,0,0,.32,1.37,21.913,21.913,0,0,1,1.47,2.85,6.965,6.965,0,0,1,.31,2v0.53a1.785,1.785,0,0,0,.32,1.47,0.832,0.832,0,0,1,.1,1.05,2.112,2.112,0,0,0,0,.95,5.459,5.459,0,0,0,1.05,1.69,9.18,9.18,0,0,1,.63,1.37,9.883,9.883,0,0,0,2.37,1.1,6.631,6.631,0,0,0,2.78.48,8.792,8.792,0,0,0,2.52-.27,3.491,3.491,0,0,0,1.47-.89,7.271,7.271,0,0,1,1.05-.95l0.63-.42,1.26-1.48q2.115-2.94,2.74-3.89,2.2-3.48,5.2-8.96c1.99-3.65,3.31-6.14,3.94-7.48l0.52-.63a54.064,54.064,0,0,0,2.1-5.26l6.1-.43,4.62-.31,1.68-.11c0.21,0,.31-0.14.31-0.42v9.27q0,0.21-.21,0a5.9,5.9,0,0,1-1.78-.63,22.647,22.647,0,0,1-2.31-1.32,17.749,17.749,0,0,1-2.31-1.84l0.52,0.84,0.42,0.42,0.53,0.85v0.42h-0.95l1.37,1.26,0.52,0.42,0.42,0.84,0.95,0.43-0.53.42-2.73-1.27a34.178,34.178,0,0,1-3.78-4v0.63a34.406,34.406,0,0,1-2.84-2.95l1.89,2.32a3.169,3.169,0,0,1,.95,1.48l-0.42-.74h-0.11l-0.1.21,0.21,0.53a4.6,4.6,0,0,0,.84.84l-0.42.42v0.42h-0.53l0.74,0.74c0.21,0.42.28,0.6,0.21,0.52a32.44,32.44,0,0,1-4.2-5.47l0.52,0.84-0.52-.42a10.985,10.985,0,0,1,1.57,2.74l0.95,2.31,2.41,3.27a12.467,12.467,0,0,1,1.68,3.06h-1.47l0.53,0.42,0.52,0.84,0.95,1.47,1.79,2.74,3.78,5.06,0.63,1.26c0.07,0.14,1.26,1.27,3.57,3.37l0.95,0.43,0.94-.43v-0.42h1.89l-0.52-.42,0.52-.42h0.95l0.42-.84h1.47v-0.42h0.42v-0.43l0.52,0.43,0.42-.43,0.95-.84,0.73-1.05a4.109,4.109,0,0,0,.53-0.74,2.018,2.018,0,0,0,.31-1.05,1.316,1.316,0,0,0-.42-0.95,1.681,1.681,0,0,1-.42-1.05h0v-0.21Zm-13.44-33.08v1.9h-0.95c0,0.14-.31.17-0.94,0.1a13.047,13.047,0,0,0-1.79-.1v0.42a3.216,3.216,0,0,1-1.99.63,6.978,6.978,0,0,0-2.74.63l2.53-5.69a44.775,44.775,0,0,1,3.25-6.53l1.05-1.05a0.856,0.856,0,0,0,.21-0.63,2.636,2.636,0,0,1,.63,1.05,19.558,19.558,0,0,1,.53,4.63,13.351,13.351,0,0,1,.1,1.64,10.767,10.767,0,0,0,.11,1.52h0v1.48Zm-9.88,3.58,0.74-.84,2.62-5.48a58.39,58.39,0,0,1-2.41,6.32h-0.95Zm-18.49-.84v1.68a3.437,3.437,0,0,1-.21-0.84,1.864,1.864,0,0,1,.21-0.84h0Zm-7.77,2.74a6.245,6.245,0,0,0,.21-1.48,5.941,5.941,0,0,0-.21,1.16v0.32Zm0.21-.21a0.46,0.46,0,0,1-.1.31l0.1,0.11v-0.42Zm4.2,1.05v0Zm-6.09,1.05-0.11.32c0.21,0,.25-0.11.11-0.32h0Zm-0.21.32c-0.28.07-.35,0.39-0.21,0.95l0.31-.95h-0.1Zm6.2,0.53a0.662,0.662,0,0,1,.1-0.43,0.662,0.662,0,0,0-.1.43h0Zm1.57,0v0.42h0.42v-0.42h-0.42Zm-4.93,2.52-0.42,1.16a3.8,3.8,0,0,1-.11-1.16,5.826,5.826,0,0,0,.53-0.94v0.1a1.982,1.982,0,0,1,0,.84h0Zm21.85,2.32a0.594,0.594,0,0,1-.21.32v-0.32a2.607,2.607,0,0,1,.42-1.05v0.42c0.07-.07.1-0.04,0.1,0.1Zm-22.59-.63h0.11l-0.11.42v-0.42Zm21.85,1.68-0.42-.42,0.42,0.85q-0.315.42-.21,0.42v0.21l-0.31,1.05a28.806,28.806,0,0,1-1.37,2.95v-0.84a52.125,52.125,0,0,1-2.84,4.63v-0.21l4.31-9.06,0.42-.42,0.42,0.32a0.086,0.086,0,0,0-.1.1h0Zm4.73,1.8-0.53-.53,0.53,0.63v-0.1h0Zm-6.09,1.15a1.252,1.252,0,0,0,.42-0.84,1.171,1.171,0,0,0-.42.84h0Zm-24.27,0,0.52-.52v-0.11h0a2.919,2.919,0,0,1-.52.63h0Zm-0.42,3.48v0.21q-0.21,0,0-.21h0Zm21.32,3.69-0.42.42-0.52.42v0.84a0.668,0.668,0,0,1-.53-0.47,1.8,1.8,0,0,1,.32-0.79,2.867,2.867,0,0,0,.73-1.69l0.42,0.42-0.42.43Zm94.34-28.97a6.314,6.314,0,0,0-.21-1.05,29.551,29.551,0,0,1-.42-2.95,8.8,8.8,0,0,0-.84-3.16l-0.11-.43-0.31.43a3.592,3.592,0,0,0-.32-1.06,1.576,1.576,0,0,1-.52-0.84,6.2,6.2,0,0,0-1.16-2.11,1.423,1.423,0,0,1-.52-0.84l0.1-.21-1.89-1.9a22.812,22.812,0,0,0-5.04-2.95,19.438,19.438,0,0,0-6.2-1.68,36,36,0,0,0-4.94-.42,25.561,25.561,0,0,0-5.56.63,16.726,16.726,0,0,1-2.63.42h-0.84l-0.11.42a2.983,2.983,0,0,0-1.89-.84l-1.89-.21c-0.77-.07-1.72-0.21-2.83-0.42a0.719,0.719,0,0,0-.95.21q-0.315.525-1.47,0a3.982,3.982,0,0,0-1.37-.42,1.175,1.175,0,0,1-.63-0.42,1.109,1.109,0,0,0-.63.1l-0.1.11a0.442,0.442,0,0,1-.32-0.11c-0.49-.28-0.8-0.45-0.94-0.53l-0.95.43a1.21,1.21,0,0,1-.84.42l0.11,0.42-0.42-.32a2.657,2.657,0,0,1,.84,1.58,1.272,1.272,0,0,0-.21,1.27h-0.42l-0.53.42,0.42,0.84,0.53-.42,0.42,1.68,0.52,0.43-0.1-.43,0.94,1.69h1.68l1.26,1.05q-0.945-.42,0,0.42l0.32,0.43c0.07,0.35-.62,3.09-2.05,8.21s-2.78,9.73-4.04,13.8c-1.2,3.72-2.4,7.38-3.63,10.96s-2.08,6-2.57,7.27h-0.42l-0.11.42v0.84l-0.31.42-0.53-.84,0.11,0.42h-0.21a0.1,0.1,0,0,0-.11.1,0.6,0.6,0,0,0,.32.32,0.363,0.363,0,0,1-.11-0.26c0-.11.04-0.16,0.11-0.16v0.42l0.42,0.42,0.42,0.74a3.248,3.248,0,0,1-.95-0.32c0,0.07-.03.07-0.1,0v-0.52a0.638,0.638,0,0,1-.32-0.32l-0.63-.84v0.42h-0.42l-0.42-.84a1.723,1.723,0,0,0,.53,1.26l0.42,0.42,0.84,1.27-0.42-.43-0.42-.84-0.32.32a0.44,0.44,0,0,0,.32.1v0.42l0.42,0.85h0.42l0.1,0.84h-0.42v-0.42c-0.35,0-.52-0.11-0.52-0.32l-1.26-1.37a0.594,0.594,0,0,0,.1.53l0.74,0.74h-0.42l1.36,1.68h-0.42l-1.36-2a5,5,0,0,1-.42-0.74l-0.42-.84v0.63l0.42,1.27a0.728,0.728,0,0,1-.63-0.63,1.294,1.294,0,0,0-.32-0.74,1.144,1.144,0,0,1,.11.52h-0.42v-0.42l-0.42-.42v0.42a1.036,1.036,0,0,0,.05.37c0.03,0.11.08,0.13,0.16,0.05,0.13,0,.21.29,0.21,0.85h0.42l0.52,0.84,0.32,1.05-0.32-.63a1.024,1.024,0,0,0,.32.74l0.42,1.37a0.86,0.86,0,0,0,.63.84h-0.42l0.1,0.42a1.08,1.08,0,0,1-.58-0.16,0.433,0.433,0,0,1-.26-0.36,0.442,0.442,0,0,1,.11-0.32,0.582,0.582,0,0,0-.11-0.84,4.979,4.979,0,0,1-1.05-1.69,3.1,3.1,0,0,0,.53,1.69l0.1,0.42a1.338,1.338,0,0,1,.32.74c-0.07,0-.04.17,0.1,0.52h-0.42v0.42h-0.42l0.21,0.64,0.32,1.05v0.42l-0.11-.11-0.42-.42a1.4,1.4,0,0,1-.73-1.05v-0.11l-0.64.43-0.31-.85a0.3,0.3,0,0,0-.21.21l-0.11.21a16.191,16.191,0,0,1-.84-1.89l-0.63-1.05a3.415,3.415,0,0,0,.74,1.47,21.793,21.793,0,0,1,1.57,4.42c-0.14-.14-0.63-0.52-1.47-1.15l-0.21.31h0.42l0.42,0.84h-0.42l0.53,0.43,0.31,0.42,0.11,0.42,0.31-.42,0.53,0.42a1.706,1.706,0,0,0,0,.84h0.42l0.11,0.42c0,0.21.01,0.65,0.05,1.32a2.93,2.93,0,0,0,.26,1.32l0.63,1.05a0.385,0.385,0,0,1,0,.53,1.5,1.5,0,0,0,.74.52,4.832,4.832,0,0,0,1.89.32h0.42c-0.07-.28.03-0.42,0.31-0.42l0.84,1.26h1.58l0.52-.42-0.1-1.26h0.42l0.42,0.42,1.26-.21a1.257,1.257,0,0,1,1.05,0l-0.1-.64,0.94-.42,0.74-.84,0.42-.42,0.52-1.48a5.085,5.085,0,0,0,.53-2.1l0.31-2.11,0.53-1.26,0.21-.64h-0.42l-0.11-.84h-0.42l0.74-.42-0.11-.42h-0.42l0.21-.42,0.53-1.9,0.31-.95v-0.21l-0.21.11-0.42.42h-0.42a1.766,1.766,0,0,1-.52.63l0.1-.63,0.42-.42-0.1-.42-0.32.42,0.32-.84-0.42.42v-0.42l0.84-.43v0.43l0.42-1.27h-0.42l-0.11-.84h0.42a0.864,0.864,0,0,1,.11-0.84c0.28,0,.35-0.42.21-1.27h-0.32l-0.1-.42v-0.42l0.52-.42h-0.42c-0.21.07-.31,0.03-0.31-0.11l0.21-.52a3.7,3.7,0,0,0,.42-1.06l-0.11.85,0.53-1.27a1.253,1.253,0,0,1,.21-1.26h0.42l0.52-.85,0.32,0.43,0.52-.43-0.52-.42h0.84a5.374,5.374,0,0,1,.31-1.68q0.21-.735.63-1.95a6.217,6.217,0,0,0,.42-1.84l0.11,0.31a0.714,0.714,0,0,1-.42.95v-0.42l-0.32.84-0.42,1.69h-0.42v-0.85l-0.42.43-0.31.84a0.5,0.5,0,0,1-.53.42l0.11,0.42h-0.42a1.691,1.691,0,0,1,.73-1.26v-0.85l0.84-1.47v0.63l0.32-.42v-0.42l0.42,0.42,0.42-.42a1.332,1.332,0,0,0-.11-0.84l0.11-.43h0.42l0.42-.42h0.31l-0.42.85h0.42l0.53,0.42,0.42,0.42v-0.42a5.65,5.65,0,0,0,2.21,1.31,37.069,37.069,0,0,0,3.57,1l4.62,0.64h2.52l1.05-.32a1.452,1.452,0,0,1,.63.11,1.109,1.109,0,0,0,.63.1,4.741,4.741,0,0,0,1.26.11l0.53,0.42-0.11-.32c0.07,0.07.25-.07,0.53-0.42,0.35-.42.66-0.49,0.94-0.21h1.05v-0.42a0.362,0.362,0,0,0,.27.1,0.363,0.363,0,0,1,.26.11,0.424,0.424,0,0,0,.32.1l0.63-.21a11.476,11.476,0,0,0,1.36-.52l0.11,0.42a6.352,6.352,0,0,1,.94-0.37,4.847,4.847,0,0,0,1.05-.47v0.42l0.42-.42,0.53-.43h0.63a28.477,28.477,0,0,0,4.2-2.84q2.73-2.94,2.94-3.26a30.9,30.9,0,0,0,3.05-3.9,9.431,9.431,0,0,0,1.36-2.85,11.06,11.06,0,0,0,.21-2.63,18.337,18.337,0,0,1,.21-1.9h0Zm-12.5-1.05a10.017,10.017,0,0,1-.47,2.52,10.61,10.61,0,0,1-1.21,2.32,12.473,12.473,0,0,1-.9,1.37,15.377,15.377,0,0,1-1.36,1.53l-1.31,1.31-3.47,2.53a8.521,8.521,0,0,1-1.58.95l-0.52.11-0.53.21v0.42h0.42a1.673,1.673,0,0,0-.73.21l-0.63.21-0.95.11a11.44,11.44,0,0,1-1.89.1q-1.89.21-2.73,0.21a4.323,4.323,0,0,1-1.37-.21l-1.15-.21h-0.53l-0.63-.21-1.57-.63a1.212,1.212,0,0,0,.42-0.85v-0.42a1.253,1.253,0,0,1-.84-0.73v-0.11l0.21-.63a1.109,1.109,0,0,1,.1-0.63,1.644,1.644,0,0,0,.32-0.85l0.31-.42,1.05-3.58,0.32-.42a0.7,0.7,0,0,1,.31-0.84l0.21-.42-0.52.84,0.1-.84-0.52-.43,0.31-.84,0.42-.42,1.05-3.27,1.26-4.42,1.37-4.32,0.42-.42-0.42-.42,5.99-.42a14.489,14.489,0,0,1,4.78.63,9.2,9.2,0,0,1,3.31,2.21,8.073,8.073,0,0,0,1.36,1.79,4.67,4.67,0,0,1,.95,1.69,11.442,11.442,0,0,1,.94,4.32h0a6.387,6.387,0,0,1-.1,1.37h0Zm-21.22,4.21,0.1,0.42c0.07-.07.04-0.21-0.1-0.42h0Zm-4.31,12.43-0.63,1.16-0.11-.32h-0.42l0.53-1.26h-0.42l0.95-1.69,0.1,0.42-0.31,1.27-0.11.52v0.11l0.53-1.05,0.1,0.42h0.42Zm-0.42.21-0.32.63,0.32-.42v-0.21Zm-2.42,1.9,0.53-.43-0.42.85Zm1.89,1.68a1.256,1.256,0,0,1,.11-1.05c0.21-.07.24-0.28,0.1-0.63a3.727,3.727,0,0,0-.26.31,0.736,0.736,0,0,0-.16.42Zm0.43,0,0.31-.84a0.847,0.847,0,0,0-.31.84h0Zm-2.11,0-0.42.84h0.42l0.42-.84-0.1-.42h-0.42Zm14.92,0.84h-1.26a8.887,8.887,0,0,1-1.58-.21l-1.89-.21c-0.14,0-.17-0.14-0.1-0.42a13.513,13.513,0,0,0,2.84.32,0.6,0.6,0,0,1,.52-0.32,9.136,9.136,0,0,1-3.05-.42h1.47a3.51,3.51,0,0,1,1.06.21l0.63,0.21h0.42l0.21,0.42h0.42l0.52,0.42h-0.21Zm-13.66-.84-0.1.42,0.1-.21v-0.21Zm11.67,0.42h1.26a5.54,5.54,0,0,1-1.26-.1v0.1Zm-13.35.42-0.1-.42-0.32.42h0.42Zm1.47,0a0.724,0.724,0,0,1-.21.53,0.825,0.825,0,0,0,.42-0.53l0.32-.42h-0.42a0.6,0.6,0,0,1-.11.42h0Zm-0.21.53-0.42.32c0.14,0.07.28-.04,0.42-0.32h0Zm-3.88,7.9a2.11,2.11,0,0,0,.73-1.47v-0.64l-0.42.43a1.066,1.066,0,0,0-.21.84l-0.1.42v0.42Zm-15.97.11-0.21-.95a3.358,3.358,0,0,0,.21.95h0Zm0.95,1.05a11.836,11.836,0,0,0-.43-1.16Zm14.6-.74a0.291,0.291,0,0,0-.32.42,5.083,5.083,0,0,1-.73,1.37,0.093,0.093,0,0,1-.11-0.1,1.1,1.1,0,0,1,.32-1.06,0.515,0.515,0,0,0,0-.63h0.42v-0.42Zm-14.92.42-0.21-.21-0.42-.52,0.21,0.73h0.42Zm-1.26,0-0.53-.42a8.472,8.472,0,0,0,.95,2.11Zm6.09,0,0.53,0.43-0.63-.85h-0.32Zm-4.83,0v0.85a0.645,0.645,0,0,0,0-.85h0Zm0.32,0.32a4.541,4.541,0,0,1,.1.95v0.42l0.32-.32Zm0.52,0.95-0.1.1,0.1,0.21v-0.31Zm0.42,0.95-0.1-.21-0.32-.43a2.36,2.36,0,0,0,.11.95Zm-0.42.63a2.144,2.144,0,0,0-.42-1.16c0.07,0.14.21,0.53,0.42,1.16h0Zm0.53-.74-0.11.11a0.093,0.093,0,0,1,.11.1h0v-0.21Zm1.57,0.74-0.31-.74v0.42Zm13.45-.32a2.44,2.44,0,0,0-.84,1.69Zm-13.24.32h-0.21l0.11,0.1Zm-4.73.95,0.95,1.26,0.84,1.26,0.53,0.43-0.11-.43-0.84-.84-0.95-1.26Zm11.88,16.43h0.84l-0.11-.53a0.808,0.808,0,0,1-.73.53h0Zm71.11-64.26-0.63-2.84a3.056,3.056,0,0,0-.94-1.48,7.4,7.4,0,0,0-1.73-1.52,4.147,4.147,0,0,0-1.95-.37,4.823,4.823,0,0,1-2.2-.95l-1.05-.74a0.362,0.362,0,0,0-.27-0.1,0.363,0.363,0,0,1-.26-0.11q-0.21-.21-0.21,0a2.406,2.406,0,0,1-2,.95h-2.41q-0.21.21-.21,0c-0.14-.14-0.35.04-0.63,0.53l0.42,0.42h-1.26l0.42,0.95-1.58.94-0.42.53,0.84,0.42,1.58,0.95v3.16a51.891,51.891,0,0,1-1.68,10.22l-1.79,8.32-0.21,1.16a3.105,3.105,0,0,1-.1.84,6.56,6.56,0,0,0-.21,2,8.357,8.357,0,0,0-.11,1.37l-0.21.63a9.034,9.034,0,0,0-.31,1.37l-0.21.64v0.73l-0.32,1.58a1.606,1.606,0,0,0-.1,1.27,7.055,7.055,0,0,1-.64,2.84l-0.21.63v1.48l-0.31,1.68-0.42.42v0.53c-0.14.42-.42,1.55-0.84,3.37h-0.42a1.6,1.6,0,0,1-.42.95l-0.74.42v0.53l-0.63.42-0.63.53v0.42l-0.42.52-0.73-1.47v1.47h-0.42l0.42,0.43h-0.84v0.52l0.42,0.42v-0.42l0.42,0.42-0.42.53v0.95l-0.42-.53v1.27a10.131,10.131,0,0,0,.42,2.31,25.384,25.384,0,0,1,.73,3.37,9.029,9.029,0,0,0,1.05,2.32,16.646,16.646,0,0,1,1.05,1.69,6.809,6.809,0,0,0,1.05,1.89l0.95,1.9a1.453,1.453,0,0,0,.84.53,4.628,4.628,0,0,1,1.16.84,2.723,2.723,0,0,0,1.68.74,15.69,15.69,0,0,1,1.57.42,1.776,1.776,0,0,0,.84.31h0.74a14.157,14.157,0,0,0,1.26-2.84,7.674,7.674,0,0,1,1.57-1.37c0.56-.21.98-0.39,1.26-0.53a5.088,5.088,0,0,1,1.16-2.31l0.32-2.32a6.511,6.511,0,0,1,.52-2.53c0-1.4-.04-2.42-0.1-3.06a7.275,7.275,0,0,1-.11-1.36v-0.22a6.5,6.5,0,0,0,.63-2.42v-0.52h-0.42l0.84-6.11,0.32-2.22v-0.21l-0.42-.52a1.477,1.477,0,0,1,0-1.16,5.245,5.245,0,0,0,.21-1.9,6.831,6.831,0,0,1,.21-2.84c0.07-.42.19-0.95,0.36-1.58s0.34-1.13.48-1.48l0.63-2.21a5.819,5.819,0,0,1,.21-1.16l-0.84,1.48a6.352,6.352,0,0,0,.63-2.64c0.07-.42.21-1.22,0.42-2.42a4.446,4.446,0,0,0,.1-1.05,2.69,2.69,0,0,1,.42-1.27,3.778,3.778,0,0,0,.42-1.89,3.931,3.931,0,0,1,.63-2.22,8.731,8.731,0,0,0,.95-3.47,26.1,26.1,0,0,1,1.47-5.27c0.84-2.03,1.29-3.12,1.36-3.26s0.2-.37.37-0.69a1.767,1.767,0,0,0,.26-0.89h0a2.353,2.353,0,0,0-.21-1.06h0Zm-7.03,12.75a1.445,1.445,0,0,0-.21.95,3.793,3.793,0,0,1,.42-1.9,1.445,1.445,0,0,1-.21.95h0Zm-0.63,3.9v-1.06l-0.42,1.06a4.088,4.088,0,0,1,.42-2.01l0.42,1.48Zm1.99,0,0.32-1.06a3.155,3.155,0,0,1,.1,1.06H4928Zm-2.73,2.31-0.42.53,0.42-2.42v1.89Zm2,4.32-0.42,1.9v-1.9h0.42l-0.21-.21a0.708,0.708,0,0,1-.21-0.53,2.844,2.844,0,0,1,.42-0.94,1.805,1.805,0,0,0,.31-0.85l-0.1-.31a1.39,1.39,0,0,1,0-1.06,4.13,4.13,0,0,0,.52-1.79,19.008,19.008,0,0,1-.73,5.69h0Zm-10.51-2.42h-0.42a1.888,1.888,0,0,1,.42-1.37v1.37Zm8.51,0.53,0.32-1.48v0.53a1.149,1.149,0,0,0,.1.52,0.374,0.374,0,0,1-.42.43h0Zm-1.15,7.9a0.442,0.442,0,0,0-.11-0.32h-0.42l0.21,1.05-0.21.32a1.493,1.493,0,0,0,.42-0.53l-0.21,1.06-0.21.63a1.161,1.161,0,0,1-.42.74v-1.37l0.42,0.42a1.316,1.316,0,0,1-.42-0.95l0.42-.42h-0.42v-0.53l0.42-.95v0.53a2.94,2.94,0,0,1,.42-1.47,16.469,16.469,0,0,1,.42-2.32,5.893,5.893,0,0,1,.84-2.42Zm-2.53-1.79h-0.42a12.928,12.928,0,0,0,.42-1.69v-0.11c-0.07-.06-0.08-0.12-0.05-0.15s0.05-.02.05,0.05h0.42Zm4.42,1.47-0.21-.42,0.21-1.48v1.9Zm-0.74,3.27a10.62,10.62,0,0,1,.32-2.32Zm-12.92,5.05q0,0.21.42,0.21l-0.42-.52v0.31Zm-2.42,5.9-0.84-.42a1.21,1.21,0,0,0,.84.42h0Z" transform="translate(-4632.66 -7339.78)"/>
</svg>
