<?xml version="1.0" encoding="UTF-8"?>
<svg width="1207px" height="261px" viewBox="0 0 1207 261" version="1.1" xmlns="http://www.w3.org/2000/svg" xmlns:xlink="http://www.w3.org/1999/xlink">
    <!-- Generator: Sketch 54.1 (76490) - https://sketchapp.com -->
    <title>partnership</title>
    <desc>Created with Sketch.</desc>
    <g id="Search-Guests-&gt;-Skin-Log" stroke="none" stroke-width="1" fill="none" fill-rule="evenodd">
        <path d="M51.8515625,39.875 C52.945318,39.875 57.2291293,40.4218695 64.703125,41.515625 C74.8203631,42.791673 83.2512684,44.2499918 89.9960938,45.890625 C97.7435283,47.8958434 104.032528,50.0833215 108.863281,52.453125 C121.897201,58.8333652 128.414062,67.6288502 128.414062,78.8398438 C128.414062,84.4909137 126.819026,90.6887684 123.628906,97.4335938 C121.623688,101.170592 118.980485,105.272113 115.699219,109.738281 C112.600245,113.931011 108.498723,118.761691 103.394531,124.230469 C97.9257539,130.063831 93.5052252,134.48436 90.1328125,137.492188 L86.03125,141.046875 C89.1302238,137.309877 90.8619773,135.350261 91.2265625,135.167969 C94.5078289,132.43358 96.695307,130.246102 97.7890625,128.605469 C98.4270865,127.511713 99.9309777,125.552097 102.300781,122.726562 C104.214853,120.08332 105.764317,117.440117 106.949219,114.796875 C108.134121,113.520827 109.410149,111.059914 110.777344,107.414062 C111.779953,104.406235 112.873692,101.854177 114.058594,99.7578125 C114.787764,98.4817645 115.516923,96.5677211 116.246094,94.015625 C116.610679,92.6484307 116.792969,91.7825539 116.792969,91.4179688 L116.792969,91.28125 L116.65625,91.28125 C116.291665,91.28125 115.927085,91.2356775 115.5625,91.1445312 C115.289061,91.1445312 115.106771,91.3268211 115.015625,91.6914062 C114.65104,93.2408932 114.332033,94.608067 114.058594,95.7929688 C110.412742,103.266964 105.536489,112.153594 99.4296875,122.453125 C98.7916635,123.638027 98.1992215,124.230469 97.6523438,124.230469 C95.3736865,125.233078 93.641933,126.782542 92.4570312,128.878906 C91.0898369,130.701832 89.4492283,132.570303 87.5351562,134.484375 C85.894523,135.942716 84.6640666,136.854165 83.84375,137.21875 C82.2942631,138.403652 81.2460965,140.04426 80.6992188,142.140625 C80.6080725,143.143234 80.5169275,143.644531 80.4257812,143.644531 C78.5117092,144.282555 77.1901078,145.330722 76.4609375,146.789062 C76.1874986,147.244794 76.0507812,147.518229 76.0507812,147.609375 C76.0507812,147.791668 76.2330711,148.20182 76.5976562,148.839844 C71.1288789,152.941427 66.2070531,156.313789 61.8320312,158.957031 C61.1940072,158.5013 60.7838551,158.273438 60.6015625,158.273438 L60.4648438,158.273438 C60.0091123,158.273438 58.9609457,159.321604 57.3203125,161.417969 C56.6822885,162.147139 54.3125205,163.149733 50.2109375,164.425781 C43.739551,166.522146 38.8632977,167.570312 35.5820312,167.570312 C34.3971295,167.570312 33.3033904,167.388023 32.3007812,167.023438 L31.890625,167.023438 C31.7083324,167.023438 31.6171875,167.524735 31.6171875,168.527344 C31.6171875,168.709636 31.2070354,169.256506 30.3867188,170.167969 L30.3867188,170.441406 L30.5234375,171.535156 C30.5234375,171.717449 30.1588578,173.084623 29.4296875,175.636719 C27.7890543,179.556009 26.96875,182.518219 26.96875,184.523438 C26.1484334,185.070315 25.7382812,186.483062 25.7382812,188.761719 C25.7382812,189.308596 25.2825566,190.812488 24.3710938,193.273438 C23.9153623,195.369802 23.5052102,198.651019 23.140625,203.117188 C23.140625,203.208334 23.0950525,203.527341 23.0039062,204.074219 C23.0950525,204.894535 23.140625,205.441405 23.140625,205.714844 C23.140625,206.53516 22.8671902,208.312486 22.3203125,211.046875 L22.3203125,211.183594 L22.4570312,211.183594 C23.8242256,205.350231 24.5078125,201.977869 24.5078125,201.066406 L24.5078125,200.382812 C24.8723977,196.645815 25.4192672,193.59246 26.1484375,191.222656 C26.9687541,188.943999 27.4244787,187.759115 27.515625,187.667969 C27.6979176,188.397139 27.7890625,188.898436 27.7890625,189.171875 C27.7890625,189.445314 27.74349,190.128901 27.6523438,191.222656 C27.6523438,191.496095 27.9257785,191.860675 28.4726562,192.316406 C25.8294139,205.897203 24.5078125,215.695282 24.5078125,221.710938 C24.5078125,223.442717 24.8723922,225.90363 25.6015625,229.09375 C25.8750014,230.825529 26.0117188,232.238276 26.0117188,233.332031 L26.0117188,233.878906 C26.0117188,235.975271 25.3737043,237.661452 24.0976562,238.9375 C23.8242174,239.484378 23.0494855,239.757812 21.7734375,239.757812 L21.3632812,239.757812 C18.4466,239.757812 15.0742379,238.664073 11.2460938,236.476562 C10.061192,235.838538 8.60287324,234.608082 6.87109375,232.785156 C3.04294961,228.501281 1.12890625,223.214875 1.12890625,216.925781 L1.12890625,215.695312 C1.12890625,201.385345 5.36714512,176.229347 13.84375,140.226562 C22.7760863,102.94773 27.2421875,83.9895865 27.2421875,83.3515625 C27.8802115,80.4348813 28.6549434,76.5156496 29.5664062,71.59375 C30.0221377,69.9531168 30.4778623,66.9909068 30.9335938,62.7070312 L31.2070312,57.1015625 L31.34375,57.1015625 C31.8906277,58.6510494 32.3919248,59.699216 32.8476562,60.2460938 L32.8476562,59.5625 C32.8476562,58.4687445 33.9869678,55.05081 36.265625,49.3085938 C36.6302102,48.123692 37.1770797,46.5286559 37.90625,44.5234375 L38.0429688,43.9765625 C38.0429688,43.7942699 37.769534,43.3841178 37.2226562,42.7460938 C37.2226562,42.6549475 36.9947939,42.1080779 36.5390625,41.1054688 C38.1796957,40.8320299 39.3645797,40.6953125 40.09375,40.6953125 L40.640625,40.6953125 C41.7343805,40.6953125 42.28125,40.9687473 42.28125,41.515625 C41.5520797,43.7942822 40.9596377,46.8020646 40.5039062,50.5390625 C39.2278582,56.7370102 35.9922135,69.770734 30.796875,89.640625 C25.8749754,108.507907 22.5937582,121.541631 20.953125,128.742188 C20.4973936,131.203137 20.2695312,132.570311 20.2695312,132.84375 C20.2695312,133.208335 20.7252559,133.436197 21.6367188,133.527344 C22.3658891,132.88932 23.5052006,130.063827 25.0546875,125.050781 C30.4323186,106.183499 35.9921588,83.1238342 41.734375,55.8710938 C42.6458379,50.8580479 43.5572871,47.5312582 44.46875,45.890625 C45.2890666,43.9765529 46.2916607,42.4726617 47.4765625,41.3789062 C48.570318,40.3762971 50.0286367,39.875 51.8515625,39.875 Z M56.2265625,68.1757812 C56.5911477,69.7252682 56.7734375,73.1887752 56.7734375,78.5664062 C56.7734375,81.8476727 53.7200826,95.4738385 47.6132812,119.445312 C45.5169166,127.466186 43.5117283,134.848925 41.5976562,141.59375 C48.5247742,136.854143 54.9960637,132.205752 61.0117188,127.648438 C83.8894373,110.14835 95.328125,96.5221842 95.328125,86.7695312 L95.328125,86.2226562 C95.328125,80.0247086 90.3607268,75.2851727 80.4257812,72.0039062 C77.5091,71.0924434 73.3620061,70.2265666 67.984375,69.40625 C65.0676938,68.9505186 61.1484621,68.5403664 56.2265625,68.1757812 Z M121.304688,74.1914062 C121.851565,78.201843 122.125,80.2981762 122.125,80.4804688 C122.489585,79.0221281 122.671875,77.8828166 122.671875,77.0625 C122.671875,76.424476 122.261723,75.5585992 121.441406,74.4648438 C121.441406,74.2825512 121.395834,74.1914062 121.304688,74.1914062 Z M121.441406,83.2148438 C121.441406,83.3971363 121.578124,83.4882812 121.851562,83.4882812 C122.125001,83.4882812 122.261719,83.3515639 122.261719,83.078125 C122.261719,82.5312473 122.170574,81.9843777 121.988281,81.4375 C121.805989,81.4375 121.623699,82.029942 121.441406,83.2148438 Z M120.210938,91.28125 C120.210938,91.5546889 120.165365,91.7825512 120.074219,91.9648438 L120.347656,91.4179688 L120.347656,91.28125 L120.210938,91.28125 Z M115.425781,103.996094 C116.063805,103.996094 117.066399,102.355485 118.433594,99.0742188 C119.162764,97.1601467 119.527344,95.2461033 119.527344,93.3320312 C119.162759,93.6966164 118.570317,95.2460801 117.75,97.9804688 C116.929683,100.076833 116.154952,102.082022 115.425781,103.996094 Z M108.589844,114.660156 L108.589844,114.796875 L108.863281,114.933594 L109,114.933594 L109,114.660156 L108.589844,114.660156 Z M21.5,136.808594 C20.4062445,139.269544 19.859375,141.229159 19.859375,142.6875 C19.6770824,143.41667 19.5859375,144.555982 19.5859375,146.105469 C19.7682301,146.196615 19.9049475,146.242188 19.9960938,146.242188 C19.9960938,146.059895 20.4062459,144.373714 21.2265625,141.183594 C21.5000014,140.180985 21.6367188,139.041673 21.6367188,137.765625 L21.6367188,136.808594 L21.5,136.808594 Z M82.3398438,144.191406 L81.3828125,145.011719 L81.3828125,144.875 C81.3828125,144.510415 81.7018197,144.282553 82.3398438,144.191406 Z M174.755156,49.171875 C176.851521,49.171875 179.950448,51.2226357 184.052031,55.3242188 L184.598906,55.3242188 C186.786417,55.3242188 189.566337,57.2838346 192.93875,61.203125 C194.032505,62.0234416 195.992121,63.0260357 198.817656,64.2109375 C199.729119,64.7578152 200.184844,65.3046848 200.184844,65.8515625 C199.820259,66.945318 199.501251,67.9479121 199.227813,68.859375 C198.407496,72.6875191 197.496047,79.5233883 196.493438,89.3671875 L196.493438,90.3242188 C196.493438,98.9831162 198.225191,126.736745 201.68875,173.585938 C202.235628,180.513055 202.509063,185.207019 202.509063,187.667969 C202.509063,190.949235 202.09891,192.954423 201.278594,193.683594 C200.64057,193.957033 200.184845,194.09375 199.911406,194.09375 L200.048125,193.957031 C196.949151,193.227861 194.579383,192.453129 192.93875,191.632812 C191.024678,190.447911 187.652316,188.306005 182.821563,185.207031 C181.9101,184.7513 181.226513,184.067713 180.770781,183.15625 C179.950465,181.424471 178.811153,179.738289 177.352813,178.097656 C177.443959,177.550779 177.990828,176.09246 178.993438,173.722656 L178.993438,173.3125 C178.993438,173.039061 178.765575,172.218757 178.309844,170.851562 L178.309844,170.578125 L178.856719,166.75 C179.221304,165.929683 179.403594,165.063807 179.403594,164.152344 C179.403594,163.240881 179.039014,162.101569 178.309844,160.734375 C177.945259,160.005205 177.762969,159.36719 177.762969,158.820312 L178.309844,157.589844 L178.309844,157.453125 C178.218697,157.270832 178.036408,156.541673 177.762969,155.265625 C177.48953,155.174479 177.261668,155.128906 177.079375,155.128906 C175.165303,155.128906 168.785158,157.863254 157.93875,163.332031 C148.094951,168.345077 139.709618,172.218736 132.7825,174.953125 C129.410087,176.229173 126.812457,176.867188 124.989531,176.867188 L123.075469,176.867188 C122.437445,177.869797 120.341112,181.515594 116.786406,187.804688 C113.869725,193.182319 111.089805,198.787731 108.446563,204.621094 C106.623637,208.813823 104.937456,213.735649 103.387969,219.386719 C103.023384,221.57423 102.841094,223.80728 102.841094,226.085938 C102.841094,226.723962 102.932239,228.820295 103.114531,232.375 C103.114531,232.830731 102.932241,233.104166 102.567656,233.195312 C102.111925,233.195312 100.289026,232.602871 97.0989063,231.417969 C95.2759805,230.597652 92.4504879,228.774754 88.6223438,225.949219 L85.0676563,223.625 C83.9739008,221.710928 83.4270313,219.569022 83.4270313,217.199219 L83.4270313,216.378906 C83.4270313,209.725227 87.0272557,199.744858 94.2278125,186.4375 C95.5950068,183.794258 103.889195,167.661606 119.110625,138.039062 C132.873715,111.242054 140.256453,96.9778732 141.259063,95.2460938 C146.272108,86.9517814 153.973854,74.8750793 164.364531,59.015625 C165.458287,57.0104066 167.19004,54.7317836 169.559844,52.1796875 C171.747355,50.1744691 173.479108,49.171875 174.755156,49.171875 Z M154.247344,109.054688 C157.710903,104.770812 160.80983,100.259138 163.544219,95.5195312 C166.096315,90.8710705 167.873641,87.2708461 168.87625,84.71875 C166.141861,87.4531387 164.136673,89.8684791 162.860625,91.9648438 C161.858016,93.605477 160.399697,96.1119623 158.485625,99.484375 C155.933529,102.947934 154.611928,105.499992 154.520781,107.140625 C154.338489,107.778649 154.247344,108.416663 154.247344,109.054688 Z M168.87625,97.7070312 C164.683521,104.178418 162.08589,108.553374 161.083281,110.832031 C154.065017,123.592512 146.499988,136.89967 138.387969,150.753906 C144.49477,148.110664 154.429567,144.14586 168.192656,138.859375 L173.25125,136.808594 C170.425715,112.563681 169.012969,99.7122469 169.012969,98.2539062 L169.012969,97.7070312 L168.87625,97.7070312 Z M190.887969,98.8007812 C190.523384,101.079438 190.341094,103.084627 190.341094,104.816406 L190.341094,107.003906 C190.341094,109.37371 191.161398,111.652333 192.802031,113.839844 C193.257763,111.743479 193.485625,109.920581 193.485625,108.371094 C193.485625,105.363266 192.665321,102.173194 191.024688,98.8007812 L190.887969,98.8007812 Z M192.802031,118.761719 C192.164007,119.490889 191.845,120.311193 191.845,121.222656 C191.845,121.587241 192.20958,123.136705 192.93875,125.871094 C193.303335,127.69402 193.485625,129.471346 193.485625,131.203125 C193.394479,133.29949 193.348906,134.621091 193.348906,135.167969 L193.348906,136.398438 C193.348906,138.677095 193.667913,142.505181 194.305938,147.882812 L194.305938,149.523438 L193.895781,155.675781 L193.895781,156.085938 C193.895781,161.19013 194.397078,166.522108 195.399688,172.082031 C196.220004,175.089859 197.450461,177.596344 199.091094,179.601562 L199.091094,179.464844 C197.359314,171.626263 196.493438,163.149785 196.493438,154.035156 C196.493438,141.821554 196.17443,133.390648 195.536406,128.742188 C195.262967,122.908825 194.94396,119.992188 194.579375,119.992188 C193.941351,119.171871 193.348909,118.761719 192.802031,118.761719 Z M129.227813,153.351562 C130.503861,152.4401 131.141875,151.300788 131.141875,149.933594 L131.141875,149.660156 C129.865827,150.845058 129.227813,152.075514 129.227813,153.351562 Z M128.954375,153.625 L128.954375,153.898438 C129.045521,153.898438 129.091094,153.807293 129.091094,153.625 L128.954375,153.625 Z M115.2825,178.78125 C118.837205,173.950497 121.936133,168.937526 124.579375,163.742188 C127.313764,157.908825 128.680938,154.809898 128.680938,154.445312 C126.219988,156.906262 124.488234,159.048168 123.485625,160.871094 C122.39187,162.511727 121.206986,164.699205 119.930938,167.433594 C119.019475,169.074227 117.880163,170.98827 116.512969,173.175781 C115.692652,175.089853 115.2825,176.958324 115.2825,178.78125 Z M106.805938,195.871094 C106.805938,196.509118 106.897082,197.238277 107.079375,198.058594 C110.451788,194.23045 112.137969,189.445341 112.137969,183.703125 C110.497336,185.890636 109.175734,188.078114 108.173125,190.265625 C107.261662,192.088551 106.805938,193.957022 106.805938,195.871094 Z M101.337188,209.269531 L101.337188,209.40625 C101.337188,210.13542 101.38276,210.773435 101.473906,211.320312 C103.205686,209.770826 104.071563,207.947927 104.071563,205.851562 C104.071563,205.122392 104.02599,204.438805 103.934844,203.800781 C102.203064,205.350268 101.337188,207.173167 101.337188,209.269531 Z M320.080625,53.9570312 C322.359282,55.4153719 324.865768,57.4661326 327.600156,60.109375 C330.607984,63.1172025 332.704317,65.7148328 333.889219,67.9023438 C335.347559,70.181001 336.486871,72.6419139 337.307187,75.2851562 C337.762919,76.470058 337.990781,77.1992174 337.990781,77.4726562 C337.443904,77.8372414 337.170469,78.2018211 337.170469,78.5664062 C337.443908,79.3867229 337.580625,80.0703098 337.580625,80.6171875 C337.580625,81.4375041 337.170473,83.2148301 336.350156,85.9492188 C335.712132,87.3164131 335.393125,88.5468695 335.393125,89.640625 C335.393125,90.3697953 335.803277,91.7369691 336.623594,93.7421875 C336.71474,94.1979189 336.760312,94.5624986 336.760312,94.8359375 C336.760312,95.5651078 336.031153,97.4791512 334.572812,100.578125 C333.023326,104.588562 331.929587,107.14062 331.291562,108.234375 C331.018124,108.872399 330.471254,109.328124 329.650937,109.601562 C328.830621,110.330733 328.055889,111.424472 327.326719,112.882812 C324.59233,116.61981 322.359279,120.402325 320.6275,124.230469 C319.89833,125.779956 317.346272,129.0156 312.97125,133.9375 L313.107969,133.9375 C315.477772,131.841135 318.02983,129.608085 320.764219,127.238281 L320.900937,127.238281 C316.343623,133.345083 310.191341,140.636676 302.443906,149.113281 C295.790227,156.131546 290.139242,161.736958 285.490781,165.929688 L279.475156,171.398438 C287.222591,175.500021 297.02067,180.239556 308.869687,185.617188 C317.89317,189.809917 324.18217,193.136706 327.736875,195.597656 C328.374899,196.144534 329.331921,197.101556 330.607969,198.46875 C332.430895,199.835944 333.661351,201.522125 334.299375,203.527344 L334.436094,204.621094 C334.436094,208.175799 330.881442,210.727857 323.772031,212.277344 C321.219935,211.274735 318.667877,210.089851 316.115781,208.722656 L308.049375,204.210938 C305.132694,202.479158 301.897049,200.29168 298.342344,197.648438 C297.977759,197.283852 296.747302,196.828128 294.650937,196.28125 C292.463427,195.369787 288.498622,193.501316 282.756406,190.675781 C281.024627,189.855465 280.067605,189.445312 279.885312,189.445312 L279.748594,189.445312 C279.657447,189.445312 279.475158,189.536457 279.201719,189.71875 C279.384011,190.44792 279.703019,190.949217 280.15875,191.222656 C284.533772,193.683606 289.227735,196.554671 294.240781,199.835938 C298.068925,202.205741 302.398309,204.347647 307.229062,206.261719 C310.510329,207.811206 313.654829,209.497387 316.662656,211.320312 C317.756412,212.049483 318.759006,212.73307 319.670469,213.371094 L317.893125,214.054688 C316.434784,214.692712 315.477763,215.604161 315.022031,216.789062 C314.748592,217.153648 314.475158,217.335938 314.201719,217.335938 L313.791562,217.335938 C312.8801,217.335938 310.145752,215.968764 305.588437,213.234375 C300.028514,209.953109 293.602797,206.990899 286.311094,204.347656 C281.571487,202.707023 275.874929,201.111987 269.22125,199.5625 C257.91911,196.281234 248.485611,193.683603 240.920469,191.769531 L240.78375,191.769531 C239.963433,192.225263 239.006412,192.90885 237.912656,193.820312 C237.730364,193.820312 237.411356,194.731762 236.955625,196.554688 C234.038944,206.30734 232.580625,212.277333 232.580625,214.464844 L232.580625,214.601562 C232.580625,215.421879 233.03635,218.065082 233.947812,222.53125 C234.312398,224.809907 234.494687,226.587233 234.494687,227.863281 C234.494687,230.324231 233.856673,232.147129 232.580625,233.332031 C232.124894,234.152348 231.350162,234.5625 230.256406,234.5625 L229.709531,234.5625 C227.157435,234.5625 224.10408,233.878913 220.549375,232.511719 C218.544157,231.600256 216.721258,230.506517 215.080625,229.230469 C209.79414,224.946593 207.150937,219.250036 207.150937,212.140625 C207.150937,207.492164 208.062387,200.018281 209.885312,189.71875 C212.437409,176.502538 215.809771,162.329503 220.0025,147.199219 C222.46345,138.358029 227.020696,123.136827 233.674375,101.535156 C236.49991,91.5090645 238.960823,81.8932752 241.057187,72.6875 C241.057187,72.5963537 241.10276,72.3229189 241.193906,71.8671875 L241.057187,71.8671875 C238.04936,72.8697967 235.542875,73.3710938 233.537656,73.3710938 C228.980342,73.3710938 226.018132,70.9557533 224.650937,66.125 C224.650937,65.7604148 223.876206,64.3020961 222.326719,61.75 C221.962134,60.8385371 221.779844,60.1093777 221.779844,59.5625 L221.779844,59.2890625 C221.779844,58.8333311 221.962134,58.5143238 222.326719,58.3320312 C230.074153,53.5924242 236.408725,50.7213592 241.330625,49.71875 C244.247306,48.9895797 247.528523,48.625 251.174375,48.625 C253.908764,48.3515611 255.777235,48.0325539 256.779844,47.6679687 C257.509014,47.3033836 257.919166,47.0755213 258.010312,46.984375 C257.007703,46.8932287 255.731674,46.8476562 254.182187,46.8476562 L252.404844,46.8476562 C250.308479,46.8476562 248.257718,47.1666635 246.2525,47.8046875 L239.143125,49.171875 C236.773321,49.7187527 234.494698,50.4934846 232.307187,51.4960937 C231.942602,51.6783863 230.894436,51.9973936 229.162656,52.453125 C227.613169,53.0000027 225.607981,53.9570244 223.147031,55.3242187 C223.147031,55.415365 223.101459,55.4609375 223.010312,55.4609375 L222.873594,55.4609375 L222.736875,55.3242187 C223.10146,54.6861947 223.83062,54.0026078 224.924375,53.2734375 C226.838447,51.9973895 228.843635,50.8125055 230.94,49.71875 C235.041583,47.6223854 239.781119,46.0273492 245.15875,44.9335937 C250.262942,43.9309846 260.835753,43.5436187 276.8775,43.7714844 C292.919247,43.9993501 307.320145,47.3944984 320.080625,53.9570312 Z M245.568906,63.8007812 C245.568906,64.2565127 245.751196,64.484375 246.115781,64.484375 C246.38922,64.484375 246.525937,64.3020852 246.525937,63.9375 C246.434791,63.5729148 246.389219,63.3450525 246.389219,63.2539062 L245.705625,63.2539062 C245.614479,63.3450525 245.568906,63.5273424 245.568906,63.8007812 Z M270.178281,70.7734375 L270.315,71.1835938 L270.315,72.140625 C270.315,72.5963564 269.859275,74.236965 268.947812,77.0625 C268.674374,77.7916703 268.446511,79.5234238 268.264219,82.2578125 C267.808487,85.0833475 267.48948,86.6328111 267.307187,86.90625 C265.301969,88.3645906 264.02594,90.0507717 263.479062,91.9648438 C263.205624,93.2408918 262.613182,95.0182178 261.701719,97.296875 C261.42828,98.0260453 261.0637,99.4843641 260.607969,101.671875 C258.147019,110.421919 256.916562,115.936187 256.916562,118.214844 L256.916562,118.898438 C256.916562,119.536462 257.05328,119.855469 257.326719,119.855469 C257.873596,119.855469 259.05848,117.257838 260.881406,112.0625 C261.884015,109.328111 262.70432,106.912771 263.342344,104.816406 L263.479062,104.816406 C257.6457,127.876417 252.359295,147.153568 247.619687,162.648438 C252.177002,159.549464 257.281118,155.630232 262.932187,150.890625 C266.122308,148.338529 270.542836,144.237007 276.193906,138.585938 C282.665293,131.932258 287.085821,126.96486 289.455625,123.683594 C300.484326,109.738212 305.998594,98.0716615 305.998594,88.6835938 C305.998594,79.0220871 294.058609,73.0520947 270.178281,70.7734375 Z M333.342344,75.5585938 C334.071514,79.6601768 334.436094,81.75651 334.436094,81.8476562 C334.618386,80.7539008 334.755104,79.7513066 334.84625,78.8398438 C334.84625,77.9283809 334.436098,76.9713592 333.615781,75.96875 C333.615781,75.96875 333.524636,75.8320326 333.342344,75.5585938 Z M216.311094,180.96875 C216.311094,181.242189 216.766818,181.470051 217.678281,181.652344 C218.407452,180.832027 218.999894,179.783861 219.455625,178.507812 C222.28116,170.395793 226.200392,155.90375 231.213437,135.03125 C234.58585,123.182232 238.003785,109.419349 241.467344,93.7421875 C242.014221,92.2838469 242.743381,90.4609484 243.654844,88.2734375 C244.47516,85.6301951 244.885312,83.8072967 244.885312,82.8046875 L244.885312,82.6679688 C244.794166,81.5742133 244.384014,81.0273438 243.654844,81.0273438 L243.381406,81.0273438 C242.652236,81.0273438 242.150939,81.7565031 241.8775,83.2148438 C241.8775,83.3971363 241.376203,84.9466 240.373594,87.8632812 L238.59625,96.3398438 C228.934743,131.613458 221.962157,157.908768 217.678281,175.226562 C217.313696,176.411464 216.857971,178.325508 216.311094,180.96875 Z M333.889219,84.4453125 C333.980365,84.7187514 334.117082,84.8554688 334.299375,84.8554688 C334.572814,84.7643225 334.709531,84.6731775 334.709531,84.5820312 L334.709531,84.3085938 C334.709531,83.9440086 334.618386,83.3971391 334.436094,82.6679688 C334.253801,82.6679688 334.071511,83.1692658 333.889219,84.171875 C333.889219,84.171875 333.889219,84.2630199 333.889219,84.4453125 Z M296.565,144.875 C295.653537,145.239585 294.833233,145.69531 294.104062,146.242188 C293.101453,147.15365 292.509011,148.019527 292.326719,148.839844 C292.600158,150.024746 293.01031,150.617188 293.557187,150.617188 L293.693906,150.617188 C294.33193,150.617188 294.742082,150.434898 294.924375,150.070312 C296.109277,148.885411 296.838436,147.746099 297.111875,146.652344 C297.385314,146.01432 297.658749,145.695312 297.932187,145.695312 C299.390528,145.148435 300.848847,143.781261 302.307187,141.59375 C302.398334,141.59375 303.765508,139.953141 306.40875,136.671875 C309.781163,133.755194 311.786351,131.704433 312.424375,130.519531 C313.700423,128.605459 315.386604,126.281264 317.482969,123.546875 C318.576724,121.815096 319.624891,119.901052 320.6275,117.804688 C320.6275,117.440102 321.083225,116.528653 321.994687,115.070312 C322.815004,113.885411 323.726453,111.697933 324.729062,108.507812 C325.731672,105.1354 326.916556,102.127617 328.28375,99.484375 C329.286359,96.1119623 329.787656,93.8333393 329.787656,92.6484375 L329.650937,92.6484375 C329.468645,92.6484375 329.058493,92.5572926 328.420469,92.375 C328.14703,92.375 327.96474,92.967442 327.873594,94.1523438 C327.691301,94.5169289 327.509011,95.519523 327.326719,97.1601562 C325.777232,100.806008 323.179602,106.274703 319.53375,113.566406 C316.617069,119.308622 314.520736,123.227854 313.244687,125.324219 C310.874884,126.144535 309.051986,127.693999 307.775937,129.972656 C306.955621,131.339851 305.26944,133.345039 302.717344,135.988281 C301.441296,137.264329 300.347557,138.130206 299.436094,138.585938 C297.522022,140.317717 296.565,142.41405 296.565,144.875 Z M333.205625,92.6484375 C333.205625,92.8307301 333.11448,93.0585924 332.932187,93.3320312 L333.068906,93.3320312 L333.342344,92.6484375 L333.205625,92.6484375 Z M332.522031,94.6992188 C332.157446,95.2460965 331.701721,96.6132703 331.154844,98.8007812 C330.790259,100.167976 330.106672,102.309881 329.104062,105.226562 C329.468648,105.226562 329.833227,104.770838 330.197812,103.859375 C331.747299,101.216133 332.522031,98.6640748 332.522031,96.203125 L332.522031,94.6992188 Z M263.342344,104.542969 L263.479062,104.542969 L263.479062,104.679688 L263.342344,104.679688 L263.342344,104.542969 Z M322.951719,116.027344 C322.951719,116.209636 322.997291,116.300781 323.088437,116.300781 L323.225156,116.300781 L323.225156,115.890625 C323.042864,115.981771 322.951719,116.027344 322.951719,116.027344 Z M217.541562,184.796875 C216.174368,187.440117 215.490781,189.673168 215.490781,191.496094 L215.354062,194.09375 C215.536355,194.184896 215.6275,194.276041 215.6275,194.367188 C215.718646,194.367188 215.855364,193.911463 216.037656,193 C217.131412,189.992172 217.678281,187.34897 217.678281,185.070312 L217.678281,184.796875 L217.541562,184.796875 Z M247.619687,188.761719 C246.617078,189.855474 245.842346,190.493489 245.295469,190.675781 C249.397052,191.587244 252.495979,192.453121 254.592344,193.273438 C254.865783,193.273438 256.643109,193.957024 259.924375,195.324219 L259.924375,195.1875 C259.924375,194.002598 259.377505,193.227866 258.28375,192.863281 C255.367069,191.313794 252.541576,190.12891 249.807187,189.308594 C249.078017,189.035155 248.348858,188.852865 247.619687,188.761719 Z M411.265469,0.7734375 L413.31625,0.7734375 C415.959492,0.7734375 417.691246,1.50259688 418.511562,2.9609375 C418.785001,3.59896152 418.921719,4.51041074 418.921719,5.6953125 C418.921719,6.5156291 418.876146,7.51822324 418.785,8.703125 C435.464771,5.87759004 448.498495,4.46484375 457.886562,4.46484375 C473.837163,4.46484375 487.098749,7.60934355 497.671719,13.8984375 C500.223815,15.630217 502.229003,19.3215863 503.687344,24.9726562 C504.689953,29.1653855 505.19125,32.2187404 505.19125,34.1328125 C505.19125,34.6796902 504.234228,34.9986975 502.320156,35.0898438 C499.494621,35.0898438 494.937375,33.9049598 488.648281,31.5351562 C485.640454,30.6236934 482.632671,30.1679688 479.624844,30.1679688 C475.887846,30.1679688 468.778542,31.2161354 458.296719,33.3125 C453.10138,34.2239629 446.311084,35.1809846 437.925625,36.1835938 C427.079217,37.1862029 419.240753,37.9609348 414.41,38.5078125 C415.13917,38.5078125 415.50375,38.5989574 415.50375,38.78125 C414.501141,38.9635426 413.999844,39.10026 413.999844,39.1914062 C408.257628,68.2670725 402.424353,94.2433752 396.499844,117.121094 C394.676918,125.141967 392.762875,134.393177 390.757656,144.875 C390.575364,144.875 390.484219,145.05729 390.484219,145.421875 C388.205562,156.906307 386.382663,167.706981 385.015469,177.824219 C384.74203,180.649754 384.240733,184.66013 383.511562,189.855469 C381.324052,205.806069 380.230312,216.333308 380.230312,221.4375 L380.230312,222.941406 C380.230312,227.225282 380.73161,238.253817 381.734219,256.027344 L381.734219,258.351562 C381.734219,259.263025 381.643074,259.71875 381.460781,259.71875 L379.136562,259.71875 C378.771977,259.71875 378.407398,259.445315 378.042812,258.898438 C377.313642,258.442706 376.812345,258.214844 376.538906,258.214844 L376.538906,257.804688 C376.538906,256.893225 377.131348,255.617196 378.31625,253.976562 C378.680835,253.247392 378.863125,252.700523 378.863125,252.335938 L378.863125,251.789062 C378.863125,251.059892 377.906103,250.102871 375.992031,248.917969 L376.12875,248.78125 C375.946457,247.869787 375.855312,246.912765 375.855312,245.910156 L375.855312,245.773438 C375.855312,245.682291 375.80974,245.591146 375.718594,245.5 L375.855312,245.089844 L375.855312,244.679688 C375.855312,242.765615 376.35661,240.486992 377.359219,237.84375 L377.359219,237.433594 C377.359219,237.069009 377.085784,236.157559 376.538906,234.699219 C375.992029,232.694 375.718594,230.415377 375.718594,227.863281 L375.718594,226.496094 C375.718594,221.847633 376.174318,218.065119 377.085781,215.148438 C377.268074,214.692706 377.587081,214.236981 378.042812,213.78125 C378.498544,212.869787 378.726406,212.00391 378.726406,211.183594 C378.726406,210.54557 378.407399,209.269541 377.769375,207.355469 C377.40479,205.897128 377.2225,204.666672 377.2225,203.664062 L377.2225,202.707031 C377.2225,201.339837 377.632652,199.152359 378.452969,196.144531 C378.817554,194.412752 379.090989,191.177107 379.273281,186.4375 C379.729013,182.51821 380.321455,178.781268 381.050625,175.226562 C381.962088,171.216126 383.192544,164.243539 384.742031,154.308594 C385.380055,150.48045 385.699062,147.973964 385.699062,146.789062 C385.699062,146.151038 385.334483,145.832031 384.605312,145.832031 C383.69385,146.014324 383.238125,146.424476 383.238125,147.0625 C382.326662,149.341157 381.460785,152.303367 380.640469,155.949219 C380.184737,157.589852 379.86573,159.914047 379.683437,162.921875 C378.863121,169.028676 377.678237,176.32027 376.12875,184.796875 C375.126141,190.174506 374.260264,196.645796 373.531094,204.210938 C371.799314,213.507859 370.933437,221.574185 370.933437,228.410156 C370.933437,230.962252 371.070155,233.240875 371.343594,235.246094 L371.206875,235.519531 L371.206875,243.996094 C371.206875,248.644554 371.343592,253.292946 371.617031,257.941406 L371.343594,257.941406 C370.432131,257.667967 368.973812,256.893236 366.968594,255.617188 C363.231596,252.973945 360.861828,250.28517 359.859219,247.550781 C357.12483,240.988248 355.757656,230.09643 355.757656,214.875 C355.757656,201.567642 356.76025,187.121172 358.765469,171.535156 C359.859224,164.334599 361.408688,155.721404 363.413906,145.695312 C363.505053,145.695312 363.550625,145.421878 363.550625,144.875 L363.413906,144.738281 C369.703,112.381349 377.176884,79.0678797 385.835781,44.796875 C370.249766,48.8073117 356.031158,53.182268 343.179531,57.921875 C333.609171,61.385434 328.049331,63.1171875 326.499844,63.1171875 C323.218577,63.1171875 320.438657,61.7044412 318.16,58.8789062 C316.610513,56.7825416 315.835781,54.7773533 315.835781,52.8632812 C315.653489,50.4934777 314.058453,47.1666881 311.050625,42.8828125 C310.868332,42.7005199 310.777187,42.4726576 310.777187,42.1992188 L310.777187,41.9257812 C310.777187,39.7382703 317.795346,36.5026256 331.831875,32.21875 C340.581919,29.393215 348.238092,26.6588674 354.800625,24.015625 C363.732961,20.9166512 375.034932,17.8177238 388.706875,14.71875 L388.706875,14.4453125 C388.706875,12.9869719 388.570158,10.3893416 388.296719,6.65234375 C392.762887,4.92056426 397.274561,3.41667305 401.831875,2.140625 C405.933458,1.22916211 409.077958,0.7734375 411.265469,0.7734375 Z M372.710781,24.1523438 C374.989438,23.7877586 376.12875,23.332034 376.12875,22.7851562 C375.946457,22.0559859 375.62745,21.6914062 375.171719,21.6914062 C374.624841,21.6914062 373.804537,22.5117105 372.710781,24.1523438 Z M324.995937,42.0625 C325.9074,42.4270852 326.81885,42.609375 327.730312,42.609375 C329.462092,42.609375 331.603998,42.1080779 334.156094,41.1054688 C343.726454,38.0976412 352.157359,34.7708516 359.449062,31.125 C363.732938,29.1197816 367.880032,26.8867311 371.890469,24.4257812 L371.206875,24.4257812 C367.925609,24.4257812 364.553246,25.3372305 361.089687,27.1601562 C359.813639,27.7981803 356.623567,28.9374918 351.519375,30.578125 C344.592257,32.9479285 336.571504,36.0012834 327.456875,39.7382812 C327.09229,39.9205738 326.271986,40.6953057 324.995937,42.0625 Z M321.031094,42.8828125 L321.031094,43.0195312 C321.031094,43.2018238 321.258956,43.2929688 321.714687,43.2929688 C322.535004,43.2929688 323.400881,42.9283891 324.312344,42.1992188 C324.312344,42.1080725 323.765474,41.9713551 322.671719,41.7890625 L322.261562,41.7890625 C321.441246,41.8802088 321.031094,42.2447885 321.031094,42.8828125 Z M397.046719,95.109375 C395.861817,97.3880322 395.269375,99.5299379 395.269375,101.535156 L395.269375,102.628906 L395.406094,102.628906 C396.773288,99.712225 397.456875,97.4791744 397.456875,95.9296875 L397.456875,95.65625 C397.456875,95.4739574 397.320158,95.2916676 397.046719,95.109375 Z M394.995937,103.449219 C392.808427,107.003924 391.714687,110.740866 391.714687,114.660156 L391.714687,116.164062 L391.851406,116.164062 C394.038917,112.882796 395.132656,108.826847 395.132656,103.996094 L395.132656,103.449219 L394.995937,103.449219 Z M389.937344,121.90625 C389.117027,123.546883 388.706875,125.141919 388.706875,126.691406 C388.798021,127.420577 388.843594,127.967446 388.843594,128.332031 C389.755057,126.873691 390.210781,125.460944 390.210781,124.09375 L390.210781,123.273438 C390.210781,122.908852 390.165209,122.453128 390.074062,121.90625 L389.937344,121.90625 Z M387.613125,132.433594 C386.154784,135.259129 385.425625,137.902331 385.425625,140.363281 L385.425625,141.867188 L385.562344,141.867188 C387.020684,138.85936 387.749844,135.89715 387.749844,132.980469 C387.658697,132.798176 387.613125,132.615886 387.613125,132.433594 Z M432.313594,41.1054688 L432.450313,41.1054688 C434.911262,41.196615 436.141719,41.3789049 436.141719,41.6523438 C436.141719,41.9257826 436.825306,42.5637971 438.1925,43.5664062 C438.1925,43.9309914 439.149522,44.2499986 441.063594,44.5234375 C442.613081,45.1614615 444.344834,46.2552006 446.258906,47.8046875 C448.081832,48.7161504 451.271904,50.1744691 455.829219,52.1796875 C455.829219,52.2708338 456.011509,52.3164062 456.376094,52.3164062 C457.378703,52.1341137 457.925572,52.0429688 458.016719,52.0429688 C459.110474,52.0429688 460.340931,54.2304469 461.708125,58.6054688 C462.619588,61.0664186 463.439892,62.4791648 464.169063,62.84375 C465.809696,63.6640666 466.63,64.2565086 466.63,64.6210938 C470.640437,72.5508209 474.833103,82.7134797 479.208125,95.109375 C480.30188,98.2083488 481.988062,101.945291 484.266719,106.320312 C490.191228,117.987038 495.887785,129.425725 501.356563,140.636719 L501.356563,141.457031 C501.356563,141.73047 501.67557,142.960927 502.313594,145.148438 C502.313594,145.968754 502.814891,147.244783 503.8175,148.976562 L505.458125,152.941406 L507.645625,154.582031 L508.1925,154.582031 C514.299301,125.415219 519.448989,101.580822 523.641719,83.078125 C525.920376,73.7812035 527.971137,64.2109867 529.794063,54.3671875 C530.432087,51.7239451 531.115673,49.7643293 531.844844,48.4882812 C533.120892,46.4830629 534.94379,45.4804688 537.313594,45.4804688 C539.86569,45.4804688 543.238052,46.4830629 547.430781,48.4882812 C547.886513,48.9440127 548.661245,49.9466068 549.755,51.4960938 L550.438594,52.0429688 C550.165155,53.5924557 549.755003,56.7369555 549.208125,61.4765625 C548.296662,66.5807547 547.202923,70.9557109 545.926875,74.6015625 C545.288851,76.0599031 544.787554,77.8828016 544.422969,80.0703125 C544.14953,82.0755309 544.012813,83.3059873 544.012813,83.7617188 L544.012813,83.8984375 L544.149531,83.7617188 C544.240678,83.852865 544.28625,83.94401 544.28625,84.0351562 C542.372178,95.2461498 541.415156,102.720033 541.415156,106.457031 C541.32401,106.457031 541.14172,108.598937 540.868281,112.882812 C541.324013,116.346371 541.82531,118.078125 542.372188,118.078125 C542.372188,118.260418 542.645622,118.351562 543.1925,118.351562 C543.830524,118.351562 544.195104,117.348968 544.28625,115.34375 C544.012811,111.606752 543.876094,109.419274 543.876094,108.78125 L543.876094,108.371094 C543.876094,106.365875 544.468536,103.449238 545.653438,99.6210938 C545.926876,98.6184846 546.063594,97.7070354 546.063594,96.8867188 C545.972447,93.6054523 545.926875,91.6002641 545.926875,90.8710938 C546.200314,88.8658754 546.792756,85.7213756 547.704219,81.4375 C547.795365,79.3411354 548.524524,76.4244979 549.891719,72.6875 L549.755,72.0039062 L549.755,68.9960938 C549.755,68.6315086 549.709428,68.4036463 549.618281,68.3125 L549.344844,68.3125 L551.395625,59.5625 C552.215942,56.3723799 552.853956,54.3216191 553.309688,53.4101562 C553.765419,53.1367174 554.084426,53 554.266719,53 L554.676875,53 C555.679484,53 556.454216,54.1393115 557.001094,56.4179688 L557.001094,56.5546875 C554.995875,66.489633 552.3071,82.1665596 548.934688,103.585938 C542.919032,140.226746 538.407359,167.16007 535.399531,184.386719 C531.571387,206.626413 528.244597,223.807231 525.419063,235.929688 C524.689892,238.937515 523.91516,241.261711 523.094844,242.902344 C521.180772,242.902344 517.398257,242.127612 511.747188,240.578125 C507.554458,239.666662 504.592248,238.755213 502.860469,237.84375 C498.303154,235.3828 496.024531,231.098989 496.024531,224.992188 L496.024531,223.351562 C496.024531,221.893222 496.389111,216.971396 497.118281,208.585938 L497.255,205.03125 C497.255,199.197887 495.933399,194.321634 493.290156,190.402344 C487.365647,179.829374 478.251155,162.876419 465.946406,139.542969 C461.93597,132.160119 457.834448,124.367229 453.641719,116.164062 L453.505,116.164062 C453.505,117.804696 452.912558,120.493471 451.727656,124.230469 C450.633901,126.873711 450.087031,129.061189 450.087031,130.792969 C446.988057,162.056146 444.709434,183.06505 443.251094,193.820312 C442.704216,198.742212 442.066202,202.752589 441.337031,205.851562 C440.790154,208.039073 440.197712,209.588537 439.559688,210.5 C439.103956,211.22917 438.465942,211.59375 437.645625,211.59375 C434.273212,211.229165 428.804517,208.084665 421.239375,202.160156 C418.322694,199.790353 416.864375,198.104172 416.864375,197.101562 C415.952912,193.820296 415.497188,189.399767 415.497188,183.839844 L415.497188,182.746094 C415.497188,171.899685 417.547948,153.625129 421.649531,127.921875 C424.475066,110.60408 426.844834,94.1979941 428.758906,78.703125 C429.579223,69.9530812 429.989375,63.0260672 429.989375,57.921875 L429.989375,49.71875 C429.989375,46.0728984 430.718534,43.2474059 432.176875,41.2421875 L432.313594,41.1054688 Z M490.145625,133.117188 C490.692503,135.395845 491.603952,137.127598 492.88,138.3125 C493.791463,139.223963 494.566195,139.679688 495.204219,139.679688 C495.477658,139.770834 495.70552,139.816406 495.887813,139.816406 C496.525837,139.451821 496.844844,138.996096 496.844844,138.449219 L496.844844,138.3125 C496.115673,135.85155 494.56621,133.800789 492.196406,132.160156 C491.740675,131.795571 491.46724,131.613281 491.376094,131.613281 L491.102656,131.613281 C490.646925,131.613281 490.37349,131.977861 490.282344,132.707031 C490.282344,132.798178 490.236771,132.934895 490.145625,133.117188 Z M436.962031,180.96875 C436.962031,181.151043 437.007604,181.606767 437.09875,182.335938 L437.09875,184.523438 C437.09875,186.802095 437.554475,188.898428 438.465938,190.8125 L438.602656,190.8125 C439.696412,188.35155 440.243281,186.209645 440.243281,184.386719 C440.243281,183.839841 440.197709,182.427095 440.106563,180.148438 C440.744587,171.398394 441.154739,167.023438 441.337031,167.023438 C442.704226,160.09632 443.387813,155.311211 443.387813,152.667969 C444.208129,148.384093 444.891716,144.282572 445.438594,140.363281 C444.435985,141.548183 443.706825,142.824212 443.251094,144.191406 C442.886509,145.011723 442.476356,147.290346 442.020625,151.027344 C441.473747,153.397147 440.471153,157.772104 439.012813,164.152344 C438.465935,166.977879 437.782348,172.583291 436.962031,180.96875 Z M496.297969,144.601562 C496.297969,145.604172 496.662548,146.105469 497.391719,146.105469 L497.801875,146.105469 C498.348753,145.923176 498.622188,145.649741 498.622188,145.285156 L498.622188,145.011719 C498.531041,144.282548 498.166462,143.917969 497.528438,143.917969 L497.391719,143.917969 C496.662548,143.917969 496.297969,144.145831 496.297969,144.601562 Z M499.305781,151.984375 L499.305781,152.121094 C499.488074,152.850264 499.807081,153.214844 500.262813,153.214844 C500.80969,152.850259 501.083125,152.485679 501.083125,152.121094 L501.083125,151.984375 C500.991979,151.346351 500.718544,151.027344 500.262813,151.027344 C499.624788,151.027344 499.305781,151.346351 499.305781,151.984375 Z M502.313594,158.683594 C502.313594,159.230471 502.450311,159.503906 502.72375,159.503906 C503.45292,159.503906 503.863072,159.230471 503.954219,158.683594 C503.954219,158.136716 503.680784,157.863281 503.133906,157.863281 L502.997188,157.863281 C502.541456,157.863281 502.313594,158.136716 502.313594,158.683594 Z M518.583125,238.253906 C518.583125,238.709638 519.03885,238.9375 519.950313,238.9375 C520.679483,238.026037 521.727649,234.790392 523.094844,229.230469 C524.462038,223.30596 525.874784,215.558642 527.333125,205.988281 L529.110469,199.835938 C529.657346,197.374988 529.930781,195.734379 529.930781,194.914062 C529.930781,193.729161 529.475057,193.136719 528.563594,193.136719 C527.652131,193.136719 527.105261,193.911451 526.922969,195.460938 C525.646921,200.656276 525.008906,204.302073 525.008906,206.398438 C524.370882,210.500021 523.368288,215.877571 522.001094,222.53125 C521.180777,226.359394 520.178183,230.324198 518.993281,234.425781 C518.719842,236.795585 518.583125,238.071614 518.583125,238.253906 Z M675.803125,51.4960938 C682.730243,51.4960938 687.287489,52.0429633 689.475,53.1367188 C694.943777,55.2330834 698.680719,58.1952934 700.685938,62.0234375 C701.232815,62.9349004 701.50625,63.8919221 701.50625,64.8945312 L701.50625,65.1679688 C701.50625,67.3554797 700.685946,69.7252477 699.045313,72.2773438 C695.764046,73.4622455 692.482829,74.0546875 689.201563,74.0546875 C673.068669,77.062515 659.260214,80.024725 647.775781,82.9414062 C646.044002,83.488284 642.945074,84.1262984 638.478906,84.8554688 C635.744518,85.1289076 633.602612,85.265625 632.053125,85.265625 L633.283594,86.359375 C633.283594,86.4505213 631.73413,86.6783836 628.635156,87.0429688 C620.796575,87.5898465 615.282308,88.2278609 612.092188,88.9570312 C612.001041,89.0481775 611.04402,89.2760398 609.221094,89.640625 L609.221094,89.7773438 C619.520624,93.5143416 631.096029,97.3880008 643.947656,101.398438 L652.424219,104.269531 C655.3409,104.816409 657.482806,105.454423 658.85,106.183594 C659.396878,106.365886 659.761457,106.639321 659.94375,107.003906 C660.308335,107.550784 660.490625,108.826813 660.490625,110.832031 C661.766673,114.751322 662.404688,117.348952 662.404688,118.625 L662.404688,120.539062 C662.404688,121.359379 662.222398,121.769531 661.857813,121.769531 C659.032278,123.501311 654.839611,125.369782 649.279688,127.375 C645.633836,128.468755 643.172923,129.015625 641.896875,129.015625 C624.943665,131.567721 610.633912,134.484359 598.967188,137.765625 C595.139043,138.85938 591.584391,139.907547 588.303125,140.910156 C588.303125,141.001303 588.941139,141.548172 590.217188,142.550781 C588.303115,143.917976 586.708079,145.239577 585.432031,146.515625 C585.158592,146.789064 584.338288,148.338528 582.971094,151.164062 C581.421607,153.44272 580.282295,156.177067 579.553125,159.367188 L578.322656,163.058594 C577.958071,165.154958 577.639064,167.889306 577.365625,171.261719 C577.274479,171.71745 577.137761,171.945312 576.955469,171.945312 C576.226298,171.945312 575.725001,172.902334 575.451563,174.816406 C574.175514,179.556013 573.5375,182.746086 573.5375,184.386719 C572.534891,190.311228 572.033594,194.048169 572.033594,195.597656 L572.033594,195.871094 C572.033594,198.42319 572.580463,200.382806 573.674219,201.75 C574.312243,202.843755 575.269264,203.983067 576.545313,205.167969 L575.588281,200.109375 C575.497135,199.471351 575.451563,198.605474 575.451563,197.511719 L575.451563,196.828125 C575.451563,196.098955 575.542707,194.731781 575.725,192.726562 C575.725,191.997392 575.497138,190.858081 575.041406,189.308594 C575.041406,188.852862 575.497131,187.941413 576.408594,186.574219 C577.502349,184.477854 578.049219,182.563811 578.049219,180.832031 L578.049219,180.148438 L577.775781,176.457031 C577.775781,170.805961 579.553107,163.787802 583.107813,155.402344 C584.657299,152.029931 586.616915,149.158866 588.986719,146.789062 C589.260158,146.60677 589.579165,145.832038 589.94375,144.464844 C590.217189,143.917966 590.672913,143.644531 591.310938,143.644531 C592.951571,143.826824 593.771875,144.555983 593.771875,145.832031 C593.771875,146.378909 592.860426,148.520815 591.0375,152.257812 C588.211965,158.000029 585.796625,163.605441 583.791406,169.074219 C581.057018,176.730507 579.689844,183.930956 579.689844,190.675781 C579.689844,195.962266 580.555721,201.476534 582.2875,207.21875 L582.424219,207.21875 C586.252363,207.127604 597.599906,202.98051 616.467188,194.777344 C626.402133,190.311176 633.511437,186.756524 637.795313,184.113281 C639.344799,182.928379 641.39556,181.743496 643.947656,180.558594 C648.322678,178.735668 651.87733,177.824219 654.611719,177.824219 L655.158594,177.824219 C656.708081,177.824219 657.80182,178.188798 658.439844,178.917969 C658.622136,179.282554 658.713281,179.692706 658.713281,180.148438 C658.348696,182.882826 658.166406,184.43229 658.166406,184.796875 L658.166406,185.34375 C658.166406,185.526043 658.257551,185.936195 658.439844,186.574219 C655.34087,188.032559 652.19637,190.037748 649.00625,192.589844 C648.368226,193.319014 648.049219,193.729166 648.049219,193.820312 C648.687243,193.820312 650.008844,193.364588 652.014063,192.453125 L656.115625,189.445312 C656.571356,189.080727 657.118226,188.76172 657.75625,188.488281 L657.75625,188.625 C657.665104,188.807293 657.619531,189.1263 657.619531,189.582031 C657.89297,191.860688 658.029688,193.136717 658.029688,193.410156 C657.756249,195.141936 655.340908,197.830711 650.783594,201.476562 C645.679402,205.304707 640.165134,208.631496 634.240625,211.457031 C629.318725,214.009127 623.713313,216.47004 617.424219,218.839844 L617.424219,217.609375 C615.874732,218.429692 614.051833,219.113279 611.955469,219.660156 C610.314836,220.115888 607.899495,220.434895 604.709375,220.617188 C602.157279,221.255212 600.197663,221.893226 598.830469,222.53125 C597.645567,223.442713 595.913813,224.171872 593.635156,224.71875 C586.616892,225.721359 580.920334,226.906243 576.545313,228.273438 C576.545313,228.364584 576.363023,228.410156 575.998438,228.410156 C571.532269,228.410156 567.977617,227.1797 565.334375,224.71875 C557.131209,218.33851 553.029688,208.494858 553.029688,195.1875 C553.029688,183.065044 556.40205,168.299566 563.146875,150.890625 L562.873438,150.890625 C561.141658,150.890625 559.637767,149.341161 558.361719,146.242188 C557.723695,145.057286 556.994535,142.869808 556.174219,139.679688 L555.764063,137.765625 C555.855209,135.760407 556.037499,133.755218 556.310938,131.75 L556.310938,131.613281 C556.310938,131.430989 556.35651,131.339844 556.447656,131.339844 L556.310938,131.066406 L556.310938,130.792969 C556.310938,129.881506 556.584372,128.377615 557.13125,126.28125 C557.222396,124.914056 557.541404,124.230469 558.088281,124.230469 C560.184646,123.410152 563.693725,122.407558 568.615625,121.222656 C570.894282,120.584632 572.033594,120.128908 572.033594,119.855469 L572.033594,119.582031 C572.033594,119.308592 571.486724,119.171875 570.392969,119.171875 L569.982813,119.171875 C569.162496,119.171875 567.157308,119.673172 563.967188,120.675781 C561.141653,121.404952 559.455471,121.769531 558.908594,121.769531 C558.726301,120.949215 558.635156,120.3112 558.635156,119.855469 C558.908595,118.761713 559.136457,118.214844 559.31875,118.214844 L560.002344,116.847656 C572.580532,113.839829 590.353791,110.239604 613.322656,106.046875 C620.523213,104.679681 626.629923,103.677087 631.642969,103.039062 L631.642969,102.902344 C624.442412,100.897125 614.051891,98.3450676 600.471094,95.2460938 C596.096072,94.061192 592.040123,92.9674529 588.303125,91.9648438 C587.300516,92.05599 586.434639,92.1015625 585.705469,92.1015625 L584.611719,92.1015625 C579.41638,92.1015625 575.360431,90.0052293 572.44375,85.8125 C570.711971,82.986965 569.709376,79.9791826 569.435938,76.7890625 C569.435938,76.0598922 568.797923,73.6901242 567.521875,69.6796875 C567.430729,69.3151023 567.339584,68.7226604 567.248438,67.9023438 C567.248438,66.4440031 568.068742,65.3958365 569.709375,64.7578125 C572.990641,63.2994719 580.054373,61.5677184 590.900781,59.5625 C601.929482,57.4661354 618.517858,55.3698021 640.666406,53.2734375 C655.06752,52.0885357 666.779642,51.4960938 675.803125,51.4960938 Z M611.81875,61.75 L611.81875,61.8867188 C611.81875,62.5247428 612.593482,62.84375 614.142969,62.84375 L614.416406,62.84375 C619.520598,62.3880186 625.536163,61.841149 632.463281,61.203125 C633.921622,60.8385398 635.379941,60.65625 636.838281,60.65625 C637.202866,60.65625 638.296605,60.7473949 640.119531,60.9296875 C640.484116,60.8385412 640.666406,60.6562514 640.666406,60.3828125 C640.666406,59.289057 639.344805,58.7421875 636.701563,58.7421875 L634.650781,58.7421875 C627.723663,58.7421875 620.614359,59.380202 613.322656,60.65625 C612.320047,60.9296889 611.81875,61.2942686 611.81875,61.75 Z M576.81875,68.4492188 C577.183335,69.4518279 578.049212,69.9986975 579.416406,70.0898438 C581.78621,70.0898438 584.20155,69.5429742 586.6625,68.4492188 C588.941157,67.5377559 592.769244,66.5807342 598.146875,65.578125 C602.704189,64.7578084 605.757544,64.028649 607.307031,63.390625 L607.307031,62.7070312 C607.033592,62.2512998 606.076571,62.0234375 604.435938,62.0234375 L603.615625,62.0234375 C602.977601,62.0234375 600.74455,62.4791621 596.916406,63.390625 C593.452847,64.1197953 589.032319,64.7122373 583.654688,65.1679688 C581.649469,65.259115 579.507563,65.942702 577.228906,67.21875 C576.955467,67.6744814 576.81875,68.0846336 576.81875,68.4492188 Z M595.549219,113.15625 C595.27578,113.338543 595.139063,113.611977 595.139063,113.976562 C595.230209,114.158855 595.412499,114.25 595.685938,114.25 L595.822656,114.25 C596.096095,114.25 596.232813,114.113283 596.232813,113.839844 L596.232813,113.703125 C596.232813,113.33854 596.00495,113.15625 595.549219,113.15625 Z M590.490625,115.070312 L590.490625,115.207031 C590.490625,115.571616 590.672915,115.753906 591.0375,115.753906 C591.402085,115.753906 591.67552,115.571616 591.857813,115.207031 C591.766666,114.7513 591.584376,114.523438 591.310938,114.523438 L591.0375,114.523438 C590.672915,114.523438 590.490625,114.705727 590.490625,115.070312 Z M585.56875,116.574219 C585.56875,116.847658 585.659895,117.029947 585.842188,117.121094 L586.115625,117.121094 C586.662503,117.121094 586.935938,116.802087 586.935938,116.164062 L586.935938,116.027344 C586.844791,115.753905 586.662501,115.617188 586.389063,115.617188 C585.842185,115.617188 585.56875,115.936195 585.56875,116.574219 Z M576.81875,119.582031 C576.81875,119.85547 577.092185,120.083332 577.639063,120.265625 L577.775781,120.265625 C578.869537,120.265625 580.236711,119.673183 581.877344,118.488281 C582.424221,117.941404 582.697656,117.440106 582.697656,116.984375 C582.424217,116.437497 582.150783,116.164062 581.877344,116.164062 C579.689833,116.802087 578.003652,117.850253 576.81875,119.308594 L576.81875,119.582031 Z M598.010156,139.816406 C598.101303,139.816406 598.283592,139.907551 598.557031,140.089844 C598.557031,141.274746 597.782299,142.231767 596.232813,142.960938 C595.777081,143.052084 595.321356,143.097656 594.865625,143.097656 L594.728906,143.097656 C594.182029,143.097656 593.908594,142.869794 593.908594,142.414062 L593.908594,142.140625 C593.908594,141.229162 595.047905,140.45443 597.326563,139.816406 L598.010156,139.816406 Z M644.221094,195.871094 C645.405996,195.779947 646.454162,195.27865 647.365625,194.367188 L647.365625,194.230469 C646.27187,194.230469 645.223703,194.777338 644.221094,195.871094 Z M635.744531,199.425781 L635.744531,199.5625 L636.838281,199.5625 C638.934646,199.5625 640.711972,198.605478 642.170313,196.691406 L641.623438,196.554688 C639.162488,196.554688 637.202872,197.511709 635.744531,199.425781 Z M633.967188,200.65625 L634.103906,200.65625 C634.924223,200.382811 635.334375,200.109376 635.334375,199.835938 L635.197656,199.835938 C634.741925,199.835938 634.331773,200.109372 633.967188,200.65625 Z M780.659844,53.9570312 C782.938501,55.4153719 785.444986,57.4661326 788.179375,60.109375 C791.187203,63.1172025 793.283536,65.7148328 794.468437,67.9023438 C795.926778,70.181001 797.06609,72.6419139 797.886406,75.2851562 C798.342138,76.470058 798.57,77.1992174 798.57,77.4726562 C798.023122,77.8372414 797.749687,78.2018211 797.749687,78.5664062 C798.023126,79.3867229 798.159844,80.0703098 798.159844,80.6171875 C798.159844,81.4375041 797.749692,83.2148301 796.929375,85.9492188 C796.291351,87.3164131 795.972344,88.5468695 795.972344,89.640625 C795.972344,90.3697953 796.382496,91.7369691 797.202812,93.7421875 C797.293959,94.1979189 797.339531,94.5624986 797.339531,94.8359375 C797.339531,95.5651078 796.610372,97.4791512 795.152031,100.578125 C793.602544,104.588562 792.508805,107.14062 791.870781,108.234375 C791.597342,108.872399 791.050473,109.328124 790.230156,109.601562 C789.40984,110.330733 788.635108,111.424472 787.905937,112.882812 C785.171549,116.61981 782.938498,120.402325 781.206719,124.230469 C780.477548,125.779956 777.925491,129.0156 773.550469,133.9375 L773.687187,133.9375 C776.056991,131.841135 778.609049,129.608085 781.343437,127.238281 L781.480156,127.238281 C776.922842,133.345083 770.77056,140.636676 763.023125,149.113281 C756.369446,156.131546 750.718461,161.736958 746.07,165.929688 L740.054375,171.398438 C747.80181,175.500021 757.599889,180.239556 769.448906,185.617188 C778.472389,189.809917 784.761388,193.136706 788.316094,195.597656 C788.954118,196.144534 789.911139,197.101556 791.187187,198.46875 C793.010113,199.835944 794.24057,201.522125 794.878594,203.527344 L795.015312,204.621094 C795.015312,208.175799 791.460661,210.727857 784.35125,212.277344 C781.799154,211.274735 779.247096,210.089851 776.695,208.722656 L768.628594,204.210938 C765.711912,202.479158 762.476268,200.29168 758.921562,197.648438 C758.556977,197.283852 757.326521,196.828128 755.230156,196.28125 C753.042645,195.369787 749.077841,193.501316 743.335625,190.675781 C741.603846,189.855465 740.646824,189.445312 740.464531,189.445312 L740.327812,189.445312 C740.236666,189.445312 740.054376,189.536457 739.780937,189.71875 C739.96323,190.44792 740.282237,190.949217 740.737969,191.222656 C745.112991,193.683606 749.806954,196.554671 754.82,199.835938 C758.648144,202.205741 762.977528,204.347647 767.808281,206.261719 C771.089548,207.811206 774.234047,209.497387 777.241875,211.320312 C778.33563,212.049483 779.338225,212.73307 780.249687,213.371094 L778.472344,214.054688 C777.014003,214.692712 776.056981,215.604161 775.60125,216.789062 C775.327811,217.153648 775.054376,217.335938 774.780937,217.335938 L774.370781,217.335938 C773.459318,217.335938 770.724971,215.968764 766.167656,213.234375 C760.607733,209.953109 754.182016,206.990899 746.890312,204.347656 C742.150705,202.707023 736.454148,201.111987 729.800469,199.5625 C718.498329,196.281234 709.064829,193.683603 701.499687,191.769531 L701.362969,191.769531 C700.542652,192.225263 699.58563,192.90885 698.491875,193.820312 C698.309582,193.820312 697.990575,194.731762 697.534844,196.554688 C694.618162,206.30734 693.159844,212.277333 693.159844,214.464844 L693.159844,214.601562 C693.159844,215.421879 693.615568,218.065082 694.527031,222.53125 C694.891616,224.809907 695.073906,226.587233 695.073906,227.863281 C695.073906,230.324231 694.435892,232.147129 693.159844,233.332031 C692.704112,234.152348 691.92938,234.5625 690.835625,234.5625 L690.28875,234.5625 C687.736654,234.5625 684.683299,233.878913 681.128594,232.511719 C679.123375,231.600256 677.300477,230.506517 675.659844,229.230469 C670.373359,224.946593 667.730156,219.250036 667.730156,212.140625 C667.730156,207.492164 668.641605,200.018281 670.464531,189.71875 C673.016627,176.502538 676.388989,162.329503 680.581719,147.199219 C683.042669,138.358029 687.599915,123.136827 694.253594,101.535156 C697.079129,91.5090645 699.540042,81.8932752 701.636406,72.6875 C701.636406,72.5963537 701.681979,72.3229189 701.773125,71.8671875 L701.636406,71.8671875 C698.628579,72.8697967 696.122093,73.3710938 694.116875,73.3710938 C689.559561,73.3710938 686.597351,70.9557533 685.230156,66.125 C685.230156,65.7604148 684.455424,64.3020961 682.905937,61.75 C682.541352,60.8385371 682.359062,60.1093777 682.359062,59.5625 L682.359062,59.2890625 C682.359062,58.8333311 682.541352,58.5143238 682.905937,58.3320312 C690.653372,53.5924242 696.987944,50.7213592 701.909844,49.71875 C704.826525,48.9895797 708.107742,48.625 711.753594,48.625 C714.487982,48.3515611 716.356453,48.0325539 717.359062,47.6679687 C718.088233,47.3033836 718.498385,47.0755213 718.589531,46.984375 C717.586922,46.8932287 716.310893,46.8476562 714.761406,46.8476562 L712.984062,46.8476562 C710.887698,46.8476562 708.836937,47.1666635 706.831719,47.8046875 L699.722344,49.171875 C697.35254,49.7187527 695.073917,50.4934846 692.886406,51.4960937 C692.521821,51.6783863 691.473654,51.9973936 689.741875,52.453125 C688.192388,53.0000027 686.1872,53.9570244 683.72625,55.3242187 C683.72625,55.415365 683.680678,55.4609375 683.589531,55.4609375 L683.452812,55.4609375 L683.316094,55.3242187 C683.680679,54.6861947 684.409838,54.0026078 685.503594,53.2734375 C687.417666,51.9973895 689.422854,50.8125055 691.519219,49.71875 C695.620802,47.6223854 700.360338,46.0273492 705.737969,44.9335937 C710.842161,43.9309846 721.414972,43.5436187 737.456719,43.7714844 C753.498466,43.9993501 767.899363,47.3944984 780.659844,53.9570312 Z M706.148125,63.8007812 C706.148125,64.2565127 706.330415,64.484375 706.695,64.484375 C706.968439,64.484375 707.105156,64.3020852 707.105156,63.9375 C707.01401,63.5729148 706.968437,63.3450525 706.968437,63.2539062 L706.284844,63.2539062 C706.193697,63.3450525 706.148125,63.5273424 706.148125,63.8007812 Z M730.7575,70.7734375 L730.894219,71.1835938 L730.894219,72.140625 C730.894219,72.5963564 730.438494,74.236965 729.527031,77.0625 C729.253592,77.7916703 729.02573,79.5234238 728.843437,82.2578125 C728.387706,85.0833475 728.068699,86.6328111 727.886406,86.90625 C725.881188,88.3645906 724.605159,90.0507717 724.058281,91.9648438 C723.784842,93.2408918 723.1924,95.0182178 722.280937,97.296875 C722.007499,98.0260453 721.642919,99.4843641 721.187187,101.671875 C718.726238,110.421919 717.495781,115.936187 717.495781,118.214844 L717.495781,118.898438 C717.495781,119.536462 717.632499,119.855469 717.905937,119.855469 C718.452815,119.855469 719.637699,117.257838 721.460625,112.0625 C722.463234,109.328111 723.283538,106.912771 723.921562,104.816406 L724.058281,104.816406 C718.224919,127.876417 712.938513,147.153568 708.198906,162.648438 C712.756221,159.549464 717.860336,155.630232 723.511406,150.890625 C726.701526,148.338529 731.122055,144.237007 736.773125,138.585938 C743.244512,131.932258 747.66504,126.96486 750.034844,123.683594 C761.063545,109.738212 766.577812,98.0716615 766.577812,88.6835938 C766.577812,79.0220871 754.637828,73.0520947 730.7575,70.7734375 Z M793.921562,75.5585938 C794.650733,79.6601768 795.015312,81.75651 795.015312,81.8476562 C795.197605,80.7539008 795.334322,79.7513066 795.425469,78.8398438 C795.425469,77.9283809 795.015317,76.9713592 794.195,75.96875 C794.195,75.96875 794.103855,75.8320326 793.921562,75.5585938 Z M676.890312,180.96875 C676.890312,181.242189 677.346037,181.470051 678.2575,181.652344 C678.98667,180.832027 679.579112,179.783861 680.034844,178.507812 C682.860379,170.395793 686.77961,155.90375 691.792656,135.03125 C695.165069,123.182232 698.583004,109.419349 702.046562,93.7421875 C702.59344,92.2838469 703.3226,90.4609484 704.234062,88.2734375 C705.054379,85.6301951 705.464531,83.8072967 705.464531,82.8046875 L705.464531,82.6679688 C705.373385,81.5742133 704.963233,81.0273438 704.234062,81.0273438 L703.960625,81.0273438 C703.231455,81.0273438 702.730158,81.7565031 702.456719,83.2148438 C702.456719,83.3971363 701.955422,84.9466 700.952812,87.8632812 L699.175469,96.3398438 C689.513962,131.613458 682.541376,157.908768 678.2575,175.226562 C677.892915,176.411464 677.43719,178.325508 676.890312,180.96875 Z M794.468437,84.4453125 C794.559584,84.7187514 794.696301,84.8554688 794.878594,84.8554688 C795.152033,84.7643225 795.28875,84.6731775 795.28875,84.5820312 L795.28875,84.3085938 C795.28875,83.9440086 795.197605,83.3971391 795.015312,82.6679688 C794.83302,82.6679688 794.65073,83.1692658 794.468437,84.171875 C794.468437,84.171875 794.468437,84.2630199 794.468437,84.4453125 Z M757.144219,144.875 C756.232756,145.239585 755.412452,145.69531 754.683281,146.242188 C753.680672,147.15365 753.08823,148.019527 752.905937,148.839844 C753.179376,150.024746 753.589529,150.617188 754.136406,150.617188 L754.273125,150.617188 C754.911149,150.617188 755.321301,150.434898 755.503594,150.070312 C756.688496,148.885411 757.417655,147.746099 757.691094,146.652344 C757.964533,146.01432 758.237967,145.695312 758.511406,145.695312 C759.969747,145.148435 761.428066,143.781261 762.886406,141.59375 C762.977553,141.59375 764.344726,139.953141 766.987969,136.671875 C770.360381,133.755194 772.36557,131.704433 773.003594,130.519531 C774.279642,128.605459 775.965823,126.281264 778.062187,123.546875 C779.155943,121.815096 780.20411,119.901052 781.206719,117.804688 C781.206719,117.440102 781.662443,116.528653 782.573906,115.070312 C783.394223,113.885411 784.305672,111.697933 785.308281,108.507812 C786.31089,105.1354 787.495774,102.127617 788.862969,99.484375 C789.865578,96.1119623 790.366875,93.8333393 790.366875,92.6484375 L790.230156,92.6484375 C790.047864,92.6484375 789.637712,92.5572926 788.999687,92.375 C788.726249,92.375 788.543959,92.967442 788.452812,94.1523438 C788.27052,94.5169289 788.08823,95.519523 787.905937,97.1601562 C786.356451,100.806008 783.75882,106.274703 780.112969,113.566406 C777.196287,119.308622 775.099954,123.227854 773.823906,125.324219 C771.454103,126.144535 769.631204,127.693999 768.355156,129.972656 C767.53484,131.339851 765.848659,133.345039 763.296562,135.988281 C762.020514,137.264329 760.926775,138.130206 760.015312,138.585938 C758.10124,140.317717 757.144219,142.41405 757.144219,144.875 Z M793.784844,92.6484375 C793.784844,92.8307301 793.693699,93.0585924 793.511406,93.3320312 L793.648125,93.3320312 L793.921562,92.6484375 L793.784844,92.6484375 Z M793.10125,94.6992188 C792.736665,95.2460965 792.28094,96.6132703 791.734062,98.8007812 C791.369477,100.167976 790.68589,102.309881 789.683281,105.226562 C790.047866,105.226562 790.412446,104.770838 790.777031,103.859375 C792.326518,101.216133 793.10125,98.6640748 793.10125,96.203125 L793.10125,94.6992188 Z M723.921562,104.542969 L724.058281,104.542969 L724.058281,104.679688 L723.921562,104.679688 L723.921562,104.542969 Z M783.530937,116.027344 C783.530937,116.209636 783.57651,116.300781 783.667656,116.300781 L783.804375,116.300781 L783.804375,115.890625 C783.622082,115.981771 783.530937,116.027344 783.530937,116.027344 Z M678.120781,184.796875 C676.753587,187.440117 676.07,189.673168 676.07,191.496094 L675.933281,194.09375 C676.115574,194.184896 676.206719,194.276041 676.206719,194.367188 C676.297865,194.367188 676.434582,193.911463 676.616875,193 C677.71063,189.992172 678.2575,187.34897 678.2575,185.070312 L678.2575,184.796875 L678.120781,184.796875 Z M708.198906,188.761719 C707.196297,189.855474 706.421565,190.493489 705.874687,190.675781 C709.976271,191.587244 713.075198,192.453121 715.171562,193.273438 C715.445001,193.273438 717.222327,193.957024 720.503594,195.324219 L720.503594,195.1875 C720.503594,194.002598 719.956724,193.227866 718.862969,192.863281 C715.946287,191.313794 713.120795,190.12891 710.386406,189.308594 C709.657236,189.035155 708.928077,188.852865 708.198906,188.761719 Z M899.598594,28.6640625 C906.981443,29.1197939 910.672812,29.4843736 910.672812,29.7578125 C912.131153,30.2135439 913.316037,31.1249932 914.2275,32.4921875 C915.776987,34.6796984 916.551719,37.9153432 916.551719,42.1992188 C916.551719,45.1159 916.232712,48.1236824 915.594687,51.2226562 C912.769153,57.8763354 910.490529,63.6184654 908.75875,68.4492188 C906.2978,75.8320682 903.88246,84.1718285 901.512656,93.46875 C901.239217,96.4765775 900.874638,98.5273383 900.418906,99.6210938 C899.234004,101.626312 897.730113,102.628906 895.907187,102.628906 C895.724895,102.628906 895.26917,102.537761 894.54,102.355469 C894.266561,102.446615 894.084271,102.492188 893.993125,102.492188 L897.274375,83.2148438 L897.274375,83.078125 C895.907181,87.179708 894.266572,93.5142801 892.3525,102.082031 L892.215781,102.21875 C889.025661,102.21875 886.838183,100.897149 885.653281,98.2539062 C885.015257,97.3424434 884.33167,96.4765666 883.6025,95.65625 C882.87333,94.1067631 882.50875,91.0534082 882.50875,86.4960938 C882.50875,80.2069998 883.05562,72.3685365 884.149375,62.9804688 C875.490478,68.6315387 867.606442,74.2369514 860.497031,79.796875 C854.845961,84.0807506 847.508795,90.4153227 838.485312,98.8007812 L837.938437,98.6640625 L837.391562,98.6640625 C837.118124,98.6640625 836.890261,98.8463523 836.707969,99.2109375 L836.844687,100.304688 C834.292591,102.674491 831.330381,105.545556 827.957969,108.917969 C831.694967,112.56382 834.429314,114.888016 836.161094,115.890625 C839.715799,117.895843 842.860299,119.901032 845.594687,121.90625 C848.329076,123.820322 851.655866,126.37238 855.575156,129.5625 C861.408519,134.393253 864.598591,137.082029 865.145469,137.628906 C865.965785,139.269539 867.788684,141.730452 870.614219,145.011719 C871.252243,145.649743 872.756134,147.518214 875.125937,150.617188 C876.401986,151.984382 877.678014,153.943998 878.954062,156.496094 C879.045209,156.496094 879.455361,157.179681 880.184531,158.546875 L880.32125,158.546875 C877.678008,152.986951 876.356406,150.161459 876.356406,150.070312 C878.635063,153.169286 880.366817,155.949206 881.551719,158.410156 C885.015278,165.428421 886.747031,172.218717 886.747031,178.78125 L886.747031,180.832031 L886.610312,180.832031 C886.519166,180.467446 886.291304,180.011721 885.926719,179.464844 C885.926719,179.829429 885.470994,180.467443 884.559531,181.378906 C884.286092,181.378906 883.921513,182.700508 883.465781,185.34375 C883.192342,186.255213 883.055625,187.759104 883.055625,189.855469 C882.69104,193.227881 882.280888,195.506504 881.825156,196.691406 C881.642864,197.694015 881.551719,199.015617 881.551719,200.65625 C881.369426,201.567713 880.640267,202.752597 879.364219,204.210938 C879.09078,205.1224 877.541316,207.264306 874.715781,210.636719 L875.125937,211.046875 C871.297793,214.60158 867.879859,217.427073 864.872031,219.523438 C857.306889,225.083361 851.974911,228.136716 848.875937,228.683594 C847.053012,229.048179 845.776983,229.230469 845.047812,229.230469 L844.500937,227.589844 C843.589475,228.045575 842.814743,228.31901 842.176719,228.410156 L841.903281,228.957031 C842.723598,229.139324 843.49833,229.230469 844.2275,229.230469 L844.2275,229.367188 C843.954061,229.367188 842.222308,230.233064 839.032187,231.964844 C838.303017,232.511721 835.0218,233.559888 829.188437,235.109375 C825.816025,235.838545 823.081677,236.203125 820.985312,236.203125 L820.575156,236.203125 C819.481401,236.203125 818.433234,236.066408 817.430625,235.792969 C815.698846,236.066408 814.194954,236.203125 812.918906,236.203125 L812.645469,236.203125 C806.356375,236.203125 801.206687,231.554734 797.19625,222.257812 C796.284787,219.61457 795.464483,216.83465 794.735312,213.917969 C793.914996,209.907532 793.504844,207.082039 793.504844,205.441406 L793.641562,205.441406 C796.64939,207.446625 800.295187,208.449219 804.579062,208.449219 C811.961912,208.449219 820.575107,205.760444 830.418906,200.382812 C833.244441,198.833326 836.388941,196.782565 839.8525,194.230469 C844.683253,190.220032 848.967065,186.437518 852.704062,182.882812 C852.704062,182.791666 853.250932,182.153652 854.344687,180.96875 C857.443661,177.505191 859.494422,174.315119 860.497031,171.398438 C861.135055,169.757804 861.454062,167.980478 861.454062,166.066406 C861.362916,165.24609 861.317344,164.653648 861.317344,164.289062 C859.494418,161.098942 858.263962,159.093754 857.625937,158.273438 C855.073841,156.085927 852.476211,154.263028 849.832969,152.804688 C848.283482,151.893225 842.678069,148.612007 833.016562,142.960938 C828.550394,140.226549 824.676735,137.583346 821.395469,135.03125 C814.74179,129.835912 811.05042,125.460955 810.32125,121.90625 L809.911094,119.308594 C807.085559,116.847644 805.308233,114.933601 804.579062,113.566406 C803.211868,111.470042 802.528281,109.009129 802.528281,106.183594 C802.528281,98.071574 803.485303,92.238299 805.399375,88.6835938 C806.675423,85.4934736 809.500916,81.4830971 813.875937,76.6523438 C815.972302,74.3736865 817.749628,72.6875055 819.207969,71.59375 C825.861648,66.4895578 832.879807,61.7500219 840.262656,57.375 C850.835626,50.8124672 860.679277,45.3893443 869.793906,41.1054688 C873.257465,39.5559818 876.49311,38.2799529 879.500937,37.2773438 C881.961887,36.5481734 884.4228,36.1835938 886.88375,36.1835938 C888.433237,36.1835938 890.119418,36.3203111 891.942344,36.59375 C892.215783,34.8619705 892.671507,33.3125068 893.309531,31.9453125 C894.038702,30.5781182 895.041296,29.6666689 896.317344,29.2109375 C897.411099,28.8463523 898.504844,28.6640625 899.598594,28.6640625 Z M861.864219,49.5820312 C861.955365,50.2200553 862.2288,50.5390625 862.684531,50.5390625 C866.877261,48.7161367 869.429318,47.257818 870.340781,46.1640625 L870.4775,46.0273438 C870.112915,45.6627586 869.885053,45.4804688 869.793906,45.4804688 C866.694932,46.3919316 864.05173,47.7591055 861.864219,49.5820312 Z M858.44625,51.0859375 L859.403281,50.6757812 L859.403281,50.4023438 C859.403281,50.3111975 859.312136,50.265625 859.129844,50.265625 C858.765259,50.265625 858.537396,50.5390598 858.44625,51.0859375 Z M815.379844,85.6757812 C816.473599,85.6757812 817.521766,85.1744842 818.524375,84.171875 C818.706668,83.9895824 819.572544,82.8502709 821.122031,80.7539062 C826.955394,75.01169 831.603785,70.8190236 835.067344,68.1757812 C839.351219,64.8033686 843.042589,62.1601658 846.141562,60.2460938 C848.784805,58.8788994 852.339457,56.2812691 856.805625,52.453125 L857.899375,51.359375 L857.3525,51.359375 C856.076452,51.359375 854.709278,51.9973895 853.250937,53.2734375 C846.414966,57.2838742 839.624669,61.8866928 832.879844,67.0820312 C831.512649,68.3580793 830.191048,69.5885357 828.915,70.7734375 C826.909782,72.3229244 825.132456,73.8268156 823.582969,75.2851562 C820.757434,78.0195449 818.706673,80.298168 817.430625,82.1210938 C815.972284,84.3086047 815.243125,85.4934887 815.243125,85.6757812 L815.379844,85.6757812 Z M895.770469,99.7578125 C897.137663,99.6666662 897.82125,99.5755213 897.82125,99.484375 C897.82125,99.3932287 897.957967,98.8463592 898.231406,97.84375 L897.957969,97.7070312 C897.775676,97.7070312 897.092089,98.2994732 895.907187,99.484375 C895.907187,99.484375 895.861615,99.5755199 895.770469,99.7578125 Z M849.69625,134.074219 C852.248346,136.170583 854.572542,137.40104 856.668906,137.765625 C855.757443,136.216138 854.20798,135.122399 852.020469,134.484375 C850.926713,134.210936 850.151981,134.074219 849.69625,134.074219 Z M857.079062,138.039062 C857.079062,138.859379 857.58036,139.588538 858.582969,140.226562 C862.775698,144.236999 865.191038,146.789057 865.829062,147.882812 C868.290012,150.799494 870.340773,153.670559 871.981406,156.496094 C873.622039,159.595068 874.715779,161.372394 875.262656,161.828125 C875.627241,162.19271 876.219683,162.466145 877.04,162.648438 C877.04,161.828121 876.720993,160.825527 876.082969,159.640625 C874.07775,155.721335 871.206685,151.528668 867.469687,147.0625 C863.73269,142.869771 861.135059,140.317713 859.676719,139.40625 C859.129841,139.041665 858.263964,138.58594 857.079062,138.039062 Z M857.762656,216.652344 C857.762656,217.290368 858.081663,217.70052 858.719687,217.882812 C858.993126,218.065105 859.220989,218.15625 859.403281,218.15625 C862.775694,216.515617 866.239201,214.373711 869.793906,211.730469 C874.62466,207.811178 877.814732,203.846374 879.364219,199.835938 C878.999634,199.471352 878.589481,199.106773 878.13375,198.742188 L877.997031,198.742188 C875.536081,201.38543 871.844712,205.167944 866.922812,210.089844 C865.464472,211.639331 863.687146,212.960932 861.590781,214.054688 C860.132441,214.96615 858.901984,215.786455 857.899375,216.515625 L857.762656,216.652344 Z M1024.55297,34.5429688 C1026.64933,34.5429688 1029.5204,36.4570121 1033.16625,40.2851562 C1036.99439,44.933617 1039.36416,49.2174283 1040.27563,53.1367188 C1040.54906,54.2304742 1040.68578,55.3242133 1040.68578,56.4179688 C1040.68578,57.3294316 1040.00219,61.0663734 1038.635,67.6289062 C1033.34852,92.9675746 1029.566,112.108008 1027.28734,125.050781 C1022.91232,149.477987 1019.67668,166.294225 1017.58031,175.5 C1014.57248,187.166725 1010.37982,206.170441 1005.00219,232.511719 C1003.90843,238.800813 1002.67798,243.813783 1001.31078,247.550781 C999.487855,252.290388 997.710529,254.660156 995.97875,254.660156 C994.611556,254.56901 992.788657,253.611988 990.51,251.789062 C989.142806,250.421868 987.137617,248.279962 984.494375,245.363281 C982.580303,243.540355 980.620687,242.264327 978.615469,241.535156 C976.792543,240.623693 975.789949,239.848962 975.607656,239.210938 C975.060779,238.117182 974.787344,236.522146 974.787344,234.425781 C974.787344,231.5091 978.250851,214.920724 985.177969,184.660156 C988.185796,171.626237 990.601137,159.731825 992.424063,148.976562 C992.515209,148.338538 992.788644,146.834647 993.244375,144.464844 C974.012508,146.561208 961.662371,147.973955 956.193594,148.703125 C950.998255,149.705734 947.671466,150.207031 946.213125,150.207031 L943.888906,150.207031 C941.610249,150.207031 938.875901,150.070314 935.685781,149.796875 C934.592026,156.997432 933.315997,163.058569 931.857656,167.980469 C930.217023,173.449246 928.804277,178.735652 927.619375,183.839844 C926.52562,189.58206 925.705315,193.546864 925.158438,195.734375 C924.246975,198.377617 923.198808,200.701813 922.013906,202.707031 C918.459201,208.266955 914.539969,211.046875 910.256094,211.046875 L910.119375,211.046875 C907.476133,211.046875 904.83293,209.953136 902.189688,207.765625 C899.364153,206.033846 896.812095,205.167969 894.533438,205.167969 C893.621975,204.89453 893.16625,204.575523 893.16625,204.210938 C892.710519,203.481767 892.482656,201.567724 892.482656,198.46875 C892.482656,193.820289 894.442272,185.161522 898.361563,172.492188 C900.275635,166.385386 901.642808,160.962263 902.463125,156.222656 C904.55949,146.287711 907.612845,133.253987 911.623281,117.121094 C912.079013,116.209631 912.443592,114.70574 912.717031,112.609375 C913.993079,107.505183 915.405826,101.671908 916.955313,95.109375 L917.092031,95.109375 L915.588125,116.574219 C915.588125,117.485682 915.724842,118.214841 915.998281,118.761719 C914.448794,124.595081 912.398034,132.068965 909.845938,141.183594 C908.387597,147.108103 906.792561,153.807254 905.060781,161.28125 C904.058172,165.109394 903.556875,167.661452 903.556875,168.9375 C903.556875,170.304694 904.240462,171.444006 905.607656,172.355469 C907.339436,171.444006 908.205313,169.393245 908.205313,166.203125 C908.205313,160.734348 909.526914,154.764355 912.170156,148.292969 C913.719643,143.553362 915.132389,137.355507 916.408438,129.699219 C918.049071,121.769492 919.917542,113.839883 922.013906,105.910156 C924.839441,94.152285 927.300354,82.2123002 929.396719,70.0898438 C929.579011,68.5403568 929.670156,67.0364656 929.670156,65.578125 C929.670156,62.2057123 929.077714,58.7877777 927.892813,55.3242188 L926.935781,63.2539062 L926.799063,63.2539062 C926.161038,62.0690045 925.842031,60.838548 925.842031,59.5625 L925.842031,59.015625 C925.842031,57.2838455 926.616763,54.4127805 928.16625,50.4023438 C928.530835,49.0351494 928.895415,47.0299611 929.26,44.3867188 C929.442293,43.4752559 929.57901,43.0195312 929.670156,43.0195312 C931.766521,43.9309941 933.452702,44.3867188 934.72875,44.3867188 C934.72875,44.477865 936.688366,44.5234375 940.607656,44.5234375 C941.792558,44.5234375 943.159732,44.8880172 944.709219,45.6171875 C946.076413,46.3463578 947.12458,47.9869664 947.85375,50.5390625 C949.220944,55.3698158 949.904531,59.2890475 949.904531,62.296875 C949.904531,64.7578248 949.038654,70.3632375 947.306875,79.1132812 C945.392803,89.9596896 942.93189,104.679595 939.924063,123.273438 L955.783438,120.402344 C965.900676,119.673173 974.286008,118.852869 980.939688,117.941406 C985.770441,117.212236 989.370665,116.391932 991.740469,115.480469 C992.013908,115.298176 993.062074,114.933596 994.885,114.386719 C993.973537,115.024743 993.153233,115.662757 992.424063,116.300781 C992.059477,116.665366 991.831615,117.257808 991.740469,118.078125 C992.013908,118.989588 992.469632,119.445312 993.107656,119.445312 C994.474851,119.171874 996.115459,118.351569 998.029531,116.984375 C999.579018,115.708327 1000.35375,114.84245 1000.35375,114.386719 L1000.35375,114.25 C1000.35375,113.885415 999.943598,113.61198 999.123281,113.429688 L998.986563,113.15625 C999.53344,113.065104 999.806875,112.837241 999.806875,112.472656 C1002.997,97.1600797 1004.81989,88.5468846 1005.27563,86.6328125 C1006.73397,85.1744719 1007.46313,84.2174502 1007.46313,83.7617188 C1010.37981,71.2746771 1011.92927,64.3932355 1012.11156,63.1171875 C1012.11156,62.6614561 1012.20271,61.8867242 1012.385,60.7929688 L1012.385,60.65625 L1012.24828,60.65625 L1008.69359,70.3632812 L1008.55688,70.3632812 C1011.01782,58.1496785 1012.24828,49.1719037 1012.24828,43.4296875 C1012.24828,42.8828098 1012.15714,41.3333461 1011.97484,38.78125 C1011.97484,36.8671779 1012.88629,35.6367215 1014.70922,35.0898438 C1014.70922,34.9075512 1017.99044,34.7252613 1024.55297,34.5429688 Z M926.525625,64.8945312 L926.662344,64.8945312 C925.477442,73.0976973 923.882406,82.3033344 921.877188,92.5117188 L921.740469,92.5117188 L921.740469,89.9140625 C921.740469,84.718724 922.515201,79.9336156 924.064688,75.5585938 C924.611565,73.5533754 924.885,71.8216219 924.885,70.3632812 C924.885,69.9075498 924.748283,68.9505281 924.474844,67.4921875 C924.474844,67.0364561 925.158431,66.1705793 926.525625,64.8945312 Z M1023.45922,81.1640625 C1022.73005,86.2682547 1022.00089,94.0611455 1021.27172,104.542969 C1020.72484,108.371113 1019.85896,111.697903 1018.67406,114.523438 C1017.67145,118.898459 1017.17016,122.589829 1017.17016,125.597656 C1017.17016,125.871095 1017.21573,127.329414 1017.30688,129.972656 C1015.3928,140.819065 1014.16235,148.611955 1013.61547,153.351562 L1013.61547,153.625 C1013.88891,154.080731 1014.11677,154.308594 1014.29906,154.308594 C1014.93709,154.308594 1015.43838,153.078137 1015.80297,150.617188 C1017.99048,140.864535 1019.31208,134.66668 1019.76781,132.023438 C1020.31469,129.835927 1020.99828,128.013028 1021.81859,126.554688 C1022.27433,125.916663 1022.50219,125.460939 1022.50219,125.1875 L1022.50219,124.777344 C1021.95531,123.136711 1021.68188,121.496102 1021.68188,119.855469 C1022.04646,114.113253 1022.36547,110.285166 1022.63891,108.371094 C1023.45922,104.725242 1024.37067,101.71746 1025.37328,99.3476562 C1025.92016,98.3450471 1026.19359,97.7070326 1026.19359,97.4335938 L1026.19359,97.296875 C1026.19359,96.9322898 1025.92016,96.4309928 1025.37328,95.7929688 C1024.8264,94.8815059 1024.55297,93.9700566 1024.55297,93.0585938 C1024.55297,92.6940086 1024.59854,91.0989725 1024.68969,88.2734375 C1024.50739,84.0807082 1024.32511,81.984375 1024.14281,81.984375 C1023.77823,81.4374973 1023.55037,81.1640625 1023.45922,81.1640625 Z M985.177969,119.445312 C985.360261,119.99219 985.633696,120.265625 985.998281,120.265625 L986.271719,120.265625 C987.092035,120.174479 987.502188,119.764327 987.502188,119.035156 C987.502188,118.397132 987.18318,118.078125 986.545156,118.078125 C985.633693,118.078125 985.177969,118.53385 985.177969,119.445312 Z M976.838125,121.359375 C977.476149,121.450521 978.023019,121.496094 978.47875,121.496094 L978.888906,121.496094 C980.529539,121.496094 982.033431,120.903652 983.400625,119.71875 C982.671455,119.536457 982.03344,119.445312 981.486563,119.445312 L981.213125,119.445312 C979.481346,119.445312 978.023027,120.083327 976.838125,121.359375 Z M963.439688,123.957031 L963.439688,124.09375 L966.584219,124.09375 C967.951413,124.09375 969.592022,123.957033 971.506094,123.683594 C971.59724,123.957033 971.870675,124.09375 972.326406,124.09375 C972.599845,124.09375 972.827707,123.820315 973.01,123.273438 C974.103755,122.908852 975.197495,122.270838 976.29125,121.359375 C975.56208,121.268229 974.696203,121.222656 973.693594,121.222656 C970.321181,121.222656 966.903246,122.134105 963.439688,123.957031 Z M976.564688,121.222656 L976.564688,121.359375 L976.701406,121.359375 L976.701406,121.222656 L976.564688,121.222656 Z M939.787344,126.828125 L939.787344,126.964844 C941.427977,127.238283 943.068586,127.375 944.709219,127.375 L945.119375,127.375 C947.124593,127.375 949.995658,127.055993 953.732656,126.417969 C957.743093,126.235676 960.021716,125.871096 960.568594,125.324219 C960.842033,125.324219 961.571192,124.959639 962.756094,124.230469 L960.568594,124.230469 C954.006061,124.230469 947.079047,125.096346 939.787344,126.828125 Z M935.275625,127.511719 C935.913649,127.602865 936.323801,127.648438 936.506094,127.648438 C937.417557,127.648438 938.146716,127.420575 938.693594,126.964844 C938.237862,126.782551 937.782138,126.691406 937.326406,126.691406 L937.189688,126.691406 C936.64281,126.691406 936.004795,126.964841 935.275625,127.511719 Z M938.967031,126.964844 L938.967031,127.101562 C939.058178,127.010416 939.194895,126.964844 939.377188,126.964844 L938.967031,126.964844 Z M1003.49828,174.132812 L1003.49828,175.089844 C1003.77172,175.363283 1003.95401,175.5 1004.04516,175.5 C1004.50089,175.226561 1004.72875,174.725264 1004.72875,173.996094 C1004.72875,173.813801 1004.63761,173.540366 1004.45531,173.175781 C1003.81729,173.175781 1003.49828,173.494788 1003.49828,174.132812 Z M1007.18969,180.011719 L1007.18969,181.789062 C1007.18969,182.609379 1006.64282,184.158843 1005.54906,186.4375 C1005.00218,187.531255 1004.59203,189.673161 1004.31859,192.863281 C1003.95401,194.595061 1003.45271,196.007807 1002.81469,197.101562 C1002.90583,198.013025 1002.95141,198.65104 1002.95141,199.015625 L1002.95141,199.425781 C1002.95141,200.519537 1002.58683,202.069 1001.85766,204.074219 C1001.12849,206.808607 999.989174,212.733027 998.439688,221.847656 C996.707908,229.959676 994.976154,237.43356 993.244375,244.269531 L993.244375,244.816406 C993.335521,245.636723 993.700101,246.046875 994.338125,246.046875 C995.523027,246.046875 996.434476,243.494817 997.0725,238.390625 C998.895426,228.637972 1000.85504,219.88806 1002.95141,212.140625 C1005.04777,203.846313 1006.09594,198.970059 1006.09594,197.511719 C1006.55167,195.324208 1007.09854,193.546882 1007.73656,192.179688 C1008.55688,189.354153 1009.42276,185.252631 1010.33422,179.875 C1010.78995,177.687489 1011.01781,176.457033 1011.01781,176.183594 L1011.01781,174.816406 C1011.01781,173.99609 1010.78995,173.585938 1010.33422,173.585938 L1010.06078,173.585938 C1009.5139,173.585938 1009.05818,174.087235 1008.69359,175.089844 C1007.69098,176.91277 1007.18969,178.553378 1007.18969,180.011719 Z M896.994375,185.34375 C896.994375,185.981774 897.4501,186.665361 898.361563,187.394531 L898.361563,187.667969 C897.632392,190.58465 897.267813,193.273425 897.267813,195.734375 C897.267813,196.645838 897.03995,198.286446 896.584219,200.65625 L896.584219,200.929688 C896.584219,202.023443 896.857654,202.752602 897.404531,203.117188 L897.951406,203.253906 C898.954015,203.253906 899.819892,201.886732 900.549063,199.152344 C901.369379,196.600248 901.779531,194.093762 901.779531,191.632812 C901.779531,190.630203 902.326401,188.35158 903.420156,184.796875 C904.149327,183.338534 904.513906,181.424491 904.513906,179.054688 C904.513906,176.04686 903.921464,174.542969 902.736563,174.542969 C901.369368,174.542969 900.366774,176.593729 899.72875,180.695312 C899.455311,181.789068 898.862869,182.791662 897.951406,183.703125 C897.404529,184.341149 897.085521,184.888019 896.994375,185.34375 Z M903.146719,179.191406 C903.60245,179.191406 903.875885,179.510413 903.967031,180.148438 C903.967031,180.513023 903.693596,180.740885 903.146719,180.832031 L902.873281,180.832031 C902.326404,180.649739 902.052969,180.330731 902.052969,179.875 C902.052969,179.510415 902.417548,179.282553 903.146719,179.191406 Z M1091.67531,13.4882812 C1093.95397,13.4882812 1095.45786,13.761716 1096.18703,14.3085938 C1092.54118,16.9518361 1089.57897,18.8658795 1087.30031,20.0507812 C1083.28988,22.0559996 1080.19095,23.9244705 1078.00344,25.65625 C1075.3602,28.0260535 1073.62844,29.8945244 1072.80812,31.2617188 C1071.53208,32.9934982 1070.30162,34.8619691 1069.11672,36.8671875 C1067.29379,38.6901133 1066.15448,40.3762943 1065.69875,41.9257812 C1065.69875,42.1992201 1065.33417,42.882807 1064.605,43.9765625 C1064.51385,44.1588551 1064.46828,44.2955725 1064.46828,44.3867188 C1064.55943,44.5690113 1064.74172,44.7968736 1065.01516,45.0703125 C1066.2912,44.8880199 1066.92922,44.5690127 1066.92922,44.1132812 C1066.92922,43.4752572 1067.47609,42.7005254 1068.56984,41.7890625 C1068.93443,41.3333311 1069.66359,40.1484471 1070.75734,38.234375 C1071.94225,36.1380104 1074.22087,33.2669453 1077.59328,29.6210938 C1081.51257,25.9752422 1084.52035,23.5599018 1086.61672,22.375 C1090.26257,20.0963428 1094.04508,18.136727 1097.96437,16.4960938 L1098.10109,16.4960938 C1098.10109,16.6783863 1098.55682,16.9973936 1099.46828,17.453125 C1100.83548,18.5468805 1101.65578,19.5950471 1101.92922,20.5976562 C1102.4761,21.3268266 1102.93182,25.519493 1103.29641,33.1757812 C1103.38755,34.998707 1103.43312,36.4570258 1103.43312,37.5507812 C1103.43312,39.2825607 1102.24824,41.287749 1099.87844,43.5664062 C1097.50863,46.0273561 1095.23001,47.5312473 1093.0425,48.078125 C1085.29507,51.4505377 1080.05423,56.4635084 1077.31984,63.1171875 C1076.0438,66.5807465 1075.40578,69.9075361 1075.40578,73.0976562 C1075.31463,75.6497523 1074.58548,77.1536436 1073.21828,77.609375 L1072.53469,77.7460938 C1070.25603,77.7460938 1066.70138,75.0573186 1061.87062,69.6796875 C1061.05031,69.4062486 1059.63756,68.1757922 1057.63234,65.9882812 C1055.99171,63.9830629 1055.17141,61.2487152 1055.17141,57.7851562 L1055.17141,57.5117188 C1055.17141,50.5846008 1057.90575,42.4727027 1063.37453,33.1757812 C1064.92402,30.897124 1066.74692,28.4362111 1068.84328,25.7929688 C1076.22613,17.5898027 1083.83673,13.4882812 1091.67531,13.4882812 Z M1056.26516,87.1796875 C1057.81464,87.1796875 1062.55418,88.4557164 1070.48391,91.0078125 C1071.8511,91.5546902 1073.81072,91.828125 1076.36281,91.828125 C1077.45657,92.1015639 1078.27687,92.6028609 1078.82375,93.3320312 C1079.37063,94.3346404 1079.64406,95.5650969 1079.64406,97.0234375 C1079.64406,98.2994855 1079.23391,100.851543 1078.41359,104.679688 C1077.86672,111.697952 1076.81855,120.356719 1075.26906,130.65625 C1074.90448,133.481785 1074.63104,134.894531 1074.44875,134.894531 C1074.26646,135.259116 1074.17531,135.486979 1074.17531,135.578125 L1073.90187,135.578125 C1073.1727,135.031247 1072.80812,134.438805 1072.80812,133.800781 C1073.08156,132.980465 1073.81072,129.015661 1074.99562,121.90625 C1074.99562,121.723957 1075.0412,121.313805 1075.13234,120.675781 L1075.13234,120.539062 L1074.99562,120.539062 C1073.35499,127.375034 1072.53469,132.251288 1072.53469,135.167969 L1072.53469,135.851562 C1072.71698,138.039073 1072.80812,139.26953 1072.80812,139.542969 C1072.80812,141.912772 1071.89668,145.786431 1070.07375,151.164062 C1069.52687,153.078135 1067.79512,162.283772 1064.87844,178.78125 C1064.42271,181.606785 1064.19484,185.799451 1064.19484,191.359375 C1064.01255,194.640641 1063.92141,197.739569 1063.92141,200.65625 C1063.92141,206.125027 1064.60499,209.406245 1065.97219,210.5 C1066.33677,211.22917 1066.51906,211.821612 1066.51906,212.277344 L1066.51906,212.414062 C1066.51906,213.872403 1065.33418,214.692707 1062.96437,214.875 L1062.4175,214.875 C1061.14145,214.875 1059.86542,214.69271 1058.58937,214.328125 C1057.03989,209.953103 1056.26516,205.851582 1056.26516,202.023438 L1056.26516,198.332031 C1056.26516,196.235667 1055.80943,194.048188 1054.89797,191.769531 L1054.89797,191.222656 C1054.89797,190.493486 1055.26255,189.536464 1055.99172,188.351562 C1057.81464,185.070296 1058.72609,181.743506 1058.72609,178.371094 C1058.72609,176.912753 1058.45266,174.907565 1057.90578,172.355469 C1057.63234,171.079421 1057.49562,169.347667 1057.49562,167.160156 L1057.49562,165.246094 C1057.49562,163.787753 1056.99433,162.921876 1055.99172,162.648438 L1055.58156,162.648438 C1054.48781,162.648438 1053.80422,164.152329 1053.53078,167.160156 C1052.25473,173.813835 1051.61672,178.598944 1051.61672,181.515625 C1051.61672,183.065112 1051.25214,188.533807 1050.52297,197.921875 L1050.52297,199.015625 C1050.52297,204.940134 1051.75343,209.269518 1054.21437,212.003906 L1055.03469,213.234375 L1055.03469,213.371094 C1053.30291,213.006509 1049.70268,212.368494 1044.23391,211.457031 C1040.58805,210.545568 1038.08157,209.315112 1036.71437,207.765625 C1035.34718,206.033846 1034.66359,204.165375 1034.66359,202.160156 C1034.39015,200.33723 1034.25344,197.329448 1034.25344,193.136719 L1034.25344,191.632812 C1034.25344,183.520793 1034.52687,175.454467 1035.07375,167.433594 C1036.07636,160.871061 1037.1701,155.037786 1038.355,149.933594 C1038.90188,147.108059 1039.17531,144.328139 1039.17531,141.59375 C1039.17531,139.588532 1039.0386,137.537771 1038.76516,135.441406 C1039.95006,128.97002 1040.67922,125.506513 1040.95266,125.050781 C1041.77297,123.592441 1042.63885,121.1771 1043.55031,117.804688 C1044.27948,115.161445 1045.05421,110.604199 1045.87453,104.132812 L1047.51516,94.8359375 C1049.79381,89.7317453 1052.71045,87.1796875 1056.26516,87.1796875 Z M1067.88625,117.257812 C1067.88625,119.718762 1068.34197,120.949219 1069.25344,120.949219 L1069.52687,120.949219 C1070.62063,120.949219 1071.44093,119.171893 1071.98781,115.617188 C1072.3524,114.614578 1072.89927,113.748702 1073.62844,113.019531 C1074.17532,112.381507 1074.44875,111.88021 1074.44875,111.515625 C1074.44875,111.059894 1074.08417,110.467452 1073.355,109.738281 L1073.355,109.464844 C1073.99302,106.730455 1074.31203,104.315115 1074.31203,102.21875 C1074.31203,101.671872 1074.53989,100.304698 1074.99562,98.1171875 L1074.99562,97.9804688 C1074.81333,96.7044207 1074.49433,96.0664062 1074.03859,96.0664062 L1073.76516,96.0664062 C1072.85369,96.0664062 1072.03339,97.4791525 1071.30422,100.304688 C1070.66619,102.309906 1070.34719,104.315094 1070.34719,106.320312 C1069.80031,109.054701 1069.25344,111.151034 1068.70656,112.609375 C1068.15968,113.70313 1067.88625,115.252594 1067.88625,117.257812 Z M1129.53984,39.875 C1130.6336,39.875 1134.91741,40.4218695 1142.39141,41.515625 C1152.50864,42.791673 1160.93955,44.2499918 1167.68437,45.890625 C1175.43181,47.8958434 1181.72081,50.0833215 1186.55156,52.453125 C1199.58548,58.8333652 1206.10234,67.6288502 1206.10234,78.8398438 C1206.10234,84.4909137 1204.50731,90.6887684 1201.31719,97.4335938 C1199.31197,101.170592 1196.66877,105.272113 1193.3875,109.738281 C1190.28853,113.931011 1186.187,118.761691 1181.08281,124.230469 C1175.61404,130.063831 1171.19351,134.48436 1167.82109,137.492188 L1163.71953,141.046875 C1166.81851,137.309877 1168.55026,135.350261 1168.91484,135.167969 C1172.19611,132.43358 1174.38359,130.246102 1175.47734,128.605469 C1176.11537,127.511713 1177.61926,125.552097 1179.98906,122.726562 C1181.90313,120.08332 1183.4526,117.440117 1184.6375,114.796875 C1185.8224,113.520827 1187.09843,111.059914 1188.46562,107.414062 C1189.46823,104.406235 1190.56197,101.854177 1191.74687,99.7578125 C1192.47605,98.4817645 1193.2052,96.5677211 1193.93437,94.015625 C1194.29896,92.6484307 1194.48125,91.7825539 1194.48125,91.4179688 L1194.48125,91.28125 L1194.34453,91.28125 C1193.97995,91.28125 1193.61537,91.2356775 1193.25078,91.1445312 C1192.97734,91.1445312 1192.79505,91.3268211 1192.70391,91.6914062 C1192.33932,93.2408932 1192.02031,94.608067 1191.74687,95.7929688 C1188.10102,103.266964 1183.22477,112.153594 1177.11797,122.453125 C1176.47994,123.638027 1175.8875,124.230469 1175.34062,124.230469 C1173.06197,125.233078 1171.33021,126.782542 1170.14531,128.878906 C1168.77812,130.701832 1167.13751,132.570303 1165.22344,134.484375 C1163.5828,135.942716 1162.35235,136.854165 1161.53203,137.21875 C1159.98254,138.403652 1158.93438,140.04426 1158.3875,142.140625 C1158.29635,143.143234 1158.20521,143.644531 1158.11406,143.644531 C1156.19999,144.282555 1154.87839,145.330722 1154.14922,146.789062 C1153.87578,147.244794 1153.73906,147.518229 1153.73906,147.609375 C1153.73906,147.791668 1153.92135,148.20182 1154.28594,148.839844 C1148.81716,152.941427 1143.89533,156.313789 1139.52031,158.957031 C1138.88229,158.5013 1138.47214,158.273438 1138.28984,158.273438 L1138.15312,158.273438 C1137.69739,158.273438 1136.64923,159.321604 1135.00859,161.417969 C1134.37057,162.147139 1132.0008,163.149733 1127.89922,164.425781 C1121.42783,166.522146 1116.55158,167.570312 1113.27031,167.570312 C1112.08541,167.570312 1110.99167,167.388023 1109.98906,167.023438 L1109.57891,167.023438 C1109.39661,167.023438 1109.30547,167.524735 1109.30547,168.527344 C1109.30547,168.709636 1108.89532,169.256506 1108.075,170.167969 L1108.075,170.441406 L1108.21172,171.535156 C1108.21172,171.717449 1107.84714,173.084623 1107.11797,175.636719 C1105.47734,179.556009 1104.65703,182.518219 1104.65703,184.523438 C1103.83671,185.070315 1103.42656,186.483062 1103.42656,188.761719 C1103.42656,189.308596 1102.97084,190.812488 1102.05937,193.273438 C1101.60364,195.369802 1101.19349,198.651019 1100.82891,203.117188 C1100.82891,203.208334 1100.78333,203.527341 1100.69219,204.074219 C1100.78333,204.894535 1100.82891,205.441405 1100.82891,205.714844 C1100.82891,206.53516 1100.55547,208.312486 1100.00859,211.046875 L1100.00859,211.183594 L1100.14531,211.183594 C1101.51251,205.350231 1102.19609,201.977869 1102.19609,201.066406 L1102.19609,200.382812 C1102.56068,196.645815 1103.10755,193.59246 1103.83672,191.222656 C1104.65704,188.943999 1105.11276,187.759115 1105.20391,187.667969 C1105.3862,188.397139 1105.47734,188.898436 1105.47734,189.171875 C1105.47734,189.445314 1105.43177,190.128901 1105.34062,191.222656 C1105.34062,191.496095 1105.61406,191.860675 1106.16094,192.316406 C1103.5177,205.897203 1102.19609,215.695282 1102.19609,221.710938 C1102.19609,223.442717 1102.56067,225.90363 1103.28984,229.09375 C1103.56328,230.825529 1103.7,232.238276 1103.7,233.332031 L1103.7,233.878906 C1103.7,235.975271 1103.06199,237.661452 1101.78594,238.9375 C1101.5125,239.484378 1100.73777,239.757812 1099.46172,239.757812 L1099.05156,239.757812 C1096.13488,239.757812 1092.76252,238.664073 1088.93437,236.476562 C1087.74947,235.838538 1086.29115,234.608082 1084.55937,232.785156 C1080.73123,228.501281 1078.81719,223.214875 1078.81719,216.925781 L1078.81719,215.695312 C1078.81719,201.385345 1083.05543,176.229347 1091.53203,140.226562 C1100.46437,102.94773 1104.93047,83.9895865 1104.93047,83.3515625 C1105.56849,80.4348813 1106.34322,76.5156496 1107.25469,71.59375 C1107.71042,69.9531168 1108.16614,66.9909068 1108.62187,62.7070312 L1108.89531,57.1015625 L1109.03203,57.1015625 C1109.57891,58.6510494 1110.08021,59.699216 1110.53594,60.2460938 L1110.53594,59.5625 C1110.53594,58.4687445 1111.67525,55.05081 1113.95391,49.3085938 C1114.31849,48.123692 1114.86536,46.5286559 1115.59453,44.5234375 L1115.73125,43.9765625 C1115.73125,43.7942699 1115.45782,43.3841178 1114.91094,42.7460938 C1114.91094,42.6549475 1114.68308,42.1080779 1114.22734,41.1054688 C1115.86798,40.8320299 1117.05286,40.6953125 1117.78203,40.6953125 L1118.32891,40.6953125 C1119.42266,40.6953125 1119.96953,40.9687473 1119.96953,41.515625 C1119.24036,43.7942822 1118.64792,46.8020646 1118.19219,50.5390625 C1116.91614,56.7370102 1113.68049,69.770734 1108.48516,89.640625 C1103.56326,108.507907 1100.28204,121.541631 1098.64141,128.742188 C1098.18567,131.203137 1097.95781,132.570311 1097.95781,132.84375 C1097.95781,133.208335 1098.41354,133.436197 1099.325,133.527344 C1100.05417,132.88932 1101.19348,130.063827 1102.74297,125.050781 C1108.1206,106.183499 1113.68044,83.1238342 1119.42266,55.8710938 C1120.33412,50.8580479 1121.24557,47.5312582 1122.15703,45.890625 C1122.97735,43.9765529 1123.97994,42.4726617 1125.16484,41.3789062 C1126.2586,40.3762971 1127.71692,39.875 1129.53984,39.875 Z M1133.91484,68.1757812 C1134.27943,69.7252682 1134.46172,73.1887752 1134.46172,78.5664062 C1134.46172,81.8476727 1131.40836,95.4738385 1125.30156,119.445312 C1123.2052,127.466186 1121.20001,134.848925 1119.28594,141.59375 C1126.21306,136.854143 1132.68434,132.205752 1138.7,127.648438 C1161.57772,110.14835 1173.01641,96.5221842 1173.01641,86.7695312 L1173.01641,86.2226562 C1173.01641,80.0247086 1168.04901,75.2851727 1158.11406,72.0039062 C1155.19738,71.0924434 1151.05029,70.2265666 1145.67266,69.40625 C1142.75598,68.9505186 1138.83674,68.5403664 1133.91484,68.1757812 Z M1198.99297,74.1914062 C1199.53985,78.201843 1199.81328,80.2981762 1199.81328,80.4804688 C1200.17787,79.0221281 1200.36016,77.8828166 1200.36016,77.0625 C1200.36016,76.424476 1199.95,75.5585992 1199.12969,74.4648438 C1199.12969,74.2825512 1199.08412,74.1914062 1198.99297,74.1914062 Z M1199.12969,83.2148438 C1199.12969,83.3971363 1199.2664,83.4882812 1199.53984,83.4882812 C1199.81328,83.4882812 1199.95,83.3515639 1199.95,83.078125 C1199.95,82.5312473 1199.85886,81.9843777 1199.67656,81.4375 C1199.49427,81.4375 1199.31198,82.029942 1199.12969,83.2148438 Z M1197.89922,91.28125 C1197.89922,91.5546889 1197.85365,91.7825512 1197.7625,91.9648438 L1198.03594,91.4179688 L1198.03594,91.28125 L1197.89922,91.28125 Z M1193.11406,103.996094 C1193.75209,103.996094 1194.75468,102.355485 1196.12187,99.0742188 C1196.85105,97.1601467 1197.21562,95.2461033 1197.21562,93.3320312 C1196.85104,93.6966164 1196.2586,95.2460801 1195.43828,97.9804688 C1194.61796,100.076833 1193.84323,102.082022 1193.11406,103.996094 Z M1186.27812,114.660156 L1186.27812,114.796875 L1186.55156,114.933594 L1186.68828,114.933594 L1186.68828,114.660156 L1186.27812,114.660156 Z M1099.18828,136.808594 C1098.09453,139.269544 1097.54766,141.229159 1097.54766,142.6875 C1097.36536,143.41667 1097.27422,144.555982 1097.27422,146.105469 C1097.45651,146.196615 1097.59323,146.242188 1097.68437,146.242188 C1097.68437,146.059895 1098.09453,144.373714 1098.91484,141.183594 C1099.18828,140.180985 1099.325,139.041673 1099.325,137.765625 L1099.325,136.808594 L1099.18828,136.808594 Z M1160.02812,144.191406 L1159.07109,145.011719 L1159.07109,144.875 C1159.07109,144.510415 1159.3901,144.282553 1160.02812,144.191406 Z" id="partnership" stroke="#F0BA41" fill-rule="nonzero"></path>
    </g>
</svg>