<?xml version="1.0" encoding="UTF-8"?>
<svg width="841px" height="217px" viewBox="0 0 841 217" version="1.1" xmlns="http://www.w3.org/2000/svg" xmlns:xlink="http://www.w3.org/1999/xlink">
    <!-- Generator: Sketch 54.1 (76490) - https://sketchapp.com -->
    <title>services</title>
    <desc>Created with Sketch.</desc>
    <g id="Page-1" stroke="none" stroke-width="1" fill="none" fill-rule="evenodd">
        <g id="Artboard" transform="translate(-512.000000, -3411.000000)" fill-rule="nonzero" stroke="#F0BA41">
            <path d="M615.13393,3426.7832 C622.253107,3427.22266 625.812641,3427.57422 625.812641,3427.83789 C627.218898,3428.27735 628.361465,3429.15624 629.240376,3430.47461 C630.734524,3432.58399 631.481587,3435.70408 631.481587,3439.83496 C631.481587,3442.64747 631.173973,3445.54784 630.558735,3448.53613 C627.834112,3454.95218 625.636868,3460.48923 623.966938,3465.14746 C621.593879,3472.26664 619.264801,3480.30855 616.979634,3489.27344 C616.71596,3492.17384 616.364401,3494.15136 615.924946,3495.20605 C614.782362,3497.13966 613.332181,3498.10645 611.57436,3498.10645 C611.398578,3498.10645 610.959129,3498.01856 610.256001,3497.84277 C609.992328,3497.93066 609.816548,3497.97461 609.728657,3497.97461 L612.892719,3479.38574 L612.892719,3479.25391 C611.574353,3483.209 609.992338,3489.31734 608.146626,3497.5791 L608.01479,3497.71094 C604.938603,3497.71094 602.829249,3496.43654 601.686665,3493.8877 C601.071427,3493.00878 600.412254,3492.17383 599.709126,3491.38281 C599.005997,3489.88866 598.654438,3486.94436 598.654438,3482.5498 C598.654438,3476.48532 599.181777,3468.9268 600.236469,3459.87402 C591.886818,3465.32327 584.284355,3470.72849 577.428852,3476.08984 C571.979606,3480.22072 564.904482,3486.32906 556.203266,3494.41504 L555.675923,3494.2832 L555.148579,3494.2832 C554.884906,3494.2832 554.665181,3494.45898 554.489399,3494.81055 L554.621235,3495.86523 C552.160285,3498.1504 549.303869,3500.91893 546.051899,3504.1709 C549.655433,3507.68654 552.292125,3509.92773 553.962055,3510.89453 C557.389807,3512.82813 560.422003,3514.76171 563.058735,3516.69531 C565.695467,3518.54102 568.903443,3521.00194 572.682759,3524.07812 C578.307787,3528.73635 581.383928,3531.3291 581.911274,3531.85645 C582.702294,3533.43848 584.460089,3535.81151 587.184712,3538.97559 C587.799949,3539.59082 589.25013,3541.39256 591.535298,3544.38086 C592.765772,3545.69923 593.996229,3547.58885 595.226704,3550.0498 C595.314595,3550.0498 595.710099,3550.70898 596.413227,3552.02734 L596.545063,3552.02734 C593.996222,3546.66599 592.721821,3543.94141 592.721821,3543.85352 C594.919098,3546.84181 596.589003,3549.52245 597.731587,3551.89551 C601.071447,3558.66312 602.741352,3565.21091 602.741352,3571.53906 L602.741352,3573.5166 L602.609516,3573.5166 C602.521625,3573.16504 602.301901,3572.72559 601.950337,3572.19824 C601.950337,3572.54981 601.510888,3573.16503 600.631977,3574.04395 C600.368304,3574.04395 600.016745,3575.31835 599.57729,3577.86719 C599.313617,3578.7461 599.181782,3580.19628 599.181782,3582.21777 C598.830218,3585.46974 598.434714,3587.66699 597.995259,3588.80957 C597.819476,3589.77637 597.731587,3591.05077 597.731587,3592.63281 C597.555805,3593.51172 596.852687,3594.65429 595.622212,3596.06055 C595.358538,3596.93946 593.864413,3599.00487 591.13979,3602.25684 L591.535298,3602.65234 C587.843873,3606.0801 584.548007,3608.80468 581.647602,3610.82617 C574.352644,3616.18753 569.211094,3619.13183 566.222798,3619.65918 C564.464976,3620.01074 563.23452,3620.18652 562.531391,3620.18652 L562.004048,3618.60449 C561.125137,3619.04395 560.378074,3619.30762 559.762837,3619.39551 L559.499165,3619.92285 C560.290184,3620.09863 561.037247,3620.18652 561.740376,3620.18652 L561.740376,3620.31836 C561.476703,3620.31836 559.806797,3621.15331 556.73061,3622.82324 C556.027482,3623.35059 552.863451,3624.36132 547.238423,3625.85547 C543.986453,3626.5586 541.349761,3626.91016 539.328266,3626.91016 L538.932759,3626.91016 C537.878066,3626.91016 536.867334,3626.77832 535.900532,3626.51465 C534.230602,3626.77832 532.780421,3626.91016 531.549946,3626.91016 L531.286274,3626.91016 C525.221791,3626.91016 520.25602,3622.42778 516.388813,3613.46289 C515.509903,3610.91405 514.718895,3608.23341 514.015766,3605.4209 C513.224747,3601.55369 512.829243,3598.82911 512.829243,3597.24707 L512.961079,3597.24707 C515.861484,3599.18067 519.377074,3600.14746 523.507954,3600.14746 C530.62713,3600.14746 538.932711,3597.55471 548.424946,3592.36914 C551.149569,3590.87499 554.181765,3588.89747 557.521626,3586.43652 C562.179852,3582.56932 566.31067,3578.92189 569.914204,3575.49414 C569.914204,3575.40625 570.441542,3574.79102 571.496235,3573.64844 C574.484531,3570.30858 576.462051,3567.23244 577.428852,3564.41992 C578.04409,3562.83788 578.351704,3561.12403 578.351704,3559.27832 C578.263813,3558.4873 578.219868,3557.91602 578.219868,3557.56445 C576.462047,3554.48827 575.275535,3552.55469 574.660298,3551.76367 C572.199348,3549.65429 569.69449,3547.89649 567.145649,3546.49023 C565.651501,3545.61132 560.246282,3542.44729 550.929829,3536.99805 C546.623167,3534.36131 542.887852,3531.81251 539.723774,3529.35156 C533.307726,3524.34177 529.748192,3520.12306 529.045063,3516.69531 L528.649555,3514.19043 C525.924932,3511.81737 524.211082,3509.97169 523.507954,3508.65332 C522.189588,3506.63183 521.530415,3504.2588 521.530415,3501.53418 C521.530415,3493.71187 522.453257,3488.08693 524.298969,3484.65918 C525.529444,3481.58299 528.254026,3477.71584 532.472798,3473.05762 C534.494292,3470.86034 536.208142,3469.23438 537.614399,3468.17969 C544.030447,3463.25779 550.797957,3458.68752 557.917134,3454.46875 C568.112497,3448.14059 577.60459,3442.91115 586.393696,3438.78027 C589.733556,3437.28613 592.853642,3436.05567 595.754048,3435.08887 C598.127106,3434.38574 600.500129,3434.03418 602.873188,3434.03418 C604.367336,3434.03418 605.993297,3434.16601 607.751118,3434.42969 C608.014791,3432.75976 608.45424,3431.26563 609.069477,3429.94727 C609.772606,3428.6289 610.739393,3427.75 611.969868,3427.31055 C613.024561,3426.95898 614.079238,3426.7832 615.13393,3426.7832 Z M578.747212,3446.9541 C578.835103,3447.56934 579.098772,3447.87695 579.538227,3447.87695 C583.581216,3446.11913 586.042129,3444.7129 586.92104,3443.6582 L587.052876,3443.52637 C586.701311,3443.1748 586.481587,3442.99902 586.393696,3442.99902 C583.4054,3443.87793 580.856597,3445.19628 578.747212,3446.9541 Z M575.451313,3448.4043 L576.374165,3448.00879 L576.374165,3447.74512 C576.374165,3447.65723 576.286275,3447.61328 576.110493,3447.61328 C575.758929,3447.61328 575.539204,3447.87695 575.451313,3448.4043 Z M533.922993,3481.75879 C534.977686,3481.75879 535.988418,3481.2754 536.955219,3480.30859 C537.131002,3480.13281 537.965954,3479.03419 539.460102,3477.0127 C545.08513,3471.47556 549.567507,3467.43263 552.907368,3464.88379 C557.038248,3461.63182 560.597783,3459.08302 563.586079,3457.2373 C566.13492,3455.91894 569.56262,3453.41408 573.869282,3449.72266 L574.923969,3448.66797 L574.396626,3448.66797 C573.166151,3448.66797 571.847805,3449.2832 570.441548,3450.51367 C563.849718,3454.38088 557.301932,3458.81931 550.797993,3463.8291 C549.479627,3465.05958 548.205226,3466.24609 546.974751,3467.38867 C545.041147,3468.88282 543.327297,3470.333 541.833149,3471.73926 C539.108526,3474.37599 537.131007,3476.57323 535.900532,3478.33105 C534.494275,3480.44044 533.791157,3481.58301 533.791157,3481.75879 L533.922993,3481.75879 Z M611.442524,3495.33789 C612.76089,3495.25 613.420063,3495.16211 613.420063,3495.07422 C613.420063,3494.98633 613.551898,3494.45899 613.815571,3493.49219 L613.551899,3493.36035 C613.376117,3493.36035 612.716944,3493.93163 611.57436,3495.07422 C611.57436,3495.07422 611.530415,3495.16211 611.442524,3495.33789 Z M567.013813,3528.42871 C569.474763,3530.45021 571.715952,3531.63672 573.737446,3531.98828 C572.858535,3530.49413 571.36441,3529.43946 569.255024,3528.82422 C568.200331,3528.56055 567.453269,3528.42871 567.013813,3528.42871 Z M574.132954,3532.25195 C574.132954,3533.04297 574.616347,3533.74609 575.583149,3534.36133 C579.626138,3538.22853 581.955216,3540.68945 582.570454,3541.74414 C584.943513,3544.55665 586.921032,3547.32518 588.503071,3550.0498 C590.08511,3553.0381 591.139787,3554.75195 591.667134,3555.19141 C592.018698,3555.54297 592.589981,3555.80664 593.381001,3555.98242 C593.381001,3555.1914 593.073387,3554.22462 592.458149,3553.08203 C590.524546,3549.30272 587.756019,3545.25979 584.152485,3540.95312 C580.548951,3536.91014 578.044094,3534.44922 576.637837,3533.57031 C576.11049,3533.21875 575.275538,3532.7793 574.132954,3532.25195 Z M574.792134,3608.05762 C574.792134,3608.67285 575.099748,3609.06836 575.714985,3609.24414 C575.978658,3609.41992 576.198383,3609.50781 576.374165,3609.50781 C579.626134,3607.92577 582.965945,3605.86036 586.393696,3603.31152 C591.051922,3599.53221 594.128064,3595.709 595.622212,3591.8418 C595.270647,3591.49023 594.875144,3591.13867 594.435688,3590.78711 L594.303852,3590.78711 C591.930794,3593.33595 588.371259,3596.98337 583.625141,3601.72949 C582.218884,3603.22364 580.505034,3604.49804 578.48354,3605.55273 C577.077283,3606.43165 575.890771,3607.22265 574.923969,3607.92578 L574.792134,3608.05762 Z M732.935775,3448.7998 C739.615496,3448.7998 744.009983,3449.32714 746.119369,3450.38184 C751.392833,3452.40333 754.996312,3455.25975 756.929916,3458.95117 C757.457262,3459.83008 757.720931,3460.75292 757.720931,3461.71973 L757.720931,3461.9834 C757.720931,3464.09278 756.929923,3466.37792 755.347884,3468.83887 C752.183806,3469.98145 749.019775,3470.55273 745.855697,3470.55273 C730.298978,3473.45314 716.983682,3476.30956 705.909408,3479.12207 C704.239478,3479.64942 701.251226,3480.26464 696.944564,3480.96777 C694.307832,3481.23145 692.242423,3481.36328 690.748275,3481.36328 L691.934798,3482.41797 C691.934798,3482.50586 690.440673,3482.72558 687.452377,3483.07715 C679.893745,3483.60449 674.576415,3484.21972 671.500228,3484.92285 C671.412337,3485.01074 670.489495,3485.23047 668.731673,3485.58203 L668.731673,3485.71387 C678.663364,3489.3174 689.825361,3493.05272 702.218002,3496.91992 L710.39183,3499.68848 C713.204344,3500.21582 715.269753,3500.83105 716.588119,3501.53418 C717.115465,3501.70996 717.467024,3501.97363 717.642806,3502.3252 C717.99437,3502.85254 718.17015,3504.083 718.17015,3506.0166 C719.400625,3509.79592 720.015853,3512.30078 720.015853,3513.53125 L720.015853,3515.37695 C720.015853,3516.16797 719.840074,3516.56348 719.488509,3516.56348 C716.763886,3518.23341 712.720958,3520.03515 707.359603,3521.96875 C703.84396,3523.02344 701.470937,3523.55078 700.240462,3523.55078 C683.892724,3526.01173 670.094034,3528.8242 658.843978,3531.98828 C655.152553,3533.04297 651.724853,3534.05371 648.560775,3535.02051 C648.560775,3535.1084 649.176003,3535.63574 650.406478,3536.60254 C648.560766,3537.92091 647.022695,3539.19531 645.79222,3540.42578 C645.528547,3540.68945 644.737539,3542.18358 643.419173,3544.9082 C641.925025,3547.10548 640.826403,3549.74217 640.123275,3552.81836 L638.936752,3556.37793 C638.585187,3558.39942 638.277573,3561.03612 638.0139,3564.28809 C637.926009,3564.72754 637.794174,3564.94727 637.618392,3564.94727 C636.915264,3564.94727 636.43187,3565.87011 636.168197,3567.71582 C634.937722,3572.28616 634.322494,3575.3623 634.322494,3576.94434 C633.355692,3582.65726 632.872298,3586.26073 632.872298,3587.75488 L632.872298,3588.01855 C632.872298,3590.4795 633.399637,3592.36913 634.45433,3593.6875 C635.069567,3594.74219 635.992409,3595.84081 637.222884,3596.9834 L636.300033,3592.10547 C636.212142,3591.49023 636.168197,3590.65528 636.168197,3589.60059 L636.168197,3588.94141 C636.168197,3588.23828 636.256087,3586.91993 636.431869,3584.98633 C636.431869,3584.2832 636.212144,3583.18458 635.772689,3581.69043 C635.772689,3581.25097 636.212138,3580.37208 637.091048,3579.05371 C638.145741,3577.03222 638.67308,3575.18653 638.67308,3573.5166 L638.67308,3572.85742 L638.409408,3569.29785 C638.409408,3563.84861 640.123258,3557.0811 643.551009,3548.99512 C645.045157,3545.74315 646.934787,3542.97462 649.219955,3540.68945 C649.483628,3540.51367 649.791242,3539.76661 650.142806,3538.44824 C650.406479,3537.9209 650.845928,3537.65723 651.461166,3537.65723 C653.043205,3537.83301 653.834212,3538.53613 653.834212,3539.7666 C653.834212,3540.29395 652.955315,3542.35936 651.197494,3545.96289 C648.472871,3551.50003 646.143792,3556.90525 644.210189,3562.17871 C641.573457,3569.56156 640.255111,3576.50485 640.255111,3583.00879 C640.255111,3588.10647 641.090063,3593.4238 642.759994,3598.96094 L642.89183,3598.96094 C646.583254,3598.87305 657.525528,3594.87406 675.718978,3586.96387 C685.299104,3582.65721 692.154504,3579.2295 696.285384,3576.68066 C697.779532,3575.53808 699.757052,3574.39551 702.218002,3573.25293 C706.436773,3571.49511 709.864473,3570.61621 712.501205,3570.61621 L713.028548,3570.61621 C714.522696,3570.61621 715.577373,3570.96777 716.192611,3571.6709 C716.368393,3572.02246 716.456283,3572.41797 716.456283,3572.85742 C716.104718,3575.49415 715.928939,3576.98828 715.928939,3577.33984 L715.928939,3577.86719 C715.928939,3578.04297 716.016829,3578.43847 716.192611,3579.05371 C713.204315,3580.45997 710.172118,3582.39354 707.095931,3584.85449 C706.480694,3585.55762 706.17308,3585.95312 706.17308,3586.04102 C706.788317,3586.04102 708.062718,3585.60157 709.996322,3584.72266 L713.9514,3581.82227 C714.390855,3581.4707 714.918194,3581.16309 715.533431,3580.89941 L715.533431,3581.03125 C715.44554,3581.20703 715.401595,3581.51465 715.401595,3581.9541 C715.665268,3584.15138 715.797103,3585.38183 715.797103,3585.64551 C715.53343,3587.31544 713.204352,3589.90819 708.809798,3593.42383 C703.887899,3597.11525 698.570569,3600.32323 692.85765,3603.04785 C688.111532,3605.5088 682.706313,3607.88182 676.64183,3610.16699 L676.64183,3608.98047 C675.147682,3609.77149 673.389887,3610.43066 671.368392,3610.95801 C669.786353,3611.39746 667.457275,3611.70508 664.381087,3611.88086 C661.920138,3612.4961 660.030508,3613.11133 658.712142,3613.72656 C657.569558,3614.60547 655.899653,3615.30859 653.702377,3615.83594 C646.934765,3616.80274 641.441655,3617.94531 637.222884,3619.26367 C637.222884,3619.35156 637.047105,3619.39551 636.695541,3619.39551 C632.388878,3619.39551 628.961178,3618.209 626.412337,3615.83594 C618.502142,3609.68356 614.547103,3600.19147 614.547103,3587.35938 C614.547103,3575.66986 617.799024,3561.43172 624.302962,3544.64453 L624.039291,3544.64453 C622.36936,3544.64453 620.91918,3543.15041 619.688705,3540.16211 C619.073467,3539.01953 618.370349,3536.91017 617.57933,3533.83398 L617.183822,3531.98828 C617.271713,3530.05468 617.447492,3528.1211 617.711166,3526.1875 L617.711166,3526.05566 C617.711166,3525.87988 617.75511,3525.79199 617.843002,3525.79199 L617.711166,3525.52832 L617.711166,3525.26465 C617.711166,3524.38574 617.974835,3522.93556 618.502181,3520.91406 C618.590072,3519.5957 618.897686,3518.93652 619.425033,3518.93652 C621.446527,3518.1455 624.830282,3517.17872 629.5764,3516.03613 C631.773677,3515.4209 632.872298,3514.98145 632.872298,3514.71777 L632.872298,3514.4541 C632.872298,3514.19043 632.34496,3514.05859 631.290267,3514.05859 L630.894759,3514.05859 C630.10374,3514.05859 628.170165,3514.54199 625.093978,3515.50879 C622.369355,3516.21192 620.743395,3516.56348 620.216048,3516.56348 C620.040266,3515.77246 619.952377,3515.15723 619.952377,3514.71777 C620.21605,3513.66308 620.435774,3513.13574 620.611556,3513.13574 L621.270736,3511.81738 C633.399703,3508.91698 650.538203,3505.44533 672.686752,3501.40234 C679.630146,3500.08398 685.518759,3499.11719 690.352767,3498.50195 L690.352767,3498.37012 C683.409373,3496.43651 673.389942,3493.9756 660.294173,3490.9873 C656.075402,3489.84472 652.164309,3488.79004 648.560775,3487.82324 C647.593973,3487.91113 646.759021,3487.95508 646.055892,3487.95508 L645.001205,3487.95508 C639.991414,3487.95508 636.08032,3485.93361 633.267806,3481.89062 C631.597876,3479.166 630.631089,3476.26564 630.367416,3473.18945 C630.367416,3472.48632 629.752187,3470.20119 628.521712,3466.33398 C628.433821,3465.98242 628.345932,3465.41114 628.258041,3464.62012 C628.258041,3463.21386 629.049048,3462.20313 630.631087,3461.58789 C633.795166,3460.18163 640.606621,3458.51173 651.065658,3456.57812 C661.700477,3454.55663 677.69641,3452.53517 699.053939,3450.51367 C712.940727,3449.37109 724.23456,3448.7998 732.935775,3448.7998 Z M671.236556,3458.6875 L671.236556,3458.81934 C671.236556,3459.43457 671.983619,3459.74219 673.477767,3459.74219 L673.741439,3459.74219 C678.663339,3459.30273 684.464062,3458.77539 691.143783,3458.16016 C692.55004,3457.80859 693.956276,3457.63281 695.362533,3457.63281 C695.714097,3457.63281 696.768774,3457.7207 698.526595,3457.89648 C698.87816,3457.80859 699.053939,3457.63281 699.053939,3457.36914 C699.053939,3456.31445 697.779538,3455.78711 695.230697,3455.78711 L693.253158,3455.78711 C686.573437,3455.78711 679.718037,3456.40234 672.686752,3457.63281 C671.71995,3457.89649 671.236556,3458.24804 671.236556,3458.6875 Z M637.486556,3465.14746 C637.83812,3466.11426 638.673073,3466.6416 639.991439,3466.72949 C642.276607,3466.72949 644.605685,3466.20215 646.978744,3465.14746 C649.17602,3464.26855 652.86739,3463.34571 658.052962,3462.37891 C662.447516,3461.58789 665.391822,3460.88477 666.88597,3460.26953 L666.88597,3459.61035 C666.622297,3459.1709 665.699455,3458.95117 664.117416,3458.95117 L663.3264,3458.95117 C662.711162,3458.95117 660.557864,3459.39062 656.866439,3460.26953 C653.526579,3460.97266 649.263926,3461.54394 644.078353,3461.9834 C642.14475,3462.07129 640.079341,3462.73046 637.882064,3463.96094 C637.618391,3464.40039 637.486556,3464.7959 637.486556,3465.14746 Z M655.54808,3508.25781 C655.284406,3508.43359 655.152572,3508.69726 655.152572,3509.04883 C655.240463,3509.22461 655.416242,3509.3125 655.679916,3509.3125 L655.811752,3509.3125 C656.075425,3509.3125 656.207259,3509.18067 656.207259,3508.91699 L656.207259,3508.78516 C656.207259,3508.43359 655.987535,3508.25781 655.54808,3508.25781 Z M650.67015,3510.10352 L650.67015,3510.23535 C650.67015,3510.58692 650.845929,3510.7627 651.197494,3510.7627 C651.549058,3510.7627 651.812727,3510.58692 651.988509,3510.23535 C651.900618,3509.7959 651.724839,3509.57617 651.461166,3509.57617 L651.197494,3509.57617 C650.845929,3509.57617 650.67015,3509.75195 650.67015,3510.10352 Z M645.924056,3511.55371 C645.924056,3511.81738 646.011946,3511.99316 646.187728,3512.08105 L646.4514,3512.08105 C646.978746,3512.08105 647.242416,3511.77344 647.242416,3511.1582 L647.242416,3511.02637 C647.154525,3510.76269 646.978745,3510.63086 646.715072,3510.63086 C646.187725,3510.63086 645.924056,3510.93847 645.924056,3511.55371 Z M637.486556,3514.4541 C637.486556,3514.71777 637.750225,3514.9375 638.277572,3515.11328 L638.409408,3515.11328 C639.464101,3515.11328 640.782447,3514.542 642.364486,3513.39941 C642.891832,3512.87207 643.155502,3512.38867 643.155502,3511.94922 C642.891828,3511.42187 642.628159,3511.1582 642.364486,3511.1582 C640.2551,3511.77344 638.62914,3512.78417 637.486556,3514.19043 L637.486556,3514.4541 Z M657.921127,3533.96582 C658.009018,3533.96582 658.184797,3534.05371 658.44847,3534.22949 C658.44847,3535.37208 657.701407,3536.29492 656.207259,3536.99805 C655.767804,3537.08594 655.328355,3537.12988 654.8889,3537.12988 L654.757064,3537.12988 C654.229718,3537.12988 653.966048,3536.91016 653.966048,3536.4707 L653.966048,3536.20703 C653.966048,3535.32812 655.06467,3534.58106 657.261947,3533.96582 L657.921127,3533.96582 Z M702.481673,3588.01855 C703.624257,3587.93066 704.634989,3587.44727 705.5139,3586.56836 L705.5139,3586.43652 C704.459207,3586.43652 703.448475,3586.96386 702.481673,3588.01855 Z M694.307845,3591.44629 L694.307845,3591.57812 L695.362533,3591.57812 C697.384027,3591.57812 699.097877,3590.65528 700.504134,3588.80957 L699.976791,3588.67773 C697.603732,3588.67773 695.714102,3589.60058 694.307845,3591.44629 Z M692.593978,3592.63281 L692.725814,3592.63281 C693.516834,3592.36914 693.912337,3592.10547 693.912337,3591.8418 L693.780502,3591.8418 C693.341046,3591.8418 692.945542,3592.10547 692.593978,3592.63281 Z M833.467112,3451.17285 C835.664388,3452.57911 838.081356,3454.55663 840.718088,3457.10547 C843.618493,3460.00587 845.639958,3462.51073 846.782541,3464.62012 C848.188798,3466.81739 849.28742,3469.19042 850.07844,3471.73926 C850.517895,3472.88184 850.737619,3473.58496 850.737619,3473.84863 C850.210273,3474.2002 849.946604,3474.55176 849.946604,3474.90332 C850.210277,3475.69434 850.342112,3476.35351 850.342112,3476.88086 C850.342112,3477.67188 849.946608,3479.38573 849.155588,3482.02246 C848.540351,3483.34083 848.232737,3484.52734 848.232737,3485.58203 C848.232737,3486.28516 848.628241,3487.60351 849.41926,3489.53711 C849.507151,3489.97656 849.551096,3490.32812 849.551096,3490.5918 C849.551096,3491.29493 848.847978,3493.14061 847.441721,3496.12891 C845.947573,3499.99611 844.892896,3502.45703 844.277659,3503.51172 C844.013985,3504.12696 843.486647,3504.5664 842.695627,3504.83008 C841.904608,3505.53321 841.157545,3506.58788 840.454416,3507.99414 C837.817684,3511.59767 835.664386,3515.2451 833.994455,3518.93652 C833.291327,3520.43067 830.830414,3523.55076 826.611643,3528.29688 L826.743479,3528.29688 C829.028647,3526.27538 831.489559,3524.12208 834.126291,3521.83691 L834.258127,3521.83691 C829.863574,3527.72562 823.931016,3534.7568 816.460276,3542.93066 C810.044228,3549.69828 804.595064,3555.1035 800.112619,3559.14648 L794.311838,3564.41992 C801.782579,3568.37502 811.230726,3572.94529 822.656565,3578.13086 C831.35778,3582.17385 837.422173,3585.38182 840.849924,3587.75488 C841.465162,3588.28223 842.388004,3589.20507 843.618479,3590.52344 C845.3763,3591.8418 846.562812,3593.46776 847.178049,3595.40137 L847.309885,3596.45605 C847.309885,3599.88381 843.882185,3602.34472 837.026682,3603.83887 C834.565732,3602.87207 832.104819,3601.7295 829.643869,3600.41113 L821.865549,3596.06055 C819.053035,3594.39062 815.932949,3592.28126 812.505198,3589.73242 C812.153633,3589.38086 810.967122,3588.94141 808.945627,3588.41406 C806.836242,3587.53515 803.013038,3585.73341 797.475901,3583.00879 C795.805971,3582.21777 794.883128,3581.82227 794.707346,3581.82227 L794.57551,3581.82227 C794.487619,3581.82227 794.31184,3581.91016 794.048166,3582.08594 C794.223948,3582.78907 794.531563,3583.27246 794.971018,3583.53613 C799.189789,3585.90919 803.716111,3588.67772 808.550119,3591.8418 C812.241544,3594.12696 816.416307,3596.19237 821.074534,3598.03809 C824.238612,3599.53223 827.270808,3601.15819 830.171213,3602.91602 C831.225906,3603.61914 832.192693,3604.27832 833.071604,3604.89355 L831.357737,3605.55273 C829.95148,3606.16797 829.028637,3607.04687 828.589182,3608.18945 C828.325509,3608.54102 828.06184,3608.7168 827.798166,3608.7168 L827.402659,3608.7168 C826.523748,3608.7168 823.887056,3607.39845 819.492502,3604.76172 C814.131147,3601.59764 807.93492,3598.74122 800.903635,3596.19238 C796.3333,3594.61034 790.840191,3593.07227 784.424143,3591.57812 C773.525651,3588.41405 764.429062,3585.90919 757.134104,3584.06348 L757.002268,3584.06348 C756.211248,3584.50293 755.288406,3585.1621 754.233713,3586.04102 C754.057931,3586.04102 753.750317,3586.91991 753.310862,3588.67773 C750.498348,3598.08208 749.092112,3603.83886 749.092112,3605.94824 L749.092112,3606.08008 C749.092112,3606.8711 749.53156,3609.4199 750.410471,3613.72656 C750.762035,3615.92384 750.937815,3617.63769 750.937815,3618.86816 C750.937815,3621.24122 750.322587,3622.99902 749.092112,3624.1416 C748.652656,3624.93262 747.905594,3625.32812 746.850901,3625.32812 L746.323557,3625.32812 C743.862607,3625.32812 740.918301,3624.66895 737.490549,3623.35059 C735.556946,3622.47168 733.799151,3621.417 732.217112,3620.18652 C727.11943,3616.05564 724.570627,3610.56253 724.570627,3603.70703 C724.570627,3599.22459 725.449525,3592.01763 727.207346,3582.08594 C729.668296,3569.34173 732.920216,3555.67488 736.963205,3541.08496 C739.336264,3532.55953 743.730751,3517.88194 750.146799,3497.05176 C752.871422,3487.38374 755.244445,3478.11137 757.26594,3469.23438 C757.26594,3469.14648 757.309885,3468.88281 757.397776,3468.44336 L757.26594,3468.44336 C754.365535,3469.41016 751.948567,3469.89355 750.014963,3469.89355 C745.62041,3469.89355 742.763993,3467.56448 741.445627,3462.90625 C741.445627,3462.55469 740.698564,3461.14845 739.204416,3458.6875 C738.852852,3457.80859 738.677073,3457.10547 738.677073,3456.57812 L738.677073,3456.31445 C738.677073,3455.875 738.852852,3455.56738 739.204416,3455.3916 C746.675157,3450.82127 752.783494,3448.05274 757.529612,3447.08594 C760.342126,3446.38281 763.506157,3446.03125 767.021799,3446.03125 C769.658531,3445.76758 771.460271,3445.45996 772.427073,3445.1084 C773.130201,3444.75683 773.525705,3444.53711 773.613596,3444.44922 C772.646794,3444.36133 771.416338,3444.31738 769.92219,3444.31738 L768.208323,3444.31738 C766.186828,3444.31738 764.209309,3444.625 762.275705,3445.24023 L755.420237,3446.55859 C753.135069,3447.08594 750.937825,3447.833 748.82844,3448.7998 C748.476876,3448.97559 747.466143,3449.2832 745.796213,3449.72266 C744.302065,3450.25 742.368491,3451.17284 739.995432,3452.49121 C739.995432,3452.5791 739.951487,3452.62305 739.863596,3452.62305 L739.73176,3452.62305 L739.599924,3452.49121 C739.951488,3451.87597 740.654606,3451.2168 741.709299,3450.51367 C743.555012,3449.2832 745.488586,3448.14063 747.51008,3447.08594 C751.465178,3445.06444 756.035445,3443.52637 761.221018,3442.47168 C766.142918,3441.50488 776.338128,3441.13135 791.806955,3441.35107 C807.275783,3441.5708 821.162363,3444.84469 833.467112,3451.17285 Z M761.616526,3460.66504 C761.616526,3461.10449 761.792305,3461.32422 762.143869,3461.32422 C762.407543,3461.32422 762.539377,3461.14844 762.539377,3460.79688 C762.451486,3460.44531 762.407541,3460.22559 762.407541,3460.1377 L761.748362,3460.1377 C761.660471,3460.22559 761.616526,3460.40137 761.616526,3460.66504 Z M785.346994,3467.38867 L785.47883,3467.78418 L785.47883,3468.70703 C785.47883,3469.14649 785.039382,3470.7285 784.160471,3473.45312 C783.896798,3474.15625 783.677073,3475.82616 783.501291,3478.46289 C783.061836,3481.18751 782.754222,3482.68164 782.57844,3482.94531 C780.644836,3484.35157 779.41438,3485.97753 778.887034,3487.82324 C778.62336,3489.05372 778.052077,3490.76757 777.173166,3492.96484 C776.909493,3493.66797 776.557934,3495.07421 776.118479,3497.18359 C773.74542,3505.62114 772.558909,3510.93847 772.558909,3513.13574 L772.558909,3513.79492 C772.558909,3514.41016 772.690743,3514.71777 772.954416,3514.71777 C773.481763,3514.71777 774.624329,3512.21292 776.382151,3507.20312 C777.348952,3504.56639 778.13996,3502.23731 778.755198,3500.21582 L778.887034,3500.21582 C773.262005,3522.45226 768.1644,3541.04094 763.594065,3555.98242 C767.988618,3552.99413 772.910444,3549.21487 778.35969,3544.64453 C781.435877,3542.18358 785.69853,3538.22854 791.147776,3532.7793 C797.388041,3526.36325 801.650694,3521.57326 803.935862,3518.40918 C814.57068,3504.96185 819.88801,3493.71196 819.88801,3484.65918 C819.88801,3475.34273 808.374453,3469.58595 785.346994,3467.38867 Z M846.255198,3472.00293 C846.958326,3475.95803 847.309885,3477.97949 847.309885,3478.06738 C847.485667,3477.01269 847.617502,3476.0459 847.705393,3475.16699 C847.705393,3474.28808 847.309889,3473.36524 846.518869,3472.39844 C846.518869,3472.39844 846.43098,3472.2666 846.255198,3472.00293 Z M733.403635,3573.64844 C733.403635,3573.91211 733.843084,3574.13184 734.721994,3574.30762 C735.425123,3573.5166 735.996406,3572.50587 736.435862,3571.27539 C739.160485,3563.45309 742.939744,3549.47862 747.773752,3529.35156 C751.025722,3517.92572 754.321587,3504.65437 757.661448,3489.53711 C758.188794,3488.13085 758.891912,3486.37306 759.770823,3484.26367 C760.561842,3481.71483 760.957346,3479.95704 760.957346,3478.99023 L760.957346,3478.8584 C760.869455,3477.80371 760.473951,3477.27637 759.770823,3477.27637 L759.507151,3477.27637 C758.804022,3477.27637 758.320629,3477.97949 758.056955,3479.38574 C758.056955,3479.56152 757.573562,3481.05565 756.60676,3483.86816 L754.892893,3492.04199 C745.57644,3526.05583 738.852875,3551.41203 734.721994,3568.11133 C734.37043,3569.25391 733.930982,3571.0996 733.403635,3573.64844 Z M846.782541,3480.57227 C846.870432,3480.83594 847.002267,3480.96777 847.178049,3480.96777 C847.441722,3480.87988 847.573557,3480.79199 847.573557,3480.7041 L847.573557,3480.44043 C847.573557,3480.08887 847.485667,3479.56153 847.309885,3478.8584 C847.134103,3478.8584 846.958323,3479.34179 846.782541,3480.30859 C846.782541,3480.30859 846.782541,3480.39648 846.782541,3480.57227 Z M810.79133,3538.84375 C809.91242,3539.19531 809.121412,3539.63476 808.418284,3540.16211 C807.451482,3541.04102 806.880198,3541.87597 806.704416,3542.66699 C806.96809,3543.80958 807.363593,3544.38086 807.89094,3544.38086 L808.022776,3544.38086 C808.638013,3544.38086 809.033517,3544.20508 809.209299,3543.85352 C810.351883,3542.71093 811.055001,3541.61231 811.318674,3540.55762 C811.582347,3539.94238 811.846017,3539.63477 812.10969,3539.63477 C813.515947,3539.10742 814.922183,3537.78907 816.32844,3535.67969 C816.416331,3535.67969 817.734677,3534.09767 820.283518,3530.93359 C823.535487,3528.12108 825.469062,3526.14356 826.084299,3525.00098 C827.314774,3523.15526 828.940734,3520.91408 830.962229,3518.27734 C832.016922,3516.60741 833.027654,3514.76173 833.994455,3512.74023 C833.994455,3512.38867 834.433904,3511.50977 835.312815,3510.10352 C836.103834,3508.96093 836.982732,3506.85158 837.949534,3503.77539 C838.916335,3500.52342 840.058902,3497.62306 841.377268,3495.07422 C842.34407,3491.82225 842.827463,3489.62501 842.827463,3488.48242 L842.695627,3488.48242 C842.519845,3488.48242 842.124341,3488.39453 841.509104,3488.21875 C841.245431,3488.21875 841.069651,3488.79003 840.98176,3489.93262 C840.805978,3490.28418 840.630198,3491.25097 840.454416,3492.83301 C838.960268,3496.34865 836.455411,3501.62204 832.939768,3508.65332 C830.127254,3514.19046 828.10579,3517.96972 826.875315,3519.99121 C824.590147,3520.78223 822.832352,3522.27636 821.601877,3524.47363 C820.810858,3525.792 819.184897,3527.72557 816.723948,3530.27441 C815.493473,3531.50489 814.438796,3532.33984 813.559885,3532.7793 C811.714173,3534.44923 810.79133,3536.47069 810.79133,3538.84375 Z M846.123362,3488.48242 C846.123362,3488.6582 846.035472,3488.87793 845.85969,3489.1416 L845.991526,3489.1416 L846.255198,3488.48242 L846.123362,3488.48242 Z M845.464182,3490.45996 C845.112618,3490.98731 844.673169,3492.30565 844.145823,3494.41504 C843.794258,3495.73341 843.135085,3497.79881 842.168284,3500.61133 C842.519848,3500.61133 842.871407,3500.17188 843.222971,3499.29297 C844.717119,3496.74413 845.464182,3494.28321 845.464182,3491.91016 L845.464182,3490.45996 Z M778.755198,3499.95215 L778.887034,3499.95215 L778.887034,3500.08398 L778.755198,3500.08398 L778.755198,3499.95215 Z M836.235666,3511.02637 C836.235666,3511.20215 836.279611,3511.29004 836.367502,3511.29004 L836.499338,3511.29004 L836.499338,3510.89453 C836.323556,3510.98242 836.235666,3511.02637 836.235666,3511.02637 Z M734.590159,3577.33984 C733.271793,3579.88868 732.612619,3582.04198 732.612619,3583.7998 L732.480784,3586.30469 C732.656566,3586.39258 732.744455,3586.48047 732.744455,3586.56836 C732.832346,3586.56836 732.964181,3586.12891 733.139963,3585.25 C734.194656,3582.34959 734.721994,3579.80079 734.721994,3577.60352 L734.721994,3577.33984 L734.590159,3577.33984 Z M763.594065,3581.16309 C762.627263,3582.21778 761.8802,3582.83301 761.352854,3583.00879 C765.307952,3583.8877 768.296203,3584.72265 770.317698,3585.51367 C770.581371,3585.51367 772.295221,3586.17284 775.459299,3587.49121 L775.459299,3587.35938 C775.459299,3586.21679 774.931961,3585.46973 773.877268,3585.11816 C771.064754,3583.62402 768.340172,3582.48145 765.70344,3581.69043 C765.000311,3581.42676 764.297193,3581.25098 763.594065,3581.16309 Z M862.675206,3449.85449 L862.938878,3449.85449 C864.78459,3449.85449 868.168346,3450.99706 873.090245,3453.28223 C873.793374,3453.63379 874.891996,3454.07324 876.386144,3454.60059 L876.386144,3454.73242 C876.210362,3456.84181 876.122472,3458.99511 876.122472,3461.19238 L876.122472,3482.81348 C876.122472,3487.99905 875.858803,3492.17381 875.331456,3495.33789 C874.979892,3497.27149 874.804112,3499.3369 874.804112,3501.53418 L874.804112,3501.79785 C874.804112,3506.2803 875.639065,3518.2333 877.308995,3537.65723 C877.308995,3542.8428 878.627341,3548.51169 881.264073,3554.66406 L881.395909,3554.66406 L881.395909,3553.47754 C881.395909,3552.95019 881.000405,3549.78616 880.209386,3543.98535 C879.242584,3535.02046 878.759191,3526.31938 878.759191,3517.88184 C879.198646,3499.42471 879.41837,3485.14263 879.41837,3475.03516 C879.41837,3473.6289 879.68204,3467.38873 880.209386,3456.31445 C880.297277,3455.875 880.341222,3455.61133 880.341222,3455.52344 C881.04435,3455.78711 881.747468,3456.7539 882.450597,3458.42383 C883.241616,3461.32423 883.63712,3463.43359 883.63712,3464.75195 C883.988685,3467.74025 884.164464,3473.2773 884.164464,3481.36328 C884.428137,3482.68165 884.559972,3485.40623 884.559972,3489.53711 C884.296299,3527.41816 884.164464,3549.74215 884.164464,3556.50977 C884.164464,3565.91411 884.296299,3570.61621 884.559972,3570.61621 L884.823644,3570.87988 C886.405683,3567.8037 888.163478,3564.7715 890.097081,3561.7832 L890.360753,3561.65137 C890.624426,3562.09082 891.01993,3562.31055 891.547277,3562.31055 C892.601969,3562.22266 893.700591,3561.78321 894.843175,3560.99219 C896.07365,3559.8496 896.776768,3558.92676 896.95255,3558.22363 C897.304114,3557.08105 897.479894,3556.29004 897.479894,3555.85059 C897.479894,3554.35644 897.08439,3553.34571 896.29337,3552.81836 C896.117588,3552.64258 896.029698,3552.51074 896.029698,3552.42285 C896.029698,3551.71972 897.21621,3550.48927 899.589269,3548.73145 C900.116615,3548.11621 900.380284,3547.58887 900.380284,3547.14941 L900.380284,3546.88574 C900.380284,3546.70996 900.16056,3546.18262 899.721105,3545.30371 C907.455518,3529.92277 917.255225,3509.79602 929.120519,3484.92285 C931.229904,3480.44041 932.767975,3477.45216 933.734777,3475.95801 C936.723073,3470.24509 939.271875,3465.49904 941.381261,3461.71973 C942.875409,3459.17089 944.721094,3456.66603 946.91837,3454.20508 C948.060954,3453.15039 948.939852,3452.62305 949.555089,3452.62305 L949.818761,3452.62305 C951.840255,3452.97461 953.334381,3453.15039 954.301183,3453.15039 C959.223082,3452.79883 962.387113,3452.62305 963.79337,3452.62305 L964.45255,3452.62305 C968.58343,3452.62305 971.220122,3454.11717 972.362706,3457.10547 C972.626379,3457.98438 972.758214,3458.64355 972.758214,3459.08301 C971.527739,3461.89552 970.780676,3463.38965 970.517003,3463.56543 C967.704489,3467.08107 965.858804,3470.02538 964.979894,3472.39844 C961.727924,3478.81449 957.816831,3485.88961 953.246495,3493.62402 L944.149816,3510.89453 C941.864648,3514.93752 940.722081,3517.22265 940.722081,3517.75 C940.809972,3518.10156 940.853917,3518.40918 940.853917,3518.67285 L940.853917,3519.06836 C940.853917,3520.73829 939.579516,3524.56149 937.030675,3530.53809 C936.59122,3531.32911 933.866638,3536.64644 928.856847,3546.49023 L928.725011,3546.49023 C928.63712,3546.49023 928.46134,3546.40234 928.197667,3546.22656 C928.197667,3546.31445 928.065833,3546.53418 927.802159,3546.88574 C927.802159,3547.14942 927.933994,3547.41308 928.197667,3547.67676 C919.408561,3564.81552 913.519948,3576.68063 910.531652,3583.27246 C905.43397,3595.57721 901.434986,3603.44334 898.534581,3606.87109 C895.018939,3611.35354 891.15179,3613.59473 886.933019,3613.59473 C883.417376,3613.59473 879.418393,3611.96877 874.935948,3608.7168 C873.529691,3607.83789 871.991621,3607.09082 870.321691,3606.47559 C868.475978,3605.94824 865.399837,3605.11329 861.093175,3603.9707 C858.808007,3603.17968 857.094157,3602.16895 855.951573,3600.93848 C855.512118,3600.41113 855.204504,3587.79895 855.028722,3563.10156 C854.940831,3548.16008 854.896886,3536.33891 854.896886,3527.6377 C854.896886,3492.2176 855.072665,3467.52058 855.42423,3453.5459 C857.621506,3451.08495 860.038474,3449.85449 862.675206,3449.85449 Z M967.748448,3460.79688 C965.902736,3462.99415 964.892004,3464.62011 964.716222,3465.6748 C964.628331,3465.93848 964.496496,3466.46582 964.320714,3467.25684 C966.781664,3464.44432 968.01212,3462.37891 968.01212,3461.06055 L967.748448,3460.79688 Z M957.597081,3478.99023 C959.618576,3477.14452 960.805087,3475.78223 961.156652,3474.90332 C962.035562,3473.49706 962.782625,3471.8711 963.397862,3470.02539 C963.573645,3469.49804 963.749424,3468.79493 963.925206,3467.91602 C962.079494,3469.58595 960.936927,3470.90429 960.497472,3471.87109 C959.794343,3472.8379 959.091225,3474.28808 958.388097,3476.22168 C958.124424,3476.92481 957.860754,3477.84765 957.597081,3478.99023 Z M952.059972,3489.40527 C953.817793,3487.64745 954.696691,3485.75782 954.696691,3483.73633 C953.466216,3484.9668 952.675208,3486.19726 952.323644,3487.42773 C952.147862,3488.48243 952.059972,3489.1416 952.059972,3489.40527 Z M945.600011,3501.00684 C947.094159,3499.33691 948.192781,3497.62306 948.895909,3495.86523 C949.159583,3495.42578 949.511142,3494.41505 949.950597,3492.83301 C948.192776,3494.67872 946.962319,3496.5244 946.259191,3498.37012 C945.819735,3499.86427 945.600011,3500.74316 945.600011,3501.00684 Z M940.458409,3504.83008 C924.198562,3537.61345 915.892981,3554.40039 915.541417,3555.19141 L917.38712,3556.11426 C924.066841,3543.98529 930.043344,3532.03229 935.316808,3520.25488 L941.908605,3505.35742 C941.117585,3505.00586 940.634191,3504.83008 940.458409,3504.83008 Z M929.252355,3540.95312 C929.076573,3541.30469 928.988683,3541.52441 928.988683,3541.6123 C929.076574,3541.87598 929.164464,3542.00781 929.252355,3542.00781 L929.516027,3542.00781 C929.691809,3541.83203 929.779698,3541.65625 929.779698,3541.48047 L929.779698,3541.2168 L929.516027,3540.95312 L929.252355,3540.95312 Z M1011.854,3412.14941 C1014.05128,3412.14941 1015.50146,3412.41308 1016.20459,3412.94043 C1012.68895,3415.48927 1009.83253,3417.33496 1007.63525,3418.47754 C1003.76805,3420.41114 1000.7798,3422.21288 998.67041,3423.88281 C996.121569,3426.16798 994.451664,3427.96972 993.660645,3429.28809 C992.43017,3430.95802 991.243658,3432.75976 990.101074,3434.69336 C988.343253,3436.45118 987.244631,3438.07714 986.805176,3439.57129 C986.805176,3439.83496 986.453617,3440.49414 985.750488,3441.54883 C985.662597,3441.72461 985.618652,3441.85644 985.618652,3441.94434 C985.706543,3442.12012 985.882323,3442.33984 986.145996,3442.60352 C987.376471,3442.42773 987.991699,3442.12012 987.991699,3441.68066 C987.991699,3441.06543 988.519038,3440.31836 989.57373,3439.43945 C989.925295,3439 990.628413,3437.85743 991.683105,3436.01172 C992.825689,3433.99022 995.022933,3431.2217 998.274902,3427.70605 C1002.05422,3424.19041 1004.95458,3421.86133 1006.97607,3420.71875 C1010.49172,3418.52147 1014.13914,3416.63184 1017.91846,3415.0498 L1018.05029,3415.0498 C1018.05029,3415.22559 1018.48974,3415.5332 1019.36865,3415.97266 C1020.68702,3417.02735 1021.47803,3418.03808 1021.7417,3419.00488 C1022.26905,3419.70801 1022.70849,3423.75094 1023.06006,3431.13379 C1023.14795,3432.89161 1023.19189,3434.29785 1023.19189,3435.35254 C1023.19189,3437.02247 1022.04933,3438.95604 1019.76416,3441.15332 C1017.47899,3443.52638 1015.28175,3444.97656 1013.17236,3445.50391 C1005.70162,3448.75588 1000.64796,3453.58981 998.01123,3460.00586 C996.780756,3463.34572 996.165527,3466.5537 996.165527,3469.62988 C996.077636,3472.09083 995.374518,3473.54101 994.056152,3473.98047 L993.396973,3474.1123 C991.199696,3474.1123 987.771996,3471.51956 983.11377,3466.33398 C982.32275,3466.07031 980.960459,3464.8838 979.026855,3462.77441 C977.444816,3460.84081 976.653809,3458.20412 976.653809,3454.86426 L976.653809,3454.60059 C976.653809,3447.92087 979.290501,3440.09868 984.563965,3431.13379 C986.058113,3428.93651 987.815908,3426.56349 989.837402,3424.01465 C996.956579,3416.10445 1004.29537,3412.14941 1011.854,3412.14941 Z M977.708496,3483.20898 C979.202644,3483.20898 983.772911,3484.43944 991.419434,3486.90039 C992.7378,3487.42774 994.627429,3487.69141 997.088379,3487.69141 C998.143072,3487.95508 998.934079,3488.43847 999.461426,3489.1416 C999.988772,3490.1084 1000.25244,3491.29491 1000.25244,3492.70117 C1000.25244,3493.93165 999.856938,3496.39256 999.065918,3500.08398 C998.538572,3506.8516 997.52784,3515.20112 996.033691,3525.13281 C995.682127,3527.85744 995.418458,3529.21973 995.242676,3529.21973 C995.066894,3529.57129 994.979004,3529.79102 994.979004,3529.87891 L994.715332,3529.87891 C994.012204,3529.35156 993.660645,3528.78028 993.660645,3528.16504 C993.924318,3527.37402 994.627436,3523.55082 995.77002,3516.69531 C995.77002,3516.51953 995.813964,3516.12403 995.901855,3515.50879 L995.901855,3515.37695 L995.77002,3515.37695 C994.18798,3521.96878 993.396973,3526.67088 993.396973,3529.4834 L993.396973,3530.14258 C993.572755,3532.25196 993.660645,3533.43848 993.660645,3533.70215 C993.660645,3535.98732 992.781747,3539.72263 991.023926,3544.9082 C990.496579,3546.75392 988.826674,3555.63078 986.01416,3571.53906 C985.574705,3574.26369 985.35498,3578.30661 985.35498,3583.66797 C985.179198,3586.83205 985.091309,3589.8203 985.091309,3592.63281 C985.091309,3597.90628 985.750482,3601.07031 987.068848,3602.125 C987.420412,3602.82813 987.596191,3603.39941 987.596191,3603.83887 L987.596191,3603.9707 C987.596191,3605.37696 986.453625,3606.16797 984.168457,3606.34375 L983.641113,3606.34375 C982.410638,3606.34375 981.180182,3606.16797 979.949707,3605.81641 C978.455559,3601.59764 977.708496,3597.6426 977.708496,3593.95117 L977.708496,3590.3916 C977.708496,3588.37011 977.269047,3586.26075 976.390137,3584.06348 L976.390137,3583.53613 C976.390137,3582.833 976.741696,3581.91016 977.444824,3580.76758 C979.202646,3577.6035 980.081543,3574.39552 980.081543,3571.14355 C980.081543,3569.7373 979.817874,3567.80372 979.290527,3565.34277 C979.026854,3564.1123 978.89502,3562.44239 978.89502,3560.33301 L978.89502,3558.4873 C978.89502,3557.08105 978.411626,3556.2461 977.444824,3555.98242 L977.049316,3555.98242 C975.994624,3555.98242 975.335451,3557.4326 975.071777,3560.33301 C973.841302,3566.74906 973.226074,3571.36327 973.226074,3574.17578 C973.226074,3575.66993 972.874515,3580.94331 972.171387,3589.99609 L972.171387,3591.05078 C972.171387,3596.7637 973.357898,3600.93846 975.730957,3603.5752 L976.521973,3604.76172 L976.521973,3604.89355 C974.852042,3604.54199 971.380397,3603.92676 966.106934,3603.04785 C962.591291,3602.16894 960.174323,3600.98243 958.855957,3599.48828 C957.537591,3597.81835 956.878418,3596.01661 956.878418,3594.08301 C956.614745,3592.32519 956.48291,3589.42482 956.48291,3585.38184 L956.48291,3583.93164 C956.48291,3576.10934 956.746579,3568.33109 957.273926,3560.59668 C958.240727,3554.26852 959.295404,3548.64358 960.437988,3543.72168 C960.965335,3540.99706 961.229004,3538.31642 961.229004,3535.67969 C961.229004,3533.74608 961.097169,3531.76856 960.833496,3529.74707 C961.97608,3523.5068 962.679198,3520.16699 962.942871,3519.72754 C963.733891,3518.32128 964.568843,3515.9922 965.447754,3512.74023 C966.150882,3510.19139 966.897945,3505.79691 967.688965,3499.55664 L969.270996,3490.5918 C971.468273,3485.6699 974.280745,3483.20898 977.708496,3483.20898 Z M988.914551,3512.21289 C988.914551,3514.58595 989.354,3515.77246 990.23291,3515.77246 L990.496582,3515.77246 C991.551275,3515.77246 992.342283,3514.05861 992.869629,3510.63086 C993.221193,3509.66406 993.748532,3508.82911 994.45166,3508.12598 C994.979007,3507.51074 995.242676,3507.02735 995.242676,3506.67578 C995.242676,3506.23633 994.891117,3505.66504 994.187988,3504.96191 L994.187988,3504.69824 C994.803226,3502.06151 995.11084,3499.73243 995.11084,3497.71094 C995.11084,3497.18359 995.330564,3495.86524 995.77002,3493.75586 L995.77002,3493.62402 C995.594237,3492.39355 995.286623,3491.77832 994.847168,3491.77832 L994.583496,3491.77832 C993.704585,3491.77832 992.913578,3493.14061 992.210449,3495.86523 C991.595212,3497.79884 991.287598,3499.73241 991.287598,3501.66602 C990.760251,3504.30275 990.232913,3506.32421 989.705566,3507.73047 C989.17822,3508.78516 988.914551,3510.27929 988.914551,3512.21289 Z M1104.60702,3431.5293 C1106.8043,3431.5293 1109.22126,3433.11131 1111.858,3436.27539 C1116.86779,3441.54885 1119.37265,3444.625 1119.37265,3445.50391 C1119.46054,3446.11914 1119.50448,3446.73437 1119.50448,3447.34961 L1119.50448,3448.27246 C1119.50448,3451.26076 1118.97714,3453.89745 1117.92245,3456.18262 C1116.95565,3457.14942 1115.98886,3458.42382 1115.02206,3460.00586 C1111.41853,3466.07034 1107.99083,3473.18941 1104.73886,3481.36328 L1104.60702,3481.36328 C1105.66171,3476.08982 1107.28767,3471.16799 1109.48495,3466.59766 C1111.41855,3462.55467 1112.69295,3460.22559 1113.30819,3459.61035 C1114.09921,3458.73144 1115.02205,3457.94043 1116.07675,3457.2373 C1116.25253,3456.88574 1116.34042,3456.57813 1116.34042,3456.31445 C1116.25253,3455.52343 1116.07675,3455.12793 1115.81308,3455.12793 L1115.41757,3455.12793 C1114.62655,3455.12793 1113.61582,3455.91894 1112.38534,3457.50098 C1110.18806,3459.96193 1108.34238,3462.42284 1106.84823,3464.88379 C1104.82674,3468.31154 1103.11289,3471.87108 1101.70663,3475.5625 C1100.38826,3478.99025 1099.20175,3482.94529 1098.14706,3487.42773 C1096.47713,3496.04106 1095.07089,3502.50096 1093.92831,3506.80762 C1093.13729,3510.23537 1092.74179,3512.65234 1092.74179,3514.05859 L1092.74179,3515.64062 C1092.74179,3518.18947 1092.39023,3520.73827 1091.6871,3523.28711 C1091.51132,3524.42969 1091.42343,3525.70409 1091.42343,3527.11035 C1091.42343,3529.13185 1091.46737,3531.02148 1091.55526,3532.7793 C1092.25839,3533.48243 1092.82967,3533.83398 1093.26913,3533.83398 C1093.35702,3534.97657 1093.88436,3536.69042 1094.85116,3538.97559 C1095.20273,3539.59082 1095.59823,3540.20605 1096.03768,3540.82129 C1095.68612,3542.40333 1095.51034,3543.76562 1095.51034,3544.9082 C1096.38925,3543.9414 1096.96053,3543.01856 1097.22421,3542.13965 L1097.35604,3542.13965 C1098.32285,3542.84278 1099.59725,3543.45801 1101.17929,3543.98535 C1102.0582,3544.5127 1102.93709,3545.17187 1103.816,3545.96289 C1103.02499,3546.49024 1101.22325,3547.28124 1098.41073,3548.33594 C1095.59822,3549.30274 1093.04941,3549.78613 1090.76425,3549.78613 L1090.50058,3549.78613 C1086.72126,3549.78613 1083.29356,3548.33595 1080.21737,3545.43555 C1078.37166,3543.85351 1076.92148,3542.35938 1075.86679,3540.95312 C1070.15387,3533.3066 1067.29745,3524.42974 1067.29745,3514.32227 L1067.29745,3513.00391 C1067.29745,3506.32419 1068.87947,3498.28227 1072.04354,3488.87793 C1070.19783,3490.63575 1068.04453,3493.09666 1065.58358,3496.26074 C1058.90386,3504.61039 1053.05919,3513.04781 1048.0494,3521.57324 C1041.54546,3532.47173 1036.27208,3543.10639 1032.22909,3553.47754 C1030.2076,3558.83889 1028.66953,3563.541 1027.61483,3567.58398 C1025.50545,3575.75785 1024.45077,3582.56931 1024.45077,3588.01855 L1024.45077,3588.67773 C1024.45077,3593.42385 1025.41756,3596.71972 1027.35116,3598.56543 C1028.66953,3600.05958 1029.98787,3600.80664 1031.30624,3600.80664 C1032.18515,3600.80664 1033.54744,3600.63086 1035.39315,3600.2793 C1035.83261,3600.36719 1036.09628,3600.41113 1036.18417,3600.41113 C1036.71152,3600.41113 1038.38142,3599.88379 1041.19393,3598.8291 C1041.98495,3598.56543 1043.65486,3598.30176 1046.2037,3598.03809 C1048.1373,3597.59863 1049.32382,3597.02735 1049.76327,3596.32422 C1052.04844,3594.5664 1053.58651,3593.59961 1054.37753,3593.42383 C1052.00447,3593.6875 1050.59823,3593.81934 1050.15878,3593.81934 L1050.15878,3593.6875 C1062.81509,3589.20506 1072.70269,3585.16213 1079.82186,3581.55859 C1083.77696,3579.18554 1087.732,3577.20802 1091.6871,3575.62598 C1094.93907,3574.30761 1097.04842,3573.64844 1098.01522,3573.64844 C1098.98203,3573.64844 1100.0367,3575.01073 1101.17929,3577.73535 C1101.88241,3579.66895 1102.23397,3580.9873 1102.23397,3581.69043 C1101.17928,3582.48145 1098.76231,3584.50291 1094.983,3587.75488 C1090.23688,3591.5342 1086.80918,3593.81933 1084.69979,3594.61035 C1083.73299,3595.04981 1082.89804,3595.79687 1082.19491,3596.85156 L1082.72225,3596.85156 C1084.91953,3596.85156 1087.64411,3595.62111 1090.89608,3593.16016 C1097.83948,3588.58982 1101.66268,3585.99707 1102.36581,3585.38184 L1102.76132,3584.98633 L1102.76132,3585.25 C1103.46445,3585.60156 1103.816,3585.95312 1103.816,3586.30469 C1103.816,3587.97462 1102.1461,3590.08397 1098.80624,3592.63281 C1097.57576,3593.42383 1096.96054,3593.90723 1096.96054,3594.08301 C1095.3785,3595.84083 1093.70859,3597.3789 1091.95077,3598.69727 C1087.46833,3602.03713 1082.76622,3604.80565 1077.84433,3607.00293 C1071.42828,3609.99123 1063.21059,3612.8037 1053.191,3615.44043 C1042.46829,3618.16505 1033.19593,3619.52734 1025.37362,3619.52734 C1022.12165,3619.52734 1019.44102,3619.26367 1017.33163,3618.73633 C1015.6617,3619.17578 1014.29941,3619.39551 1013.24472,3619.39551 C1005.33452,3619.39551 1000.3248,3612.1446 998.215419,3597.64258 C997.688072,3593.42381 997.424403,3589.11721 997.424403,3584.72266 C997.424403,3575.75777 998.786694,3566.70512 1001.51132,3557.56445 C1002.91757,3552.55466 1004.8072,3546.79788 1007.18026,3540.29395 C1014.03577,3522.18839 1021.9019,3505.70906 1030.7789,3490.85547 C1034.82188,3483.99997 1039.8316,3476.61723 1045.80819,3468.70703 C1059.78287,3451.39249 1072.52688,3442.73535 1084.04061,3442.73535 C1086.06211,3442.73535 1088.25935,3443.08691 1090.63241,3443.79004 C1091.07187,3442.82324 1093.88434,3439.7471 1099.06991,3434.56152 C1100.82773,3432.71581 1102.23397,3431.74902 1103.28866,3431.66113 C1103.99179,3431.57324 1104.43124,3431.5293 1104.60702,3431.5293 Z M1007.70761,3559.54199 L1007.70761,3559.80566 C1007.7955,3560.15723 1007.92733,3560.33301 1008.10311,3560.33301 C1009.06992,3559.80566 1009.55331,3558.79493 1009.55331,3557.30078 C1010.25644,3555.54296 1010.95956,3553.5215 1011.66268,3551.23633 C1014.56309,3542.79879 1017.9029,3534.53715 1021.68222,3526.45117 C1026.16466,3517.13472 1032.05327,3506.89556 1039.34823,3495.7334 C1042.6002,3490.28415 1046.51129,3484.65921 1051.08163,3478.8584 C1053.19102,3475.95799 1056.66266,3472.0469 1061.49667,3467.125 C1063.69395,3464.92772 1065.31991,3463.12598 1066.3746,3461.71973 C1068.13242,3459.69823 1069.01132,3458.51172 1069.01132,3458.16016 L1069.01132,3457.50098 C1069.01132,3456.88574 1068.74765,3456.57812 1068.2203,3456.57812 C1067.60506,3456.57812 1066.858,3457.2373 1065.97909,3458.55566 C1063.9576,3460.84083 1060.74962,3464.26853 1056.35507,3468.83887 L1048.18124,3478.33105 C1045.28083,3482.28615 1043.08359,3485.62596 1041.58944,3488.35059 C1041.0621,3489.31739 1039.21641,3492.08591 1036.05233,3496.65625 C1032.88825,3501.40237 1030.51523,3505.35741 1028.93319,3508.52148 C1027.52694,3511.334 1025.2418,3515.59665 1022.07772,3521.30957 C1018.21052,3528.25296 1014.65098,3536.47066 1011.39901,3545.96289 C1011.22323,3546.8418 1010.65195,3548.5996 1009.68515,3551.23633 C1009.24569,3552.55469 1008.7623,3554.66405 1008.23495,3557.56445 C1007.88339,3558.26758 1007.70761,3558.92675 1007.70761,3559.54199 Z M1094.71933,3481.09961 L1094.71933,3481.89062 C1096.03769,3480.48437 1097.53182,3477.36428 1099.20175,3472.53027 L1101.9703,3462.90625 L1101.17929,3462.90625 C1100.30038,3463.16992 1099.20175,3464.92772 1097.88339,3468.17969 C1097.26815,3470.0254 1096.74081,3471.69531 1096.30136,3473.18945 C1095.24666,3476.26564 1094.71933,3478.90233 1094.71933,3481.09961 Z M1094.71933,3485.97754 C1094.27987,3486.76856 1094.06015,3487.47168 1094.06015,3488.08691 L1094.06015,3489.00977 L1094.19198,3489.27344 C1094.71933,3488.6582 1094.983,3487.99903 1094.983,3487.2959 L1094.983,3486.76855 L1094.85116,3485.97754 L1094.71933,3485.97754 Z M1091.29159,3499.68848 L1091.29159,3500.21582 C1091.29159,3501.00684 1091.42343,3501.66601 1091.6871,3502.19336 C1092.91757,3500.96288 1093.5328,3499.55665 1093.5328,3497.97461 C1093.5328,3497.27148 1093.40097,3496.56836 1093.13729,3495.86523 C1091.90682,3497.09571 1091.29159,3498.37011 1091.29159,3499.68848 Z M1087.07284,3499.95215 L1087.20468,3499.95215 C1087.55624,3499.68848 1087.73202,3499.42481 1087.73202,3499.16113 L1087.73202,3498.63379 C1087.55624,3498.63379 1087.33651,3499.07324 1087.07284,3499.95215 Z M1023.13241,3533.43848 C1024.97812,3531.59276 1026.29647,3529.1758 1027.08749,3526.1875 L1026.95565,3526.1875 C1025.37361,3527.33008 1024.23105,3528.95604 1023.52792,3531.06543 C1023.35214,3531.76856 1023.2203,3532.55957 1023.13241,3533.43848 Z M1021.68222,3537.26172 C1021.68222,3535.94335 1022.12166,3534.84473 1023.00058,3533.96582 C1023.00058,3535.37208 1022.56113,3536.4707 1021.68222,3537.26172 Z M1019.30917,3542.40332 C1019.30917,3541.43652 1019.74862,3540.42579 1020.62753,3539.37109 C1020.62753,3540.25 1020.18808,3541.26074 1019.30917,3542.40332 Z M1018.12265,3544.77637 C1017.50741,3546.00684 1017.19979,3546.88574 1017.19979,3547.41309 L1017.19979,3547.54492 L1017.33163,3547.54492 C1017.85898,3545.96288 1018.12265,3545.04004 1018.12265,3544.77637 Z M1006.25741,3561.7832 L1006.25741,3562.17871 C1006.25741,3562.09082 1006.30136,3562.00293 1006.38925,3561.91504 L1006.38925,3561.7832 L1006.25741,3561.7832 Z M1005.59823,3563.36523 C1004.98299,3565.03516 1004.67538,3566.0459 1004.67538,3566.39746 L1004.67538,3566.5293 C1005.37851,3564.85937 1005.73007,3563.84863 1005.73007,3563.49707 L1005.73007,3563.36523 L1005.59823,3563.36523 Z M1004.27987,3567.32031 C1002.25838,3571.18752 1001.24765,3574.3955 1001.24765,3576.94434 L1001.24765,3577.73535 C1002.47812,3575.80175 1003.40096,3573.209 1004.0162,3569.95703 L1004.41171,3567.45215 L1004.41171,3567.32031 L1004.27987,3567.32031 Z M1035.52499,3602.125 L1034.60214,3602.125 C1033.72323,3602.125 1032.75644,3602.21289 1031.70175,3602.38867 L1031.70175,3602.52051 C1032.58066,3602.95996 1033.15194,3603.17969 1033.41561,3603.17969 C1033.67929,3603.17969 1034.73396,3602.82813 1036.57968,3602.125 L1036.57968,3601.99316 C1036.22811,3602.08106 1035.87655,3602.125 1035.52499,3602.125 Z M1231.11004,3448.7998 C1237.78976,3448.7998 1242.18424,3449.32714 1244.29363,3450.38184 C1249.56709,3452.40333 1253.17057,3455.25975 1255.10418,3458.95117 C1255.63152,3459.83008 1255.89519,3460.75292 1255.89519,3461.71973 L1255.89519,3461.9834 C1255.89519,3464.09278 1255.10419,3466.37792 1253.52215,3468.83887 C1250.35807,3469.98145 1247.19404,3470.55273 1244.02996,3470.55273 C1228.47324,3473.45314 1215.15794,3476.30956 1204.08367,3479.12207 C1202.41374,3479.64942 1199.42549,3480.26464 1195.11883,3480.96777 C1192.48209,3481.23145 1190.41668,3481.36328 1188.92254,3481.36328 L1190.10906,3482.41797 C1190.10906,3482.50586 1188.61493,3482.72558 1185.62664,3483.07715 C1178.06801,3483.60449 1172.75068,3484.21972 1169.67449,3484.92285 C1169.5866,3485.01074 1168.66376,3485.23047 1166.90594,3485.58203 L1166.90594,3485.71387 C1176.83763,3489.3174 1187.99962,3493.05272 1200.39226,3496.91992 L1208.56609,3499.68848 C1211.37861,3500.21582 1213.44401,3500.83105 1214.76238,3501.53418 C1215.28973,3501.70996 1215.64129,3501.97363 1215.81707,3502.3252 C1216.16863,3502.85254 1216.34441,3504.083 1216.34441,3506.0166 C1217.57489,3509.79592 1218.19011,3512.30078 1218.19011,3513.53125 L1218.19011,3515.37695 C1218.19011,3516.16797 1218.01434,3516.56348 1217.66277,3516.56348 C1214.93815,3518.23341 1210.89522,3520.03515 1205.53386,3521.96875 C1202.01822,3523.02344 1199.6452,3523.55078 1198.41472,3523.55078 C1182.06699,3526.01173 1168.2683,3528.8242 1157.01824,3531.98828 C1153.32682,3533.04297 1149.89912,3534.05371 1146.73504,3535.02051 C1146.73504,3535.1084 1147.35026,3535.63574 1148.58074,3536.60254 C1146.73503,3537.92091 1145.19696,3539.19531 1143.96648,3540.42578 C1143.70281,3540.68945 1142.9118,3542.18358 1141.59344,3544.9082 C1140.09929,3547.10548 1139.00067,3549.74217 1138.29754,3552.81836 L1137.11101,3556.37793 C1136.75945,3558.39942 1136.45183,3561.03612 1136.18816,3564.28809 C1136.10027,3564.72754 1135.96844,3564.94727 1135.79265,3564.94727 C1135.08953,3564.94727 1134.60613,3565.87011 1134.34246,3567.71582 C1133.11198,3572.28616 1132.49676,3575.3623 1132.49676,3576.94434 C1131.52995,3582.65726 1131.04656,3586.26073 1131.04656,3587.75488 L1131.04656,3588.01855 C1131.04656,3590.4795 1131.5739,3592.36913 1132.62859,3593.6875 C1133.24383,3594.74219 1134.16667,3595.84081 1135.39715,3596.9834 L1134.47429,3592.10547 C1134.3864,3591.49023 1134.34246,3590.65528 1134.34246,3589.60059 L1134.34246,3588.94141 C1134.34246,3588.23828 1134.43035,3586.91993 1134.60613,3584.98633 C1134.60613,3584.2832 1134.38641,3583.18458 1133.94695,3581.69043 C1133.94695,3581.25097 1134.3864,3580.37208 1135.26531,3579.05371 C1136.32,3577.03222 1136.84734,3575.18653 1136.84734,3573.5166 L1136.84734,3572.85742 L1136.58367,3569.29785 C1136.58367,3563.84861 1138.29752,3557.0811 1141.72527,3548.99512 C1143.21942,3545.74315 1145.10905,3542.97462 1147.39422,3540.68945 C1147.65789,3540.51367 1147.9655,3539.76661 1148.31707,3538.44824 C1148.58074,3537.9209 1149.02019,3537.65723 1149.63543,3537.65723 C1151.21747,3537.83301 1152.00847,3538.53613 1152.00847,3539.7666 C1152.00847,3540.29395 1151.12958,3542.35936 1149.37176,3545.96289 C1146.64713,3551.50003 1144.31805,3556.90525 1142.38445,3562.17871 C1139.74772,3569.56156 1138.42937,3576.50485 1138.42937,3583.00879 C1138.42937,3588.10647 1139.26433,3593.4238 1140.93426,3598.96094 L1141.06609,3598.96094 C1144.75752,3598.87305 1155.69979,3594.87406 1173.89324,3586.96387 C1183.47337,3582.65721 1190.32877,3579.2295 1194.45965,3576.68066 C1195.95379,3575.53808 1197.93131,3574.39551 1200.39226,3573.25293 C1204.61103,3571.49511 1208.03873,3570.61621 1210.67547,3570.61621 L1211.20281,3570.61621 C1212.69696,3570.61621 1213.75164,3570.96777 1214.36687,3571.6709 C1214.54265,3572.02246 1214.63054,3572.41797 1214.63054,3572.85742 C1214.27898,3575.49415 1214.1032,3576.98828 1214.1032,3577.33984 L1214.1032,3577.86719 C1214.1032,3578.04297 1214.19109,3578.43847 1214.36687,3579.05371 C1211.37858,3580.45997 1208.34638,3582.39354 1205.27019,3584.85449 C1204.65496,3585.55762 1204.34734,3585.95312 1204.34734,3586.04102 C1204.96258,3586.04102 1206.23698,3585.60157 1208.17058,3584.72266 L1212.12566,3581.82227 C1212.56512,3581.4707 1213.09246,3581.16309 1213.70769,3580.89941 L1213.70769,3581.03125 C1213.6198,3581.20703 1213.57586,3581.51465 1213.57586,3581.9541 C1213.83953,3584.15138 1213.97136,3585.38183 1213.97136,3585.64551 C1213.70769,3587.31544 1211.37861,3589.90819 1206.98406,3593.42383 C1202.06216,3597.11525 1196.74483,3600.32323 1191.03191,3603.04785 C1186.28579,3605.5088 1180.88057,3607.88182 1174.81609,3610.16699 L1174.81609,3608.98047 C1173.32194,3609.77149 1171.56415,3610.43066 1169.54265,3610.95801 C1167.96061,3611.39746 1165.63154,3611.70508 1162.55535,3611.88086 C1160.0944,3612.4961 1158.20477,3613.11133 1156.8864,3613.72656 C1155.74382,3614.60547 1154.07391,3615.30859 1151.87664,3615.83594 C1145.10903,3616.80274 1139.61592,3617.94531 1135.39715,3619.26367 C1135.39715,3619.35156 1135.22137,3619.39551 1134.8698,3619.39551 C1130.56314,3619.39551 1127.13544,3618.209 1124.5866,3615.83594 C1116.6764,3609.68356 1112.72136,3600.19147 1112.72136,3587.35938 C1112.72136,3575.66986 1115.97329,3561.43172 1122.47722,3544.64453 L1122.21355,3544.64453 C1120.54362,3544.64453 1119.09344,3543.15041 1117.86297,3540.16211 C1117.24773,3539.01953 1116.54461,3536.91017 1115.75359,3533.83398 L1115.35808,3531.98828 C1115.44597,3530.05468 1115.62175,3528.1211 1115.88543,3526.1875 L1115.88543,3526.05566 C1115.88543,3525.87988 1115.92937,3525.79199 1116.01726,3525.79199 L1115.88543,3525.52832 L1115.88543,3525.26465 C1115.88543,3524.38574 1116.1491,3522.93556 1116.67644,3520.91406 C1116.76433,3519.5957 1117.07195,3518.93652 1117.59929,3518.93652 C1119.62079,3518.1455 1123.00454,3517.17872 1127.75066,3516.03613 C1129.94794,3515.4209 1131.04656,3514.98145 1131.04656,3514.71777 L1131.04656,3514.4541 C1131.04656,3514.19043 1130.51922,3514.05859 1129.46453,3514.05859 L1129.06902,3514.05859 C1128.278,3514.05859 1126.34443,3514.54199 1123.26824,3515.50879 C1120.54362,3516.21192 1118.91766,3516.56348 1118.39031,3516.56348 C1118.21453,3515.77246 1118.12664,3515.15723 1118.12664,3514.71777 C1118.39031,3513.66308 1118.61004,3513.13574 1118.78582,3513.13574 L1119.445,3511.81738 C1131.57396,3508.91698 1148.71247,3505.44533 1170.86101,3501.40234 C1177.80441,3500.08398 1183.69302,3499.11719 1188.52703,3498.50195 L1188.52703,3498.37012 C1181.58363,3496.43651 1171.5642,3493.9756 1158.46844,3490.9873 C1154.24966,3489.84472 1150.33857,3488.79004 1146.73504,3487.82324 C1145.76824,3487.91113 1144.93328,3487.95508 1144.23015,3487.95508 L1143.17547,3487.95508 C1138.16568,3487.95508 1134.25458,3485.93361 1131.44207,3481.89062 C1129.77214,3479.166 1128.80535,3476.26564 1128.54168,3473.18945 C1128.54168,3472.48632 1127.92645,3470.20119 1126.69597,3466.33398 C1126.60808,3465.98242 1126.52019,3465.41114 1126.4323,3464.62012 C1126.4323,3463.21386 1127.22331,3462.20313 1128.80535,3461.58789 C1131.96943,3460.18163 1138.78088,3458.51173 1149.23992,3456.57812 C1159.87474,3454.55663 1175.87067,3452.53517 1197.2282,3450.51367 C1211.11499,3449.37109 1222.40882,3448.7998 1231.11004,3448.7998 Z M1169.41082,3458.6875 L1169.41082,3458.81934 C1169.41082,3459.43457 1170.15788,3459.74219 1171.65203,3459.74219 L1171.9157,3459.74219 C1176.8376,3459.30273 1182.63832,3458.77539 1189.31804,3458.16016 C1190.7243,3457.80859 1192.13054,3457.63281 1193.53679,3457.63281 C1193.88836,3457.63281 1194.94304,3457.7207 1196.70086,3457.89648 C1197.05242,3457.80859 1197.2282,3457.63281 1197.2282,3457.36914 C1197.2282,3456.31445 1195.9538,3455.78711 1193.40496,3455.78711 L1191.42742,3455.78711 C1184.7477,3455.78711 1177.8923,3456.40234 1170.86101,3457.63281 C1169.89421,3457.89649 1169.41082,3458.24804 1169.41082,3458.6875 Z M1135.66082,3465.14746 C1136.01238,3466.11426 1136.84733,3466.6416 1138.1657,3466.72949 C1140.45087,3466.72949 1142.77995,3466.20215 1145.15301,3465.14746 C1147.35028,3464.26855 1151.04165,3463.34571 1156.22722,3462.37891 C1160.62178,3461.58789 1163.56608,3460.88477 1165.06023,3460.26953 L1165.06023,3459.61035 C1164.79656,3459.1709 1163.87372,3458.95117 1162.29168,3458.95117 L1161.50066,3458.95117 C1160.88542,3458.95117 1158.73213,3459.39062 1155.0407,3460.26953 C1151.70084,3460.97266 1147.43819,3461.54394 1142.25261,3461.9834 C1140.31901,3462.07129 1138.2536,3462.73046 1136.05633,3463.96094 C1135.79265,3464.40039 1135.66082,3464.7959 1135.66082,3465.14746 Z M1153.72234,3508.25781 C1153.45867,3508.43359 1153.32683,3508.69726 1153.32683,3509.04883 C1153.41472,3509.22461 1153.5905,3509.3125 1153.85418,3509.3125 L1153.98601,3509.3125 C1154.24969,3509.3125 1154.38152,3509.18067 1154.38152,3508.91699 L1154.38152,3508.78516 C1154.38152,3508.43359 1154.1618,3508.25781 1153.72234,3508.25781 Z M1148.84441,3510.10352 L1148.84441,3510.23535 C1148.84441,3510.58692 1149.02019,3510.7627 1149.37176,3510.7627 C1149.72332,3510.7627 1149.98699,3510.58692 1150.16277,3510.23535 C1150.07488,3509.7959 1149.8991,3509.57617 1149.63543,3509.57617 L1149.37176,3509.57617 C1149.02019,3509.57617 1148.84441,3509.75195 1148.84441,3510.10352 Z M1144.09832,3511.55371 C1144.09832,3511.81738 1144.18621,3511.99316 1144.36199,3512.08105 L1144.62566,3512.08105 C1145.15301,3512.08105 1145.41668,3511.77344 1145.41668,3511.1582 L1145.41668,3511.02637 C1145.32879,3510.76269 1145.15301,3510.63086 1144.88933,3510.63086 C1144.36199,3510.63086 1144.09832,3510.93847 1144.09832,3511.55371 Z M1135.66082,3514.4541 C1135.66082,3514.71777 1135.92449,3514.9375 1136.45183,3515.11328 L1136.58367,3515.11328 C1137.63836,3515.11328 1138.95671,3514.542 1140.53875,3513.39941 C1141.06609,3512.87207 1141.32976,3512.38867 1141.32976,3511.94922 C1141.06609,3511.42187 1140.80242,3511.1582 1140.53875,3511.1582 C1138.42936,3511.77344 1136.8034,3512.78417 1135.66082,3514.19043 L1135.66082,3514.4541 Z M1156.09539,3533.96582 C1156.18328,3533.96582 1156.35906,3534.05371 1156.62273,3534.22949 C1156.62273,3535.37208 1155.87567,3536.29492 1154.38152,3536.99805 C1153.94207,3537.08594 1153.50262,3537.12988 1153.06316,3537.12988 L1152.93133,3537.12988 C1152.40398,3537.12988 1152.14031,3536.91016 1152.14031,3536.4707 L1152.14031,3536.20703 C1152.14031,3535.32812 1153.23893,3534.58106 1155.43621,3533.96582 L1156.09539,3533.96582 Z M1200.65594,3588.01855 C1201.79852,3587.93066 1202.80925,3587.44727 1203.68816,3586.56836 L1203.68816,3586.43652 C1202.63347,3586.43652 1201.62274,3586.96386 1200.65594,3588.01855 Z M1192.48211,3591.44629 L1192.48211,3591.57812 L1193.53679,3591.57812 C1195.55829,3591.57812 1197.27214,3590.65528 1198.6784,3588.80957 L1198.15105,3588.67773 C1195.77799,3588.67773 1193.88836,3589.60058 1192.48211,3591.44629 Z M1190.76824,3592.63281 L1190.90008,3592.63281 C1191.6911,3592.36914 1192.0866,3592.10547 1192.0866,3591.8418 L1191.95476,3591.8418 C1191.51531,3591.8418 1191.1198,3592.10547 1190.76824,3592.63281 Z M1335.59645,3426.7832 C1342.71563,3427.22266 1346.27516,3427.57422 1346.27516,3427.83789 C1347.68142,3428.27735 1348.82399,3429.15624 1349.7029,3430.47461 C1351.19705,3432.58399 1351.94411,3435.70408 1351.94411,3439.83496 C1351.94411,3442.64747 1351.63649,3445.54784 1351.02126,3448.53613 C1348.29663,3454.95218 1346.09939,3460.48923 1344.42946,3465.14746 C1342.0564,3472.26664 1339.72732,3480.30855 1337.44215,3489.27344 C1337.17848,3492.17384 1336.82692,3494.15136 1336.38747,3495.20605 C1335.24488,3497.13966 1333.7947,3498.10645 1332.03688,3498.10645 C1331.8611,3498.10645 1331.42165,3498.01856 1330.71852,3497.84277 C1330.45485,3497.93066 1330.27907,3497.97461 1330.19118,3497.97461 L1333.35524,3479.38574 L1333.35524,3479.25391 C1332.03687,3483.209 1330.45486,3489.31734 1328.60915,3497.5791 L1328.47731,3497.71094 C1325.40112,3497.71094 1323.29177,3496.43654 1322.14919,3493.8877 C1321.53395,3493.00878 1320.87478,3492.17383 1320.17165,3491.38281 C1319.46852,3489.88866 1319.11696,3486.94436 1319.11696,3482.5498 C1319.11696,3476.48532 1319.6443,3468.9268 1320.69899,3459.87402 C1312.34934,3465.32327 1304.74688,3470.72849 1297.89137,3476.08984 C1292.44213,3480.22072 1285.367,3486.32906 1276.66579,3494.41504 L1276.13844,3494.2832 L1275.6111,3494.2832 C1275.34743,3494.2832 1275.1277,3494.45898 1274.95192,3494.81055 L1275.08376,3495.86523 C1272.62281,3498.1504 1269.76639,3500.91893 1266.51442,3504.1709 C1270.11795,3507.68654 1272.75465,3509.92773 1274.42458,3510.89453 C1277.85233,3512.82813 1280.88452,3514.76171 1283.52126,3516.69531 C1286.15799,3518.54102 1289.36596,3521.00194 1293.14528,3524.07812 C1298.77031,3528.73635 1301.84645,3531.3291 1302.3738,3531.85645 C1303.16481,3533.43848 1304.92261,3535.81151 1307.64723,3538.97559 C1308.26247,3539.59082 1309.71265,3541.39256 1311.99782,3544.38086 C1313.22829,3545.69923 1314.45875,3547.58885 1315.68923,3550.0498 C1315.77712,3550.0498 1316.17262,3550.70898 1316.87575,3552.02734 L1317.00758,3552.02734 C1314.45874,3546.66599 1313.18434,3543.94141 1313.18434,3543.85352 C1315.38162,3546.84181 1317.05152,3549.52245 1318.19411,3551.89551 C1321.53397,3558.66312 1323.20387,3565.21091 1323.20387,3571.53906 L1323.20387,3573.5166 L1323.07204,3573.5166 C1322.98415,3573.16504 1322.76442,3572.72559 1322.41286,3572.19824 C1322.41286,3572.54981 1321.97341,3573.16503 1321.0945,3574.04395 C1320.83083,3574.04395 1320.47927,3575.31835 1320.03981,3577.86719 C1319.77614,3578.7461 1319.6443,3580.19628 1319.6443,3582.21777 C1319.29274,3585.46974 1318.89724,3587.66699 1318.45778,3588.80957 C1318.282,3589.77637 1318.19411,3591.05077 1318.19411,3592.63281 C1318.01833,3593.51172 1317.31521,3594.65429 1316.08473,3596.06055 C1315.82106,3596.93946 1314.32693,3599.00487 1311.60231,3602.25684 L1311.99782,3602.65234 C1308.30639,3606.0801 1305.01053,3608.80468 1302.11012,3610.82617 C1294.81517,3616.18753 1289.67361,3619.13183 1286.68532,3619.65918 C1284.9275,3620.01074 1283.69704,3620.18652 1282.99391,3620.18652 L1282.46657,3618.60449 C1281.58766,3619.04395 1280.8406,3619.30762 1280.22536,3619.39551 L1279.96169,3619.92285 C1280.75271,3620.09863 1281.49977,3620.18652 1282.2029,3620.18652 L1282.2029,3620.31836 C1281.93922,3620.31836 1280.26932,3621.15331 1277.19313,3622.82324 C1276.49,3623.35059 1273.32597,3624.36132 1267.70094,3625.85547 C1264.44897,3626.5586 1261.81228,3626.91016 1259.79079,3626.91016 L1259.39528,3626.91016 C1258.34059,3626.91016 1257.32985,3626.77832 1256.36305,3626.51465 C1254.69312,3626.77832 1253.24294,3626.91016 1252.01247,3626.91016 L1251.7488,3626.91016 C1245.68431,3626.91016 1240.71854,3622.42778 1236.85133,3613.46289 C1235.97242,3610.91405 1235.18142,3608.23341 1234.47829,3605.4209 C1233.68727,3601.55369 1233.29176,3598.82911 1233.29176,3597.24707 L1233.4236,3597.24707 C1236.32401,3599.18067 1239.8396,3600.14746 1243.97048,3600.14746 C1251.08965,3600.14746 1259.39523,3597.55471 1268.88747,3592.36914 C1271.61209,3590.87499 1274.64429,3588.89747 1277.98415,3586.43652 C1282.64237,3582.56932 1286.77319,3578.92189 1290.37673,3575.49414 C1290.37673,3575.40625 1290.90406,3574.79102 1291.95876,3573.64844 C1294.94705,3570.30858 1296.92457,3567.23244 1297.89137,3564.41992 C1298.50661,3562.83788 1298.81423,3561.12403 1298.81423,3559.27832 C1298.72633,3558.4873 1298.68239,3557.91602 1298.68239,3557.56445 C1296.92457,3554.48827 1295.73806,3552.55469 1295.12282,3551.76367 C1292.66187,3549.65429 1290.15701,3547.89649 1287.60817,3546.49023 C1286.11402,3545.61132 1280.7088,3542.44729 1271.39235,3536.99805 C1267.08569,3534.36131 1263.35037,3531.81251 1260.1863,3529.35156 C1253.77025,3524.34177 1250.21071,3520.12306 1249.50758,3516.69531 L1249.11208,3514.19043 C1246.38745,3511.81737 1244.6736,3509.97169 1243.97048,3508.65332 C1242.65211,3506.63183 1241.99294,3504.2588 1241.99294,3501.53418 C1241.99294,3493.71187 1242.91578,3488.08693 1244.76149,3484.65918 C1245.99197,3481.58299 1248.71655,3477.71584 1252.93532,3473.05762 C1254.95681,3470.86034 1256.67066,3469.23438 1258.07692,3468.17969 C1264.49297,3463.25779 1271.26048,3458.68752 1278.37965,3454.46875 C1288.57502,3448.14059 1298.06711,3442.91115 1306.85622,3438.78027 C1310.19608,3437.28613 1313.31616,3436.05567 1316.21657,3435.08887 C1318.58963,3434.38574 1320.96265,3434.03418 1323.33571,3434.03418 C1324.82986,3434.03418 1326.45582,3434.16601 1328.21364,3434.42969 C1328.47731,3432.75976 1328.91676,3431.26563 1329.532,3429.94727 C1330.23513,3428.6289 1331.20191,3427.75 1332.43239,3427.31055 C1333.48708,3426.95898 1334.54176,3426.7832 1335.59645,3426.7832 Z M1299.20973,3446.9541 C1299.29762,3447.56934 1299.56129,3447.87695 1300.00075,3447.87695 C1304.04374,3446.11913 1306.50465,3444.7129 1307.38356,3443.6582 L1307.5154,3443.52637 C1307.16383,3443.1748 1306.94411,3442.99902 1306.85622,3442.99902 C1303.86792,3443.87793 1301.31912,3445.19628 1299.20973,3446.9541 Z M1295.91383,3448.4043 L1296.83669,3448.00879 L1296.83669,3447.74512 C1296.83669,3447.65723 1296.7488,3447.61328 1296.57301,3447.61328 C1296.22145,3447.61328 1296.00173,3447.87695 1295.91383,3448.4043 Z M1254.38551,3481.75879 C1255.44021,3481.75879 1256.45094,3481.2754 1257.41774,3480.30859 C1257.59352,3480.13281 1258.42848,3479.03419 1259.92262,3477.0127 C1265.54765,3471.47556 1270.03003,3467.43263 1273.36989,3464.88379 C1277.50077,3461.63182 1281.0603,3459.08302 1284.0486,3457.2373 C1286.59744,3455.91894 1290.02514,3453.41408 1294.3318,3449.72266 L1295.38649,3448.66797 L1294.85915,3448.66797 C1293.62867,3448.66797 1292.31033,3449.2832 1290.90407,3450.51367 C1284.31224,3454.38088 1277.76445,3458.81931 1271.26051,3463.8291 C1269.94215,3465.05958 1268.66775,3466.24609 1267.43727,3467.38867 C1265.50367,3468.88282 1263.78982,3470.333 1262.29567,3471.73926 C1259.57105,3474.37599 1257.59353,3476.57323 1256.36305,3478.33105 C1254.9568,3480.44044 1254.25368,3481.58301 1254.25368,3481.75879 L1254.38551,3481.75879 Z M1331.90505,3495.33789 C1333.22341,3495.25 1333.88258,3495.16211 1333.88258,3495.07422 C1333.88258,3494.98633 1334.01442,3494.45899 1334.27809,3493.49219 L1334.01442,3493.36035 C1333.83864,3493.36035 1333.17947,3493.93163 1332.03688,3495.07422 C1332.03688,3495.07422 1331.99294,3495.16211 1331.90505,3495.33789 Z M1287.47633,3528.42871 C1289.93728,3530.45021 1292.17847,3531.63672 1294.19997,3531.98828 C1293.32106,3530.49413 1291.82693,3529.43946 1289.71755,3528.82422 C1288.66285,3528.56055 1287.91579,3528.42871 1287.47633,3528.42871 Z M1294.59548,3532.25195 C1294.59548,3533.04297 1295.07887,3533.74609 1296.04567,3534.36133 C1300.08866,3538.22853 1302.41774,3540.68945 1303.03298,3541.74414 C1305.40603,3544.55665 1307.38355,3547.32518 1308.96559,3550.0498 C1310.54763,3553.0381 1311.60231,3554.75195 1312.12965,3555.19141 C1312.48122,3555.54297 1313.0525,3555.80664 1313.84352,3555.98242 C1313.84352,3555.1914 1313.53591,3554.22462 1312.92067,3553.08203 C1310.98707,3549.30272 1308.21854,3545.25979 1304.61501,3540.95312 C1301.01147,3536.91014 1298.50661,3534.44922 1297.10036,3533.57031 C1296.57301,3533.21875 1295.73806,3532.7793 1294.59548,3532.25195 Z M1295.25465,3608.05762 C1295.25465,3608.67285 1295.56227,3609.06836 1296.17751,3609.24414 C1296.44118,3609.41992 1296.6609,3609.50781 1296.83669,3609.50781 C1300.08866,3607.92577 1303.42847,3605.86036 1306.85622,3603.31152 C1311.51444,3599.53221 1314.59058,3595.709 1316.08473,3591.8418 C1315.73317,3591.49023 1315.33766,3591.13867 1314.89821,3590.78711 L1314.76637,3590.78711 C1312.39331,3593.33595 1308.83378,3596.98337 1304.08766,3601.72949 C1302.68141,3603.22364 1300.96756,3604.49804 1298.94606,3605.55273 C1297.5398,3606.43165 1296.35329,3607.22265 1295.38649,3607.92578 L1295.25465,3608.05762 Z" id="services"></path>
        </g>
    </g>
</svg>