<svg xmlns="http://www.w3.org/2000/svg" width="512" height="432" viewBox="0 0 512 432">
    <g>
        <path d="M116.188 48.89h259.265c1.422 0 2.578 1.157 2.578 2.579v80.097c0 4.27 3.457 7.73 7.727 7.73 4.27 0 7.73-3.46 7.73-7.73V51.47c0-9.946-8.09-18.035-18.035-18.035H116.188c-4.27 0-7.731 3.46-7.731 7.73 0 4.266 3.461 7.727 7.73 7.727z"/>
        <path d="M496.691 236.363c-13.648-18.21-34.39-29.093-56.914-29.855-.875-.028-1.754-.043-2.636-.043h-9.211V173.55c20.61-2.766 36.558-20.453 36.558-41.809 0-21.355-15.949-39.043-36.558-41.812V20.172C427.93 9.05 418.879 0 407.758 0H20.172C9.05 0 0 9.05 0 20.172v258.36c0 11.12 9.05 20.171 20.172 20.171h146.422v29.602h-15.266c-10.156 0-18.418 8.261-18.418 18.414v2.742c0 10.152 8.262 18.414 18.418 18.414h84.758l8.637 33.703c4.668 18.227 19.84 30.113 38.652 30.285h.41c18.625 0 33.824-11.57 38.79-29.57.062-.223.113-.445.155-.672l6.207-34.148c12.008-.164 23.508-4.907 32.133-13.192h7.727c8.316 7.989 19.3 12.688 30.844 13.16l6.21 34.18c.044.223.094.45.153.672 4.969 18.004 20.164 29.57 38.789 29.57h.414c18.813-.172 33.984-12.058 38.652-30.285l25.73-100.426c5.77-22.535 1.071-46.148-12.898-64.789zm-103.203-29.898v-3.695c0-4.27-3.46-7.73-7.726-7.73-4.27 0-7.73 3.46-7.73 7.73v3.695h-6.012v-10.621c0-12.078 9.828-21.903 21.906-21.903h18.547v32.524h-18.985zm55.54-74.723c0 12.809-9.055 23.54-21.098 26.137v-52.274c12.043 2.598 21.097 13.329 21.097 26.137zM15.456 278.532V20.171c0-2.598 2.113-4.715 4.715-4.715h387.586c2.601 0 4.715 2.117 4.715 4.715V158.48h-18.547c-20.606 0-37.363 16.762-37.363 37.364v10.62h-65.125c-.883 0-1.762.013-2.633.044-22.524.762-43.27 11.644-56.918 29.855-.645.856-1.262 1.73-1.864 2.61H52.477c-1.422 0-2.579-1.153-2.579-2.575V51.468c0-1.421 1.157-2.577 2.579-2.577h26.609c4.27 0 7.73-3.461 7.73-7.727 0-4.27-3.46-7.73-7.73-7.73h-26.61c-9.945 0-18.035 8.09-18.035 18.035v184.93c0 9.945 8.09 18.035 18.036 18.035h169.335c-3.593 9.175-5.367 18.945-5.218 28.812H20.172c-2.598-.004-4.715-2.117-4.715-4.715zm166.594 20.171h36.36c.179.817.37 1.633.581 2.45l6.957 27.152h-43.898v-29.602zm-30.723 53.715c-1.633 0-2.957-1.328-2.957-2.957v-2.742c0-1.63 1.324-2.957 2.957-2.957h78.578l2.219 8.656h-80.797zm156.258 46.078c-3.805 13.227-15.14 17.91-23.848 17.91h-.222c-8.801-.082-20.325-5.02-23.82-18.664L244.91 340.04c11.945 9.004 26.742 14.242 42.54 14.242h8.073c5.172 4.973 11.387 8.66 18.125 10.86l-6.062 33.355zm70.246-57.094c-1.465-1.64-3.562-2.578-5.762-2.578h-14.28c-2.2 0-4.294.938-5.763 2.578-6.039 6.754-14.687 10.63-23.734 10.63-9.043 0-17.695-3.876-23.734-10.63-1.465-1.64-3.563-2.578-5.762-2.578h-11.348c-25.23 0-47.222-17.07-53.484-41.508-4.02-15.695-1.668-32.05 6.418-45.847.34-.438.633-.91.879-1.414.933-1.504 1.922-2.985 2.996-4.422 10.824-14.442 27.25-23.07 45.066-23.672.703-.027 1.406-.04 2.113-.04h65.168c.415 3.88 3.696 6.903 7.684 6.903s7.27-3.023 7.684-6.902h47.62c.2.02.403.031.606.031.207 0 .406-.012.61-.031h16.332c.707 0 1.41.012 2.113.039 17.816.601 34.238 9.23 45.062 23.672 11.149 14.87 14.899 33.71 10.293 51.683-6.257 24.438-28.254 41.508-53.48 41.508h-10.063c-2.203 0-4.296.938-5.761 2.578-6.043 6.754-14.692 10.63-23.739 10.63-9.043 0-17.691-3.876-23.734-10.63zm91.05 56.34c-3.495 13.645-15.015 18.582-23.82 18.664h-.218c-8.707 0-20.047-4.687-23.852-17.91l-5.988-32.96c7.203-2.141 13.851-5.985 19.336-11.255h6.789c15.797 0 30.594-5.238 42.535-14.242l-14.781 57.703z"/>
        <path d="M328.297 294.672c-12.992 0-23.559 10.566-23.559 23.555 0 12.988 10.567 23.554 23.559 23.554 12.988 0 23.555-10.566 23.555-23.554 0-12.989-10.57-23.555-23.555-23.555zm0 31.652c-4.465 0-8.098-3.633-8.098-8.097 0-4.465 3.63-8.098 8.098-8.098 4.465 0 8.094 3.633 8.094 8.098 0 4.464-3.633 8.097-8.094 8.097zM425.121 318.227c0-12.989-10.562-23.555-23.555-23.555-12.988 0-23.554 10.566-23.554 23.555 0 12.988 10.566 23.554 23.554 23.554 12.993 0 23.555-10.566 23.555-23.554zm-31.648 0c0-4.465 3.632-8.098 8.097-8.098s8.094 3.633 8.094 8.098c0 4.464-3.629 8.097-8.094 8.097s-8.097-3.633-8.097-8.097zM318.691 276.43c0-4.27-3.46-7.73-7.73-7.73h-20.008V248.69c0-4.27-3.46-7.73-7.73-7.73-4.27 0-7.73 3.46-7.73 7.73V268.7h-20.009c-4.27 0-7.73 3.461-7.73 7.73 0 4.27 3.46 7.731 7.73 7.731h20.008v20.008c0 4.27 3.461 7.73 7.73 7.73 4.27 0 7.731-3.46 7.731-7.73V284.16h20.008c4.27 0 7.73-3.46 7.73-7.73zM459.848 301.816c0 7.293-5.91 13.207-13.203 13.207-7.297 0-13.207-5.914-13.207-13.207 0-7.293 5.91-13.203 13.207-13.203 7.293 0 13.203 5.91 13.203 13.203zM459.848 252.672c0 7.293-5.91 13.207-13.203 13.207-7.297 0-13.207-5.914-13.207-13.207 0-7.293 5.91-13.207 13.207-13.207 7.293 0 13.203 5.914 13.203 13.207zM435.277 277.246c0 7.293-5.914 13.207-13.207 13.207-7.293 0-13.207-5.914-13.207-13.207 0-7.293 5.914-13.207 13.207-13.207 7.293 0 13.207 5.914 13.207 13.207zM484.422 277.246c0 7.293-5.914 13.207-13.207 13.207-7.293 0-13.203-5.914-13.203-13.207 0-7.293 5.91-13.207 13.203-13.207 7.293 0 13.207 5.914 13.207 13.207z"/>
    </g>
</svg>
