<?xml version="1.0" encoding="UTF-8"?>
<svg width="1188px" height="345px" viewBox="0 0 1188 345" version="1.1" xmlns="http://www.w3.org/2000/svg" xmlns:xlink="http://www.w3.org/1999/xlink">
    <!-- Generator: Sketch 54.1 (76490) - https://sketchapp.com -->
    <title>TFGaming</title>
    <desc>Created with Sketch.</desc>
    <g id="Page-1" stroke="none" stroke-width="1" fill="none" fill-rule="evenodd">
        <g id="TFGaming" transform="translate(-3.000000, -14.000000)" stroke="#FFFFFF">
            <path d="M215.055151,21.7997408 L217.574122,21.7997408 C234.703207,21.7997408 249.425043,25.2165023 261.740072,32.0501279 C264.874806,34.0666076 267.337775,38.1555189 269.129052,44.3169846 C270.696419,50.0303437 271.480091,54.343305 271.480091,57.2559978 C271.480091,58.152211 270.920326,59.0484108 269.800778,59.944624 C269.017094,60.2807039 268.233422,60.4487414 267.449738,60.4487414 C264.762823,60.4487414 260.73251,58.8243793 255.35868,55.5756065 C252.3359,54.0072334 248.641447,53.2230586 244.275209,53.2230586 L242.427964,53.2230586 C234.479173,53.2230586 220.03722,55.6876079 199.101671,60.6167805 C189.361603,62.8573135 179.509728,64.7617379 169.54575,66.330111 C165.403422,67.0022709 158.294398,67.7864457 148.218466,68.6826589 C146.315234,69.1307655 145.027773,69.6908903 144.356044,70.3630502 C143.572361,71.37129 143.012595,72.8836271 142.676731,74.9001068 C141.557183,84.7584519 140.493628,91.1438751 139.486035,94.0565679 C137.582803,101.226273 135.51167,108.059797 133.272574,114.557342 C130.361749,124.191634 128.906358,130.689082 128.906358,134.049882 C126.555307,146.48484 123.924409,156.567087 121.013584,164.296925 C118.214714,173.259057 115.807722,182.893205 113.792535,193.199656 C112.672987,200.705442 111.16162,208.77124 109.258388,217.397291 C105.451925,237.001955 103.548722,248.148439 103.548722,250.837079 C101.309625,263.608117 99.3504457,277.387188 97.6711237,292.174706 C97.1113496,296.319692 96.8314668,300.744678 96.8314668,305.449797 C96.8314668,310.266943 97.2233028,323.541902 98.0069864,345.275072 L98.0069864,346.115267 C98.0069864,348.243774 97.8390567,349.308011 97.5031923,349.308011 L94.1445649,349.308011 C93.2489264,348.187744 92.3533014,347.515594 91.457663,347.291541 L91.457663,346.955463 C91.457663,345.835196 92.2413349,344.210834 93.8087022,342.082328 C94.3684762,341.074088 94.648359,340.233901 94.648359,339.561741 C94.648359,338.553501 93.4168746,337.265214 90.9538689,335.696841 L91.1218002,335.696841 C90.8978906,334.240495 90.7859375,332.896195 90.7859375,331.663902 C90.7859375,328.639182 91.4576563,325.390458 92.8011139,321.917632 C92.8011139,321.805605 92.8570905,321.637568 92.9690453,321.413515 C92.9690453,320.965408 92.5772094,319.397059 91.7935257,316.708419 C91.3457065,314.467886 91.1218002,312.171374 91.1218002,309.818815 C91.1218002,302.873162 91.8494956,297.327926 93.304908,293.18294 C94.0885917,292.286727 94.6483573,291.44654 94.9842217,290.662353 C95.2081314,289.878167 95.3200845,289.26203 95.3200845,288.813923 L95.3200845,288.477845 C95.3200845,287.805685 94.9282485,286.293348 94.1445649,283.940788 C93.8087005,282.372415 93.6407708,280.91609 93.6407708,279.571771 L93.6407708,278.227458 C93.6407708,276.547058 94.0885833,274.026496 94.9842217,270.665697 C95.991815,266.744764 96.4956041,263.103952 96.4956041,259.743153 C97.0553781,254.589927 97.7270969,249.940891 98.5107805,245.795905 C100.861831,236.161613 103.156871,224.398991 105.395967,210.507687 C105.507921,209.499447 105.563898,208.65926 105.563898,207.9871 L105.563898,207.651022 C105.563898,207.202915 105.172062,206.922853 104.388378,206.810826 C103.380785,206.810826 102.597113,207.763038 102.037339,209.667491 C100.693882,213.140317 99.6303269,216.557079 98.8466432,219.917878 C98.398824,221.934358 98.0069881,224.847007 97.6711237,228.655913 C96.2157112,237.393992 94.2565315,247.756302 91.7935257,259.743153 C91.1217969,263.888139 90.1701953,270.777675 88.9386924,280.411966 C86.3637319,292.734898 85.0762709,303.321257 85.0762709,312.171362 C85.1882257,314.972029 85.3001789,317.156516 85.4121337,318.724889 C85.1882241,324.102168 85.0762709,329.535379 85.0762709,335.024684 L85.0762709,337.545271 C85.0762709,340.794044 85.1322475,343.930743 85.2442023,346.955463 C85.0202927,347.06749 84.7963864,347.123502 84.5724768,347.123502 L83.73282,347.123502 C80.9339498,347.123502 78.470981,345.611165 76.3438397,342.586445 C73.0971503,339.225646 71.3618769,337.153184 71.1379673,336.368998 C67.3315038,329.199292 65.4283007,316.652496 65.4283007,298.728232 C65.4283007,283.492608 66.6597851,267.136962 69.1227908,249.660805 C73.041209,227.479529 77.6872638,205.802697 83.0610945,184.629661 C90.1142473,154.942599 97.335224,127.216419 104.724241,101.45029 C106.067699,95.0647708 106.739418,87.6711229 106.739418,79.2691242 L106.739418,78.2608894 L106.571486,78.2608894 C87.2033048,83.5261419 68.7310388,89.6315027 51.1541343,96.5771549 C41.9738402,100.162008 35.3126291,102.570545 31.1703013,103.802838 C30.2746628,104.138918 29.4350144,104.306955 28.6513307,104.306955 C23.5014097,104.306955 19.6390268,101.954431 17.0640662,97.2493115 C15.9445182,95.1208051 15.3847525,93.0483432 15.3847525,91.0318635 C15.3847525,90.0236237 14.6570572,88.1191992 13.2016447,85.318533 C13.2016447,84.9824531 11.8582072,82.9099912 9.17129184,79.1010851 L9.17129184,78.5969677 C9.17129184,76.0203548 15.2727373,72.6035933 27.4758112,68.3465806 C40.3506139,63.753488 50.3144422,60.0566641 57.3675949,57.2559978 C63.4131545,54.2312783 75.1682328,50.3104044 92.6331826,45.4932585 C118.606698,38.2115264 146.371073,31.8261032 175.927142,26.3367974 C192.048634,23.3120779 205.091173,21.7997408 215.055151,21.7997408 Z M85.4121337,55.7436456 L85.4121337,55.9116848 C88.2110038,55.4635782 89.6104179,54.8474409 89.6104179,54.0632543 C89.4984631,53.2790678 89.2185803,52.8869804 88.7707611,52.8869804 L88.6028297,52.8869804 C87.8191461,52.8869804 86.7555913,53.8391926 85.4121337,55.7436456 Z M25.7964975,78.2608894 L25.7964975,78.4289286 C26.9160455,78.7650085 27.9236237,78.933046 28.8192621,78.933046 L29.4909876,78.933046 C31.5061741,78.933046 34.1930491,78.2608962 37.5516933,76.9165764 C46.7319874,74.1159102 55.4083548,70.8671861 63.5810556,67.1703067 C71.6418017,63.3614006 78.5828955,59.6645767 84.4045455,56.0797239 L84.2366141,56.0797239 C79.646467,56.0797239 75.1123654,57.3119986 70.6341731,59.7765848 C68.8428962,60.5607714 64.9245368,61.905071 58.8789773,63.809524 C48.8030447,67.3943768 38.7272633,71.3152507 28.6513307,75.5722633 C28.0915567,75.9083433 27.1399551,76.804543 25.7964975,78.2608894 Z M20.7585564,79.2691242 L20.7585564,79.6052025 C20.7585564,79.7172292 21.0944158,79.8292541 21.7661446,79.9412808 C22.5498282,79.9412808 23.5574064,79.4931809 24.7889092,78.5969677 L24.7889092,78.4289286 C23.6693612,78.0928486 22.9416659,77.9248112 22.6058014,77.9248112 L22.2699387,77.9248112 C21.2623454,78.0368378 20.7585564,78.4849377 20.7585564,79.2691242 Z M120.845653,143.796151 C119.39024,146.596817 118.662545,149.005354 118.662545,151.021834 L118.662545,153.206343 L118.830476,153.206343 C120.509798,149.509463 121.349447,146.708839 121.349447,144.804386 C121.349447,144.356279 121.181517,144.020205 120.845653,143.796151 Z M114.128398,167.657708 L114.128398,170.178295 L114.296329,170.178295 C117.095199,166.033309 118.494613,160.880161 118.494613,154.718695 L118.494613,154.214578 C117.48702,155.334844 116.479442,157.295281 115.471849,160.095947 C114.57621,162.784587 114.128398,165.305149 114.128398,167.657708 Z M110.433908,183.285347 C110.433908,183.509401 110.489884,184.181551 110.601839,185.301817 L110.76977,185.301817 C111.777364,183.397364 112.281153,181.548952 112.281153,179.756526 L112.281153,179.420447 C112.281153,178.636261 112.225176,177.908099 112.113221,177.235939 C110.993673,179.028365 110.433908,181.044815 110.433908,183.285347 Z M109.090457,190.51103 C107.29918,194.095883 106.403555,197.512645 106.403555,200.761417 L106.403555,202.27377 C108.194832,198.57689 109.090457,194.992091 109.090457,191.519265 L109.090457,190.51103 Z M326.407084,45.6612977 L329.093985,45.6612977 C347.454574,45.6612977 363.183988,49.3021091 376.2827,56.5838413 C376.954429,57.1439745 377.290289,57.4800495 377.290289,57.5920761 C377.290289,59.6085558 377.794078,61.1769053 378.801671,62.2971718 C380.145129,64.2016248 381.824425,68.5145861 383.839612,75.2361851 C383.391793,76.9165848 382.216285,78.3729094 380.313053,79.6052025 C379.417415,80.0533091 378.465813,80.4453965 377.45822,80.7814764 L372.252347,80.7814764 C368.445884,80.7814764 365.367173,81.1175513 363.016122,81.7897112 C355.179286,81.229578 349.357723,80.9495156 345.55126,80.9495156 L342.360564,80.9495156 C336.650869,80.9495156 326.68704,82.2938152 312.46878,84.9824548 C295.00383,87.783121 274.572384,90.5837452 251.17383,93.3844114 C243.672858,94.3926512 239.922428,94.9527761 239.922428,95.0648027 C238.355061,104.138961 236.339905,113.829121 233.876899,124.135573 C230.742164,136.906611 227.5515,149.453407 224.304811,161.776338 C253.077196,156.623113 272.445087,153.038314 282.409065,151.021834 C284.312296,150.797781 286.439406,150.685756 288.790457,150.685756 L289.965976,150.685756 C297.690858,150.685756 305.80746,151.69398 314.316025,153.71046 C317.45076,154.606673 319.745799,156.006985 321.201211,157.911438 C322.992488,160.712105 323.888113,164.184879 323.888113,168.329865 C323.888113,170.794451 323.60823,172.026726 323.048456,172.026726 C323.048456,172.138752 322.488691,172.642865 321.369142,173.539078 C317.898544,175.779611 312.468817,178.188148 305.0798,180.764761 C302.728749,181.43692 298.138671,182.277108 291.309427,183.285347 L241.937605,192.695539 C237.235503,193.703779 234.716557,194.207891 234.380693,194.207891 C232.701371,193.199651 231.805746,192.695539 231.693791,192.695539 C231.245972,192.695539 230.29437,193.479714 228.838958,195.048087 C228.391139,195.160113 228.111256,195.216126 227.999301,195.216126 L227.663438,195.216126 C226.655845,194.768019 226.040103,194.543969 225.816193,194.543969 L225.48033,194.543969 C224.808602,194.543969 222.849422,195.216119 219.602733,196.560439 C218.931004,196.784492 217.643543,196.95253 215.740311,197.064556 C214.396853,197.28861 212.32572,198.800947 209.52685,201.601613 C208.631212,202.721879 207.735587,203.506054 206.839948,203.954161 C205.160626,205.858614 204.209025,206.810826 203.985115,206.810826 C202.977522,207.146906 202.473733,207.931081 202.473733,209.163374 C202.473733,211.29188 201.130295,218.741541 198.44338,231.512579 L196.260272,243.107279 C196.036363,244.563625 194.972808,246.748112 193.069576,249.660805 L192.733713,250.837079 C192.845668,251.285186 193.293481,251.509235 194.077164,251.509235 C194.189119,251.733289 194.245096,251.957339 194.245096,252.181392 C192.006,264.392297 190.21475,273.690369 188.871292,280.075888 C187.863699,283.324661 186.85612,288.253759 185.848527,294.863332 C184.728979,302.705197 184.169214,308.978595 184.169214,313.683715 L184.337145,317.548615 L184.337145,321.581554 C184.337145,324.04614 184.952887,325.558477 186.18439,326.11861 L186.856115,325.278415 C186.520251,323.934095 186.352321,322.645808 186.352321,321.413515 C186.464276,319.845142 186.800136,316.372368 187.35991,310.995088 C187.471864,310.434955 187.527841,309.87483 187.527841,309.314697 C187.303931,307.970377 187.191978,306.850128 187.191978,305.953915 C187.191978,303.713382 187.639791,300.96877 188.535429,297.719997 C188.535429,295.367437 189.207148,291.110489 190.550606,284.949023 C190.88647,282.820517 191.390259,278.899643 192.061988,273.186284 C193.629355,264.448205 195.420605,257.446644 197.435792,252.181392 C198.219475,248.932619 198.779241,244.619658 199.115105,239.242379 C199.898789,236.889819 200.570508,233.024958 201.130282,227.647679 C202.921559,221.26216 203.87316,218.013436 203.985115,217.901409 C204.209025,218.349515 204.432931,218.573565 204.656841,218.573565 C205.10466,218.349512 206.056261,216.27705 207.511674,212.356117 C207.847538,211.347878 208.519257,210.843765 209.52685,210.843765 L210.030644,210.843765 L210.030644,211.011804 C207.231774,220.085963 204.824782,228.375811 202.809596,235.881596 C199.227042,248.876687 196.036378,265.008283 193.237507,284.276866 C191.446231,296.263718 190.550606,308.362414 190.550606,320.573319 L190.550606,321.077436 C190.550606,324.662289 190.606582,334.408461 190.718537,350.316246 C190.718537,355.133391 190.494631,357.541928 190.046811,357.541928 L189.207155,357.541928 C186.856104,357.429902 185.680596,357.261864 185.680596,357.037811 C185.680596,355.917544 185.512666,354.517232 185.176802,352.836833 C184.281163,355.413445 183.833351,356.813758 183.833351,357.037811 L180.810586,357.037811 C176.780213,357.037811 174.093338,356.085599 172.74988,354.181146 C170.17492,351.156426 168.103787,348.915927 166.53642,347.45958 C164.969052,345.891207 163.569638,342.922546 162.338135,338.553506 C160.322949,330.711641 159.315371,320.237306 159.315371,307.130188 L159.315371,306.289993 C159.315371,280.29981 162.897871,253.357805 170.062978,225.46317 C170.958617,221.76629 171.910218,218.013454 172.917812,214.204548 C171.910218,213.756441 170.790687,212.580179 169.559184,210.675726 C167.879862,207.87506 166.592401,204.906398 165.696763,201.769652 C163.345712,192.695494 162.170204,186.870195 162.170204,184.293582 C162.058249,183.957502 162.002273,183.397378 162.002273,182.613191 C162.114228,177.684018 162.450087,175.219469 163.009861,175.219469 C164.353319,173.987176 166.200545,173.203001 168.551596,172.866921 L178.963341,171.690647 C181.426347,171.018487 182.769784,170.682413 182.993694,170.682413 L182.993694,172.698882 C182.993694,172.922935 183.329553,173.03496 184.001282,173.03496 C184.561056,173.03496 185.232775,171.914711 186.016459,169.674178 C187.136007,166.873512 189.487022,159.703914 193.069576,148.165169 C193.62935,146.708822 194.804858,145.196485 196.596135,143.628112 C197.155909,142.955952 197.435792,142.283802 197.435792,141.611643 C197.211882,140.491376 197.099929,139.203089 197.099929,137.746742 L197.099929,137.410664 C197.099929,134.946078 197.659695,132.369504 198.779243,129.680864 C198.891197,129.344784 199.003151,128.280547 199.115105,126.488121 C200.682473,119.094362 201.466145,111.140589 201.466145,102.626564 C190.382619,105.651283 180.75465,109.012032 172.581949,112.708912 C169.783079,113.829178 167.655969,114.389303 166.200557,114.389303 L165.696763,114.389303 C161.106616,114.389303 156.572514,110.860517 152.094322,103.802838 C149.407407,98.9856917 148.063969,95.3448803 148.063969,92.880294 L148.063969,92.2081375 L151.086734,90.5277461 C155.229062,88.0631599 161.162577,85.4865856 168.887459,82.797946 C172.581967,81.3415996 175.044936,80.2213499 176.276439,79.4371634 C176.388394,79.3251367 176.444371,79.2131118 176.444371,79.1010851 L176.444371,78.5969677 C176.444371,78.4849411 175.940581,78.3169036 174.932988,78.0928503 C172.693892,78.0928503 170.230923,78.7650001 167.544008,80.1093199 C163.40168,82.0137729 157.356211,84.0862348 149.40742,86.3267678 C148.063962,86.5508211 146.664548,87.0549335 145.209136,87.83912 C144.985226,87.6150667 144.817296,87.0549419 144.705342,86.1587287 C144.705342,78.4288899 168.495381,70.0270173 216.076174,60.9528588 C242.049689,55.7996329 272.668869,51.0945842 307.934633,46.8375716 C314.428012,46.0533851 320.585434,45.6612977 326.407084,45.6612977 Z M330.773299,50.7024717 C327.638565,50.7024717 324.391924,50.5904467 321.03328,50.3663934 L310.621535,51.2065891 L310.117741,51.2065891 C309.446012,51.2065891 308.718317,51.1505766 307.934633,51.0385499 C305.247718,51.0385499 302.11303,51.6546872 298.530476,52.8869804 C298.194612,52.999007 297.802776,53.0550195 297.354957,53.0550195 L295.171849,53.0550195 C289.014334,53.0550195 282.297147,53.9512193 275.020084,55.7436456 C274.124446,56.1917522 273.676634,56.5838396 273.676634,56.9199196 C273.676634,57.5920795 274.236399,57.9841668 275.355947,58.0961935 C283.640603,57.312007 290.077908,56.4718197 294.668055,55.5756065 C299.482111,54.79142 309.669846,54.0072452 325.231564,53.2230586 L328.758123,53.2230586 C331.333083,53.2230586 337.098669,53.5591335 346.055054,54.2312934 L356.298867,54.7354108 C355.067365,52.9429845 352.940255,52.0467847 349.917475,52.0467847 C342.416503,50.9265182 337.266659,50.3663934 334.467789,50.3663934 L334.299858,50.3663934 C332.620536,50.3663934 331.445028,50.4784184 330.773299,50.7024717 Z M181.482312,76.412459 C181.482312,77.0846189 181.930124,77.4206938 182.825763,77.4206938 L183.665419,77.4206938 C184.561058,77.4206938 187.247933,76.748544 191.726125,75.4042242 C200.570555,73.0516646 206.112235,71.483315 208.351331,70.6991285 C209.806743,70.2510219 212.045806,69.8589345 215.068586,69.5228545 C215.292495,69.5228545 215.516401,69.4108296 215.740311,69.1867763 L215.740311,69.0187371 C215.740311,68.1225239 214.956639,67.5623991 213.389272,67.3383458 C207.567622,68.234559 202.249848,69.2987962 197.435792,70.5310893 C188.703317,72.883649 183.553473,74.620036 181.986106,75.7403025 C181.650241,76.0763824 181.482312,76.3004323 181.482312,76.412459 Z M234.212762,96.7451941 C232.757349,100.89018 231.693794,104.643017 231.022066,108.003816 C230.462292,110.244349 229.846549,112.428836 229.174821,114.557342 C226.152041,126.096087 223.689072,135.338147 221.78584,142.283799 C219.434789,152.590251 218.259282,158.303524 218.259282,159.423791 C218.371236,160.095951 218.707096,160.432025 219.26687,160.432025 C219.826644,160.432025 220.274456,159.759876 220.610321,158.415556 C221.617914,155.726916 222.121703,153.710467 222.121703,152.366147 C223.353206,147.661028 224.192854,144.020216 224.640674,141.443603 C224.640674,139.427124 225.144463,137.186624 226.152056,134.722038 C228.055288,126.992199 229.958491,118.982414 231.861722,110.692442 C233.652999,104.867056 234.548624,101.506307 234.548624,100.610094 L234.548624,99.2657811 C234.548624,98.5936212 234.492648,97.7534339 234.380693,96.7451941 L234.212762,96.7451941 Z M250.837967,161.272221 L250.837967,161.44026 C250.837967,161.888367 251.005897,162.112417 251.341761,162.112417 L251.845555,162.112417 C252.069465,162.112417 252.237395,162.000392 252.34935,161.776338 L252.34935,160.936143 C252.237395,160.71209 252.013489,160.600065 251.677624,160.600065 L251.509693,160.600065 C251.061874,160.712091 250.837967,160.936141 250.837967,161.272221 Z M243.78485,163.624769 C243.896805,164.072876 244.176687,164.296925 244.624507,164.296925 C245.184281,164.296925 245.576117,164.016863 245.800026,163.45673 C245.688071,162.78457 245.352212,162.448495 244.792438,162.448495 C244.120709,162.448495 243.78485,162.840582 243.78485,163.624769 Z M236.395869,165.641239 C236.395869,166.089345 236.619776,166.313395 237.067595,166.313395 L237.571389,166.313395 C238.131163,166.313395 238.467022,165.865295 238.578977,164.969082 C238.578977,164.633002 238.355071,164.35294 237.907252,164.128886 C236.899659,164.128886 236.395869,164.632999 236.395869,165.641239 Z M223.465154,170.178295 C223.465154,170.402348 223.912967,170.682411 224.808605,171.018491 C226.935746,171.018491 229.230785,169.898241 231.693791,167.657708 C232.029656,167.097575 232.197585,166.53745 232.197585,165.977317 C231.973676,165.417184 231.637816,165.137121 231.189997,165.137121 C229.62263,165.137121 227.49552,166.201358 224.808605,168.329865 C223.912967,169.114051 223.465154,169.730189 223.465154,170.178295 Z M186.016459,328.639197 L186.18439,329.983511 C186.4083,329.983511 186.520253,329.647436 186.520253,328.975276 L186.520253,328.471158 C186.520253,328.023052 186.4083,327.406914 186.18439,326.622728 C186.072435,326.622728 186.016459,327.294878 186.016459,328.639197 Z M186.18439,331.495863 C185.176797,334.408556 184.673008,337.20918 184.673008,339.897819 L184.673008,340.569976 C184.673008,342.698482 184.95289,345.107019 185.512664,347.795659 C185.848529,347.235525 186.240365,346.115276 186.688184,344.434876 C187.024048,342.64245 187.191978,340.794038 187.191978,338.889585 L187.191978,338.217428 C187.191978,336.312975 186.912095,334.072476 186.352321,331.495863 L186.18439,331.495863 Z" id="TF" transform="translate(196.505452, 189.670834) rotate(-3.000000) translate(-196.505452, -189.670834) "></path>
            <path d="M430.81058,46.077921 C434.169225,46.077921 441.390201,51.7911944 452.473727,63.2179126 C453.033501,64.1141258 453.313384,65.4584254 453.313384,67.2508518 L453.313384,68.2590866 C453.313384,71.955966 452.641665,75.1486776 451.298208,77.8373172 C449.283021,79.8537968 447.771654,81.7022088 446.764061,83.3826085 C441.950004,90.7763674 437.695785,98.8421651 434.001276,107.580244 L433.833345,107.580244 C434.728984,103.547284 435.736562,100.018498 436.85611,96.9937783 C438.423477,93.1848722 440.438633,89.1519734 442.901639,84.8949607 C444.133142,82.4303745 445.980369,80.52595 448.443374,79.1816302 C448.891193,78.8455503 449.1151,78.4534629 449.1151,78.0053563 L449.1151,77.8373172 C449.003145,76.7170507 448.611309,76.1569258 447.93958,76.1569258 L447.435786,76.1569258 C446.652102,76.1569258 445.476595,77.445213 443.909227,80.0218259 C440.214719,85.1750517 436.968078,90.5522502 434.169208,96.1535826 C426.444326,111.837313 422.581943,125.28031 422.581943,136.482974 L422.581943,137.32317 C422.581943,144.940982 424.5971,151.43843 428.627473,156.81571 C428.179653,158.832189 427.955747,160.512564 427.955747,161.856883 C429.299205,160.400537 430.0269,159.3363 430.138855,158.66414 L430.474718,158.66414 C431.370356,159.448327 432.825747,160.232501 434.840933,161.016688 C435.512662,161.240741 436.800123,162.248966 438.703355,164.041392 C433.553434,166.281925 428.627496,167.402175 423.925394,167.402175 C418.439609,167.402175 413.681601,165.7218 409.651228,162.361001 C395.768832,152.390629 388.827738,141.748257 388.827738,130.433566 C389.163602,124.496153 389.331532,120.295217 389.331532,117.830631 C390.003261,116.486311 390.619003,114.917961 391.178777,113.125535 C389.499455,114.357828 386.81258,117.158452 383.118071,121.527492 C375.16928,131.385837 368.228186,141.468084 362.294582,151.774536 C351.658875,169.698799 342.926531,187.118682 336.097288,204.034706 C334.75383,207.395505 334.082112,209.411955 334.082112,210.084115 C332.514744,220.390566 330.9474,227.504152 329.380033,231.425085 C329.380033,233.441564 328.820268,237.250413 327.70072,242.851746 C327.364855,244.756199 327.196925,246.660623 327.196925,248.565076 C327.196925,257.751261 330.555519,264.024659 337.272808,267.385459 C339.959723,268.505725 342.926481,269.06585 346.17317,269.06585 C352.778504,268.72977 356.081121,268.113633 356.081121,267.21742 C359.55172,265.088913 361.678829,264.024676 362.462513,264.024676 L362.462513,263.856637 L362.294582,263.856637 C361.175034,263.968664 360.223432,264.024676 359.439748,264.024676 L356.920778,264.024676 L356.920778,263.856637 C374.609637,259.487598 387.988036,255.398687 397.056375,251.58978 C398.847652,250.581541 401.81441,249.349266 405.956738,247.89292 C402.03832,246.88468 399.183515,245.820442 397.392238,244.700176 C395.489006,242.90775 394.425451,240.947313 394.201542,238.818806 C393.865677,237.810567 393.585795,233.60963 393.361885,226.215871 C393.137975,224.647498 392.970046,223.695286 392.858091,223.359206 C392.858091,221.118673 407.132115,218.206024 435.68059,214.621171 C438.143596,214.621171 441.222307,216.413571 444.916816,219.998423 C448.05155,223.583276 449.618894,227.2801 449.618894,231.089006 C449.618894,232.657379 449.339011,233.553579 448.779237,233.777632 C446.76405,236.914379 445.028777,240.443165 443.573365,244.364098 L443.573365,245.204293 C443.685319,245.98848 444.021179,246.380567 444.580953,246.380567 C445.700501,246.380567 446.540149,245.76443 447.099923,244.532137 L447.435786,242.01155 C447.883605,240.66723 448.611301,239.098881 449.618894,237.306454 L449.954757,237.306454 C451.186259,238.202667 451.802002,238.986842 451.802002,239.659002 C451.802002,239.771029 451.242236,240.667228 450.122688,242.347628 C448.331411,245.596401 445.756489,251.253662 442.397845,259.319581 C441.278297,261.67214 439.319117,268.057563 436.520247,278.476042 C432.489874,293.375586 429.29921,306.09042 426.948159,316.620925 C425.492746,326.14319 424.261262,332.024501 423.253669,334.265034 C422.693895,335.273274 422.190106,335.945423 421.742286,336.281503 C419.95101,335.833397 419.055385,335.553334 419.055385,335.441308 C419.727113,331.968482 420.790668,326.143183 422.246081,317.965238 C423.141719,314.940518 424.205274,312.139894 425.436777,309.563281 C427.228054,304.298029 428.123679,299.480955 428.123679,295.111916 C430.586684,286.037757 432.545864,278.476072 434.001276,272.426633 C433.777367,271.978526 433.553461,271.754476 433.329551,271.754476 C432.769777,271.754476 432.265988,272.762701 431.818169,274.779181 C428.34757,285.757792 426.108507,292.591315 425.100914,295.279955 C424.429185,296.848328 423.645513,298.24864 422.749875,299.480933 L422.749875,299.817012 C422.973784,300.937278 423.085737,302.001515 423.085737,303.009755 C423.085737,305.362315 422.302066,309.843313 420.734698,316.452886 C419.61515,320.149765 418.271713,323.342477 416.704345,326.031116 L416.704345,326.367195 C416.704345,326.479221 417.040205,327.263396 417.711934,328.719742 C417.823888,329.279876 417.879865,329.727976 417.879865,330.064056 C417.432046,332.864722 417.20814,334.433071 417.20814,334.769151 C415.192953,333.984965 411.554476,331.968515 406.2926,328.719742 C405.396962,327.711503 404.501337,326.423215 403.605699,324.854842 C402.374196,322.278229 401.758454,320.317793 401.758454,318.973473 C401.758454,316.956993 401.702477,313.260169 401.590522,307.88289 C401.590522,300.937238 402.93396,291.135053 405.620875,278.476042 L405.452944,278.476042 C399.967158,281.276708 392.466299,284.02132 382.95014,286.709959 C365.261281,291.078999 349.699796,293.263485 336.265219,293.263485 L333.074523,293.263485 C326.693099,293.263485 321.319349,292.759373 316.953112,291.751133 C312.47492,288.054254 308.38863,285.533692 304.694122,284.189372 C300.21593,282.957079 297.696984,281.836829 297.13721,280.82859 C295.681798,279.14819 294.730196,277.019715 294.282377,274.443103 C292.379145,267.945557 290.979731,256.126923 290.084093,238.986845 C290.084093,234.1697 290.643858,227.616239 291.763406,219.326267 C296.129644,203.866589 301.223511,189.471381 307.045161,176.14021 C315.217862,156.871626 325.125714,137.771369 336.769013,118.838865 C341.918935,110.212814 348.748075,100.466641 357.256641,89.6000565 C360.839194,85.3430438 364.029858,81.8142573 366.828729,79.0135911 C372.986243,72.9641521 377.184485,69.2673281 379.423581,67.9230083 C388.827785,60.8653294 397.280246,57.3365429 404.781218,57.3365429 L406.2926,57.3365429 C409.091471,57.3365429 412.170182,57.9526803 415.528826,59.1849734 C417.544012,56.8324138 420.454794,53.9757771 424.261257,50.6149776 C427.731856,47.5902581 429.914942,46.077921 430.81058,46.077921 Z M307.381024,193.280201 L307.381024,193.61628 C307.381024,193.840333 307.492977,194.120395 307.716887,194.456475 C309.060344,193.784315 309.732063,192.552041 309.732063,190.759614 C310.739656,188.519081 312.251023,184.43017 314.26621,178.492758 C319.080267,166.617933 324.454017,155.583474 330.387621,145.389048 C335.649497,136.090837 344.549771,123.039928 357.088709,106.235931 C360.559308,101.754865 364.645597,97.161841 369.347699,92.4567217 C372.706343,88.9838956 376.120914,85.8471965 379.591513,83.0465303 C384.741434,78.0053311 387.316356,75.2047069 387.316356,74.6445736 L387.316356,73.804378 C387.204401,72.9081648 386.868542,72.4600649 386.308768,72.4600649 C385.525084,72.4600649 384.629459,73.1322147 383.621866,74.4765345 C379.927357,78.1734139 376.176927,81.6461879 372.370464,84.8949607 C362.96626,94.1931726 358.096299,99.2342962 357.760435,100.018483 C355.185474,103.267255 352.722505,106.796042 350.371454,110.604948 C341.750934,121.695586 336.377184,129.481321 334.250043,133.962387 C328.876212,142.588439 324.789923,149.477975 321.991053,154.631201 C318.744364,160.792666 315.777606,167.346127 313.09069,174.291779 L309.3962,184.542166 L307.884818,191.095693 C307.548953,191.879879 307.381024,192.608041 307.381024,193.280201 Z M420.90263,107.076126 L420.90263,107.244165 C421.910223,106.235925 422.917801,104.723588 423.925394,102.707109 C425.828626,98.7861761 428.011712,92.6808153 430.474718,84.3908433 L429.635061,84.2228042 L429.467129,84.2228042 C428.347581,84.4468575 426.948167,86.4072944 425.268845,90.1041739 C423.477568,94.8092931 422.190107,98.842192 421.406424,102.202991 C421.070559,103.547311 420.90263,105.171673 420.90263,107.076126 Z M421.070561,112.1173 C420.398832,113.12554 420.062973,114.133765 420.062973,115.142005 C420.062973,115.254031 420.118949,115.646119 420.230904,116.318278 C420.902633,115.534092 421.238492,114.58188 421.238492,113.461613 C421.238492,113.23756 421.182516,112.78946 421.070561,112.1173 Z M416.536414,128.921213 L416.536414,129.425331 C416.536414,130.545597 416.704344,131.385785 417.040208,131.945918 C418.607575,130.489571 419.391247,128.809197 419.391247,126.904744 C419.391247,126.008531 419.279294,125.112331 419.055385,124.216118 L418.887453,124.216118 C417.320086,125.672464 416.536414,127.240814 416.536414,128.921213 Z M410.994679,128.585135 C411.106634,128.585135 411.16261,128.641148 411.16261,128.753174 C411.610429,128.417094 411.834336,127.968994 411.834336,127.408861 L411.834336,127.240822 C411.274562,127.576902 410.994679,128.025002 410.994679,128.585135 Z M327.364857,162.697079 C328.932224,161.240733 330.107732,159.784408 330.891416,158.328062 C332.010964,156.087529 332.570729,154.687217 332.570729,154.127083 C330.443588,155.135323 328.932221,157.039748 328.036582,159.840414 C327.812673,160.512574 327.588766,161.464786 327.364857,162.697079 Z M325.517612,167.234136 C325.517612,165.665763 326.077377,164.377476 327.196925,163.369236 C327.196925,165.049635 326.63716,166.337923 325.517612,167.234136 Z M322.494847,173.451584 C322.494847,172.219291 323.054613,171.043028 324.174161,169.922762 C324.174161,171.043028 323.614395,172.219291 322.494847,173.451584 Z M320.815533,176.14021 C320.03185,177.596556 319.640014,178.660793 319.640014,179.332953 L319.807945,179.332953 C320.255764,178.324713 320.6476,177.260476 320.983465,176.14021 L320.815533,176.14021 Z M305.533779,195.800788 C305.421824,196.024842 305.365847,196.192879 305.365847,196.304906 C305.477802,196.304906 305.533779,196.248893 305.533779,196.136867 L305.533779,195.800788 Z M304.526191,197.985297 C304.078371,198.88151 303.630559,200.113785 303.18274,201.682158 L303.350671,201.682158 C304.134355,200.001758 304.582167,198.769484 304.694122,197.985297 L304.526191,197.985297 Z M302.846877,202.522354 C300.159961,207.115446 298.816524,211.03632 298.816524,214.285093 L298.816524,215.125289 C299.488253,214.229075 300.327901,212.548701 301.335494,210.084115 C302.343088,206.835342 302.846877,204.426805 302.846877,202.858432 C302.958832,202.858432 303.014808,202.802419 303.014808,202.690393 L303.014808,202.522354 L302.846877,202.522354 Z M295.625828,220.838619 C295.625828,221.174699 295.793758,221.454762 296.129622,221.678815 C296.689396,221.678815 297.081232,221.11869 297.305142,219.998423 L297.473073,219.158228 C297.473073,218.598095 297.305143,218.318032 296.969279,218.318032 C296.29755,218.318032 295.961691,218.542082 295.961691,218.990189 C295.737781,220.110455 295.625828,220.726592 295.625828,220.838619 Z M440.718531,249.069193 L440.718531,249.573311 C441.16635,249.797364 441.446233,249.909389 441.558188,249.909389 L442.229914,249.909389 C443.461416,249.909389 444.357041,249.293252 444.916816,248.060959 L444.916816,247.89292 C444.916816,247.332786 444.692909,247.052724 444.24509,247.052724 C443.237497,247.052724 442.061989,247.724874 440.718531,249.069193 Z M398.735689,271.586437 L399.911208,271.586437 C402.598124,271.586437 405.117069,270.858275 407.46812,269.401929 C407.803984,267.609502 407.971914,266.601277 407.971914,266.377224 C406.516502,267.273437 404.445369,268.22565 401.758454,269.233889 C400.414996,269.906049 399.407418,270.690224 398.735689,271.586437 Z M561.642552,67.4188909 C564.217512,67.4188909 568.023919,69.9394527 573.061885,74.9806519 L573.733611,74.9806519 C576.420526,74.9806519 579.835096,77.3891887 583.977424,82.2063346 C585.320882,83.2145744 587.727874,84.4468491 591.198473,85.9031955 C592.318021,86.5753554 592.877787,87.2475052 592.877787,87.9196651 C592.429967,89.2639849 592.038131,90.4962596 591.702267,91.616526 C590.694674,96.3216453 589.575143,104.723518 588.34364,116.822396 L588.34364,117.99867 C588.34364,128.641201 590.470749,162.752804 594.725032,220.334502 C595.396761,228.848527 595.73262,234.617813 595.73262,237.642532 C595.73262,241.675492 595.228831,244.140041 594.221238,245.036254 C593.437554,245.372334 592.877788,245.540372 592.541924,245.540372 L592.709855,245.372333 C588.903392,244.476119 585.992611,243.523907 583.977424,242.515667 C581.626373,241.059321 577.484107,238.426734 571.550503,234.617828 C570.430955,234.057695 569.591306,233.217508 569.031532,232.097241 C568.023939,229.968735 566.624525,227.896273 564.833248,225.879793 C564.945203,225.207633 565.616921,223.415234 566.848424,220.502541 L566.848424,219.998423 C566.848424,219.662344 566.568542,218.654119 566.008768,216.973719 L566.008768,216.637641 L566.680493,211.932545 C567.128312,210.924305 567.352218,209.860068 567.352218,208.739802 C567.352218,207.619535 566.904406,206.219223 566.008768,204.538823 C565.560948,203.64261 565.337042,202.858435 565.337042,202.186275 L566.008768,200.673923 L566.008768,200.505884 C565.896813,200.281831 565.672906,199.385631 565.337042,197.817258 C565.001178,197.705231 564.721295,197.649219 564.497385,197.649219 C562.146334,197.649219 554.309615,201.009968 540.986993,207.731567 C528.895874,213.893032 518.596187,218.654094 510.087621,222.014893 C505.945294,223.583266 502.754629,224.367441 500.515533,224.367441 L498.164494,224.367441 C497.380811,225.599734 494.805889,230.080733 490.439651,237.810572 C486.857097,244.420144 483.442527,251.309679 480.195838,258.479385 C477.956742,263.632611 475.885609,269.681959 473.982377,276.627611 C473.534558,279.316251 473.310651,282.060863 473.310651,284.861529 C473.310651,285.645715 473.422605,288.22229 473.646514,292.591329 C473.646514,293.151462 473.422608,293.487537 472.974789,293.599564 C472.415015,293.599564 470.175952,292.871401 466.257534,291.415055 C464.018438,290.406815 460.547891,288.166316 455.845789,284.69349 L451.479573,281.836824 C450.136116,279.484265 449.464397,276.851678 449.464397,273.938985 L449.464397,272.93075 C449.464397,264.752805 453.886546,252.486071 462.730975,236.13018 C464.410297,232.881407 474.598032,213.052988 493.294484,176.644327 C510.19966,143.708492 519.267863,126.176585 520.499366,124.048079 C526.656881,113.853654 536.11692,99.0103454 548.879768,79.5177085 C550.223225,77.0531222 552.350335,74.252498 555.26116,71.1157518 C557.948075,68.6511656 560.075185,67.4188909 561.642552,67.4188909 Z M536.452846,141.020031 C540.707129,135.754779 544.513535,130.209543 547.87218,124.384157 C551.006914,118.670798 553.19,114.245812 554.421503,111.109065 C551.062859,114.469865 548.59989,117.438526 547.032523,120.015139 C545.80102,122.031619 544.00977,125.112306 541.658719,129.257292 C538.523984,133.514304 536.900664,136.651003 536.788709,138.667483 C536.5648,139.45167 536.452846,140.235844 536.452846,141.020031 Z M554.421503,127.072783 C549.271582,135.026675 546.080918,140.403874 544.849415,143.20454 C536.228895,158.888271 526.936785,175.243916 516.972808,192.271967 C524.47378,189.023194 536.67667,184.150108 553.581846,177.652562 L559.795307,175.131975 C556.324708,145.332886 554.589434,129.537366 554.589434,127.74494 L554.589434,127.072783 L554.421503,127.072783 Z M581.458454,128.417096 C581.010634,131.217762 580.786728,133.682312 580.786728,135.810818 L580.786728,138.499444 C580.786728,141.412137 581.794306,144.212761 583.809493,146.901401 C584.369267,144.324788 584.64915,142.084288 584.64915,140.179835 C584.64915,136.482956 583.641571,132.562082 581.626385,128.417096 L581.458454,128.417096 Z M583.809493,152.950809 C583.025809,153.847023 582.633973,154.855247 582.633973,155.975514 C582.633973,156.42362 583.081786,158.328045 583.977424,161.688844 C584.425243,163.929377 584.64915,166.113864 584.64915,168.242371 C584.537195,170.818983 584.481218,172.443346 584.481218,173.115505 L584.481218,174.627858 C584.481218,177.428524 584.873054,182.133572 585.656738,188.743145 L585.656738,190.759614 L585.152944,198.321375 L585.152944,198.825493 C585.152944,205.098985 585.768686,211.652446 587.000189,218.486071 C588.007782,222.182951 589.519149,225.263637 591.534336,227.728224 L591.534336,227.560184 C589.407194,217.925893 588.34364,207.507571 588.34364,196.304906 C588.34364,181.293335 587.951804,170.931025 587.16812,165.217666 C586.832256,158.047961 586.44042,154.463162 585.9926,154.463162 C585.208917,153.454922 584.481222,152.950809 583.809493,152.950809 Z M505.721406,195.46471 C507.288773,194.344444 508.072445,192.944131 508.072445,191.263732 L508.072445,190.927653 C506.505078,192.384 505.721406,193.896337 505.721406,195.46471 Z M505.385543,195.800788 L505.385543,196.136867 C505.497498,196.136867 505.553474,196.024842 505.553474,195.800788 L505.385543,195.800788 Z M488.592406,226.719989 C492.958644,220.782576 496.76505,214.621203 500.011739,208.235684 C503.370383,201.065979 505.04968,197.25713 505.04968,196.809023 C502.026901,199.833743 499.899791,202.466329 498.668288,204.706862 C497.324831,206.723342 495.86944,209.411941 494.302073,212.772741 C493.182525,214.78922 491.783111,217.141745 490.103788,219.830384 C489.096195,222.182944 488.592406,224.479456 488.592406,226.719989 Z M478.180661,247.72488 C478.180661,248.509067 478.292614,249.405267 478.516524,250.413507 C482.658852,245.708387 484.729985,239.827076 484.729985,232.769398 C482.714798,235.458037 481.091478,238.146636 479.859975,240.835276 C478.740427,243.075809 478.180661,245.372321 478.180661,247.72488 Z M471.463406,264.192715 L471.463406,264.360755 C471.463406,265.256968 471.519383,266.041143 471.631338,266.713302 C473.758479,264.808849 474.822034,262.56835 474.822034,259.991737 C474.822034,259.095524 474.766057,258.255337 474.654102,257.47115 C472.526961,259.375603 471.463406,261.616103 471.463406,264.192715 Z M678.032426,65.7384996 L678.53622,65.7384996 C680.215542,65.9625529 681.05519,66.4106528 681.05519,67.0828126 C686.540976,88.7039559 691.410937,107.076051 695.665219,122.199648 C698.24018,131.16178 701.150961,140.683902 704.397651,150.766301 L704.565582,150.766301 C704.565582,150.206167 706.076949,147.797631 709.099729,143.540618 C711.674689,140.627925 713.913752,138.499451 715.816984,137.155131 C718.615854,134.578518 720.295151,132.674094 720.854925,131.4418 C721.190789,130.545587 722.086414,129.48135 723.541827,128.249057 C724.32551,126.008524 725.333089,123.768025 726.564591,121.527492 C728.243913,117.606559 729.139538,115.590109 729.251493,115.478083 L729.251493,115.646122 C728.579764,118.782868 728.243905,120.799318 728.243905,121.695531 L728.243905,122.199648 C729.027589,121.191408 730.259073,118.334772 731.938395,113.629652 C732.27426,112.621413 733.113908,110.660976 734.457366,107.748283 C735.241049,105.283696 736.192651,102.034972 737.312199,98.0020131 C741.342572,89.2639345 744.47726,82.8785113 746.716356,78.845552 C747.723949,77.1651522 749.067387,75.5968027 750.746709,74.1404562 C752.090166,73.244243 753.82544,72.4600683 755.952581,71.7879084 C765.132875,69.995482 771.906039,69.0992822 776.272277,69.0992822 L778.455385,69.0992822 C784.612899,69.0992822 788.139422,70.9476942 789.035061,74.6445736 C789.147016,75.3167335 789.314945,77.3891954 789.538855,80.8620215 C789.986674,81.8702614 790.21058,82.5984237 790.21058,83.0465303 C790.21058,83.7186902 789.314955,85.2310272 787.523679,87.5835869 C786.739995,88.9279066 786.348159,89.9921438 786.348159,90.7763304 C786.460114,91.1124103 787.019879,91.9525976 788.027473,93.2969174 C789.37093,95.3133971 790.042649,97.9459838 790.042649,101.194757 C790.714378,102.539076 791.050237,103.323251 791.050237,103.547304 L791.050237,104.051422 L790.042649,110.26887 C789.818739,111.501163 789.706786,112.845462 789.706786,114.301809 L789.706786,117.830631 C789.258967,124.776283 788.867131,129.873419 788.531267,133.122192 C787.859538,139.171631 787.523679,144.156742 787.523679,148.077675 C787.523679,148.525781 787.635632,151.774505 787.859541,157.823944 C786.068264,160.288531 784.948733,163.481242 784.500914,167.402175 C784.500914,169.754735 783.773219,172.891434 782.317806,176.812366 C781.534122,178.268713 781.142286,179.557 781.142286,180.677266 L781.142286,180.845306 C781.142286,181.741519 781.534122,182.525693 782.317806,183.197853 C782.317806,189.247292 781.702064,203.754526 780.470561,226.719989 C780.022742,238.37076 779.630906,244.196059 779.295041,244.196059 C777.839629,245.764432 776.272285,246.884681 774.592963,247.556841 L774.425032,247.556841 C775.54458,236.24215 776.104345,224.311491 776.104345,211.764506 C776.104345,210.084106 776.048369,206.667345 775.936414,201.514119 L775.936414,200.841962 C776.384233,200.841962 776.888022,197.537226 777.447796,190.927653 C777.559751,189.471307 777.615728,188.351057 777.615728,187.566871 C777.615728,186.894711 777.559751,186.390599 777.447796,186.054519 C777.559751,185.270332 777.615728,184.430145 777.615728,183.533932 L777.615728,178.996875 C777.503773,175.636076 777.111937,173.955701 776.440208,173.955701 C775.32066,173.955701 774.592965,174.459813 774.2571,175.468053 C773.809281,180.397226 773.249515,184.54215 772.577787,187.902949 C771.906058,191.263749 771.346292,192.944123 770.898473,192.944123 L770.730542,192.944123 L770.56261,192.776084 L770.56261,192.944123 C771.010429,198.097349 771.234336,201.458098 771.234336,203.026471 C771.234336,204.370791 770.67457,207.227428 769.555022,211.596467 C769.107203,213.612947 768.883297,215.461358 768.883297,217.141758 C768.883297,218.710131 769.219156,220.446518 769.890885,222.350971 C769.890885,223.023131 768.99526,224.423443 767.203983,226.55195 C766.756164,227.336136 766.532257,227.896261 766.532257,228.232341 L766.532257,228.568419 C767.98767,230.696926 768.715365,232.8254 768.715365,234.953906 C768.715365,237.306466 767.875717,241.22734 766.196395,246.716646 C765.86053,248.397045 765.580647,251.141657 765.356738,254.950563 C765.244783,255.174616 764.740994,255.622716 763.845355,256.294876 C756.680248,263.240528 751.810287,266.713302 749.235326,266.713302 L748.563601,266.713302 C747.556008,266.713302 746.884289,266.153178 746.548424,265.032911 C745.764741,263.016431 745.372905,259.263595 745.372905,253.774289 C745.932679,234.953812 746.212562,224.703528 746.212562,223.023128 C747.667974,176.980175 748.563599,153.959044 748.899464,153.959044 L749.235326,150.598262 C744.869089,158.66418 739.831198,166.561941 734.121503,174.291779 C730.762859,178.772845 726.732546,183.869981 722.030444,189.58334 C719.343529,192.832113 717.21642,195.800775 715.649052,198.489414 C711.618679,205.098987 706.300906,210.028085 699.695572,213.276858 C697.904295,214.509151 694.489725,217.533825 689.451759,222.350971 C688.108301,223.471238 686.98877,224.031363 686.093131,224.031363 L685.9252,224.031363 C684.469787,224.031363 682.566584,221.510801 680.215533,216.469602 C677.752528,211.428402 675.289559,205.379054 672.826553,198.321375 C670.363547,188.687084 666.781047,170.931126 662.078945,145.05297 C661.295262,140.235824 660.847449,137.547225 660.735494,136.987092 L660.567563,136.987092 C659.895834,136.987092 658.66435,141.019991 656.873073,149.085909 C654.633977,160.064521 651.499289,175.916054 647.468916,196.640984 C645.789594,204.706903 643.886391,211.540426 641.75925,217.141758 C637.840831,230.360903 634.650167,238.482713 632.187162,241.507432 C630.731749,243.523912 627.932921,245.092262 623.790593,246.212528 C617.521124,248.677114 613.098976,251.029639 610.524015,253.270172 C609.740331,253.942332 608.6208,255.006569 607.165388,256.462915 C606.269749,257.247102 605.542054,257.639189 604.98228,257.639189 L604.310554,257.639189 C602.183413,257.639189 600.392163,255.62274 598.93675,251.58978 C598.376976,249.797354 598.097094,247.836917 598.097094,245.708411 C598.097094,243.131798 598.880766,239.378961 600.448133,234.449789 C603.470913,222.350911 607.669155,200.842117 613.042986,169.922762 C619.2005,134.746394 624.910109,110.380964 630.171985,96.8257392 C632.411081,91.2244067 634.594167,86.9674579 636.721309,84.0547651 C638.064766,82.5984186 639.184298,81.5901939 640.079936,81.0300607 C641.311439,77.4452079 643.382572,74.8686336 646.293397,73.3002606 C648.308583,72.0679674 651.555224,71.1717677 656.033416,70.6116344 C663.198524,70.2755545 667.284813,69.8274546 668.292406,69.2673214 C673.666237,66.9147618 676.912877,65.7384996 678.032426,65.7384996 Z M728.915631,133.45827 C729.13954,134.354483 729.643329,134.802583 730.427013,134.802583 L730.762876,134.802583 C731.32265,134.802583 732.386204,132.786134 733.953572,128.753174 C735.297029,125.504402 738.37574,119.679103 743.189797,111.277104 C746.548441,104.779559 750.522777,96.8257862 755.112924,87.4155477 C752.426009,90.5522939 750.298899,93.4089306 748.731532,95.9855435 C746.044617,100.354583 741.510515,108.252343 735.129091,119.679061 C731.770447,125.05634 730.09115,128.193039 730.09115,129.089253 C729.307466,130.993706 728.915631,132.45003 728.915631,133.45827 Z M727.236317,134.802583 C727.348272,135.25069 727.460225,135.47474 727.57218,135.47474 C728.019999,135.47474 728.243905,135.138665 728.243905,134.466505 L728.243905,134.298466 C728.243905,134.074412 728.075975,133.962387 727.740111,133.962387 C727.404247,133.962387 727.236317,134.24245 727.236317,134.802583 Z M722.534238,142.868461 C721.974464,144.436835 721.694582,145.445059 721.694582,145.893166 L724.045621,145.893166 L724.045621,145.725127 C723.373892,144.716887 722.870103,143.764675 722.534238,142.868461 Z M714.977327,182.693736 C714.977327,183.477923 715.369163,184.038047 716.152846,184.374127 L716.656641,184.542166 C718.895737,183.08582 721.582612,180.789308 724.717346,177.652562 C728.52381,173.059469 730.818849,168.858533 731.602532,165.049627 L731.602532,164.713549 C731.266668,164.265442 730.874832,163.873355 730.427013,163.537275 L730.259082,163.537275 C726.116754,167.682261 723.373902,170.930985 722.030444,173.283545 C719.903303,176.420291 718.279983,178.716803 717.160435,180.173149 L714.977327,182.693736 Z M703.557994,194.792554 C703.669949,195.91282 704.061784,196.472945 704.733513,196.472945 L704.901445,196.472945 C706.468812,196.472945 708.092132,194.400483 709.771454,190.255497 C707.644313,190.591577 706.076969,191.319739 705.069376,192.440006 C704.061783,193.336219 703.557994,194.120394 703.557994,194.792554 Z M628.828534,242.179589 C628.716579,242.515669 629.108415,242.683706 630.004054,242.683706 C630.675783,241.787493 631.739337,238.874844 633.19475,233.945672 C635.99362,229.240552 639.128308,215.685531 642.598907,193.280201 L644.446152,187.73491 C645.005926,185.606404 645.341785,184.150079 645.45374,183.365893 C645.45374,182.357653 645.061904,181.85354 644.27822,181.85354 C643.382582,181.85354 642.822816,182.52569 642.598907,183.87001 C641.255449,188.463103 640.58373,191.711827 640.58373,193.61628 C637.896815,211.31649 635.20994,222.743037 632.523024,227.896263 C631.515431,231.369089 630.451876,234.953888 629.332328,238.650767 C628.996464,240.779274 628.828534,241.955536 628.828534,242.179589 Z M864.281749,23.5606772 C867.080619,23.5606772 868.927846,23.8967521 869.823484,24.568912 C865.345292,27.8176848 861.706815,30.1702092 858.907945,31.6265556 C853.981934,34.0911419 850.175527,36.3876537 847.488612,38.5161601 C844.241923,41.4288529 842.114813,43.7253648 841.10722,45.4057645 C839.539853,47.5342708 838.028485,49.8307827 836.573073,52.295369 C834.333977,54.5359019 832.934563,56.6083638 832.374789,58.5128169 C832.374789,58.8488968 831.926976,59.6890841 831.031338,61.0334039 C830.919383,61.2574572 830.863406,61.4254946 830.863406,61.5375213 C830.975361,61.7615746 831.199267,62.041637 831.535132,62.3777169 C833.102499,62.1536636 833.886171,61.7615762 833.886171,61.201443 C833.886171,60.4172565 834.55789,59.4650442 835.901347,58.3447777 C836.349167,57.7846445 837.244792,56.3283199 838.588249,53.9757603 C840.043662,51.3991474 842.84249,47.8703609 846.984818,43.3892949 C851.798875,38.908229 855.493328,35.9395673 858.068288,34.4832209 C862.546481,31.6825547 867.192535,29.2740178 872.006592,27.2575382 L872.174523,27.2575382 C872.174523,27.4815915 872.734289,27.8736788 873.853837,28.4338121 C875.533159,29.7781319 876.540737,31.066419 876.876602,32.2987121 C877.548331,33.1949253 878.108096,38.3480739 878.555915,47.7583124 C878.66787,49.9988453 878.723847,51.7912448 878.723847,53.1355646 C878.723847,55.2640709 877.268456,57.7286202 874.357631,60.5292865 C871.446806,63.554006 868.647978,65.402418 865.961063,66.0745779 C856.444904,70.2195639 850.007599,76.3809371 846.648955,84.5588825 C845.081588,88.8158951 844.297916,92.9048065 844.297916,96.8257392 C844.185961,99.9624853 843.290336,101.810897 841.611014,102.37103 L840.771357,102.53907 C837.972487,102.53907 833.606315,99.2343331 827.67271,92.6247608 C826.665117,92.2886809 824.929844,90.7763438 822.466838,88.0877043 C820.451651,85.623118 819.444073,82.2623689 819.444073,78.0053563 L819.444073,77.669278 C819.444073,69.1552527 822.802667,59.1850305 829.519955,47.7583124 C831.423187,44.9576461 833.66225,41.932972 836.23721,38.6841992 C845.30555,28.6018008 854.653636,23.5606772 864.281749,23.5606772 Z M820.787524,114.13377 C822.690756,114.13377 828.512319,115.702119 838.252387,118.838865 C839.931709,119.511025 842.338701,119.8471 845.473436,119.8471 C846.816893,120.18318 847.824471,120.799318 848.4962,121.695531 C849.167929,122.927824 849.503788,124.440161 849.503788,126.232587 C849.503788,127.80096 848.999999,130.93766 847.992406,135.642779 C847.320677,144.268831 846.033216,154.911203 844.129985,167.570214 C843.682165,171.04304 843.346306,172.779427 843.122396,172.779427 C842.898487,173.227534 842.786534,173.507596 842.786534,173.619623 L842.450671,173.619623 C841.555032,172.947463 841.10722,172.219301 841.10722,171.435114 C841.443084,170.426874 842.338709,165.553788 843.794122,156.81571 C843.794122,156.591656 843.850098,156.087544 843.962053,155.303357 L843.962053,155.135318 L843.794122,155.135318 C841.778935,163.537317 840.771357,169.530653 840.771357,173.115505 L840.771357,173.955701 C840.995267,176.644341 841.10722,178.156678 841.10722,178.492758 C841.10722,181.405451 839.987689,186.166512 837.748593,192.776084 C837.076864,195.128644 834.949754,206.443165 831.367201,226.719989 C830.807426,230.192815 830.527544,235.345963 830.527544,242.179589 C830.303634,246.212548 830.191681,250.021397 830.191681,253.60625 C830.191681,260.327849 831.031329,264.360748 832.710651,265.705068 C833.158471,266.601281 833.382377,267.329443 833.382377,267.889576 L833.382377,268.057615 C833.382377,269.850042 831.926986,270.858267 829.016161,271.08232 L828.344436,271.08232 C826.777069,271.08232 825.209725,270.85827 823.642358,270.410163 C821.739126,265.032884 820.787524,259.991761 820.787524,255.286641 L820.787524,250.749585 C820.787524,248.172972 820.227759,245.484373 819.108211,242.683706 L819.108211,242.01155 C819.108211,241.115337 819.556023,239.939075 820.451661,238.482728 C822.690758,234.449769 823.810289,230.360857 823.810289,226.215871 C823.810289,224.423445 823.47443,221.958896 822.802701,218.82215 C822.466836,217.253776 822.298907,215.125302 822.298907,212.436662 L822.298907,210.084115 C822.298907,208.291688 821.683164,207.227451 820.451661,206.891371 L819.947867,206.891371 C818.60441,206.891371 817.764761,208.739783 817.428897,212.436662 C815.86153,220.614608 815.077858,226.495919 815.077858,230.080771 C815.077858,231.985224 814.630045,238.706723 813.734407,250.245467 L813.734407,251.58978 C813.734407,258.871513 815.245774,264.192699 818.268554,267.553498 L819.276142,269.06585 L819.276142,269.233889 C817.149001,268.785783 812.726852,268.001608 806.009564,266.881342 C801.531371,265.761075 798.45266,264.248738 796.773338,262.344285 C795.094016,260.215779 794.254368,257.919267 794.254368,255.454681 C793.918503,253.214148 793.750574,249.517324 793.750574,244.364098 L793.750574,242.515667 C793.750574,232.545296 794.086433,222.631086 794.758162,212.772741 C795.989665,204.706822 797.333102,197.537224 798.788515,191.263732 C799.460244,187.790906 799.796103,184.374144 799.796103,181.013345 C799.796103,178.548758 799.628173,176.028197 799.292309,173.451584 C800.747721,165.497692 801.643346,161.240743 801.979211,160.68061 C802.986804,158.888183 804.050359,155.919522 805.169907,151.774536 C806.065545,148.525763 807.017147,142.924514 808.02474,134.970622 L810.039917,123.543961 C812.838787,117.270469 816.421287,114.13377 820.787524,114.13377 Z M835.061691,151.102379 C835.061691,154.127099 835.621456,155.639436 836.741004,155.639436 L837.076867,155.639436 C838.420325,155.639436 839.427903,153.454949 840.099632,149.085909 C840.547451,147.853616 841.21917,146.789379 842.114808,145.893166 C842.786537,145.108979 843.122396,144.492842 843.122396,144.044735 C843.122396,143.484602 842.674584,142.75644 841.778945,141.860227 L841.778945,141.524148 C842.562629,138.163349 842.954465,135.194687 842.954465,132.618074 C842.954465,131.945914 843.234348,130.26554 843.794122,127.5769 L843.794122,127.408861 C843.570212,125.840488 843.178376,125.056313 842.618602,125.056313 L842.28274,125.056313 C841.163191,125.056313 840.155613,126.7927 839.259975,130.265527 C838.476291,132.730113 838.084455,135.194662 838.084455,137.659248 C837.412726,141.020048 836.741008,143.596622 836.069279,145.389048 C835.39755,146.733368 835.061691,148.637793 835.061691,151.102379 Z M879.576938,57.5045821 L879.744869,57.5045821 C882.767649,57.6166087 884.279016,57.8406587 884.279016,58.1767386 C884.279016,58.5128186 885.118665,59.2969933 886.797987,60.5292865 C886.797987,60.9773931 887.973495,61.3694805 890.324546,61.7055604 C892.227777,62.4897469 894.354887,63.8340466 896.705938,65.7384996 C898.945034,66.8587661 902.863393,68.6511656 908.461134,71.1157518 C908.461134,71.2277785 908.68504,71.283791 909.132859,71.283791 C910.364362,71.0597377 911.036081,70.9477127 911.148036,70.9477127 C912.491493,70.9477127 914.00286,73.6363119 915.682183,79.0135911 C916.801731,82.0383106 917.809309,83.7746976 918.704947,84.2228042 C920.720134,85.231044 921.727712,85.9592063 921.727712,86.4073129 C926.653723,96.1536314 931.803567,108.644415 937.177398,123.880039 C938.520856,127.688946 940.591988,132.281969 943.390859,137.659248 C950.667921,151.998659 957.664991,166.057793 964.38228,179.837071 L964.38228,180.845306 C964.38228,181.181385 964.774116,182.693723 965.557799,185.382362 C965.557799,186.390602 966.173542,187.958951 967.405044,190.087458 L969.420221,194.960593 L972.107123,196.977062 L972.778848,196.977062 C980.27982,161.128535 986.605172,131.834005 991.755093,109.092596 C994.553963,97.6658777 997.072909,85.903256 999.312005,73.804378 C1000.09569,70.5556052 1000.93534,68.1470683 1001.83098,66.5786953 C1003.39834,64.114109 1005.63741,62.8818343 1008.54823,62.8818343 C1011.68296,62.8818343 1015.82523,64.114109 1020.97515,66.5786953 C1021.53493,67.1388285 1022.48653,68.3711031 1023.82998,70.2755562 L1024.66964,70.9477127 C1024.33378,72.8521657 1023.82999,76.7170271 1023.15826,82.5424129 C1022.03871,88.8159052 1020.69527,94.1931037 1019.12791,98.6741696 C1018.34422,100.466596 1017.72848,102.707095 1017.28066,105.395735 C1016.9448,107.860321 1016.77687,109.372658 1016.77687,109.932791 L1016.77687,110.100831 L1016.9448,109.932791 C1017.05675,110.044818 1017.11273,110.156843 1017.11273,110.26887 C1014.76168,124.048147 1013.58617,133.234195 1013.58617,137.827287 C1013.47422,137.827287 1013.25031,140.459874 1012.91445,145.725127 C1013.47422,149.982139 1014.08996,152.110614 1014.76169,152.110614 C1014.76169,152.334667 1015.09755,152.446692 1015.76928,152.446692 C1016.55296,152.446692 1017.00078,151.214417 1017.11273,148.749831 C1016.77687,144.156739 1016.60894,141.468139 1016.60894,140.683953 L1016.60894,140.179835 C1016.60894,137.715249 1017.33663,134.13045 1018.79204,129.425331 C1019.12791,128.193038 1019.29584,127.072788 1019.29584,126.064548 C1019.18388,122.031589 1019.12791,119.56704 1019.12791,118.670826 C1019.46377,116.20624 1020.19147,112.341379 1021.31101,107.076126 C1021.42297,104.499513 1022.31859,100.914714 1023.99792,96.3216218 L1023.82998,95.4814261 L1023.82998,91.7845652 C1023.82998,91.3364586 1023.77401,91.0563962 1023.66205,90.9443695 L1023.32619,90.9443695 L1025.84516,80.189865 C1026.85275,76.2689323 1027.63643,73.7483705 1028.1962,72.628104 C1028.75597,72.2920241 1029.14781,72.1239866 1029.37172,72.1239866 L1029.87551,72.1239866 C1031.10702,72.1239866 1032.05862,73.5242987 1032.73035,76.324965 L1032.73035,76.4930041 C1030.26734,88.7039088 1026.96472,107.972203 1022.8224,134.298466 C1015.43338,179.333178 1009.8917,212.436557 1006.19719,233.609593 C1001.49509,260.944096 997.4088,282.060802 993.938201,296.960346 C993.042562,300.657226 992.090961,303.513862 991.083368,305.530342 C988.732317,305.530342 984.086262,304.57813 977.145064,302.673677 C971.995143,301.55341 968.356666,300.433161 966.229525,299.312894 C960.631785,296.288175 957.832956,291.023001 957.832956,283.517216 L957.832956,281.500746 C957.832956,279.70832 958.280769,273.658971 959.176407,263.35252 L959.344339,258.983502 C959.344339,251.813797 957.721018,245.820461 954.474329,241.003315 C947.197267,228.008224 936.001954,207.17158 920.888055,178.492758 C915.962044,169.418599 910.924153,159.840464 905.774232,149.758066 L905.6063,149.758066 C905.6063,151.774546 904.878605,155.079282 903.423193,159.672375 C902.079735,162.921148 901.408016,165.609747 901.408016,167.738253 C897.601553,206.163394 894.802725,231.985149 893.011448,245.204293 C892.339719,251.253732 891.556047,256.182831 890.660409,259.991737 C889.98868,262.680377 889.260984,264.584801 888.477301,265.705068 C887.917527,266.601281 887.133855,267.049381 886.126262,267.049381 C881.983934,266.601274 875.266746,262.736413 865.974497,255.454681 C862.391943,252.541988 860.600693,250.469526 860.600693,249.237233 C859.481145,245.204273 858.92138,239.771062 858.92138,232.937437 L858.92138,231.593124 C858.92138,218.261952 861.440325,195.800946 866.478291,164.209431 C869.94889,142.924368 872.859672,122.759874 875.210722,103.715344 C876.218316,92.9607853 876.722105,84.4468877 876.722105,78.1733954 L876.722105,68.0910474 C876.722105,63.6099815 877.61773,60.1372075 879.409007,57.6726212 L879.576938,57.5045821 Z M950.611907,170.594918 C951.283636,173.395585 952.403168,175.524059 953.970535,176.980405 C955.090083,178.100672 956.041684,178.660797 956.825368,178.660797 C957.161233,178.772823 957.441115,178.828836 957.665025,178.828836 C958.448709,178.380729 958.840545,177.820604 958.840545,177.148445 L958.840545,176.980405 C957.944906,173.955686 956.041703,171.435124 953.130878,169.418644 C952.571104,168.970538 952.235245,168.746488 952.12329,168.746488 L951.787427,168.746488 C951.227653,168.746488 950.891794,169.194588 950.779839,170.090801 C950.779839,170.202828 950.723862,170.370865 950.611907,170.594918 Z M885.286605,229.408615 C885.286605,229.632668 885.342581,230.192793 885.454536,231.089006 L885.454536,233.777632 C885.454536,236.578299 886.014302,239.154873 887.13385,241.507432 L887.301781,241.507432 C888.645239,238.482713 889.316958,235.850126 889.316958,233.609593 C889.316958,232.937433 889.260981,231.201046 889.149026,228.40038 C889.93271,217.645822 890.436499,212.268623 890.660409,212.268623 C892.339731,203.754598 893.179379,197.873287 893.179379,194.624514 C894.186972,189.359262 895.026621,184.318138 895.69835,179.500992 C894.466847,180.957339 893.571222,182.525688 893.011448,184.206088 C892.563628,185.214328 892.059839,188.014952 891.500065,192.608045 C890.828337,195.520738 889.596852,200.897936 887.805575,208.739802 C887.133846,212.212628 886.294198,219.102163 885.286605,229.408615 Z M958.168819,184.710206 C958.168819,185.942499 958.616632,186.558636 959.51227,186.558636 L960.016064,186.558636 C960.687793,186.334583 961.023652,185.998508 961.023652,185.550401 L961.023652,185.214323 C960.911698,184.31811 960.463885,183.87001 959.680201,183.87001 L959.51227,183.87001 C958.616632,183.87001 958.168819,184.150072 958.168819,184.710206 Z M961.863309,193.784319 L961.863309,193.952358 C962.087219,194.848571 962.479055,195.296671 963.038829,195.296671 C963.710558,194.848564 964.046417,194.400464 964.046417,193.952358 L964.046417,193.784319 C963.934462,193.000132 963.598603,192.608045 963.038829,192.608045 C962.255145,192.608045 961.863309,193.000132 961.863309,193.784319 Z M965.557799,202.018236 C965.557799,202.690396 965.725729,203.026471 966.061593,203.026471 C966.957232,203.026471 967.461021,202.690396 967.572976,202.018236 C967.572976,201.346076 967.237116,201.010001 966.565388,201.010001 L966.397456,201.010001 C965.837682,201.010001 965.557799,201.346076 965.557799,202.018236 Z M985.541632,299.817012 C985.541632,300.377145 986.101398,300.657207 987.220946,300.657207 C988.116584,299.536941 989.404045,295.560054 991.083368,288.726429 C992.76269,281.444697 994.497963,271.922574 996.28924,260.159776 L998.472348,252.598015 C999.144077,249.573296 999.479936,247.556846 999.479936,246.548606 C999.479936,245.09226 998.92017,244.364098 997.800622,244.364098 C996.681074,244.364098 996.009355,245.31631 995.785446,247.220763 C994.218079,253.606282 993.434407,258.087281 993.434407,260.663894 C992.650723,265.705093 991.419239,272.314566 989.739917,280.492511 C988.732323,285.197631 987.500839,290.070717 986.045426,295.111916 C985.709562,298.024609 985.541632,299.592958 985.541632,299.817012 Z M1163.56232,36.8357687 C1166.80901,36.8357687 1173.47022,41.8768923 1183.54615,51.9592907 C1185.44938,53.7517171 1186.40098,55.0400042 1186.40098,55.8241907 C1186.73685,56.7204039 1186.90478,57.7846411 1186.90478,59.0169343 C1186.90478,62.3777337 1186.28904,65.5704453 1185.05753,68.5951648 C1184.83362,69.0432714 1183.938,70.0514962 1182.37063,71.6198692 C1177.66853,78.1174149 1173.02248,86.4072625 1168.43233,96.4896609 C1167.42474,98.6181672 1166.92095,99.7384169 1166.92095,99.8504436 L1166.75301,99.8504436 C1167.5367,96.1535642 1168.4883,92.7368026 1169.60785,89.6000565 C1171.17522,85.5670971 1173.41428,81.1421109 1176.3251,76.324965 C1177.3327,73.9724053 1179.06797,72.1800058 1181.53098,70.9477127 C1182.09075,70.4996061 1182.37063,70.1075187 1182.37063,69.7714388 L1182.37063,69.2673214 C1182.37063,68.3711082 1181.92282,67.8109833 1181.02718,67.58693 L1180.85925,67.58693 C1180.07557,67.58693 1179.17994,68.4271173 1178.17235,70.107517 C1164.06604,88.8159674 1157.013,104.6675 1157.013,117.662592 L1157.013,118.838865 C1157.013,125.672491 1159.19608,131.945889 1163.56232,137.659248 L1163.56232,137.827287 C1163.1145,139.955794 1162.89059,141.636168 1162.89059,142.868461 C1164.34601,141.524142 1165.12968,140.459904 1165.24163,139.675718 L1165.40956,139.507679 C1166.52911,140.627945 1168.26439,141.580158 1170.61544,142.364344 C1171.84694,143.260557 1172.96647,144.21277 1173.97406,145.221009 L1173.97406,145.389048 C1170.50346,146.845395 1166.47315,147.573557 1161.883,147.573557 C1152.81467,147.573557 1143.57853,145.109008 1134.17433,140.179835 C1131.71132,138.835516 1128.9125,136.651029 1125.77776,133.626309 C1122.41912,129.92943 1120.73982,126.232606 1120.73982,122.535726 C1120.96373,117.046421 1121.07568,113.349597 1121.07568,111.445144 L1121.07568,111.109065 C1121.07568,110.548932 1121.46752,109.428682 1122.2512,107.748283 L1123.09086,105.563774 C1121.07567,107.02012 1118.6127,109.48467 1115.70188,112.957496 C1108.98459,121.135441 1103.33096,128.921176 1098.74081,136.314935 C1088.88879,151.998666 1080.60426,167.178049 1073.88697,181.85354 C1070.0805,189.919459 1066.94582,197.313107 1064.48281,204.034706 C1062.80349,215.797504 1061.23614,223.247164 1059.78073,226.383911 C1059.33291,230.977003 1058.77315,234.449777 1058.10142,236.802337 C1057.6536,239.37895 1057.42969,241.619449 1057.42969,243.523902 L1057.42969,244.364098 C1057.42969,248.397057 1058.94106,251.085656 1061.96384,252.429976 C1063.64316,253.102136 1065.77027,253.438211 1068.34523,253.438211 C1072.26365,253.438211 1078.08521,252.710049 1085.81009,251.253702 C1088.94483,248.901143 1091.46377,247.50083 1093.36701,247.052724 L1087.65734,247.052724 L1087.65734,246.884685 C1093.81485,245.652392 1103.21892,240.331206 1115.86981,230.920967 C1128.07288,221.062622 1134.62214,216.133523 1135.51778,216.133523 C1139.88402,214.341097 1142.23503,213.444897 1142.5709,213.444897 C1137.64489,212.212604 1134.5102,211.036342 1133.16674,209.916075 C1131.93524,208.795809 1130.98364,206.891385 1130.31191,204.202745 C1129.86409,201.850185 1129.64018,197.873299 1129.64018,192.271967 C1129.41627,189.583327 1129.13639,188.239027 1128.80053,188.239027 C1128.80053,185.998494 1143.41041,183.029833 1172.63061,179.332953 L1173.13441,179.332953 C1175.59741,179.332953 1178.78808,181.29339 1182.70649,185.214323 C1185.72927,188.799176 1187.24064,192.327962 1187.24064,195.800788 L1187.24064,196.304906 C1187.24064,197.761252 1187.01674,198.601439 1186.56892,198.825493 C1184.66568,200.729946 1183.21029,203.026458 1182.2027,205.715097 C1181.41902,208.403737 1181.02718,210.028099 1181.02718,210.588232 C1181.13914,211.372419 1181.475,211.764506 1182.03477,211.764506 L1182.2027,211.764506 C1183.4342,211.764506 1184.21788,211.204381 1184.55374,210.084115 C1184.77765,208.067635 1185.05753,206.723335 1185.3934,206.051175 C1185.95317,204.930909 1186.62489,203.754647 1187.40857,202.522354 C1188.97594,203.30654 1189.75961,203.97869 1189.75961,204.538823 L1189.75961,204.706862 C1189.75961,204.930916 1189.14387,205.883128 1187.91237,207.563528 C1185.22545,212.82878 1182.25869,219.326228 1179.012,227.056067 C1175.65336,238.930892 1170.39156,259.991586 1163.22646,290.238781 C1157.1809,315.33275 1153.37449,331.744408 1151.80712,339.474247 C1150.46367,349.892725 1149.00827,355.942074 1147.44091,357.622473 L1146.93711,357.958552 C1145.25779,357.622472 1144.30619,357.342409 1144.08228,357.118356 C1144.86596,353.197423 1145.92952,347.372125 1147.27298,339.642286 C1147.9447,337.065673 1148.95228,334.377074 1150.29574,331.576408 C1150.96747,330.120061 1151.75114,327.319437 1152.64678,323.174451 C1152.98264,322.054185 1153.3185,319.421598 1153.65437,315.276612 C1157.46083,300.713147 1159.36403,293.039437 1159.36403,292.255251 L1158.86024,291.751133 C1158.18851,291.751133 1157.40484,293.48752 1156.5092,296.960346 C1153.26251,307.154771 1151.19138,313.484182 1150.29574,315.948768 C1149.84792,317.069035 1149.06425,318.469347 1147.9447,320.149747 L1147.9447,320.653864 C1148.16861,321.886157 1148.28056,322.950394 1148.28056,323.846608 C1148.28056,325.863087 1147.60885,330.064024 1146.26539,336.449543 C1145.03388,340.370475 1143.69045,343.731224 1142.23503,346.531891 C1141.78722,347.092024 1141.56331,347.484111 1141.56331,347.708164 C1141.56331,347.932218 1141.89917,348.716393 1142.5709,350.060712 C1142.79481,350.508819 1142.90676,351.012931 1142.90676,351.573065 C1142.45894,354.709811 1142.17906,356.27816 1142.0671,356.27816 C1139.6041,355.26992 1135.85367,353.141446 1130.8157,349.892673 C1129.47224,348.100247 1128.40869,346.36386 1127.62501,344.68346 C1126.84132,342.554954 1126.44949,341.098629 1126.44949,340.314443 C1126.44949,333.70487 1127.79292,322.558386 1130.47984,306.874655 C1133.83848,287.157965 1137.70087,266.489358 1142.0671,244.868215 L1141.89917,244.868215 C1125.77768,253.270214 1111.83952,259.823674 1100.08426,264.528794 C1082.17149,271.698499 1067.3377,275.283298 1055.58245,275.283298 C1040.02073,275.283298 1029.55311,269.065912 1024.17928,256.630954 C1023.17169,254.278395 1022.27606,251.309733 1021.49238,247.72488 L1020.31686,241.507432 L1019.981,241.675472 C1019.53318,239.883045 1019.30927,237.474508 1019.30927,234.449789 C1019.30927,229.520616 1019.81306,222.967156 1020.82065,214.78921 C1024.62712,201.121959 1028.76938,189.079275 1033.24758,178.660797 C1041.64419,157.935867 1051.10423,138.499535 1061.62798,120.351218 C1066.66594,111.725166 1072.54348,102.651143 1079.26077,93.1288782 C1083.17919,87.5275458 1088.49696,80.9740852 1095.21425,73.4682997 C1110.99988,56.6643024 1124.99402,48.2624298 1137.19709,48.2624298 L1138.54054,48.2624298 C1141.45137,48.2624298 1144.64203,48.9345796 1148.11263,50.2788994 C1150.9115,47.0301265 1153.65435,44.2855148 1156.34127,42.0449818 C1160.14773,38.5721557 1162.55473,36.8357687 1163.56232,36.8357687 Z M1036.94207,187.73491 L1036.94207,187.902949 C1036.94207,188.351056 1037.11,188.687131 1037.44586,188.911184 C1038.78932,188.239024 1039.46104,187.006749 1039.46104,185.214323 C1040.35667,182.97379 1042.09195,178.380766 1044.66691,171.435114 C1049.81683,158.440023 1056.58999,145.109052 1064.9866,131.4418 C1068.90502,125.056281 1073.88694,117.774659 1079.9325,109.596713 C1083.85091,103.659301 1088.83283,97.2178652 1094.87839,90.272213 C1101.14786,83.6626407 1105.45805,79.4617044 1107.8091,77.669278 C1109.48843,76.3249582 1112.00737,73.9724339 1115.36602,70.6116344 C1115.36602,70.4996078 1116.31762,69.4353706 1118.22085,67.4188909 C1118.78062,66.8587577 1119.06051,66.2426203 1119.06051,65.5704605 C1119.06051,64.5622206 1118.72465,64.0020958 1118.05292,63.8900691 C1117.15728,63.8900691 1116.20568,64.5622189 1115.19808,65.9065387 C1111.72749,69.4913915 1108.14499,72.8521405 1104.45048,75.9888867 C1102.32334,77.8933397 1098.85279,81.3101013 1094.03873,86.2392738 C1089.8964,90.6083131 1086.87367,94.2491246 1084.97044,97.1618174 C1082.61939,100.858697 1080.77216,103.547296 1079.4287,105.227696 C1074.7266,111.165108 1070.52836,117.046419 1066.83385,122.871805 C1064.59475,127.016791 1060.9003,133.178164 1055.75038,141.356109 C1050.93632,149.758108 1047.12992,157.543843 1044.33105,164.713549 C1041.42022,172.443388 1039.62897,177.316474 1038.95724,179.332953 C1038.50942,181.349433 1038.11759,183.253857 1037.78172,185.046284 C1037.22195,186.16655 1036.94207,187.06275 1036.94207,187.73491 Z M1153.48644,98.6741696 L1153.48644,99.3463262 C1155.16576,97.4418731 1156.7331,94.7532739 1158.18851,91.2804478 C1159.42002,88.2557283 1160.87541,83.830742 1162.55473,78.0053563 C1163.00255,77.2211697 1163.22646,76.5490199 1163.22646,75.9888867 L1162.21887,75.9888867 C1161.09932,76.21294 1159.69991,78.1173645 1158.02058,81.7022172 C1157.12494,83.6066702 1156.2853,86.0712195 1155.50161,89.0959391 C1154.15816,92.4567385 1153.48644,95.6494501 1153.48644,98.6741696 Z M1152.64678,107.580244 L1152.64678,108.924557 C1153.43046,108.028343 1153.8223,107.020119 1153.8223,105.899852 L1153.65437,104.555539 C1152.98264,105.227699 1152.64678,106.235924 1152.64678,107.580244 Z M1148.78436,122.031609 L1148.78436,122.199648 C1148.78436,123.207888 1149.00826,124.104088 1149.45608,124.888274 C1151.02345,123.543954 1151.80712,121.86358 1151.80712,119.8471 L1151.80712,119.511022 C1151.80712,118.838862 1151.69517,117.998675 1151.47126,116.990435 L1151.30333,116.990435 C1149.62401,118.446781 1148.78436,120.127156 1148.78436,122.031609 Z M1144.08228,120.015139 C1143.63446,120.351219 1143.41055,120.855332 1143.41055,121.527492 L1143.57849,121.527492 C1144.0263,121.191412 1144.25021,120.799324 1144.25021,120.351218 L1144.25021,120.183179 C1144.25021,120.071152 1144.19423,120.015139 1144.08228,120.015139 Z M1057.59762,156.311592 C1060.6204,153.286873 1062.35568,150.374223 1062.8035,147.573557 L1062.63557,147.573557 C1060.62038,148.693824 1059.16499,150.654261 1058.26935,153.454927 C1057.93349,154.239113 1057.70958,155.191326 1057.59762,156.311592 Z M1055.75038,161.016688 C1056.86993,160.120475 1057.42969,159.000225 1057.42969,157.655905 L1057.42969,157.151788 C1056.31014,158.160028 1055.75038,159.448315 1055.75038,161.016688 Z M1052.55968,167.402175 C1052.55968,166.169882 1053.11945,164.937607 1054.239,163.705314 C1054.239,164.937607 1053.67923,166.169882 1052.55968,167.402175 Z M1049.70485,173.451584 L1049.70485,173.619623 C1050.37658,172.275303 1050.76841,171.155053 1050.88037,170.25884 C1050.09669,171.60316 1049.70485,172.667397 1049.70485,173.451584 Z M1035.09482,190.255497 L1034.92689,190.759614 L1035.09482,190.759614 L1035.09482,190.255497 Z M1034.25516,192.440006 C1033.24757,194.456485 1032.74378,195.744772 1032.74378,196.304906 L1032.91171,196.304906 C1033.80735,194.288426 1034.25516,193.000139 1034.25516,192.440006 Z M1028.20963,209.579997 L1028.20963,210.252154 C1030.11287,207.675541 1031.4563,203.866692 1032.23999,198.825493 C1032.23999,198.601439 1032.29596,198.097327 1032.40792,197.313141 C1029.60905,201.68218 1028.20963,205.771091 1028.20963,209.579997 Z M1178.00442,214.78921 L1178.00442,215.125289 C1178.00442,215.349342 1178.39625,215.517379 1179.17994,215.629406 C1180.7473,215.629406 1181.75488,215.013269 1182.2027,213.780976 C1182.31466,213.668949 1182.37063,213.500911 1182.37063,213.276858 C1182.37063,212.828752 1182.14673,212.604702 1181.69891,212.604702 C1180.57936,212.604702 1179.40385,213.332864 1178.17235,214.78921 L1178.00442,214.78921 Z M1024.85101,215.965484 C1024.85101,216.301564 1025.01894,216.581627 1025.3548,216.80568 C1025.91458,216.80568 1026.30641,216.525618 1026.53032,215.965484 C1026.75423,215.181298 1026.86618,214.621173 1026.86618,214.285093 C1026.86618,213.72496 1026.64228,213.444897 1026.19446,213.444897 C1025.63468,213.444897 1025.3548,213.72496 1025.3548,214.285093 C1025.01894,215.405359 1024.85101,215.965484 1024.85101,215.965484 Z M1135.01399,237.642532 L1135.85364,237.810572 L1136.02157,237.810572 C1138.82044,237.810572 1141.45134,237.082409 1143.91435,235.626063 C1144.25021,233.945663 1144.41814,232.937438 1144.41814,232.601358 C1142.62687,233.497572 1140.49976,234.393771 1138.03675,235.289985 C1136.80525,235.962144 1135.79767,236.746319 1135.01399,237.642532 Z" id="Gaming" transform="translate(739.921852, 190.759615) rotate(-3.000000) translate(-739.921852, -190.759615) "></path>
        </g>
    </g>
</svg>