<?xml version="1.0" encoding="UTF-8"?>
<svg width="208px" height="111px" viewBox="0 0 208 111" version="1.1" xmlns="http://www.w3.org/2000/svg" xmlns:xlink="http://www.w3.org/1999/xlink">
    <!-- Generator: Sketch 54.1 (76490) - https://sketchapp.com -->
    <title>our</title>
    <desc>Created with Sketch.</desc>
    <g id="Page-1" stroke="none" stroke-width="1" fill="none" fill-rule="evenodd">
        <g id="Artboard" transform="translate(-930.000000, -2027.000000)" fill-rule="nonzero" stroke="#FFFFFF">
            <path d="M964.920693,2043.02148 C970.303533,2043.02148 975.55934,2044.95115 980.688272,2048.81055 C981.703902,2049.01367 982.744907,2049.52148 983.811318,2050.33398 C984.471478,2050.8418 985.106237,2051.47656 985.715615,2052.23828 C986.477338,2053.35547 987.061316,2054.3457 987.467568,2055.20898 C988.178509,2056.58008 988.864049,2058.6621 989.524209,2061.45508 C990.387495,2065.46682 990.819131,2069.55467 990.819131,2073.71875 L990.819131,2075.39453 C990.819131,2082.04691 989.930468,2088.57223 988.153115,2094.9707 C987.340611,2097.40822 986.426558,2099.5664 985.410928,2101.44531 C984.496861,2103.07032 983.328904,2104.79687 981.907022,2106.625 C980.18045,2108.60548 978.555467,2110.17968 977.032022,2111.34766 C971.953871,2115.25783 966.774235,2117.21289 961.492959,2117.21289 C954.992927,2117.21289 949.280093,2114.31839 944.354287,2108.5293 C938.71754,2105.48241 934.858204,2101.06448 932.776162,2095.27539 C931.557406,2092.02537 930.948037,2088.62306 930.948037,2085.06836 L930.948037,2084.30664 C930.948037,2078.21286 932.52224,2071.81449 935.670693,2065.11133 C936.686323,2063.08007 937.854281,2061.07423 939.1746,2059.09375 C940.291793,2057.41796 941.916776,2055.41212 944.0496,2053.07617 C946.182423,2050.99413 947.807407,2049.57227 948.9246,2048.81055 C950.752734,2047.49023 952.301546,2046.55078 953.571084,2045.99219 C957.48126,2044.01171 961.264425,2043.02148 964.920693,2043.02148 Z M947.782022,2054.37109 L947.782022,2054.52344 C948.949996,2054.11719 949.533975,2053.78711 949.533975,2053.5332 C949.533975,2053.38086 949.559365,2053.25391 949.610147,2053.15234 C949.559365,2052.84765 949.508584,2052.59375 949.457803,2052.39062 C948.797643,2052.54297 948.366007,2052.79687 948.162881,2053.15234 C947.908973,2053.50781 947.782022,2053.91406 947.782022,2054.37109 Z M948.315225,2085.67773 C948.315225,2093.85356 951.006604,2100.53122 956.389443,2105.71094 C957.354292,2106.52344 958.090613,2107.10742 958.598428,2107.46289 C960.985158,2106.75195 962.940217,2105.45704 964.463662,2103.57812 C966.08867,2101.64843 968.297633,2097.15433 971.090615,2090.0957 C971.699993,2088.57226 972.334753,2086.084 972.994912,2082.63086 C973.502727,2080.19335 974.010535,2076.30862 974.51835,2070.97656 C975.076946,2063.96871 975.35624,2057.90042 975.35624,2052.77148 L974.51835,2052.77148 C970.557392,2052.77148 967.053521,2053.60937 964.006631,2055.28516 C962.991001,2055.89453 961.924605,2056.63086 960.807412,2057.49414 C958.776152,2059.37306 957.506633,2060.66797 956.998818,2061.37891 C955.780062,2062.90235 954.688276,2064.47655 953.723428,2066.10156 C952.606235,2067.98048 951.59062,2070.21483 950.676553,2072.80469 C949.102326,2077.22268 948.315225,2081.51365 948.315225,2085.67773 Z M946.258584,2056.19922 L946.334756,2056.58008 C946.4871,2056.5293 946.614052,2056.45313 946.715615,2056.35156 L946.4871,2056.04688 L946.334756,2056.04688 C946.334756,2056.04688 946.309366,2056.09766 946.258584,2056.19922 Z M934.528115,2077.29883 L934.756631,2077.29883 C935.569135,2077.29883 935.975381,2076.71485 935.975381,2075.54688 C936.026162,2074.73437 936.178505,2074.04883 936.432412,2073.49023 C937.498824,2070.44334 938.742952,2067.77736 940.164834,2065.49219 C940.824994,2064.42578 941.840608,2063.13087 943.211709,2061.60742 C944.481247,2060.18554 945.471471,2058.58595 946.182412,2056.80859 C946.080849,2056.75781 945.928507,2056.73242 945.725381,2056.73242 L945.573037,2056.73242 C945.166785,2056.73242 944.78593,2057.03711 944.430459,2057.64648 C942.500762,2059.67774 940.97734,2061.50585 939.860147,2063.13086 C938.438264,2065.11134 937.574992,2066.68554 937.270303,2067.85352 L936.051553,2069.91016 C935.035923,2071.9922 934.528115,2074.45506 934.528115,2077.29883 Z M934.2996,2078.97461 C933.944129,2079.83789 933.766397,2080.75195 933.766397,2081.7168 C933.766397,2082.88477 933.893348,2083.46875 934.147256,2083.46875 C934.350382,2083.57031 934.477334,2083.62109 934.528115,2083.62109 L934.604287,2083.62109 C934.756632,2083.62109 934.832803,2083.46875 934.832803,2083.16406 C935.035929,2082.14843 935.13749,2081.25977 935.13749,2080.49805 L935.13749,2080.26953 C935.13749,2079.45703 934.959758,2079.05078 934.604287,2079.05078 L934.2996,2078.97461 Z M986.477334,2084.91602 L986.477334,2086.13477 C986.477334,2086.64258 985.918746,2088.54686 984.801553,2091.84766 C984.141393,2093.47266 983.405072,2095.02148 982.592568,2096.49414 C982.033972,2097.30664 981.24687,2098.34765 980.23124,2099.61719 C979.418736,2100.83594 978.809367,2102.0039 978.403115,2103.12109 C978.199989,2103.73047 978.098428,2104.06055 978.098428,2104.11133 L978.479287,2104.11133 C979.088665,2104.11133 979.520302,2103.80664 979.774209,2103.19727 C982.719536,2099.59178 984.649204,2096.6465 985.563272,2094.36133 L986.248818,2092.38086 C986.248818,2092.2793 986.477332,2091.7461 986.934365,2090.78125 C987.543743,2089.20702 987.848428,2087.55665 987.848428,2085.83008 C987.848428,2085.01757 987.797647,2084.23047 987.696084,2083.46875 C986.88358,2083.46875 986.477334,2083.95117 986.477334,2084.91602 Z M978.1746,2092.38086 C978.377726,2093.14258 978.580849,2093.52344 978.783975,2093.52344 L978.860147,2093.52344 C978.910928,2093.37109 978.987099,2092.99024 979.088662,2092.38086 C979.139444,2092.38086 979.164834,2092.33008 979.164834,2092.22852 C979.063271,2092.2793 978.733196,2092.33008 978.1746,2092.38086 Z M977.565225,2104.56836 C977.616006,2104.66992 977.692177,2104.74609 977.79374,2104.79688 L978.022256,2104.79688 L978.022256,2104.64453 L977.946084,2104.33984 C977.844521,2104.33984 977.717569,2104.41601 977.565225,2104.56836 Z M974.746865,2107.69141 L974.746865,2107.76758 C974.797647,2108.32617 974.873818,2108.60547 974.975381,2108.60547 C975.63554,2108.40234 976.092567,2108.09766 976.346475,2107.69141 C976.498819,2107.28515 976.57499,2106.92969 976.57499,2106.625 L976.57499,2106.47266 C975.457797,2106.92969 974.873819,2107.25976 974.823037,2107.46289 L974.746865,2107.69141 Z M970.709756,2112.10938 L970.709756,2112.33789 C970.709756,2112.38867 970.912879,2112.54101 971.319131,2112.79492 C972.537887,2112.28711 973.40116,2111.47461 973.908975,2110.35742 C973.959756,2110.35742 973.985147,2110.33203 973.985147,2110.28125 C973.629676,2109.875 973.350382,2109.67188 973.147256,2109.67188 C971.623811,2110.73829 970.811319,2111.55078 970.709756,2112.10938 Z M1058.88242,2037.30859 C1061.6754,2037.30859 1064.44295,2037.84179 1067.18515,2038.9082 C1068.15,2039.16211 1068.83554,2039.51758 1069.24179,2039.97461 C1069.69883,2040.53321 1069.92734,2041.16797 1069.92734,2041.87891 C1069.97812,2041.87891 1070.00351,2041.98047 1070.00351,2042.18359 L1070.00351,2042.64062 C1070.00351,2045.43361 1067.59143,2057.46864 1062.76718,2078.74609 C1061.49765,2084.2305 1060.65976,2087.68359 1060.25351,2089.10547 C1057.35897,2098.9063 1054.97227,2108.19917 1053.09336,2116.98438 C1052.23007,2121.25002 1051.79843,2124.70311 1051.79843,2127.34375 L1051.79843,2127.64844 C1051.79843,2130.4922 1052.25546,2133.20897 1053.16953,2135.79883 C1053.22031,2136.10352 1053.2457,2136.30664 1053.2457,2136.4082 C1053.2457,2136.76367 1052.94102,2136.9668 1052.33164,2137.01758 C1051.77304,2137.06836 1051.29062,2137.09375 1050.88437,2137.09375 C1047.73592,2137.09375 1044.8922,2135.87501 1042.35312,2133.4375 C1041.54062,2132.42187 1040.98203,2131.15235 1040.67734,2129.62891 C1039.91562,2126.48045 1039.53476,2122.31643 1039.53476,2117.13672 C1039.53476,2112.00779 1039.86484,2107.91994 1040.525,2104.87305 L1042.35312,2094.9707 C1038.23982,2099.74416 1033.26331,2105.33005 1027.42343,2111.72852 C1022.14216,2117.56839 1019.27305,2120.89453 1018.81601,2121.70703 C1017.54647,2123.12891 1016.35313,2124.24609 1015.23593,2125.05859 C1010.76716,2128.56252 1007.33946,2130.31445 1004.95273,2130.31445 C1004.08945,2130.31445 1003.37852,2129.95899 1002.81992,2129.24805 C1002.71836,2129.24805 1000.7633,2128.23243 996.954684,2126.20117 C994.720298,2125.23632 993.323828,2124.42383 992.765231,2123.76367 C991.851164,2122.90039 991.191014,2122.11328 990.784762,2121.40234 C989.870695,2119.67577 989.413669,2117.94923 989.413669,2116.22266 C989.413669,2114.24218 991.038652,2105.76179 994.288669,2090.78125 C997.741811,2075.5468 1000.81405,2064.09574 1003.50547,2056.42773 C1003.9625,2055.36132 1004.59726,2054.26954 1005.40976,2053.15234 C1006.52696,2051.67968 1007.79647,2050.71485 1009.21836,2050.25781 C1009.87852,2050.10547 1010.61484,2050.0293 1011.42734,2050.0293 C1012.79844,2050.0293 1013.9664,2050.43554 1014.93125,2051.24805 L1015.99765,2051.70508 C1015.54062,2052.36524 1015.08359,2053.35546 1014.62656,2054.67578 C1014.47421,2055.28516 1014.16953,2056.45312 1013.7125,2058.17969 C1013.20468,2059.50001 1012.77305,2060.79492 1012.41757,2062.06445 C1012.16367,2063.43555 1011.83359,2065.64452 1011.42734,2068.69141 C1011.12265,2070.26563 1010.7418,2071.78906 1010.28476,2073.26172 C1009.82773,2074.58204 1009.59922,2075.36914 1009.59922,2075.62305 L1009.59922,2075.69922 C1009.59922,2076.00391 1009.62461,2076.51172 1009.67539,2077.22266 C1010.64024,2076.8164 1011.63046,2075.16603 1012.64609,2072.27148 C1013.25547,2070.59569 1013.89023,2068.05666 1014.55039,2064.6543 C1015.00742,2061.86131 1015.56601,2057.62112 1016.22617,2051.93359 L1016.30234,2051.78125 C1016.86094,2051.78125 1017.36874,2052.1875 1017.82578,2053 C1018.28281,2054.01563 1018.51132,2055.56444 1018.51132,2057.64648 C1018.51132,2061.709 1017.85118,2066.15232 1016.53086,2070.97656 C1013.33162,2082.85943 1010.97032,2091.74606 1009.44687,2097.63672 C1007.26327,2106.62504 1006.17148,2112.2871 1006.17148,2114.62305 C1007.33946,2114.36914 1008.88827,2113.65821 1010.81797,2112.49023 C1011.42734,2112.0332 1012.44296,2111.09376 1013.86484,2109.67188 L1015.84531,2107.38672 C1017.82579,2104.84764 1019.78085,2102.13087 1021.71054,2099.23633 C1025.82385,2093.19333 1030.4195,2085.85551 1035.49765,2077.22266 C1039.91564,2069.70699 1042.78476,2064.90821 1044.10507,2062.82617 C1045.1207,2061.60742 1047.22811,2056.93559 1050.42734,2048.81055 C1052.86485,2042.76755 1054.71835,2039.11133 1055.98789,2037.8418 C1056.29258,2037.48633 1056.87655,2037.30859 1057.73984,2037.30859 L1058.88242,2037.30859 Z M1071.37461,2040.88867 C1071.83164,2041.44727 1072.06015,2042.08203 1072.06015,2042.79297 C1072.06015,2043.30078 1071.80625,2044.44335 1071.29843,2046.2207 C1070.13046,2052.72074 1068.53087,2060.56636 1066.49961,2069.75781 C1066.39804,2070.11328 1066.34726,2070.3418 1066.34726,2070.44336 L1066.27109,2070.44336 L1066.27109,2068.91992 C1066.27109,2066.63475 1066.62656,2063.99416 1067.3375,2060.99805 C1067.79453,2058.71288 1068.35312,2056.45314 1069.01328,2054.21875 L1070.15586,2050.71484 C1070.15586,2048.68358 1070.35898,2046.77931 1070.76523,2045.00195 C1071.06992,2043.17382 1071.27304,2041.80274 1071.37461,2040.88867 Z M1057.35898,2084.53516 L1057.35898,2085.52539 C1057.40976,2086.54102 1057.66367,2087.04883 1058.1207,2087.04883 L1058.27304,2087.04883 C1058.62851,2086.79492 1058.80625,2085.88087 1058.80625,2084.30664 L1058.80625,2083.39258 C1058.80625,2082.17382 1059.21249,2080.52345 1060.025,2078.44141 C1060.17734,2077.98437 1060.35507,2076.81642 1060.5582,2074.9375 C1060.91367,2073.05858 1061.3707,2071.12892 1061.92929,2069.14844 C1062.33555,2067.98046 1062.69101,2066.68555 1062.9957,2065.26367 C1063.24961,2064.29882 1063.55429,2063.46094 1063.90976,2062.75 L1063.90976,2062.52148 C1063.90976,2061.30273 1064.18906,2059.5254 1064.74765,2057.18945 L1065.9664,2053.30469 C1066.47422,2051.83202 1067.03281,2050.38477 1067.64218,2048.96289 L1067.8707,2047.05859 L1068.93711,2042.64062 C1068.1246,2043.60547 1067.71836,2044.24023 1067.71836,2044.54492 C1066.65194,2047.23634 1065.89023,2049.59765 1065.4332,2051.62891 C1065.4332,2052.33985 1064.82383,2054.54881 1063.60507,2058.25586 C1062.79257,2060.28712 1061.95469,2063.05467 1061.0914,2066.55859 C1060.68515,2068.48829 1059.92344,2071.71287 1058.80625,2076.23242 C1058.29843,2078.36525 1057.94297,2080.3203 1057.73984,2082.09766 L1057.35898,2084.53516 Z M1065.73789,2072.72852 L1065.81406,2072.72852 C1065.40781,2074.35352 1065.20468,2075.2168 1065.20468,2075.31836 L1065.12851,2075.31836 C1065.28086,2074.60742 1065.48398,2073.74415 1065.73789,2072.72852 Z M1019.1207,2116.9082 L1019.19687,2116.9082 C1021.53282,2114.92772 1023.46249,2113.27735 1024.98593,2111.95703 C1027.47423,2109.51952 1028.94687,2107.94532 1029.4039,2107.23438 C1033.97424,2101.85154 1036.53867,2098.62696 1037.09726,2097.56055 C1038.62071,2095.27538 1039.9664,2092.78712 1041.13437,2090.0957 C1040.7789,2090.55274 1038.72228,2093.42185 1034.96445,2098.70312 C1033.441,2100.88673 1030.74963,2104.1367 1026.89023,2108.45312 C1025.97616,2109.46876 1024.70665,2110.81444 1023.08164,2112.49023 C1021.05038,2114.57228 1019.73008,2116.04492 1019.1207,2116.9082 Z M1018.35898,2117.89844 C1017.7496,2118.40625 1017.44492,2118.76172 1017.44492,2118.96484 L1017.44492,2119.04102 C1017.4957,2119.3457 1017.62265,2119.49805 1017.82578,2119.49805 C1018.0289,2119.49805 1018.23203,2119.04102 1018.43515,2118.12695 L1018.43515,2117.97461 C1018.43515,2117.92383 1018.40976,2117.89844 1018.35898,2117.89844 Z M1127.09805,2034.0332 C1128.36759,2034.84571 1129.76406,2035.98827 1131.2875,2037.46094 C1132.96329,2039.13673 1134.13125,2040.58398 1134.79141,2041.80273 C1135.60391,2043.07227 1136.23867,2044.44335 1136.69571,2045.91602 C1136.94961,2046.57618 1137.07657,2046.98242 1137.07657,2047.13477 C1136.77188,2047.33789 1136.61953,2047.54101 1136.61953,2047.74414 C1136.77188,2048.20117 1136.84805,2048.58203 1136.84805,2048.88672 C1136.84805,2049.34375 1136.61954,2050.33398 1136.1625,2051.85742 C1135.80703,2052.61914 1135.6293,2053.30468 1135.6293,2053.91406 C1135.6293,2054.32031 1135.85781,2055.08203 1136.31485,2056.19922 C1136.36563,2056.45313 1136.39102,2056.65625 1136.39102,2056.80859 C1136.39102,2057.21485 1135.98477,2058.28124 1135.17227,2060.00781 C1134.30898,2062.2422 1133.69961,2063.66406 1133.34414,2064.27344 C1133.1918,2064.62891 1132.88711,2064.88281 1132.43008,2065.03516 C1131.97305,2065.44141 1131.54141,2066.05078 1131.13516,2066.86328 C1129.61171,2068.94532 1128.36759,2071.05272 1127.40274,2073.18555 C1126.99649,2074.04883 1125.57462,2075.85155 1123.13711,2078.59375 L1123.21328,2078.59375 C1124.5336,2077.42578 1125.95546,2076.18165 1127.47891,2074.86133 L1127.55508,2074.86133 C1125.01601,2078.26369 1121.58831,2082.32615 1117.27188,2087.04883 C1113.56483,2090.959 1110.41642,2094.08202 1107.82657,2096.41797 L1104.475,2099.46484 C1108.79143,2101.75001 1114.25036,2104.39061 1120.85196,2107.38672 C1125.87933,2109.72267 1129.3832,2111.57617 1131.36368,2112.94727 C1131.71915,2113.25195 1132.25234,2113.78515 1132.96328,2114.54688 C1133.97891,2115.3086 1134.66445,2116.24804 1135.01993,2117.36523 L1135.0961,2117.97461 C1135.0961,2119.95509 1133.11565,2121.37695 1129.15469,2122.24023 C1127.73281,2121.68164 1126.31095,2121.02149 1124.88907,2120.25977 L1120.39493,2117.74609 C1118.76992,2116.78125 1116.9672,2115.56251 1114.98672,2114.08984 C1114.7836,2113.88672 1114.09806,2113.63281 1112.93008,2113.32812 C1111.71133,2112.82031 1109.50236,2111.7793 1106.30313,2110.20508 C1105.33828,2109.74804 1104.80508,2109.51953 1104.70352,2109.51953 L1104.62735,2109.51953 C1104.57657,2109.51953 1104.475,2109.57031 1104.32266,2109.67188 C1104.42422,2110.07813 1104.60196,2110.35742 1104.85586,2110.50977 C1107.29337,2111.88087 1109.90858,2113.48046 1112.70157,2115.30859 C1114.83439,2116.62891 1117.24647,2117.82226 1119.93789,2118.88867 C1121.76603,2119.75196 1123.51796,2120.6914 1125.19375,2121.70703 C1125.80313,2122.11328 1126.36172,2122.49414 1126.86953,2122.84961 L1125.8793,2123.23047 C1125.0668,2123.58594 1124.5336,2124.09375 1124.27969,2124.75391 C1124.12735,2124.95703 1123.975,2125.05859 1123.82266,2125.05859 L1123.59414,2125.05859 C1123.08633,2125.05859 1121.56291,2124.29688 1119.02383,2122.77344 C1115.92616,2120.9453 1112.34612,2119.29493 1108.2836,2117.82227 C1105.64296,2116.9082 1102.46916,2116.01954 1098.76211,2115.15625 C1092.46521,2113.32812 1087.2094,2111.88086 1082.99453,2110.81445 L1082.91836,2110.81445 C1082.46133,2111.06836 1081.92813,2111.44922 1081.31875,2111.95703 C1081.21719,2111.95703 1081.03946,2112.46484 1080.78555,2113.48047 C1079.16054,2118.91409 1078.34805,2122.24023 1078.34805,2123.45898 L1078.34805,2123.53516 C1078.34805,2123.99219 1078.60195,2125.46483 1079.10977,2127.95312 C1079.31289,2129.22266 1079.41446,2130.21289 1079.41446,2130.92383 C1079.41446,2132.29493 1079.05899,2133.31054 1078.34805,2133.9707 C1078.09414,2134.42774 1077.66251,2134.65625 1077.05313,2134.65625 L1076.74844,2134.65625 C1075.32656,2134.65625 1073.6254,2134.27539 1071.64493,2133.51367 C1070.52773,2133.00586 1069.51212,2132.39649 1068.59805,2131.68555 C1065.65272,2129.29882 1064.18008,2126.12502 1064.18008,2122.16406 C1064.18008,2119.57421 1064.68789,2115.41018 1065.70352,2109.67188 C1067.1254,2102.30856 1069.00429,2094.41215 1071.34024,2085.98242 C1072.71134,2081.05662 1075.25038,2072.57623 1078.95743,2060.54102 C1080.53165,2054.95505 1081.90273,2049.59768 1083.07071,2044.46875 C1083.07071,2044.41797 1083.0961,2044.26563 1083.14688,2044.01172 L1083.07071,2044.01172 C1081.39492,2044.57032 1079.99845,2044.84961 1078.88125,2044.84961 C1076.34218,2044.84961 1074.6918,2043.50392 1073.93008,2040.8125 C1073.93008,2040.60937 1073.49845,2039.79688 1072.63516,2038.375 C1072.43203,2037.86718 1072.33047,2037.46094 1072.33047,2037.15625 L1072.33047,2037.00391 C1072.33047,2036.75 1072.43203,2036.57227 1072.63516,2036.4707 C1076.95159,2033.83006 1080.48085,2032.23047 1083.22305,2031.67188 C1084.84806,2031.26562 1086.67616,2031.0625 1088.70743,2031.0625 C1090.23087,2030.91016 1091.27188,2030.73242 1091.83047,2030.5293 C1092.23672,2030.32617 1092.46524,2030.19922 1092.51602,2030.14844 C1091.95742,2030.09766 1091.24649,2030.07227 1090.38321,2030.07227 L1089.39297,2030.07227 C1088.225,2030.07227 1087.08243,2030.25 1085.96524,2030.60547 L1082.0043,2031.36719 C1080.68398,2031.67188 1079.41446,2032.10351 1078.19571,2032.66211 C1077.99258,2032.76367 1077.4086,2032.9414 1076.44375,2033.19531 C1075.58047,2033.5 1074.46329,2034.0332 1073.09219,2034.79492 C1073.09219,2034.8457 1073.0668,2034.87109 1073.01602,2034.87109 L1072.93985,2034.87109 L1072.86368,2034.79492 C1073.0668,2034.43945 1073.47305,2034.0586 1074.08243,2033.65234 C1075.14884,2032.9414 1076.26601,2032.28125 1077.43399,2031.67188 C1079.71916,2030.5039 1082.35975,2029.61524 1085.35586,2029.00586 C1088.19963,2028.44726 1094.09019,2028.23144 1103.02774,2028.3584 C1111.96528,2028.48535 1119.98864,2030.37693 1127.09805,2034.0332 Z M1085.58438,2039.51758 C1085.58438,2039.77149 1085.68594,2039.89844 1085.88907,2039.89844 C1086.04141,2039.89844 1086.11758,2039.79688 1086.11758,2039.59375 C1086.0668,2039.39062 1086.04141,2039.26367 1086.04141,2039.21289 L1085.66055,2039.21289 C1085.60977,2039.26367 1085.58438,2039.36523 1085.58438,2039.51758 Z M1099.29532,2043.40234 L1099.37149,2043.63086 L1099.37149,2044.16406 C1099.37149,2044.41797 1099.11758,2045.33202 1098.60977,2046.90625 C1098.45742,2047.3125 1098.33047,2048.27734 1098.22891,2049.80078 C1097.975,2051.37501 1097.79727,2052.23828 1097.69571,2052.39062 C1096.57851,2053.20313 1095.86758,2054.14257 1095.56289,2055.20898 C1095.41055,2055.91993 1095.08047,2056.91015 1094.57266,2058.17969 C1094.42031,2058.58594 1094.21719,2059.39843 1093.96328,2060.61719 C1092.59218,2065.49221 1091.90664,2068.56445 1091.90664,2069.83398 L1091.90664,2070.21484 C1091.90664,2070.57031 1091.98281,2070.74805 1092.13516,2070.74805 C1092.43985,2070.74805 1093.1,2069.3008 1094.11563,2066.40625 C1094.67422,2064.8828 1095.13125,2063.53712 1095.48672,2062.36914 L1095.56289,2062.36914 C1092.31288,2075.21686 1089.36759,2085.95699 1086.72696,2094.58984 C1089.26603,2092.86327 1092.10975,2090.6797 1095.25821,2088.03906 C1097.03556,2086.61718 1099.49843,2084.33205 1102.64688,2081.18359 C1106.25237,2077.47654 1108.71523,2074.70899 1110.03555,2072.88086 C1116.18011,2065.11129 1119.25235,2058.61135 1119.25235,2053.38086 C1119.25235,2047.99802 1112.60007,2044.67188 1099.29532,2043.40234 Z M1134.48672,2046.06836 C1134.89297,2048.35353 1135.0961,2049.52148 1135.0961,2049.57227 C1135.19766,2048.96289 1135.27383,2048.4043 1135.32461,2047.89648 C1135.32461,2047.38867 1135.0961,2046.85547 1134.63907,2046.29688 C1134.63907,2046.29688 1134.58829,2046.2207 1134.48672,2046.06836 Z M1069.2836,2104.79688 C1069.2836,2104.94922 1069.5375,2105.07617 1070.04532,2105.17773 C1070.45157,2104.7207 1070.78164,2104.13672 1071.03555,2103.42578 C1072.60978,2098.90623 1074.79335,2090.83209 1077.58633,2079.20312 C1079.46525,2072.60153 1081.36952,2064.93364 1083.29922,2056.19922 C1083.60391,2055.38671 1084.01016,2054.3711 1084.51797,2053.15234 C1084.97501,2051.67968 1085.20352,2050.66407 1085.20352,2050.10547 L1085.20352,2050.0293 C1085.15274,2049.41992 1084.92422,2049.11523 1084.51797,2049.11523 L1084.36563,2049.11523 C1083.95938,2049.11523 1083.68008,2049.52148 1083.52774,2050.33398 C1083.52774,2050.43555 1083.24844,2051.29882 1082.68985,2052.92383 L1081.69961,2057.64648 C1076.31677,2077.29893 1072.43205,2091.94917 1070.04532,2101.59766 C1069.84219,2102.25782 1069.58829,2103.32421 1069.2836,2104.79688 Z M1134.79141,2051.01953 C1134.84219,2051.17188 1134.91836,2051.24805 1135.01993,2051.24805 C1135.17227,2051.19727 1135.24844,2051.14648 1135.24844,2051.0957 L1135.24844,2050.94336 C1135.24844,2050.74023 1135.19766,2050.43555 1135.0961,2050.0293 C1134.99453,2050.0293 1134.89297,2050.30859 1134.79141,2050.86719 C1134.79141,2050.86719 1134.79141,2050.91797 1134.79141,2051.01953 Z M1113.99649,2084.6875 C1113.48867,2084.89063 1113.03165,2085.14453 1112.62539,2085.44922 C1112.0668,2085.95703 1111.73672,2086.43945 1111.63516,2086.89648 C1111.7875,2087.55664 1112.01602,2087.88672 1112.32071,2087.88672 L1112.39688,2087.88672 C1112.75235,2087.88672 1112.98086,2087.78516 1113.08243,2087.58203 C1113.74258,2086.92187 1114.14883,2086.28711 1114.30118,2085.67773 C1114.45352,2085.32226 1114.60586,2085.14453 1114.75821,2085.14453 C1115.57071,2084.83984 1116.3832,2084.07813 1117.19571,2082.85938 C1117.24649,2082.85938 1118.0082,2081.94532 1119.48086,2080.11719 C1121.35978,2078.49218 1122.47695,2077.34961 1122.83243,2076.68945 C1123.54337,2075.62304 1124.48281,2074.32813 1125.65078,2072.80469 C1126.26016,2071.83984 1126.84414,2070.77344 1127.40274,2069.60547 C1127.40274,2069.40234 1127.65664,2068.89454 1128.16446,2068.08203 C1128.62149,2067.42187 1129.1293,2066.20313 1129.68789,2064.42578 C1130.24649,2062.54687 1130.90664,2060.8711 1131.66836,2059.39844 C1132.22696,2057.51952 1132.50625,2056.25 1132.50625,2055.58984 L1132.43008,2055.58984 C1132.32852,2055.58984 1132.10001,2055.53906 1131.74453,2055.4375 C1131.59219,2055.4375 1131.49063,2055.76757 1131.43985,2056.42773 C1131.33828,2056.63086 1131.23672,2057.18945 1131.13516,2058.10352 C1130.27187,2060.13478 1128.82462,2063.18162 1126.79336,2067.24414 C1125.16835,2070.44338 1124.0004,2072.62695 1123.28946,2073.79492 C1121.96914,2074.25196 1120.95352,2075.11523 1120.24258,2076.38477 C1119.78555,2077.14649 1118.8461,2078.26366 1117.42422,2079.73633 C1116.71328,2080.44727 1116.10391,2080.92969 1115.5961,2081.18359 C1114.52969,2082.14844 1113.99649,2083.3164 1113.99649,2084.6875 Z M1134.41055,2055.58984 C1134.41055,2055.69141 1134.35977,2055.81836 1134.25821,2055.9707 L1134.33438,2055.9707 L1134.48672,2055.58984 L1134.41055,2055.58984 Z M1134.02969,2056.73242 C1133.82656,2057.03711 1133.57266,2057.79882 1133.26797,2059.01758 C1133.06485,2059.7793 1132.68399,2060.97265 1132.12539,2062.59766 C1132.32852,2062.59766 1132.53164,2062.34375 1132.73477,2061.83594 C1133.59805,2060.36327 1134.02969,2058.94141 1134.02969,2057.57031 L1134.02969,2056.73242 Z M1128.69766,2068.61523 C1128.69766,2068.7168 1128.72305,2068.76758 1128.77383,2068.76758 L1128.85,2068.76758 L1128.85,2068.53906 C1128.74844,2068.58984 1128.69766,2068.61523 1128.69766,2068.61523 Z M1069.96914,2106.92969 C1069.20742,2108.40235 1068.82657,2109.64648 1068.82657,2110.66211 L1068.75039,2112.10938 C1068.85196,2112.16016 1068.90274,2112.21094 1068.90274,2112.26172 C1068.95352,2112.26172 1069.02969,2112.00782 1069.13125,2111.5 C1069.74063,2109.82421 1070.04532,2108.35157 1070.04532,2107.08203 L1070.04532,2106.92969 L1069.96914,2106.92969 Z M1086.72696,2109.13867 C1086.16836,2109.74805 1085.73672,2110.10352 1085.43203,2110.20508 C1087.7172,2110.71289 1089.44375,2111.19531 1090.61172,2111.65234 C1090.76407,2111.65234 1091.75429,2112.0332 1093.58243,2112.79492 L1093.58243,2112.71875 C1093.58243,2112.05859 1093.27774,2111.62695 1092.66836,2111.42383 C1091.04335,2110.56054 1089.46915,2109.90039 1087.94571,2109.44336 C1087.53945,2109.29101 1087.13321,2109.18945 1086.72696,2109.13867 Z" id="our"></path>
        </g>
    </g>
</svg>