<svg xmlns="http://www.w3.org/2000/svg" width="657" height="513" viewBox="0 0 657 513">
    <g>
        <g fill-rule="nonzero">
            <path d="M336 336c-5.52 0-10 4.48-10 10s4.48 10 10 10 10-4.48 10-10-4.48-10-10-10zM120 166c5.523 0 10-4.477 10-10v-40c0-5.523-4.477-10-10-10s-10 4.477-10 10v40c0 5.523 4.477 10 10 10z" transform="translate(0 1)"/>
            <path d="M472 236v-80c0-27.57-22.43-50-50-50h-56V30c0-16.543-13.457-30-30-30H150c-16.543 0-30 13.457-30 30v36H90c-16.543 0-30 13.457-30 30v10H50c-27.57 0-50 22.43-50 50v306c0 27.57 22.43 50 50 50h306c24.145 0 44.348-17.203 48.992-40H422c27.57 0 50-22.43 50-50v-26h10c16.543 0 30-13.457 30-30v-90c0-22.055-17.945-40-40-40zm20 40c0 11.047-8.953 20-20 20v-40c11.027 0 20 8.973 20 20zm-70-150c16.543 0 30 13.457 30 30v140h-46v-60c0-24.145-17.203-44.348-40-48.992V126h56zM140 30c0-5.516 4.484-10 10-10h186c5.516 0 10 4.484 10 10v156h-46V96c0-16.543-13.457-30-30-30H140V30zm100 156V86h30c5.516 0 10 4.484 10 10v90h-40zm-60 0V86h40v100h-40zM80 96c0-5.516 4.484-10 10-10h70v100H80V96zm-30 30h10v60h-7.86C35.614 186 20 174.031 20 156c0-16.543 13.457-30 30-30zm306 366H50c-16.543 0-30-13.457-30-30V195.383C28.941 202.043 40.172 206 52.14 206H356c16.543 0 30 13.457 30 30v60h-70c-16.543 0-30 13.457-30 30v40c0 16.543 13.457 30 30 30h70v66c0 16.543-13.457 30-30 30zm96-70c0 16.543-13.457 30-30 30h-16v-56h46v26zm30-46H316c-5.516 0-10-4.484-10-10v-40c0-5.516 4.484-10 10-10h156c7.137 0 13.984-1.867 20-5.355V366c0 5.516-4.484 10-10 10z" transform="translate(0 1)"/>
            <path d="M422 336h-46c-5.523 0-10 4.477-10 10s4.477 10 10 10h46c5.523 0 10-4.477 10-10s-4.477-10-10-10z" transform="translate(0 1)"/>
            <g stroke="#FFF" stroke-width="2">
                <path d="M134.708 52.005L84.624 2.275c-3.056-3.034-8.012-3.034-11.068 0-3.056 3.035-3.056 7.955 0 10.99l36.725 36.465H7.826C3.504 49.73 0 53.209 0 57.5c0 4.29 3.504 7.77 7.826 7.77H110.28l-36.723 36.465c-3.057 3.035-3.057 7.954 0 10.99 1.527 1.515 3.53 2.275 5.533 2.275 2.003 0 4.006-.76 5.534-2.276l50.083-49.73c3.056-3.034 3.056-7.954 0-10.989z" transform="translate(0 1) rotate(-90 339 -202)"/>
            </g>
            <g stroke="#FFF" stroke-width="2">
                <path d="M135.208 52.958L85.124 2.795c-3.056-3.06-8.012-3.06-11.068 0C71 5.857 71 10.82 74.056 13.88l36.725 36.782H8.326C4.004 50.662.5 54.172.5 58.5s3.504 7.838 7.826 7.838H110.78L74.058 103.12c-3.057 3.061-3.057 8.023 0 11.084 1.527 1.53 3.53 2.296 5.533 2.296 2.003 0 4.006-.766 5.534-2.296l50.083-50.162c3.056-3.06 3.056-8.023 0-11.084z" transform="translate(0 1) rotate(90 251.5 355.5)"/>
            </g>
        </g>
        <text font-family="ComicSansMS-Bold, Comic Sans MS" font-size="130" font-weight="bold" transform="translate(0 1)">
            <tspan x="157" y="399">¥</tspan>
        </text>
    </g>
</svg>
