<svg xmlns="http://www.w3.org/2000/svg" width="432.56" height="76.13" viewBox="0 0 432.56 76.13">
  <metadata><?xpacket begin="﻿" id="W5M0MpCehiHzreSzNTczkc9d"?>
<x:xmpmeta xmlns:x="adobe:ns:meta/" x:xmptk="Adobe XMP Core 5.6-c138 79.159824, 2016/09/14-01:09:01        ">
   <rdf:RDF xmlns:rdf="http://www.w3.org/1999/02/22-rdf-syntax-ns#">
      <rdf:Description rdf:about=""/>
   </rdf:RDF>
</x:xmpmeta>
                                                                                                    
                                                                                                    
                                                                                                    
                                                                                                    
                                                                                                    
                                                                                                    
                                                                                                    
                                                                                                    
                                                                                                    
                                                                                                    
                                                                                                    
                                                                                                    
                                                                                                    
                                                                                                    
                                                                                                    
                                                                                                    
                                                                                                    
                                                                                                    
                                                                                                    
                                                                                                    
                           
<?xpacket end="w"?></metadata>
<defs>
    <style>
      .cls-1 {
        fill: #dfa322;
        fill-rule: evenodd;
      }
    </style>
  </defs>
  <path id="TO_KNOW_MORE" data-name="TO KNOW MORE" class="cls-1" d="M4026.37,7357.62q-10.275,1.92-19.32,4.45a53.073,53.073,0,0,0-8.18,2.74q-2.46.975-6.93,2.58-4.245,1.485-4.25,2.38v0.12a9.112,9.112,0,0,1,.93,1.44,3.788,3.788,0,0,1,.51,1.33,3.128,3.128,0,0,0,.39,1.45,2.894,2.894,0,0,0,2.69,1.64,1.585,1.585,0,0,0,.58-0.12q1.44-.435,4.64-1.68a122.442,122.442,0,0,1,12.85-4.26h0.04v0.24a25.381,25.381,0,0,1-.46,5.15q-2.58,8.985-5.03,19.34-1.875,7.38-3.23,15.11a82.553,82.553,0,0,0-.86,11.41c0,4.17.44,7.08,1.32,8.75a7.163,7.163,0,0,0,1.21,1.45,2.117,2.117,0,0,0,1.72,1.05h0.19a0.343,0.343,0,0,0,.16-0.04c-0.03-.7-0.04-1.43-0.04-2.19v-0.58c0-1.28.02-2.54,0.08-3.79-0.03-.37-0.06-0.87-0.08-1.52a37.573,37.573,0,0,1,.89-7.39c0.29-2.24.51-3.84,0.67-4.8q0.855-4.185,1.36-7.23a18.522,18.522,0,0,1,.27-2.03,17.984,17.984,0,0,1,.74-2.38,0.726,0.726,0,0,1,.55-0.67,0.252,0.252,0,0,1,.27.2v0.08a4.566,4.566,0,0,1-.04.58q-0.78,4.845-1.6,8.21c-0.18.96-.33,2.04-0.46,3.24a10.447,10.447,0,0,1-.35,2.54,7.493,7.493,0,0,0-.32,1.76v0.31a4.694,4.694,0,0,0,.12,1.01,4.692,4.692,0,0,1,.27,1.06v0.08a1.77,1.77,0,0,1-.07.43,2.452,2.452,0,0,1-.39.58,11.957,11.957,0,0,0-.51,3.87,7.686,7.686,0,0,0,.16,1.6,7.667,7.667,0,0,1,.27,1.09,0.314,0.314,0,0,0-.04.12,5.637,5.637,0,0,0-.39,3.2h-0.04a1.562,1.562,0,0,1,.86.9,1.32,1.32,0,0,1-.2.59,2.254,2.254,0,0,0-.54,1.13v0.08a1.22,1.22,0,0,1,.62.47h0.78a0.972,0.972,0,0,0,.12-0.74v-0.2q-0.27-7.575-.27-9.26a23.047,23.047,0,0,1,.19-3.08q0.585-5.16,1.36-9.61,0-.945,1.33-7.78c0.44-2,.79-3.88,1.05-5.62a65.989,65.989,0,0,1,1.67-6.72,43.4,43.4,0,0,0,1.84-7.03,19.486,19.486,0,0,1,1.01-4.53q0.78-2.265,1.44-4.77a26.736,26.736,0,0,0,.74-4.45,2.355,2.355,0,0,1,.39-1.05,1.942,1.942,0,0,1,.9-0.4c2.33-.2,3.98-0.39,4.94-0.54q3.465-.555,6.86-1.33a52.638,52.638,0,0,1,10.05-1.72h0.43a5.454,5.454,0,0,1,2.57.55,6.4,6.4,0,0,0,2.8,1.13,1.331,1.331,0,0,0,.55-0.12,0.823,0.823,0,0,0,.39-0.62,12.3,12.3,0,0,0-.55-3.01,4.837,4.837,0,0,0-1.71-2.85,20.765,20.765,0,0,0-10.25-2.38h-0.58a51.745,51.745,0,0,0-9.08,1.05h0Zm-20.25,6.17h0.04c0.1,0,.16.09,0.19,0.28a1.062,1.062,0,0,1-.97.43v-0.04a1.255,1.255,0,0,1,.74-0.67h0Zm-13.91,5.28c2.34-.99,4.67-1.9,7.01-2.74,1.4-.44,2.31-0.75,2.73-0.94a6.5,6.5,0,0,1,3.15-.86h0.04a47.5,47.5,0,0,1-4.83,2.58,49.425,49.425,0,0,1-6.04,2.27,5.432,5.432,0,0,1-1.87.47h-0.15a2.391,2.391,0,0,1-.7-0.12v-0.04a3.478,3.478,0,0,1,.66-0.62h0Zm-1.48.54h0.08a2.41,2.41,0,0,1,.5.12v0.04a1.281,1.281,0,0,1-.7.31,0.291,0.291,0,0,1-.23-0.08v-0.07a0.318,0.318,0,0,1,.35-0.32h0Zm22.98,15.55a5.286,5.286,0,0,1-.58,1.95h-0.04v-0.5a3.765,3.765,0,0,1,.51-1.68,0.271,0.271,0,0,1,.11.23h0Zm-1.36,3.55a4.279,4.279,0,0,1,.7-1.36v0.11a6.278,6.278,0,0,1-.97,3.6h-0.04v-0.59a5.588,5.588,0,0,1,.31-1.76h0Zm-0.78,3.99a2.706,2.706,0,0,1,.04.51v0.07a2.783,2.783,0,0,1-.35,1.29h-0.04c-0.03-.26-0.04-0.41-0.04-0.46a2.6,2.6,0,0,1,.39-1.41h0Zm-0.7,3.32a5.793,5.793,0,0,1-.62,2.5v-0.35a5.315,5.315,0,0,1,.62-2.39h0v0.24Zm23.26-21.06a24.577,24.577,0,0,0-3.74,1.06,18.7,18.7,0,0,0-9.55,7.77,28.81,28.81,0,0,0-2.49,5.16,44.083,44.083,0,0,0-1.6,6.09,69.205,69.205,0,0,0-.89,6.99l0.03,0.04,0.71,1.72a5.143,5.143,0,0,1-.71.35c-0.1,0-.15.1-0.15,0.28v1.29a21.59,21.59,0,0,0,1.36,8.12,9.267,9.267,0,0,0,4.52,5.04,11.785,11.785,0,0,0,2.22.82,8.849,8.849,0,0,0,5.38,1.76h0.89a13.159,13.159,0,0,0,7.09-2.31,19.623,19.623,0,0,0,3.35-2.61,28.122,28.122,0,0,0,2.34-2.5,40.109,40.109,0,0,0,2.61-3.52,36.46,36.46,0,0,0,2.88-5.35,20.135,20.135,0,0,0,1.48-8.16v-0.86a40.143,40.143,0,0,0-1.28-9.65,23.048,23.048,0,0,0-1.87-4.96,11.244,11.244,0,0,0-1.52-2.31,5.682,5.682,0,0,0-1.33-1.21,4.817,4.817,0,0,0-1.09-.47l-0.78-.62a11.671,11.671,0,0,0-1.67-1.1,7.655,7.655,0,0,0-4.13-1.01H4036a11.694,11.694,0,0,0-1.87.15h0Zm-7.41,17.35a51.915,51.915,0,0,1,3.32-6.37,25.948,25.948,0,0,1,2.37-3.4,12.083,12.083,0,0,1,1.37-1.21,8.476,8.476,0,0,1,4.24-1.72h0.24a2.724,2.724,0,0,1,1.24.32q2.34,1.2,2.34,6.6a41.753,41.753,0,0,1-.9,7.89,74.518,74.518,0,0,1-2.37,8.51,52.281,52.281,0,0,1-3.51,8.01,19.657,19.657,0,0,1-1.99,3.05q-3.735,3.975-5.61,3.98h-0.19c-0.83,0-1.49-.65-1.99-1.95a20.871,20.871,0,0,1-.66-3.36q-0.51-4.695-.78-6.25c-0.15-.89-0.23-1.35-0.23-1.41a1.2,1.2,0,0,1,.43-0.82,2.586,2.586,0,0,0,.78-2.03v-0.43c-0.14-1.12-.2-1.74-0.2-1.87q0-2.58,2.1-7.54h0Zm-2.22-10.16,0.08,0.39-0.04.12a2.217,2.217,0,0,1-.85.94h0a1.684,1.684,0,0,1,.81-1.45h0Zm-1.44,2.54h0.08l0.04,0.08a0.284,0.284,0,0,1-.16.19l-0.04-.15h0a0.174,0.174,0,0,1,.08-0.12h0Zm-4.83,10.86a11.227,11.227,0,0,1,.86-3.05,17.4,17.4,0,0,1,1.67-4.14c0.47-.83,1-1.78,1.6-2.85a0.911,0.911,0,0,1,.59-0.39,6.087,6.087,0,0,1-.32,1.02,10.171,10.171,0,0,1-.97,2.11,21.334,21.334,0,0,0-1.71,3.67,36.759,36.759,0,0,0-1.13,4.1,8.87,8.87,0,0,1-.04,1.09,0.961,0.961,0,0,1-.55.55,9.98,9.98,0,0,1-.08-1.02,7.441,7.441,0,0,1,.08-1.09h0Zm29.57,2.15a2.2,2.2,0,0,1,.08.94v0.27a6.7,6.7,0,0,1-.12,1.33,9.153,9.153,0,0,1-.74,2.42,14.34,14.34,0,0,1-.58,1.95c-0.42.97-.97,2.07-1.64,3.32-0.6,1.05-.95,1.67-1.05,1.88a1.016,1.016,0,0,1-.63.43h-0.03l0.19-.63a9.206,9.206,0,0,1,1.17-2.54,24.688,24.688,0,0,0,1.4-2.89,31.7,31.7,0,0,0,1.13-3.79,5.726,5.726,0,0,0,.24-1.4v-0.31a0.942,0.942,0,0,1,.58-0.98h0Zm-30.62,1.52a0.286,0.286,0,0,1,.31-0.27,0.92,0.92,0,0,1,.16.7,8.392,8.392,0,0,1-.12,1.33,0.257,0.257,0,0,1-.31.27h-0.08a2.178,2.178,0,0,1-.12-0.86v-0.07a3.9,3.9,0,0,1,.16-1.1h0Zm26.53,4.65v0.08c-0.08.36-.13,0.58-0.16,0.66a0.125,0.125,0,0,1-.11-0.04,1.311,1.311,0,0,1-.2-0.46h0a2.7,2.7,0,0,1,.47-0.24h0Zm-0.66,6.68a0.106,0.106,0,0,1-.12.12l-0.08-.04a0.671,0.671,0,0,1,.16-0.24h0a0.283,0.283,0,0,1,.04.16h0Zm-1.56,2.23a1.855,1.855,0,0,1,.86-0.98,1.757,1.757,0,0,1-.82,1.45,2.817,2.817,0,0,1-.04-0.43h0v-0.04Zm-0.78,1.33a0.724,0.724,0,0,1,.39.11,3.609,3.609,0,0,1-1.33,1.8,0.422,0.422,0,0,1-.27-0.08v-0.04a4.047,4.047,0,0,1,1.21-1.79h0Zm67.78-42.5q-4.245,4.44-8.61,9.45-7.275,8.43-10.86,12.34l-1.84.24c0.29-.89.56-1.68,0.82-2.39a31.267,31.267,0,0,0,1.4-4.68,59.386,59.386,0,0,0,1.45-12v-0.58a12.874,12.874,0,0,0-.55-4.18,5.955,5.955,0,0,0-1.32-1.8,5.7,5.7,0,0,0-3.55-1.44,1.8,1.8,0,0,0-1.67.74q-1.02,5.235-1.91,11.17a31.12,31.12,0,0,1-.78,4.18q-0.75,3.015-3.94,15.51-4.245,16.95-4.24,24.65,0,5.31,1.95,6.75a18.554,18.554,0,0,0,5.49,2h0.04c-0.73-.81-1.3-1.49-1.72-2.04l0.04-.11v-0.04a0.959,0.959,0,0,1-.23-0.63,1.739,1.739,0,0,1,.31-1.05q0-.465.12-1.68a3.787,3.787,0,0,1-.12-0.94v-0.12a78.705,78.705,0,0,1,.9-8.2c0.36-2.13.54-3.28,0.54-3.44a3.266,3.266,0,0,1,.66-1.56l-0.58,2.07v0.04l0.15-.23c-0.1.41-.23,1.03-0.38,1.83a34.453,34.453,0,0,0-.43,3.48c-0.03,2.45-.11,4.37-0.24,5.78a3.571,3.571,0,0,1-.11,1.41,0.387,0.387,0,0,0-.28.19v0.2a3.117,3.117,0,0,1,.32,1.25v0.23h0.03c0-.02.16-0.27,0.47-0.74v0.08h0.04a10.6,10.6,0,0,0,.08-1.14v-0.19c-0.05-1.04-.08-1.69-0.08-1.95v-0.55c0-.39.03-0.9,0.08-1.52,0.15-1.38.23-2.13,0.23-2.23a17.479,17.479,0,0,1,.24-2.66v-0.35a6.038,6.038,0,0,1,.07-0.94c0.19-.57.34-1.14,0.47-1.71,0.29-.63.43-0.96,0.43-0.98l-0.04-.04-0.12.04h-0.03a2.59,2.59,0,0,1,.23-0.67,6.985,6.985,0,0,1,.19-1.05,6.47,6.47,0,0,1,1.41-3.05,2.449,2.449,0,0,1,1.16-.86,1.693,1.693,0,0,0,.63-0.11c0.15-.42.26-0.68,0.31-0.78a1.559,1.559,0,0,1,.66-0.71,1.743,1.743,0,0,1,.47-0.47c0.02,0,.13.03,0.31,0.08a1.3,1.3,0,0,0,.66-0.47,0.623,0.623,0,0,1,.47-0.31,1.989,1.989,0,0,0,.39-0.35h0.08a1.1,1.1,0,0,1,.31.58,7.1,7.1,0,0,1,.93,1.41,1.256,1.256,0,0,0,.24.63,55.2,55.2,0,0,0,4.83,5.54q1.005,1.17,6.78,6.92,3.78,3.63,4.87,4.45a14.755,14.755,0,0,0,3.07,1.56,21.308,21.308,0,0,0,7.02,1.45h0.62c1.19-.11,1.79-0.45,1.79-1.02a2.752,2.752,0,0,0-1.09-1.6q-2.145-1.755-4.56-4.02-1.245-1.095-5.72-5.59c-2.7-2.81-4.93-5.26-6.66-7.34a64.729,64.729,0,0,1-6.32-8.64q0.36-.39,4.95-5.35,11.76-12.735,16.17-17.85c2.8-3.44,4.21-5.96,4.21-7.58a2,2,0,0,0-.28-1.01,4.742,4.742,0,0,1-.89-1.29,1.22,1.22,0,0,0-.94-1.06h-0.11q-2.145.165-8.89,7.04h0Zm4.95,3.2a16.675,16.675,0,0,0,1.6-1.76,4.385,4.385,0,0,1,1.71-1.52q-1.71,2.265-2.69,3.36a3.81,3.81,0,0,1-1.44,1.17h-0.11a0.106,0.106,0,0,1-.08-0.08h0a1.784,1.784,0,0,1,1.01-1.17h0Zm-24.15-3.01h0.08a0.34,0.34,0,0,1,.27.2,2.041,2.041,0,0,1,.23,1.05,12.476,12.476,0,0,1-.11,1.45,63.89,63.89,0,0,1-1.06,6.95,24.042,24.042,0,0,1-.85,4.14,20.287,20.287,0,0,0-.98,3.75,12.7,12.7,0,0,1-.31,1.87q-1.05,3.525-1.05,3.72a0.632,0.632,0,0,1-.27.39,0.255,0.255,0,0,1-.12-0.16,0.821,0.821,0,0,0,.04-0.2,31.946,31.946,0,0,0,.51-3.24v-0.31a0.868,0.868,0,0,1,.15-0.47,27.27,27.27,0,0,0,.94-3.16,12.7,12.7,0,0,0,.42-3.05v-0.35l-0.03-.16a12.968,12.968,0,0,0,.42-1.25,13.107,13.107,0,0,1,.43-2.07,29.155,29.155,0,0,0,.51-2.93,7.089,7.089,0,0,1,.12-1.83,7.176,7.176,0,0,0,.46-2.31c-0.05-.6-0.07-1-0.07-1.21v-0.08h0c0-.49.09-0.74,0.27-0.74h0Zm22.09,5.39a4.223,4.223,0,0,1,.97-0.98,2.927,2.927,0,0,1-.19.55,5.255,5.255,0,0,1-1.02,1.17h-0.04a1.877,1.877,0,0,1,.28-0.74h0Zm-6.98,8.2a4.812,4.812,0,0,1,1.29-1.95q1.4-1.68,4.01-4.26a2.037,2.037,0,0,1,1.56-.93h0.04q-3.63,4.05-6.97,7.69a1.742,1.742,0,0,1,.07-0.55h0Zm-9.27,9.42a25.364,25.364,0,0,1,2.14-2.5,18.289,18.289,0,0,0,2.07-2.58,5.685,5.685,0,0,1,1.05-1.21c0.62-.5,1.33-1.09,2.1-1.8a2.965,2.965,0,0,1,1.41-.78h0.04c-0.32.31-.65,0.68-1.02,1.09q-2.3,2.7-3.82,4.38c-1.37,1.51-2.23,2.49-2.57,2.93a7.661,7.661,0,0,1-1.59,1.64h-0.08a0.206,0.206,0,0,1-.2-0.2,2.379,2.379,0,0,1,.47-0.97h0Zm-10.59,2.3a1.031,1.031,0,0,1,.5-0.78,2.078,2.078,0,0,1-.04.63,0.419,0.419,0,0,1-.19.39h-0.08a0.153,0.153,0,0,1-.19-0.16v-0.08Zm-0.51,2.46v0.55a3.813,3.813,0,0,1-.59,2.07,3.532,3.532,0,0,1-.07-0.66v-0.12a3.735,3.735,0,0,1,.62-1.84h0.04Zm-0.62,2.82h0.03v0.11a1.041,1.041,0,0,1-.5,1.06,1.3,1.3,0,0,1-.04-0.28v-0.03h0a1.084,1.084,0,0,1,.51-0.86h0Zm65.75-34.81a22.036,22.036,0,0,0-1.09,4.57l-1.94,8.71-4.21,19.89h-0.04a3.459,3.459,0,0,1-.7-0.47l-0.47-1.17a2.213,2.213,0,0,1-.39-0.86c-0.18-.73-0.27-1.12-0.27-1.18v-0.23c-0.99-2.01-2.46-4.97-4.4-8.91a30.922,30.922,0,0,1-1.91-4.18,75.046,75.046,0,0,0-3.43-8.2,7.045,7.045,0,0,1-.59-0.39,2.079,2.079,0,0,1-.7-1.17c-0.39-1.23-.72-1.84-1.01-1.84a2.261,2.261,0,0,0-.43.12h-0.08c-0.57-.29-1.19-0.57-1.87-0.86a7.075,7.075,0,0,1-1.67-1.02,3.383,3.383,0,0,0-1.29-.43,3.639,3.639,0,0,1-.74-0.66,1.94,1.94,0,0,0-1.05-.19l-0.04.03a4.012,4.012,0,0,0-.66,2.47c0.1,1.84.16,3.38,0.16,4.6a86.217,86.217,0,0,1-1.8,16.72q-0.54,2.43-1.13,7.11-1.59,14.46-1.59,17.74v0.39a1.284,1.284,0,0,0,.5.82,22.41,22.41,0,0,0,2.07,1.68,8.232,8.232,0,0,0,3.11,1.56h0.16q1.02,0,1.6-6.05,1.05-7.155,2.72-19.11,0.48-2.805.78-7.03h0.04q0.51,1.065,2.89,5.55,4.935,9.42,8.1,15.16a6.775,6.775,0,0,1,1.13,4.06c0,0.47-.02.83-0.04,1.09-0.23,2.35-.35,3.75-0.35,4.22,0,1.9.65,3.18,1.95,3.83a6.183,6.183,0,0,0,1.67.55,19.857,19.857,0,0,0,3.94.86,5.112,5.112,0,0,0,.46-1.25q1.02-4.035,2.69-13.44,1.41-7.89,3.78-22.07,2.175-13.4,3.23-18.95c-0.13-.65-0.36-0.97-0.7-0.97a0.672,0.672,0,0,0-.35.11,26.245,26.245,0,0,0-.89,3.32,15.159,15.159,0,0,0-.47,3.6v0.5l0.04,0.08v0.16a7.374,7.374,0,0,0-.47,1.44,22.566,22.566,0,0,1-.47,2.62,31.27,31.27,0,0,0-.5,3.28,17.163,17.163,0,0,1-.12,2.11,8.568,8.568,0,0,0-.51,2.66v0.04c0,0.18.03,0.67,0.08,1.48,0,0.7-.09,1.06-0.27,1.06h-0.04a0.463,0.463,0,0,1-.39-0.36,3.539,3.539,0,0,1-.2-1.17c0-.08.02-0.4,0.04-0.97,0.11-1.51.25-2.84,0.43-3.99q0.66-4.215.86-5.74a34.163,34.163,0,0,1,.97-4.65,30.331,30.331,0,0,0,.86-3.87c0.08-.83.17-1.49,0.27-1.99a0.428,0.428,0,0,0-.15-0.12,10.822,10.822,0,0,0-.7-0.85,7.026,7.026,0,0,0-2.81-.86h0a1.728,1.728,0,0,0-1.6,1.01h0Zm-12.19,27.15c0.03-.26.1-0.39,0.23-0.39h0.08a2.321,2.321,0,0,1,.7.51,3.181,3.181,0,0,1,.82,1.33v0.03a0.408,0.408,0,0,1-.27.4h-0.2a1.341,1.341,0,0,1-.7-0.47,2.811,2.811,0,0,1-.7-1.37,0.033,0.033,0,0,1,.04-0.04h0Zm1.99,3.05H4139a0.316,0.316,0,0,1,.31.35,0.272,0.272,0,0,1-.31.23,0.326,0.326,0,0,1-.35-0.39v-0.04c0-.1.1-0.15,0.31-0.15h0Zm0.78,1.95c0.15,0,.23.12,0.23,0.35a0.46,0.46,0,0,1-.19.28,0.349,0.349,0,0,1-.32-0.32v-0.08a0.254,0.254,0,0,1,.28-0.23h0Zm0.74,1.91h0.07a0.241,0.241,0,0,1,.2.16v0.12a0.215,0.215,0,0,1-.23.19h-0.12a0.245,0.245,0,0,1-.12-0.23,0.225,0.225,0,0,1,.2-0.24h0Zm-18.74,8.83a19.012,19.012,0,0,1,.7-3.51,23.8,23.8,0,0,0,.51-2.74,3.3,3.3,0,0,1,.78-1.87c-0.13,1.04-.33,2.2-0.59,3.47a14.152,14.152,0,0,1-.19,1.92,9.091,9.091,0,0,1-.43,2.3l-0.28,3.4,0.04,1.21a4.424,4.424,0,0,1-.46,1.8,3.586,3.586,0,0,1-.39-1.68v-0.43c0-.18-0.02-0.43-0.04-0.74h0c0.15-1.59.27-2.63,0.35-3.13h0Zm23.29,12.31a66.074,66.074,0,0,0,1.41-6.53l0.39-2.73c0.18-.76.29-1.25,0.35-1.49a0.467,0.467,0,0,1,.46-0.54q0.36,0,.36.54a7.2,7.2,0,0,1-.16,1.02c0,0.08-.2.76-0.59,2.03q-0.54,3.8-1.16,6.49a11.794,11.794,0,0,1-.86,2.65,0.492,0.492,0,0,1-.43-0.11v-0.04a9.73,9.73,0,0,1,.23-1.29h0Zm27.2-47.82a24.577,24.577,0,0,0-3.74,1.06,18.7,18.7,0,0,0-9.55,7.77,28.81,28.81,0,0,0-2.49,5.16,44.083,44.083,0,0,0-1.6,6.09,69.205,69.205,0,0,0-.89,6.99l0.03,0.04,0.71,1.72a5.143,5.143,0,0,1-.71.35c-0.1,0-.15.1-0.15,0.28v1.29a21.59,21.59,0,0,0,1.36,8.12,9.267,9.267,0,0,0,4.52,5.04,11.785,11.785,0,0,0,2.22.82,8.849,8.849,0,0,0,5.38,1.76h0.89a13.159,13.159,0,0,0,7.09-2.31,19.238,19.238,0,0,0,3.35-2.61,28.122,28.122,0,0,0,2.34-2.5,40.109,40.109,0,0,0,2.61-3.52,36.46,36.46,0,0,0,2.88-5.35,20.135,20.135,0,0,0,1.48-8.16v-0.86a40.143,40.143,0,0,0-1.28-9.65,23.048,23.048,0,0,0-1.87-4.96,11.244,11.244,0,0,0-1.52-2.31,5.894,5.894,0,0,0-1.32-1.21,5.021,5.021,0,0,0-1.1-.47l-0.77-.62a12.326,12.326,0,0,0-1.68-1.1,7.655,7.655,0,0,0-4.13-1.01h-0.19a11.694,11.694,0,0,0-1.87.15h0Zm-7.41,17.35a53.346,53.346,0,0,1,3.32-6.37,25.948,25.948,0,0,1,2.37-3.4,12.083,12.083,0,0,1,1.37-1.21,8.476,8.476,0,0,1,4.24-1.72h0.24a2.724,2.724,0,0,1,1.24.32q2.34,1.2,2.34,6.6a41.753,41.753,0,0,1-.9,7.89,74.518,74.518,0,0,1-2.37,8.51,52.281,52.281,0,0,1-3.51,8.01,19.657,19.657,0,0,1-1.99,3.05q-3.735,3.975-5.61,3.98h-0.19c-0.83,0-1.49-.65-1.99-1.95a20.871,20.871,0,0,1-.66-3.36q-0.51-4.695-.78-6.25c-0.15-.89-0.23-1.35-0.23-1.41a1.2,1.2,0,0,1,.43-0.82,2.586,2.586,0,0,0,.78-2.03v-0.43c-0.13-1.12-.2-1.74-0.2-1.87q0-2.58,2.1-7.54h0Zm-2.22-10.16,0.08,0.39-0.04.12a2.217,2.217,0,0,1-.85.94h0a1.684,1.684,0,0,1,.81-1.45h0Zm-1.44,2.54h0.08l0.04,0.08a0.284,0.284,0,0,1-.16.19l-0.04-.15h0a0.174,0.174,0,0,1,.08-0.12h0Zm-4.83,10.86a11.227,11.227,0,0,1,.86-3.05,17.4,17.4,0,0,1,1.67-4.14c0.47-.83,1-1.78,1.6-2.85a0.911,0.911,0,0,1,.59-0.39,6.087,6.087,0,0,1-.32,1.02,10.171,10.171,0,0,1-.97,2.11,22.112,22.112,0,0,0-1.71,3.67,36.759,36.759,0,0,0-1.13,4.1,8.87,8.87,0,0,1-.04,1.09,0.961,0.961,0,0,1-.55.55,9.98,9.98,0,0,1-.08-1.02,7.441,7.441,0,0,1,.08-1.09h0Zm29.57,2.15a2.2,2.2,0,0,1,.08.94v0.27a6.7,6.7,0,0,1-.12,1.33,9.153,9.153,0,0,1-.74,2.42,14.34,14.34,0,0,1-.58,1.95c-0.42.97-.96,2.07-1.64,3.32-0.6,1.05-.95,1.67-1.05,1.88a1.016,1.016,0,0,1-.63.43h-0.03l0.19-.63a9.206,9.206,0,0,1,1.17-2.54,24.688,24.688,0,0,0,1.4-2.89,31.7,31.7,0,0,0,1.13-3.79,5.726,5.726,0,0,0,.24-1.4v-0.31a0.942,0.942,0,0,1,.58-0.98h0Zm-30.62,1.52a0.286,0.286,0,0,1,.31-0.27,0.92,0.92,0,0,1,.16.7,8.392,8.392,0,0,1-.12,1.33,0.257,0.257,0,0,1-.31.27h-0.08a2.178,2.178,0,0,1-.12-0.86v-0.07a3.9,3.9,0,0,1,.16-1.1h0Zm26.53,4.65v0.08c-0.08.36-.13,0.58-0.16,0.66a0.125,0.125,0,0,1-.11-0.04,1.311,1.311,0,0,1-.2-0.46h0a2.7,2.7,0,0,1,.47-0.24h0Zm-0.66,6.68a0.106,0.106,0,0,1-.12.12l-0.08-.04a0.671,0.671,0,0,1,.16-0.24h0a0.283,0.283,0,0,1,.04.16h0Zm-1.56,2.23a1.855,1.855,0,0,1,.86-0.98,1.757,1.757,0,0,1-.82,1.45,2.817,2.817,0,0,1-.04-0.43h0v-0.04Zm-0.78,1.33a0.724,0.724,0,0,1,.39.11,3.609,3.609,0,0,1-1.33,1.8,0.422,0.422,0,0,1-.27-0.08v-0.04a4.047,4.047,0,0,1,1.21-1.79h0Zm11.73-42.9q-0.2,5.13-.2,24.42v2.5q0,18.045.27,22.85a1.3,1.3,0,0,0,.74.78,18.993,18.993,0,0,0,3.04.94,9.706,9.706,0,0,1,1.87.74,6.618,6.618,0,0,0,3.74,1.52q2.1,0,3.9-2.53a41.877,41.877,0,0,0,3.23-6.72q1.41-3.045,5.26-10.59a0.453,0.453,0,0,1-.12-0.23l0.16-.2a0.238,0.238,0,0,0,.12.04c0.07-.05.68-1.22,1.83-3.52,0,1.52.01,3.14,0.04,4.89q0.075,15.15.27,15.7a2.5,2.5,0,0,0,2.1.66h0.16a38.172,38.172,0,0,0,4.83-.54,40.992,40.992,0,0,0,5.69-.67,3.514,3.514,0,0,0,1.28-.47,2.571,2.571,0,0,0,.82-0.78,13.6,13.6,0,0,0,1.21-2.61q0.855-2.19,2.72-5.82,1.095-2.19,2.96-5.82a0.328,0.328,0,0,1-.15-0.2v-0.04a0.453,0.453,0,0,0,.15-0.15,0.8,0.8,0,0,0,.16.03q1.56-3.045,2.53-4.92l0.86-2.19q0.315-1.125.78-2.34a38.554,38.554,0,0,1,3.12-6.33q1.005-2.145,2.25-4.37,2.655-4.5,3.74-6.72a12.654,12.654,0,0,1,1.6-2.58,6.2,6.2,0,0,0,.86-1.64,2.814,2.814,0,0,0-.16-0.66,2.316,2.316,0,0,0-2.3-1.25h-0.35c-0.26,0-1.15.04-2.68,0.11h-0.16a12.662,12.662,0,0,1-1.32-.11h-0.04c-0.39,0-.98.56-1.76,1.68a32.3,32.3,0,0,0-2.18,3.86,11.984,11.984,0,0,1-1.01,1.8c-0.42.81-1.42,2.81-3,6.02q-5.655,11.64-9.54,19.29a1.308,1.308,0,0,1,.19.47v0.08a2.656,2.656,0,0,1-.31.98,40.159,40.159,0,0,1-2.57,3.79,29.946,29.946,0,0,0-1.79,2.42l-0.04-.08q-0.285-.435-0.28-6.99c0.03-2.14.04-3.32,0.04-3.56l0.16-19.53c1.17-2.03,2.02-3.58,2.57-4.65a13.531,13.531,0,0,1,1.64-2.73,5.487,5.487,0,0,0,.81-1.56,1.907,1.907,0,0,0-.15-0.67,2.238,2.238,0,0,0-2.26-1.29h-0.59c-1.55.11-2.41,0.16-2.57,0.16a6.507,6.507,0,0,1-1.32-.16h-0.04c-0.57,0-1.44.98-2.61,2.93q-0.735,1.365-2.22,4.22a15.86,15.86,0,0,0-.94,1.8q-4.785,10.47-7.98,16.68a1.149,1.149,0,0,1,.23.51,14.424,14.424,0,0,1-1.91,3.78q-1.86,3.135-6.58,10.51a0.314,0.314,0,0,0-.04-0.12q-0.27-.27-0.27-6.09v-3.63q0.03-4.605.19-20.98a4.011,4.011,0,0,0-.08-1.33c-0.02-2.42-.06-3.93-0.11-4.53a10.714,10.714,0,0,0-.39-2.61,1.248,1.248,0,0,0-.66-0.94V7372c-0.11,2.73-.19,5.56-0.24,8.47q0,7.86-.23,15.35v0.39a25.642,25.642,0,0,1,.66,3.87v0.43h-0.04c-0.31-.81-0.52-1.37-0.62-1.68a13.339,13.339,0,0,1-.43-2.15,17.288,17.288,0,0,0-.43-3.82h-0.19a7.125,7.125,0,0,1-.12-1.61c0-.52.03-1.06,0.08-1.64a69.726,69.726,0,0,0,.31-8.83v-0.35q0-4.56-.04-6.44c0.05-1.12.09-1.9,0.12-2.35l-0.63-.23a10.637,10.637,0,0,0-3.58-1.25h-0.04a2.468,2.468,0,0,0-2.02,1.05h0Zm36.34,3.09-0.08.23a4.5,4.5,0,0,1-1.05,1.61,0.574,0.574,0,0,1,.08-0.32,3.363,3.363,0,0,1,.93-1.64,0.214,0.214,0,0,1,.12.12h0Zm23.02,2.07a3.569,3.569,0,0,1,.94-1.56,0.326,0.326,0,0,0,.08.12,3.512,3.512,0,0,1-1.09,1.83h0c0-.02.02-0.15,0.07-0.39h0Zm-25.51,1.52a1.754,1.754,0,1,1,1.05-.86,6.273,6.273,0,0,1-.62,1.33,4.412,4.412,0,0,1-1.05,1.29,5.176,5.176,0,0,1,.62-1.76h0Zm23.49,1.96a6.04,6.04,0,0,1,.62-1.41,4.619,4.619,0,0,1,1.17-1.44,6.563,6.563,0,0,1-.78,1.99,4.328,4.328,0,0,1-1.09,1.33h0a1.917,1.917,0,0,0,.08-0.47h0Zm-0.97,1.87a2.521,2.521,0,0,1-.78,1.76,2.732,2.732,0,0,1,.78-1.76h0Zm-25.48,2.15a5.792,5.792,0,0,1-.66,1.6v-0.74h0a2.607,2.607,0,0,1,.66-0.86h0Zm22.94,2.34a4.969,4.969,0,0,1,1.09-1.68,5.03,5.03,0,0,1-.19.63,5.876,5.876,0,0,1-1.13,1.84,6.617,6.617,0,0,1,.23-0.79h0Zm-22.63-.93c0,0.65-.01,2.11-0.04,4.37q-0.2,7.815-.19,10.24v1.99q0,5.16.31,8.83,0.27,2.295.27,2.46a1.928,1.928,0,0,1-.04.31l-0.43-1.05a16.748,16.748,0,0,1-.43-4.22c-0.02-3.41-.05-5.35-0.07-5.82-0.47-6.18-.71-9.65-0.71-10.43v-0.12c0-.52.02-0.91,0.04-1.17,0.16-1.51.24-2.65,0.24-3.4,0.21-.42.56-1.08,1.05-1.99h0Zm21.31,3-1.68,3.83a80.9,80.9,0,0,1-4.32,8.87l-0.59-.31q4.17-8.52,6.2-12.54a2.276,2.276,0,0,0,.39.15h0Zm-28.67,9.22q-2.19,4.53-5.22,10.16l-0.59-.27v-0.04l5.81-11.53v1.68Zm-1.68,5.59h0.04a0.17,0.17,0,0,1,.16.16,0.24,0.24,0,0,1-.16.15,0.164,0.164,0,0,1-.12-0.15,0.227,0.227,0,0,1,.08-0.16h0Zm24.08,0.66h0.07a0.124,0.124,0,0,1,.08.12,0.187,0.187,0,0,1-.15.2,0.154,0.154,0,0,1-.08-0.16h0c0-.1.02-0.16,0.08-0.16h0Zm46.59-34.14a0.152,0.152,0,0,0-.08.04c-0.05.42-.09,0.69-0.12,0.82a7.051,7.051,0,0,1-.7,2.19,2.627,2.627,0,0,0-.47.82v0.2a4.651,4.651,0,0,1,.43,1.28,0.926,0.926,0,0,1-.5.63,4.063,4.063,0,0,0-.94,1.48,11.964,11.964,0,0,0-.35,2.04,9.414,9.414,0,0,1-.54,3.24c-0.19,1.01-.34,1.74-0.47,2.18a105.9,105.9,0,0,1-2.3,11.41,2.465,2.465,0,0,1,.23.98v0.54c-0.15,1.18-.23,1.85-0.23,2.04,0.03,0.39.06,0.79,0.12,1.21v0.19a0.954,0.954,0,0,1-.47.82l-1.33,5.2q-2.88,11.715-3.38,14.18a1.922,1.922,0,0,0,.93.86q0.855-4.38,1.71-7.54c0.55-1.88.91-3.19,1.1-3.95q0.225-1.95.39-2.73c0-.18.45-1.84,1.36-4.96,0.52-2.09.88-3.13,1.09-3.13a0.223,0.223,0,0,1,.19.04c0.16,0,.24.12,0.24,0.35,0,0.06-.09.51-0.27,1.37l-0.24,2.23a19.472,19.472,0,0,1-.66,3.39l-1.05,3.36a15.6,15.6,0,0,0-.43,2.19,8.144,8.144,0,0,1-.47,3.09,2.272,2.272,0,0,0-.35.66,0.584,0.584,0,0,0,.04.2,2.307,2.307,0,0,1,.39.97l-0.04.16a3.635,3.635,0,0,0-1.09,2.97v0.94a2.827,2.827,0,0,1-.04.58c0,0.08-.08.58-0.23,1.49v0.07q2.055,2.58,3,2.58a0.734,0.734,0,0,0,.54-0.31q0.825-1.095,1.75-5.74,1.8-7.08,5.5-21.8c0.36-1.43.66-2.81,0.89-4.14l2.03,8.13a66.921,66.921,0,0,0,1.99,6.71,6.888,6.888,0,0,0,1.01,1.76,7.615,7.615,0,0,0,1.44,1.13l0.94,0.75a6.543,6.543,0,0,0,3.42,1.17,1.207,1.207,0,0,0,1.09-.47,4.217,4.217,0,0,0,.59-1.56,11.762,11.762,0,0,1,.82-2.81c0.52-.86,1.24-2.19,2.18-3.99-0.13-.81-0.2-1.3-0.2-1.48h-0.04c-0.36.65-.63,1.1-0.81,1.36a0.728,0.728,0,0,1-.39.47c-0.19-.02-0.28-0.09-0.28-0.19l0.47-.9a21.408,21.408,0,0,1,.98-2.31,2.463,2.463,0,0,1,.03-0.5c0.13-1.64.2-2.62,0.2-2.93v-0.16c0-.13-0.01-0.47-0.04-1.02a7.025,7.025,0,0,1,.39-2.22,42.064,42.064,0,0,1,.39,5.35l0.19,0.12v0.04a4.76,4.76,0,0,0-.19.7v0.27c0,0.84-.01,1.51-0.04,2.03h0.04q1.56-3.075,2.41-4.92,0.48-1.125,2.5-4.8l-0.04,2.5q-0.15,9.96-.16,12.58,0,4.44.39,10.7a8.677,8.677,0,0,0,.31,2.11,1.746,1.746,0,0,0,.86,1.09,23.859,23.859,0,0,1,2.3,1.02,4.83,4.83,0,0,1,1.4,1.17,1.346,1.346,0,0,0,1.13.9c0.78,0,1.39-.67,1.83-1.99a9.83,9.83,0,0,0,.28-1.49q0-2.34.35-13.59a5.671,5.671,0,0,1-.08-0.9v-0.12c0.13-1.46.19-2.64,0.19-3.55a2.512,2.512,0,0,0-.04-0.39,32.319,32.319,0,0,1-.27-4.57c0-1.02.03-2.32,0.08-3.91q0.51-11.13.51-13.79,0-4.68-.78-5.27a4.807,4.807,0,0,0-.55-2.03,6.586,6.586,0,0,0-1.48-2,7.872,7.872,0,0,0-2.53-1.56,4.863,4.863,0,0,0-1.83-.74h-0.08a0.807,0.807,0,0,0-.58.27q-2.46,5.7-4.48,10.39a169.517,169.517,0,0,1-8.42,17.07h-0.04c-0.54-2.5-1.13-5.09-1.75-7.77a1.313,1.313,0,0,0-.27-0.7,0.85,0.85,0,0,1-.2-0.71q-0.225-1.005-.39-2.34h-0.04a5.682,5.682,0,0,1-.19,1.48,6.182,6.182,0,0,1-.31-2.26,6.858,6.858,0,0,1-.24-1.52c0-.21.02-0.72,0.04-1.53v-0.04a61.4,61.4,0,0,0-2.02-7.97,8.541,8.541,0,0,0-1.41-2.85,1.959,1.959,0,0,0-.74-0.58,18.428,18.428,0,0,0-2.72-1.21,11.348,11.348,0,0,0-2.03-.32h-0.27Zm24.77,5.82-2.8,6.96c-1.12,2.52-1.88,4.35-2.3,5.47-0.31,1.09-.57,1.64-0.78,1.64h-0.04c-0.21,0-.31-0.07-0.31-0.2a5.59,5.59,0,0,1,.31-1.48q1.05-2.265,2.15-4.65a59.442,59.442,0,0,1,3.74-7.74h0.03Zm-6.42,14.07,0.07,0.07a0.249,0.249,0,0,1-.15.28c-0.05,0-.08-0.04-0.08-0.12h0a0.242,0.242,0,0,1,.16-0.23h0Zm-0.74,2.85v0.04c-0.34.1-.52,0.15-0.55,0.15l0.16-.7h0Zm-2.38,15.74a2.472,2.472,0,0,1,.97-1.06,6.419,6.419,0,0,1-.23.9,0.934,0.934,0,0,1-.58.67,0.271,0.271,0,0,1-.24-0.24,0.422,0.422,0,0,1,.08-0.27h0Zm38.41-33.13a24.93,24.93,0,0,0-3.74,1.06,18.713,18.713,0,0,0-9.54,7.77,28.154,28.154,0,0,0-2.5,5.16,44.189,44.189,0,0,0-1.59,6.09q-0.51,2.625-.9,6.99l0.04,0.04,0.7,1.72a5.356,5.356,0,0,1-.7.35c-0.1,0-.16.1-0.16,0.28v1.29a21.58,21.58,0,0,0,1.37,8.12,9.23,9.23,0,0,0,4.52,5.04,11.785,11.785,0,0,0,2.22.82,8.8,8.8,0,0,0,5.37,1.76h0.9a13.185,13.185,0,0,0,7.09-2.31,20.024,20.024,0,0,0,3.35-2.61,29.753,29.753,0,0,0,2.34-2.5,40.109,40.109,0,0,0,2.61-3.52,38.466,38.466,0,0,0,2.88-5.35,20.135,20.135,0,0,0,1.48-8.16v-0.86a40.184,40.184,0,0,0-1.29-9.65,22.526,22.526,0,0,0-1.87-4.96,10.835,10.835,0,0,0-1.52-2.31,5.491,5.491,0,0,0-1.32-1.21,5.238,5.238,0,0,0-1.09-.47l-0.78-.62a12.256,12.256,0,0,0-1.67-1.1,7.679,7.679,0,0,0-4.13-1.01h-0.2a11.788,11.788,0,0,0-1.87.15h0Zm-7.4,17.35a51.741,51.741,0,0,1,3.31-6.37,26.064,26.064,0,0,1,2.38-3.4,12.138,12.138,0,0,1,1.36-1.21,8.536,8.536,0,0,1,4.25-1.72h0.23a2.764,2.764,0,0,1,1.25.32c1.56,0.8,2.33,3,2.33,6.6a41.648,41.648,0,0,1-.89,7.89,74.386,74.386,0,0,1-2.38,8.51,51.4,51.4,0,0,1-3.5,8.01,20.418,20.418,0,0,1-1.99,3.05q-3.735,3.975-5.61,3.98h-0.2q-1.245,0-1.98-1.95a18.848,18.848,0,0,1-.66-3.36q-0.51-4.695-.78-6.25c-0.16-.89-0.24-1.35-0.24-1.41a1.247,1.247,0,0,1,.43-0.82,2.586,2.586,0,0,0,.78-2.03v-0.43c-0.13-1.12-.19-1.74-0.19-1.87q0-2.58,2.1-7.54h0Zm-2.22-10.16,0.08,0.39-0.04.12a2.278,2.278,0,0,1-.86.94h0a1.672,1.672,0,0,1,.82-1.45h0Zm-1.44,2.54h0.08l0.03,0.08a0.292,0.292,0,0,1-.15.19l-0.04-.15h0a0.148,0.148,0,0,1,.08-0.12h0Zm-4.83,10.86a11.1,11.1,0,0,1,.85-3.05,18.06,18.06,0,0,1,1.68-4.14c0.47-.83,1-1.78,1.6-2.85a0.888,0.888,0,0,1,.58-0.39,6.081,6.081,0,0,1-.31,1.02,10.724,10.724,0,0,1-.97,2.11,21.326,21.326,0,0,0-1.72,3.67,41.651,41.651,0,0,0-1.13,4.1,7.069,7.069,0,0,1-.04,1.09,0.918,0.918,0,0,1-.54.55,7.73,7.73,0,0,1-.08-1.02,6.276,6.276,0,0,1,.08-1.09h0Zm29.56,2.15a2.013,2.013,0,0,1,.08.94v0.27a7.6,7.6,0,0,1-.11,1.33,9.565,9.565,0,0,1-.74,2.42,14.475,14.475,0,0,1-.59,1.95c-0.41.97-.96,2.07-1.63,3.32-0.6,1.05-.95,1.67-1.06,1.88a0.993,0.993,0,0,1-.62.43h-0.04l0.2-.63a9.531,9.531,0,0,1,1.16-2.54,23.283,23.283,0,0,0,1.41-2.89,31.7,31.7,0,0,0,1.13-3.79,6.135,6.135,0,0,0,.23-1.4v-0.31a0.955,0.955,0,0,1,.58-0.98h0Zm-30.61,1.52a0.286,0.286,0,0,1,.31-0.27,0.945,0.945,0,0,1,.15.7,9.628,9.628,0,0,1-.11,1.33,0.264,0.264,0,0,1-.32.27h-0.07a1.81,1.81,0,0,1-.12-0.86v-0.07a3.569,3.569,0,0,1,.16-1.1h0Zm26.52,4.65v0.08c-0.07.36-.13,0.58-0.15,0.66a0.159,0.159,0,0,1-.12-0.04,1.448,1.448,0,0,1-.19-0.46h0a2.393,2.393,0,0,1,.46-0.24h0Zm-0.66,6.68a0.1,0.1,0,0,1-.11.12l-0.08-.04a0.635,0.635,0,0,1,.15-0.24h0a0.22,0.22,0,0,1,.04.16h0Zm-1.56,2.23a1.907,1.907,0,0,1,.86-0.98,1.733,1.733,0,0,1-.82,1.45c-0.02-.19-0.04-0.33-0.04-0.43h0v-0.04Zm-0.78,1.33a0.724,0.724,0,0,1,.39.11,3.587,3.587,0,0,1-1.32,1.8,0.422,0.422,0,0,1-.27-0.08v-0.04a4.083,4.083,0,0,1,1.2-1.79h0Zm17.07-44.07a16.565,16.565,0,0,0-3.24,1.53,4.768,4.768,0,0,0-1.13.89v0.08a1.041,1.041,0,0,0,.43-0.19,8.258,8.258,0,0,1,1.83-.82,11.043,11.043,0,0,0,1.76-.63,13.281,13.281,0,0,1,2.49-.54,7.827,7.827,0,0,1,2.18-.32h0.27c0.47,0,.9.02,1.29,0.04a2.974,2.974,0,0,1-.58.24,13.094,13.094,0,0,1-2.93.31,16.39,16.39,0,0,0-6.85,2.73,0.321,0.321,0,0,0-.2.32,1.46,1.46,0,0,0,.16.62,5.626,5.626,0,0,1,.78,1.48,2.4,2.4,0,0,0,2.45,1.96,6.812,6.812,0,0,0,2.22-.43h0.04c-0.13.65-.34,1.56-0.62,2.73q-1.485,5.4-4.95,17.93-4.905,18.285-4.91,24.14v0.08a6.036,6.036,0,0,0,3.24,5.55,7.363,7.363,0,0,0,3.11.9h0.35a3.222,3.222,0,0,0,.39-0.04,2.19,2.19,0,0,0,.82-1.8v-0.23a8.131,8.131,0,0,0-.08-0.98,17.923,17.923,0,0,1-.35-2.81q0-2.775,1.91-9.42a2.489,2.489,0,0,1,1.52-.86,1.72,1.72,0,0,0,1.36-.7,1.633,1.633,0,0,1,.67-0.82l0.07,0.04a1.183,1.183,0,0,0,.39.16,1.491,1.491,0,0,0,.43-0.12,9.919,9.919,0,0,1,1.13-.59,2.568,2.568,0,0,0,1.44-.66,0.121,0.121,0,0,0,.08.08c-0.36.67-.54,1.03-0.54,1.05l0.81-.55q1.485,2.745,2.65,5.08a33.952,33.952,0,0,0,3.35,5.39,39.759,39.759,0,0,0,3.7,4.38c1.22,1.22,2.16,2.11,2.81,2.65q5.3,4.38,7.67,4.38a1.055,1.055,0,0,0,.31-0.04,3.2,3.2,0,0,0,.78-0.2,9.639,9.639,0,0,0,1.6-.46q0.93-.24,1.29-0.36a6.767,6.767,0,0,0,1.44-.7,2.177,2.177,0,0,0,.62-0.62c0-.06-0.08-0.08-0.23-0.08h-0.51a4.357,4.357,0,0,1-.7-0.04,2.38,2.38,0,0,1-1.56-.86c-1.14-1.2-2.25-2.45-3.31-3.75l-5.45-6.95q-1.56-1.875-2.77-3.56-2.73-4.02-5.57-9.18a7.2,7.2,0,0,0,.74-0.66q2.655-2.505,4.75-4.77a73.211,73.211,0,0,0,5.14-6.13q-1.245,1.05-2.25,1.95a16.108,16.108,0,0,0,2.22-2.89,13.961,13.961,0,0,1,1.63-2.85,14.786,14.786,0,0,1,.9-1.33,0.967,0.967,0,0,0,.58-0.47c0.16-.31.48-1.08,0.98-2.3a5.518,5.518,0,0,0,.54-1.56,1.5,1.5,0,0,0-.04-0.35,3.38,3.38,0,0,1-.35-1.14,2.831,2.831,0,0,1,.35-1.17,8.209,8.209,0,0,0,.28-1.44v-0.04a2.881,2.881,0,0,0-.08-0.55,0.534,0.534,0,0,1,.19-0.35,9.164,9.164,0,0,0-1.28-2.97,11.143,11.143,0,0,0-1.8-2.19,15.193,15.193,0,0,0-2.18-1.72,20.655,20.655,0,0,0-3.46-1.87,25.971,25.971,0,0,0-12.94-1.64h-0.27a21.841,21.841,0,0,0-7.01,1.01h0Zm2.33,4.77h0.12a0.838,0.838,0,0,1,.08.19v0.08a0.148,0.148,0,0,1-.12.08,0.188,0.188,0,0,1-.19-0.23,0.1,0.1,0,0,1,.11-0.12h0Zm8.81,2.34q8.565,1.215,8.57,5.55,0,4.8-6.55,12.3a2.425,2.425,0,0,0-1.32.51,21.254,21.254,0,0,0-1.95,2.15,19.127,19.127,0,0,1-1.67,1.56,2.051,2.051,0,0,0-.63.43,4.053,4.053,0,0,0-.54.43,6.058,6.058,0,0,0-.86,1.02,8.2,8.2,0,0,1-1.95.97c0.03,0,.04.03,0.04,0.08v0.04a1.418,1.418,0,0,1-.78.67,0.373,0.373,0,0,1-.27-0.12q1.755-6.135,3.51-13.44,1.59-6.645,2.1-9.06a5.931,5.931,0,0,1,.23-1.6,5.861,5.861,0,0,0,.36-1.37,2.3,2.3,0,0,1-.04-0.27h0c0.7,0.05,1.28.1,1.75,0.15h0Zm16.48,1.72,0.15,0.24a1.138,1.138,0,0,1,.28.7v0.04c0,0.15-.03.44-0.08,0.86h-0.04l-0.31-1.84h0Zm-33.89,30.39q1.05-4.29,5.25-20.66,1.14-4.185,1.56-6.1c0.16-.54.35-1.12,0.59-1.72,0.08-.52.23-0.78,0.46-0.78h0.04a0.4,0.4,0,0,1,.43.47,1.928,1.928,0,0,1-.39,1.02,14.212,14.212,0,0,0-1.01,3.59q-3.465,15.045-5.49,21.88a8.23,8.23,0,0,1-1.09,2.77,0.415,0.415,0,0,1-.39-0.2,1.032,1.032,0,0,1,.04-0.27h0Zm34.04-27.85a0.751,0.751,0,0,1,.16-0.47c0.05,0.29.08,0.44,0.08,0.47a0.13,0.13,0,0,1-.12.16,0.106,0.106,0,0,1-.12-0.12h0v-0.04Zm-10.05,15.82a4.037,4.037,0,0,0,.86-0.62,12.969,12.969,0,0,0,1.6-1.84,2.633,2.633,0,0,1,1.44-1.37,0.452,0.452,0,0,0,.31-0.27c1.66-3.13,2.97-5.78,3.93-7.97a5.014,5.014,0,0,1,.2-1.02c0-.23.05-0.35,0.16-0.35a1.248,1.248,0,0,0,.35.04,9.3,9.3,0,0,1-.39,1.95c-0.26.53-.51,1.07-0.74,1.65a16.768,16.768,0,0,1-1.02,2.77,7.1,7.1,0,0,0-.66,1.25,12.607,12.607,0,0,1-.97,1.72c-0.47.6-.87,1.14-1.21,1.64a8.654,8.654,0,0,1-1.79,1.87c-0.81.99-1.31,1.6-1.52,1.84a1.759,1.759,0,0,1-.78.66,0.32,0.32,0,0,0-.31.24c-0.39.83-.7,1.25-0.94,1.25h-0.15a0.471,0.471,0,0,1-.35-0.47,1.558,1.558,0,0,1,.74-0.94l0.46-.23v-0.04h0a2.436,2.436,0,0,1,.78-1.76h0Zm9.9-13.4a1.174,1.174,0,0,1-.04.16h-0.04a0.5,0.5,0,0,0,.04-0.16h0.04Zm-0.08.24v-0.04h0v0.04Zm-0.58,1.71a4.3,4.3,0,0,1,.42-1.32v0.35a4.709,4.709,0,0,1-.7,2.38,0.441,0.441,0,0,1-.31.31c0.39-1.12.59-1.69,0.59-1.72h0Zm-2.38,4.89,0.08-.04a0.037,0.037,0,0,1,.04.04v0.04a0.043,0.043,0,0,1-.04.04l-0.08-.08h0Zm-30.5,19.96v0.04a4.9,4.9,0,0,1-.16,1.21l-0.43,1.52a0.243,0.243,0,0,1-.11-0.04l0.07-.9a4.533,4.533,0,0,1,.59-1.83h0.04Zm29.68,10.86a13.834,13.834,0,0,0,1.21,1.87,56.493,56.493,0,0,0,4.56,5.08h-0.08a2.981,2.981,0,0,1-1.44-.86c-0.57-.62-1.04-1.12-1.41-1.48-0.46-.39-0.8-0.69-1.01-0.9a11.612,11.612,0,0,1-1.6-2.34,2.6,2.6,0,0,1-.42-0.94v-0.08a0.372,0.372,0,0,1,.19-0.35h0Zm15.19-43.09a27.73,27.73,0,0,0-4.98,1.25,3.665,3.665,0,0,0-1.72.94,4.362,4.362,0,0,0-.89,2.62l0.04,0.5v0.04q-0.51,2.04-1.83,5.94-1.26,3.435-4.06,13.75a40.413,40.413,0,0,0-1.71,10.16q0,6.135,3.78,8.98a4.322,4.322,0,0,0,2.88.94h0.12q1.4-.39,2.73-0.66c1.24-.21,2.02-0.36,2.33-0.43a3.523,3.523,0,0,0,1.21-.55,8.9,8.9,0,0,1,1.68-.55,9.961,9.961,0,0,0,1.87-.19,7.559,7.559,0,0,0,1.55-.59v0.31a46.133,46.133,0,0,0,4.29-1.91,26.827,26.827,0,0,0,4.99-3.05c1.16-1.01,1.75-1.73,1.75-2.15l-0.2-1.05a2.3,2.3,0,0,0,.04-0.27,3.642,3.642,0,0,0-1.09.74,3.34,3.34,0,0,1-1.56.74,3.692,3.692,0,0,1,.63-0.63,18.067,18.067,0,0,1,2.22-1.4,1.2,1.2,0,0,1-.12-0.47v-0.04l0.16-1.25c0-.47-0.38-0.7-1.13-0.7a9.456,9.456,0,0,0-4.48,1.6,44.82,44.82,0,0,1-7.05,3.59c-4.45,1.96-7.22,2.96-8.34,3.01a14.679,14.679,0,0,1-.04-10.23c0.26-.6.71-1.62,1.36-3.05a11.108,11.108,0,0,0,.78-1.95,0.617,0.617,0,0,0-.66-0.63h-0.08a0.359,0.359,0,0,0-.31.16,4.8,4.8,0,0,1-.23.66,8.416,8.416,0,0,0-1.13,1.45,8.235,8.235,0,0,0-1.25,4.84v0.2c0.08,0.78.12,1.19,0.12,1.25a3.853,3.853,0,0,1-.31,1.44,3.223,3.223,0,0,0-.43.82v0.08a3.575,3.575,0,0,1,.19.82c-0.02.78-.04,1.24-0.04,1.37a9.562,9.562,0,0,0,.43,2.22,4.436,4.436,0,0,1-.78-0.89,2.862,2.862,0,0,1-.58-2q0-.54.27-2.61a17.062,17.062,0,0,1,.59-3.48,0.328,0.328,0,0,1,.35-0.27l0.03-.36a1.22,1.22,0,0,1-.11-0.97v-0.08a0.569,0.569,0,0,0,.11-0.27,7.265,7.265,0,0,1,.82-2.23l0.59-1.13a3.983,3.983,0,0,1,1.36-1.33v-0.04a2.293,2.293,0,0,0-.51-0.39c0.63-.24,1.56-0.53,2.81-0.9a96.345,96.345,0,0,1,12-2.46,10.168,10.168,0,0,0,2.96-.82,13.5,13.5,0,0,0,2.61-1.29v-0.47a6.3,6.3,0,0,0-.59-2.3l-0.15-1.02a0.639,0.639,0,0,0-.39-0.47,7.918,7.918,0,0,0-1.87-.54,0.4,0.4,0,0,0-.31-0.36c-0.21-.05-0.64-0.11-1.29-0.19q-2.925.27-6.43,0.66c-1.4.19-2.92,0.43-4.55,0.75h-0.04c0.49-1.62.94-2.97,1.36-4.07a11.5,11.5,0,0,0,1.25-.19c2.18-.18,3.59-0.33,4.24-0.43l-0.35-.31a16.944,16.944,0,0,0,3.39-.4l7.91-2.18a9.369,9.369,0,0,1,1.99-.32,7.216,7.216,0,0,0,1.83-.43,2.984,2.984,0,0,0,.62-1.67,2.66,2.66,0,0,0-.12-0.86,4.16,4.16,0,0,0-1.01-1.25,8.169,8.169,0,0,0-2.45-1.57,13.54,13.54,0,0,0-4.72-.5h-1.05a70.141,70.141,0,0,0-11.3.97h0Zm0.39,1.8a33.744,33.744,0,0,1,6.31-.59,3.841,3.841,0,0,0,.55.04,0.152,0.152,0,0,1,.08-0.04c0,0.03.05,0.04,0.15,0.04a0.6,0.6,0,0,1,.63.47,0.145,0.145,0,0,1-.12.12c-0.13,0-.38-0.01-0.74-0.04h-0.35c-1.9.21-3.92,0.4-6.08,0.58-0.49,0-.74-0.1-0.74-0.31a0.391,0.391,0,0,1,.31-0.27h0Zm-5.84.82a4.407,4.407,0,0,1,2.22-.63h0.16a0.154,0.154,0,0,1,.15.08,0.853,0.853,0,0,1-.31.24v0.04a4.906,4.906,0,0,1,1.13-.24,1.055,1.055,0,0,1,.97.27,0.8,0.8,0,0,1-.03.16,31.539,31.539,0,0,1-3.82.86,0.279,0.279,0,0,1-.2-0.08,0.479,0.479,0,0,1-.39-0.35v-0.04h0a0.506,0.506,0,0,1,.12-0.31h0Zm8.1,10.51a0.154,0.154,0,0,1,.16.08v0.07a0.106,0.106,0,0,1-.12.12c-0.13,0-.19-0.03-0.19-0.08,0-.13.05-0.19,0.15-0.19h0Zm-1.01.19h0.08a0.155,0.155,0,0,1,.15.16,0.173,0.173,0,0,1-.19.15h-0.08a0.2,0.2,0,0,1-.12-0.15,0.143,0.143,0,0,1,.16-0.16h0Zm-1.09.16h0.04a0.142,0.142,0,0,1,.15.12c-0.02.18-.09,0.27-0.19,0.27H4400a0.2,0.2,0,0,1-.07-0.16,0.226,0.226,0,0,1,.23-0.23h0Zm-2.53.98a2.553,2.553,0,0,1,1.24-.75h0.04a0.269,0.269,0,0,1,.24.2,0.777,0.777,0,0,1-.32.51,2.52,2.52,0,0,1-1.05.43v-0.04a0.316,0.316,0,0,1-.23-0.16,0.3,0.3,0,0,1,.08-0.19h0Zm-1.87,7.81a0.963,0.963,0,0,0-.94.66v0.04a0.257,0.257,0,0,0,.27.24h0.12a0.963,0.963,0,0,0,.9-0.86,0.346,0.346,0,0,0-.24-0.12Zm14.88,13.32h0.04l-0.12.15a1.507,1.507,0,0,1-.74.36,1.065,1.065,0,0,1,.82-0.51h0Zm-1.6.66a0.4,0.4,0,0,0,.2.04,1.645,1.645,0,0,1-1.41.82h-0.19l-0.12-.04a1.81,1.81,0,0,1,1.52-.82h0Zm-1.71.9h0.04a0.352,0.352,0,0,1-.32.23h0a0.343,0.343,0,0,1,.28-0.23h0Z" transform="translate(-3987.69 -7356.56)"/>
</svg>
