<?xml version="1.0" encoding="UTF-8"?>
<svg width="445px" height="108px" viewBox="0 0 445 108" version="1.1" xmlns="http://www.w3.org/2000/svg" xmlns:xlink="http://www.w3.org/1999/xlink">
    <!-- Generator: Sketch 54.1 (76490) - https://sketchapp.com -->
    <title>powerful</title>
    <desc>Created with Sketch.</desc>
    <g id="Page-1" stroke="none" stroke-width="1" fill="none" fill-rule="evenodd">
        <g id="Artboard" transform="translate(-2152.000000, -2719.000000)" fill-rule="nonzero" stroke="#FFFFFF">
            <path d="M2174.88309,2734.375 C2175.35184,2734.375 2177.18776,2734.60937 2180.3909,2735.07812 C2184.72686,2735.625 2188.34011,2736.25 2191.23075,2736.95312 C2194.55108,2737.8125 2197.24636,2738.74999 2199.31669,2739.76562 C2204.90265,2742.50001 2207.69559,2746.26951 2207.69559,2751.07422 C2207.69559,2753.49611 2207.01201,2756.15233 2205.64481,2759.04297 C2204.78543,2760.64454 2203.65263,2762.40233 2202.24637,2764.31641 C2200.91824,2766.11329 2199.16045,2768.18358 2196.97294,2770.52734 C2194.62917,2773.02736 2192.73466,2774.92187 2191.28934,2776.21094 L2189.53153,2777.73438 C2190.85966,2776.1328 2191.60184,2775.29297 2191.75809,2775.21484 C2193.16435,2774.04296 2194.10184,2773.10547 2194.57059,2772.40234 C2194.84403,2771.93359 2195.48856,2771.09376 2196.50419,2769.88281 C2197.3245,2768.74999 2197.98856,2767.61719 2198.49637,2766.48438 C2199.00419,2765.9375 2199.55106,2764.88282 2200.137,2763.32031 C2200.56669,2762.03124 2201.03543,2760.9375 2201.54325,2760.03906 C2201.85575,2759.49218 2202.16825,2758.67188 2202.48075,2757.57812 C2202.637,2756.99218 2202.71512,2756.62109 2202.71512,2756.46484 L2202.71512,2756.40625 L2202.65653,2756.40625 C2202.50028,2756.40625 2202.34403,2756.38672 2202.18778,2756.34766 C2202.07059,2756.34766 2201.99247,2756.42578 2201.9534,2756.58203 C2201.79715,2757.2461 2201.66044,2757.83203 2201.54325,2758.33984 C2199.98074,2761.54298 2197.89092,2765.35154 2195.27372,2769.76562 C2195.00028,2770.27344 2194.74637,2770.52734 2194.512,2770.52734 C2193.53543,2770.95703 2192.79325,2771.62109 2192.28544,2772.51953 C2191.6995,2773.30079 2190.99638,2774.10156 2190.17606,2774.92188 C2189.47293,2775.54688 2188.94559,2775.9375 2188.59403,2776.09375 C2187.92996,2776.60157 2187.48075,2777.30468 2187.24637,2778.20312 C2187.20731,2778.63281 2187.16825,2778.84766 2187.12919,2778.84766 C2186.30887,2779.1211 2185.74247,2779.57031 2185.42997,2780.19531 C2185.31278,2780.39063 2185.25419,2780.50781 2185.25419,2780.54688 C2185.25419,2780.625 2185.33231,2780.80078 2185.48856,2781.07422 C2183.1448,2782.83204 2181.03545,2784.27734 2179.16044,2785.41016 C2178.887,2785.21484 2178.71122,2785.11719 2178.63309,2785.11719 L2178.5745,2785.11719 C2178.37918,2785.11719 2177.92997,2785.5664 2177.22684,2786.46484 C2176.9534,2786.77735 2175.93779,2787.20703 2174.17997,2787.75391 C2171.40652,2788.65235 2169.31669,2789.10156 2167.91044,2789.10156 C2167.40262,2789.10156 2166.93388,2789.02344 2166.50419,2788.86719 L2166.3284,2788.86719 C2166.25028,2788.86719 2166.21122,2789.08203 2166.21122,2789.51172 C2166.21122,2789.58984 2166.03544,2789.82422 2165.68387,2790.21484 L2165.68387,2790.33203 L2165.74247,2790.80078 C2165.74247,2790.87891 2165.58622,2791.46484 2165.27372,2792.55859 C2164.57059,2794.23829 2164.21903,2795.50781 2164.21903,2796.36719 C2163.86747,2796.60156 2163.69169,2797.20703 2163.69169,2798.18359 C2163.69169,2798.41797 2163.49638,2799.06249 2163.10575,2800.11719 C2162.91043,2801.01563 2162.73466,2802.42187 2162.5784,2804.33594 C2162.5784,2804.375 2162.55887,2804.51172 2162.51981,2804.74609 C2162.55887,2805.09766 2162.5784,2805.33203 2162.5784,2805.44922 C2162.5784,2805.80078 2162.46122,2806.56249 2162.22684,2807.73438 L2162.22684,2807.79297 L2162.28544,2807.79297 C2162.87138,2805.29296 2163.16434,2803.84766 2163.16434,2803.45703 L2163.16434,2803.16406 C2163.32059,2801.56249 2163.55497,2800.25391 2163.86747,2799.23828 C2164.21903,2798.26171 2164.41434,2797.75391 2164.4534,2797.71484 C2164.53153,2798.02735 2164.57059,2798.24219 2164.57059,2798.35938 C2164.57059,2798.47656 2164.55106,2798.76953 2164.512,2799.23828 C2164.512,2799.35547 2164.62918,2799.51172 2164.86356,2799.70703 C2163.73074,2805.52737 2163.16434,2809.72655 2163.16434,2812.30469 C2163.16434,2813.04688 2163.32059,2814.10156 2163.63309,2815.46875 C2163.75028,2816.21094 2163.80887,2816.8164 2163.80887,2817.28516 L2163.80887,2817.51953 C2163.80887,2818.41797 2163.53544,2819.14062 2162.98856,2819.6875 C2162.87137,2819.92188 2162.53934,2820.03906 2161.99247,2820.03906 L2161.81669,2820.03906 C2160.56668,2820.03906 2159.12138,2819.57032 2157.48075,2818.63281 C2156.97293,2818.35937 2156.34794,2817.83204 2155.60575,2817.05078 C2153.96512,2815.21483 2153.14481,2812.94923 2153.14481,2810.25391 L2153.14481,2809.72656 C2153.14481,2803.59372 2154.9612,2792.81258 2158.59403,2777.38281 C2162.42217,2761.40617 2164.33622,2753.28125 2164.33622,2753.00781 C2164.60966,2751.75781 2164.94168,2750.07814 2165.33231,2747.96875 C2165.52762,2747.26562 2165.72293,2745.9961 2165.91825,2744.16016 L2166.03544,2741.75781 L2166.09403,2741.75781 C2166.32841,2742.42188 2166.54325,2742.87109 2166.73856,2743.10547 L2166.73856,2742.8125 C2166.73856,2742.34375 2167.22684,2740.87892 2168.2034,2738.41797 C2168.35966,2737.91015 2168.59403,2737.22657 2168.90653,2736.36719 L2168.96512,2736.13281 C2168.96512,2736.05469 2168.84794,2735.87891 2168.61356,2735.60547 C2168.61356,2735.56641 2168.51591,2735.33203 2168.32059,2734.90234 C2169.02372,2734.78516 2169.53153,2734.72656 2169.84403,2734.72656 L2170.0784,2734.72656 C2170.54716,2734.72656 2170.78153,2734.84375 2170.78153,2735.07812 C2170.46903,2736.05469 2170.21512,2737.34374 2170.01981,2738.94531 C2169.47293,2741.60158 2168.08623,2747.18746 2165.85965,2755.70312 C2163.75027,2763.7891 2162.34403,2769.37498 2161.6409,2772.46094 C2161.44559,2773.51563 2161.34794,2774.10156 2161.34794,2774.21875 C2161.34794,2774.375 2161.54325,2774.47266 2161.93387,2774.51172 C2162.24637,2774.23828 2162.73465,2773.02735 2163.39872,2770.87891 C2165.70342,2762.79293 2168.0862,2752.91021 2170.54715,2741.23047 C2170.93778,2739.08202 2171.3284,2737.65625 2171.71903,2736.95312 C2172.07059,2736.13281 2172.50028,2735.48828 2173.00809,2735.01953 C2173.47684,2734.58984 2174.10184,2734.375 2174.88309,2734.375 Z M2176.75809,2746.50391 C2176.91434,2747.16797 2176.99247,2748.65233 2176.99247,2750.95703 C2176.99247,2752.36329 2175.68389,2758.20307 2173.06669,2768.47656 C2172.16824,2771.91408 2171.30888,2775.07811 2170.48856,2777.96875 C2173.45733,2775.93749 2176.23074,2773.94532 2178.80887,2771.99219 C2188.61361,2764.49215 2193.5159,2758.65236 2193.5159,2754.47266 L2193.5159,2754.23828 C2193.5159,2751.58202 2191.38702,2749.55079 2187.12919,2748.14453 C2185.87918,2747.7539 2184.10185,2747.38281 2181.79715,2747.03125 C2180.54715,2746.83594 2178.86748,2746.66016 2176.75809,2746.50391 Z M2204.64872,2749.08203 C2204.88309,2750.80079 2205.00028,2751.69922 2205.00028,2751.77734 C2205.15653,2751.15234 2205.23465,2750.66406 2205.23465,2750.3125 C2205.23465,2750.03906 2205.05888,2749.66797 2204.70731,2749.19922 C2204.70731,2749.12109 2204.68778,2749.08203 2204.64872,2749.08203 Z M2204.70731,2752.94922 C2204.70731,2753.02734 2204.7659,2753.06641 2204.88309,2753.06641 C2205.00028,2753.06641 2205.05887,2753.00781 2205.05887,2752.89062 C2205.05887,2752.65625 2205.01981,2752.42188 2204.94169,2752.1875 C2204.86356,2752.1875 2204.78544,2752.4414 2204.70731,2752.94922 Z M2204.17997,2756.40625 C2204.17997,2756.52344 2204.16044,2756.62109 2204.12137,2756.69922 L2204.23856,2756.46484 L2204.23856,2756.40625 L2204.17997,2756.40625 Z M2202.12919,2761.85547 C2202.40262,2761.85547 2202.83231,2761.15235 2203.41825,2759.74609 C2203.73075,2758.92578 2203.887,2758.10547 2203.887,2757.28516 C2203.73075,2757.44141 2203.47684,2758.10546 2203.12528,2759.27734 C2202.77372,2760.17579 2202.44169,2761.03515 2202.12919,2761.85547 Z M2199.1995,2766.42578 L2199.1995,2766.48438 L2199.31669,2766.54297 L2199.37528,2766.54297 L2199.37528,2766.42578 L2199.1995,2766.42578 Z M2161.87528,2775.91797 C2161.40653,2776.97266 2161.17215,2777.8125 2161.17215,2778.4375 C2161.09403,2778.75 2161.05497,2779.23828 2161.05497,2779.90234 C2161.13309,2779.94141 2161.19169,2779.96094 2161.23075,2779.96094 C2161.23075,2779.88281 2161.40653,2779.16016 2161.75809,2777.79297 C2161.87528,2777.36328 2161.93387,2776.875 2161.93387,2776.32812 L2161.93387,2775.91797 L2161.87528,2775.91797 Z M2187.9495,2779.08203 L2187.53934,2779.43359 L2187.53934,2779.375 C2187.53934,2779.21875 2187.67606,2779.12109 2187.9495,2779.08203 Z M2230.11056,2747.32422 C2234.25121,2747.32422 2238.29414,2748.80858 2242.23947,2751.77734 C2243.02072,2751.93359 2243.82149,2752.32422 2244.64181,2752.94922 C2245.14963,2753.33985 2245.6379,2753.82812 2246.10666,2754.41406 C2246.6926,2755.27344 2247.14181,2756.03515 2247.45431,2756.69922 C2248.00119,2757.75391 2248.52853,2759.35546 2249.03634,2761.50391 C2249.70041,2764.58986 2250.03244,2767.73436 2250.03244,2770.9375 L2250.03244,2772.22656 C2250.03244,2777.34378 2249.34885,2782.36326 2247.98166,2787.28516 C2247.35665,2789.16017 2246.65353,2790.82031 2245.87228,2792.26562 C2245.16915,2793.51563 2244.27072,2794.84374 2243.17697,2796.25 C2241.84884,2797.77345 2240.59885,2798.98437 2239.42697,2799.88281 C2235.5207,2802.89064 2231.53636,2804.39453 2227.47384,2804.39453 C2222.47382,2804.39453 2218.07933,2802.16799 2214.29025,2797.71484 C2209.95429,2795.37108 2206.98557,2791.97268 2205.384,2787.51953 C2204.44649,2785.01952 2203.97775,2782.40236 2203.97775,2779.66797 L2203.97775,2779.08203 C2203.97775,2774.39451 2205.18867,2769.47268 2207.61056,2764.31641 C2208.39182,2762.7539 2209.29024,2761.21095 2210.30587,2759.6875 C2211.16525,2758.39843 2212.41524,2756.85548 2214.05587,2755.05859 C2215.69651,2753.45702 2216.94649,2752.36328 2217.80587,2751.77734 C2219.21213,2750.76171 2220.40353,2750.03906 2221.38009,2749.60938 C2224.38792,2748.08593 2227.29805,2747.32422 2230.11056,2747.32422 Z M2216.92697,2756.05469 L2216.92697,2756.17188 C2217.82541,2755.85937 2218.27462,2755.60547 2218.27462,2755.41016 C2218.27462,2755.29297 2218.29415,2755.19531 2218.33322,2755.11719 C2218.29415,2754.88281 2218.25509,2754.6875 2218.21603,2754.53125 C2217.70822,2754.64844 2217.37619,2754.84375 2217.21994,2755.11719 C2217.02462,2755.39063 2216.92697,2755.70312 2216.92697,2756.05469 Z M2217.33712,2780.13672 C2217.33712,2786.42581 2219.40742,2791.56248 2223.54806,2795.54688 C2224.29025,2796.17188 2224.85665,2796.62109 2225.24728,2796.89453 C2227.08323,2796.34765 2228.58712,2795.35157 2229.759,2793.90625 C2231.00901,2792.42187 2232.70821,2788.96487 2234.85666,2783.53516 C2235.32541,2782.36328 2235.81368,2780.44923 2236.3215,2777.79297 C2236.71213,2775.91796 2237.10275,2772.92971 2237.49337,2768.82812 C2237.92306,2763.43747 2238.13791,2758.76955 2238.13791,2754.82422 L2237.49337,2754.82422 C2234.44648,2754.82422 2231.7512,2755.46874 2229.40744,2756.75781 C2228.62618,2757.22656 2227.80588,2757.79297 2226.9465,2758.45703 C2225.38399,2759.90235 2224.40744,2760.89843 2224.01681,2761.44531 C2223.07931,2762.61719 2222.23947,2763.82812 2221.49728,2765.07812 C2220.6379,2766.52344 2219.85666,2768.24218 2219.15353,2770.23438 C2217.94259,2773.63283 2217.33712,2776.93358 2217.33712,2780.13672 Z M2215.75509,2757.46094 L2215.81369,2757.75391 C2215.93087,2757.71484 2216.02853,2757.65625 2216.10666,2757.57812 L2215.93087,2757.34375 L2215.81369,2757.34375 C2215.81369,2757.34375 2215.79416,2757.38281 2215.75509,2757.46094 Z M2206.73166,2773.69141 L2206.90744,2773.69141 C2207.53244,2773.69141 2207.84494,2773.24219 2207.84494,2772.34375 C2207.884,2771.71875 2208.00119,2771.19141 2208.1965,2770.76172 C2209.01682,2768.41796 2209.97384,2766.3672 2211.06759,2764.60938 C2211.57541,2763.78906 2212.35665,2762.79297 2213.41134,2761.62109 C2214.38791,2760.52734 2215.14962,2759.29688 2215.6965,2757.92969 C2215.61837,2757.89062 2215.50119,2757.87109 2215.34494,2757.87109 L2215.22775,2757.87109 C2214.91525,2757.87109 2214.62228,2758.10547 2214.34884,2758.57422 C2212.86446,2760.13673 2211.6926,2761.54296 2210.83322,2762.79297 C2209.73946,2764.31641 2209.07541,2765.52734 2208.84103,2766.42578 L2207.90353,2768.00781 C2207.12228,2769.60938 2206.73166,2771.5039 2206.73166,2773.69141 Z M2206.55587,2774.98047 C2206.28243,2775.64453 2206.14572,2776.34765 2206.14572,2777.08984 C2206.14572,2777.98829 2206.24337,2778.4375 2206.43869,2778.4375 C2206.59494,2778.51563 2206.69259,2778.55469 2206.73166,2778.55469 L2206.79025,2778.55469 C2206.90744,2778.55469 2206.96603,2778.4375 2206.96603,2778.20312 C2207.12228,2777.42187 2207.20041,2776.73828 2207.20041,2776.15234 L2207.20041,2775.97656 C2207.20041,2775.35156 2207.06369,2775.03906 2206.79025,2775.03906 L2206.55587,2774.98047 Z M2246.69259,2779.55078 L2246.69259,2780.48828 C2246.69259,2780.87891 2246.26291,2782.34374 2245.40353,2784.88281 C2244.89572,2786.13282 2244.32931,2787.32421 2243.70431,2788.45703 C2243.27462,2789.08203 2242.66916,2789.88281 2241.88791,2790.85938 C2241.2629,2791.79688 2240.79416,2792.69531 2240.48166,2793.55469 C2240.3254,2794.02344 2240.24728,2794.27734 2240.24728,2794.31641 L2240.54025,2794.31641 C2241.009,2794.31641 2241.34103,2794.08203 2241.53634,2793.61328 C2243.80198,2790.83983 2245.28634,2788.57423 2245.98947,2786.81641 L2246.51681,2785.29297 C2246.51681,2785.21484 2246.69259,2784.80469 2247.04416,2784.0625 C2247.51291,2782.85156 2247.74728,2781.58204 2247.74728,2780.25391 C2247.74728,2779.6289 2247.70822,2779.02344 2247.63009,2778.4375 C2247.00509,2778.4375 2246.69259,2778.80859 2246.69259,2779.55078 Z M2240.30587,2785.29297 C2240.46212,2785.87891 2240.61837,2786.17188 2240.77462,2786.17188 L2240.83322,2786.17188 C2240.87228,2786.05469 2240.93087,2785.76172 2241.009,2785.29297 C2241.04806,2785.29297 2241.06759,2785.25391 2241.06759,2785.17578 C2240.98947,2785.21484 2240.73556,2785.25391 2240.30587,2785.29297 Z M2239.83712,2794.66797 C2239.87619,2794.74609 2239.93478,2794.80469 2240.01291,2794.84375 L2240.18869,2794.84375 L2240.18869,2794.72656 L2240.13009,2794.49219 C2240.05197,2794.49219 2239.95431,2794.55078 2239.83712,2794.66797 Z M2237.66916,2797.07031 L2237.66916,2797.12891 C2237.70822,2797.5586 2237.76681,2797.77344 2237.84494,2797.77344 C2238.35275,2797.61719 2238.70431,2797.38281 2238.89962,2797.07031 C2239.01681,2796.75781 2239.07541,2796.48438 2239.07541,2796.25 L2239.07541,2796.13281 C2238.21603,2796.48438 2237.76681,2796.73828 2237.72775,2796.89453 L2237.66916,2797.07031 Z M2234.56369,2800.46875 L2234.56369,2800.64453 C2234.56369,2800.68359 2234.71993,2800.80078 2235.03244,2800.99609 C2235.96994,2800.60547 2236.634,2799.98047 2237.02462,2799.12109 C2237.06369,2799.12109 2237.08322,2799.10156 2237.08322,2799.0625 C2236.80978,2798.75 2236.59494,2798.59375 2236.43869,2798.59375 C2235.26681,2799.41407 2234.64181,2800.03906 2234.56369,2800.46875 Z M2328.52162,2736.30859 C2329.22475,2736.42578 2329.84975,2736.48438 2330.39662,2736.48438 L2330.68959,2736.48438 C2332.8771,2736.36719 2334.10756,2736.30859 2334.381,2736.30859 L2335.25991,2736.30859 C2336.86148,2736.30859 2337.95522,2736.93359 2338.54116,2738.18359 C2338.69741,2738.61328 2338.77553,2738.92578 2338.77553,2739.12109 C2338.18959,2740.48829 2337.77944,2741.25 2337.54506,2741.40625 C2336.25599,2743.20313 2335.45522,2744.53125 2335.14272,2745.39062 C2333.97084,2747.69532 2332.09586,2751.05467 2329.51772,2755.46875 C2328.34584,2757.57814 2327.21304,2759.76561 2326.11928,2762.03125 C2324.59584,2764.57033 2323.26772,2767.12889 2322.13491,2769.70703 C2321.58803,2771.03516 2321.06069,2772.59765 2320.55287,2774.39453 C2320.51381,2774.43359 2320.08413,2775.52733 2319.26381,2777.67578 C2319.18569,2777.75391 2317.9357,2780.17576 2315.51381,2784.94141 C2315.43569,2784.94141 2315.35756,2784.92188 2315.27944,2784.88281 C2315.16225,2785.03906 2315.10366,2785.13672 2315.10366,2785.17578 C2315.10366,2785.21484 2315.16225,2785.3125 2315.27944,2785.46875 C2311.56848,2792.69535 2308.97085,2797.92967 2307.48647,2801.17188 C2306.23646,2804.37502 2305.39663,2806.1914 2304.96694,2806.62109 C2304.42006,2807.40235 2303.5021,2807.94922 2302.21303,2808.26172 C2301.11927,2808.57422 2298.28727,2808.92578 2293.71694,2809.31641 C2290.00598,2809.82422 2287.5646,2810.07812 2286.39272,2810.07812 C2284.71302,2810.07812 2283.63881,2809.7461 2283.17006,2809.08203 C2282.97475,2808.80859 2282.8185,2801.83601 2282.70131,2788.16406 L2282.70131,2787.51953 C2279.65442,2793.49612 2277.62319,2797.67577 2276.60756,2800.05859 C2275.35756,2803.10548 2274.51772,2804.80469 2274.08803,2805.15625 C2273.54115,2805.97657 2272.42788,2806.60156 2270.74819,2807.03125 C2269.22474,2807.38281 2266.29508,2807.77344 2261.95912,2808.20312 C2259.34192,2808.59375 2257.40835,2808.78906 2256.15834,2808.78906 C2254.16615,2808.78906 2252.91616,2808.39844 2252.40834,2807.61719 C2252.09584,2805.11717 2251.93959,2794.60947 2251.93959,2776.09375 L2251.93959,2774.16016 C2251.93959,2757.83195 2252.01772,2747.14846 2252.17397,2742.10938 C2253.22866,2741.09374 2254.26381,2740.58594 2255.27944,2740.58594 L2255.57241,2740.58594 C2256.39272,2740.58594 2258.11145,2741.1914 2260.72866,2742.40234 L2261.49037,2742.69531 C2261.41225,2743.51563 2261.37319,2744.41406 2261.37319,2745.39062 L2261.37319,2754.35547 C2261.37319,2757.28517 2261.256,2759.27734 2261.02162,2760.33203 C2260.86537,2761.3086 2260.78725,2762.28515 2260.78725,2763.26172 L2260.78725,2763.84766 C2260.78725,2765.6836 2261.15834,2770.85933 2261.90053,2779.375 C2261.90053,2781.71876 2262.42787,2784.16014 2263.48256,2786.69922 C2263.59975,2786.97266 2263.65834,2787.12891 2263.65834,2787.16797 L2263.71694,2787.16797 L2263.71694,2786.34766 C2263.71694,2786.23047 2263.52163,2784.66798 2263.131,2781.66016 C2262.74037,2777.91014 2262.54506,2774.25783 2262.54506,2770.70312 C2262.66225,2764.57028 2262.74037,2760.19533 2262.77944,2757.57812 C2262.77944,2752.38279 2262.89662,2748.2422 2263.131,2745.15625 C2263.17006,2744.14062 2263.18959,2743.45703 2263.18959,2743.10547 L2263.24819,2743.10547 C2263.56069,2743.18359 2263.85365,2743.59375 2264.12709,2744.33594 C2264.67397,2745.66407 2264.94741,2749.06247 2264.94741,2754.53125 C2265.06459,2755.23438 2265.12319,2756.67968 2265.12319,2758.86719 C2265.006,2773.63289 2264.94741,2782.92967 2264.94741,2786.75781 L2264.94741,2788.98438 C2264.94741,2792.46095 2265.006,2794.19922 2265.12319,2794.19922 L2265.24037,2794.31641 C2266.06069,2792.71484 2266.86146,2791.34766 2267.64272,2790.21484 C2267.87709,2790.48828 2268.09194,2790.625 2268.28725,2790.625 C2268.40444,2790.625 2268.50209,2790.44922 2268.58022,2790.09766 C2269.83022,2786.50389 2271.17787,2783.45704 2272.62319,2780.95703 C2273.24819,2779.9414 2273.85365,2779.1211 2274.43959,2778.49609 C2274.67397,2778.22265 2275.16225,2777.77344 2275.90444,2777.14844 C2276.13881,2776.875 2276.256,2776.62109 2276.256,2776.38672 C2276.256,2776.30859 2276.15834,2776.05469 2275.96303,2775.625 C2278.97086,2769.7656 2282.23254,2762.75395 2285.74819,2754.58984 C2286.21694,2753.53515 2286.64662,2752.67578 2287.03725,2752.01172 C2288.52163,2749.08202 2289.90834,2746.58204 2291.19741,2744.51172 C2292.44741,2742.71483 2293.40443,2741.81641 2294.0685,2741.81641 L2294.12709,2741.81641 C2295.02553,2741.93359 2295.68959,2741.99219 2296.11928,2741.99219 C2298.26773,2741.875 2299.65443,2741.81641 2300.27944,2741.81641 L2300.74819,2741.81641 C2302.42788,2741.81641 2303.54115,2742.4414 2304.08803,2743.69141 C2304.20522,2743.88672 2304.28334,2744.17969 2304.32241,2744.57031 C2303.77553,2745.89844 2303.40444,2746.66016 2303.20912,2746.85547 C2302.31068,2747.98829 2301.64663,2748.94531 2301.21694,2749.72656 C2299.96693,2752.38283 2298.28726,2755.50779 2296.17787,2759.10156 C2296.02162,2759.29688 2295.86537,2759.55078 2295.70912,2759.86328 C2295.59194,2770.99615 2295.53334,2778.98435 2295.53334,2783.82812 L2295.53334,2787.05078 C2295.53334,2792.793 2295.65053,2795.66406 2295.88491,2795.66406 L2295.9435,2795.83984 L2296.00209,2795.83984 C2296.19741,2795.44922 2297.19349,2794.08204 2298.99037,2791.73828 C2301.60757,2788.22264 2302.91616,2786.03516 2302.91616,2785.17578 C2302.91616,2785.05859 2302.8185,2784.80469 2302.62319,2784.41406 C2306.41227,2776.91403 2311.70518,2766.21101 2318.50209,2752.30469 C2319.86929,2749.53124 2320.74818,2747.79297 2321.13881,2747.08984 C2321.33413,2746.85547 2321.74428,2746.13282 2322.36928,2744.92188 C2325.22086,2739.17966 2327.27162,2736.30859 2328.52162,2736.30859 Z M2335.02553,2742.75391 C2335.96304,2741.69921 2336.47084,2740.91797 2336.54897,2740.41016 C2336.58803,2740.37109 2336.62709,2740.25391 2336.66616,2740.05859 L2336.54897,2739.88281 C2335.65053,2740.89844 2335.18178,2741.66015 2335.14272,2742.16797 C2335.14272,2742.16797 2335.10366,2742.36328 2335.02553,2742.75391 Z M2332.03725,2747.96875 C2332.89663,2747.1875 2333.48256,2746.46485 2333.79506,2745.80078 C2334.22475,2745.05859 2334.55678,2744.23829 2334.79116,2743.33984 L2334.79116,2743.04688 C2333.93178,2743.90625 2333.36538,2744.60937 2333.09194,2745.15625 C2332.54506,2746.13282 2332.21303,2747.01171 2332.09584,2747.79297 C2332.05678,2747.79297 2332.03725,2747.85156 2332.03725,2747.96875 Z M2300.57241,2748.26172 C2301.66616,2747.01171 2302.21303,2746.11328 2302.21303,2745.56641 C2302.21303,2745.52734 2302.1935,2745.46875 2302.15444,2745.39062 L2302.09584,2745.39062 C2301.31459,2746.25 2300.86537,2746.95312 2300.74819,2747.5 C2300.70912,2747.65625 2300.65053,2747.91015 2300.57241,2748.26172 Z M2297.58412,2753.47656 C2298.40444,2752.73437 2298.93178,2752.12891 2299.16616,2751.66016 C2299.59585,2750.95703 2299.9474,2750.11719 2300.22084,2749.14062 C2300.25991,2749.0625 2300.3185,2748.86719 2300.39662,2748.55469 C2299.57631,2749.29688 2299.00991,2749.96093 2298.69741,2750.54688 C2298.11147,2751.56251 2297.74037,2752.53906 2297.58412,2753.47656 Z M2329.51772,2752.65625 C2330.29897,2751.875 2330.68959,2751.01563 2330.68959,2750.07812 C2330.22084,2750.54688 2329.86928,2751.21093 2329.63491,2752.07031 C2329.55678,2752.34375 2329.51772,2752.53906 2329.51772,2752.65625 Z M2326.64662,2757.8125 C2327.58413,2756.83593 2328.22865,2755.62501 2328.58022,2754.17969 C2327.79896,2755 2327.29116,2755.78125 2327.05678,2756.52344 C2326.78334,2757.1875 2326.64662,2757.61719 2326.64662,2757.8125 Z M2295.76772,2756.23047 L2295.76772,2757.34375 C2296.11928,2756.71875 2296.29506,2756.13282 2296.29506,2755.58594 L2296.23647,2755.58594 C2295.92397,2755.9375 2295.76772,2756.15234 2295.76772,2756.23047 Z M2293.48256,2760.44922 C2292.77943,2761.42579 2292.36928,2762.36328 2292.25209,2763.26172 C2292.91616,2762.48046 2293.32631,2761.85547 2293.48256,2761.38672 L2293.48256,2760.44922 Z M2293.42397,2764.19922 C2293.03334,2765.01954 2292.44741,2766.15234 2291.66616,2767.59766 C2291.78334,2769.16016 2292.11537,2773.65231 2292.66225,2781.07422 C2292.70131,2787.4805 2292.77944,2791.21093 2292.89662,2792.26562 C2293.01381,2793.98438 2293.17006,2795 2293.36537,2795.3125 L2294.00991,2796.89453 C2294.00991,2796.69922 2294.02944,2796.50391 2294.0685,2796.30859 C2294.0685,2796.15234 2293.93178,2795.00001 2293.65834,2792.85156 C2293.34584,2789.14061 2293.18959,2784.31644 2293.18959,2778.37891 C2293.18959,2774.74608 2293.28725,2770.01956 2293.48256,2764.19922 L2293.42397,2764.19922 Z M2315.631,2782.71484 C2315.631,2782.87109 2315.68959,2782.94922 2315.80678,2782.94922 C2315.92397,2782.91016 2315.98256,2782.83203 2315.98256,2782.71484 C2315.98256,2782.55859 2315.92397,2782.48047 2315.80678,2782.48047 L2315.74819,2782.48047 C2315.70912,2782.48047 2315.67006,2782.55859 2315.631,2782.71484 Z M2271.86147,2803.92578 L2271.86147,2803.98438 C2271.86147,2804.375 2272.03725,2804.57031 2272.38881,2804.57031 L2272.56459,2804.57031 C2272.95522,2804.57031 2273.30678,2803.92579 2273.61928,2802.63672 C2274.55679,2800.13671 2275.59193,2797.91017 2276.72475,2795.95703 C2277.23256,2795.13671 2278.97083,2792.01175 2281.93959,2786.58203 C2280.49427,2788.26173 2279.16616,2790.03905 2277.95522,2791.91406 C2275.61146,2795.62502 2273.69741,2799.17967 2272.21303,2802.57812 C2271.97865,2803.32032 2271.86147,2803.76953 2271.86147,2803.92578 Z M2381.87409,2739.35547 C2384.84286,2739.35547 2386.79596,2739.58984 2387.73347,2740.05859 C2390.07723,2740.95704 2391.67878,2742.22655 2392.53816,2743.86719 C2392.77253,2744.25781 2392.88972,2744.66797 2392.88972,2745.09766 L2392.88972,2745.21484 C2392.88972,2746.15235 2392.53816,2747.16796 2391.83503,2748.26172 C2390.42877,2748.76953 2389.02254,2749.02344 2387.61628,2749.02344 C2380.70218,2750.31251 2374.78427,2751.58203 2369.86237,2752.83203 C2369.12018,2753.06641 2367.79207,2753.33984 2365.878,2753.65234 C2364.70612,2753.76953 2363.78816,2753.82812 2363.12409,2753.82812 L2363.65144,2754.29688 C2363.65144,2754.33594 2362.98738,2754.43359 2361.65925,2754.58984 C2358.29986,2754.82422 2355.9366,2755.09765 2354.56941,2755.41016 C2354.53034,2755.44922 2354.12019,2755.54687 2353.33894,2755.70312 L2353.33894,2755.76172 C2357.75302,2757.36329 2362.71391,2759.02343 2368.22175,2760.74219 L2371.85456,2761.97266 C2373.10457,2762.20703 2374.02253,2762.48047 2374.60847,2762.79297 C2374.84284,2762.87109 2374.99909,2762.98828 2375.07722,2763.14453 C2375.23347,2763.37891 2375.31159,2763.92578 2375.31159,2764.78516 C2375.85847,2766.46485 2376.13191,2767.57812 2376.13191,2768.125 L2376.13191,2768.94531 C2376.13191,2769.29688 2376.05378,2769.47266 2375.89753,2769.47266 C2374.68659,2770.21485 2372.88973,2771.01562 2370.50691,2771.875 C2368.9444,2772.34375 2367.88972,2772.57812 2367.34284,2772.57812 C2360.07718,2773.67188 2353.94443,2774.92187 2348.94441,2776.32812 C2347.30377,2776.79688 2345.78035,2777.24609 2344.37409,2777.67578 C2344.37409,2777.71484 2344.64753,2777.94922 2345.19441,2778.37891 C2344.37409,2778.96485 2343.6905,2779.53125 2343.14362,2780.07812 C2343.02644,2780.19531 2342.67488,2780.85937 2342.08894,2782.07031 C2341.42487,2783.04688 2340.93659,2784.21874 2340.62409,2785.58594 L2340.09675,2787.16797 C2339.9405,2788.06641 2339.80378,2789.23827 2339.68659,2790.68359 C2339.64753,2790.87891 2339.58894,2790.97656 2339.51081,2790.97656 C2339.19831,2790.97656 2338.98347,2791.38671 2338.86628,2792.20703 C2338.3194,2794.23829 2338.04597,2795.60547 2338.04597,2796.30859 C2337.61628,2798.84767 2337.40144,2800.44922 2337.40144,2801.11328 L2337.40144,2801.23047 C2337.40144,2802.32422 2337.63581,2803.16406 2338.10456,2803.75 C2338.378,2804.21875 2338.78815,2804.70703 2339.33503,2805.21484 L2338.92487,2803.04688 C2338.88581,2802.77344 2338.86628,2802.40235 2338.86628,2801.93359 L2338.86628,2801.64062 C2338.86628,2801.32812 2338.90534,2800.74219 2338.98347,2799.88281 C2338.98347,2799.57031 2338.88581,2799.08203 2338.6905,2798.41797 C2338.6905,2798.22266 2338.88581,2797.83203 2339.27644,2797.24609 C2339.74519,2796.34765 2339.97956,2795.52735 2339.97956,2794.78516 L2339.97956,2794.49219 L2339.86237,2792.91016 C2339.86237,2790.48827 2340.62409,2787.48049 2342.14753,2783.88672 C2342.8116,2782.4414 2343.65143,2781.21094 2344.66706,2780.19531 C2344.78425,2780.11719 2344.92097,2779.78516 2345.07722,2779.19922 C2345.19441,2778.96484 2345.38972,2778.84766 2345.66316,2778.84766 C2346.36628,2778.92578 2346.71784,2779.23828 2346.71784,2779.78516 C2346.71784,2780.01953 2346.32722,2780.93749 2345.54597,2782.53906 C2344.33502,2785.00001 2343.29988,2787.40233 2342.4405,2789.74609 C2341.26862,2793.02736 2340.68269,2796.11327 2340.68269,2799.00391 C2340.68269,2801.26954 2341.05378,2803.6328 2341.79597,2806.09375 L2341.85456,2806.09375 C2343.4952,2806.05469 2348.35843,2804.27736 2356.44441,2800.76172 C2360.70224,2798.84765 2363.74908,2797.32422 2365.58503,2796.19141 C2366.2491,2795.68359 2367.12799,2795.17578 2368.22175,2794.66797 C2370.09676,2793.88671 2371.62018,2793.49609 2372.79206,2793.49609 L2373.02644,2793.49609 C2373.6905,2793.49609 2374.15925,2793.65234 2374.43269,2793.96484 C2374.51081,2794.12109 2374.54987,2794.29687 2374.54987,2794.49219 C2374.39362,2795.66407 2374.3155,2796.32812 2374.3155,2796.48438 L2374.3155,2796.71875 C2374.3155,2796.79688 2374.35456,2796.97265 2374.43269,2797.24609 C2373.10456,2797.8711 2371.75691,2798.73046 2370.38972,2799.82422 C2370.11628,2800.13672 2369.97956,2800.3125 2369.97956,2800.35156 C2370.253,2800.35156 2370.8194,2800.15625 2371.67878,2799.76562 L2373.43659,2798.47656 C2373.63191,2798.32031 2373.86628,2798.18359 2374.13972,2798.06641 L2374.13972,2798.125 C2374.10066,2798.20313 2374.08112,2798.33984 2374.08112,2798.53516 C2374.19831,2799.51172 2374.25691,2800.05859 2374.25691,2800.17578 C2374.13972,2800.91797 2373.10457,2802.0703 2371.15144,2803.63281 C2368.96393,2805.27345 2366.60067,2806.69921 2364.06159,2807.91016 C2361.95221,2809.00391 2359.54989,2810.05859 2356.85456,2811.07422 L2356.85456,2810.54688 C2356.1905,2810.89844 2355.40925,2811.19141 2354.51081,2811.42578 C2353.80768,2811.62109 2352.77254,2811.75781 2351.40534,2811.83594 C2350.31159,2812.10938 2349.47175,2812.38281 2348.88581,2812.65625 C2348.378,2813.04688 2347.63582,2813.35937 2346.65925,2813.59375 C2343.65142,2814.02344 2341.21004,2814.53125 2339.33503,2815.11719 C2339.33503,2815.15625 2339.25691,2815.17578 2339.10066,2815.17578 C2337.18658,2815.17578 2335.66316,2814.64844 2334.53034,2813.59375 C2331.0147,2810.85936 2329.25691,2806.64065 2329.25691,2800.9375 C2329.25691,2795.74216 2330.7022,2789.4141 2333.59284,2781.95312 L2333.47566,2781.95312 C2332.73346,2781.95312 2332.08894,2781.28907 2331.54206,2779.96094 C2331.26862,2779.45312 2330.95613,2778.51563 2330.60456,2777.14844 L2330.42878,2776.32812 C2330.46784,2775.46875 2330.54597,2774.60938 2330.66316,2773.75 L2330.66316,2773.69141 C2330.66316,2773.61328 2330.68269,2773.57422 2330.72175,2773.57422 L2330.66316,2773.45703 L2330.66316,2773.33984 C2330.66316,2772.94922 2330.78034,2772.30469 2331.01472,2771.40625 C2331.05378,2770.82031 2331.1905,2770.52734 2331.42487,2770.52734 C2332.32332,2770.17578 2333.82721,2769.7461 2335.93659,2769.23828 C2336.91316,2768.96484 2337.40144,2768.76953 2337.40144,2768.65234 L2337.40144,2768.53516 C2337.40144,2768.41797 2337.16706,2768.35938 2336.69831,2768.35938 L2336.52253,2768.35938 C2336.17097,2768.35938 2335.3116,2768.57422 2333.94441,2769.00391 C2332.73346,2769.31641 2332.01081,2769.47266 2331.77644,2769.47266 C2331.69831,2769.12109 2331.65925,2768.84766 2331.65925,2768.65234 C2331.77644,2768.18359 2331.87409,2767.94922 2331.95222,2767.94922 L2332.24519,2767.36328 C2337.63584,2766.07421 2345.25295,2764.53126 2355.09675,2762.73438 C2358.1827,2762.14843 2360.79986,2761.71875 2362.94831,2761.44531 L2362.94831,2761.38672 C2359.86236,2760.52734 2355.40928,2759.4336 2349.58894,2758.10547 C2347.71393,2757.59765 2345.97566,2757.12891 2344.37409,2756.69922 C2343.9444,2756.73828 2343.57331,2756.75781 2343.26081,2756.75781 L2342.79206,2756.75781 C2340.56549,2756.75781 2338.82722,2755.85938 2337.57722,2754.0625 C2336.83503,2752.85156 2336.40534,2751.56251 2336.28816,2750.19531 C2336.28816,2749.88281 2336.01472,2748.8672 2335.46784,2747.14844 C2335.42878,2746.99219 2335.38972,2746.73828 2335.35066,2746.38672 C2335.35066,2745.76172 2335.70221,2745.3125 2336.40534,2745.03906 C2337.8116,2744.41406 2340.83891,2743.67188 2345.48737,2742.8125 C2350.21396,2741.91406 2357.32326,2741.01563 2366.8155,2740.11719 C2372.98741,2739.60937 2378.00689,2739.35547 2381.87409,2739.35547 Z M2354.45222,2743.75 L2354.45222,2743.80859 C2354.45222,2744.08203 2354.78425,2744.21875 2355.44831,2744.21875 L2355.5655,2744.21875 C2357.75301,2744.02344 2360.33111,2743.78906 2363.29987,2743.51562 C2363.92488,2743.35937 2364.54987,2743.28125 2365.17487,2743.28125 C2365.33113,2743.28125 2365.79987,2743.32031 2366.58112,2743.39844 C2366.73738,2743.35937 2366.8155,2743.28125 2366.8155,2743.16406 C2366.8155,2742.69531 2366.2491,2742.46094 2365.11628,2742.46094 L2364.23737,2742.46094 C2361.26861,2742.46094 2358.22177,2742.73437 2355.09675,2743.28125 C2354.66706,2743.39844 2354.45222,2743.55469 2354.45222,2743.75 Z M2339.45222,2746.62109 C2339.60847,2747.05078 2339.97956,2747.28516 2340.5655,2747.32422 C2341.58113,2747.32422 2342.61628,2747.08985 2343.67097,2746.62109 C2344.64754,2746.23047 2346.28814,2745.82031 2348.59284,2745.39062 C2350.54598,2745.03906 2351.85456,2744.72656 2352.51862,2744.45312 L2352.51862,2744.16016 C2352.40144,2743.96484 2351.99128,2743.86719 2351.28816,2743.86719 L2350.93659,2743.86719 C2350.66315,2743.86719 2349.70613,2744.0625 2348.0655,2744.45312 C2346.58112,2744.76563 2344.6866,2745.01953 2342.38191,2745.21484 C2341.52253,2745.25391 2340.60457,2745.54687 2339.628,2746.09375 C2339.51081,2746.28906 2339.45222,2746.46484 2339.45222,2746.62109 Z M2347.47956,2765.78125 C2347.36237,2765.85938 2347.30378,2765.97656 2347.30378,2766.13281 C2347.34284,2766.21094 2347.42097,2766.25 2347.53816,2766.25 L2347.59675,2766.25 C2347.71394,2766.25 2347.77253,2766.19141 2347.77253,2766.07422 L2347.77253,2766.01562 C2347.77253,2765.85937 2347.67488,2765.78125 2347.47956,2765.78125 Z M2345.31159,2766.60156 L2345.31159,2766.66016 C2345.31159,2766.81641 2345.38972,2766.89453 2345.54597,2766.89453 C2345.70222,2766.89453 2345.81941,2766.81641 2345.89753,2766.66016 C2345.85847,2766.46484 2345.78034,2766.36719 2345.66316,2766.36719 L2345.54597,2766.36719 C2345.38972,2766.36719 2345.31159,2766.44531 2345.31159,2766.60156 Z M2343.20222,2767.24609 C2343.20222,2767.36328 2343.24128,2767.44141 2343.31941,2767.48047 L2343.43659,2767.48047 C2343.67097,2767.48047 2343.78816,2767.34375 2343.78816,2767.07031 L2343.78816,2767.01172 C2343.74909,2766.89453 2343.67097,2766.83594 2343.55378,2766.83594 C2343.3194,2766.83594 2343.20222,2766.97265 2343.20222,2767.24609 Z M2339.45222,2768.53516 C2339.45222,2768.65234 2339.5694,2768.75 2339.80378,2768.82812 L2339.86237,2768.82812 C2340.33113,2768.82812 2340.91706,2768.57422 2341.62019,2768.06641 C2341.85456,2767.83203 2341.97175,2767.61719 2341.97175,2767.42188 C2341.85456,2767.1875 2341.73738,2767.07031 2341.62019,2767.07031 C2340.68268,2767.34375 2339.96003,2767.79297 2339.45222,2768.41797 L2339.45222,2768.53516 Z M2348.53425,2777.20703 C2348.57331,2777.20703 2348.65144,2777.24609 2348.76862,2777.32422 C2348.76862,2777.83203 2348.4366,2778.24219 2347.77253,2778.55469 C2347.57722,2778.59375 2347.38191,2778.61328 2347.18659,2778.61328 L2347.128,2778.61328 C2346.89362,2778.61328 2346.77644,2778.51563 2346.77644,2778.32031 L2346.77644,2778.20312 C2346.77644,2777.8125 2347.26471,2777.48047 2348.24128,2777.20703 L2348.53425,2777.20703 Z M2368.33894,2801.23047 C2368.84675,2801.19141 2369.29597,2800.97656 2369.68659,2800.58594 L2369.68659,2800.52734 C2369.21784,2800.52734 2368.76863,2800.76172 2368.33894,2801.23047 Z M2364.70612,2802.75391 L2364.70612,2802.8125 L2365.17487,2802.8125 C2366.07332,2802.8125 2366.83503,2802.40235 2367.46003,2801.58203 L2367.22566,2801.52344 C2366.17096,2801.52344 2365.33113,2801.93359 2364.70612,2802.75391 Z M2363.94441,2803.28125 L2364.003,2803.28125 C2364.35456,2803.16406 2364.53034,2803.04688 2364.53034,2802.92969 L2364.47175,2802.92969 C2364.27644,2802.92969 2364.10066,2803.04687 2363.94441,2803.28125 Z M2426.55469,2740.41016 C2427.53125,2741.03516 2428.60546,2741.91406 2429.77734,2743.04688 C2431.06641,2744.33594 2431.96484,2745.44921 2432.47266,2746.38672 C2433.09766,2747.36329 2433.58594,2748.41796 2433.9375,2749.55078 C2434.13281,2750.0586 2434.23047,2750.37109 2434.23047,2750.48828 C2433.99609,2750.64453 2433.87891,2750.80078 2433.87891,2750.95703 C2433.99609,2751.3086 2434.05469,2751.60156 2434.05469,2751.83594 C2434.05469,2752.1875 2433.87891,2752.94921 2433.52734,2754.12109 C2433.2539,2754.70703 2433.11719,2755.23437 2433.11719,2755.70312 C2433.11719,2756.01563 2433.29297,2756.60156 2433.64453,2757.46094 C2433.68359,2757.65625 2433.70312,2757.8125 2433.70312,2757.92969 C2433.70312,2758.24219 2433.39063,2759.06249 2432.76562,2760.39062 C2432.10156,2762.10938 2431.63281,2763.20312 2431.35938,2763.67188 C2431.24219,2763.94531 2431.00781,2764.14062 2430.65625,2764.25781 C2430.30469,2764.57031 2429.97266,2765.03906 2429.66016,2765.66406 C2428.48828,2767.26563 2427.53125,2768.88671 2426.78906,2770.52734 C2426.47656,2771.19141 2425.38282,2772.57811 2423.50781,2774.6875 L2423.56641,2774.6875 C2424.58204,2773.78906 2425.67578,2772.83204 2426.84766,2771.81641 L2426.90625,2771.81641 C2424.95312,2774.43361 2422.31642,2777.55858 2418.99609,2781.19141 C2416.14452,2784.19923 2413.72267,2786.60155 2411.73047,2788.39844 L2409.15234,2790.74219 C2412.47267,2792.50001 2416.67185,2794.53124 2421.75,2796.83594 C2425.61721,2798.63282 2428.31249,2800.05859 2429.83594,2801.11328 C2430.10938,2801.34766 2430.51953,2801.75781 2431.06641,2802.34375 C2431.84766,2802.92969 2432.375,2803.65234 2432.64844,2804.51172 L2432.70703,2804.98047 C2432.70703,2806.50391 2431.18361,2807.59765 2428.13672,2808.26172 C2427.04296,2807.83203 2425.94922,2807.32422 2424.85547,2806.73828 L2421.39844,2804.80469 C2420.14843,2804.0625 2418.76173,2803.12501 2417.23828,2801.99219 C2417.08203,2801.83594 2416.55469,2801.64063 2415.65625,2801.40625 C2414.71875,2801.01562 2413.01954,2800.21485 2410.55859,2799.00391 C2409.8164,2798.65234 2409.40625,2798.47656 2409.32812,2798.47656 L2409.26953,2798.47656 C2409.23047,2798.47656 2409.15234,2798.51562 2409.03516,2798.59375 C2409.11328,2798.90625 2409.25,2799.12109 2409.44531,2799.23828 C2411.32032,2800.29297 2413.33202,2801.52343 2415.48047,2802.92969 C2417.1211,2803.94532 2418.97655,2804.86328 2421.04688,2805.68359 C2422.45313,2806.34766 2423.80077,2807.07031 2425.08984,2807.85156 C2425.5586,2808.16406 2425.98828,2808.45703 2426.37891,2808.73047 L2425.61719,2809.02344 C2424.99218,2809.29688 2424.58203,2809.6875 2424.38672,2810.19531 C2424.26953,2810.35156 2424.15234,2810.42969 2424.03516,2810.42969 L2423.85938,2810.42969 C2423.46875,2810.42969 2422.29688,2809.84376 2420.34375,2808.67188 C2417.96093,2807.26562 2415.20705,2805.9961 2412.08203,2804.86328 C2410.05077,2804.16015 2407.60939,2803.47657 2404.75781,2802.8125 C2399.91404,2801.40624 2395.87111,2800.29297 2392.62891,2799.47266 L2392.57031,2799.47266 C2392.21875,2799.66797 2391.8086,2799.96094 2391.33984,2800.35156 C2391.26172,2800.35156 2391.125,2800.74218 2390.92969,2801.52344 C2389.67968,2805.70315 2389.05469,2808.26171 2389.05469,2809.19922 L2389.05469,2809.25781 C2389.05469,2809.60938 2389.25,2810.74218 2389.64062,2812.65625 C2389.79688,2813.63282 2389.875,2814.39453 2389.875,2814.94141 C2389.875,2815.9961 2389.60157,2816.77734 2389.05469,2817.28516 C2388.85937,2817.63672 2388.52735,2817.8125 2388.05859,2817.8125 L2387.82422,2817.8125 C2386.73046,2817.8125 2385.42188,2817.51953 2383.89844,2816.93359 C2383.03906,2816.54297 2382.25782,2816.07422 2381.55469,2815.52734 C2379.28905,2813.6914 2378.15625,2811.25002 2378.15625,2808.20312 C2378.15625,2806.21093 2378.54687,2803.00783 2379.32812,2798.59375 C2380.42188,2792.92966 2381.86718,2786.8555 2383.66406,2780.37109 C2384.71876,2776.58201 2386.67186,2770.05864 2389.52344,2760.80078 C2390.73438,2756.50388 2391.78906,2752.38283 2392.6875,2748.4375 C2392.6875,2748.39844 2392.70703,2748.28125 2392.74609,2748.08594 L2392.6875,2748.08594 C2391.39843,2748.51563 2390.32422,2748.73047 2389.46484,2748.73047 C2387.51171,2748.73047 2386.24219,2747.69532 2385.65625,2745.625 C2385.65625,2745.46875 2385.32422,2744.84376 2384.66016,2743.75 C2384.50391,2743.35937 2384.42578,2743.04688 2384.42578,2742.8125 L2384.42578,2742.69531 C2384.42578,2742.5 2384.50391,2742.36328 2384.66016,2742.28516 C2387.98049,2740.2539 2390.6953,2739.02344 2392.80469,2738.59375 C2394.05469,2738.28125 2395.46093,2738.125 2397.02344,2738.125 C2398.19532,2738.00781 2398.99609,2737.87109 2399.42578,2737.71484 C2399.73828,2737.55859 2399.91406,2737.46094 2399.95312,2737.42188 C2399.52344,2737.38281 2398.97657,2737.36328 2398.3125,2737.36328 L2397.55078,2737.36328 C2396.65234,2737.36328 2395.77344,2737.5 2394.91406,2737.77344 L2391.86719,2738.35938 C2390.85156,2738.59375 2389.875,2738.92578 2388.9375,2739.35547 C2388.78125,2739.43359 2388.33203,2739.57031 2387.58984,2739.76562 C2386.92578,2740 2386.06641,2740.41015 2385.01172,2740.99609 C2385.01172,2741.03516 2384.99219,2741.05469 2384.95312,2741.05469 L2384.89453,2741.05469 L2384.83594,2740.99609 C2384.99219,2740.72265 2385.30469,2740.42969 2385.77344,2740.11719 C2386.59375,2739.57031 2387.45312,2739.0625 2388.35156,2738.59375 C2390.10938,2737.69531 2392.14061,2737.01172 2394.44531,2736.54297 C2396.63282,2736.11328 2401.16403,2735.94727 2408.03906,2736.04492 C2414.9141,2736.14258 2421.08591,2737.59764 2426.55469,2740.41016 Z M2394.62109,2744.62891 C2394.62109,2744.82422 2394.69922,2744.92188 2394.85547,2744.92188 C2394.97266,2744.92188 2395.03125,2744.84375 2395.03125,2744.6875 C2394.99219,2744.53125 2394.97266,2744.43359 2394.97266,2744.39453 L2394.67969,2744.39453 C2394.64062,2744.43359 2394.62109,2744.51172 2394.62109,2744.62891 Z M2405.16797,2747.61719 L2405.22656,2747.79297 L2405.22656,2748.20312 C2405.22656,2748.39844 2405.03125,2749.10156 2404.64062,2750.3125 C2404.52344,2750.625 2404.42578,2751.36718 2404.34766,2752.53906 C2404.15234,2753.75001 2404.01563,2754.41406 2403.9375,2754.53125 C2403.07812,2755.15625 2402.53125,2755.8789 2402.29688,2756.69922 C2402.17969,2757.2461 2401.92578,2758.00781 2401.53516,2758.98438 C2401.41797,2759.29688 2401.26172,2759.92187 2401.06641,2760.85938 C2400.01171,2764.60939 2399.48438,2766.97265 2399.48438,2767.94922 L2399.48438,2768.24219 C2399.48438,2768.51563 2399.54297,2768.65234 2399.66016,2768.65234 C2399.89453,2768.65234 2400.40234,2767.53907 2401.18359,2765.3125 C2401.61328,2764.14062 2401.96484,2763.10547 2402.23828,2762.20703 L2402.29688,2762.20703 C2399.79686,2772.08989 2397.53126,2780.35153 2395.5,2786.99219 C2397.45313,2785.66406 2399.64061,2783.98439 2402.0625,2781.95312 C2403.42969,2780.85937 2405.32421,2779.10157 2407.74609,2776.67969 C2410.51955,2773.82811 2412.41406,2771.69923 2413.42969,2770.29297 C2418.15627,2764.31638 2420.51953,2759.31643 2420.51953,2755.29297 C2420.51953,2751.15232 2415.40239,2748.59375 2405.16797,2747.61719 Z M2432.23828,2749.66797 C2432.55078,2751.42579 2432.70703,2752.32422 2432.70703,2752.36328 C2432.78516,2751.89453 2432.84375,2751.46485 2432.88281,2751.07422 C2432.88281,2750.68359 2432.70703,2750.27344 2432.35547,2749.84375 C2432.35547,2749.84375 2432.31641,2749.78516 2432.23828,2749.66797 Z M2382.08203,2794.84375 C2382.08203,2794.96094 2382.27734,2795.05859 2382.66797,2795.13672 C2382.98047,2794.78515 2383.23437,2794.33594 2383.42969,2793.78906 C2384.64063,2790.31248 2386.3203,2784.10161 2388.46875,2775.15625 C2389.91407,2770.0781 2391.3789,2764.17972 2392.86328,2757.46094 C2393.09766,2756.83593 2393.41015,2756.05469 2393.80078,2755.11719 C2394.15235,2753.98437 2394.32812,2753.20313 2394.32812,2752.77344 L2394.32812,2752.71484 C2394.28906,2752.24609 2394.11328,2752.01172 2393.80078,2752.01172 L2393.68359,2752.01172 C2393.37109,2752.01172 2393.15625,2752.32422 2393.03906,2752.94922 C2393.03906,2753.02734 2392.82422,2753.6914 2392.39453,2754.94141 L2391.63281,2758.57422 C2387.49217,2773.69148 2384.50392,2784.9609 2382.66797,2792.38281 C2382.51172,2792.89063 2382.31641,2793.71093 2382.08203,2794.84375 Z M2432.47266,2753.47656 C2432.51172,2753.59375 2432.57031,2753.65234 2432.64844,2753.65234 C2432.76563,2753.61328 2432.82422,2753.57422 2432.82422,2753.53516 L2432.82422,2753.41797 C2432.82422,2753.26172 2432.78516,2753.02735 2432.70703,2752.71484 C2432.62891,2752.71484 2432.55078,2752.92969 2432.47266,2753.35938 C2432.47266,2753.35938 2432.47266,2753.39844 2432.47266,2753.47656 Z M2416.47656,2779.375 C2416.08594,2779.53125 2415.73438,2779.72656 2415.42188,2779.96094 C2414.99219,2780.35156 2414.73828,2780.72265 2414.66016,2781.07422 C2414.77734,2781.58203 2414.95312,2781.83594 2415.1875,2781.83594 L2415.24609,2781.83594 C2415.51953,2781.83594 2415.69531,2781.75781 2415.77344,2781.60156 C2416.28125,2781.09375 2416.59375,2780.60547 2416.71094,2780.13672 C2416.82813,2779.86328 2416.94531,2779.72656 2417.0625,2779.72656 C2417.6875,2779.49219 2418.3125,2778.90625 2418.9375,2777.96875 C2418.97656,2777.96875 2419.56249,2777.26563 2420.69531,2775.85938 C2422.14063,2774.60937 2423,2773.73047 2423.27344,2773.22266 C2423.82032,2772.40234 2424.54296,2771.40626 2425.44141,2770.23438 C2425.91016,2769.49218 2426.35937,2768.67188 2426.78906,2767.77344 C2426.78906,2767.61719 2426.98437,2767.22657 2427.375,2766.60156 C2427.72656,2766.09375 2428.11719,2765.15626 2428.54688,2763.78906 C2428.97656,2762.34374 2429.48437,2761.05469 2430.07031,2759.92188 C2430.5,2758.47656 2430.71484,2757.5 2430.71484,2756.99219 L2430.65625,2756.99219 C2430.57812,2756.99219 2430.40235,2756.95313 2430.12891,2756.875 C2430.01172,2756.875 2429.93359,2757.1289 2429.89453,2757.63672 C2429.81641,2757.79297 2429.73828,2758.22265 2429.66016,2758.92578 C2428.99609,2760.48829 2427.88282,2762.83202 2426.32031,2765.95703 C2425.07031,2768.41798 2424.17188,2770.09765 2423.625,2770.99609 C2422.60937,2771.34766 2421.82813,2772.01171 2421.28125,2772.98828 C2420.92969,2773.57422 2420.20704,2774.43359 2419.11328,2775.56641 C2418.5664,2776.11328 2418.09766,2776.48437 2417.70703,2776.67969 C2416.88671,2777.42188 2416.47656,2778.32031 2416.47656,2779.375 Z M2432.17969,2756.99219 C2432.17969,2757.07031 2432.14063,2757.16797 2432.0625,2757.28516 L2432.12109,2757.28516 L2432.23828,2756.99219 L2432.17969,2756.99219 Z M2431.88672,2757.87109 C2431.73047,2758.10547 2431.53516,2758.6914 2431.30078,2759.62891 C2431.14453,2760.21485 2430.85156,2761.13281 2430.42188,2762.38281 C2430.57813,2762.38281 2430.73437,2762.1875 2430.89062,2761.79688 C2431.55469,2760.66406 2431.88672,2759.57032 2431.88672,2758.51562 L2431.88672,2757.87109 Z M2427.78516,2767.01172 C2427.78516,2767.08984 2427.80469,2767.12891 2427.84375,2767.12891 L2427.90234,2767.12891 L2427.90234,2766.95312 C2427.82422,2766.99219 2427.78516,2767.01172 2427.78516,2767.01172 Z M2382.60938,2796.48438 C2382.02343,2797.61719 2381.73047,2798.57421 2381.73047,2799.35547 L2381.67188,2800.46875 C2381.75,2800.50781 2381.78906,2800.54687 2381.78906,2800.58594 C2381.82813,2800.58594 2381.88672,2800.39063 2381.96484,2800 C2382.4336,2798.71093 2382.66797,2797.57813 2382.66797,2796.60156 L2382.66797,2796.48438 L2382.60938,2796.48438 Z M2395.5,2798.18359 C2395.07031,2798.65235 2394.73828,2798.92578 2394.50391,2799.00391 C2396.26173,2799.39453 2397.58984,2799.76562 2398.48828,2800.11719 C2398.60547,2800.11719 2399.36718,2800.41015 2400.77344,2800.99609 L2400.77344,2800.9375 C2400.77344,2800.42968 2400.53906,2800.09766 2400.07031,2799.94141 C2398.82031,2799.27734 2397.60938,2798.76953 2396.4375,2798.41797 C2396.125,2798.30078 2395.8125,2798.22266 2395.5,2798.18359 Z M2481.66497,2720.07812 L2482.71966,2720.07812 C2489.00875,2720.07812 2494.49698,2721.28905 2499.1845,2723.71094 C2499.41888,2723.86719 2499.67278,2724.08203 2499.94622,2724.35547 L2499.94622,2724.88281 C2499.94622,2725.15625 2500.20012,2725.68359 2500.70794,2726.46484 C2501.17669,2727.40235 2501.70403,2728.82812 2502.28997,2730.74219 C2502.25091,2731.01563 2501.97747,2731.40625 2501.46966,2731.91406 C2500.72747,2732.38281 2500.23919,2732.61719 2500.00481,2732.61719 L2500.00481,2732.67578 C2499.22356,2732.63672 2498.6181,2732.61719 2498.18841,2732.61719 C2496.86028,2732.61719 2495.72747,2732.7539 2494.78997,2733.02734 C2491.58683,2732.79297 2489.26263,2732.67578 2487.81731,2732.67578 C2485.51261,2732.67578 2482.83686,2733.02734 2479.78997,2733.73047 C2476.15714,2734.47266 2470.20017,2735.3125 2461.91888,2736.25 L2462.44622,2736.25 L2462.44622,2736.30859 C2462.25091,2736.30859 2462.15325,2736.34766 2462.15325,2736.42578 C2461.52825,2740.21486 2460.66888,2744.25779 2459.57513,2748.55469 C2458.71575,2752.03127 2457.71966,2755.91795 2456.58684,2760.21484 L2456.64544,2760.21484 C2466.95799,2758.3789 2473.65714,2757.14844 2476.74309,2756.52344 C2477.13372,2756.40625 2477.60247,2756.34766 2478.14934,2756.34766 C2479.59466,2756.34766 2481.72355,2756.95312 2484.53606,2758.16406 C2485.35638,2758.4375 2486.0009,2758.96484 2486.46966,2759.74609 C2486.97747,2760.6836 2487.23138,2761.71874 2487.23138,2762.85156 L2487.23138,2763.37891 C2487.23138,2764.00391 2487.09466,2764.39453 2486.82122,2764.55078 C2485.6884,2765.41016 2483.7353,2766.34765 2480.96184,2767.36328 C2480.10246,2767.67578 2479.12591,2767.91016 2478.03216,2768.06641 C2477.60247,2768.06641 2476.52826,2768.3789 2474.8095,2769.00391 C2469.92666,2769.90235 2465.06343,2770.83984 2460.21966,2771.81641 C2459.63372,2771.46484 2459.30169,2771.28906 2459.22356,2771.28906 C2459.06731,2771.28906 2458.73528,2771.54297 2458.22747,2772.05078 C2458.07122,2772.16797 2457.95403,2772.22656 2457.87591,2772.22656 L2457.23138,2771.93359 L2457.05559,2771.93359 C2456.78216,2771.93359 2456.17669,2772.1289 2455.23919,2772.51953 C2454.84856,2772.71484 2454.32122,2772.8125 2453.65716,2772.8125 C2453.26653,2772.89063 2452.66107,2773.26172 2451.84075,2773.92578 C2450.98137,2774.82422 2450.47356,2775.27344 2450.31731,2775.27344 C2449.73137,2775.97657 2449.41888,2776.32812 2449.37981,2776.32812 C2449.10637,2776.32812 2448.91106,2776.52344 2448.79388,2776.91406 C2448.79388,2777.8125 2448.24701,2780.87888 2447.15325,2786.11328 C2446.87981,2787.63673 2446.6845,2788.75 2446.56731,2789.45312 C2446.33294,2790.15625 2446.02044,2790.78125 2445.62981,2791.32812 C2445.47356,2791.52344 2445.37591,2791.75781 2445.33684,2792.03125 C2445.33684,2792.14844 2445.47356,2792.22656 2445.747,2792.26562 C2445.82513,2792.34375 2445.86419,2792.44141 2445.86419,2792.55859 C2445.08293,2796.66018 2444.36028,2799.96092 2443.69622,2802.46094 C2443.50091,2803.32032 2443.3056,2804.76561 2443.11028,2806.79688 C2442.99309,2808.35938 2442.9345,2809.25781 2442.9345,2809.49219 C2442.97356,2810.46875 2442.99309,2811.42578 2442.99309,2812.36328 L2442.99309,2812.77344 C2442.99309,2813.59375 2443.1884,2814.12109 2443.57903,2814.35547 L2443.63763,2814.35547 C2443.71575,2814.27734 2443.79388,2814.16016 2443.872,2814.00391 C2443.75481,2813.57422 2443.69622,2813.16406 2443.69622,2812.77344 C2443.69622,2812.5 2443.81341,2811.3672 2444.04778,2809.375 C2444.08684,2809.29687 2444.10638,2809.10156 2444.10638,2808.78906 C2444.10638,2808.59375 2444.08684,2807.98829 2444.04778,2806.97266 C2444.04778,2806.15234 2444.1845,2805.21485 2444.45794,2804.16016 C2444.45794,2803.80859 2444.53606,2803.41797 2444.69231,2802.98828 C2444.92669,2800.95702 2445.16106,2799.31641 2445.39544,2798.06641 C2445.86419,2796.11327 2446.39153,2794.21876 2446.97747,2792.38281 C2447.3681,2790.78124 2447.56341,2789.41407 2447.56341,2788.28125 C2447.95403,2786.40624 2448.14934,2785.25391 2448.14934,2784.82422 C2448.14934,2784.27734 2448.53997,2782.77345 2449.32122,2780.3125 C2449.39934,2780.46875 2449.47747,2780.54688 2449.55559,2780.54688 C2449.71184,2780.54688 2450.04387,2779.84376 2450.55169,2778.4375 C2450.70794,2777.96875 2450.98137,2777.73438 2451.372,2777.73438 L2451.43059,2777.73438 L2451.54778,2777.79297 C2449.63371,2783.49612 2447.83685,2791.13276 2446.15716,2800.70312 C2445.49309,2804.14064 2445.16106,2808.14451 2445.16106,2812.71484 L2445.16106,2823.67188 C2445.16106,2824.92188 2445.122,2825.54688 2445.04388,2825.54688 L2444.63372,2825.54688 C2443.89153,2825.50781 2443.50091,2825.44922 2443.46184,2825.37109 C2443.42278,2824.39453 2443.36419,2823.90625 2443.28606,2823.90625 C2443.28606,2823.98438 2443.12981,2824.39453 2442.81731,2825.13672 C2442.81731,2825.29297 2442.77825,2825.37109 2442.70013,2825.37109 C2442.50481,2825.41016 2442.28997,2825.42969 2442.05559,2825.42969 L2441.64544,2825.42969 C2440.16106,2825.42969 2439.16497,2825.01954 2438.65716,2824.19922 C2437.91497,2823.33984 2437.34856,2822.69531 2436.95794,2822.26562 C2435.82512,2821.44531 2434.96575,2819.04299 2434.37981,2815.05859 C2434.02825,2812.40233 2433.85247,2809.51173 2433.85247,2806.38672 C2433.85247,2800.09762 2434.67277,2793.30082 2436.31341,2785.99609 C2437.44622,2781.77732 2438.07122,2779.4336 2438.18841,2778.96484 C2437.83684,2778.76953 2437.48528,2778.39844 2437.13372,2777.85156 C2436.46965,2776.79687 2435.96185,2775.66407 2435.61028,2774.45312 C2434.7509,2771.17186 2434.32122,2769.10157 2434.32122,2768.24219 L2434.32122,2767.53906 C2434.36028,2766.01562 2434.45794,2765.19531 2434.61419,2765.07812 C2434.96575,2764.64844 2435.64934,2764.33594 2436.66497,2764.14062 L2440.23919,2763.78906 C2440.27825,2763.78906 2440.80559,2763.65235 2441.82122,2763.37891 L2441.82122,2764.02344 C2441.82122,2764.14063 2441.91887,2764.21875 2442.11419,2764.25781 L2442.17278,2764.25781 C2442.40716,2764.25781 2442.66106,2763.84766 2442.9345,2763.02734 C2443.36419,2761.89453 2444.14543,2759.43361 2445.27825,2755.64453 C2445.4345,2755.01953 2445.86418,2754.41407 2446.56731,2753.82812 C2446.84075,2753.59375 2446.97747,2753.32031 2446.97747,2753.00781 C2446.89934,2752.5 2446.86028,2751.97266 2446.86028,2751.42578 C2446.86028,2750.60546 2447.05559,2749.72657 2447.44622,2748.78906 C2447.52434,2748.55469 2447.56341,2748.35938 2447.56341,2748.20312 C2447.56341,2748.125 2447.54388,2748.00781 2447.50481,2747.85156 C2448.12982,2744.92186 2448.44231,2741.9922 2448.44231,2739.0625 C2447.622,2739.29688 2446.91888,2739.41406 2446.33294,2739.41406 L2446.21575,2739.41406 C2443.36417,2739.41406 2441.46966,2737.03127 2440.53216,2732.26562 C2441.35247,2731.875 2442.17278,2731.36719 2442.99309,2730.74219 C2443.26653,2730.54687 2444.08684,2730.21485 2445.45403,2729.74609 L2445.51263,2729.6875 L2445.21966,2729.6875 L2445.21966,2729.62891 C2445.29778,2729.58984 2445.33684,2729.51172 2445.33684,2729.39453 L2445.33684,2729.27734 C2445.25872,2729.16016 2445.06341,2729.10156 2444.75091,2729.10156 C2443.8134,2729.10156 2442.91497,2729.375 2442.05559,2729.92188 L2441.997,2729.98047 L2441.82122,2729.92188 C2441.54778,2729.92188 2440.82513,2730.15625 2439.65325,2730.625 C2439.61419,2730.66406 2439.55559,2730.68359 2439.47747,2730.68359 L2439.41888,2730.68359 C2439.30169,2730.29297 2439.24309,2730 2439.24309,2729.80469 C2439.24309,2726.48436 2447.42661,2723.78907 2463.79388,2721.71875 C2467.30952,2721.25 2472.05556,2720.74219 2478.03216,2720.19531 C2479.36029,2720.11719 2480.57121,2720.07812 2481.66497,2720.07812 Z M2483.30559,2721.89453 L2479.84856,2721.77734 C2479.45794,2721.77734 2478.3056,2721.85547 2476.39153,2722.01172 L2475.04388,2722.01172 C2474.14543,2722.01172 2473.07123,2722.22656 2471.82122,2722.65625 C2471.74309,2722.69531 2471.62591,2722.71484 2471.46966,2722.71484 L2470.70794,2722.71484 C2468.20793,2722.71484 2465.72748,2723.02734 2463.26653,2723.65234 C2463.03216,2723.80859 2462.89544,2723.96484 2462.85638,2724.12109 C2462.89544,2724.39453 2463.05169,2724.53125 2463.32513,2724.53125 C2465.94233,2724.29687 2468.14934,2724.02344 2469.94622,2723.71094 C2471.58685,2723.39844 2475.37588,2723.08594 2481.31341,2722.77344 C2481.54778,2722.77344 2481.87981,2722.75391 2482.3095,2722.71484 C2482.9345,2722.71484 2485.04386,2722.85156 2488.63763,2723.125 L2492.38763,2723.30078 C2491.95794,2722.67578 2491.23529,2722.36328 2490.21966,2722.36328 C2487.17277,2721.93359 2485.33685,2721.71875 2484.71184,2721.71875 L2484.59466,2721.71875 C2483.96965,2721.71875 2483.53997,2721.77734 2483.30559,2721.89453 Z M2452.60247,2726.46484 C2451.43059,2726.62109 2450.84466,2726.71875 2450.84466,2726.75781 C2450.88372,2726.75781 2450.90325,2726.77734 2450.90325,2726.81641 C2450.747,2726.93359 2449.88763,2727.24609 2448.32513,2727.75391 C2447.70012,2727.98828 2447.3095,2728.20312 2447.15325,2728.39844 L2447.15325,2728.51562 C2447.15325,2728.75 2447.36809,2728.86719 2447.79778,2728.86719 C2448.26653,2728.86719 2448.63762,2728.78906 2448.91106,2728.63281 L2448.38372,2728.63281 C2448.34466,2728.63281 2448.32513,2728.61328 2448.32513,2728.57422 C2448.91107,2728.26172 2450.20012,2727.8711 2452.19231,2727.40234 C2453.01263,2727.28516 2453.42278,2727.20703 2453.42278,2727.16797 C2453.50091,2727.16797 2453.53997,2727.12891 2453.53997,2727.05078 C2453.53997,2726.73828 2453.28607,2726.54297 2452.77825,2726.46484 L2452.60247,2726.46484 Z M2461.6845,2736.25 L2461.6845,2736.30859 L2461.86028,2736.30859 L2461.86028,2736.25 L2461.6845,2736.25 Z M2454.47747,2759.39453 C2454.51653,2759.62891 2454.61419,2759.74609 2454.77044,2759.74609 C2454.96575,2759.74609 2455.10247,2759.57031 2455.18059,2759.21875 C2455.64935,2758.12499 2455.88372,2757.32422 2455.88372,2756.81641 C2456.27435,2755.17577 2456.52825,2754.0625 2456.64544,2753.47656 C2456.80169,2752.07031 2456.95794,2751.23047 2457.11419,2750.95703 C2457.42669,2750.01953 2457.64153,2749.14063 2457.75872,2748.32031 C2458.03216,2747.38281 2458.46184,2745.58595 2459.04778,2742.92969 L2460.21966,2738.76953 C2460.25872,2738.57422 2460.27825,2738.35938 2460.27825,2738.125 L2460.27825,2738.06641 C2460.27825,2737.83203 2460.25872,2737.46094 2460.21966,2736.95312 C2460.14153,2737.03125 2459.88763,2737.71484 2459.45794,2739.00391 C2459.02825,2740.9961 2458.65716,2742.38281 2458.34466,2743.16406 C2457.32903,2747.30471 2456.4306,2750.74217 2455.64934,2753.47656 C2454.86809,2756.99221 2454.47747,2758.96484 2454.47747,2759.39453 Z M2466.07903,2760.09766 C2466.07903,2760.25391 2466.19622,2760.33203 2466.43059,2760.33203 C2466.54778,2760.33203 2466.60638,2760.27344 2466.60638,2760.15625 L2466.60638,2759.98047 C2466.60638,2759.86328 2466.52825,2759.80469 2466.372,2759.80469 C2466.21575,2759.80469 2466.11809,2759.90234 2466.07903,2760.09766 Z M2463.5595,2760.80078 L2463.5595,2760.85938 C2463.5595,2761.01563 2463.65716,2761.09375 2463.85247,2761.09375 C2464.04778,2761.09375 2464.20403,2761.01563 2464.32122,2760.85938 C2464.32122,2760.66406 2464.20403,2760.54688 2463.96966,2760.50781 C2463.69622,2760.50781 2463.5595,2760.60547 2463.5595,2760.80078 Z M2460.92278,2761.62109 C2460.92278,2761.77734 2461.02044,2761.85547 2461.21575,2761.85547 L2461.27434,2761.85547 C2461.58685,2761.85547 2461.74309,2761.67969 2461.74309,2761.32812 C2461.66497,2761.13281 2461.56731,2761.03516 2461.45013,2761.03516 C2461.09856,2761.03516 2460.92278,2761.23047 2460.92278,2761.62109 Z M2456.35247,2763.14453 L2456.35247,2763.20312 C2456.35247,2763.32031 2456.46966,2763.41797 2456.70403,2763.49609 L2456.76263,2763.49609 C2457.46575,2763.49609 2458.22747,2763.16407 2459.04778,2762.5 C2459.32122,2762.26562 2459.45794,2762.01172 2459.45794,2761.73828 C2459.34075,2761.50391 2459.1845,2761.38672 2458.98919,2761.38672 C2458.247,2761.54297 2457.46575,2761.97265 2456.64544,2762.67578 C2456.45012,2762.91016 2456.35247,2763.06641 2456.35247,2763.14453 Z M2443.57903,2815.23438 C2443.57903,2815.27344 2443.59856,2815.44922 2443.63763,2815.76172 L2443.69622,2815.76172 L2443.75481,2815.23438 C2443.75481,2815 2443.71575,2814.76563 2443.63763,2814.53125 C2443.59856,2814.53125 2443.57903,2814.76562 2443.57903,2815.23438 Z M2443.11028,2819.39453 L2443.11028,2819.45312 C2443.11028,2820.27344 2443.22747,2821.15234 2443.46184,2822.08984 C2443.81341,2820.99609 2443.98919,2819.92188 2443.98919,2818.86719 L2443.98919,2818.75 C2443.98919,2818.00781 2443.89153,2817.1875 2443.69622,2816.28906 C2443.57903,2816.48438 2443.44231,2816.93359 2443.28606,2817.63672 C2443.16887,2818.1836 2443.11028,2818.76953 2443.11028,2819.39453 Z M2533.78697,2742.92969 C2535.93542,2742.92969 2538.0643,2743.33984 2540.17369,2744.16016 C2540.91588,2744.35547 2541.44322,2744.6289 2541.75572,2744.98047 C2542.10728,2745.41016 2542.28306,2745.89843 2542.28306,2746.44531 C2542.32213,2746.44531 2542.34166,2746.52344 2542.34166,2746.67969 L2542.34166,2747.03125 C2542.34166,2749.1797 2540.48621,2758.43742 2536.77525,2774.80469 C2535.79868,2779.02346 2535.15416,2781.67968 2534.84166,2782.77344 C2532.61508,2790.31254 2530.77916,2797.4609 2529.33384,2804.21875 C2528.66978,2807.50002 2528.33775,2810.15624 2528.33775,2812.1875 L2528.33775,2812.42188 C2528.33775,2814.60939 2528.68931,2816.69921 2529.39244,2818.69141 C2529.4315,2818.92578 2529.45103,2819.08203 2529.45103,2819.16016 C2529.45103,2819.4336 2529.21666,2819.58984 2528.74791,2819.62891 C2528.31822,2819.66797 2527.94713,2819.6875 2527.63463,2819.6875 C2525.21274,2819.6875 2523.02526,2818.75001 2521.07213,2816.875 C2520.44712,2816.09375 2520.01744,2815.11719 2519.78306,2813.94531 C2519.19712,2811.52343 2518.90416,2808.32033 2518.90416,2804.33594 C2518.90416,2800.39061 2519.15806,2797.24611 2519.66588,2794.90234 L2521.07213,2787.28516 C2517.90805,2790.95705 2514.07996,2795.25388 2509.58775,2800.17578 C2505.52523,2804.66799 2503.31822,2807.22656 2502.96666,2807.85156 C2501.99009,2808.94532 2501.07213,2809.80468 2500.21275,2810.42969 C2496.77523,2813.12501 2494.13854,2814.47266 2492.30259,2814.47266 C2491.63853,2814.47266 2491.09166,2814.19922 2490.66197,2813.65234 C2490.58384,2813.65234 2489.07995,2812.8711 2486.15025,2811.30859 C2484.43149,2810.5664 2483.35728,2809.94141 2482.92759,2809.43359 C2482.22447,2808.76953 2481.71666,2808.16407 2481.40416,2807.61719 C2480.70103,2806.28906 2480.34947,2804.96094 2480.34947,2803.63281 C2480.34947,2802.10937 2481.59946,2795.586 2484.09947,2784.0625 C2486.75573,2772.34369 2489.11899,2763.53519 2491.18931,2757.63672 C2491.54088,2756.8164 2492.02915,2755.97657 2492.65416,2755.11719 C2493.51354,2753.98437 2494.49009,2753.24219 2495.58384,2752.89062 C2496.09166,2752.77344 2496.65806,2752.71484 2497.28306,2752.71484 C2498.33776,2752.71484 2499.23618,2753.02734 2499.97838,2753.65234 L2500.79869,2754.00391 C2500.44712,2754.51172 2500.09557,2755.27343 2499.744,2756.28906 C2499.62681,2756.75781 2499.39244,2757.65624 2499.04088,2758.98438 C2498.65025,2760.00001 2498.31822,2760.99609 2498.04478,2761.97266 C2497.84947,2763.02735 2497.59556,2764.72655 2497.28306,2767.07031 C2497.04869,2768.28126 2496.75572,2769.45312 2496.40416,2770.58594 C2496.05259,2771.60157 2495.87681,2772.20703 2495.87681,2772.40234 L2495.87681,2772.46094 C2495.87681,2772.69531 2495.89634,2773.08593 2495.93541,2773.63281 C2496.6776,2773.32031 2497.43931,2772.05079 2498.22056,2769.82422 C2498.68932,2768.53515 2499.17759,2766.58204 2499.68541,2763.96484 C2500.03697,2761.8164 2500.46665,2758.55471 2500.97447,2754.17969 L2501.03306,2754.0625 C2501.46275,2754.0625 2501.85337,2754.375 2502.20494,2755 C2502.5565,2755.78125 2502.73228,2756.97265 2502.73228,2758.57422 C2502.73228,2761.69923 2502.22447,2765.11717 2501.20884,2768.82812 C2498.74789,2777.9688 2496.93151,2784.80466 2495.75963,2789.33594 C2494.07993,2796.25003 2493.24009,2800.60546 2493.24009,2802.40234 C2494.13854,2802.20703 2495.32993,2801.66016 2496.81431,2800.76172 C2497.28307,2800.41015 2498.06431,2799.68751 2499.15806,2798.59375 L2500.6815,2796.83594 C2502.20495,2794.8828 2503.70884,2792.79298 2505.19322,2790.56641 C2508.3573,2785.91795 2511.89242,2780.27347 2515.79869,2773.63281 C2519.19714,2767.85153 2521.40415,2764.16016 2522.41978,2762.55859 C2523.20104,2761.62109 2524.82211,2758.02738 2527.28306,2751.77734 C2529.15807,2747.12888 2530.58384,2744.31641 2531.56041,2743.33984 C2531.79478,2743.0664 2532.244,2742.92969 2532.90806,2742.92969 L2533.78697,2742.92969 Z M2543.39634,2745.68359 C2543.74791,2746.11328 2543.92369,2746.60156 2543.92369,2747.14844 C2543.92369,2747.53906 2543.72838,2748.41796 2543.33775,2749.78516 C2542.43931,2754.78518 2541.20885,2760.82028 2539.64634,2767.89062 C2539.56822,2768.16406 2539.52916,2768.33984 2539.52916,2768.41797 L2539.47056,2768.41797 L2539.47056,2767.24609 C2539.47056,2765.48827 2539.744,2763.45704 2540.29088,2761.15234 C2540.64244,2759.39452 2541.07212,2757.65626 2541.57994,2755.9375 L2542.45884,2753.24219 C2542.45884,2751.67968 2542.61509,2750.21485 2542.92759,2748.84766 C2543.16197,2747.4414 2543.31822,2746.38672 2543.39634,2745.68359 Z M2532.61509,2779.25781 L2532.61509,2780.01953 C2532.65416,2780.80079 2532.84947,2781.19141 2533.20103,2781.19141 L2533.31822,2781.19141 C2533.59166,2780.99609 2533.72838,2780.29297 2533.72838,2779.08203 L2533.72838,2778.37891 C2533.72838,2777.4414 2534.04087,2776.17188 2534.66588,2774.57031 C2534.78306,2774.21875 2534.91978,2773.32032 2535.07603,2771.875 C2535.34947,2770.42968 2535.70103,2768.94532 2536.13072,2767.42188 C2536.44322,2766.52343 2536.71666,2765.52735 2536.95103,2764.43359 C2537.14635,2763.6914 2537.38072,2763.04688 2537.65416,2762.5 L2537.65416,2762.32422 C2537.65416,2761.38671 2537.869,2760.01954 2538.29869,2758.22266 L2539.23619,2755.23438 C2539.62682,2754.10156 2540.0565,2752.98829 2540.52525,2751.89453 L2540.70103,2750.42969 L2541.52134,2747.03125 C2540.89634,2747.77344 2540.58384,2748.26172 2540.58384,2748.49609 C2539.76353,2750.56642 2539.1776,2752.3828 2538.82603,2753.94531 C2538.82603,2754.49219 2538.35729,2756.19139 2537.41978,2759.04297 C2536.79478,2760.60548 2536.15025,2762.73436 2535.48619,2765.42969 C2535.17369,2766.91407 2534.58776,2769.39451 2533.72838,2772.87109 C2533.33775,2774.51173 2533.06431,2776.01562 2532.90806,2777.38281 L2532.61509,2779.25781 Z M2539.06041,2770.17578 L2539.119,2770.17578 C2538.8065,2771.42579 2538.65025,2772.08984 2538.65025,2772.16797 L2538.59166,2772.16797 C2538.70885,2771.62109 2538.86509,2770.95704 2539.06041,2770.17578 Z M2503.20103,2804.16016 L2503.25963,2804.16016 C2505.05651,2802.63671 2506.54087,2801.36719 2507.71275,2800.35156 C2509.62682,2798.47655 2510.75962,2797.26563 2511.11119,2796.71875 C2514.62683,2792.5781 2516.59947,2790.09766 2517.02916,2789.27734 C2518.20104,2787.51952 2519.23618,2785.60548 2520.13463,2783.53516 C2519.86119,2783.88672 2518.27917,2786.09373 2515.38853,2790.15625 C2514.21665,2791.83595 2512.14636,2794.33592 2509.17759,2797.65625 C2508.47447,2798.4375 2507.49791,2799.47265 2506.24791,2800.76172 C2504.6854,2802.36329 2503.66978,2803.49609 2503.20103,2804.16016 Z M2502.61509,2804.92188 C2502.14634,2805.3125 2501.91197,2805.58594 2501.91197,2805.74219 L2501.91197,2805.80078 C2501.95103,2806.03516 2502.04869,2806.15234 2502.20494,2806.15234 C2502.36119,2806.15234 2502.51744,2805.80078 2502.67369,2805.09766 L2502.67369,2804.98047 C2502.67369,2804.94141 2502.65416,2804.92188 2502.61509,2804.92188 Z M2558.48709,2726.81641 C2563.33087,2726.81641 2565.75272,2730.64449 2565.75272,2738.30078 C2565.75272,2745.37113 2563.58477,2756.44524 2559.24881,2771.52344 C2556.47536,2781.05474 2554.56132,2787.8906 2553.50663,2792.03125 C2553.19412,2793.32032 2552.92069,2794.57031 2552.68631,2795.78125 L2552.74491,2795.78125 C2555.24492,2794.68749 2558.46754,2793.67188 2562.41288,2792.73438 C2564.13163,2792.34375 2566.51442,2791.91406 2569.56131,2791.44531 C2572.64727,2790.82031 2577.58862,2789.76563 2584.38553,2788.28125 C2587.19805,2787.73437 2589.28787,2787.46094 2590.65506,2787.46094 C2591.04569,2787.46094 2591.4949,2787.51953 2592.00272,2787.63672 L2592.23709,2787.63672 C2593.87773,2787.67578 2594.93241,2788.18359 2595.40116,2789.16016 C2595.47928,2789.39453 2595.51834,2789.64844 2595.51834,2789.92188 C2595.51834,2790.89844 2594.85429,2792.07031 2593.52616,2793.4375 C2592.1199,2794.92188 2591.37772,2795.85937 2591.29959,2796.25 C2591.26053,2796.36719 2591.22147,2796.42578 2591.18241,2796.42578 L2589.42459,2796.42578 C2587.35427,2796.42578 2585.51835,2796.91406 2583.91678,2797.89062 C2584.77616,2798.04688 2585.5574,2798.125 2586.26053,2798.125 L2586.90506,2798.125 C2588.03788,2798.125 2589.36599,2798.00781 2590.88944,2797.77344 L2590.94803,2797.77344 C2590.94803,2798.47657 2587.60822,2799.49218 2580.9285,2800.82031 C2571.12376,2802.85157 2563.83868,2804.76562 2559.07303,2806.5625 C2556.37771,2807.65626 2553.97539,2808.57422 2551.866,2809.31641 C2551.94413,2809.7461 2551.98319,2810.15625 2551.98319,2810.54688 C2551.98319,2812.10938 2551.45585,2813.32031 2550.40116,2814.17969 C2549.97147,2814.45313 2549.54178,2814.58984 2549.11209,2814.58984 C2548.60428,2814.58984 2547.90116,2814.23828 2547.00272,2813.53516 C2546.53397,2813.22265 2545.86991,2812.69532 2545.01053,2811.95312 C2542.54958,2812.34375 2540.20586,2813.3789 2537.97928,2815.05859 C2536.72928,2816.23047 2535.96757,2817.05078 2535.69413,2817.51953 C2535.06912,2818.33985 2534.56132,2819.14062 2534.17069,2819.92188 C2533.93631,2820.42969 2533.76053,2820.70312 2533.64334,2820.74219 L2533.58475,2820.74219 C2533.27225,2820.66406 2533.03788,2818.57424 2532.88163,2814.47266 L2532.88163,2813.35938 C2532.88163,2810.8203 2533.116,2809.27735 2533.58475,2808.73047 C2533.81913,2808.10547 2534.28787,2807.40235 2534.991,2806.62109 C2536.51445,2805.01952 2538.3699,2804.21875 2540.55741,2804.21875 L2540.55741,2803.98438 C2540.55741,2803.125 2540.75272,2802.40235 2541.14334,2801.81641 C2541.45585,2801.03515 2541.61209,2800.56641 2541.61209,2800.41016 L2541.61209,2800.35156 C2541.57303,2800.27344 2541.51444,2800.21484 2541.43631,2800.17578 L2541.37772,2800.17578 C2541.18241,2800.37109 2541.02616,2800.46875 2540.90897,2800.46875 C2540.79178,2800.46875 2540.71366,2800.11719 2540.67459,2799.41406 C2540.63553,2799.41406 2540.51835,2798.57423 2540.32303,2796.89453 C2541.06522,2796.54297 2541.43631,2796.05469 2541.43631,2795.42969 C2541.43631,2789.53122 2542.15896,2783.69144 2543.60428,2777.91016 C2544.58085,2774.00389 2545.59646,2770.46877 2546.65116,2767.30469 C2548.68242,2760.89841 2550.26443,2755.74221 2551.39725,2751.83594 C2552.60819,2747.38279 2553.21366,2744.82422 2553.21366,2744.16016 C2553.95585,2739.23826 2554.32694,2735.44923 2554.32694,2732.79297 L2554.32694,2732.38281 C2554.32694,2731.48437 2554.1121,2730.76172 2553.68241,2730.21484 C2553.64334,2730.01953 2553.15507,2729.51172 2552.21756,2728.69141 C2552.06131,2728.53516 2551.98319,2728.39844 2551.98319,2728.28125 C2551.98319,2728.00781 2553.29177,2727.63672 2555.90897,2727.16797 C2556.84647,2726.93359 2557.70584,2726.81641 2558.48709,2726.81641 Z M2561.29959,2731.67969 C2561.29959,2732.07031 2561.43631,2732.96874 2561.70975,2734.375 L2561.70975,2734.96094 C2561.70975,2735.58594 2561.59256,2736.54296 2561.35819,2737.83203 L2561.35819,2738.30078 C2561.51444,2739.82423 2561.59256,2740.85937 2561.59256,2741.40625 C2561.59256,2742.61719 2561.43632,2744.53124 2561.12381,2747.14844 C2561.12381,2748.16407 2560.90897,2749.14062 2560.47928,2750.07812 L2560.47928,2750.13672 C2560.47928,2750.21484 2560.51834,2750.29297 2560.59647,2750.37109 C2560.63553,2750.9961 2560.65506,2751.5039 2560.65506,2751.89453 C2560.65506,2753.10547 2560.3035,2755.11717 2559.60038,2757.92969 C2559.28787,2759.10157 2558.95585,2760.19531 2558.60428,2761.21094 L2558.60428,2762.14844 C2558.60428,2762.34375 2558.44803,2763.80858 2558.13553,2766.54297 C2558.09647,2766.73828 2558.07694,2766.95312 2558.07694,2767.1875 C2558.116,2767.26563 2558.17459,2767.34375 2558.25272,2767.42188 C2558.4871,2767.26562 2558.60428,2767.01172 2558.60428,2766.66016 C2558.91678,2765.13671 2559.30741,2763.4961 2559.77616,2761.73828 C2560.0496,2760.5664 2560.26444,2759.1211 2560.42069,2757.40234 C2560.616,2756.15234 2560.94803,2754.70704 2561.41678,2753.06641 C2562.19804,2750.52733 2562.58866,2747.85158 2562.58866,2745.03906 C2562.78397,2742.42186 2562.88163,2740.13673 2562.88163,2738.18359 L2562.88163,2737.42188 C2562.76444,2734.17967 2562.66678,2732.55859 2562.58866,2732.55859 C2562.47147,2731.42578 2562.13944,2730.85938 2561.59256,2730.85938 C2561.43631,2730.85938 2561.33866,2731.13281 2561.29959,2731.67969 Z M2549.81522,2795.83984 L2549.81522,2796.25 C2549.81522,2796.83594 2549.91288,2797.38281 2550.10819,2797.89062 C2550.34256,2797.61719 2550.57694,2797.20703 2550.81131,2796.66016 C2551.08475,2795.99609 2551.28006,2794.98048 2551.39725,2793.61328 C2552.25663,2789.35545 2553.03787,2786.23048 2553.741,2784.23828 C2554.24882,2782.79296 2554.87381,2780.50783 2555.616,2777.38281 C2556.70976,2773.98436 2557.39334,2771.75782 2557.66678,2770.70312 C2557.00272,2771.36719 2556.53397,2772.07031 2556.26053,2772.8125 C2555.86991,2774.41407 2555.16679,2776.48436 2554.15116,2779.02344 C2552.97928,2782.10939 2551.86601,2785.95701 2550.81131,2790.56641 C2550.3035,2792.51954 2550.04959,2793.61328 2550.04959,2793.84766 C2549.89334,2794.94141 2549.81522,2795.60547 2549.81522,2795.83984 Z M2554.32694,2773.33984 C2553.62381,2774.7461 2553.27225,2775.95703 2553.27225,2776.97266 L2553.27225,2777.32422 L2553.33084,2777.32422 C2553.99491,2775.95702 2554.32694,2775.0586 2554.32694,2774.62891 C2554.366,2774.51172 2554.38553,2774.35547 2554.38553,2774.16016 L2554.38553,2773.86719 C2554.38553,2773.75 2554.366,2773.57422 2554.32694,2773.33984 Z M2578.58475,2800.17578 C2579.17069,2800.17578 2580.08865,2799.92188 2581.33866,2799.41406 C2581.88554,2799.17969 2582.58865,2798.75 2583.44803,2798.125 C2583.52616,2798.04687 2583.56522,2798.00781 2583.56522,2798.00781 L2583.56522,2797.94922 C2583.17459,2797.91016 2582.8035,2797.89062 2582.45194,2797.89062 C2580.92849,2797.89062 2579.63944,2798.65234 2578.58475,2800.17578 Z" id="powerful"></path>
        </g>
    </g>
</svg>