<?xml version="1.0" encoding="UTF-8"?>
<svg width="449px" height="241px" viewBox="0 0 449 241" version="1.1" xmlns="http://www.w3.org/2000/svg" xmlns:xlink="http://www.w3.org/1999/xlink">
    <!-- Generator: Sketch 54.1 (76490) - https://sketchapp.com -->
    <title>WHO</title>
    <desc>Created with Sketch.</desc>
    <g id="Page-1" stroke="none" stroke-width="1" fill="none" fill-rule="evenodd">
        <g id="Artboard" transform="translate(-1942.000000, -634.000000)" fill-rule="nonzero" stroke="#F0BA41">
            <path d="M1950.66206,649 L1950.79648,649 C1953.03686,649 1957.1591,650.436907 1963.16332,653.310763 L1965.31407,654.119031 C1965.22446,655.645767 1965.09003,658.339966 1964.9108,662.201711 C1965.00042,666.512495 1965.04523,673.921544 1965.04523,684.429081 L1965.04523,685.641483 C1965.04523,702.076347 1964.68677,712.2245 1963.96985,716.086244 C1963.79062,718.06202 1963.70101,719.94796 1963.70101,721.74412 C1963.70101,724.43836 1963.83543,726.279396 1964.10427,727.267284 L1964.77638,727.267284 C1965.13484,727.267284 1965.62772,731.667811 1966.25503,740.468995 C1966.7031,743.702083 1967.19598,746.171766 1967.73367,747.878118 C1968.09213,748.955814 1968.80904,750.886657 1969.88442,753.670706 L1970.01884,753.670706 L1970.01884,752.188881 C1970.01884,750.302913 1969.25713,745.857483 1967.73367,738.852459 L1967.73367,737.505346 C1968.27136,720.262209 1968.5402,702.615201 1968.5402,684.563792 C1968.71943,674.505295 1968.98827,664.761273 1969.34673,655.331433 L1969.34673,655.06201 C1970.06366,655.06201 1970.82537,656.13969 1971.63191,658.295082 C1972.52806,661.797594 1972.97613,664.806117 1972.97613,667.320741 C1973.15536,669.386325 1973.28978,674.595111 1973.3794,682.947256 C1973.55863,682.947256 1973.64824,684.473969 1973.64824,687.527441 C1973.28978,725.156995 1973.06575,749.270082 1972.97613,759.867427 L1972.97613,772.395581 C1972.97613,785.776974 1973.28978,792.781893 1973.91709,793.410549 C1974.0067,793.590165 1974.05151,793.724875 1974.05151,793.814683 C1984.89495,776.84097 1992.46732,764.761975 1996.76884,757.577334 C2001.15999,750.213078 2003.35553,745.857455 2003.35553,744.510335 C2003.35553,744.151103 2003.08669,743.56736 2002.54899,742.759088 C2009.89744,728.479615 2019.08286,709.305894 2030.10553,685.237349 C2031.53937,682.183876 2032.61474,680.118323 2033.33166,679.040627 C2036.73704,672.484643 2039.29103,667.635083 2040.99372,664.491803 C2045.0264,657.756203 2048.02847,654.388453 2050,654.388453 L2050.13442,654.388453 C2051.92673,654.747685 2053.45016,654.927299 2054.70477,654.927299 C2055.24247,654.927299 2058.19972,654.747685 2063.57663,654.388453 L2065.59296,654.388453 C2069.44642,654.388453 2072.04522,655.870263 2073.38945,658.833927 C2073.74791,659.732007 2073.92714,660.495364 2073.92714,661.12402 C2072.58291,664.357108 2071.64196,666.153241 2071.10427,666.512473 C2068.14697,670.643641 2066.26508,673.786874 2065.45854,675.942267 C2063.57662,679.624395 2060.61937,684.967891 2056.58668,691.972915 L2056.04899,759.328582 C2056.04899,760.136854 2056.00419,764.223057 2055.91457,771.587313 C2055.91457,786.675058 2056.22822,794.712753 2056.85553,795.700641 L2056.98995,795.970064 C2057.79649,794.622944 2059.8576,791.838938 2063.17337,787.617962 C2067.20605,782.229481 2070.16331,777.873858 2072.04523,774.550962 C2072.76215,773.024226 2073.1206,771.901643 2073.1206,771.183179 L2073.1206,770.913756 C2073.1206,770.644332 2072.89657,770.105492 2072.44849,769.29722 C2081.41001,751.694851 2092.38771,729.512607 2105.38191,702.749822 C2110.84844,691.703437 2114.29857,684.788325 2115.73241,682.004277 C2116.18049,681.555237 2117.34547,679.489683 2119.22739,675.807555 C2121.28854,671.406963 2123.79772,666.961533 2126.75503,662.471133 C2129.44348,658.609389 2131.45979,656.678546 2132.80402,656.678546 L2132.93844,656.678546 C2134.99959,656.94797 2136.52303,657.08268 2137.50879,657.08268 L2138.04648,657.08268 C2143.33378,656.813256 2146.42546,656.678546 2147.32161,656.678546 L2148.53141,656.678546 C2152.38486,656.678546 2155.02847,658.115452 2156.46231,660.989309 C2156.82077,662.156813 2157,662.920169 2157,663.279401 C2155.835,666.153257 2154.84925,668.039197 2154.04271,668.937277 C2151.26464,672.619405 2149.42756,675.583025 2148.53141,677.828225 C2146.02218,682.947281 2141.72072,690.670654 2135.62688,700.998574 C2132.7592,706.117631 2130.1604,711.146804 2127.8304,716.086244 C2122.81195,724.618004 2119.2274,731.892343 2117.07663,737.90948 C2116.00125,740.693528 2115.10511,743.387728 2114.38819,745.99216 L2111.4309,753.535994 C2109.19052,757.846779 2106.27807,763.504598 2102.69347,770.509622 C2102.60385,770.509622 2102.42462,770.464719 2102.15578,770.374911 C2102.15578,770.464719 2101.97655,770.644332 2101.61809,770.913756 L2101.61809,771.048468 C2101.61809,771.228084 2101.79732,771.4526 2102.15578,771.722024 C2097.85425,780.074169 2094.44892,786.764765 2091.9397,791.794013 C2087.63817,800.146157 2084.50168,806.836753 2082.53015,811.866001 C2080.64823,816.715634 2079.25922,819.724157 2078.36307,820.891661 C2077.73576,821.879549 2076.79481,822.777615 2075.5402,823.585887 C2073.38944,824.663583 2071.91081,825.202423 2071.10427,825.202423 C2068.59505,825.920887 2062.05324,826.684244 2051.47864,827.492516 C2043.41328,828.749828 2037.85722,829.378475 2034.8103,829.378475 L2034.27261,829.378475 C2030.50878,829.378475 2028.0892,828.615118 2027.01382,827.088382 C2026.56574,825.83107 2026.25209,807.779932 2026.07286,772.934426 C2025.98325,766.91729 2025.93844,761.304374 2025.93844,756.09551 C2021.99537,763.998614 2019.88945,768.039914 2019.6206,768.21953 C2019.53099,768.21953 2019.39657,768.174626 2019.21734,768.084818 L2018.67965,768.758375 C2018.67965,768.937991 2018.81407,769.207411 2019.08291,769.566643 C2010.21101,786.899588 2004.16208,799.06839 2000.93593,806.073414 C1996.27594,817.479031 1992.55697,825.202403 1989.77889,829.243763 C1985.6566,835.081284 1981.1759,838 1976.33668,838 C1972.57285,838 1968.27138,836.24877 1963.43216,832.746258 C1961.37101,831.668562 1959.22028,830.815399 1956.9799,830.186743 C1951.87183,828.929431 1948.37689,827.851751 1946.49497,826.953671 C1944.79229,825.875975 1943.94095,824.977908 1943.94095,824.259444 C1943.31365,813.21306 1943,786.944612 1943,745.453314 L1943,736.831789 C1943,692.466635 1943.22403,664.402055 1943.67211,652.637206 C1945.55403,650.21239 1947.88399,649 1950.66206,649 Z M2068.58621,663 C2066.56321,665.333345 2065.45977,667.293325 2065.27586,668.88 C2065.18391,668.88 2065.09195,669.25333 2065,670 C2067.023,667.759989 2068.26437,665.846675 2068.72414,664.26 L2069,663.42 C2068.81609,663.139999 2068.67816,663 2068.58621,663 Z M2148,672 C2150.66668,669.106652 2152,666.913341 2152,665.42 C2151.80952,665.233332 2151.71429,665.093334 2151.71429,665 C2149.61904,667.333345 2148.47619,669.199993 2148.28571,670.6 C2148.09524,671.440004 2148,671.906666 2148,672 Z M2059,682 C2060.83334,680.188226 2061.95833,678.764711 2062.375,677.729412 C2062.95834,676.866662 2063.625,675.40001 2064.375,673.329412 C2064.79167,671.949013 2065,671.17255 2065,671 C2062.99999,672.984324 2061.66667,674.709797 2061,676.176471 C2059.83333,678.505894 2059.16667,680.447051 2059,682 Z M2142,684 C2143.83334,682.274501 2145,680.807849 2145.5,679.6 C2146.58334,677.788226 2147.41666,675.588248 2148,673 C2145.99999,674.898049 2144.75,676.494111 2144.25,677.788235 C2143.58333,678.823535 2142.91667,680.37646 2142.25,682.447059 C2142.25,682.878434 2142.16667,683.396075 2142,684 Z M2135,695 C2135,693.044435 2135.99999,691.044455 2138,689 C2138,691.133344 2137.00001,693.133324 2135,695 Z M2048,700.219512 L2048,703 C2049.17648,700.268279 2049.84314,698.268299 2050,697 C2048.82352,698.463422 2048.15686,699.536582 2048,700.219512 Z M2128,707 C2130.05883,704.968244 2131.48039,702.978846 2132.26471,701.031746 C2132.55883,700.354494 2132.80392,699.677252 2133,699 C2131.03921,700.777787 2129.66667,702.597874 2128.88235,704.460317 C2128.49019,705.391539 2128.19608,706.238091 2128,707 Z M2051.74419,702 C2049.97674,705.134826 2048.72093,707.418737 2047.97674,708.851801 C2047.97674,711.449228 2047.69768,715.345311 2047.13953,720.540166 C2047.04651,721.435831 2047,722.779308 2047,724.570637 L2047,724.973684 C2047,727.660678 2047.8372,739.617622 2049.51163,760.844875 C2049.60465,762.457072 2049.69767,769.129674 2049.7907,780.862881 C2050.16279,789.640395 2050.67442,794.476911 2051.32558,795.372576 L2052.86047,799 C2052.95349,798.462601 2053,798.104341 2053,797.925208 C2053,797.566942 2052.67442,794.74564 2052.02326,789.461219 C2051.27907,781.041971 2050.90698,770.921112 2050.90698,759.098338 L2050.90698,752.246537 C2050.90698,746.693416 2051.13953,734.960385 2051.60465,717.047091 C2051.69767,709.254809 2051.74419,704.239162 2051.74419,702 Z M2123.63905,712 C2118.92108,721.18343 2111.70814,735.493317 2102,754.930091 L2104.04142,756 C2110.66473,744.230944 2115.70018,734.111491 2119.14793,725.641337 L2125,712.534954 C2124.90927,712.534954 2124.45563,712.356638 2123.63905,712 Z M2026,738 L2006,777.917492 L2006,778.052805 L2008.01342,779 C2014.99332,766.009836 2020.98879,754.282781 2026,743.818482 L2026,738 Z M2020.08984,763.5 C2020.16797,763.812502 2020.28516,763.96875 2020.44141,763.96875 C2020.59766,763.96875 2020.75391,763.812502 2020.91016,763.5 C2020.83203,763.187498 2020.67578,763.03125 2020.44141,763.03125 L2020.32422,763.03125 C2020.24609,763.03125 2020.16797,763.187498 2020.08984,763.5 Z M2103.14844,765.5 C2103.14844,765.734376 2103.22656,765.890625 2103.38281,765.96875 C2103.69531,765.890625 2103.85156,765.695314 2103.85156,765.382812 C2103.85156,765.226562 2103.77344,765.109375 2103.61719,765.03125 L2103.38281,765.03125 C2103.22656,765.03125 2103.14844,765.187498 2103.14844,765.5 Z M2175.95922,635 C2177.66142,635.179734 2179.67716,636.347987 2182.00649,638.504794 C2184.42541,641.29067 2186.35155,643.402512 2187.78499,644.840384 C2189.30801,646.008654 2191.14457,647.042109 2193.29472,647.940778 C2194.81774,648.839448 2195.57924,649.648239 2195.57924,650.367174 C2195.9376,651.355711 2196.11677,652.703695 2196.11677,654.411168 C2196.11677,657.466644 2192.35407,675.394835 2184.82854,708.196277 C2182.23045,719.699249 2180.12512,730.572989 2178.51251,740.817823 C2197.14714,738.84075 2209.51032,737.447833 2215.60241,736.63903 C2219.0964,735.830227 2222.09761,735.425832 2224.60612,735.425832 L2226.75626,735.425832 C2228.996,735.425832 2231.32529,735.56063 2233.74421,735.830231 C2234.55051,730.258479 2235.53598,725.181072 2236.70065,720.597857 C2239.11957,712.330096 2240.91133,705.410443 2242.076,699.838691 C2242.79271,695.165609 2243.6438,691.615917 2244.62929,689.189509 C2246.95862,683.438024 2250.139,679.573802 2254.17053,677.596729 C2255.60396,677.147394 2256.76861,676.92273 2257.6645,676.92273 L2257.79889,676.92273 C2257.97807,676.92273 2258.06766,676.877797 2258.06766,676.78793 C2260.48657,676.78793 2262.99504,677.821385 2265.59314,679.888325 C2267.92247,681.326196 2269.49026,682.045121 2270.29657,682.045121 C2270.83411,682.224855 2271.95396,682.404586 2273.65616,682.58432 C2274.37288,683.123522 2274.73123,683.707649 2274.73123,684.336717 C2274.91041,685.235387 2275,686.852968 2275,689.189509 C2275,693.682858 2272.93947,702.624487 2268.81835,716.014664 C2267.11615,721.676283 2265.90671,726.753691 2265.18999,731.247039 C2262.59189,742.839877 2259.72507,754.926803 2256.58943,767.508178 C2256.23108,768.227114 2255.96231,769.4403 2255.78313,771.147772 C2253.00586,782.111542 2251.61724,787.773076 2251.61724,788.132544 L2251.48285,788.132544 L2252.82669,767.912578 L2252.82669,767.373378 C2252.82669,766.74431 2252.7371,766.160183 2252.55792,765.620981 C2254.17054,759.15056 2255.9623,752.545437 2257.93327,745.805415 C2259.18753,741.042465 2260.8897,733.853216 2263.03985,724.237451 C2264.02534,720.642772 2264.51807,718.396132 2264.51807,717.497462 C2264.51807,716.149457 2263.80137,714.981204 2262.36793,713.992668 L2262.23355,713.992668 C2260.71053,714.981204 2259.94903,716.958248 2259.94903,719.923858 C2259.94903,725.046275 2258.73959,730.617943 2256.32067,736.63903 C2255.24559,739.60464 2254.08095,744.367517 2252.82669,750.927806 C2250.94531,760.903039 2248.83999,770.249063 2246.51066,778.966159 C2244.09174,789.210993 2241.85203,800.264464 2239.79147,812.126904 C2239.61229,813.474908 2239.52271,814.777959 2239.52271,816.036097 L2239.52271,816.979695 C2239.52271,820.035172 2240.01544,823.225402 2241.00093,826.550479 L2241.13531,826.550479 C2241.40408,823.764603 2241.71764,821.203433 2242.076,818.866892 L2242.21038,818.866892 C2242.83751,820.304764 2243.15107,821.652748 2243.15107,822.910886 C2243.15107,824.528491 2242.38957,827.269392 2240.86654,831.133672 C2240.50818,832.481676 2240.14983,834.503653 2239.79147,837.199662 C2239.61229,838.008464 2239.47791,838.41286 2239.38832,838.41286 C2237.68612,837.424323 2234.7745,836.930062 2230.65338,836.930062 C2226.71144,836.930062 2224.24777,836.031406 2223.26228,834.234067 C2222.54556,833.335397 2221.78406,831.043824 2220.97776,827.359278 C2220.35063,824.303801 2220.03707,821.967295 2220.03707,820.34969 L2220.03707,819.406091 C2220.03707,817.339151 2220.79857,812.441475 2222.32159,804.712916 C2224.38215,793.209944 2226.80104,778.696647 2229.57831,761.172589 C2219.45469,763.149662 2214.21378,764.138184 2213.85542,764.138184 C2202.92549,764.85712 2194.63858,765.66591 2188.99444,766.56458 C2184.69414,767.283516 2181.51376,768.092306 2179.4532,768.990976 C2177.93017,769.530178 2177.07909,769.799774 2176.89991,769.799774 L2176.89991,769.664975 C2177.70621,769.395374 2178.64689,768.586583 2179.72196,767.238579 C2179.72196,766.968978 2179.81155,766.654448 2179.99073,766.29498 C2179.99073,765.665912 2179.54279,765.216583 2178.6469,764.946983 L2178.51251,764.946983 C2176.004,765.665918 2174.07786,766.789238 2172.73401,768.316977 C2172.0173,768.946046 2171.65894,769.395374 2171.65894,769.664975 L2171.65894,769.934574 C2171.65894,770.294042 2172.06209,770.563639 2172.8684,770.743373 C2172.8684,770.83324 2172.91319,770.878173 2173.00278,770.878173 C2173.00278,770.96804 2172.77881,771.102838 2172.33086,771.282572 C2168.83687,787.907961 2167.0451,796.310396 2166.95551,796.49013 C2165.61167,797.928001 2164.93976,798.736792 2164.93976,798.916526 C2161.9833,811.677635 2160.5051,818.32769 2160.5051,818.866892 L2160.23633,821.158488 L2160.23633,821.293288 C2162.47607,815.272202 2163.64072,812.261703 2163.73031,812.261703 C2161.58016,823.495074 2159.56442,839.491154 2157.68304,860.250423 C2157.41427,863.216033 2157.27989,865.642405 2157.27989,867.529611 C2157.27989,868.15868 2157.32468,869.057336 2157.41427,870.225606 C2157.41427,871.663478 2156.74236,872.696932 2155.39852,873.326001 C2155.04016,873.685469 2152.48689,873.8652 2147.73865,873.8652 C2147.02193,873.955067 2146.17084,874 2145.18536,874 C2143.30398,874 2140.79551,872.56215 2137.65987,869.686407 C2134.70341,866.451196 2132.86686,863.755228 2132.15014,861.598421 C2130.71671,858.542944 2130,855.622311 2130,852.836435 C2130,849.511358 2134.16585,824.528716 2142.49768,777.887761 C2141.33302,776.000555 2140.34755,773.933645 2139.54124,771.686971 C2137.57027,764.048279 2136.5848,759.195536 2136.5848,757.128596 L2136.5848,755.780598 C2136.67439,751.736584 2136.89836,749.714608 2137.25672,749.714608 C2138.42138,748.726071 2140.12356,748.052079 2142.3633,747.692611 C2145.67811,747.42301 2147.60426,747.243279 2148.1418,747.153412 C2151.90456,726.573877 2155.08494,711.161924 2157.68304,700.91709 C2161.17703,685.909306 2164.4918,670.362555 2167.62743,654.276368 C2170.04635,641.425392 2172.82359,635 2175.95922,635 Z M2161,710.562863 L2161,711.646035 C2161,712.548683 2161.30989,713 2161.92969,713 L2162.0625,713 C2162.59375,713 2163.34635,711.781444 2164.32031,709.344294 C2164.58594,708.351381 2164.71875,707.493879 2164.71875,706.77176 L2164.71875,705.282398 C2164.71875,704.289486 2165.02864,703.206324 2165.64844,702.032882 C2166.71094,699.866527 2167.24219,697.655073 2167.24219,695.398453 C2167.41927,693.863951 2167.95052,692.148946 2168.83594,690.253385 C2168.7474,689.441002 2168.70312,688.899421 2168.70312,688.628627 L2168.70312,688.087041 C2168.70312,687.003863 2169.10156,685.469385 2169.89844,683.483559 C2170.42969,681.046409 2171.58072,674.7731 2173.35156,664.663443 C2174.50261,659.067026 2176.0078,652.387531 2177.86719,644.624758 C2177.86719,644.534493 2177.91146,644.44423 2178,644.353965 C2178,643.451317 2177.5573,643 2176.67188,643 C2175.875,643 2175.16667,645.030927 2174.54688,649.092843 C2173.1302,657.487469 2171.40366,665.520916 2169.36719,673.193424 C2166.97655,682.580962 2165.78125,688.132164 2165.78125,689.847195 C2165.51562,691.381697 2165.02865,693.096702 2164.32031,694.992263 C2163.43489,697.700207 2162.59375,701.626667 2161.79688,706.77176 C2161.26562,709.02838 2161,710.292068 2161,710.562863 Z M2263,706.946341 L2263,708.312195 C2263,710.770744 2263.61904,712 2264.85714,712 C2265.52381,711.817885 2266.04762,711.453661 2266.42857,710.907317 C2266.80953,710.178858 2267.28571,708.403266 2267.85714,705.580488 C2268.14286,704.852029 2268.7619,704.032525 2269.71429,703.121951 C2270.28572,702.393492 2270.57143,701.847156 2270.57143,701.482927 C2270.57143,700.845525 2270.14286,700.162605 2269.28571,699.434146 L2269.28571,699.160976 C2269.95238,696.338197 2270.28571,693.925213 2270.28571,691.921951 C2270.28571,690.647148 2270.52381,688.7805 2271,686.321951 C2271,684.956091 2270.57143,684.182115 2269.71429,684 L2269.57143,684 C2268.42857,684 2267.42858,685.912176 2266.57143,689.736585 C2266,691.557733 2265.71429,693.515437 2265.71429,695.609756 C2265.33333,697.977248 2264.71429,700.299176 2263.85714,702.57561 C2263.28571,703.668298 2263,705.125194 2263,706.946341 Z M2264.71429,706 L2265,706 C2265.38095,706 2265.71428,706.33333 2266,707 C2265.71428,707.66667 2265.33334,708 2264.85714,708 C2264.28571,707.777777 2264,707.444447 2264,707 C2264,706.33333 2264.23809,706 2264.71429,706 Z M2167,712.058824 L2167,712.294118 C2167,712.607845 2167.07407,712.843136 2167.22222,713 C2167.74074,713 2168,712.647062 2168,711.941176 L2168,711.352941 L2167.66667,711 L2167.44444,711 C2167.14815,711.313727 2167,711.666665 2167,712.058824 Z M2149.50562,760.02682 C2149.50562,760.20562 2149.64045,760.876112 2149.91011,762.038314 C2150.08989,762.842916 2150.17978,763.647506 2150.17978,764.452107 L2150.17978,765.122605 C2150.17978,767.625811 2149.86517,771.291164 2149.23596,776.118774 C2148.69663,778.80078 2147.97753,781.303948 2147.07865,783.628352 C2146.35955,785.326956 2146,786.265644 2146,786.444444 C2146,786.802045 2146.3146,787.427837 2146.94382,788.321839 C2147.30337,789.037041 2147.48315,789.796931 2147.48315,790.601533 C2147.39326,793.104738 2147.34831,794.624518 2147.34831,795.16092 C2147.52809,799.452129 2147.79775,801.597701 2148.1573,801.597701 L2148.42697,802 C2148.60674,802 2148.96629,799.139237 2149.50562,793.417625 C2150.13483,785.103407 2150.58427,779.873574 2150.85393,777.727969 C2151.48315,774.956563 2152.20224,772.453396 2153.01124,770.218391 C2153.73034,767.983386 2154.22472,765.30142 2154.49438,762.172414 C2154.58427,762.172414 2154.62921,761.501922 2154.62921,760.16092 C2154.62921,759.266918 2154.58427,757.657738 2154.49438,755.333333 C2156.38203,744.33711 2157.55056,736.782907 2158,732.670498 L2157.46067,732 C2156.92135,732 2156.5618,732.536393 2156.38202,733.609195 C2154.04493,744.158418 2152.60674,750.818632 2152.06742,753.590038 C2151.61798,755.378042 2150.94382,757.12132 2150.04494,758.819923 C2149.68539,759.177524 2149.50562,759.579819 2149.50562,760.02682 Z M2230,757.617188 C2230.33334,757.773438 2230.75,757.851562 2231.25,757.851562 C2231.83334,757.851562 2232.41666,757.61719 2233,757.148438 L2231.75,757.148438 C2231.16666,757.148438 2230.58334,757.304686 2230,757.617188 Z M2207,760 L2207.13497,760 C2214.96323,760 2222.2515,759.136372 2229,757.409091 L2229,757.272727 C2227.11042,757.090908 2225.44581,757 2224.00613,757 C2222.20653,757 2219.4172,757.272725 2215.63804,757.818182 C2214.55828,758.000001 2213.02864,758.136363 2211.04908,758.227273 C2209.33946,758.68182 2207.98978,759.272724 2207,760 Z M2229.38281,757.441406 L2229.38281,757.558594 L2229.61719,757.558594 L2229.61719,757.441406 L2229.38281,757.441406 Z M2198.56522,760.45 C2198.56522,760.249999 2198.39131,760.100001 2198.04348,760 L2197.78261,760 C2197.43478,760 2197.21739,760.299997 2197.13043,760.9 C2195.99999,761.300002 2194.95653,761.949996 2194,762.85 C2194.69566,762.95 2195.3913,763 2196.08696,763 L2197,763 C2199.86958,763 2202.86955,762.05001 2206,760.15 L2206,760 L2203.91304,760 C2202.1739,760 2200.39131,760.149998 2198.56522,760.45 Z M2188,764.733333 C2188.68085,764.911112 2189.19149,765 2189.53191,765 L2190.17021,765 C2191.53192,765 2192.8085,764.422228 2194,763.266667 C2193.31915,763.088888 2192.80851,763 2192.46809,763 L2192.08511,763 C2190.63829,763 2189.2766,763.577772 2188,764.733333 Z M2184,765 L2184,765.375 C2184,765.791669 2184.25,766 2184.75,766 C2185.58334,766 2186,765.541671 2186,764.625 C2185.83333,764.208331 2185.54167,764 2185.125,764 L2185,764 C2184.33333,764 2184,764.33333 2184,765 Z M2246.85294,790 L2247,790 L2247,791.781726 C2247,797.629471 2246.21569,802.563432 2244.64706,806.583756 C2244.15686,808.502548 2243.91176,810.147201 2243.91176,811.517766 L2243.91176,811.928934 C2243.91176,812.568531 2244.0098,813.436543 2244.20588,814.532995 C2244.20588,814.98985 2243.56863,815.766492 2242.29412,816.862944 C2242.29412,816.954315 2242.19608,817 2242,817 C2243.27452,808.685238 2244.89215,799.685328 2246.85294,790 Z M2159.44141,821.441406 L2159.44141,821.558594 L2159.55859,821.558594 L2159.55859,821.441406 L2159.44141,821.441406 Z M2342.04566,665 L2342.71918,665 C2348.55635,665 2353.31581,666.168609 2356.99772,668.505863 C2358.88357,669.494701 2360.8143,670.753203 2362.78995,672.281407 L2365.48402,674.438861 C2366.11264,674.528755 2367.36985,675.068113 2369.25571,676.056951 C2370.42314,676.686212 2371.94976,678.079554 2373.83562,680.237018 C2376.43989,683.473216 2378.19102,686.125059 2379.08904,688.19263 C2381.2443,691.968193 2383.39953,697.6764 2385.55479,705.31742 C2388.51828,717.273371 2390,728.375158 2390,738.623116 L2390,741.589615 C2390,752.646621 2388.29378,762.040442 2384.88128,769.771357 C2382.36681,775.61449 2379.04416,781.772162 2374.91324,788.244556 C2372.39877,792.110014 2369.39043,796.155199 2365.88813,800.380235 C2364.36148,802.357911 2361.66745,805.234487 2357.80594,809.01005 C2352.86679,813.504768 2349.00534,816.516184 2346.22146,818.044389 C2337.86982,823.348156 2329.69791,826 2321.70548,826 L2318.60731,826 C2311.69251,826 2305.49622,823.977407 2300.01826,819.932161 C2297.05478,819.123112 2294.49544,818.179235 2292.34018,817.100503 C2285.24578,813.594622 2280.03731,807.796523 2276.71461,799.70603 C2273.57152,791.975115 2272,782.626241 2272,771.659129 L2272,767.20938 C2272,766.58012 2272.1796,766.265494 2272.53881,766.265494 C2274.06546,765.546339 2274.87367,765.141821 2274.96347,765.051926 L2272.53881,759.118928 L2272.40411,758.984087 C2273.30214,748.915918 2274.33485,740.870494 2275.50228,734.847571 C2277.11873,726.667184 2278.95965,719.655529 2281.02511,713.812395 C2283.53959,707.070318 2286.41323,701.137379 2289.64612,696.0134 C2297.63855,683.338295 2308.6392,674.39394 2322.6484,669.180067 C2325.52208,668.01144 2329.83254,666.797885 2335.57991,665.539363 C2337.73517,665.179786 2339.8904,665 2342.04566,665 Z M2302.5,751.629328 C2302.5,752.077395 2302.72436,754.228087 2303.17308,758.081466 L2303.17308,759.560081 C2303.17308,762.60694 2302.27565,764.936855 2300.48077,766.549898 C2299.49358,767.535646 2299,768.476574 2299,769.372709 C2299,769.551936 2299.26923,771.164954 2299.80769,774.211813 C2300.4359,777.796352 2301.33333,784.965323 2302.5,795.718941 C2303.21795,801.006136 2303.98077,804.859458 2304.78846,807.279022 C2306.4936,811.759697 2308.78204,814 2311.65385,814 L2312.32692,814 C2316.63464,814 2323.09611,809.429781 2331.71154,800.289206 C2334.58335,796.615053 2336.87179,793.12018 2338.57692,789.804481 C2342.52566,782.904242 2346.56408,773.718998 2350.69231,762.248473 C2353.65386,753.914419 2356.39101,744.146696 2358.90385,732.94501 C2360.96796,722.460233 2362,713.409407 2362,705.792261 C2362,693.4256 2359.30772,685.853374 2353.92308,683.075356 C2352.48717,682.358449 2351.05129,682 2349.61538,682 L2348.80769,682 C2345.03844,682 2340.14747,683.971467 2334.13462,687.91446 C2332.8782,688.810595 2331.3077,690.199583 2329.42308,692.081466 C2326.19229,696.02446 2323.45514,699.922588 2321.21154,703.775967 C2316.4551,711.661954 2312.64104,718.965343 2309.76923,725.686354 C2304.92305,737.067267 2302.5,745.714838 2302.5,751.629328 Z M2300,696 C2301.91305,694.37837 2302.86957,693.2973 2302.86957,692.756757 L2303,692.351351 L2302.73913,691 C2300.91303,692.261268 2300,693.927918 2300,696 Z M2297.20703,700.441406 L2297.32422,700.910156 C2297.63672,700.67578 2297.79297,700.48047 2297.79297,700.324219 L2297.67578,700.089844 L2297.44141,700.089844 C2297.36328,700.089844 2297.28516,700.20703 2297.20703,700.441406 Z M2280,740.517134 C2280,741.320876 2280.09214,742.48182 2280.27642,744 C2281.19784,743.642781 2281.84282,743.017658 2282.21138,742.124611 C2282.30352,741.767392 2282.34959,740.517145 2282.34959,738.373832 C2283.54743,733.194159 2284.88346,728.505732 2286.35772,724.308411 C2288.20055,719.485957 2290.22763,715.288699 2292.43902,711.716511 C2293.54472,710.109026 2294.69647,707.697835 2295.89431,704.482866 C2296.35502,703.41121 2296.72358,702.250266 2297,701 C2295.98644,701.267914 2295.29539,701.714431 2294.92683,702.339564 C2292.80758,706.001057 2290.91871,709.26063 2289.26016,712.11838 C2285.66665,719.084147 2283.68564,723.817225 2283.31707,726.317757 C2281.3821,731.140211 2280.36856,734.623042 2280.27642,736.766355 C2280.09214,737.927316 2280,739.177563 2280,740.517134 Z M2380.65041,748.34891 L2380.65041,749.420561 C2380.65041,750.581522 2380.37399,752.188982 2379.82114,754.242991 C2378.71544,758.797531 2377.37941,763.128744 2375.81301,767.23676 C2374.43089,770.541034 2372.77237,773.845259 2370.8374,777.149533 C2369.36314,779.114236 2367.98104,782.016596 2366.69106,785.856698 L2366,788 L2366.13821,788 C2367.15177,787.732086 2367.88889,787.240917 2368.34959,786.52648 C2368.71816,785.812042 2369.96205,783.668761 2372.0813,780.096573 C2374.47698,775.809947 2376.41192,772.014554 2377.88618,768.71028 C2378.80759,766.299053 2379.49864,764.066469 2379.95935,762.012461 C2381.61789,758.083054 2382.49322,755.31465 2382.58537,753.707165 C2382.86179,752.367595 2383,750.849437 2383,749.152648 L2383,748.214953 C2383,746.07164 2382.90786,745 2382.72358,745 C2381.34146,745.535828 2380.65041,746.65212 2380.65041,748.34891 Z M2277,753.745763 L2277,754.016949 C2277.08333,755.915264 2277.20833,756.909604 2277.375,757 L2277.625,757 C2278.29167,757 2278.625,756.683619 2278.625,756.050847 C2278.875,754.333325 2279,752.796617 2279,751.440678 C2278.91667,749.813551 2278.75,749 2278.5,749 C2277.83333,749.090396 2277.5,749.406777 2277.5,749.949153 C2277.16666,751.1243 2277,752.389824 2277,753.745763 Z M2367,766.947368 C2367.44445,768.210533 2367.72222,768.842105 2367.83333,768.842105 C2367.94445,768.947369 2368.11111,769 2368.33333,769 C2368.44445,768.684209 2368.66666,767.789481 2369,766.315789 L2369,766 C2367.77777,766.526318 2367.11111,766.842105 2367,766.947368 Z M2366.67578,788.089844 C2366.44141,788.32422 2366.28516,788.558593 2366.20703,788.792969 L2366.44141,788.910156 C2366.67578,788.910156 2366.79297,788.79297 2366.79297,788.558594 C2366.79297,788.324218 2366.75391,788.167969 2366.67578,788.089844 Z M2361,796.513514 C2361,796.873876 2361.04545,797.369366 2361.13636,798 C2363.04546,796.648642 2364,794.981992 2364,793 C2361.99999,794.531539 2361,795.657654 2361,796.378378 L2361,796.513514 Z M2354,807.571429 L2354,807.714286 C2354,807.809524 2354.34146,807.904761 2355.02439,808 C2357.56099,806.095229 2359.21951,803.904774 2360,801.428571 C2359.51219,801.142856 2359.02439,801 2358.53659,801 C2355.51218,804.238111 2354,806.428566 2354,807.571429 Z" id="WHO"></path>
        </g>
    </g>
</svg>