<?xml version="1.0" encoding="UTF-8"?>
<svg width="529px" height="232px" viewBox="0 0 529 232" version="1.1" xmlns="http://www.w3.org/2000/svg" xmlns:xlink="http://www.w3.org/1999/xlink">
    <!-- Generator: Sketch 54.1 (76490) - https://sketchapp.com -->
    <title>sarts</title>
    <desc>Created with Sketch.</desc>
    <g id="Page-1" stroke="none" stroke-width="1" fill="none" fill-rule="evenodd">
        <g id="Artboard" transform="translate(-3161.000000, -1656.000000)" fill-rule="nonzero" stroke="#F0BA41">
            <path d="M3349.60094,1657.26562 L3351.12437,1657.26562 C3360.81192,1657.26562 3369.17121,1658.71092 3376.2025,1661.60156 C3379.09314,1662.85157 3380.81187,1663.82812 3381.35875,1664.53125 C3382.68688,1665.93751 3383.70249,1667.61718 3384.40562,1669.57031 C3385.03063,1671.13282 3385.5775,1673.04686 3386.04625,1675.3125 C3386.35875,1676.71876 3386.59312,1678.47655 3386.74937,1680.58594 C3386.74937,1681.05469 3386.515,1681.5625 3386.04625,1682.10938 C3385.49937,1682.57813 3384.83531,1682.8125 3384.05406,1682.8125 C3382.17905,1682.8125 3379.40564,1681.64064 3375.73375,1679.29688 C3373.62436,1678.35937 3371.16345,1677.89062 3368.35094,1677.89062 L3367.17906,1677.89062 C3361.86653,1677.89062 3352.29632,1679.49217 3338.46812,1682.69531 C3330.96809,1684.4922 3323.4291,1685.93749 3315.85094,1687.03125 C3312.64779,1687.42188 3308.66346,1687.85156 3303.89781,1688.32031 C3302.80406,1688.55469 3302.02281,1688.78906 3301.55406,1689.02344 C3300.92906,1689.33594 3300.49937,1689.96093 3300.265,1690.89844 C3300.03062,1691.83594 3299.64,1694.53123 3299.09312,1698.98438 C3298.62437,1702.03127 3298.19469,1704.02343 3297.80406,1704.96094 C3296.71031,1709.25783 3295.26501,1714.10154 3293.46812,1719.49219 C3291.51499,1725.82034 3290.53844,1730.07811 3290.53844,1732.26562 C3289.05405,1740.23441 3287.45251,1746.6406 3285.73375,1751.48438 C3283.78061,1757.34378 3281.98376,1764.45308 3280.34312,1772.8125 C3279.56187,1777.89065 3278.62438,1782.8906 3277.53062,1787.8125 C3274.95249,1801.09382 3273.66344,1808.32031 3273.66344,1809.49219 C3273.50719,1811.21095 3272.99938,1814.53123 3272.14,1819.45312 C3270.03061,1833.04694 3268.97594,1842.30466 3268.97594,1847.22656 L3268.97594,1848.16406 C3268.97594,1851.60158 3269.21031,1859.92181 3269.67906,1873.125 C3269.75719,1874.37501 3269.79625,1875.11719 3269.79625,1875.35156 C3269.79625,1876.75782 3269.67906,1877.46094 3269.44469,1877.46094 C3269.28844,1877.53906 3269.17125,1877.57812 3269.09312,1877.57812 C3268.93687,1877.57812 3268.74156,1877.53906 3268.50719,1877.46094 C3268.27281,1877.53906 3268.11656,1877.57812 3268.03844,1877.57812 C3267.56968,1877.5 3267.25719,1877.46094 3267.10094,1877.46094 C3266.71031,1876.99219 3266.31969,1876.64063 3265.92906,1876.40625 C3265.53843,1876.32812 3265.34312,1876.25 3265.34312,1876.17188 L3265.34312,1875.82031 C3265.34312,1875.11718 3265.88999,1873.98438 3266.98375,1872.42188 C3267.29625,1871.875 3267.4525,1871.44531 3267.4525,1871.13281 L3267.4525,1870.89844 C3267.4525,1870.19531 3266.63219,1869.375 3264.99156,1868.4375 L3264.99156,1868.32031 L3265.10875,1868.32031 C3264.9525,1867.38281 3264.87437,1866.52344 3264.87437,1865.74219 C3264.87437,1863.6328 3265.34312,1861.44532 3266.28062,1859.17969 L3266.28062,1858.71094 C3266.28062,1858.32031 3266.12437,1857.65625 3265.81187,1856.71875 C3265.34312,1855.23437 3265.10875,1853.2422 3265.10875,1850.74219 C3265.10875,1847.14842 3265.49937,1843.75002 3266.28062,1840.54688 C3266.43687,1839.92187 3266.74937,1839.33594 3267.21812,1838.78906 C3267.68688,1838.00781 3267.92125,1837.22657 3267.92125,1836.44531 C3267.92125,1836.05469 3267.68688,1835.15626 3267.21812,1833.75 C3266.90562,1832.42187 3266.74937,1831.21094 3266.74937,1830.11719 C3266.74937,1828.63281 3267.10093,1826.79689 3267.80406,1824.60938 C3268.42906,1821.79686 3268.74156,1819.37501 3268.74156,1817.34375 C3269.05406,1813.98436 3269.40562,1811.44532 3269.79625,1809.72656 C3270.03062,1808.16405 3270.57749,1805.54689 3271.43687,1801.875 C3273.70251,1790.70307 3274.83531,1784.21876 3274.83531,1782.42188 L3274.83531,1782.07031 C3274.75719,1781.67969 3274.52281,1781.48438 3274.13219,1781.48438 L3273.89781,1781.48438 C3273.27281,1781.64063 3272.96031,1781.875 3272.96031,1782.1875 C3272.17906,1783.98438 3271.31969,1786.60155 3270.38219,1790.03906 C3269.99156,1791.75782 3269.79625,1793.00781 3269.79625,1793.78906 C3269.3275,1797.46096 3268.66344,1801.60154 3267.80406,1806.21094 C3266.47593,1812.22659 3265.42125,1817.77341 3264.64,1822.85156 C3264.40562,1825.03907 3264.05406,1827.73436 3263.58531,1830.9375 C3261.86655,1839.21879 3261.00719,1846.40622 3261.00719,1852.5 C3261.00719,1853.90626 3261.08531,1855.35156 3261.24156,1856.83594 C3261.08531,1860.97658 3261.00719,1864.88279 3261.00719,1868.55469 L3261.00719,1868.90625 C3261.00719,1871.17189 3261.04625,1873.47655 3261.12437,1875.82031 L3261.12437,1875.9375 C3261.04625,1876.01563 3260.73375,1876.05469 3260.18687,1876.05469 C3258.31186,1876.05469 3256.71032,1875.1172 3255.38219,1873.24219 C3254.2103,1871.99218 3253.35094,1871.09375 3252.80406,1870.54688 C3251.94468,1869.37499 3251.31969,1868.32032 3250.92906,1867.38281 C3248.81968,1862.14841 3247.765,1854.37505 3247.765,1844.0625 L3247.765,1842.65625 C3247.765,1834.06246 3248.46812,1824.21881 3249.87437,1813.125 C3251.43688,1803.35933 3253.50717,1792.85162 3256.08531,1781.60156 C3261.47596,1758.08582 3267.13997,1735.70323 3273.0775,1714.45312 C3274.79626,1709.60935 3275.65562,1703.35941 3275.65562,1695.70312 L3275.65562,1694.76562 C3271.2806,1695.93751 3267.17908,1697.34374 3263.35094,1698.98438 C3258.58529,1701.01564 3253.3119,1703.74998 3247.53062,1707.1875 C3238.93683,1712.34378 3230.57754,1717.96872 3222.4525,1724.0625 C3218.1556,1727.34377 3213.23378,1731.44529 3207.68687,1736.36719 C3204.40561,1739.33595 3202.14,1741.40624 3200.89,1742.57812 L3199.9525,1742.57812 C3199.56187,1742.57812 3199.36656,1742.73437 3199.36656,1743.04688 C3199.36656,1743.125 3199.40562,1743.4375 3199.48375,1743.98438 C3197.29624,1745.93751 3194.71814,1748.39842 3191.74937,1751.36719 C3194.40564,1754.02345 3196.3978,1755.82031 3197.72594,1756.75781 C3198.97594,1757.61719 3200.57749,1758.59374 3202.53062,1759.6875 C3205.10876,1761.32813 3207.99936,1763.35936 3211.2025,1765.78125 C3216.1244,1769.68752 3220.42123,1773.20311 3224.09312,1776.32812 C3224.87438,1777.81251 3226.28061,1779.80468 3228.31187,1782.30469 C3229.48375,1783.55469 3230.57749,1784.88281 3231.59312,1786.28906 C3233.31188,1788.2422 3234.48375,1789.84374 3235.10875,1791.09375 C3235.18687,1791.25 3235.92905,1792.49999 3237.33531,1794.84375 L3233.93687,1787.34375 L3233.93687,1787.22656 C3235.81188,1789.8047 3237.45249,1792.53905 3238.85875,1795.42969 C3241.59314,1801.28909 3242.96031,1806.83591 3242.96031,1812.07031 L3242.96031,1812.65625 C3242.96031,1813.04688 3242.92125,1813.55468 3242.84312,1814.17969 C3242.68687,1813.71094 3242.49156,1813.28125 3242.25719,1812.89062 C3242.25719,1813.28125 3241.86656,1813.78906 3241.08531,1814.41406 C3240.69468,1815.03907 3240.49937,1815.70312 3240.49937,1816.40625 C3240.03062,1818.43751 3239.79625,1819.76562 3239.79625,1820.39062 C3239.79625,1821.40626 3239.56188,1823.35936 3239.09312,1826.25 C3238.62437,1827.42188 3238.39,1828.86718 3238.39,1830.58594 C3238.39,1831.83594 3237.96032,1832.92968 3237.10094,1833.86719 C3236.63218,1834.41407 3236.24156,1835 3235.92906,1835.625 C3235.30406,1836.5625 3234.13219,1838.04686 3232.41344,1840.07812 L3232.765,1840.54688 C3229.56186,1843.51564 3226.55407,1846.01561 3223.74156,1848.04688 C3218.27278,1851.95314 3214.1322,1854.45312 3211.31969,1855.54688 C3209.2103,1856.09375 3207.72594,1856.36719 3206.86656,1856.36719 L3206.63219,1856.36719 C3206.55406,1856.36719 3206.39781,1855.89844 3206.16344,1854.96094 L3206.04625,1854.96094 C3205.42125,1855.27344 3204.79625,1855.50781 3204.17125,1855.66406 L3203.81969,1856.13281 C3204.44469,1856.28906 3205.14781,1856.36719 3205.92906,1856.36719 C3205.22593,1856.60156 3203.85876,1857.30468 3201.8275,1858.47656 C3200.65562,1859.10157 3199.44469,1859.57031 3198.19469,1859.88281 C3196.3978,1860.42969 3194.60094,1860.9375 3192.80406,1861.40625 C3189.8353,1862.10938 3187.33532,1862.46094 3185.30406,1862.46094 C3184.28843,1862.46094 3183.35094,1862.34375 3182.49156,1862.10938 C3181.0853,1862.34375 3179.75719,1862.46094 3178.50719,1862.46094 C3176.47593,1862.46094 3174.67907,1861.95313 3173.11656,1860.9375 C3169.28842,1858.82811 3166.24157,1854.37503 3163.97594,1847.57812 C3163.42906,1846.01562 3162.88219,1843.82814 3162.33531,1841.01562 C3161.86656,1838.43749 3161.63219,1836.64063 3161.63219,1835.625 L3161.63219,1835.50781 C3164.28845,1837.3047 3167.5306,1838.20312 3171.35875,1838.20312 C3178.31191,1838.20312 3186.47589,1835.50784 3195.85094,1830.11719 C3198.74158,1828.39843 3201.63217,1826.28907 3204.52281,1823.78906 C3204.99156,1823.39844 3206.82748,1821.79689 3210.03062,1818.98438 C3212.99939,1816.17186 3214.79625,1814.33594 3215.42125,1813.47656 C3217.92126,1810.58592 3219.56187,1807.81251 3220.34312,1805.15625 C3220.65562,1804.06249 3220.81187,1802.81251 3220.81187,1801.40625 L3220.81187,1801.05469 C3220.81187,1799.96093 3220.73375,1799.41406 3220.5775,1799.41406 C3219.01499,1796.7578 3218.11656,1795.23438 3217.88219,1794.84375 C3216.47593,1793.51562 3215.30407,1792.57813 3214.36656,1792.03125 C3212.10092,1790.46874 3208.07753,1788.04689 3202.29625,1784.76562 C3197.37435,1782.03124 3192.80408,1779.1797 3188.58531,1776.21094 C3181.63215,1771.13279 3177.64782,1766.91408 3176.63219,1763.55469 C3176.39781,1763.00781 3176.16344,1762.03126 3175.92906,1760.625 C3173.81968,1758.67187 3172.49156,1757.30469 3171.94469,1756.52344 C3170.30405,1754.41405 3169.48375,1751.87501 3169.48375,1748.90625 C3169.48375,1742.34372 3170.22593,1737.50002 3171.71031,1734.375 C3172.41344,1732.81249 3173.31187,1731.17188 3174.40562,1729.45312 C3175.42125,1727.89062 3177.29623,1725.62501 3180.03062,1722.65625 C3181.90563,1720.78124 3183.15562,1719.60938 3183.78062,1719.14062 C3187.21814,1716.40624 3191.00717,1713.71095 3195.14781,1711.05469 C3201.08534,1707.07029 3207.21809,1703.35939 3213.54625,1699.92188 C3213.7025,1699.375 3214.36655,1698.67188 3215.53844,1697.8125 C3217.96032,1696.01562 3223.93683,1693.16408 3233.46812,1689.25781 C3233.62437,1689.25781 3239.9915,1686.60159 3252.56969,1681.28906 C3259.05409,1678.55467 3266.35871,1675.78126 3274.48375,1672.96875 C3285.03068,1669.21873 3296.59306,1665.85939 3309.17125,1662.89062 C3324.95258,1659.14061 3338.429,1657.26562 3349.60094,1657.26562 Z M3264.28844,1681.17188 C3264.67906,1681.17188 3265.4603,1681.01563 3266.63219,1680.70312 C3267.02281,1680.46875 3267.21812,1680.23438 3267.21812,1680 C3267.06187,1679.45312 3266.78844,1679.17969 3266.39781,1679.17969 C3265.92906,1679.17969 3265.22594,1679.84374 3264.28844,1681.17188 Z M3263.58531,1681.40625 L3262.765,1681.40625 C3260.34311,1681.40625 3257.76501,1682.10937 3255.03062,1683.51562 C3253.23374,1684.0625 3250.14783,1685.27343 3245.77281,1687.14844 C3236.08526,1691.05471 3227.37441,1694.80467 3219.64,1698.39844 L3218.35094,1699.10156 C3217.96031,1699.25781 3217.64781,1699.45312 3217.41344,1699.6875 C3217.25719,1700 3217.17906,1700.3125 3217.17906,1700.625 C3217.17906,1701.25 3217.72593,1701.60156 3218.81969,1701.67969 L3219.17125,1701.67969 C3220.34313,1700.89843 3223.58528,1699.25783 3228.89781,1696.75781 C3239.44474,1691.91404 3251.00712,1686.83596 3263.58531,1681.52344 L3263.58531,1681.40625 Z M3180.61656,1731.09375 C3182.10094,1731.09375 3183.42905,1730.19532 3184.60094,1728.39844 C3185.06969,1727.61718 3185.73374,1726.83594 3186.59312,1726.05469 C3190.65564,1722.07029 3193.97592,1719.02345 3196.55406,1716.91406 C3200.92908,1713.32029 3205.18685,1710.31251 3209.3275,1707.89062 C3210.96813,1706.87499 3212.80405,1705.54688 3214.83531,1703.90625 C3214.83531,1703.82812 3214.91344,1703.75 3215.06969,1703.67188 C3214.75718,1703.125 3214.48375,1702.73438 3214.24937,1702.5 C3207.99934,1706.25002 3202.17909,1710.19529 3196.78844,1714.33594 C3195.4603,1715.35157 3194.01501,1716.64062 3192.4525,1718.20312 C3190.65561,1719.60938 3188.97594,1721.01562 3187.41344,1722.42188 C3184.8353,1725.07814 3183.11657,1727.07031 3182.25719,1728.39844 C3181.71031,1729.25782 3181.16344,1730.15625 3180.61656,1731.09375 Z M3285.14781,1738.94531 C3284.21031,1740.89845 3283.74156,1742.57812 3283.74156,1743.98438 L3283.74156,1745.27344 C3284.91344,1742.85155 3285.49937,1741.01563 3285.49937,1739.76562 L3285.49937,1739.41406 C3285.49937,1739.25781 3285.38219,1739.10156 3285.14781,1738.94531 Z M3280.69469,1755.23438 L3280.69469,1756.75781 C3282.5697,1754.02342 3283.50719,1750.78127 3283.50719,1747.03125 L3283.50719,1745.85938 C3281.63218,1748.90627 3280.69469,1752.03123 3280.69469,1755.23438 Z M3279.17125,1761.44531 C3278.46812,1762.85157 3278.11656,1764.21874 3278.11656,1765.54688 C3278.11656,1765.9375 3278.15562,1766.44531 3278.23375,1767.07031 L3278.35094,1767.07031 C3279.05406,1765.74218 3279.40562,1764.41407 3279.40562,1763.08594 L3279.40562,1762.96875 C3279.40562,1762.57812 3279.36656,1762.07032 3279.28844,1761.44531 L3279.17125,1761.44531 Z M3277.17906,1770.46875 C3276.00718,1772.89064 3275.42125,1775.11718 3275.42125,1777.14844 L3275.42125,1778.4375 C3276.67125,1776.01561 3277.29625,1773.39845 3277.29625,1770.58594 L3277.29625,1770.46875 L3277.17906,1770.46875 Z M3210.61656,1773.39844 C3212.64782,1775.03907 3214.48374,1776.05469 3216.12437,1776.44531 L3216.71031,1776.5625 C3216.16343,1775.70312 3215.42125,1775 3214.48375,1774.45312 C3213.07749,1773.75 3211.78844,1773.39844 3210.61656,1773.39844 Z M3216.8275,1776.5625 L3216.8275,1776.67969 L3216.94469,1776.67969 L3216.94469,1776.5625 L3216.8275,1776.5625 Z M3217.06187,1776.79688 C3217.14,1777.34375 3217.25719,1777.73437 3217.41344,1777.96875 C3218.19469,1778.59375 3219.8353,1780.15624 3222.33531,1782.65625 C3224.91345,1785.54689 3226.67124,1787.73437 3227.60875,1789.21875 C3229.40563,1791.71876 3230.92905,1794.21874 3232.17906,1796.71875 C3232.96031,1797.73438 3233.66343,1798.24219 3234.28844,1798.24219 C3234.28844,1798.32031 3234.36656,1798.35938 3234.52281,1798.35938 C3234.44469,1797.42187 3234.24937,1796.71875 3233.93687,1796.25 C3232.60874,1793.67186 3230.85095,1790.85939 3228.66344,1787.8125 C3227.25718,1785.93749 3225.65563,1784.06251 3223.85875,1782.1875 C3221.04623,1779.21874 3219.05407,1777.53906 3217.88219,1777.14844 C3217.41343,1776.91406 3217.14,1776.79688 3217.06187,1776.79688 Z M3235.34312,1829.76562 C3234.17124,1831.01563 3231.16346,1834.10154 3226.31969,1839.02344 C3225.69468,1839.72657 3224.99156,1840.42968 3224.21031,1841.13281 C3223.11656,1841.83594 3221.28064,1842.96874 3218.7025,1844.53125 C3218.15562,1844.92188 3217.84312,1845.19531 3217.765,1845.35156 L3217.765,1845.9375 C3218.23375,1846.40625 3218.7025,1846.64062 3219.17125,1846.64062 C3221.98376,1845.23437 3224.8353,1843.51564 3227.72594,1841.48438 C3228.81969,1840.70312 3230.26499,1839.37501 3232.06187,1837.5 C3233.78063,1835.54687 3234.9525,1833.94532 3235.5775,1832.69531 C3235.81187,1832.22656 3236.12437,1831.5625 3236.515,1830.70312 C3235.89,1830.07812 3235.49937,1829.76562 3235.34312,1829.76562 Z M3385.64181,1706.71875 C3387.4387,1706.71875 3390.09492,1708.47654 3393.61056,1711.99219 L3394.07931,1711.99219 C3395.95432,1711.99219 3398.33711,1713.67186 3401.22775,1717.03125 C3402.16525,1717.73438 3403.84492,1718.59374 3406.26681,1719.60938 C3407.04807,1720.07813 3407.43869,1720.54687 3407.43869,1721.01562 C3407.12618,1721.95313 3406.85275,1722.8125 3406.61837,1723.59375 C3405.91525,1726.87502 3405.134,1732.73433 3404.27462,1741.17188 L3404.27462,1741.99219 C3404.27462,1749.4141 3405.75898,1773.20292 3408.72775,1813.35938 C3409.1965,1819.2969 3409.43087,1823.3203 3409.43087,1825.42969 C3409.43087,1828.2422 3409.07932,1829.96093 3408.37619,1830.58594 C3407.82931,1830.82031 3407.43869,1830.9375 3407.20431,1830.9375 L3407.3215,1830.82031 C3404.66524,1830.19531 3402.63401,1829.53125 3401.22775,1828.82812 C3399.58712,1827.81249 3396.69652,1825.97658 3392.55587,1823.32031 C3391.77462,1822.92969 3391.18869,1822.34375 3390.79806,1821.5625 C3390.09493,1820.07812 3389.11838,1818.63282 3387.86837,1817.22656 C3387.9465,1816.75781 3388.41524,1815.50782 3389.27462,1813.47656 L3389.27462,1813.125 C3389.27462,1812.89062 3389.07931,1812.18751 3388.68869,1811.01562 L3388.68869,1810.78125 L3389.15744,1807.5 C3389.46994,1806.79687 3389.62619,1806.05469 3389.62619,1805.27344 C3389.62619,1804.49218 3389.31369,1803.51563 3388.68869,1802.34375 C3388.37618,1801.71875 3388.21994,1801.17188 3388.21994,1800.70312 L3388.68869,1799.64844 L3388.68869,1799.53125 C3388.61056,1799.375 3388.45431,1798.75001 3388.21994,1797.65625 C3387.98556,1797.57812 3387.79025,1797.53906 3387.634,1797.53906 C3385.99337,1797.53906 3380.52467,1799.88279 3371.22775,1804.57031 C3362.79021,1808.86721 3355.60278,1812.18749 3349.66525,1814.53125 C3346.77461,1815.62501 3344.54807,1816.17188 3342.98556,1816.17188 L3341.34494,1816.17188 C3340.79806,1817.03125 3339.0012,1820.15622 3335.95431,1825.54688 C3333.4543,1830.15627 3331.07151,1834.96091 3328.80587,1839.96094 C3327.24337,1843.55471 3325.79807,1847.77341 3324.46994,1852.61719 C3324.15743,1854.4922 3324.00119,1856.40624 3324.00119,1858.35938 C3324.00119,1858.90625 3324.07931,1860.70311 3324.23556,1863.75 C3324.23556,1864.14063 3324.07931,1864.375 3323.76681,1864.45312 C3323.37618,1864.45312 3321.8137,1863.94532 3319.07931,1862.92969 C3317.5168,1862.22656 3315.09495,1860.66407 3311.81369,1858.24219 L3308.76681,1856.25 C3307.82931,1854.60937 3307.36056,1852.77345 3307.36056,1850.74219 L3307.36056,1850.03906 C3307.36056,1844.33591 3310.44647,1835.78131 3316.61837,1824.375 C3317.79025,1822.10936 3324.89956,1808.28138 3337.9465,1782.89062 C3349.74343,1759.92176 3356.07149,1747.69532 3356.93087,1746.21094 C3361.22777,1739.10153 3367.82927,1728.75007 3376.73556,1715.15625 C3377.67307,1713.43749 3379.15743,1711.48439 3381.18869,1709.29688 C3383.0637,1707.57812 3384.54806,1706.71875 3385.64181,1706.71875 Z M3368.06369,1758.04688 C3371.03245,1754.37498 3373.68867,1750.50783 3376.03244,1746.44531 C3378.21995,1742.46092 3379.74337,1739.37501 3380.60275,1737.1875 C3378.25899,1739.53126 3376.54025,1741.60155 3375.4465,1743.39844 C3374.58712,1744.80469 3373.33713,1746.95311 3371.6965,1749.84375 C3369.50899,1752.81251 3368.37619,1754.99999 3368.29806,1756.40625 C3368.14181,1756.95313 3368.06369,1757.5 3368.06369,1758.04688 Z M3380.60275,1748.32031 C3377.00898,1753.86722 3374.78244,1757.61718 3373.92306,1759.57031 C3367.90741,1770.50787 3361.4231,1781.914 3354.46994,1793.78906 C3359.70434,1791.52343 3368.21988,1788.12502 3380.01681,1783.59375 L3384.35275,1781.83594 C3381.93086,1761.05458 3380.71994,1750.03907 3380.71994,1748.78906 L3380.71994,1748.32031 L3380.60275,1748.32031 Z M3399.46994,1749.25781 C3399.15743,1751.21095 3399.00119,1752.92968 3399.00119,1754.41406 L3399.00119,1756.28906 C3399.00119,1758.32032 3399.7043,1760.27343 3401.11056,1762.14844 C3401.50119,1760.35155 3401.6965,1758.78907 3401.6965,1757.46094 C3401.6965,1754.8828 3400.99338,1752.14845 3399.58712,1749.25781 L3399.46994,1749.25781 Z M3401.11056,1766.36719 C3400.56368,1766.99219 3400.29025,1767.69531 3400.29025,1768.47656 C3400.29025,1768.78906 3400.60275,1770.11718 3401.22775,1772.46094 C3401.54025,1774.02345 3401.6965,1775.54687 3401.6965,1777.03125 C3401.61837,1778.82813 3401.57931,1779.96094 3401.57931,1780.42969 L3401.57931,1781.48438 C3401.57931,1783.43751 3401.85275,1786.71873 3402.39962,1791.32812 L3402.39962,1792.73438 L3402.04806,1798.00781 L3402.04806,1798.35938 C3402.04806,1802.7344 3402.47774,1807.30466 3403.33712,1812.07031 C3404.04025,1814.64845 3405.09493,1816.79687 3406.50119,1818.51562 L3406.50119,1818.39844 C3405.0168,1811.67965 3404.27462,1804.4141 3404.27462,1796.60156 C3404.27462,1786.13276 3404.00119,1778.90627 3403.45431,1774.92188 C3403.21994,1769.92185 3402.9465,1767.42188 3402.634,1767.42188 C3402.08712,1766.71875 3401.57931,1766.36719 3401.11056,1766.36719 Z M3346.61837,1796.01562 C3347.71213,1795.23437 3348.259,1794.25782 3348.259,1793.08594 L3348.259,1792.85156 C3347.16524,1793.86719 3346.61837,1794.92187 3346.61837,1796.01562 Z M3346.384,1796.25 L3346.384,1796.48438 C3346.46212,1796.48438 3346.50119,1796.40625 3346.50119,1796.25 L3346.384,1796.25 Z M3334.66525,1817.8125 C3337.71214,1813.67185 3340.36836,1809.37502 3342.634,1804.92188 C3344.97776,1799.92185 3346.14962,1797.26563 3346.14962,1796.95312 C3344.04024,1799.06251 3342.55588,1800.89843 3341.6965,1802.46094 C3340.75899,1803.86719 3339.74338,1805.74218 3338.64962,1808.08594 C3337.86837,1809.49219 3336.89182,1811.1328 3335.71994,1813.00781 C3335.01681,1814.64845 3334.66525,1816.24999 3334.66525,1817.8125 Z M3327.39962,1832.46094 C3327.39962,1833.00782 3327.47775,1833.63281 3327.634,1834.33594 C3330.52464,1831.05467 3331.96994,1826.95315 3331.96994,1822.03125 C3330.56368,1823.90626 3329.43088,1825.78124 3328.5715,1827.65625 C3327.79025,1829.21876 3327.39962,1830.8203 3327.39962,1832.46094 Z M3322.71212,1843.94531 L3322.71212,1844.0625 C3322.71212,1844.6875 3322.75119,1845.23437 3322.82931,1845.70312 C3324.31369,1844.37499 3325.05587,1842.81251 3325.05587,1841.01562 C3325.05587,1840.39062 3325.01681,1839.80469 3324.93869,1839.25781 C3323.4543,1840.58594 3322.71212,1842.14843 3322.71212,1843.94531 Z M3509.6905,1710.82031 C3511.64363,1712.07032 3513.79205,1713.82811 3516.13581,1716.09375 C3518.71395,1718.67189 3520.51081,1720.89843 3521.52644,1722.77344 C3522.77644,1724.72657 3523.753,1726.83593 3524.45612,1729.10156 C3524.84675,1730.11719 3525.04206,1730.74219 3525.04206,1730.97656 C3524.57331,1731.28906 3524.33894,1731.60156 3524.33894,1731.91406 C3524.57331,1732.61719 3524.6905,1733.20312 3524.6905,1733.67188 C3524.6905,1734.375 3524.33894,1735.89843 3523.63581,1738.24219 C3523.08893,1739.41407 3522.8155,1740.46875 3522.8155,1741.40625 C3522.8155,1742.03125 3523.16706,1743.20312 3523.87019,1744.92188 C3523.94831,1745.3125 3523.98737,1745.625 3523.98737,1745.85938 C3523.98737,1746.48438 3523.36238,1748.12499 3522.11237,1750.78125 C3520.78424,1754.21877 3519.84675,1756.40625 3519.29987,1757.34375 C3519.0655,1757.89063 3518.59675,1758.28125 3517.89362,1758.51562 C3517.1905,1759.14063 3516.52644,1760.07812 3515.90144,1761.32812 C3513.55768,1764.53127 3511.64363,1767.77342 3510.15925,1771.05469 C3509.53425,1772.38282 3507.34677,1775.15623 3503.59675,1779.375 L3503.71394,1779.375 C3505.7452,1777.57812 3507.93268,1775.66407 3510.27644,1773.63281 L3510.39362,1773.63281 C3506.48736,1778.86721 3501.21397,1785.11715 3494.57331,1792.38281 C3488.87016,1798.39847 3484.02646,1803.20311 3480.04206,1806.79688 L3474.88581,1811.48438 C3481.52647,1815.00002 3489.92482,1819.06248 3500.08112,1823.67188 C3507.81554,1827.26564 3513.20611,1830.11718 3516.253,1832.22656 C3516.79988,1832.69531 3517.62018,1833.51562 3518.71394,1834.6875 C3520.27644,1835.85938 3521.33112,1837.30468 3521.878,1839.02344 L3521.99519,1839.96094 C3521.99519,1843.00783 3518.94834,1845.19531 3512.85456,1846.52344 C3510.66705,1845.66406 3508.47957,1844.64844 3506.29206,1843.47656 L3499.378,1839.60938 C3496.87799,1838.12499 3494.10458,1836.25001 3491.05769,1833.98438 C3490.74519,1833.67187 3489.69051,1833.28125 3487.89362,1832.8125 C3486.01862,1832.03125 3482.62021,1830.4297 3477.69831,1828.00781 C3476.21393,1827.30468 3475.39363,1826.95312 3475.23737,1826.95312 L3475.12019,1826.95312 C3475.04206,1826.95312 3474.88581,1827.03125 3474.65144,1827.1875 C3474.80769,1827.8125 3475.08112,1828.24219 3475.47175,1828.47656 C3479.22177,1830.58595 3483.24517,1833.04686 3487.54206,1835.85938 C3490.82333,1837.89064 3494.53423,1839.72655 3498.67487,1841.36719 C3501.48739,1842.69532 3504.18267,1844.14062 3506.76081,1845.70312 C3507.69832,1846.32813 3508.55768,1846.91406 3509.33894,1847.46094 L3507.8155,1848.04688 C3506.56549,1848.59375 3505.74519,1849.37499 3505.35456,1850.39062 C3505.12019,1850.70313 3504.88581,1850.85938 3504.65144,1850.85938 L3504.29987,1850.85938 C3503.51862,1850.85938 3501.17489,1849.68751 3497.26862,1847.34375 C3492.50298,1844.53124 3486.99522,1841.9922 3480.74519,1839.72656 C3476.68267,1838.32031 3471.7999,1836.95313 3466.09675,1835.625 C3456.4092,1832.81249 3448.32334,1830.58595 3441.83894,1828.94531 L3441.72175,1828.94531 C3441.01862,1829.33594 3440.19832,1829.92187 3439.26081,1830.70312 C3439.10456,1830.70312 3438.83113,1831.48437 3438.4405,1833.04688 C3435.94049,1841.40629 3434.6905,1846.52343 3434.6905,1848.39844 L3434.6905,1848.51562 C3434.6905,1849.21875 3435.08112,1851.48436 3435.86237,1855.3125 C3436.17488,1857.26563 3436.33112,1858.78906 3436.33112,1859.88281 C3436.33112,1861.9922 3435.78426,1863.55468 3434.6905,1864.57031 C3434.29987,1865.27344 3433.63582,1865.625 3432.69831,1865.625 L3432.22956,1865.625 C3430.04205,1865.625 3427.42489,1865.03907 3424.378,1863.86719 C3422.65924,1863.08593 3421.09676,1862.14844 3419.6905,1861.05469 C3415.15923,1857.38279 3412.89362,1852.50003 3412.89362,1846.40625 C3412.89362,1842.42186 3413.67487,1836.01567 3415.23737,1827.1875 C3417.42489,1815.85932 3420.31548,1803.711 3423.90925,1790.74219 C3426.01864,1783.16402 3429.92485,1770.11728 3435.628,1751.60156 C3438.04989,1743.00777 3440.15924,1734.76566 3441.95612,1726.875 C3441.95612,1726.79687 3441.99519,1726.5625 3442.07331,1726.17188 L3441.95612,1726.17188 C3439.37799,1727.03125 3437.22957,1727.46094 3435.51081,1727.46094 C3431.60454,1727.46094 3429.06551,1725.39065 3427.89362,1721.25 C3427.89362,1720.9375 3427.22957,1719.68751 3425.90144,1717.5 C3425.58894,1716.71875 3425.43269,1716.09375 3425.43269,1715.625 L3425.43269,1715.39062 C3425.43269,1715 3425.58894,1714.72656 3425.90144,1714.57031 C3432.5421,1710.50779 3437.97173,1708.04688 3442.1905,1707.1875 C3444.69051,1706.5625 3447.50298,1706.25 3450.628,1706.25 C3452.97176,1706.01562 3454.57331,1705.74219 3455.43269,1705.42969 C3456.05769,1705.11719 3456.40925,1704.92188 3456.48737,1704.84375 C3455.628,1704.76562 3454.53426,1704.72656 3453.20612,1704.72656 L3451.68269,1704.72656 C3449.8858,1704.72656 3448.12801,1705 3446.40925,1705.54688 L3440.3155,1706.71875 C3438.28424,1707.1875 3436.33113,1707.85156 3434.45612,1708.71094 C3434.14362,1708.86719 3433.24519,1709.14062 3431.76081,1709.53125 C3430.43268,1710 3428.71395,1710.82031 3426.60456,1711.99219 C3426.60456,1712.07031 3426.5655,1712.10938 3426.48737,1712.10938 L3426.37019,1712.10938 L3426.253,1711.99219 C3426.5655,1711.44531 3427.19049,1710.85938 3428.128,1710.23438 C3429.76863,1709.14062 3431.48737,1708.125 3433.28425,1707.1875 C3436.79989,1705.39062 3440.86235,1704.02344 3445.47175,1703.08594 C3449.84677,1702.22656 3458.90918,1701.89453 3472.65925,1702.08984 C3486.40932,1702.28516 3498.75294,1705.19528 3509.6905,1710.82031 Z M3445.82331,1719.25781 C3445.82331,1719.64844 3445.97956,1719.84375 3446.29206,1719.84375 C3446.52644,1719.84375 3446.64362,1719.6875 3446.64362,1719.375 C3446.5655,1719.0625 3446.52644,1718.86719 3446.52644,1718.78906 L3445.9405,1718.78906 C3445.86237,1718.86719 3445.82331,1719.02344 3445.82331,1719.25781 Z M3466.91706,1725.23438 L3467.03425,1725.58594 L3467.03425,1726.40625 C3467.03425,1726.79688 3466.64363,1728.20311 3465.86237,1730.625 C3465.628,1731.25 3465.43269,1732.73436 3465.27644,1735.07812 C3464.88581,1737.50001 3464.61238,1738.82812 3464.45612,1739.0625 C3462.73737,1740.31251 3461.64363,1741.7578 3461.17487,1743.39844 C3460.9405,1744.49219 3460.43269,1746.01562 3459.65144,1747.96875 C3459.41706,1748.59375 3459.10456,1749.84374 3458.71394,1751.71875 C3456.60455,1759.21879 3455.54987,1763.9453 3455.54987,1765.89844 L3455.54987,1766.48438 C3455.54987,1767.03125 3455.66706,1767.30469 3455.90144,1767.30469 C3456.37019,1767.30469 3457.3858,1765.07815 3458.94831,1760.625 C3459.80769,1758.28124 3460.51081,1756.21095 3461.05769,1754.41406 L3461.17487,1754.41406 C3456.17485,1774.17979 3451.64364,1790.70306 3447.58112,1803.98438 C3451.48739,1801.32811 3455.86235,1797.96877 3460.70612,1793.90625 C3463.44051,1791.71874 3467.22954,1788.20315 3472.07331,1783.35938 C3477.62021,1777.65622 3481.40924,1773.39845 3483.4405,1770.58594 C3492.89367,1758.63275 3497.62019,1748.63285 3497.62019,1740.58594 C3497.62019,1732.30465 3487.38591,1727.18751 3466.91706,1725.23438 Z M3521.05769,1729.33594 C3521.68269,1732.85158 3521.99519,1734.64844 3521.99519,1734.72656 C3522.15144,1733.78906 3522.26862,1732.92969 3522.34675,1732.14844 C3522.34675,1731.36718 3521.99519,1730.54688 3521.29206,1729.6875 C3521.29206,1729.6875 3521.21394,1729.57031 3521.05769,1729.33594 Z M3420.74519,1819.6875 C3420.74519,1819.92188 3421.13581,1820.11719 3421.91706,1820.27344 C3422.54207,1819.57031 3423.04987,1818.67188 3423.4405,1817.57812 C3425.86239,1810.62497 3429.22173,1798.20321 3433.51862,1780.3125 C3436.40926,1770.1562 3439.33892,1758.35944 3442.30769,1744.92188 C3442.77644,1743.67187 3443.40143,1742.10938 3444.18269,1740.23438 C3444.88582,1737.96874 3445.23737,1736.40625 3445.23737,1735.54688 L3445.23737,1735.42969 C3445.15925,1734.49218 3444.80769,1734.02344 3444.18269,1734.02344 L3443.94831,1734.02344 C3443.32331,1734.02344 3442.89363,1734.64843 3442.65925,1735.89844 C3442.65925,1736.05469 3442.22957,1737.3828 3441.37019,1739.88281 L3439.84675,1747.14844 C3431.56546,1777.38296 3425.58896,1799.9218 3421.91706,1814.76562 C3421.60456,1815.78126 3421.21394,1817.42186 3420.74519,1819.6875 Z M3521.52644,1736.95312 C3521.60456,1737.1875 3521.72175,1737.30469 3521.878,1737.30469 C3522.11238,1737.22656 3522.22956,1737.14844 3522.22956,1737.07031 L3522.22956,1736.83594 C3522.22956,1736.52344 3522.15144,1736.05469 3521.99519,1735.42969 C3521.83894,1735.42969 3521.68269,1735.85937 3521.52644,1736.71875 C3521.52644,1736.71875 3521.52644,1736.79687 3521.52644,1736.95312 Z M3489.53425,1788.75 C3488.753,1789.0625 3488.04988,1789.45312 3487.42487,1789.92188 C3486.5655,1790.70313 3486.05769,1791.44531 3485.90144,1792.14844 C3486.13581,1793.16407 3486.48737,1793.67188 3486.95612,1793.67188 L3487.07331,1793.67188 C3487.62019,1793.67188 3487.97175,1793.51563 3488.128,1793.20312 C3489.14363,1792.18749 3489.76862,1791.21094 3490.003,1790.27344 C3490.23738,1789.72656 3490.47175,1789.45312 3490.70612,1789.45312 C3491.95613,1788.98437 3493.20612,1787.81251 3494.45612,1785.9375 C3494.53425,1785.9375 3495.70611,1784.53126 3497.97175,1781.71875 C3500.86239,1779.21874 3502.58112,1777.46094 3503.128,1776.44531 C3504.22176,1774.80468 3505.66705,1772.81251 3507.46394,1770.46875 C3508.40144,1768.98437 3509.29987,1767.34376 3510.15925,1765.54688 C3510.15925,1765.23437 3510.54987,1764.45313 3511.33112,1763.20312 C3512.03425,1762.18749 3512.8155,1760.31251 3513.67487,1757.57812 C3514.53425,1754.68749 3515.54987,1752.10939 3516.72175,1749.84375 C3517.58113,1746.95311 3518.01081,1745.00001 3518.01081,1743.98438 L3517.89362,1743.98438 C3517.73737,1743.98438 3517.38581,1743.90625 3516.83894,1743.75 C3516.60456,1743.75 3516.44831,1744.25781 3516.37019,1745.27344 C3516.21394,1745.58594 3516.05769,1746.44531 3515.90144,1747.85156 C3514.57331,1750.97658 3512.34677,1755.66403 3509.22175,1761.91406 C3506.72174,1766.83596 3504.92488,1770.1953 3503.83112,1771.99219 C3501.79986,1772.69532 3500.23738,1774.02343 3499.14362,1775.97656 C3498.4405,1777.14844 3496.9952,1778.86718 3494.80769,1781.13281 C3493.71393,1782.22657 3492.77644,1782.96875 3491.99519,1783.35938 C3490.35455,1784.84376 3489.53425,1786.64061 3489.53425,1788.75 Z M3520.9405,1743.98438 C3520.9405,1744.14063 3520.86238,1744.33594 3520.70612,1744.57031 L3520.82331,1744.57031 L3521.05769,1743.98438 L3520.9405,1743.98438 Z M3520.35456,1745.74219 C3520.04206,1746.21094 3519.65144,1747.3828 3519.18269,1749.25781 C3518.87019,1750.42969 3518.28425,1752.26561 3517.42487,1754.76562 C3517.73738,1754.76562 3518.04987,1754.375 3518.36237,1753.59375 C3519.69051,1751.32811 3520.35456,1749.14064 3520.35456,1747.03125 L3520.35456,1745.74219 Z M3461.05769,1754.17969 L3461.17487,1754.17969 L3461.17487,1754.29688 L3461.05769,1754.29688 L3461.05769,1754.17969 Z M3512.15144,1764.02344 C3512.15144,1764.17969 3512.1905,1764.25781 3512.26862,1764.25781 L3512.38581,1764.25781 L3512.38581,1763.90625 C3512.22956,1763.98438 3512.15144,1764.02344 3512.15144,1764.02344 Z M3421.79987,1822.96875 C3420.62799,1825.23439 3420.04206,1827.14843 3420.04206,1828.71094 L3419.92487,1830.9375 C3420.08113,1831.01563 3420.15925,1831.09375 3420.15925,1831.17188 C3420.23738,1831.17188 3420.35456,1830.78125 3420.51081,1830 C3421.44832,1827.42186 3421.91706,1825.15626 3421.91706,1823.20312 L3421.91706,1822.96875 L3421.79987,1822.96875 Z M3447.58112,1826.36719 C3446.72175,1827.30469 3446.05769,1827.85156 3445.58894,1828.00781 C3449.10458,1828.78907 3451.7608,1829.53125 3453.55769,1830.23438 C3453.79206,1830.23438 3455.31549,1830.82031 3458.128,1831.99219 L3458.128,1831.875 C3458.128,1830.85937 3457.65925,1830.19531 3456.72175,1829.88281 C3454.22174,1828.55468 3451.79989,1827.53907 3449.45612,1826.83594 C3448.83112,1826.60156 3448.20613,1826.44531 3447.58112,1826.36719 Z M3587.33294,1665.23438 L3589.09075,1665.23438 C3591.35639,1665.23438 3592.84075,1665.85937 3593.54388,1667.10938 C3593.77825,1667.65625 3593.89544,1668.43749 3593.89544,1669.45312 C3593.89544,1670.15625 3593.85638,1671.01562 3593.77825,1672.03125 C3608.0752,1669.60936 3619.24696,1668.39844 3627.29388,1668.39844 C3640.96582,1668.39844 3652.33289,1671.09372 3661.39544,1676.48438 C3663.58295,1677.96876 3665.30168,1681.13279 3666.55169,1685.97656 C3667.41107,1689.57033 3667.84075,1692.18749 3667.84075,1693.82812 C3667.84075,1694.29688 3667.02045,1694.57031 3665.37981,1694.64844 C3662.95793,1694.64844 3659.05171,1693.63282 3653.66106,1691.60156 C3651.08292,1690.82031 3648.50483,1690.42969 3645.92669,1690.42969 C3642.72355,1690.42969 3636.62986,1691.32812 3627.64544,1693.125 C3623.19229,1693.90625 3617.37204,1694.72656 3610.1845,1695.58594 C3600.88758,1696.44532 3594.1689,1697.10937 3590.02825,1697.57812 C3590.65325,1697.57812 3590.96575,1697.65625 3590.96575,1697.8125 C3590.10637,1697.96875 3589.67669,1698.08594 3589.67669,1698.16406 C3584.75479,1723.08606 3579.75484,1745.35146 3574.67669,1764.96094 C3573.11418,1771.83597 3571.47357,1779.76558 3569.75481,1788.75 C3569.59856,1788.75 3569.52044,1788.90625 3569.52044,1789.21875 C3567.5673,1799.06255 3566.00482,1808.32027 3564.83294,1816.99219 C3564.59856,1819.41407 3564.16888,1822.85154 3563.54388,1827.30469 C3561.66887,1840.97663 3560.73138,1849.99998 3560.73138,1854.375 L3560.73138,1855.66406 C3560.73138,1859.33596 3561.16106,1868.78899 3562.02044,1884.02344 L3562.02044,1886.01562 C3562.02044,1886.79688 3561.94231,1887.1875 3561.78606,1887.1875 L3559.79388,1887.1875 C3559.48137,1887.1875 3559.16888,1886.95313 3558.85638,1886.48438 C3558.23137,1886.09375 3557.80169,1885.89844 3557.56731,1885.89844 L3557.56731,1885.54688 C3557.56731,1884.76562 3558.07512,1883.67188 3559.09075,1882.26562 C3559.40325,1881.64062 3559.5595,1881.17188 3559.5595,1880.85938 L3559.5595,1880.39062 C3559.5595,1879.76562 3558.7392,1878.94532 3557.09856,1877.92969 L3557.21575,1877.8125 C3557.0595,1877.03125 3556.98138,1876.21094 3556.98138,1875.35156 L3556.98138,1875.23438 C3556.98138,1875.15625 3556.94231,1875.07813 3556.86419,1875 L3556.98138,1874.64844 L3556.98138,1874.29688 C3556.98138,1872.65624 3557.41106,1870.70314 3558.27044,1868.4375 L3558.27044,1868.08594 C3558.27044,1867.77344 3558.03607,1866.99219 3557.56731,1865.74219 C3557.09856,1864.02343 3556.86419,1862.07032 3556.86419,1859.88281 L3556.86419,1858.71094 C3556.86419,1854.72654 3557.25481,1851.48439 3558.03606,1848.98438 C3558.19231,1848.59375 3558.46575,1848.20313 3558.85638,1847.8125 C3559.247,1847.03125 3559.44231,1846.28907 3559.44231,1845.58594 C3559.44231,1845.03906 3559.16888,1843.94532 3558.622,1842.30469 C3558.3095,1841.05468 3558.15325,1840 3558.15325,1839.14062 L3558.15325,1838.32031 C3558.15325,1837.14843 3558.50481,1835.27345 3559.20794,1832.69531 C3559.52044,1831.21093 3559.75481,1828.43752 3559.91106,1824.375 C3560.30169,1821.01561 3560.8095,1817.81252 3561.4345,1814.76562 C3562.21575,1811.32811 3563.27043,1805.35161 3564.59856,1796.83594 C3565.14544,1793.55467 3565.41888,1791.40626 3565.41888,1790.39062 C3565.41888,1789.84375 3565.10638,1789.57031 3564.48138,1789.57031 C3563.70012,1789.72656 3563.3095,1790.07812 3563.3095,1790.625 C3562.52825,1792.57813 3561.78607,1795.11717 3561.08294,1798.24219 C3560.69231,1799.64844 3560.41888,1801.64061 3560.26263,1804.21875 C3559.5595,1809.45315 3558.54388,1815.70309 3557.21575,1822.96875 C3556.35637,1827.57815 3555.61419,1833.12497 3554.98919,1839.60938 C3553.50481,1847.57816 3552.76263,1854.49216 3552.76263,1860.35156 C3552.76263,1862.53907 3552.87981,1864.49218 3553.11419,1866.21094 L3552.997,1866.44531 L3552.997,1873.71094 C3552.997,1877.69533 3553.11419,1881.67967 3553.34856,1885.66406 L3553.11419,1885.66406 C3552.33293,1885.42969 3551.08295,1884.76563 3549.36419,1883.67188 C3546.16105,1881.40624 3544.12982,1879.10157 3543.27044,1876.75781 C3540.92668,1871.13278 3539.75481,1861.79694 3539.75481,1848.75 C3539.75481,1837.34369 3540.61418,1824.961 3542.33294,1811.60156 C3543.27044,1805.42966 3544.59855,1798.04692 3546.31731,1789.45312 C3546.39544,1789.45312 3546.4345,1789.21875 3546.4345,1788.75 L3546.31731,1788.63281 C3551.70796,1760.8983 3558.11415,1732.3439 3565.53606,1702.96875 C3552.17662,1706.40627 3539.98924,1710.15623 3528.97356,1714.21875 C3520.7704,1717.18751 3516.00482,1718.67188 3514.67669,1718.67188 C3511.86417,1718.67188 3509.48139,1717.46095 3507.52825,1715.03906 C3506.20012,1713.24218 3505.53606,1711.52345 3505.53606,1709.88281 C3505.37981,1707.85155 3504.01264,1705.00002 3501.4345,1701.32812 C3501.27825,1701.17187 3501.20013,1700.97656 3501.20013,1700.74219 L3501.20013,1700.50781 C3501.20013,1698.6328 3507.21569,1695.85939 3519.247,1692.1875 C3526.74704,1689.76561 3533.30947,1687.42189 3538.9345,1685.15625 C3546.59079,1682.49999 3556.27819,1679.84376 3567.997,1677.1875 L3567.997,1676.95312 C3567.997,1675.70312 3567.87981,1673.47658 3567.64544,1670.27344 C3571.47358,1668.78906 3575.34073,1667.50001 3579.247,1666.40625 C3582.76264,1665.625 3585.45793,1665.23438 3587.33294,1665.23438 Z M3554.28606,1685.27344 C3556.2392,1684.96094 3557.21575,1684.57031 3557.21575,1684.10156 C3557.0595,1683.47656 3556.78606,1683.16406 3556.39544,1683.16406 C3555.92669,1683.16406 3555.22357,1683.86718 3554.28606,1685.27344 Z M3513.38763,1700.625 C3514.16888,1700.9375 3514.95012,1701.09375 3515.73138,1701.09375 C3517.21576,1701.09375 3519.05168,1700.66407 3521.23919,1699.80469 C3529.44235,1697.22655 3536.66884,1694.37502 3542.91888,1691.25 C3546.59077,1689.53124 3550.14542,1687.6172 3553.58294,1685.50781 L3552.997,1685.50781 C3550.18449,1685.50781 3547.29389,1686.28905 3544.32513,1687.85156 C3543.23137,1688.39844 3540.49702,1689.37499 3536.122,1690.78125 C3530.18447,1692.81251 3523.30954,1695.42967 3515.497,1698.63281 C3515.1845,1698.78906 3514.48138,1699.45312 3513.38763,1700.625 Z M3509.98919,1701.32812 L3509.98919,1701.44531 C3509.98919,1701.60156 3510.1845,1701.67969 3510.57513,1701.67969 C3511.27825,1701.67969 3512.02043,1701.36719 3512.80169,1700.74219 C3512.80169,1700.66406 3512.33294,1700.54688 3511.39544,1700.39062 L3511.04388,1700.39062 C3510.34075,1700.46875 3509.98919,1700.78125 3509.98919,1701.32812 Z M3575.14544,1746.09375 C3574.12981,1748.04688 3573.622,1749.8828 3573.622,1751.60156 L3573.622,1752.53906 L3573.73919,1752.53906 C3574.91107,1750.03905 3575.497,1748.12501 3575.497,1746.79688 L3575.497,1746.5625 C3575.497,1746.40625 3575.37981,1746.25 3575.14544,1746.09375 Z M3573.38763,1753.24219 C3571.51262,1756.28908 3570.57513,1759.49217 3570.57513,1762.85156 L3570.57513,1764.14062 L3570.69231,1764.14062 C3572.56732,1761.32811 3573.50481,1757.85158 3573.50481,1753.71094 L3573.50481,1753.24219 L3573.38763,1753.24219 Z M3569.05169,1769.0625 C3568.34856,1770.46876 3567.997,1771.83593 3567.997,1773.16406 C3568.07513,1773.78907 3568.11419,1774.25781 3568.11419,1774.57031 C3568.89544,1773.32031 3569.28606,1772.10938 3569.28606,1770.9375 L3569.28606,1770.23438 C3569.28606,1769.92187 3569.247,1769.53125 3569.16888,1769.0625 L3569.05169,1769.0625 Z M3567.0595,1778.08594 C3565.80949,1780.50782 3565.1845,1782.77343 3565.1845,1784.88281 L3565.1845,1786.17188 L3565.30169,1786.17188 C3566.55169,1783.59374 3567.17669,1781.0547 3567.17669,1778.55469 C3567.09856,1778.39844 3567.0595,1778.24219 3567.0595,1778.08594 Z M3673.99881,1689.14062 C3680.32697,1689.53125 3683.491,1689.84375 3683.491,1690.07812 C3684.74101,1690.46875 3685.75662,1691.24999 3686.53788,1692.42188 C3687.86601,1694.29688 3688.53006,1697.07029 3688.53006,1700.74219 C3688.53006,1703.2422 3688.25663,1705.8203 3687.70975,1708.47656 C3685.28786,1714.17972 3683.33476,1719.10154 3681.85038,1723.24219 C3679.74099,1729.57034 3677.6707,1736.71871 3675.63944,1744.6875 C3675.40506,1747.26564 3675.09257,1749.02343 3674.70194,1749.96094 C3673.68631,1751.6797 3672.39726,1752.53906 3670.83475,1752.53906 C3670.6785,1752.53906 3670.28788,1752.46094 3669.66288,1752.30469 C3669.4285,1752.38281 3669.27225,1752.42188 3669.19413,1752.42188 L3672.00663,1735.89844 L3672.00663,1735.78125 C3670.83475,1739.29689 3669.42851,1744.72653 3667.78788,1752.07031 L3667.67069,1752.1875 C3664.9363,1752.1875 3663.06132,1751.0547 3662.04569,1748.78906 C3661.49881,1748.00781 3660.91288,1747.26563 3660.28788,1746.5625 C3659.66287,1745.23437 3659.35038,1742.61721 3659.35038,1738.71094 C3659.35038,1733.32029 3659.81912,1726.6016 3660.75663,1718.55469 C3653.33471,1723.39846 3646.57697,1728.2031 3640.48319,1732.96875 C3635.63941,1736.64064 3629.35041,1742.07028 3621.616,1749.25781 L3621.14725,1749.14062 L3620.6785,1749.14062 C3620.44412,1749.14062 3620.24881,1749.29687 3620.09256,1749.60938 L3620.20975,1750.54688 C3618.02224,1752.57814 3615.4832,1755.03905 3612.59256,1757.92969 C3615.7957,1761.0547 3618.13943,1763.04687 3619.62381,1763.90625 C3622.6707,1765.62501 3625.36599,1767.34374 3627.70975,1769.0625 C3630.05351,1770.70313 3632.90505,1772.89061 3636.26444,1775.625 C3641.26446,1779.76565 3643.99881,1782.07031 3644.46756,1782.53906 C3645.17069,1783.94532 3646.73318,1786.05467 3649.15506,1788.86719 C3649.70194,1789.41407 3650.99099,1791.01561 3653.02225,1793.67188 C3654.11601,1794.84376 3655.20975,1796.52343 3656.3035,1798.71094 C3656.38163,1798.71094 3656.73319,1799.29687 3657.35819,1800.46875 L3657.47538,1800.46875 C3655.20974,1795.7031 3654.07694,1793.28125 3654.07694,1793.20312 C3656.03007,1795.85939 3657.51443,1798.24218 3658.53006,1800.35156 C3661.49883,1806.36722 3662.98319,1812.18747 3662.98319,1817.8125 L3662.98319,1819.57031 L3662.866,1819.57031 C3662.78788,1819.25781 3662.59257,1818.86719 3662.28006,1818.39844 C3662.28006,1818.71094 3661.88944,1819.25781 3661.10819,1820.03906 C3660.87381,1820.03906 3660.56132,1821.17186 3660.17069,1823.4375 C3659.93631,1824.21875 3659.81913,1825.5078 3659.81913,1827.30469 C3659.50662,1830.19533 3659.15507,1832.14843 3658.76444,1833.16406 C3658.60819,1834.02344 3658.53006,1835.15624 3658.53006,1836.5625 C3658.37381,1837.34375 3657.74882,1838.35937 3656.65506,1839.60938 C3656.42069,1840.39063 3655.09258,1842.22655 3652.67069,1845.11719 L3653.02225,1845.46875 C3649.74098,1848.51564 3646.81133,1850.93749 3644.23319,1852.73438 C3637.74878,1857.50002 3633.17851,1860.11719 3630.52225,1860.58594 C3628.95974,1860.89844 3627.866,1861.05469 3627.241,1861.05469 L3626.77225,1859.64844 C3625.991,1860.03906 3625.32694,1860.27344 3624.78006,1860.35156 L3624.54569,1860.82031 C3625.24882,1860.97656 3625.91287,1861.05469 3626.53788,1861.05469 L3626.53788,1861.17188 C3626.3035,1861.17188 3624.81914,1861.91406 3622.08475,1863.39844 C3621.45975,1863.86719 3618.64728,1864.76562 3613.64725,1866.09375 C3610.75661,1866.71875 3608.41288,1867.03125 3606.616,1867.03125 L3606.26444,1867.03125 C3605.32693,1867.03125 3604.42851,1866.91406 3603.56913,1866.67969 C3602.08474,1866.91406 3600.79569,1867.03125 3599.70194,1867.03125 L3599.46756,1867.03125 C3594.07691,1867.03125 3589.66289,1863.04691 3586.22538,1855.07812 C3585.44412,1852.81249 3584.741,1850.4297 3584.116,1847.92969 C3583.41287,1844.49217 3583.06131,1842.07032 3583.06131,1840.66406 L3583.1785,1840.66406 C3585.75664,1842.38282 3588.88161,1843.24219 3592.5535,1843.24219 C3598.88166,1843.24219 3606.2644,1840.93752 3614.70194,1836.32812 C3617.12383,1834.99999 3619.81911,1833.2422 3622.78788,1831.05469 C3626.92852,1827.61717 3630.60036,1824.37502 3633.8035,1821.32812 C3633.8035,1821.25 3634.27225,1820.70313 3635.20975,1819.6875 C3637.86601,1816.71874 3639.62381,1813.98439 3640.48319,1811.48438 C3641.03007,1810.07812 3641.3035,1808.5547 3641.3035,1806.91406 C3641.22538,1806.21093 3641.18631,1805.70313 3641.18631,1805.39062 C3639.62381,1802.65624 3638.56913,1800.9375 3638.02225,1800.23438 C3635.83474,1798.35937 3633.6082,1796.79688 3631.34256,1795.54688 C3630.01443,1794.76562 3625.20979,1791.95315 3616.9285,1787.10938 C3613.10036,1784.76561 3609.78008,1782.50001 3606.96756,1780.3125 C3601.26441,1775.85935 3598.10038,1772.10939 3597.47538,1769.0625 L3597.12381,1766.83594 C3594.70193,1764.72655 3593.1785,1763.08594 3592.5535,1761.91406 C3591.38162,1760.11718 3590.79569,1758.00782 3590.79569,1755.58594 C3590.79569,1748.63278 3591.61599,1743.63283 3593.25663,1740.58594 C3594.35038,1737.85155 3596.77223,1734.41408 3600.52225,1730.27344 C3602.31913,1728.3203 3603.84256,1726.875 3605.09256,1725.9375 C3610.79572,1721.56248 3616.81128,1717.50002 3623.13944,1713.75 C3632.20198,1708.12497 3640.6394,1703.47658 3648.45194,1699.80469 C3651.4207,1698.47656 3654.19411,1697.38282 3656.77225,1696.52344 C3658.88164,1695.89843 3660.99099,1695.58594 3663.10038,1695.58594 C3664.42851,1695.58594 3665.87381,1695.70312 3667.43631,1695.9375 C3667.67069,1694.45312 3668.06131,1693.12501 3668.60819,1691.95312 C3669.23319,1690.78124 3670.09256,1690 3671.18631,1689.60938 C3672.12382,1689.29687 3673.06131,1689.14062 3673.99881,1689.14062 Z M3641.65506,1707.07031 C3641.73319,1707.61719 3641.96756,1707.89062 3642.35819,1707.89062 C3645.95196,1706.32812 3648.13943,1705.07813 3648.92069,1704.14062 L3649.03788,1704.02344 C3648.72537,1703.71094 3648.53006,1703.55469 3648.45194,1703.55469 C3645.79568,1704.33594 3643.53007,1705.5078 3641.65506,1707.07031 Z M3638.72538,1708.35938 L3639.54569,1708.00781 L3639.54569,1707.77344 C3639.54569,1707.69531 3639.46756,1707.65625 3639.31131,1707.65625 C3638.99881,1707.65625 3638.8035,1707.89062 3638.72538,1708.35938 Z M3601.81131,1738.00781 C3602.74882,1738.00781 3603.64725,1737.57813 3604.50663,1736.71875 C3604.66288,1736.5625 3605.40506,1735.58595 3606.73319,1733.78906 C3611.73321,1728.86716 3615.71755,1725.27345 3618.68631,1723.00781 C3622.35821,1720.11717 3625.52224,1717.85157 3628.1785,1716.21094 C3630.44414,1715.03906 3633.49098,1712.81252 3637.31913,1709.53125 L3638.25663,1708.59375 L3637.78788,1708.59375 C3636.69413,1708.59375 3635.52226,1709.14062 3634.27225,1710.23438 C3628.41285,1713.67189 3622.59259,1717.61717 3616.81131,1722.07031 C3615.63943,1723.16407 3614.50663,1724.21874 3613.41288,1725.23438 C3611.69412,1726.56251 3610.1707,1727.85156 3608.84256,1729.10156 C3606.42068,1731.44532 3604.66288,1733.39843 3603.56913,1734.96094 C3602.31912,1736.83595 3601.69413,1737.85156 3601.69413,1738.00781 L3601.81131,1738.00781 Z M3670.71756,1750.07812 C3671.88944,1750 3672.47538,1749.92188 3672.47538,1749.84375 C3672.47538,1749.76562 3672.59256,1749.29688 3672.82694,1748.4375 L3672.59256,1748.32031 C3672.43631,1748.32031 3671.85038,1748.82812 3670.83475,1749.84375 C3670.83475,1749.84375 3670.79569,1749.92187 3670.71756,1750.07812 Z M3631.22538,1779.49219 C3633.41289,1781.28907 3635.40505,1782.34375 3637.20194,1782.65625 C3636.42068,1781.32812 3635.09257,1780.39063 3633.21756,1779.84375 C3632.28006,1779.60937 3631.616,1779.49219 3631.22538,1779.49219 Z M3637.5535,1782.89062 C3637.5535,1783.59375 3637.98318,1784.21875 3638.84256,1784.76562 C3642.43633,1788.20314 3644.50662,1790.39062 3645.0535,1791.32812 C3647.16289,1793.82814 3648.92068,1796.28905 3650.32694,1798.71094 C3651.7332,1801.3672 3652.67069,1802.89062 3653.13944,1803.28125 C3653.45194,1803.59375 3653.95975,1803.82812 3654.66288,1803.98438 C3654.66288,1803.28125 3654.38944,1802.42188 3653.84256,1801.40625 C3652.1238,1798.04686 3649.66289,1794.45314 3646.45975,1790.625 C3643.25661,1787.03123 3641.03007,1784.84375 3639.78006,1784.0625 C3639.31131,1783.75 3638.56913,1783.35938 3637.5535,1782.89062 Z M3638.13944,1850.27344 C3638.13944,1850.82032 3638.41287,1851.17187 3638.95975,1851.32812 C3639.19413,1851.48438 3639.38944,1851.5625 3639.54569,1851.5625 C3642.43633,1850.15624 3645.40505,1848.32032 3648.45194,1846.05469 C3652.59258,1842.6953 3655.32693,1839.29689 3656.65506,1835.85938 C3656.34256,1835.54687 3655.991,1835.23438 3655.60038,1834.92188 L3655.48319,1834.92188 C3653.3738,1837.18751 3650.20977,1840.42967 3645.991,1844.64844 C3644.74099,1845.97657 3643.21757,1847.10937 3641.42069,1848.04688 C3640.17068,1848.82813 3639.11601,1849.53125 3638.25663,1850.15625 L3638.13944,1850.27344 Z" id="sarts"></path>
        </g>
    </g>
</svg>