<?xml version="1.0" encoding="UTF-8"?>
<svg width="1065px" height="260px" viewBox="0 0 1065 260" version="1.1" xmlns="http://www.w3.org/2000/svg" xmlns:xlink="http://www.w3.org/1999/xlink">
    <!-- Generator: Sketch 54.1 (76490) - https://sketchapp.com -->
    <title>Backofice</title>
    <desc>Created with Sketch.</desc>
    <g id="Page-1" stroke="none" stroke-width="1" fill="none" fill-rule="evenodd">
        <g id="Artboard" transform="translate(-2117.000000, -2829.000000)" fill-rule="nonzero" stroke="#F0BA41">
            <path d="M2187.39512,2861.87012 C2194.33851,2861.87012 2204.62161,2864.5947 2218.24473,2870.04395 C2220.61779,2871.09864 2223.4742,2872.90038 2226.81406,2875.44922 C2230.68127,2878.87697 2233.4498,2881.68944 2235.11973,2883.88672 C2235.64707,2885.73243 2236.08652,2888.41307 2236.43809,2891.92871 C2237.22911,2892.89551 2237.62461,2893.81835 2237.62461,2894.69727 L2237.49277,2894.69727 C2236.43808,2893.20312 2235.69102,2892.45605 2235.25156,2892.45605 C2235.07578,2892.54395 2234.94395,2892.63184 2234.85605,2892.71973 C2234.85605,2892.89551 2234.9,2893.02734 2234.98789,2893.11523 C2234.9,2893.4668 2234.85605,2893.77441 2234.85605,2894.03809 L2234.85605,2894.30176 C2235.11973,2897.37795 2235.25156,2899.39941 2235.25156,2900.36621 L2235.25156,2901.02539 C2235.25156,2904.98049 2234.59239,2909.46287 2233.27402,2914.47266 C2231.86777,2918.60354 2230.50548,2921.54784 2229.18711,2923.30566 C2227.86874,2925.32716 2227.07774,2927.30468 2226.81406,2929.23828 C2226.72617,2929.23828 2226.68223,2929.63379 2226.68223,2930.4248 C2229.49474,2927.43651 2231.1207,2925.19532 2231.56016,2923.70117 C2231.91172,2922.82226 2232.83456,2920.97658 2234.32871,2918.16406 C2235.03184,2916.58202 2235.69101,2914.47267 2236.30625,2911.83594 C2236.74571,2911.30859 2237.14121,2910.12208 2237.49277,2908.27637 C2238.02012,2904.32127 2238.54746,2901.15724 2239.0748,2898.78418 C2239.25059,2898.6084 2239.33848,2898.25684 2239.33848,2897.72949 L2239.47031,2897.72949 C2241.22813,2899.5752 2242.10703,2902.2119 2242.10703,2905.63965 C2242.10703,2909.15529 2241.35997,2913.41794 2239.86582,2918.42773 C2237.05331,2926.07426 2231.0768,2936.70892 2221.93613,2950.33203 C2218.77205,2954.72658 2215.69591,2958.59373 2212.70762,2961.93359 C2211.30136,2963.42774 2210.46641,2964.1748 2210.20273,2964.1748 C2209.93906,2964.2627 2209.80723,2964.35059 2209.80723,2964.43848 L2209.80723,2964.57031 C2210.0709,2964.92188 2210.29062,2965.58105 2210.46641,2966.54785 C2211.78477,2967.42676 2212.53184,2967.9541 2212.70762,2968.12988 C2213.05918,2968.48145 2213.80624,2969.44823 2214.94883,2971.03027 C2217.40978,2973.40333 2218.64023,2974.76562 2218.64023,2975.11719 C2218.81602,2976.61134 2219.03574,2977.3584 2219.29941,2977.3584 C2220.70567,2979.292 2223.34236,2983.29099 2227.20957,2989.35547 C2228.52794,2990.84962 2229.275,2992.08007 2229.45078,2993.04688 C2229.89024,2994.98048 2230.32969,2996.29882 2230.76914,2997.00195 C2231.56016,2998.05665 2232.74667,2998.84765 2234.32871,2999.375 C2234.85606,3001.83595 2235.11973,3004.16503 2235.11973,3006.3623 L2235.11973,3007.8125 C2235.11973,3016.16215 2232.52698,3025.25874 2227.34141,3035.10254 C2225.4078,3038.61818 2222.77111,3042.48533 2219.43125,3046.7041 C2218.37656,3048.02247 2215.8717,3050.61522 2211.9166,3054.48242 L2207.17051,3058.56934 C2200.49079,3063.75491 2194.3385,3068.01756 2188.71348,3071.35742 C2180.45172,3076.27932 2172.58558,3080.14647 2165.11484,3082.95898 C2162.74179,3084.01368 2159.48986,3085.02441 2155.35898,3085.99121 C2151.84334,3086.78223 2149.6461,3087.17773 2148.76719,3087.17773 C2147.80039,3085.94726 2146.96543,3084.54102 2146.2623,3082.95898 L2145.99863,3082.16797 C2145.3834,3082.51953 2144.41661,3083.35449 2143.09824,3084.67285 C2142.39511,3085.2002 2141.42833,3086.21093 2140.19785,3087.70508 C2135.01228,3087.70508 2130.31018,3086.43068 2126.09141,3083.88184 C2123.45467,3082.03612 2121.60899,3080.01466 2120.5543,3077.81738 C2119.76328,3076.32323 2118.92833,3073.90627 2118.04941,3070.56641 C2119.36778,3067.13865 2120.20273,3065.24903 2120.5543,3064.89746 C2121.08164,3064.37011 2121.47715,3063.84278 2121.74082,3063.31543 L2121.74082,3062.78809 L2121.60898,3062.65625 L2121.74082,3062.52441 C2122.61973,3063.05176 2124.33358,3063.62304 2126.88242,3064.23828 C2128.46446,3064.50195 2130.13437,3064.72168 2131.89219,3064.89746 C2135.58361,3064.89746 2142.35112,3062.96389 2152.19492,3059.09668 C2162.2145,3054.79002 2171.17926,3050.17581 2179.08945,3045.25391 C2182.07775,3043.3203 2185.066,3041.12306 2188.0543,3038.66211 C2191.39416,3035.14647 2193.98691,3032.07033 2195.83262,3029.43359 C2198.64513,3025.4785 2200.71054,3022.13869 2202.02891,3019.41406 C2205.54455,3012.55856 2207.30234,3006.626 2207.30234,3001.61621 L2207.30234,3000.29785 C2207.30234,2994.58493 2204.88538,2989.70705 2200.05137,2985.66406 C2198.55722,2984.60937 2197.15098,2983.73047 2195.83262,2983.02734 C2195.92051,2982.85156 2195.96445,2982.5 2195.96445,2981.97266 C2193.85507,2980.91796 2192.317,2980.39062 2191.3502,2980.39062 C2190.73496,2980.39062 2189.85606,2980.5664 2188.71348,2980.91797 C2188.62559,2980.91797 2188.44981,2980.39063 2188.18613,2979.33594 L2188.58164,2979.33594 C2188.84531,2979.16016 2188.97715,2978.94043 2188.97715,2978.67676 L2188.97715,2978.41309 C2188.97715,2978.06152 2188.84531,2977.8418 2188.58164,2977.75391 C2188.23008,2977.75391 2188.01035,2978.01758 2187.92246,2978.54492 L2187.92246,2979.07227 L2187.39512,2978.94043 L2186.20859,2978.94043 C2185.76914,2978.94043 2185.19786,2978.98437 2184.49473,2979.07227 C2183.70371,2978.80859 2183.22031,2978.67676 2183.04453,2978.67676 C2182.25351,2979.11621 2181.19884,2979.46777 2179.88047,2979.73145 C2179.44101,2979.73145 2176.27698,2981.26952 2170.38828,2984.3457 L2168.80625,2984.87305 L2167.8834,2984.74121 C2167.26816,2985.44434 2165.29064,2986.23535 2161.95078,2987.11426 C2161.59922,2987.29004 2160.8961,2987.50976 2159.84141,2987.77344 C2159.84141,2987.68555 2159.9293,2987.50977 2160.10508,2987.24609 L2159.97324,2987.24609 C2159.18222,2987.50977 2157.99571,2987.99316 2156.41367,2988.69629 C2155.71054,2988.69629 2155.35898,2988.87207 2155.35898,2989.22363 C2147.88824,3013.21789 2144.15293,3028.42282 2144.15293,3034.83887 C2144.15293,3035.89356 2144.50449,3037.73924 2145.20762,3040.37598 C2145.55918,3042.04591 2145.73496,3043.54003 2145.73496,3044.8584 C2145.73496,3047.05568 2145.42735,3048.1543 2144.81211,3048.1543 C2143.23007,3048.85743 2142.39512,3049.20898 2142.30723,3049.20898 C2139.67049,3046.57225 2137.73692,3044.37501 2136.50645,3042.61719 C2129.91462,3033.6523 2126.61875,3026.35745 2126.61875,3020.73242 C2126.61875,3012.47066 2128.24471,2998.71592 2131.49668,2979.46777 C2132.37559,2974.98533 2133.29843,2971.07424 2134.26523,2967.73438 C2136.81408,2964.83397 2138.08848,2963.03223 2138.08848,2962.3291 L2138.08848,2962.19727 C2138.08848,2961.58203 2137.47325,2960.87891 2136.24277,2960.08789 C2136.41856,2959.38476 2138.6158,2950.85946 2142.83457,2934.51172 C2147.40491,2916.93351 2149.69004,2907.88086 2149.69004,2907.35352 C2150.92051,2899.17965 2152.10703,2893.81837 2153.24961,2891.26953 C2153.42539,2891.09375 2153.86484,2890.2588 2154.56797,2888.76465 C2157.11681,2884.63377 2161.5113,2879.05277 2167.75156,2872.02148 C2168.89415,2870.26366 2169.90488,2868.85743 2170.78379,2867.80273 L2171.97031,2866.87988 L2172.10215,2866.87988 L2172.10215,2867.40723 C2172.10215,2867.49512 2172.0582,2867.62695 2171.97031,2867.80273 C2173.37657,2866.2207 2174.34336,2865.25391 2174.8707,2864.90234 C2176.01329,2864.11132 2177.11191,2863.62793 2178.1666,2863.45215 C2181.94592,2862.39746 2185.02206,2861.87012 2187.39512,2861.87012 Z M2170.91563,2927.52441 L2171.44297,2926.99707 L2171.5748,2926.99707 L2171.5748,2927.12891 L2171.83848,2929.63379 C2171.83848,2929.89746 2171.61875,2930.99608 2171.1793,2932.92969 C2171.1793,2933.28125 2171.00352,2933.98437 2170.65195,2935.03906 L2170.65195,2935.30273 C2170.65195,2935.6543 2170.78379,2936.0498 2171.04746,2936.48926 C2170.52011,2938.95021 2170.03672,2940.44433 2169.59727,2940.97168 C2168.63046,2942.29005 2168.14707,2943.03711 2168.14707,2943.21289 C2168.14707,2943.82813 2168.01524,2944.97069 2167.75156,2946.64062 C2167.75156,2950.41994 2167.35606,2952.74902 2166.56504,2953.62793 C2166.56504,2953.97949 2165.6422,2955.16601 2163.79648,2957.1875 L2163.92832,2957.1875 C2171.92641,2955.51757 2178.12263,2953.80372 2182.51719,2952.0459 C2185.59338,2950.90331 2188.3619,2949.36524 2190.82285,2947.43164 C2193.54747,2944.8828 2195.65683,2942.68556 2197.15098,2940.83984 C2200.75451,2936.18162 2204.44588,2930.60062 2208.2252,2924.09668 C2212.18029,2917.32907 2214.90488,2912.80275 2216.39902,2910.51758 C2217.10215,2909.46289 2217.89316,2908.58399 2218.77207,2907.88086 C2218.85996,2907.08984 2218.90391,2906.29883 2218.90391,2905.50781 L2218.90391,2904.32129 C2218.90391,2899.57517 2216.92639,2894.78518 2212.97129,2889.95117 C2209.71932,2886.6992 2207.21446,2884.50196 2205.45664,2883.35938 C2203.61093,2881.95312 2201.76524,2880.67872 2199.91953,2879.53613 L2199.7877,2879.53613 C2197.7662,2879.53613 2195.70079,2879.09668 2193.59141,2878.21777 L2193.06406,2878.21777 C2191.13046,2878.21777 2188.88927,2879.18456 2186.34043,2881.11816 C2186.34043,2881.7334 2186.16465,2882.12891 2185.81309,2882.30469 C2185.54941,2882.56836 2185.06602,2883.71093 2184.36289,2885.73242 C2184.18711,2886.17188 2183.57188,2886.875 2182.51719,2887.8418 C2180.93515,2889.68751 2179.66075,2891.79686 2178.69395,2894.16992 C2177.46347,2896.71876 2176.84824,2898.47656 2176.84824,2899.44336 C2176.84824,2901.37696 2174.87072,2910.73722 2170.91563,2927.52441 Z M2171.1793,2904.98047 L2171.44297,2907.35352 C2173.02501,2905.85937 2173.81602,2904.10157 2173.81602,2902.08008 C2173.46445,2901.72851 2173.20078,2901.55273 2173.025,2901.55273 C2172.0582,2901.55273 2171.44297,2902.47558 2171.1793,2904.32129 L2171.1793,2904.98047 Z M2169.7291,2915.52734 C2168.23495,2917.46095 2167.31211,2918.95507 2166.96055,2920.00977 C2165.37851,2923.70119 2164.5875,2926.99706 2164.5875,2929.89746 L2164.5875,2931.34766 L2164.71934,2931.34766 C2168.0592,2926.24997 2169.7291,2920.97659 2169.7291,2915.52734 Z M2171.70664,2926.46973 C2171.79453,2926.46973 2171.83848,2926.51367 2171.83848,2926.60156 C2171.75059,2926.77734 2171.6627,2926.86523 2171.5748,2926.86523 L2171.5748,2926.60156 C2171.5748,2926.51367 2171.61875,2926.46973 2171.70664,2926.46973 Z M2217.0582,2946.9043 L2217.0582,2947.03613 C2216.97031,2947.12402 2216.44297,2947.51953 2215.47617,2948.22266 C2214.68515,2949.18946 2214.20176,2949.98047 2214.02598,2950.5957 C2214.20176,2951.21094 2214.46543,2951.51855 2214.81699,2951.51855 C2215.52012,2951.51855 2216.13535,2950.94727 2216.6627,2949.80469 C2216.92637,2949.36523 2217.27793,2948.57422 2217.71738,2947.43164 C2218.59629,2947.08008 2219.69492,2945.89356 2221.01328,2943.87207 C2224.35314,2938.95017 2226.15488,2936.00586 2226.41855,2935.03906 C2227.38536,2932.92968 2228.08847,2931.4795 2228.52793,2930.68848 C2226.77011,2931.65528 2225.36387,2933.28124 2224.30918,2935.56641 C2223.25449,2937.23634 2222.02403,2938.95019 2220.61777,2940.70801 C2218.68417,2942.37794 2217.58555,2943.82812 2217.32188,2945.05859 C2217.14609,2945.67383 2217.0582,2946.28906 2217.0582,2946.9043 Z M2161.81895,2940.18066 C2161.64316,2940.88379 2161.20371,2941.98241 2160.50059,2943.47656 C2160.06113,2944.97071 2159.84141,2946.50878 2159.84141,2948.09082 L2159.84141,2948.75 C2159.84141,2949.36524 2159.88535,2950.28808 2159.97324,2951.51855 L2160.10508,2951.51855 C2161.59923,2949.0576 2162.34629,2946.64064 2162.34629,2944.26758 L2162.34629,2943.47656 C2162.34629,2942.59765 2162.17051,2941.49903 2161.81895,2940.18066 Z M2138.08848,2962.85645 C2139.93419,2964.79005 2141.1207,2966.54784 2141.64805,2968.12988 C2142.0875,2969.9756 2142.5709,2970.89844 2143.09824,2970.89844 C2143.36192,2971.07422 2143.75742,2971.16211 2144.28477,2971.16211 L2144.54844,2971.16211 C2145.07578,2971.16211 2145.3834,2970.15138 2145.47129,2968.12988 L2146.65781,2954.81445 C2146.56992,2952.88085 2146.21836,2951.91406 2145.60313,2951.91406 C2145.51523,2951.73828 2145.25157,2951.65039 2144.81211,2951.65039 C2143.84531,2952.35352 2143.14219,2953.4082 2142.70273,2954.81445 C2142.70273,2956.39649 2142.26329,2958.0664 2141.38438,2959.82422 C2140.32968,2960.9668 2139.23106,2961.97753 2138.08848,2962.85645 Z M2209.93906,2954.81445 L2209.93906,2955.20996 C2209.93906,2955.56153 2210.11484,2955.7373 2210.46641,2955.7373 C2210.73008,2955.56152 2210.86191,2955.3418 2210.86191,2955.07812 L2210.86191,2954.81445 C2210.86191,2954.28711 2210.77402,2954.02344 2210.59824,2954.02344 C2210.15879,2954.02344 2209.93906,2954.28711 2209.93906,2954.81445 Z M2156.15,2958.6377 C2156.15,2959.34082 2156.45761,2959.69238 2157.07285,2959.69238 C2157.51231,2959.69238 2157.77598,2959.25293 2157.86387,2958.37402 C2157.86387,2957.84668 2157.68809,2957.36328 2157.33652,2956.92383 C2156.5455,2956.92383 2156.15,2957.49511 2156.15,2958.6377 Z M2205.72031,2963.91113 L2205.72031,2964.1748 C2205.72031,2964.52637 2205.94004,2964.70215 2206.37949,2964.70215 C2206.55527,2964.43848 2206.64316,2964.21875 2206.64316,2964.04297 L2206.64316,2963.64746 C2206.55527,2963.2959 2206.46738,2963.12012 2206.37949,2963.12012 L2206.11582,2963.12012 C2205.85215,2963.20801 2205.72031,2963.47168 2205.72031,2963.91113 Z M2155.75449,2966.15234 C2155.05136,2967.99806 2154.6998,2969.66796 2154.6998,2971.16211 C2154.6998,2971.77735 2154.83164,2972.78808 2155.09531,2974.19434 C2155.97422,2972.08495 2156.41367,2969.9756 2156.41367,2967.86621 C2156.41367,2967.16308 2156.19395,2966.5918 2155.75449,2966.15234 Z M2152.32676,2976.56738 C2150.21737,2981.22561 2148.2838,2986.85055 2146.52598,2993.44238 C2145.91074,2995.99122 2145.03184,3000.03415 2143.88926,3005.57129 L2141.38438,3015.19531 C2140.94492,3017.3047 2140.7252,3019.50194 2140.7252,3021.78711 L2140.7252,3022.18262 C2140.7252,3023.06153 2140.76914,3024.24804 2140.85703,3025.74219 L2140.98887,3025.74219 C2144.41662,3015.72261 2147.49276,3003.54988 2150.21738,2989.22363 C2150.92051,2985.88377 2151.62363,2981.70901 2152.32676,2976.69922 L2152.32676,2976.56738 Z M2229.45078,3014.66797 C2228.13242,3018.18361 2226.33068,3021.96287 2224.04551,3026.00586 C2222.1998,3029.16994 2219.07971,3033.47654 2214.68516,3038.92578 C2211.78475,3042.52931 2206.99476,3047.84664 2200.31504,3054.87793 L2197.28281,3058.56934 C2203.96253,3056.28417 2211.34527,3049.5606 2219.43125,3038.39844 C2225.14417,3029.9609 2228.39609,3023.1055 2229.18711,3017.83203 C2229.36289,3016.60156 2229.45078,3015.59082 2229.45078,3014.7998 L2229.45078,3014.66797 Z M2206.11582,3039.45312 C2204.97324,3040.24414 2204.09434,3041.56249 2203.4791,3043.4082 C2205.32481,3042.70507 2206.46738,3041.82618 2206.90684,3040.77148 C2206.90684,3040.68359 2206.95078,3040.5957 2207.03867,3040.50781 C2207.03867,3039.80468 2206.73106,3039.45312 2206.11582,3039.45312 Z M2193.72324,3054.74609 C2196.71154,3053.25195 2199.52401,3050.26369 2202.16074,3045.78125 C2202.6002,3044.99023 2202.86387,3044.41895 2202.95176,3044.06738 C2198.82088,3046.79201 2195.74474,3050.35154 2193.72324,3054.74609 Z M2186.07676,3061.60156 C2187.57091,3061.07422 2189.28476,3059.84376 2191.21836,3057.91016 L2193.1959,3055.40527 L2193.1959,3055.27344 L2193.06406,3055.27344 C2192.62461,3055.27344 2191.52599,3055.80078 2189.76816,3056.85547 C2187.92245,3058.43751 2186.73594,3059.88769 2186.20859,3061.20605 C2186.1207,3061.38184 2186.07676,3061.51367 2186.07676,3061.60156 Z M2192.93223,3061.46973 C2192.93223,3062.26075 2193.1959,3062.65625 2193.72324,3062.65625 C2194.07481,3062.56836 2194.69003,3061.90919 2195.56895,3060.67871 L2195.83262,3060.01953 C2195.74473,3059.75586 2195.39317,3059.62402 2194.77793,3059.62402 C2193.98691,3059.8877 2193.37168,3060.41504 2192.93223,3061.20605 L2192.93223,3061.46973 Z M2146.13047,3082.03613 L2146.2623,3082.03613 C2153.99672,3082.03613 2167.8833,3076.93853 2187.92246,3066.74316 C2188.88926,3066.47949 2189.63633,3065.90821 2190.16367,3065.0293 C2190.25156,3064.67773 2190.33945,3064.23828 2190.42734,3063.71094 C2181.28667,3066.78712 2172.67348,3070.17088 2164.5875,3073.8623 C2160.6324,3075.53223 2156.67736,3077.02636 2152.72227,3078.34473 C2150.4371,3079.22364 2148.23985,3080.45409 2146.13047,3082.03613 Z M2323.91767,2877.55859 C2325.93916,2877.55859 2328.92741,2879.53611 2332.88251,2883.49121 L2333.40985,2883.49121 C2335.51924,2883.49121 2338.19988,2885.38084 2341.45184,2889.16016 C2342.50654,2889.95118 2344.39617,2890.91796 2347.12079,2892.06055 C2347.9997,2892.58789 2348.43915,2893.11523 2348.43915,2893.64258 C2348.08759,2894.69727 2347.77997,2895.66406 2347.5163,2896.54297 C2346.72528,2900.23439 2345.84638,2906.82612 2344.87958,2916.31836 L2344.87958,2917.24121 C2344.87958,2925.59086 2346.54948,2952.35329 2349.88934,2997.5293 C2350.41669,3004.20902 2350.68036,3008.73534 2350.68036,3011.1084 C2350.68036,3014.27248 2350.28486,3016.20605 2349.49384,3016.90918 C2348.8786,3017.17285 2348.43915,3017.30469 2348.17548,3017.30469 L2348.30731,3017.17285 C2345.31902,3016.46972 2343.03388,3015.72266 2341.45184,3014.93164 C2339.60613,3013.78906 2336.35421,3011.72365 2331.69599,3008.73535 C2330.81707,3008.2959 2330.1579,3007.63672 2329.71845,3006.75781 C2328.92743,3005.08788 2327.82881,3003.46192 2326.42255,3001.87988 C2326.51044,3001.35254 2327.03778,2999.9463 2328.00458,2997.66113 L2328.00458,2997.26562 C2328.00458,2997.00195 2327.78485,2996.21094 2327.3454,2994.89258 L2327.3454,2994.62891 L2327.87274,2990.9375 C2328.22431,2990.14648 2328.40009,2989.31153 2328.40009,2988.43262 C2328.40009,2987.55371 2328.04853,2986.45508 2327.3454,2985.13672 C2326.99384,2984.43359 2326.81806,2983.81836 2326.81806,2983.29102 L2327.3454,2982.10449 L2327.3454,2981.97266 C2327.25751,2981.79687 2327.08173,2981.09376 2326.81806,2979.86328 C2326.55438,2979.77539 2326.33466,2979.73145 2326.15888,2979.73145 C2324.31316,2979.73145 2318.16088,2982.36814 2307.70184,2987.6416 C2298.20961,2992.47561 2290.12375,2996.21092 2283.44403,2998.84766 C2280.19206,3000.07813 2277.68721,3000.69336 2275.92938,3000.69336 L2274.08368,3000.69336 C2273.46844,3001.66016 2271.44698,3005.17575 2268.01923,3011.24023 C2265.20671,3016.42581 2262.52608,3021.83103 2259.97724,3027.45605 C2258.21941,3031.49904 2256.59345,3036.24509 2255.09931,3041.69434 C2254.74774,3043.80372 2254.57196,3045.95702 2254.57196,3048.1543 C2254.57196,3048.76953 2254.65985,3050.791 2254.83563,3054.21875 C2254.83563,3054.65821 2254.65985,3054.92187 2254.30829,3055.00977 C2253.86883,3055.00977 2252.11104,3054.43848 2249.03485,3053.2959 C2247.27703,3052.50488 2244.55245,3050.74708 2240.86102,3048.02246 L2237.43329,3045.78125 C2236.3786,3043.93554 2235.85126,3041.87013 2235.85126,3039.58496 L2235.85126,3038.79395 C2235.85126,3032.3779 2239.3229,3022.75397 2246.2663,3009.92188 C2247.58466,3007.37303 2255.58263,2991.81655 2270.26044,2963.25195 C2283.53199,2937.41198 2290.65106,2923.65723 2291.61786,2921.9873 C2296.45187,2913.98922 2303.87855,2902.34383 2313.89813,2887.05078 C2314.95283,2885.11718 2316.62273,2882.91993 2318.9079,2880.45898 C2321.01729,2878.52538 2322.68719,2877.55859 2323.91767,2877.55859 Z M2304.14227,2935.30273 C2307.48213,2931.17185 2310.47039,2926.82131 2313.10712,2922.25098 C2315.56807,2917.76853 2317.28192,2914.29689 2318.24872,2911.83594 C2315.61199,2914.47267 2313.67841,2916.80175 2312.44794,2918.82324 C2311.48114,2920.40528 2310.0749,2922.82225 2308.22919,2926.07422 C2305.76824,2929.41408 2304.49384,2931.87499 2304.40595,2933.45703 C2304.23016,2934.07227 2304.14227,2934.6875 2304.14227,2935.30273 Z M2318.24872,2924.36035 C2314.20573,2930.60062 2311.70087,2934.81932 2310.73407,2937.0166 C2303.96646,2949.32135 2296.67161,2962.15325 2288.84931,2975.5127 C2294.73801,2972.96385 2304.31799,2969.14065 2317.58954,2964.04297 L2322.46747,2962.06543 C2319.74285,2938.68641 2318.38056,2926.29395 2318.38056,2924.8877 L2318.38056,2924.36035 L2318.24872,2924.36035 Z M2339.47431,2925.41504 C2339.12274,2927.61232 2338.94696,2929.54589 2338.94696,2931.21582 L2338.94696,2933.3252 C2338.94696,2935.61036 2339.73797,2937.80761 2341.32001,2939.91699 C2341.75946,2937.8955 2341.97919,2936.1377 2341.97919,2934.64355 C2341.97919,2931.74315 2341.18818,2928.66701 2339.60614,2925.41504 L2339.47431,2925.41504 Z M2341.32001,2944.66309 C2340.70477,2945.36621 2340.39716,2946.15722 2340.39716,2947.03613 C2340.39716,2947.3877 2340.74872,2948.88182 2341.45184,2951.51855 C2341.80341,2953.27638 2341.97919,2954.99023 2341.97919,2956.66016 C2341.8913,2958.68165 2341.84735,2959.95605 2341.84735,2960.4834 L2341.84735,2961.66992 C2341.84735,2963.8672 2342.15497,2967.55857 2342.7702,2972.74414 L2342.7702,2974.32617 L2342.3747,2980.25879 L2342.3747,2980.6543 C2342.3747,2985.5762 2342.85809,2990.71775 2343.82489,2996.0791 C2344.61591,2998.97951 2345.80242,3001.39647 2347.38446,3003.33008 L2347.38446,3003.19824 C2345.71453,2995.63961 2344.87958,2987.46586 2344.87958,2978.67676 C2344.87958,2966.89936 2344.57197,2958.76955 2343.95673,2954.28711 C2343.69305,2948.66208 2343.38544,2945.84961 2343.03388,2945.84961 C2342.41864,2945.05859 2341.84736,2944.66309 2341.32001,2944.66309 Z M2280.0163,2978.01758 C2281.24677,2977.13867 2281.862,2976.04005 2281.862,2974.72168 L2281.862,2974.45801 C2280.63153,2975.60059 2280.0163,2976.7871 2280.0163,2978.01758 Z M2279.75263,2978.28125 L2279.75263,2978.54492 C2279.84052,2978.54492 2279.88446,2978.45703 2279.88446,2978.28125 L2279.75263,2978.28125 Z M2266.56903,3002.53906 C2269.99678,2997.88084 2272.98504,2993.0469 2275.53388,2988.03711 C2278.17061,2982.41208 2279.48895,2979.42383 2279.48895,2979.07227 C2277.1159,2981.44532 2275.44599,2983.51073 2274.47919,2985.26855 C2273.4245,2986.85059 2272.28193,2988.95995 2271.05145,2991.59668 C2270.17254,2993.17872 2269.07392,2995.0244 2267.75556,2997.13379 C2266.96454,2998.9795 2266.56903,3000.78124 2266.56903,3002.53906 Z M2258.3952,3019.01855 C2258.3952,3019.63379 2258.48309,3020.33691 2258.65888,3021.12793 C2261.91085,3017.4365 2263.53681,3012.82229 2263.53681,3007.28516 C2261.95477,3009.39454 2260.68037,3011.5039 2259.71356,3013.61328 C2258.83465,3015.3711 2258.3952,3017.17284 2258.3952,3019.01855 Z M2253.12177,3031.93848 L2253.12177,3032.07031 C2253.12177,3032.77344 2253.16571,3033.38867 2253.2536,3033.91602 C2254.92353,3032.42187 2255.75849,3030.66407 2255.75849,3028.64258 C2255.75849,3027.93945 2255.71454,3027.28028 2255.62665,3026.66504 C2253.95672,3028.15919 2253.12177,3029.91698 2253.12177,3031.93848 Z M2464.92263,2862.5293 C2467.11991,2862.5293 2469.53688,2864.11131 2472.17361,2867.27539 C2477.1834,2872.54885 2479.68826,2875.625 2479.68826,2876.50391 C2479.77615,2877.11914 2479.8201,2877.73437 2479.8201,2878.34961 L2479.8201,2879.27246 C2479.8201,2882.26076 2479.29276,2884.89745 2478.23806,2887.18262 C2477.27126,2888.14942 2476.30448,2889.42382 2475.33767,2891.00586 C2471.73414,2897.07034 2468.30644,2904.18941 2465.05447,2912.36328 L2464.92263,2912.36328 C2465.97733,2907.08982 2467.60329,2902.16799 2469.80056,2897.59766 C2471.73417,2893.55467 2473.00857,2891.22559 2473.62381,2890.61035 C2474.41483,2889.73144 2475.33767,2888.94043 2476.39236,2888.2373 C2476.56814,2887.88574 2476.65603,2887.57813 2476.65603,2887.31445 C2476.56814,2886.52343 2476.39236,2886.12793 2476.12869,2886.12793 L2475.73318,2886.12793 C2474.94216,2886.12793 2473.93143,2886.91894 2472.70096,2888.50098 C2470.50368,2890.96193 2468.65799,2893.42284 2467.16385,2895.88379 C2465.14235,2899.31154 2463.4285,2902.87108 2462.02224,2906.5625 C2460.70388,2909.99025 2459.51737,2913.94529 2458.46267,2918.42773 C2456.79274,2927.04106 2455.38651,2933.50096 2454.24392,2937.80762 C2453.4529,2941.23537 2453.0574,2943.65234 2453.0574,2945.05859 L2453.0574,2946.64062 C2453.0574,2949.18947 2452.70584,2951.73827 2452.00271,2954.28711 C2451.82693,2955.42969 2451.73904,2956.70409 2451.73904,2958.11035 C2451.73904,2960.13185 2451.78299,2962.02148 2451.87088,2963.7793 C2452.57401,2964.48243 2453.14529,2964.83398 2453.58474,2964.83398 C2453.67264,2965.97657 2454.19997,2967.69042 2455.16678,2969.97559 C2455.51834,2970.59082 2455.91384,2971.20605 2456.3533,2971.82129 C2456.00173,2973.40333 2455.82596,2974.76562 2455.82596,2975.9082 C2456.70487,2974.9414 2457.27615,2974.01856 2457.53982,2973.13965 L2457.67166,2973.13965 C2458.63846,2973.84278 2459.91286,2974.45801 2461.4949,2974.98535 C2462.37381,2975.5127 2463.25271,2976.17187 2464.13162,2976.96289 C2463.3406,2977.49024 2461.53886,2978.28124 2458.72635,2979.33594 C2455.91383,2980.30274 2453.36503,2980.78613 2451.07986,2980.78613 L2450.81619,2980.78613 C2447.03687,2980.78613 2443.60917,2979.33595 2440.53299,2976.43555 C2438.68727,2974.85351 2437.23709,2973.35938 2436.1824,2971.95312 C2430.46948,2964.3066 2427.61306,2955.42974 2427.61306,2945.32227 L2427.61306,2944.00391 C2427.61306,2937.32419 2429.19508,2929.28227 2432.35916,2919.87793 C2430.51345,2921.63575 2428.36015,2924.09666 2425.8992,2927.26074 C2419.21948,2935.61039 2413.37481,2944.04781 2408.36502,2952.57324 C2401.86108,2963.47173 2396.58769,2974.10639 2392.54471,2984.47754 C2390.52321,2989.83889 2388.98514,2994.541 2387.93045,2998.58398 C2385.82106,3006.75785 2384.76638,3013.56931 2384.76638,3019.01855 L2384.76638,3019.67773 C2384.76638,3024.42385 2385.73317,3027.71972 2387.66678,3029.56543 C2388.98514,3031.05958 2390.30349,3031.80664 2391.62185,3031.80664 C2392.50076,3031.80664 2393.86306,3031.63086 2395.70877,3031.2793 C2396.14822,3031.36719 2396.41189,3031.41113 2396.49978,3031.41113 C2397.02713,3031.41113 2398.69703,3030.88379 2401.50955,3029.8291 C2402.30057,3029.56543 2403.97047,3029.30176 2406.51931,3029.03809 C2408.45292,3028.59863 2409.63943,3028.02735 2410.07888,3027.32422 C2412.36405,3025.5664 2413.90212,3024.59961 2414.69314,3024.42383 C2412.32008,3024.6875 2410.91385,3024.81934 2410.47439,3024.81934 L2410.47439,3024.6875 C2423.13071,3020.20506 2433.0183,3016.16213 2440.13748,3012.55859 C2444.09258,3010.18554 2448.04761,3008.20802 2452.00271,3006.62598 C2455.25468,3005.30761 2457.36404,3004.64844 2458.33084,3004.64844 C2459.29764,3004.64844 2460.35232,3006.01073 2461.4949,3008.73535 C2462.19803,3010.66895 2462.54959,3011.9873 2462.54959,3012.69043 C2461.4949,3013.48145 2459.07793,3015.50291 2455.29861,3018.75488 C2450.55249,3022.5342 2447.12479,3024.81933 2445.01541,3025.61035 C2444.04861,3026.04981 2443.21365,3026.79687 2442.51053,3027.85156 L2443.03787,3027.85156 C2445.23515,3027.85156 2447.95973,3026.62111 2451.2117,3024.16016 C2458.15509,3019.58982 2461.9783,3016.99707 2462.68142,3016.38184 L2463.07693,3015.98633 L2463.07693,3016.25 C2463.78006,3016.60156 2464.13162,3016.95312 2464.13162,3017.30469 C2464.13162,3018.97462 2462.46171,3021.08397 2459.12185,3023.63281 C2457.89138,3024.42383 2457.27615,3024.90723 2457.27615,3025.08301 C2455.69411,3026.84083 2454.02421,3028.3789 2452.26638,3029.69727 C2447.78394,3033.03713 2443.08184,3035.80565 2438.15994,3038.00293 C2431.74389,3040.99123 2423.5262,3043.8037 2413.50662,3046.44043 C2402.78391,3049.16505 2393.51154,3050.52734 2385.68924,3050.52734 C2382.43727,3050.52734 2379.75663,3050.26367 2377.64724,3049.73633 C2375.97731,3050.17578 2374.61502,3050.39551 2373.56033,3050.39551 C2365.65013,3050.39551 2360.64042,3043.1446 2358.53103,3028.64258 C2358.00369,3024.42381 2357.74002,3020.11721 2357.74002,3015.72266 C2357.74002,3006.75777 2359.10231,2997.70512 2361.82693,2988.56445 C2363.23319,2983.55466 2365.12282,2977.79788 2367.49588,2971.29395 C2374.35138,2953.18839 2382.21751,2936.70906 2391.09451,2921.85547 C2395.1375,2914.99997 2400.14721,2907.61723 2406.12381,2899.70703 C2420.09849,2882.39249 2432.8425,2873.73535 2444.35623,2873.73535 C2446.37772,2873.73535 2448.57497,2874.08691 2450.94803,2874.79004 C2451.38748,2873.82324 2454.19995,2870.7471 2459.38553,2865.56152 C2461.14335,2863.71581 2462.54958,2862.74902 2463.60428,2862.66113 C2464.3074,2862.57324 2464.74685,2862.5293 2464.92263,2862.5293 Z M2368.02322,2990.54199 L2368.02322,2990.80566 C2368.11111,2991.15723 2368.24295,2991.33301 2368.41873,2991.33301 C2369.38553,2990.80566 2369.86892,2989.79493 2369.86892,2988.30078 C2370.57205,2986.54296 2371.27517,2984.5215 2371.9783,2982.23633 C2374.8787,2973.79879 2378.21851,2965.53715 2381.99783,2957.45117 C2386.48027,2948.13472 2392.36889,2937.89556 2399.66385,2926.7334 C2402.91582,2921.28415 2406.82691,2915.65921 2411.39724,2909.8584 C2413.50663,2906.95799 2416.97827,2903.0469 2421.81228,2898.125 C2424.00956,2895.92772 2425.63552,2894.12598 2426.69021,2892.71973 C2428.44803,2890.69823 2429.32693,2889.51172 2429.32693,2889.16016 L2429.32693,2888.50098 C2429.32693,2887.88574 2429.06326,2887.57812 2428.53592,2887.57812 C2427.92068,2887.57812 2427.17362,2888.2373 2426.29471,2889.55566 C2424.27321,2891.84083 2421.06523,2895.26853 2416.67068,2899.83887 L2408.49685,2909.33105 C2405.59645,2913.28615 2403.3992,2916.62596 2401.90506,2919.35059 C2401.37771,2920.31739 2399.53203,2923.08591 2396.36795,2927.65625 C2393.20387,2932.40237 2390.83085,2936.35741 2389.24881,2939.52148 C2387.84255,2942.334 2385.55742,2946.59665 2382.39334,2952.30957 C2378.52613,2959.25296 2374.9666,2967.47066 2371.71463,2976.96289 C2371.53884,2977.8418 2370.96756,2979.5996 2370.00076,2982.23633 C2369.5613,2983.55469 2369.07791,2985.66405 2368.55056,2988.56445 C2368.199,2989.26758 2368.02322,2989.92675 2368.02322,2990.54199 Z M2455.03494,2912.09961 L2455.03494,2912.89062 C2456.35331,2911.48437 2457.84743,2908.36428 2459.51736,2903.53027 L2462.28592,2893.90625 L2461.4949,2893.90625 C2460.61599,2894.16992 2459.51737,2895.92772 2458.199,2899.17969 C2457.58376,2901.0254 2457.05643,2902.69531 2456.61697,2904.18945 C2455.56228,2907.26564 2455.03494,2909.90233 2455.03494,2912.09961 Z M2455.03494,2916.97754 C2454.59548,2917.76856 2454.37576,2918.47168 2454.37576,2919.08691 L2454.37576,2920.00977 L2454.5076,2920.27344 C2455.03494,2919.6582 2455.29861,2918.99903 2455.29861,2918.2959 L2455.29861,2917.76855 L2455.16678,2916.97754 L2455.03494,2916.97754 Z M2451.60721,2930.68848 L2451.60721,2931.21582 C2451.60721,2932.00684 2451.73904,2932.66601 2452.00271,2933.19336 C2453.23319,2931.96288 2453.84842,2930.55665 2453.84842,2928.97461 C2453.84842,2928.27148 2453.71658,2927.56836 2453.45291,2926.86523 C2452.22243,2928.09571 2451.60721,2929.37011 2451.60721,2930.68848 Z M2447.38846,2930.95215 L2447.52029,2930.95215 C2447.87186,2930.68848 2448.04763,2930.42481 2448.04763,2930.16113 L2448.04763,2929.63379 C2447.87185,2929.63379 2447.65213,2930.07324 2447.38846,2930.95215 Z M2383.44803,2964.43848 C2385.29374,2962.59276 2386.61208,2960.1758 2387.4031,2957.1875 L2387.27127,2957.1875 C2385.68923,2958.33008 2384.54666,2959.95604 2383.84353,2962.06543 C2383.66775,2962.76856 2383.53592,2963.55957 2383.44803,2964.43848 Z M2381.99783,2968.26172 C2381.99783,2966.94335 2382.43728,2965.84473 2383.31619,2964.96582 C2383.31619,2966.37208 2382.87674,2967.4707 2381.99783,2968.26172 Z M2379.62478,2973.40332 C2379.62478,2972.43652 2380.06423,2971.42579 2380.94314,2970.37109 C2380.94314,2971.25 2380.50369,2972.26074 2379.62478,2973.40332 Z M2378.43826,2975.77637 C2377.82302,2977.00684 2377.51541,2977.88574 2377.51541,2978.41309 L2377.51541,2978.54492 L2377.64724,2978.54492 C2378.17459,2976.96288 2378.43826,2976.04004 2378.43826,2975.77637 Z M2366.57303,2992.7832 L2366.57303,2993.17871 C2366.57303,2993.09082 2366.61697,2993.00293 2366.70486,2992.91504 L2366.70486,2992.7832 L2366.57303,2992.7832 Z M2365.91385,2994.36523 C2365.29861,2996.03516 2364.99099,2997.0459 2364.99099,2997.39746 L2364.99099,2997.5293 C2365.69412,2995.85937 2366.04568,2994.84863 2366.04568,2994.49707 L2366.04568,2994.36523 L2365.91385,2994.36523 Z M2364.59549,2998.32031 C2362.57399,3002.18752 2361.56326,3005.3955 2361.56326,3007.94434 L2361.56326,3008.73535 C2362.79373,3006.80175 2363.71658,3004.209 2364.33181,3000.95703 L2364.72732,2998.45215 L2364.72732,2998.32031 L2364.59549,2998.32031 Z M2395.8406,3033.125 L2394.91775,3033.125 C2394.03884,3033.125 2393.07205,3033.21289 2392.01736,3033.38867 L2392.01736,3033.52051 C2392.89627,3033.95996 2393.46756,3034.17969 2393.73123,3034.17969 C2393.9949,3034.17969 2395.04958,3033.82813 2396.89529,3033.125 L2396.89529,3032.99316 C2396.54373,3033.08106 2396.19217,3033.125 2395.8406,3033.125 Z M2607.64147,2860.41992 C2609.04773,2860.41992 2610.10241,2861.43065 2610.80553,2863.45215 C2611.50866,2865.12208 2612.47545,2866.6162 2613.70592,2867.93457 C2616.07898,2869.95606 2617.26549,2871.71386 2617.26549,2873.20801 L2617.26549,2873.60352 C2617.26549,2877.20705 2612.34367,2884.45795 2602.49987,2895.35645 C2598.80845,2899.66311 2592.65616,2906.56245 2584.04284,2916.05469 C2573.23224,2927.7442 2559.65327,2942.42179 2543.30553,2960.08789 C2549.19424,2970.45904 2553.98423,2978.58884 2557.67565,2984.47754 C2560.57606,2989.04787 2564.09165,2993.66209 2568.22253,2998.32031 C2578.41789,3009.57037 2590.19512,3015.19531 2603.55456,3015.19531 L2604.87292,3015.19531 C2604.96081,3015.19531 2605.00475,3015.2832 2605.00475,3015.45898 C2604.65319,3018.00783 2604.03796,3020.3369 2603.15905,3022.44629 C2599.81919,3028.95023 2593.7548,3032.20215 2584.96569,3032.20215 L2584.70202,3032.20215 C2577.31917,3032.20215 2569.18937,3029.91702 2560.31237,3025.34668 C2557.76353,3023.94042 2554.995,3022.00685 2552.00671,3019.5459 C2547.96372,3015.67869 2545.41491,3013.042 2544.36022,3011.63574 C2538.82308,3005.1318 2533.9452,2998.71585 2529.72643,2992.3877 C2527.96861,2989.83885 2527.00182,2988.30078 2526.82604,2987.77344 C2526.82604,2986.63085 2525.72742,2984.74122 2523.53014,2982.10449 C2522.91491,2980.78613 2522.5194,2979.99512 2522.34362,2979.73145 L2522.07995,2979.59961 L2521.81628,2979.59961 C2521.11315,2980.39063 2520.6737,2980.78613 2520.49792,2980.78613 C2519.88268,2980.78613 2519.3114,2981.18164 2518.78405,2981.97266 C2517.64147,2983.02735 2516.98229,2983.55469 2516.80651,2983.55469 C2516.71862,2983.55469 2516.36706,2983.4668 2515.75182,2983.29102 L2515.61999,2983.29102 C2515.26842,2983.29102 2514.74108,2983.73046 2514.03796,2984.60938 C2512.54381,2985.48829 2511.3573,2987.29003 2510.47839,2990.01465 C2510.47839,2990.19043 2509.95105,2990.27832 2508.89635,2990.27832 C2507.13853,2990.80567 2505.77624,2991.64062 2504.80944,2992.7832 C2502.96373,2994.71681 2501.51355,2997.08983 2500.45885,2999.90234 C2499.93151,3001.48438 2499.40417,3003.85741 2498.87682,3007.02148 L2497.95397,3009.92188 L2498.08581,3009.92188 L2498.61315,3009.79004 L2498.61315,3009.92188 C2497.55846,3012.11915 2497.03112,3013.30566 2497.03112,3013.48145 C2495.88854,3017.70022 2495.31725,3020.16113 2495.31725,3020.86426 L2495.18542,3022.70996 L2495.18542,3023.76465 C2494.74596,3025.96193 2494.52624,3028.99412 2494.52624,3032.86133 C2493.73522,3038.13479 2493.33971,3042.48533 2493.33971,3045.91309 L2493.33971,3047.62695 C2493.33971,3049.20899 2493.47155,3051.49413 2493.73522,3054.48242 C2493.64733,3056.24024 2493.5155,3057.77831 2493.33971,3059.09668 L2493.20788,3059.09668 L2493.20788,3058.83301 L2493.07604,3058.83301 C2493.07604,3058.9209 2492.5487,3059.7998 2491.49401,3061.46973 L2491.36217,3061.46973 L2491.49401,3061.07422 L2491.49401,3060.54688 C2491.49401,3059.22851 2491.14245,3057.82227 2490.43932,3056.32812 L2490.43932,3055.53711 C2490.43932,3055.36133 2490.74694,3055.1416 2491.36217,3054.87793 C2491.53796,3054.87793 2491.66979,3053.12013 2491.75768,3049.60449 C2492.19714,3045.03416 2492.50475,3038.31059 2492.68053,3029.43359 C2492.94421,3025.83006 2493.33971,3022.27053 2493.86706,3018.75488 C2494.3944,3015.85448 2494.92174,3013.48145 2495.44909,3011.63574 C2495.3612,3011.63574 2495.18542,3011.89941 2494.92174,3012.42676 L2494.78991,3012.42676 C2496.02038,3008.20799 2496.7235,3005.79102 2496.89928,3005.17578 C2495.93248,3006.23047 2495.22936,3007.63671 2494.78991,3009.39453 L2492.15319,3026.1377 C2491.27428,3031.49905 2490.43933,3038.96968 2489.64831,3048.5498 C2489.56042,3049.78028 2489.51647,3050.57129 2489.51647,3050.92285 C2489.51647,3052.06544 2489.64831,3053.25195 2489.91198,3054.48242 C2489.64831,3058.52541 2489.47253,3060.54688 2489.38464,3060.54688 C2488.85729,3061.42579 2488.59362,3062.52441 2488.59362,3063.84277 L2488.59362,3064.10645 C2488.59362,3064.89746 2488.81334,3065.55664 2489.2528,3066.08398 L2489.2528,3066.34766 L2489.12096,3066.61133 C2490.26355,3068.28126 2492.24107,3070.61034 2495.05358,3073.59863 L2495.05358,3073.73047 C2484.85822,3071.18163 2478.31043,3068.76466 2475.41003,3066.47949 C2471.19126,3062.96385 2469.0819,3055.53717 2469.0819,3044.19922 C2469.0819,3027.23624 2474.04767,3000.07831 2483.97936,2962.72461 C2490.57119,2938.203 2495.00962,2921.50395 2497.29479,2912.62695 C2498.52527,2907.79294 2499.36022,2903.35451 2499.79967,2899.31152 C2501.4696,2888.23725 2503.31529,2878.70121 2505.33678,2870.70312 C2506.91882,2867.9785 2509.99496,2865.86915 2514.5653,2864.375 C2516.05945,2863.93554 2517.46568,2863.71582 2518.78405,2863.71582 L2519.17956,2863.71582 C2523.31044,2863.71582 2526.34263,2865.64939 2528.27624,2869.5166 C2529.41882,2872.32912 2529.9901,2876.19626 2529.9901,2881.11816 L2529.9901,2883.35938 C2529.9901,2893.37896 2528.36414,2906.2548 2525.11217,2921.9873 C2523.79381,2927.78811 2522.47546,2932.13866 2521.1571,2935.03906 C2520.1024,2937.76369 2519.3114,2940.18065 2518.78405,2942.29004 L2525.11217,2941.63086 C2533.28604,2932.75386 2542.47052,2922.38287 2552.66589,2910.51758 C2560.48819,2901.4648 2568.88166,2892.23638 2577.84655,2882.83203 C2584.96573,2875.80075 2589.57994,2871.49415 2591.68932,2869.91211 C2595.11707,2867.0996 2598.01744,2864.9463 2600.39049,2863.45215 C2603.73036,2861.43065 2606.14732,2860.41992 2607.64147,2860.41992 Z M2524.05749,2878.87695 L2524.05749,2879.27246 L2524.32116,2884.67773 L2524.32116,2884.80957 C2524.32116,2886.56739 2523.74988,2889.07225 2522.60729,2892.32422 C2522.43151,2893.02735 2522.34362,2893.68652 2522.34362,2894.30176 L2522.34362,2896.80664 C2522.07995,2896.80664 2521.55261,2898.38866 2520.76159,2901.55273 C2520.49792,2903.48634 2520.14636,2905.24413 2519.7069,2906.82617 C2519.35534,2907.96876 2519.00378,2908.8916 2518.65221,2909.59473 L2518.65221,2909.99023 L2518.78405,2910.25391 L2518.78405,2912.09961 C2518.78405,2915.00001 2518.25671,2918.38377 2517.20202,2922.25098 C2516.411,2925.76662 2515.44421,2929.06248 2514.30163,2932.13867 C2513.68639,2933.36915 2513.37878,2934.24804 2513.37878,2934.77539 L2513.37878,2936.09375 C2513.37878,2936.97266 2512.85144,2940.35642 2511.79674,2946.24512 C2511.70885,2946.86035 2511.66491,2947.38769 2511.66491,2947.82715 L2511.92858,2948.09082 L2512.06042,2948.09082 C2512.58776,2947.91504 2512.85143,2947.56348 2512.85143,2947.03613 C2513.73034,2943.78416 2514.9608,2939.56546 2516.54284,2934.37988 C2517.24597,2931.56737 2517.59753,2929.45801 2517.59753,2928.05176 C2518.56433,2922.51462 2519.57506,2918.42775 2520.62975,2915.79102 C2521.86023,2911.83592 2522.9149,2907.26565 2523.79382,2902.08008 C2524.84851,2894.78512 2525.59557,2891.1377 2526.03503,2891.1377 C2526.03503,2891.22559 2526.07897,2891.31348 2526.16686,2891.40137 L2526.2987,2891.40137 L2527.08971,2881.38184 C2526.65026,2878.39354 2526.16686,2876.89941 2525.63952,2876.89941 C2525.46374,2876.81152 2525.28796,2876.76758 2525.11217,2876.76758 L2524.98034,2876.76758 C2524.45299,2876.76758 2524.14538,2877.4707 2524.05749,2878.87695 Z M2579.29674,2911.04492 C2579.38464,2911.04492 2579.42858,2911.13281 2579.42858,2911.30859 C2578.63756,2912.97852 2578.24206,2914.34082 2578.24206,2915.39551 L2578.24206,2915.79102 C2582.7245,2910.95701 2587.91,2905.15628 2593.7987,2898.38867 C2591.7772,2898.38867 2590.01941,2899.44335 2588.52526,2901.55273 C2582.37289,2907.44144 2579.29674,2910.60547 2579.29674,2911.04492 Z M2544.75573,2949.80469 L2544.75573,2949.93652 C2544.84362,2950.37598 2545.06334,2950.5957 2545.41491,2950.5957 L2545.54674,2950.5957 C2546.16198,2950.50781 2547.91978,2948.79396 2550.82018,2945.4541 C2552.40222,2943.34472 2556.35726,2938.81839 2562.68542,2931.875 L2574.02331,2918.82324 C2575.16589,2917.68066 2576.08873,2916.66993 2576.79186,2915.79102 C2575.38561,2915.9668 2573.80359,2916.80175 2572.04577,2918.2959 C2569.23325,2920.93263 2566.77234,2923.08593 2564.66296,2924.75586 C2562.46568,2926.77735 2561.14733,2928.31542 2560.70788,2929.37012 C2559.30162,2931.56739 2556.9286,2934.46776 2553.58874,2938.07129 C2551.12779,2940.53224 2548.93054,2943.0371 2546.99694,2945.58594 C2545.50279,2947.69532 2544.75573,2949.10156 2544.75573,2949.80469 Z M2509.55553,2954.68262 C2509.55553,2955.03418 2509.73131,2955.20996 2510.08288,2955.20996 L2510.34655,2955.20996 C2510.8739,2955.12207 2511.13757,2954.72657 2511.13757,2954.02344 C2511.22546,2953.4082 2511.31335,2952.66114 2511.40124,2951.78223 C2510.786,2951.78223 2510.17077,2952.66112 2509.55553,2954.41895 L2509.55553,2954.68262 Z M2507.70983,2962.98828 C2506.21568,2965.44923 2505.46862,2967.55858 2505.46862,2969.31641 L2505.46862,2969.58008 C2505.46862,2970.89844 2505.60045,2971.68945 2505.86413,2971.95312 C2507.0946,2969.58007 2507.70983,2967.82227 2507.70983,2966.67969 C2507.79772,2966.15234 2507.84167,2965.44922 2507.84167,2964.57031 C2507.75378,2963.60351 2507.70983,2963.07617 2507.70983,2962.98828 Z M2503.88659,2975.5127 L2503.88659,2976.17188 L2504.01842,2976.83105 C2505.16101,2976.21582 2505.73229,2975.1172 2505.73229,2973.53516 L2505.73229,2972.6123 L2505.60046,2972.6123 C2504.45787,2973.57911 2503.88659,2974.54589 2503.88659,2975.5127 Z M2597.75378,2890.34668 L2597.75378,2890.61035 C2597.84167,2890.78613 2597.9735,2890.87402 2598.14928,2890.87402 C2599.81921,2890.61035 2602.80747,2887.75393 2607.11413,2882.30469 C2608.43249,2880.72265 2610.32212,2878.30568 2612.78307,2875.05371 C2611.64049,2875.58106 2610.10242,2876.85546 2608.16882,2878.87695 C2605.79576,2881.77736 2603.77429,2884.06249 2602.10436,2885.73242 L2598.54479,2888.50098 C2598.01745,2889.20411 2597.75378,2889.81933 2597.75378,2890.34668 Z M2593.13952,2897.33398 L2593.27135,2897.33398 C2595.7323,2895.13671 2597.13854,2893.15919 2597.4901,2891.40137 L2597.35827,2891.40137 C2594.54575,2893.59864 2593.13952,2895.57616 2593.13952,2897.33398 Z M2642.25484,2897.72949 C2651.57129,2897.72949 2660.66788,2901.0693 2669.54488,2907.74902 C2671.3027,2908.10059 2673.10444,2908.97949 2674.95015,2910.38574 C2676.09274,2911.26465 2677.19136,2912.36327 2678.24605,2913.68164 C2679.56442,2915.61524 2680.57515,2917.32909 2681.27828,2918.82324 C2682.50875,2921.1963 2683.69526,2924.79978 2684.83785,2929.63379 C2686.332,2936.57718 2687.07906,2943.65231 2687.07906,2950.85938 L2687.07906,2953.75977 C2687.07906,2965.2735 2685.54099,2976.56733 2682.4648,2987.6416 C2681.05854,2991.86037 2679.47653,2995.59569 2677.71871,2998.84766 C2676.13667,3001.66017 2674.1152,3004.64842 2671.65425,3007.8125 C2668.66596,3011.24025 2665.85349,3013.96483 2663.21675,3015.98633 C2654.42765,3022.75394 2645.46289,3026.1377 2636.32222,3026.1377 C2625.07217,3026.1377 2615.18457,3021.12798 2606.65914,3011.1084 C2596.90323,3005.83493 2590.22361,2998.18853 2586.62007,2988.16895 C2584.51069,2982.54392 2583.45601,2976.6553 2583.45601,2970.50293 L2583.45601,2969.18457 C2583.45601,2958.63764 2586.18059,2947.56353 2591.62984,2935.96191 C2593.38766,2932.44627 2595.40912,2928.97463 2597.69429,2925.54688 C2599.6279,2922.64647 2602.44037,2919.17482 2606.13179,2915.13184 C2609.82322,2911.5283 2612.63569,2909.06739 2614.56929,2907.74902 C2617.73337,2905.46386 2620.41401,2903.8379 2622.61128,2902.87109 C2629.3789,2899.44334 2635.92668,2897.72949 2642.25484,2897.72949 Z M2612.59175,2917.37305 L2612.59175,2917.63672 C2614.61325,2916.93359 2615.62398,2916.36231 2615.62398,2915.92285 C2615.62398,2915.65918 2615.66792,2915.43945 2615.75582,2915.26367 C2615.66792,2914.73633 2615.58004,2914.29688 2615.49214,2913.94531 C2614.34956,2914.20899 2613.6025,2914.64843 2613.25093,2915.26367 C2612.81148,2915.87891 2612.59175,2916.58203 2612.59175,2917.37305 Z M2613.51461,2971.55762 C2613.51461,2985.70808 2618.17276,2997.26558 2627.48921,3006.23047 C2629.15914,3007.63673 2630.43355,3008.64746 2631.31246,3009.2627 C2635.44334,3008.03222 2638.82709,3005.79103 2641.46382,3002.53906 C2644.27634,2999.1992 2648.09954,2991.42096 2652.93355,2979.2041 C2653.98824,2976.56737 2655.08686,2972.26077 2656.22945,2966.28418 C2657.10836,2962.06541 2657.98726,2955.34184 2658.86617,2946.11328 C2659.83297,2933.98431 2660.31636,2923.48149 2660.31636,2914.60449 L2658.86617,2914.60449 C2652.01066,2914.60449 2645.94627,2916.05467 2640.67281,2918.95508 C2638.91499,2920.00977 2637.0693,2921.28417 2635.1357,2922.77832 C2631.62006,2926.03029 2629.42281,2928.27148 2628.5439,2929.50195 C2626.43452,2932.13869 2624.54489,2934.86327 2622.87496,2937.67578 C2620.94135,2940.92775 2619.18356,2944.7949 2617.60152,2949.27734 C2614.8769,2956.92387 2613.51461,2964.35055 2613.51461,2971.55762 Z M2609.95503,2920.53711 L2610.08687,2921.19629 C2610.35054,2921.1084 2610.57027,2920.97656 2610.74605,2920.80078 L2610.35054,2920.27344 L2610.08687,2920.27344 C2610.08687,2920.27344 2610.04293,2920.36133 2609.95503,2920.53711 Z M2589.6523,2957.05566 L2590.04781,2957.05566 C2591.45407,2957.05566 2592.15718,2956.04493 2592.15718,2954.02344 C2592.24507,2952.61718 2592.50874,2951.43067 2592.9482,2950.46387 C2594.79391,2945.1904 2596.94721,2940.57619 2599.40816,2936.62109 C2600.55074,2934.77538 2602.30854,2932.53419 2604.6816,2929.89746 C2606.87887,2927.43651 2608.59272,2924.66798 2609.8232,2921.5918 C2609.64742,2921.50391 2609.38375,2921.45996 2609.03218,2921.45996 L2608.76851,2921.45996 C2608.06538,2921.45996 2607.40621,2921.9873 2606.79097,2923.04199 C2603.45111,2926.55763 2600.81442,2929.72167 2598.88082,2932.53418 C2596.41987,2935.96193 2594.92574,2938.68651 2594.39839,2940.70801 L2592.28902,2944.26758 C2590.5312,2947.87111 2589.6523,2952.13376 2589.6523,2957.05566 Z M2589.25679,2959.95605 C2588.64156,2961.4502 2588.33394,2963.03222 2588.33394,2964.70215 C2588.33394,2966.72364 2588.55367,2967.73438 2588.99312,2967.73438 C2589.34468,2967.91016 2589.56441,2967.99805 2589.6523,2967.99805 L2589.78414,2967.99805 C2590.04781,2967.99805 2590.17964,2967.73438 2590.17964,2967.20703 C2590.53121,2965.44921 2590.70699,2963.91114 2590.70699,2962.59277 L2590.70699,2962.19727 C2590.70699,2960.79101 2590.39937,2960.08789 2589.78414,2960.08789 L2589.25679,2959.95605 Z M2679.56441,2970.23926 L2679.56441,2972.34863 C2679.56441,2973.22754 2678.59762,2976.52341 2676.66402,2982.23633 C2675.52144,2985.04884 2674.24703,2987.72948 2672.84078,2990.27832 C2671.87398,2991.68458 2670.51168,2993.48632 2668.75386,2995.68359 C2667.34761,2997.79298 2666.29293,2999.81444 2665.5898,3001.74805 C2665.23824,3002.80274 2665.06246,3003.37402 2665.06246,3003.46191 L2665.72164,3003.46191 C2666.77633,3003.46191 2667.52339,3002.93458 2667.96285,3001.87988 C2673.06053,2995.63962 2676.40034,2990.54201 2677.98238,2986.58691 L2679.1689,2983.15918 C2679.1689,2982.9834 2679.56441,2982.06056 2680.35543,2980.39062 C2681.41012,2977.666 2681.93746,2974.80959 2681.93746,2971.82129 C2681.93746,2970.41503 2681.84957,2969.05274 2681.67378,2967.73438 C2680.26753,2967.73438 2679.56441,2968.56933 2679.56441,2970.23926 Z M2665.19429,2983.15918 C2665.54586,2984.47755 2665.89742,2985.13672 2666.24898,2985.13672 L2666.38082,2985.13672 C2666.46871,2984.87305 2666.60054,2984.21387 2666.77632,2983.15918 C2666.86421,2983.15918 2666.90816,2983.07129 2666.90816,2982.89551 C2666.73238,2982.9834 2666.16109,2983.07129 2665.19429,2983.15918 Z M2664.13961,3004.25293 C2664.2275,3004.42871 2664.35933,3004.56055 2664.53511,3004.64844 L2664.93062,3004.64844 L2664.93062,3004.38477 L2664.79878,3003.85742 C2664.623,3003.85742 2664.40328,3003.98926 2664.13961,3004.25293 Z M2659.26168,3009.6582 L2659.26168,3009.79004 C2659.34957,3010.75684 2659.4814,3011.24023 2659.65718,3011.24023 C2660.79977,3010.88867 2661.59077,3010.36133 2662.03023,3009.6582 C2662.2939,3008.95507 2662.42574,3008.33985 2662.42574,3007.8125 L2662.42574,3007.54883 C2660.49213,3008.33985 2659.4814,3008.91113 2659.39351,3009.2627 L2659.26168,3009.6582 Z M2652.27437,3017.30469 L2652.27437,3017.7002 C2652.27437,3017.78809 2652.62593,3018.05176 2653.32906,3018.49121 C2655.43844,3017.6123 2656.93257,3016.20606 2657.81148,3014.27246 C2657.89937,3014.27246 2657.94332,3014.22852 2657.94332,3014.14062 C2657.32808,3013.4375 2656.84468,3013.08594 2656.49312,3013.08594 C2653.85639,3014.93165 2652.45015,3016.33789 2652.27437,3017.30469 Z M2889.78325,2829.96582 L2892.15629,2829.96582 C2906.8341,2829.96582 2919.40233,2832.95407 2929.86137,2838.93066 L2930.38872,2839.58984 L2930.38872,2840.9082 C2930.38872,2841.34766 2931.17972,2842.84178 2932.76176,2845.39062 C2933.377,2846.70899 2934.38773,2849.47752 2935.79399,2853.69629 C2935.35453,2855.10255 2934.3438,2856.28906 2932.76176,2857.25586 C2931.4434,2857.8711 2930.65239,2858.17871 2930.38872,2858.17871 L2925.51079,2858.17871 C2923.13773,2858.17871 2920.94048,2858.44238 2918.91899,2858.96973 C2912.59083,2858.53027 2907.7569,2858.31055 2904.41704,2858.31055 L2902.04399,2858.31055 C2898.001,2858.31055 2892.72761,2859.01366 2886.22368,2860.41992 C2876.90722,2862.35353 2863.41615,2864.24315 2845.75004,2866.08887 L2845.75004,2866.2207 L2846.27739,2866.2207 L2846.27739,2866.35254 C2846.01371,2866.35254 2845.88188,2866.79199 2845.88188,2867.6709 C2844.82719,2872.94436 2842.84967,2879.97554 2839.94926,2888.76465 C2837.92777,2894.47757 2835.86236,2901.28902 2833.75297,2909.19922 C2857.39567,2904.98045 2872.90821,2902.12403 2880.29106,2900.62988 C2880.55473,2900.62988 2881.08207,2900.58594 2881.87309,2900.49805 C2885.38873,2900.49805 2890.70606,2902.03612 2897.82524,2905.1123 C2900.81353,2907.30958 2902.30766,2910.78123 2902.30766,2915.52734 C2902.21977,2917.63673 2901.91216,2918.69141 2901.38481,2918.69141 C2899.5391,2920.53712 2894.88094,2922.77831 2887.4102,2925.41504 C2885.56449,2925.94239 2882.75202,2926.55761 2878.9727,2927.26074 C2877.47855,2927.7002 2875.98443,2928.22754 2874.49028,2928.84277 C2864.20702,2930.68849 2853.35264,2932.75389 2841.9268,2935.03906 C2841.83891,2935.03906 2841.17974,2934.6875 2839.94926,2933.98438 C2839.68559,2933.98438 2838.85064,2934.55566 2837.44438,2935.69824 L2836.91704,2935.96191 L2836.52153,2935.96191 C2835.64262,2935.61035 2835.15922,2935.43457 2835.07133,2935.43457 L2834.80766,2935.43457 C2834.28031,2935.43457 2832.52252,2935.96191 2829.53422,2937.0166 C2827.68851,2937.19238 2826.45805,2937.45605 2825.84282,2937.80762 C2825.0518,2938.07129 2823.294,2939.60936 2820.56938,2942.42188 C2820.30571,2942.42188 2819.33892,2943.30077 2817.66899,2945.05859 C2816.96586,2945.05859 2816.52641,2945.58593 2816.35063,2946.64062 C2816.35063,2948.39845 2814.90045,2956.26458 2812.00004,2970.23926 C2811.64848,2973.05177 2811.12114,2975.20507 2810.41801,2976.69922 C2809.36332,2978.36915 2808.74809,2979.55566 2808.57231,2980.25879 C2808.57231,2980.52246 2808.87992,2980.69824 2809.49516,2980.78613 C2809.58305,2980.96191 2809.67094,2981.18164 2809.75883,2981.44531 C2808.00101,2990.67387 2806.24322,2998.80368 2804.48539,3005.83496 C2803.69438,3011.10842 2803.29887,3015.67869 2803.29887,3019.5459 L2803.29887,3026.5332 C2803.29887,3028.37892 2803.78227,3029.56543 2804.74907,3030.09277 C2804.92485,3030.09277 2805.10063,3029.78516 2805.27641,3029.16992 C2805.10063,3028.46679 2805.01274,3027.76368 2805.01274,3027.06055 L2805.01274,3026.40137 C2805.01274,3025.69824 2805.27641,3023.0176 2805.80375,3018.35938 C2805.71586,3015.72264 2805.67192,3013.9209 2805.67192,3012.9541 C2805.67192,3011.63574 2805.97953,3009.79005 2806.59477,3007.41699 C2806.59477,3006.71386 2806.81449,3005.65919 2807.25395,3004.25293 C2807.34184,3000.29783 2808.48441,2994.18949 2810.68168,2985.92773 C2812.5274,2980.83005 2813.45024,2976.21584 2813.45024,2972.08496 C2814.15337,2969.18456 2814.7686,2965.58108 2815.29594,2961.27441 C2816.7022,2956.5283 2817.44926,2954.11133 2817.53715,2954.02344 C2817.62504,2954.28711 2817.71293,2954.41895 2817.80082,2954.41895 C2818.15239,2954.24316 2819.16312,2952.26564 2820.83305,2948.48633 C2821.00883,2948.31055 2821.22856,2948.22266 2821.49223,2948.22266 C2822.10747,2948.31055 2822.41508,2948.39844 2822.41508,2948.48633 C2817.75686,2962.46101 2813.4942,2980.9618 2809.627,3003.98926 C2808.66019,3009.52639 2808.1768,3017.21675 2808.1768,3027.06055 L2808.1768,3051.97754 C2808.1768,3054.08692 2808.04497,3055.1416 2807.78129,3055.1416 L2807.25395,3055.27344 C2805.32035,3055.18555 2804.35356,3054.96582 2804.35356,3054.61426 C2804.26567,3052.68065 2804.13383,3051.66992 2803.95805,3051.58203 C2803.25492,3053.69142 2802.85942,3054.74609 2802.77153,3054.74609 C2802.41996,3054.83398 2802.15629,3054.87793 2801.98051,3054.87793 L2800.26664,3054.87793 C2796.92678,3054.87793 2794.6856,3053.91114 2793.54301,3051.97754 C2791.6973,3049.86815 2790.24712,3048.28614 2789.19243,3047.23145 C2786.99515,3045.47362 2785.23735,3039.89263 2783.91899,3030.48828 C2783.21586,3024.59958 2782.8643,3018.62308 2782.8643,3012.55859 C2782.8643,2997.08977 2784.97366,2980.74227 2789.19243,2963.51562 C2790.51079,2958.8574 2791.65336,2954.68264 2792.62016,2950.99121 C2791.74125,2950.99121 2790.46685,2949.18947 2788.79692,2945.58594 C2785.72073,2946.20117 2783.39165,2946.8164 2781.80961,2947.43164 C2781.80961,2947.7832 2778.99714,2948.39843 2773.37211,2949.27734 L2747.92778,2954.15527 C2746.60941,2953.45214 2745.86235,2953.10059 2745.68657,2953.10059 C2745.335,2953.10059 2744.50005,2953.71581 2743.18168,2954.94629 C2742.91801,2955.03418 2742.69829,2955.07812 2742.5225,2955.07812 C2741.73148,2954.72656 2741.24809,2954.55078 2741.07231,2954.55078 L2740.80864,2954.55078 C2740.28129,2954.55078 2738.65533,2955.07812 2735.93071,2956.13281 C2735.31547,2956.30859 2734.34868,2956.44043 2733.03032,2956.52832 C2731.79984,2956.79199 2729.77838,2958.33006 2726.96586,2961.14258 C2726.26274,2961.58203 2725.42778,2962.37304 2724.46098,2963.51562 C2724.2852,2963.95508 2723.71392,2964.35058 2722.74711,2964.70215 C2722.48344,2964.70215 2722.26372,2966.15233 2722.08793,2969.05273 C2721.4727,2972.39259 2720.02252,2979.73139 2717.73735,2991.06934 C2717.73735,2993.09083 2716.77056,2995.63963 2714.83696,2998.71582 C2714.66118,2999.06738 2714.57329,2999.33105 2714.57329,2999.50684 C2714.57329,2999.68262 2714.92484,2999.8584 2715.62797,3000.03418 L2715.75981,3000.56152 C2714.17777,3009.43852 2712.46392,3017.43649 2710.61821,3024.55566 C2709.7393,3030.35647 2709.29985,3035.01463 2709.29985,3038.53027 C2709.38774,3040.90333 2709.43168,3043.05663 2709.43168,3044.99023 L2709.43168,3046.04492 C2709.43168,3047.80274 2709.91508,3048.85742 2710.88188,3049.20898 L2711.40922,3048.5498 C2711.23344,3047.75879 2711.10161,3046.87989 2711.01372,3045.91309 L2711.93657,3036.81641 L2711.67289,3032.86133 C2711.67289,3031.1914 2712.02445,3029.08204 2712.72758,3026.5332 C2712.72758,3026.09375 2712.90336,3024.99513 2713.25493,3023.2373 C2713.25493,3021.56737 2713.95804,3017.21683 2715.3643,3010.18555 L2718.52836,2999.375 C2718.96782,2997.70507 2719.36332,2994.49709 2719.71489,2989.75098 C2720.24223,2988.34472 2720.76957,2985.31252 2721.29692,2980.6543 C2722.61528,2976.25974 2723.3184,2973.75489 2723.40629,2973.13965 L2723.66997,2973.13965 C2723.66997,2973.40332 2723.75785,2973.5791 2723.93364,2973.66699 L2724.06547,2973.66699 C2724.41704,2973.5791 2725.1641,2971.99709 2726.30668,2968.9209 C2726.65825,2968.04199 2727.14164,2967.60254 2727.75688,2967.60254 L2728.28422,2967.60254 C2728.46001,2967.60254 2728.54789,2967.64648 2728.54789,2967.73438 C2724.15334,2980.65436 2719.93463,2998.80359 2715.89164,3022.18262 C2714.74906,3028.2471 2714.17778,3037.2558 2714.17778,3049.20898 C2714.26567,3059.8438 2714.30961,3066.96287 2714.30961,3070.56641 C2714.30961,3073.11525 2714.17778,3074.38965 2713.91411,3074.38965 L2713.25493,3074.38965 C2711.40921,3074.30176 2710.48637,3074.12598 2710.48637,3073.8623 C2710.39848,3072.8955 2710.26665,3071.84083 2710.09086,3070.69824 L2709.95903,3070.69824 L2709.03618,3073.59863 C2709.03618,3073.86231 2708.64067,3073.99414 2707.84965,3073.99414 L2706.39946,3073.99414 C2702.97171,3073.99414 2700.68657,3072.98341 2699.54399,3070.96191 C2697.61039,3068.85253 2695.89654,3067.00684 2694.40239,3065.4248 C2693.43559,3063.93066 2692.51274,3061.73341 2691.63383,3058.83301 C2689.87601,3051.45016 2688.99711,3042.92485 2688.99711,3033.25684 L2688.99711,3030.22461 C2688.99711,3016.42571 2690.97463,3001.00106 2694.92973,2983.9502 L2698.75297,2970.23926 C2697.69828,2969.71191 2696.59966,2968.34962 2695.45707,2966.15234 C2693.61136,2962.90037 2692.4688,2959.6924 2692.02934,2956.52832 C2690.71097,2951.60642 2690.0518,2947.91505 2690.0518,2945.4541 L2690.0518,2944.53125 C2690.0518,2940.75193 2690.35942,2938.8623 2690.97465,2938.8623 C2692.64458,2937.63183 2694.49027,2937.0166 2696.51176,2937.0166 C2701.60944,2936.57715 2704.94925,2936.04981 2706.53129,2935.43457 L2706.79497,2935.43457 L2706.79497,2937.0166 L2707.58598,2937.28027 C2708.377,2937.28027 2709.78324,2933.80863 2711.80473,2926.86523 C2712.41997,2925.10741 2713.4307,2921.94338 2714.83696,2917.37305 C2715.10063,2916.58203 2715.89164,2915.52735 2717.21,2914.20898 C2717.91313,2913.68164 2718.26469,2913.11035 2718.26469,2912.49512 C2718.08891,2910.91308 2718.00102,2909.72657 2718.00102,2908.93555 C2718.00102,2907.00194 2718.48441,2904.8047 2719.45122,2902.34375 C2719.53911,2902.08008 2719.58305,2901.72852 2719.58305,2901.28906 L2719.58305,2901.15723 C2719.58305,2900.98144 2719.53911,2900.84961 2719.45122,2900.76172 C2720.85747,2894.43356 2721.56059,2887.88578 2721.56059,2881.11816 C2719.89066,2881.55762 2718.44048,2881.77734 2717.21,2881.77734 L2716.28715,2881.77734 C2710.22267,2881.77734 2706.09185,2876.46001 2703.89457,2865.8252 C2705.91607,2864.85839 2707.8057,2863.67188 2709.56352,2862.26562 C2709.91508,2862.00195 2711.67288,2861.29883 2714.83696,2860.15625 L2714.30961,2860.15625 L2714.30961,2859.89258 C2714.4854,2859.89258 2714.57329,2859.80469 2714.57329,2859.62891 L2714.57329,2859.2334 C2714.57329,2859.05762 2714.26567,2858.92578 2713.65043,2858.83789 L2713.38676,2858.83789 C2711.18949,2858.83789 2709.08013,2859.45312 2707.05864,2860.68359 C2706.35551,2860.68359 2704.46588,2861.21093 2701.38969,2862.26562 C2701.12602,2861.5625 2700.99418,2860.85938 2700.99418,2860.15625 C2700.99418,2853.30075 2717.73718,2847.54397 2751.22368,2842.88574 C2758.95809,2841.83105 2769.63669,2840.64454 2783.25981,2839.32617 C2794.33408,2837.91991 2813.18643,2836.29395 2839.81743,2834.44824 C2853.52843,2833.21777 2866.58006,2831.89942 2878.9727,2830.49316 C2882.48834,2830.1416 2886.09182,2829.96582 2889.78325,2829.96582 Z M2892.94731,2834.05273 L2892.15629,2834.05273 C2891.36527,2834.05273 2889.0362,2834.00879 2885.16899,2833.9209 C2884.64164,2833.9209 2882.18073,2834.09668 2877.78618,2834.44824 L2874.75395,2834.44824 C2872.64456,2834.44824 2870.09576,2834.93164 2867.10747,2835.89844 L2864.07524,2835.89844 C2859.68069,2835.89844 2854.93464,2836.33789 2849.83696,2837.2168 L2843.24516,2837.6123 L2842.32231,2837.6123 C2839.77347,2837.87598 2836.0821,2838.18359 2831.24809,2838.53516 C2813.14253,2841.17189 2802.11237,2842.49023 2798.15727,2842.49023 C2797.80571,2842.49023 2797.19048,2842.53418 2796.31157,2842.62207 C2794.72953,2842.53418 2793.05962,2842.49023 2791.3018,2842.49023 L2783.91899,2843.01758 L2781.0186,2843.01758 C2778.90921,2843.01758 2776.40435,2843.45703 2773.50395,2844.33594 C2773.32817,2844.42383 2773.02055,2844.46777 2772.5811,2844.46777 L2770.86723,2844.46777 C2765.15431,2844.46777 2759.6612,2845.25878 2754.38774,2846.84082 C2754.03617,2847.10449 2753.86039,2847.36816 2753.86039,2847.63184 C2753.86039,2848.15918 2754.21195,2848.4668 2754.91508,2848.55469 C2761.24324,2847.93945 2767.70314,2847.1045 2774.29497,2846.0498 C2775.34966,2846.0498 2795.08091,2844.33595 2833.4893,2840.9082 C2836.56549,2840.64453 2838.71879,2840.5127 2839.94926,2840.5127 C2839.94926,2840.68848 2840.16899,2840.82031 2840.60844,2840.9082 L2840.87211,2840.9082 C2842.36626,2840.55664 2844.73928,2840.33691 2847.99125,2840.24902 C2849.83697,2839.63379 2852.29788,2839.32617 2855.37407,2839.32617 C2861.08699,2838.35937 2866.53615,2837.61231 2871.72172,2837.08496 C2881.65341,2836.38183 2887.84964,2836.03027 2890.31059,2836.03027 L2892.41997,2836.03027 C2893.12309,2836.03027 2897.78125,2836.29394 2906.39457,2836.82129 C2910.43756,2837.08496 2912.81059,2837.2168 2913.51372,2837.2168 C2912.54691,2835.81054 2910.87701,2835.10742 2908.50395,2835.10742 C2902.00001,2834.14062 2898.04497,2833.65723 2896.63872,2833.65723 L2895.71586,2833.65723 C2895.18852,2833.65723 2894.26567,2833.78906 2892.94731,2834.05273 Z M2726.96586,2853.43262 L2727.0977,2853.69629 C2726.74614,2853.95996 2724.54889,2854.75097 2720.5059,2856.06934 C2719.5391,2856.50879 2718.96782,2856.9043 2718.79204,2857.25586 L2718.79204,2857.51953 C2718.79204,2858.04688 2719.23148,2858.31055 2720.11039,2858.31055 C2720.81352,2858.31055 2721.60453,2858.13477 2722.48344,2857.7832 L2721.56059,2857.7832 C2721.4727,2857.7832 2721.42875,2857.69531 2721.42875,2857.51953 C2722.39556,2856.90429 2725.33986,2856.0254 2730.26176,2854.88281 C2732.01958,2854.79492 2732.89848,2854.5752 2732.89848,2854.22363 L2732.89848,2854.0918 C2732.7227,2853.30078 2732.19536,2852.90527 2731.31645,2852.90527 L2731.05278,2852.90527 C2730.52543,2852.90527 2729.16314,2853.08105 2726.96586,2853.43262 Z M2845.09086,2866.2207 L2845.09086,2866.35254 L2845.48637,2866.35254 L2845.48637,2866.2207 L2845.09086,2866.2207 Z M2752.01469,2874.6582 L2752.01469,2874.79004 L2752.54204,2874.79004 L2752.54204,2874.92188 C2752.27836,2874.92188 2752.14653,2875.18554 2752.14653,2875.71289 C2750.4766,2885.29302 2748.19146,2895.83979 2745.29106,2907.35352 L2739.75395,2928.31543 C2763.04508,2924.18455 2777.94239,2921.45997 2784.44633,2920.1416 C2785.67681,2918.99902 2787.39066,2918.20801 2789.58793,2917.76855 C2791.43365,2917.50488 2794.4219,2917.19727 2798.55278,2916.8457 C2798.90434,2916.66992 2799.6514,2916.4502 2800.79399,2916.18652 C2800.7061,2916.97754 2800.66215,2917.50488 2800.66215,2917.76855 C2800.92583,2918.03223 2801.23344,2918.16406 2801.585,2918.16406 C2801.93657,2918.16406 2802.46391,2917.37305 2803.16704,2915.79102 C2806.419,2914.38476 2808.92386,2911.74807 2810.68168,2907.88086 C2812.5274,2903.5742 2813.45024,2898.56448 2813.45024,2892.85156 C2813.36235,2892.67578 2813.3184,2892.45606 2813.3184,2892.19238 C2815.77935,2879.79974 2817.00981,2871.18655 2817.00981,2866.35254 C2813.49417,2867.40723 2807.34188,2868.50585 2798.55278,2869.64844 C2780.53511,2871.40626 2765.02257,2873.07616 2752.01469,2874.6582 Z M2841.53129,2867.93457 C2840.38871,2870.92287 2839.29009,2874.83396 2838.23539,2879.66797 C2837.79594,2880.3711 2836.30181,2885.9521 2833.75297,2896.41113 C2833.57719,2897.11426 2833.44536,2897.46582 2833.35747,2897.46582 L2833.22563,2897.33398 C2832.87407,2898.30079 2832.56645,2899.4873 2832.30278,2900.89355 L2832.30278,2901.02539 L2832.43461,2901.02539 C2832.96196,2898.91601 2833.31352,2897.81738 2833.4893,2897.72949 C2833.66508,2898.34473 2833.79692,2899.66308 2833.88481,2901.68457 L2834.01664,2901.68457 C2834.01664,2901.50879 2834.54398,2899.61916 2835.59868,2896.01562 C2835.59868,2895.75195 2836.34574,2892.58792 2837.83989,2886.52344 C2838.89458,2881.68943 2840.16898,2876.81155 2841.66313,2871.88965 C2841.75102,2871.27441 2841.79497,2870.74707 2841.79497,2870.30762 C2841.79497,2868.72558 2841.70708,2867.93457 2841.53129,2867.93457 Z M2751.35551,2874.79004 L2751.35551,2874.92188 L2751.75102,2874.92188 L2751.75102,2874.79004 L2751.35551,2874.79004 Z M2747.79594,2876.37207 C2746.65336,2879.36037 2745.77446,2882.34862 2745.15922,2885.33691 C2744.80766,2886.74317 2744.14849,2888.98436 2743.18168,2892.06055 C2741.24808,2900.05863 2739.35845,2907.44137 2737.51274,2914.20898 C2735.9307,2921.32816 2735.13969,2925.32714 2735.13969,2926.20605 L2735.13969,2926.86523 C2735.22758,2927.04102 2735.40336,2927.12891 2735.66704,2927.12891 L2736.06254,2927.12891 C2736.76567,2926.07421 2737.3809,2924.58009 2737.90825,2922.64648 C2738.25981,2920.44921 2738.87504,2917.46096 2739.75395,2913.68164 C2740.10551,2910.34178 2740.72074,2907.74903 2741.59965,2905.90332 C2743.79693,2896.2353 2745.55472,2888.89651 2746.87309,2883.88672 C2747.66411,2881.77733 2748.05961,2880.19532 2748.05961,2879.14062 L2748.05961,2878.61328 C2748.05961,2877.99804 2747.97172,2877.25098 2747.79594,2876.37207 Z M2830.72075,2898.78418 C2829.57816,2903.26662 2829.00688,2906.12304 2829.00688,2907.35352 C2829.00688,2907.79297 2829.2266,2908.0127 2829.66606,2908.0127 L2830.06157,2908.0127 C2830.23735,2908.0127 2830.6768,2907.04591 2831.37993,2905.1123 C2831.90727,2903.26659 2832.17094,2902.03614 2832.17094,2901.4209 C2831.81938,2901.4209 2831.42387,2900.58595 2830.98442,2898.91602 L2830.85258,2898.78418 L2830.72075,2898.78418 Z M2854.84672,2908.93555 C2854.93461,2909.28711 2855.15434,2909.46289 2855.5059,2909.46289 L2855.90141,2909.46289 C2855.9893,2909.46289 2856.07719,2909.375 2856.16508,2909.19922 L2856.16508,2908.54004 C2856.07719,2908.27637 2855.85747,2908.14453 2855.5059,2908.14453 C2855.06645,2908.32031 2854.84672,2908.58398 2854.84672,2908.93555 Z M2849.30961,2910.51758 L2849.30961,2910.78125 C2849.4854,2911.04492 2849.74907,2911.17676 2850.10063,2911.17676 C2850.62798,2911.00098 2850.89164,2910.73731 2850.89164,2910.38574 C2850.71586,2909.94629 2850.45219,2909.72656 2850.10063,2909.72656 C2849.57328,2909.72656 2849.30961,2909.99023 2849.30961,2910.51758 Z M2843.50883,2911.96777 L2843.50883,2912.49512 C2843.50883,2912.58301 2843.59672,2912.6709 2843.7725,2912.75879 L2844.16801,2912.75879 C2844.87114,2912.75879 2845.2227,2912.36329 2845.2227,2911.57227 C2845.13481,2911.39648 2844.95903,2911.2207 2844.69536,2911.04492 L2844.43168,2911.04492 C2843.81645,2911.13281 2843.50883,2911.44043 2843.50883,2911.96777 Z M2833.22563,2915.79102 L2833.22563,2915.92285 C2833.22563,2916.01074 2833.53324,2916.23047 2834.14848,2916.58203 C2835.46685,2916.58203 2837.04886,2915.87891 2838.89457,2914.47266 C2839.68559,2913.94531 2840.0811,2913.33008 2840.0811,2912.62695 C2839.90532,2912.09961 2839.5977,2911.83594 2839.15825,2911.83594 C2836.78519,2912.45117 2834.98345,2913.46191 2833.75297,2914.86816 C2833.40141,2915.13184 2833.22563,2915.43945 2833.22563,2915.79102 Z M2760.97954,2928.05176 L2760.97954,2928.18359 C2761.06743,2928.44727 2761.28715,2928.5791 2761.63872,2928.5791 L2761.77055,2928.5791 C2762.12212,2928.5791 2762.29789,2928.40332 2762.29789,2928.05176 L2762.29789,2927.91992 C2762.29789,2927.56836 2762.07817,2927.39258 2761.63872,2927.39258 C2761.28715,2927.39258 2761.06743,2927.6123 2760.97954,2928.05176 Z M2755.31059,2929.76562 C2755.31059,2930.0293 2755.57426,2930.20508 2756.10161,2930.29297 C2756.45317,2930.29297 2756.76078,2930.11719 2757.02446,2929.76562 C2756.93657,2929.23828 2756.6729,2928.97461 2756.23344,2928.97461 L2756.10161,2928.97461 C2755.57426,2929.0625 2755.31059,2929.32617 2755.31059,2929.76562 Z M2749.50981,2931.34766 C2749.50981,2931.78711 2749.68559,2932.00684 2750.03715,2932.00684 L2750.30082,2932.00684 C2750.82817,2932.00684 2751.13579,2931.61133 2751.22368,2930.82031 C2751.13579,2930.46875 2751.00395,2930.29297 2750.82817,2930.29297 L2750.43266,2930.29297 C2749.90531,2930.29297 2749.5977,2930.64453 2749.50981,2931.34766 Z M2739.22661,2935.1709 C2739.22661,2935.34668 2739.57816,2935.52246 2740.28129,2935.69824 C2742.2149,2935.69824 2744.10453,2934.73145 2745.95024,2932.79785 C2746.12602,2932.27051 2746.21391,2931.91895 2746.21391,2931.74316 C2745.95024,2931.21582 2745.59868,2930.95215 2745.15922,2930.95215 C2742.52249,2931.65528 2740.54497,2932.88573 2739.22661,2934.64355 L2739.22661,2935.1709 Z M2804.74907,3030.62012 C2804.74907,3030.88379 2804.70512,3031.32324 2804.61723,3031.93848 C2804.70512,3032.7295 2804.83696,3033.125 2805.01274,3033.125 C2805.01274,3033.03711 2805.05668,3032.68555 2805.14457,3032.07031 C2805.14457,3031.89453 2805.05668,3031.41114 2804.8809,3030.62012 L2804.74907,3030.62012 Z M2803.69438,3041.03516 L2803.69438,3041.95801 C2803.69438,3043.36426 2803.9141,3045.166 2804.35356,3047.36328 L2804.48539,3047.36328 C2805.27641,3044.72655 2805.67192,3042.30958 2805.67192,3040.1123 C2805.67192,3038.61816 2805.45219,3036.72853 2805.01274,3034.44336 C2804.83696,3034.44336 2804.52934,3035.41015 2804.08989,3037.34375 C2803.82621,3038.66212 2803.69438,3039.89257 2803.69438,3041.03516 Z M2710.88188,3049.73633 L2710.75004,3050.52734 L2710.75004,3051.05469 C2710.75004,3051.31836 2710.79399,3051.80175 2710.88188,3052.50488 L2711.01372,3052.50488 L2711.14555,3051.8457 L2711.14555,3051.18652 L2710.88188,3049.73633 Z M2710.88188,3053.55957 C2710.09086,3056.10841 2709.69536,3058.52538 2709.69536,3060.81055 C2709.69536,3062.12891 2709.91508,3064.06249 2710.35454,3066.61133 L2710.48637,3066.61133 C2711.27739,3063.88671 2711.67289,3061.46974 2711.67289,3059.36035 C2711.67289,3057.69042 2711.45317,3055.75685 2711.01372,3053.55957 L2710.88188,3053.55957 Z M2937.44837,2843.14941 C2939.64565,2843.14941 2941.09583,2843.41308 2941.79896,2843.94043 C2938.28332,2846.48927 2935.4269,2848.33496 2933.22962,2849.47754 C2929.36242,2851.41114 2926.37416,2853.21288 2924.26478,2854.88281 C2921.71594,2857.16798 2920.04603,2858.96972 2919.25501,2860.28809 C2918.02454,2861.95802 2916.83803,2863.75976 2915.69544,2865.69336 C2913.93762,2867.45118 2912.839,2869.07714 2912.39954,2870.57129 C2912.39954,2870.83496 2912.04799,2871.49414 2911.34486,2872.54883 C2911.25697,2872.72461 2911.21302,2872.85644 2911.21302,2872.94434 C2911.30091,2873.12012 2911.47669,2873.33984 2911.74036,2873.60352 C2912.97084,2873.42773 2913.58607,2873.12012 2913.58607,2872.68066 C2913.58607,2872.06543 2914.11341,2871.31836 2915.1681,2870.43945 C2915.51966,2870 2916.22278,2868.85743 2917.27747,2867.01172 C2918.42006,2864.99022 2920.6173,2862.2217 2923.86927,2858.70605 C2927.64859,2855.19041 2930.54895,2852.86133 2932.57044,2851.71875 C2936.08609,2849.52147 2939.73351,2847.63184 2943.51283,2846.0498 L2943.64466,2846.0498 C2943.64466,2846.22559 2944.08411,2846.5332 2944.96302,2846.97266 C2946.28139,2848.02735 2947.07239,2849.03808 2947.33607,2850.00488 C2947.86341,2850.70801 2948.30286,2854.75094 2948.65443,2862.13379 C2948.74232,2863.89161 2948.78626,2865.29785 2948.78626,2866.35254 C2948.78626,2868.02247 2947.6437,2869.95604 2945.35853,2872.15332 C2943.07336,2874.52638 2940.87612,2875.97656 2938.76673,2876.50391 C2931.29599,2879.75588 2926.24233,2884.58981 2923.6056,2891.00586 C2922.37512,2894.34572 2921.7599,2897.5537 2921.7599,2900.62988 C2921.672,2903.09083 2920.96889,2904.54101 2919.65052,2904.98047 L2918.99134,2905.1123 C2916.79406,2905.1123 2913.36636,2902.51956 2908.70814,2897.33398 C2907.91712,2897.07031 2906.55483,2895.8838 2904.62122,2893.77441 C2903.03918,2891.84081 2902.24818,2889.20412 2902.24818,2885.86426 L2902.24818,2885.60059 C2902.24818,2878.92087 2904.88487,2871.09868 2910.15833,2862.13379 C2911.65248,2859.93651 2913.41028,2857.56349 2915.43177,2855.01465 C2922.55095,2847.10445 2929.88974,2843.14941 2937.44837,2843.14941 Z M2903.30286,2914.20898 C2904.79701,2914.20898 2909.36728,2915.43944 2917.0138,2917.90039 C2918.33217,2918.42774 2920.2218,2918.69141 2922.68275,2918.69141 C2923.73744,2918.95508 2924.52845,2919.43847 2925.05579,2920.1416 C2925.58314,2921.1084 2925.84681,2922.29491 2925.84681,2923.70117 C2925.84681,2924.93165 2925.45131,2927.39256 2924.66029,2931.08398 C2924.13294,2937.8516 2923.12221,2946.20112 2921.62806,2956.13281 C2921.2765,2958.85744 2921.01283,2960.21973 2920.83704,2960.21973 C2920.66126,2960.57129 2920.57337,2960.79102 2920.57337,2960.87891 L2920.3097,2960.87891 C2919.60657,2960.35156 2919.25501,2959.78028 2919.25501,2959.16504 C2919.51869,2958.37402 2920.2218,2954.55082 2921.36439,2947.69531 C2921.36439,2947.51953 2921.40833,2947.12403 2921.49622,2946.50879 L2921.49622,2946.37695 L2921.36439,2946.37695 C2919.78235,2952.96878 2918.99134,2957.67088 2918.99134,2960.4834 L2918.99134,2961.14258 C2919.16712,2963.25196 2919.25501,2964.43848 2919.25501,2964.70215 C2919.25501,2966.98732 2918.37612,2970.72263 2916.61829,2975.9082 C2916.09095,2977.75392 2914.42104,2986.63078 2911.60853,3002.53906 C2911.16907,3005.26369 2910.94935,3009.30661 2910.94935,3014.66797 C2910.77357,3017.83205 2910.68568,3020.8203 2910.68568,3023.63281 C2910.68568,3028.90628 2911.34485,3032.07031 2912.66322,3033.125 C2913.01478,3033.82813 2913.19056,3034.39941 2913.19056,3034.83887 L2913.19056,3034.9707 C2913.19056,3036.37696 2912.04799,3037.16797 2909.76283,3037.34375 L2909.23548,3037.34375 C2908.00501,3037.34375 2906.77455,3037.16797 2905.54408,3036.81641 C2904.04993,3032.59764 2903.30286,3028.6426 2903.30286,3024.95117 L2903.30286,3021.3916 C2903.30286,3019.37011 2902.86342,3017.26075 2901.98451,3015.06348 L2901.98451,3014.53613 C2901.98451,3013.833 2902.33606,3012.91016 2903.03919,3011.76758 C2904.79701,3008.6035 2905.67591,3005.39552 2905.67591,3002.14355 C2905.67591,3000.7373 2905.41224,2998.80372 2904.8849,2996.34277 C2904.62122,2995.1123 2904.48939,2993.44239 2904.48939,2991.33301 L2904.48939,2989.4873 C2904.48939,2988.08105 2904.00599,2987.2461 2903.03919,2986.98242 L2902.64368,2986.98242 C2901.58899,2986.98242 2900.92982,2988.4326 2900.66615,2991.33301 C2899.43567,2997.74906 2898.82044,3002.36327 2898.82044,3005.17578 C2898.82044,3006.66993 2898.46888,3011.94331 2897.76576,3020.99609 L2897.76576,3022.05078 C2897.76576,3027.7637 2898.95227,3031.93846 2901.32533,3034.5752 L2902.11634,3035.76172 L2902.11634,3035.89355 C2900.44641,3035.54199 2896.97477,3034.92676 2891.7013,3034.04785 C2888.18566,3033.16894 2885.76869,3031.98243 2884.45033,3030.48828 C2883.13196,3028.81835 2882.47279,3027.01661 2882.47279,3025.08301 C2882.20911,3023.32519 2882.07728,3020.42482 2882.07728,3016.38184 L2882.07728,3014.93164 C2882.07728,3007.10934 2882.34095,2999.33109 2882.86829,2991.59668 C2883.8351,2985.26852 2884.88977,2979.64358 2886.03236,2974.72168 C2886.5597,2971.99706 2886.82337,2969.31642 2886.82337,2966.67969 C2886.82337,2964.74608 2886.69154,2962.76856 2886.42786,2960.74707 C2887.57045,2954.5068 2888.27357,2951.16699 2888.53724,2950.72754 C2889.32826,2949.32128 2890.16321,2946.9922 2891.04212,2943.74023 C2891.74525,2941.19139 2892.49231,2936.79691 2893.28333,2930.55664 L2894.86536,2921.5918 C2897.06264,2916.6699 2899.87511,2914.20898 2903.30286,2914.20898 Z M2914.50892,2943.21289 C2914.50892,2945.58595 2914.94837,2946.77246 2915.82728,2946.77246 L2916.09095,2946.77246 C2917.14564,2946.77246 2917.93665,2945.05861 2918.464,2941.63086 C2918.81556,2940.66406 2919.3429,2939.82911 2920.04603,2939.12598 C2920.57337,2938.51074 2920.83704,2938.02735 2920.83704,2937.67578 C2920.83704,2937.23633 2920.48549,2936.66504 2919.78236,2935.96191 L2919.78236,2935.69824 C2920.39759,2933.06151 2920.70521,2930.73243 2920.70521,2928.71094 C2920.70521,2928.18359 2920.92493,2926.86524 2921.36439,2924.75586 L2921.36439,2924.62402 C2921.18861,2923.39355 2920.88099,2922.77832 2920.44154,2922.77832 L2920.17786,2922.77832 C2919.29895,2922.77832 2918.50795,2924.14061 2917.80482,2926.86523 C2917.18958,2928.79884 2916.88197,2930.73241 2916.88197,2932.66602 C2916.35462,2935.30275 2915.82728,2937.32421 2915.29993,2938.73047 C2914.77259,2939.78516 2914.50892,2941.27929 2914.50892,2943.21289 Z M3030.20139,2862.5293 C3032.39867,2862.5293 3034.81563,2864.11131 3037.45237,2867.27539 C3042.46216,2872.54885 3044.96701,2875.625 3044.96701,2876.50391 C3045.0549,2877.11914 3045.09885,2877.73437 3045.09885,2878.34961 L3045.09885,2879.27246 C3045.09885,2882.26076 3044.57151,2884.89745 3043.51682,2887.18262 C3042.55002,2888.14942 3041.58323,2889.42382 3040.61643,2891.00586 C3037.01289,2897.07034 3033.58519,2904.18941 3030.33322,2912.36328 L3030.20139,2912.36328 C3031.25608,2907.08982 3032.88204,2902.16799 3035.07932,2897.59766 C3037.01292,2893.55467 3038.28732,2891.22559 3038.90256,2890.61035 C3039.69358,2889.73144 3040.61642,2888.94043 3041.67112,2888.2373 C3041.8469,2887.88574 3041.93479,2887.57813 3041.93479,2887.31445 C3041.8469,2886.52343 3041.67112,2886.12793 3041.40744,2886.12793 L3041.01194,2886.12793 C3040.22092,2886.12793 3039.21018,2886.91894 3037.97971,2888.50098 C3035.78243,2890.96193 3033.93675,2893.42284 3032.4426,2895.88379 C3030.42111,2899.31154 3028.70726,2902.87108 3027.301,2906.5625 C3025.98263,2909.99025 3024.79612,2913.94529 3023.74143,2918.42773 C3022.0715,2927.04106 3020.66526,2933.50096 3019.52268,2937.80762 C3018.73166,2941.23537 3018.33615,2943.65234 3018.33615,2945.05859 L3018.33615,2946.64062 C3018.33615,2949.18947 3017.9846,2951.73827 3017.28147,2954.28711 C3017.10568,2955.42969 3017.01779,2956.70409 3017.01779,2958.11035 C3017.01779,2960.13185 3017.06174,2962.02148 3017.14963,2963.7793 C3017.85276,2964.48243 3018.42404,2964.83398 3018.8635,2964.83398 C3018.95139,2965.97657 3019.47873,2967.69042 3020.44553,2969.97559 C3020.79709,2970.59082 3021.1926,2971.20605 3021.63205,2971.82129 C3021.28049,2973.40333 3021.10471,2974.76562 3021.10471,2975.9082 C3021.98362,2974.9414 3022.5549,2974.01856 3022.81858,2973.13965 L3022.95041,2973.13965 C3023.91721,2973.84278 3025.19162,2974.45801 3026.77365,2974.98535 C3027.65256,2975.5127 3028.53146,2976.17187 3029.41037,2976.96289 C3028.61935,2977.49024 3026.81761,2978.28124 3024.0051,2979.33594 C3021.19259,2980.30274 3018.64378,2980.78613 3016.35862,2980.78613 L3016.09494,2980.78613 C3012.31563,2980.78613 3008.88793,2979.33595 3005.81174,2976.43555 C3003.96603,2974.85351 3002.51585,2973.35938 3001.46115,2971.95312 C2995.74824,2964.3066 2992.89182,2955.42974 2992.89182,2945.32227 L2992.89182,2944.00391 C2992.89182,2937.32419 2994.47383,2929.28227 2997.63791,2919.87793 C2995.7922,2921.63575 2993.6389,2924.09666 2991.17795,2927.26074 C2984.49823,2935.61039 2978.65356,2944.04781 2973.64377,2952.57324 C2967.13983,2963.47173 2961.86645,2974.10639 2957.82346,2984.47754 C2955.80196,2989.83889 2954.26389,2994.541 2953.2092,2998.58398 C2951.09982,3006.75785 2950.04514,3013.56931 2950.04514,3019.01855 L2950.04514,3019.67773 C2950.04514,3024.42385 2951.01193,3027.71972 2952.94553,3029.56543 C2954.2639,3031.05958 2955.58224,3031.80664 2956.90061,3031.80664 C2957.77952,3031.80664 2959.14181,3031.63086 2960.98752,3031.2793 C2961.42698,3031.36719 2961.69065,3031.41113 2961.77854,3031.41113 C2962.30588,3031.41113 2963.97579,3030.88379 2966.7883,3029.8291 C2967.57932,3029.56543 2969.24923,3029.30176 2971.79807,3029.03809 C2973.73167,3028.59863 2974.91818,3028.02735 2975.35764,3027.32422 C2977.64281,3025.5664 2979.18088,3024.59961 2979.9719,3024.42383 C2977.59884,3024.6875 2976.1926,3024.81934 2975.75315,3024.81934 L2975.75315,3024.6875 C2988.40946,3020.20506 2998.29706,3016.16213 3005.41623,3012.55859 C3009.37133,3010.18554 3013.32637,3008.20802 3017.28147,3006.62598 C3020.53344,3005.30761 3022.64279,3004.64844 3023.60959,3004.64844 C3024.57639,3004.64844 3025.63107,3006.01073 3026.77365,3008.73535 C3027.47678,3010.66895 3027.82834,3011.9873 3027.82834,3012.69043 C3026.77365,3013.48145 3024.35668,3015.50291 3020.57737,3018.75488 C3015.83125,3022.5342 3012.40355,3024.81933 3010.29416,3025.61035 C3009.32736,3026.04981 3008.49241,3026.79687 3007.78928,3027.85156 L3008.31662,3027.85156 C3010.5139,3027.85156 3013.23848,3026.62111 3016.49045,3024.16016 C3023.43385,3019.58982 3027.25705,3016.99707 3027.96018,3016.38184 L3028.35569,3015.98633 L3028.35569,3016.25 C3029.05881,3016.60156 3029.41037,3016.95312 3029.41037,3017.30469 C3029.41037,3018.97462 3027.74047,3021.08397 3024.40061,3023.63281 C3023.17013,3024.42383 3022.5549,3024.90723 3022.5549,3025.08301 C3020.97287,3026.84083 3019.30296,3028.3789 3017.54514,3029.69727 C3013.06269,3033.03713 3008.36059,3035.80565 3003.43869,3038.00293 C2997.02265,3040.99123 2988.80495,3043.8037 2978.78537,3046.44043 C2968.06266,3049.16505 2958.7903,3050.52734 2950.96799,3050.52734 C2947.71602,3050.52734 2945.03538,3050.26367 2942.926,3049.73633 C2941.25607,3050.17578 2939.89378,3050.39551 2938.83908,3050.39551 C2930.92889,3050.39551 2925.91917,3043.1446 2923.80979,3028.64258 C2923.28244,3024.42381 2923.01877,3020.11721 2923.01877,3015.72266 C2923.01877,3006.75777 2924.38106,2997.70512 2927.10569,2988.56445 C2928.51194,2983.55466 2930.40157,2977.79788 2932.77463,2971.29395 C2939.63013,2953.18839 2947.49627,2936.70906 2956.37326,2921.85547 C2960.41625,2914.99997 2965.42597,2907.61723 2971.40256,2899.70703 C2985.37724,2882.39249 2998.12125,2873.73535 3009.63498,2873.73535 C3011.65648,2873.73535 3013.85372,2874.08691 3016.22678,2874.79004 C3016.66623,2873.82324 3019.47871,2870.7471 3024.66428,2865.56152 C3026.4221,2863.71581 3027.82834,2862.74902 3028.88303,2862.66113 C3029.58616,2862.57324 3030.02561,2862.5293 3030.20139,2862.5293 Z M2933.30197,2990.54199 L2933.30197,2990.80566 C2933.38987,2991.15723 2933.5217,2991.33301 2933.69748,2991.33301 C2934.66428,2990.80566 2935.14768,2989.79493 2935.14768,2988.30078 C2935.85081,2986.54296 2936.55392,2984.5215 2937.25705,2982.23633 C2940.15746,2973.79879 2943.49727,2965.53715 2947.27658,2957.45117 C2951.75903,2948.13472 2957.64764,2937.89556 2964.9426,2926.7334 C2968.19457,2921.28415 2972.10566,2915.65921 2976.676,2909.8584 C2978.78538,2906.95799 2982.25703,2903.0469 2987.09104,2898.125 C2989.28831,2895.92772 2990.91427,2894.12598 2991.96897,2892.71973 C2993.72679,2890.69823 2994.60569,2889.51172 2994.60569,2889.16016 L2994.60569,2888.50098 C2994.60569,2887.88574 2994.34202,2887.57812 2993.81467,2887.57812 C2993.19943,2887.57812 2992.45237,2888.2373 2991.57346,2889.55566 C2989.55196,2891.84083 2986.34399,2895.26853 2981.94944,2899.83887 L2973.77561,2909.33105 C2970.8752,2913.28615 2968.67796,2916.62596 2967.18381,2919.35059 C2966.65646,2920.31739 2964.81078,2923.08591 2961.6467,2927.65625 C2958.48262,2932.40237 2956.1096,2936.35741 2954.52756,2939.52148 C2953.1213,2942.334 2950.83617,2946.59665 2947.67209,2952.30957 C2943.80489,2959.25296 2940.24535,2967.47066 2936.99338,2976.96289 C2936.8176,2977.8418 2936.24632,2979.5996 2935.27951,2982.23633 C2934.84006,2983.55469 2934.35666,2985.66405 2933.82932,2988.56445 C2933.47775,2989.26758 2933.30197,2989.92675 2933.30197,2990.54199 Z M3020.31369,2912.09961 L3020.31369,2912.89062 C3021.63206,2911.48437 3023.12619,2908.36428 3024.79612,2903.53027 L3027.56467,2893.90625 L3026.77365,2893.90625 C3025.89474,2894.16992 3024.79612,2895.92772 3023.47776,2899.17969 C3022.86252,2901.0254 3022.33518,2902.69531 3021.89572,2904.18945 C3020.84103,2907.26564 3020.31369,2909.90233 3020.31369,2912.09961 Z M3020.31369,2916.97754 C3019.87424,2917.76856 3019.65451,2918.47168 3019.65451,2919.08691 L3019.65451,2920.00977 L3019.78635,2920.27344 C3020.3137,2919.6582 3020.57737,2918.99903 3020.57737,2918.2959 L3020.57737,2917.76855 L3020.44553,2916.97754 L3020.31369,2916.97754 Z M3016.88596,2930.68848 L3016.88596,2931.21582 C3016.88596,2932.00684 3017.01779,2932.66601 3017.28147,2933.19336 C3018.51194,2931.96288 3019.12717,2930.55665 3019.12717,2928.97461 C3019.12717,2928.27148 3018.99534,2927.56836 3018.73166,2926.86523 C3017.50119,2928.09571 3016.88596,2929.37011 3016.88596,2930.68848 Z M3012.66721,2930.95215 L3012.79904,2930.95215 C3013.15061,2930.68848 3013.32639,2930.42481 3013.32639,2930.16113 L3013.32639,2929.63379 C3013.15061,2929.63379 3012.93088,2930.07324 3012.66721,2930.95215 Z M2948.72678,2964.43848 C2950.57249,2962.59276 2951.89084,2960.1758 2952.68186,2957.1875 L2952.55002,2957.1875 C2950.96798,2958.33008 2949.82542,2959.95604 2949.12229,2962.06543 C2948.94651,2962.76856 2948.81467,2963.55957 2948.72678,2964.43848 Z M2947.27658,2968.26172 C2947.27658,2966.94335 2947.71603,2965.84473 2948.59494,2964.96582 C2948.59494,2966.37208 2948.15549,2967.4707 2947.27658,2968.26172 Z M2944.90354,2973.40332 C2944.90354,2972.43652 2945.34299,2971.42579 2946.2219,2970.37109 C2946.2219,2971.25 2945.78245,2972.26074 2944.90354,2973.40332 Z M2943.71701,2975.77637 C2943.10178,2977.00684 2942.79416,2977.88574 2942.79416,2978.41309 L2942.79416,2978.54492 L2942.926,2978.54492 C2943.45334,2976.96288 2943.71701,2976.04004 2943.71701,2975.77637 Z M2931.85178,2992.7832 L2931.85178,2993.17871 C2931.85178,2993.09082 2931.89572,2993.00293 2931.98362,2992.91504 L2931.98362,2992.7832 L2931.85178,2992.7832 Z M2931.1926,2994.36523 C2930.57736,2996.03516 2930.26975,2997.0459 2930.26975,2997.39746 L2930.26975,2997.5293 C2930.97288,2995.85937 2931.32444,2994.84863 2931.32444,2994.49707 L2931.32444,2994.36523 L2931.1926,2994.36523 Z M2929.87424,2998.32031 C2927.85275,3002.18752 2926.84201,3005.3955 2926.84201,3007.94434 L2926.84201,3008.73535 C2928.07249,3006.80175 2928.99533,3004.209 2929.61057,3000.95703 L2930.00608,2998.45215 L2930.00608,2998.32031 L2929.87424,2998.32031 Z M2961.11936,3033.125 L2960.19651,3033.125 C2959.3176,3033.125 2958.35081,3033.21289 2957.29612,3033.38867 L2957.29612,3033.52051 C2958.17503,3033.95996 2958.74631,3034.17969 2959.00998,3034.17969 C2959.27366,3034.17969 2960.32833,3033.82813 2962.17404,3033.125 L2962.17404,3032.99316 C2961.82248,3033.08106 2961.47092,3033.125 2961.11936,3033.125 Z M3156.70441,2879.7998 C3163.38413,2879.7998 3167.77861,2880.32714 3169.888,2881.38184 C3175.16146,2883.40333 3178.76494,2886.25975 3180.69855,2889.95117 C3181.22589,2890.83008 3181.48956,2891.75292 3181.48956,2892.71973 L3181.48956,2892.9834 C3181.48956,2895.09278 3180.69855,2897.37792 3179.11651,2899.83887 C3175.95244,2900.98145 3172.78841,2901.55273 3169.62433,2901.55273 C3154.06761,2904.45314 3140.75231,2907.30956 3129.67804,2910.12207 C3128.00811,2910.64942 3125.01986,2911.26464 3120.71319,2911.96777 C3118.07646,2912.23145 3116.01105,2912.36328 3114.51691,2912.36328 L3115.70343,2913.41797 C3115.70343,2913.50586 3114.2093,2913.72558 3111.22101,2914.07715 C3103.66238,2914.60449 3098.34505,2915.21972 3095.26886,2915.92285 C3095.18097,2916.01074 3094.25812,2916.23047 3092.5003,2916.58203 L3092.5003,2916.71387 C3102.43199,2920.3174 3113.59399,2924.05272 3125.98663,2927.91992 L3134.16046,2930.68848 C3136.97297,2931.21582 3139.03838,2931.83105 3140.35675,2932.53418 C3140.8841,2932.70996 3141.23565,2932.97363 3141.41144,2933.3252 C3141.763,2933.85254 3141.93878,2935.083 3141.93878,2937.0166 C3143.16926,2940.79592 3143.78448,2943.30078 3143.78448,2944.53125 L3143.78448,2946.37695 C3143.78448,2947.16797 3143.6087,2947.56348 3143.25714,2947.56348 C3140.53252,2949.23341 3136.48959,2951.03515 3131.12823,2952.96875 C3127.61259,2954.02344 3125.23957,2954.55078 3124.00909,2954.55078 C3107.66135,2957.01173 3093.86266,2959.8242 3082.61261,2962.98828 C3078.92118,2964.04297 3075.49348,2965.05371 3072.32941,2966.02051 C3072.32941,2966.1084 3072.94463,2966.63574 3074.17511,2967.60254 C3072.3294,2968.92091 3070.79133,2970.19531 3069.56085,2971.42578 C3069.29718,2971.68945 3068.50617,2973.18358 3067.1878,2975.9082 C3065.69366,2978.10548 3064.59503,2980.74217 3063.89191,2983.81836 L3062.70538,2987.37793 C3062.35382,2989.39942 3062.0462,2992.03612 3061.78253,2995.28809 C3061.69464,2995.72754 3061.5628,2995.94727 3061.38702,2995.94727 C3060.68389,2995.94727 3060.2005,2996.87011 3059.93683,2998.71582 C3058.70635,3003.28616 3058.09112,3006.3623 3058.09112,3007.94434 C3057.12432,3013.65726 3056.64093,3017.26073 3056.64093,3018.75488 L3056.64093,3019.01855 C3056.64093,3021.4795 3057.16827,3023.36913 3058.22296,3024.6875 C3058.8382,3025.74219 3059.76104,3026.84081 3060.99151,3027.9834 L3060.06866,3023.10547 C3059.98077,3022.49023 3059.93683,3021.65528 3059.93683,3020.60059 L3059.93683,3019.94141 C3059.93683,3019.23828 3060.02472,3017.91993 3060.2005,3015.98633 C3060.2005,3015.2832 3059.98077,3014.18458 3059.54132,3012.69043 C3059.54132,3012.25097 3059.98077,3011.37208 3060.85968,3010.05371 C3061.91437,3008.03222 3062.44171,3006.18653 3062.44171,3004.5166 L3062.44171,3003.85742 L3062.17804,3000.29785 C3062.17804,2994.84861 3063.89189,2988.0811 3067.31964,2979.99512 C3068.81379,2976.74315 3070.70342,2973.97462 3072.98858,2971.68945 C3073.25226,2971.51367 3073.55987,2970.76661 3073.91144,2969.44824 C3074.17511,2968.9209 3074.61456,2968.65723 3075.2298,2968.65723 C3076.81183,2968.83301 3077.60284,2969.53613 3077.60284,2970.7666 C3077.60284,2971.29395 3076.72395,2973.35936 3074.96612,2976.96289 C3072.2415,2982.50003 3069.91242,2987.90525 3067.97882,2993.17871 C3065.34209,3000.56156 3064.02374,3007.50485 3064.02374,3014.00879 C3064.02374,3019.10647 3064.85869,3024.4238 3066.52862,3029.96094 L3066.66046,3029.96094 C3070.35188,3029.87305 3081.29416,3025.87406 3099.48761,3017.96387 C3109.06773,3013.65721 3115.92313,3010.2295 3120.05401,3007.68066 C3121.54816,3006.53808 3123.52568,3005.39551 3125.98663,3004.25293 C3130.2054,3002.49511 3133.6331,3001.61621 3136.26983,3001.61621 L3136.79718,3001.61621 C3138.29133,3001.61621 3139.346,3001.96777 3139.96124,3002.6709 C3140.13702,3003.02246 3140.22491,3003.41797 3140.22491,3003.85742 C3139.87335,3006.49415 3139.69757,3007.98828 3139.69757,3008.33984 L3139.69757,3008.86719 C3139.69757,3009.04297 3139.78546,3009.43847 3139.96124,3010.05371 C3136.97294,3011.45997 3133.94075,3013.39354 3130.86456,3015.85449 C3130.24932,3016.55762 3129.94171,3016.95312 3129.94171,3017.04102 C3130.55695,3017.04102 3131.83135,3016.60157 3133.76495,3015.72266 L3137.72003,3012.82227 C3138.15949,3012.4707 3138.68682,3012.16309 3139.30206,3011.89941 L3139.30206,3012.03125 C3139.21417,3012.20703 3139.17023,3012.51465 3139.17023,3012.9541 C3139.4339,3015.15138 3139.56573,3016.38183 3139.56573,3016.64551 C3139.30206,3018.31544 3136.97298,3020.90819 3132.57843,3024.42383 C3127.65653,3028.11525 3122.3392,3031.32323 3116.62628,3034.04785 C3111.88016,3036.5088 3106.47494,3038.88182 3100.41046,3041.16699 L3100.41046,3039.98047 C3098.91631,3040.77149 3097.15852,3041.43066 3095.13702,3041.95801 C3093.55498,3042.39746 3091.2259,3042.70508 3088.14972,3042.88086 C3085.68877,3043.4961 3083.79914,3044.11133 3082.48077,3044.72656 C3081.33819,3045.60547 3079.66828,3046.30859 3077.47101,3046.83594 C3070.70339,3047.80274 3065.21029,3048.94531 3060.99151,3050.26367 C3060.99151,3050.35156 3060.81574,3050.39551 3060.46417,3050.39551 C3056.15751,3050.39551 3052.72981,3049.209 3050.18097,3046.83594 C3042.27077,3040.68356 3038.31573,3031.19147 3038.31573,3018.35938 C3038.31573,3006.66986 3041.56765,2992.43172 3048.07159,2975.64453 L3047.80792,2975.64453 C3046.13799,2975.64453 3044.68781,2974.15041 3043.45733,2971.16211 C3042.8421,2970.01953 3042.13898,2967.91017 3041.34796,2964.83398 L3040.95245,2962.98828 C3041.04034,2961.05468 3041.21612,2959.1211 3041.4798,2957.1875 L3041.4798,2957.05566 C3041.4798,2956.87988 3041.52374,2956.79199 3041.61163,2956.79199 L3041.4798,2956.52832 L3041.4798,2956.26465 C3041.4798,2955.38574 3041.74347,2953.93556 3042.27081,2951.91406 C3042.3587,2950.5957 3042.66632,2949.93652 3043.19366,2949.93652 C3045.21516,2949.1455 3048.59891,2948.17872 3053.34503,2947.03613 C3055.54231,2946.4209 3056.64093,2945.98145 3056.64093,2945.71777 L3056.64093,2945.4541 C3056.64093,2945.19043 3056.11359,2945.05859 3055.0589,2945.05859 L3054.66339,2945.05859 C3053.87237,2945.05859 3051.9388,2945.54199 3048.86261,2946.50879 C3046.13799,2947.21192 3044.51202,2947.56348 3043.98468,2947.56348 C3043.8089,2946.77246 3043.72101,2946.15723 3043.72101,2945.71777 C3043.98468,2944.66308 3044.2044,2944.13574 3044.38019,2944.13574 L3045.03937,2942.81738 C3057.16833,2939.91698 3074.30683,2936.44533 3096.45538,2932.40234 C3103.39878,2931.08398 3109.28739,2930.11719 3114.1214,2929.50195 L3114.1214,2929.37012 C3107.178,2927.43651 3097.15857,2924.9756 3084.0628,2921.9873 C3079.84403,2920.84472 3075.93294,2919.79004 3072.32941,2918.82324 C3071.3626,2918.91113 3070.52765,2918.95508 3069.82452,2918.95508 L3068.76983,2918.95508 C3063.76004,2918.95508 3059.84895,2916.93361 3057.03644,2912.89062 C3055.36651,2910.166 3054.39972,2907.26564 3054.13605,2904.18945 C3054.13605,2903.48632 3053.52082,2901.20119 3052.29034,2897.33398 C3052.20245,2896.98242 3052.11456,2896.41114 3052.02667,2895.62012 C3052.02667,2894.21386 3052.81768,2893.20313 3054.39972,2892.58789 C3057.5638,2891.18163 3064.37525,2889.51173 3074.83429,2887.57812 C3085.46911,2885.55663 3101.46504,2883.53517 3122.82257,2881.51367 C3136.70936,2880.37109 3148.00319,2879.7998 3156.70441,2879.7998 Z M3095.00519,2889.6875 L3095.00519,2889.81934 C3095.00519,2890.43457 3095.75225,2890.74219 3097.2464,2890.74219 L3097.51007,2890.74219 C3102.43197,2890.30273 3108.23269,2889.77539 3114.91241,2889.16016 C3116.31867,2888.80859 3117.72491,2888.63281 3119.13116,2888.63281 C3119.48273,2888.63281 3120.5374,2888.7207 3122.29523,2888.89648 C3122.64679,2888.80859 3122.82257,2888.63281 3122.82257,2888.36914 C3122.82257,2887.31445 3121.54817,2886.78711 3118.99933,2886.78711 L3117.02179,2886.78711 C3110.34207,2886.78711 3103.48667,2887.40234 3096.45538,2888.63281 C3095.48858,2888.89649 3095.00519,2889.24804 3095.00519,2889.6875 Z M3061.25519,2896.14746 C3061.60675,2897.11426 3062.4417,2897.6416 3063.76007,2897.72949 C3066.04524,2897.72949 3068.37432,2897.20215 3070.74737,2896.14746 C3072.94465,2895.26855 3076.63602,2894.34571 3081.82159,2893.37891 C3086.21615,2892.58789 3089.16045,2891.88477 3090.6546,2891.26953 L3090.6546,2890.61035 C3090.39093,2890.1709 3089.46808,2889.95117 3087.88605,2889.95117 L3087.09503,2889.95117 C3086.47979,2889.95117 3084.32649,2890.39062 3080.63507,2891.26953 C3077.29521,2891.97266 3073.03256,2892.54394 3067.84698,2892.9834 C3065.91338,2893.07129 3063.84797,2893.73046 3061.65069,2894.96094 C3061.38702,2895.40039 3061.25519,2895.7959 3061.25519,2896.14746 Z M3079.31671,2939.25781 C3079.05304,2939.43359 3078.9212,2939.69726 3078.9212,2940.04883 C3079.00909,2940.22461 3079.18487,2940.3125 3079.44855,2940.3125 L3079.58038,2940.3125 C3079.84405,2940.3125 3079.97589,2940.18067 3079.97589,2939.91699 L3079.97589,2939.78516 C3079.97589,2939.43359 3079.75617,2939.25781 3079.31671,2939.25781 Z M3074.43878,2941.10352 L3074.43878,2941.23535 C3074.43878,2941.58692 3074.61456,2941.7627 3074.96612,2941.7627 C3075.31769,2941.7627 3075.58136,2941.58692 3075.75714,2941.23535 C3075.66925,2940.7959 3075.49347,2940.57617 3075.2298,2940.57617 L3074.96612,2940.57617 C3074.61456,2940.57617 3074.43878,2940.75195 3074.43878,2941.10352 Z M3069.69269,2942.55371 C3069.69269,2942.81738 3069.78058,2942.99316 3069.95636,2943.08105 L3070.22003,2943.08105 C3070.74738,2943.08105 3071.01105,2942.77344 3071.01105,2942.1582 L3071.01105,2942.02637 C3070.92315,2941.76269 3070.74738,2941.63086 3070.4837,2941.63086 C3069.95636,2941.63086 3069.69269,2941.93847 3069.69269,2942.55371 Z M3061.25519,2945.4541 C3061.25519,2945.71777 3061.51886,2945.9375 3062.0462,2946.11328 L3062.17804,2946.11328 C3063.23273,2946.11328 3064.55108,2945.542 3066.13312,2944.39941 C3066.66046,2943.87207 3066.92413,2943.38867 3066.92413,2942.94922 C3066.66046,2942.42187 3066.39679,2942.1582 3066.13312,2942.1582 C3064.02373,2942.77344 3062.39777,2943.78417 3061.25519,2945.19043 L3061.25519,2945.4541 Z M3081.68976,2964.96582 C3081.77765,2964.96582 3081.95343,2965.05371 3082.2171,2965.22949 C3082.2171,2966.37208 3081.47004,2967.29492 3079.97589,2967.99805 C3079.53643,2968.08594 3079.09699,2968.12988 3078.65753,2968.12988 L3078.52569,2968.12988 C3077.99835,2968.12988 3077.73468,2967.91016 3077.73468,2967.4707 L3077.73468,2967.20703 C3077.73468,2966.32812 3078.8333,2965.58106 3081.03058,2964.96582 L3081.68976,2964.96582 Z M3126.2503,3019.01855 C3127.39289,3018.93066 3128.40362,3018.44727 3129.28253,3017.56836 L3129.28253,3017.43652 C3128.22784,3017.43652 3127.21711,3017.96386 3126.2503,3019.01855 Z M3118.07648,3022.44629 L3118.07648,3022.57812 L3119.13116,3022.57812 C3121.15266,3022.57812 3122.86651,3021.65528 3124.27276,3019.80957 L3123.74542,3019.67773 C3121.37236,3019.67773 3119.48273,3020.60058 3118.07648,3022.44629 Z M3116.36261,3023.63281 L3116.49444,3023.63281 C3117.28546,3023.36914 3117.68097,3023.10547 3117.68097,3022.8418 L3117.54913,3022.8418 C3117.10968,3022.8418 3116.71417,3023.10547 3116.36261,3023.63281 Z" id="Backofice"></path>
        </g>
    </g>
</svg>