<?xml version="1.0" encoding="UTF-8"?>
<svg width="969px" height="283px" viewBox="0 0 969 283" version="1.1" xmlns="http://www.w3.org/2000/svg" xmlns:xlink="http://www.w3.org/1999/xlink">
    <!-- Generator: Sketch 54.1 (76490) - https://sketchapp.com -->
    <title>fromus</title>
    <desc>Created with Sketch.</desc>
    <g id="Page-1" stroke="none" stroke-width="1" fill="none" fill-rule="evenodd">
        <g id="Artboard" transform="translate(-2914.000000, -1870.000000)" fill-rule="nonzero" stroke="#FFFFFF">
            <path d="M3042.0905,1870.875 L3044.903,1870.875 C3061.67391,1870.875 3076.30918,1874.10413 3088.80925,1880.5625 C3089.43425,1880.97917 3090.11133,1881.55208 3090.8405,1882.28125 L3090.8405,1883.6875 C3090.8405,1884.41667 3091.51757,1885.82291 3092.87175,1887.90625 C3094.12175,1890.40626 3095.52799,1894.20831 3097.0905,1899.3125 C3096.98633,1900.04167 3096.25717,1901.08333 3094.903,1902.4375 C3092.92382,1903.68751 3091.62175,1904.3125 3090.99675,1904.3125 L3090.99675,1904.46875 C3088.9134,1904.36458 3087.29884,1904.3125 3086.153,1904.3125 C3082.61131,1904.3125 3079.59051,1904.67708 3077.0905,1905.40625 C3068.54879,1904.78125 3062.35093,1904.46875 3058.49675,1904.46875 C3052.35088,1904.46875 3045.21554,1905.40624 3037.0905,1907.28125 C3027.40295,1909.26043 3011.51769,1911.49999 2989.43425,1914 L2990.8405,1914 L2990.8405,1914.15625 C2990.31966,1914.15625 2990.05925,1914.26042 2990.05925,1914.46875 C2988.39257,1924.57297 2986.10093,1935.35411 2983.18425,1946.8125 C2980.89257,1956.08338 2978.23634,1966.44786 2975.2155,1977.90625 L2975.37175,1977.90625 C3002.87188,1973.01039 3020.73629,1969.72917 3028.9655,1968.0625 C3030.00717,1967.75 3031.25716,1967.59375 3032.7155,1967.59375 C3036.56968,1967.59375 3042.24671,1969.20832 3049.74675,1972.4375 C3051.93426,1973.16667 3053.65299,1974.57291 3054.903,1976.65625 C3056.25717,1979.15626 3056.93425,1981.91665 3056.93425,1984.9375 L3056.93425,1986.34375 C3056.93425,1988.01042 3056.56967,1989.05208 3055.8405,1989.46875 C3052.81965,1991.76043 3047.61137,1994.2604 3040.2155,1996.96875 C3037.92382,1997.80209 3035.31968,1998.42708 3032.403,1998.84375 C3031.25716,1998.84375 3028.3926,1999.67708 3023.80925,2001.34375 C3010.78835,2003.7396 2997.81973,2006.23957 2984.903,2008.84375 C2983.34049,2007.90625 2982.45508,2007.4375 2982.24675,2007.4375 C2981.83008,2007.4375 2980.94467,2008.11458 2979.5905,2009.46875 C2979.17383,2009.78125 2978.86133,2009.9375 2978.653,2009.9375 L2976.93425,2009.15625 L2976.4655,2009.15625 C2975.73633,2009.15625 2974.12176,2009.67708 2971.62175,2010.71875 C2970.58007,2011.23959 2969.17384,2011.5 2967.403,2011.5 C2966.36132,2011.70833 2964.74676,2012.69791 2962.55925,2014.46875 C2960.26757,2016.8646 2958.91342,2018.0625 2958.49675,2018.0625 C2956.93424,2019.93751 2956.10091,2020.875 2955.99675,2020.875 C2955.26758,2020.875 2954.74675,2021.39583 2954.43425,2022.4375 C2954.43425,2024.83335 2952.97593,2033.01035 2950.05925,2046.96875 C2949.33008,2051.03127 2948.80925,2053.99999 2948.49675,2055.875 C2947.87174,2057.75001 2947.03842,2059.41666 2945.99675,2060.875 C2945.58008,2061.39584 2945.31966,2062.02083 2945.2155,2062.75 C2945.2155,2063.0625 2945.58008,2063.27083 2946.30925,2063.375 C2946.51758,2063.58333 2946.62175,2063.84375 2946.62175,2064.15625 C2944.5384,2075.0938 2942.61134,2083.8958 2940.8405,2090.5625 C2940.31966,2092.85418 2939.79883,2096.70831 2939.278,2102.125 C2938.96549,2106.29169 2938.80925,2108.6875 2938.80925,2109.3125 C2938.91341,2111.91668 2938.9655,2114.46874 2938.9655,2116.96875 L2938.9655,2118.0625 C2938.9655,2120.25001 2939.48632,2121.65625 2940.528,2122.28125 L2940.68425,2122.28125 C2940.89258,2122.07292 2941.10091,2121.76042 2941.30925,2121.34375 C2940.99674,2120.19791 2940.8405,2119.10417 2940.8405,2118.0625 C2940.8405,2117.33333 2941.15299,2114.31253 2941.778,2109 C2941.88216,2108.79167 2941.93425,2108.27084 2941.93425,2107.4375 C2941.93425,2106.91666 2941.88216,2105.3021 2941.778,2102.59375 C2941.778,2100.40624 2942.14258,2097.90626 2942.87175,2095.09375 C2942.87175,2094.15625 2943.08008,2093.11459 2943.49675,2091.96875 C2944.12175,2086.55206 2944.74674,2082.1771 2945.37175,2078.84375 C2946.62175,2073.63539 2948.02799,2068.58336 2949.5905,2063.6875 C2950.63217,2059.41665 2951.153,2055.77085 2951.153,2052.75 C2952.19467,2047.74997 2952.7155,2044.67709 2952.7155,2043.53125 C2952.7155,2042.07291 2953.75715,2038.06253 2955.8405,2031.5 C2956.04883,2031.91667 2956.25716,2032.125 2956.4655,2032.125 C2956.88217,2032.125 2957.76757,2030.25002 2959.12175,2026.5 C2959.53842,2025.24999 2960.26757,2024.625 2961.30925,2024.625 L2961.4655,2024.625 L2961.778,2024.78125 C2956.6738,2039.98966 2951.88219,2060.35404 2947.403,2085.875 C2945.63215,2095.04171 2944.74675,2105.71869 2944.74675,2117.90625 L2944.74675,2147.125 C2944.74675,2150.45835 2944.64258,2152.125 2944.43425,2152.125 L2943.3405,2152.125 C2941.36132,2152.02083 2940.31966,2151.86458 2940.2155,2151.65625 C2940.11133,2149.05207 2939.95508,2147.75 2939.74675,2147.75 C2939.74675,2147.95833 2939.33008,2149.05207 2938.49675,2151.03125 C2938.49675,2151.44792 2938.39258,2151.65625 2938.18425,2151.65625 C2937.66341,2151.76042 2937.0905,2151.8125 2936.4655,2151.8125 L2935.37175,2151.8125 C2931.41339,2151.8125 2928.75717,2150.71876 2927.403,2148.53125 C2925.42382,2146.23957 2923.91342,2144.52084 2922.87175,2143.375 C2919.8509,2141.18749 2917.55925,2134.7813 2915.99675,2124.15625 C2915.05924,2117.07288 2914.5905,2109.36463 2914.5905,2101.03125 C2914.5905,2084.26033 2916.77797,2066.13551 2921.153,2046.65625 C2924.17384,2035.40619 2925.84049,2029.15626 2926.153,2027.90625 C2925.21549,2027.38541 2924.278,2026.39584 2923.3405,2024.9375 C2921.56965,2022.12499 2920.2155,2019.10418 2919.278,2015.875 C2916.98632,2007.12496 2915.8405,2001.60418 2915.8405,1999.3125 L2915.8405,1997.4375 C2915.94466,1993.37498 2916.20508,1991.1875 2916.62175,1990.875 C2917.55925,1989.72916 2919.38215,1988.89584 2922.0905,1988.375 L2931.62175,1987.4375 C2931.72591,1987.4375 2933.13215,1987.07292 2935.8405,1986.34375 L2935.8405,1988.0625 C2935.8405,1988.375 2936.10091,1988.58333 2936.62175,1988.6875 L2936.778,1988.6875 C2937.403,1988.6875 2938.08008,1987.59376 2938.80925,1985.40625 C2939.95509,1982.3854 2942.0384,1975.82297 2945.05925,1965.71875 C2945.47592,1964.05208 2946.62174,1962.43751 2948.49675,1960.875 C2949.22592,1960.25 2949.5905,1959.52084 2949.5905,1958.6875 C2949.38216,1957.33333 2949.278,1955.92709 2949.278,1954.46875 C2949.278,1952.28124 2949.79882,1949.93751 2950.8405,1947.4375 C2951.04883,1946.8125 2951.153,1946.29167 2951.153,1945.875 C2951.153,1945.66667 2951.10091,1945.35417 2950.99675,1944.9375 C2952.66342,1937.12496 2953.49675,1929.31254 2953.49675,1921.5 C2951.30924,1922.125 2949.43425,1922.4375 2947.87175,1922.4375 L2947.55925,1922.4375 C2939.95504,1922.4375 2934.90301,1916.0834 2932.403,1903.375 C2934.59051,1902.33333 2936.77799,1900.97917 2938.9655,1899.3125 C2939.69467,1898.79166 2941.88214,1897.90626 2945.528,1896.65625 L2945.68425,1896.5 L2944.903,1896.5 L2944.903,1896.34375 C2945.11133,1896.23958 2945.2155,1896.03125 2945.2155,1895.71875 L2945.2155,1895.40625 C2945.00716,1895.09375 2944.48633,1894.9375 2943.653,1894.9375 C2941.15298,1894.9375 2938.75717,1895.66666 2936.4655,1897.125 L2936.30925,1897.28125 L2935.8405,1897.125 C2935.11133,1897.125 2933.18426,1897.74999 2930.05925,1899 C2929.95508,1899.10417 2929.79883,1899.15625 2929.5905,1899.15625 L2929.43425,1899.15625 C2929.12174,1898.11458 2928.9655,1897.33334 2928.9655,1896.8125 C2928.9655,1887.95829 2950.78819,1880.77086 2994.43425,1875.25 C3003.80929,1873.99999 3016.46542,1872.64584 3032.403,1871.1875 C3035.94468,1870.97917 3039.17382,1870.875 3042.0905,1870.875 Z M3046.4655,1875.71875 L3037.24675,1875.40625 C3036.20507,1875.40625 3033.13219,1875.61458 3028.028,1876.03125 L3024.43425,1876.03125 C3022.0384,1876.03125 3019.17385,1876.60416 3015.8405,1877.75 C3015.63216,1877.85417 3015.31967,1877.90625 3014.903,1877.90625 L3012.87175,1877.90625 C3006.20505,1877.90625 2999.59053,1878.73958 2993.028,1880.40625 C2992.40299,1880.82292 2992.03841,1881.23958 2991.93425,1881.65625 C2992.03841,1882.38542 2992.45508,1882.75 2993.18425,1882.75 C3000.16345,1882.125 3006.04881,1881.39584 3010.8405,1880.5625 C3015.21552,1879.72916 3025.31958,1878.89584 3041.153,1878.0625 C3041.778,1878.0625 3042.66341,1878.01042 3043.80925,1877.90625 C3045.47592,1877.90625 3051.10087,1878.27083 3060.68425,1879 L3070.68425,1879.46875 C3069.53841,1877.80208 3067.61134,1876.96875 3064.903,1876.96875 C3056.77796,1875.82291 3051.88217,1875.25 3050.2155,1875.25 L3049.903,1875.25 C3048.23632,1875.25 3047.0905,1875.40625 3046.4655,1875.71875 Z M2964.5905,1887.90625 C2961.46548,1888.32292 2959.903,1888.58333 2959.903,1888.6875 C2960.00716,1888.6875 2960.05925,1888.73958 2960.05925,1888.84375 C2959.64258,1889.15625 2957.35093,1889.98958 2953.18425,1891.34375 C2951.51757,1891.96875 2950.47592,1892.54166 2950.05925,1893.0625 L2950.05925,1893.375 C2950.05925,1894 2950.63216,1894.3125 2951.778,1894.3125 C2953.028,1894.3125 2954.01758,1894.10417 2954.74675,1893.6875 L2953.3405,1893.6875 C2953.23633,1893.6875 2953.18425,1893.63542 2953.18425,1893.53125 C2954.74675,1892.69791 2958.18422,1891.65626 2963.49675,1890.40625 C2965.68426,1890.09375 2966.778,1889.88542 2966.778,1889.78125 C2966.98633,1889.78125 2967.0905,1889.67708 2967.0905,1889.46875 C2967.0905,1888.63541 2966.41342,1888.11458 2965.05925,1887.90625 L2964.5905,1887.90625 Z M2988.80925,1914 L2988.80925,1914.15625 L2989.278,1914.15625 L2989.278,1914 L2988.80925,1914 Z M2969.5905,1975.71875 C2969.69466,1976.34375 2969.95508,1976.65625 2970.37175,1976.65625 C2970.89258,1976.65625 2971.25716,1976.1875 2971.4655,1975.25 C2972.7155,1972.33332 2973.3405,1970.19792 2973.3405,1968.84375 C2974.38217,1964.46873 2975.05924,1961.50001 2975.37175,1959.9375 C2975.78842,1956.18748 2976.20508,1953.94792 2976.62175,1953.21875 C2977.45508,1950.71874 2978.02799,1948.37501 2978.3405,1946.1875 C2979.06967,1943.68749 2980.21549,1938.89587 2981.778,1931.8125 L2984.903,1920.71875 C2985.00716,1920.19791 2985.05925,1919.625 2985.05925,1919 L2985.05925,1918.84375 C2985.05925,1918.21875 2985.00716,1917.22917 2984.903,1915.875 C2984.69466,1916.08333 2984.01759,1917.90623 2982.87175,1921.34375 C2981.72591,1926.65628 2980.73633,1930.35416 2979.903,1932.4375 C2977.19465,1943.47922 2974.79884,1952.6458 2972.7155,1959.9375 C2970.63215,1969.31255 2969.5905,1974.57291 2969.5905,1975.71875 Z M3000.528,1977.59375 C3000.528,1978.01042 3000.84049,1978.21875 3001.4655,1978.21875 C3001.778,1978.21875 3001.93425,1978.0625 3001.93425,1977.75 L3001.93425,1977.28125 C3001.93425,1976.96875 3001.72592,1976.8125 3001.30925,1976.8125 C3000.89258,1976.8125 3000.63216,1977.07291 3000.528,1977.59375 Z M2993.80925,1979.46875 L2993.80925,1979.625 C2993.80925,1980.04167 2994.06966,1980.25 2994.5905,1980.25 C2995.11133,1980.25 2995.52799,1980.04167 2995.8405,1979.625 C2995.8405,1979.10416 2995.528,1978.79167 2994.903,1978.6875 C2994.17383,1978.6875 2993.80925,1978.94791 2993.80925,1979.46875 Z M2986.778,1981.65625 C2986.778,1982.07292 2987.03841,1982.28125 2987.55925,1982.28125 L2987.7155,1982.28125 C2988.54883,1982.28125 2988.9655,1981.8125 2988.9655,1980.875 C2988.75716,1980.35416 2988.49675,1980.09375 2988.18425,1980.09375 C2987.24674,1980.09375 2986.778,1980.61458 2986.778,1981.65625 Z M2974.5905,1985.71875 L2974.5905,1985.875 C2974.5905,1986.1875 2974.90299,1986.44792 2975.528,1986.65625 L2975.68425,1986.65625 C2977.55926,1986.65625 2979.59049,1985.77084 2981.778,1984 C2982.50717,1983.375 2982.87175,1982.69792 2982.87175,1981.96875 C2982.55924,1981.34375 2982.14258,1981.03125 2981.62175,1981.03125 C2979.64257,1981.44792 2977.55926,1982.59374 2975.37175,1984.46875 C2974.85091,1985.09375 2974.5905,1985.51042 2974.5905,1985.71875 Z M2940.528,2124.625 C2940.528,2124.72917 2940.58008,2125.19791 2940.68425,2126.03125 L2940.8405,2126.03125 L2940.99675,2124.625 C2940.99675,2124 2940.89258,2123.375 2940.68425,2122.75 C2940.58008,2122.75 2940.528,2123.37499 2940.528,2124.625 Z M2939.278,2135.71875 L2939.278,2135.875 C2939.278,2138.06251 2939.59049,2140.40624 2940.2155,2142.90625 C2941.153,2139.98957 2941.62175,2137.12501 2941.62175,2134.3125 L2941.62175,2134 C2941.62175,2132.02082 2941.36133,2129.83335 2940.8405,2127.4375 C2940.52799,2127.95834 2940.16342,2129.15624 2939.74675,2131.03125 C2939.43424,2132.48959 2939.278,2134.05208 2939.278,2135.71875 Z M3169.36375,1925.09375 C3171.96793,1926.76042 3174.83248,1929.10415 3177.9575,1932.125 C3181.39501,1935.56252 3183.79082,1938.53124 3185.145,1941.03125 C3186.81167,1943.63543 3188.11374,1946.4479 3189.05125,1949.46875 C3189.57208,1950.82292 3189.8325,1951.65625 3189.8325,1951.96875 C3189.20749,1952.38542 3188.895,1952.80208 3188.895,1953.21875 C3189.2075,1954.15625 3189.36375,1954.9375 3189.36375,1955.5625 C3189.36375,1956.5 3188.895,1958.53123 3187.9575,1961.65625 C3187.22833,1963.21876 3186.86375,1964.62499 3186.86375,1965.875 C3186.86375,1966.70834 3187.33249,1968.27082 3188.27,1970.5625 C3188.37416,1971.08334 3188.42625,1971.5 3188.42625,1971.8125 C3188.42625,1972.64584 3187.59292,1974.83332 3185.92625,1978.375 C3184.15541,1982.95836 3182.90542,1985.87499 3182.17625,1987.125 C3181.86375,1987.85417 3181.23875,1988.375 3180.30125,1988.6875 C3179.36374,1989.52084 3178.47834,1990.77083 3177.645,1992.4375 C3174.51998,1996.70835 3171.96792,2001.03123 3169.98875,2005.40625 C3169.15541,2007.17709 3166.23877,2010.87497 3161.23875,2016.5 L3161.395,2016.5 C3164.10334,2014.10415 3167.01998,2011.5521 3170.145,2008.84375 L3170.30125,2008.84375 C3165.09289,2015.82295 3158.06171,2024.1562 3149.2075,2033.84375 C3141.60329,2041.86462 3135.14502,2048.27081 3129.8325,2053.0625 L3122.9575,2059.3125 C3131.81171,2064.00002 3143.00951,2069.41664 3156.55125,2075.5625 C3166.8638,2080.35419 3174.05123,2084.15624 3178.11375,2086.96875 C3178.84292,2087.59375 3179.93666,2088.68749 3181.395,2090.25 C3183.47834,2091.81251 3184.88458,2093.73957 3185.61375,2096.03125 L3185.77,2097.28125 C3185.77,2101.34377 3181.70754,2104.26041 3173.5825,2106.03125 C3170.66582,2104.88541 3167.74918,2103.53126 3164.8325,2101.96875 L3155.61375,2096.8125 C3152.2804,2094.83332 3148.58252,2092.33335 3144.52,2089.3125 C3144.10333,2088.89583 3142.69709,2088.375 3140.30125,2087.75 C3137.80123,2086.70833 3133.27003,2084.57293 3126.7075,2081.34375 C3124.72832,2080.40625 3123.63458,2079.9375 3123.42625,2079.9375 L3123.27,2079.9375 C3123.16583,2079.9375 3122.9575,2080.04167 3122.645,2080.25 C3122.85333,2081.08334 3123.21791,2081.65625 3123.73875,2081.96875 C3128.73877,2084.78126 3134.1033,2088.06248 3139.8325,2091.8125 C3144.20752,2094.52085 3149.15539,2096.96874 3154.67625,2099.15625 C3158.42627,2100.92709 3162.01998,2102.85416 3165.4575,2104.9375 C3166.7075,2105.77084 3167.85333,2106.55208 3168.895,2107.28125 L3166.86375,2108.0625 C3165.19707,2108.79167 3164.10333,2109.83333 3163.5825,2111.1875 C3163.27,2111.60417 3162.9575,2111.8125 3162.645,2111.8125 L3162.17625,2111.8125 C3161.13458,2111.8125 3158.00961,2110.25002 3152.80125,2107.125 C3146.44705,2103.37498 3139.10337,2099.9896 3130.77,2096.96875 C3125.3533,2095.09374 3118.84295,2093.27084 3111.23875,2091.5 C3098.32202,2087.74998 3087.54087,2084.78126 3078.895,2082.59375 L3078.73875,2082.59375 C3077.80124,2083.11459 3076.7075,2083.89583 3075.4575,2084.9375 C3075.24916,2084.9375 3074.88458,2085.97916 3074.36375,2088.0625 C3071.0304,2099.20839 3069.36375,2106.03124 3069.36375,2108.53125 L3069.36375,2108.6875 C3069.36375,2109.625 3069.88458,2112.64581 3070.92625,2117.75 C3071.34292,2120.35418 3071.55125,2122.38541 3071.55125,2123.84375 C3071.55125,2126.65626 3070.82209,2128.73958 3069.36375,2130.09375 C3068.84291,2131.03125 3067.9575,2131.5 3066.7075,2131.5 L3066.0825,2131.5 C3063.16582,2131.5 3059.67627,2130.71876 3055.61375,2129.15625 C3053.32207,2128.11458 3051.23876,2126.86459 3049.36375,2125.40625 C3043.32205,2120.51039 3040.30125,2114.00004 3040.30125,2105.875 C3040.30125,2100.56247 3041.3429,2092.02089 3043.42625,2080.25 C3046.34293,2065.14576 3050.19706,2048.948 3054.98875,2031.65625 C3057.80126,2021.55203 3063.00954,2004.15637 3070.61375,1979.46875 C3073.84293,1968.01036 3076.6554,1957.02089 3079.05125,1946.5 C3079.05125,1946.39583 3079.10333,1946.08334 3079.2075,1945.5625 L3079.05125,1945.5625 C3075.61373,1946.70834 3072.74918,1947.28125 3070.4575,1947.28125 C3065.24914,1947.28125 3061.86376,1944.52086 3060.30125,1939 C3060.30125,1938.58333 3059.41584,1936.91668 3057.645,1934 C3057.22833,1932.95833 3057.02,1932.125 3057.02,1931.5 L3057.02,1931.1875 C3057.02,1930.66666 3057.22833,1930.30208 3057.645,1930.09375 C3066.49921,1924.67706 3073.73872,1921.39584 3079.36375,1920.25 C3082.6971,1919.41666 3086.44706,1919 3090.61375,1919 C3093.73876,1918.6875 3095.87416,1918.32292 3097.02,1917.90625 C3097.85334,1917.48958 3098.32208,1917.22917 3098.42625,1917.125 C3097.28041,1917.02083 3095.82209,1916.96875 3094.05125,1916.96875 L3092.02,1916.96875 C3089.62415,1916.96875 3087.28043,1917.33333 3084.98875,1918.0625 L3076.86375,1919.625 C3074.1554,1920.25 3071.55126,1921.13541 3069.05125,1922.28125 C3068.63458,1922.48958 3067.43667,1922.85416 3065.4575,1923.375 C3063.68666,1924 3061.39501,1925.09374 3058.5825,1926.65625 C3058.5825,1926.76042 3058.53041,1926.8125 3058.42625,1926.8125 L3058.27,1926.8125 L3058.11375,1926.65625 C3058.53042,1925.92708 3059.36374,1925.14584 3060.61375,1924.3125 C3062.80126,1922.85416 3065.0929,1921.50001 3067.48875,1920.25 C3072.17627,1917.85415 3077.59288,1916.03126 3083.73875,1914.78125 C3089.57211,1913.63541 3101.65532,1913.19271 3119.98875,1913.45312 C3138.32217,1913.71354 3154.78034,1917.59371 3169.36375,1925.09375 Z M3084.2075,1936.34375 C3084.2075,1936.86459 3084.41583,1937.125 3084.8325,1937.125 C3085.145,1937.125 3085.30125,1936.91667 3085.30125,1936.5 C3085.19708,1936.08333 3085.145,1935.82292 3085.145,1935.71875 L3084.36375,1935.71875 C3084.25958,1935.82292 3084.2075,1936.03125 3084.2075,1936.34375 Z M3112.3325,1944.3125 L3112.48875,1944.78125 L3112.48875,1945.875 C3112.48875,1946.39584 3111.96792,1948.27082 3110.92625,1951.5 C3110.61375,1952.33334 3110.35333,1954.31248 3110.145,1957.4375 C3109.62416,1960.66668 3109.25958,1962.4375 3109.05125,1962.75 C3106.75957,1964.41667 3105.30125,1966.34374 3104.67625,1968.53125 C3104.36375,1969.98959 3103.68667,1972.02082 3102.645,1974.625 C3102.3325,1975.45834 3101.91583,1977.12499 3101.395,1979.625 C3098.58248,1989.62505 3097.17625,1995.92707 3097.17625,1998.53125 L3097.17625,1999.3125 C3097.17625,2000.04167 3097.3325,2000.40625 3097.645,2000.40625 C3098.27,2000.40625 3099.62415,1997.43753 3101.7075,1991.5 C3102.85334,1988.37498 3103.79083,1985.6146 3104.52,1983.21875 L3104.67625,1983.21875 C3098.00955,2009.57305 3091.96794,2031.60408 3086.55125,2049.3125 C3091.75961,2045.77082 3097.59288,2041.29169 3104.05125,2035.875 C3107.6971,2032.95832 3112.74913,2028.27087 3119.2075,2021.8125 C3126.60337,2014.2083 3131.6554,2008.53127 3134.36375,2004.78125 C3146.96798,1988.84367 3153.27,1975.51047 3153.27,1964.78125 C3153.27,1953.73953 3139.6243,1946.91668 3112.3325,1944.3125 Z M3184.52,1949.78125 C3185.35334,1954.46877 3185.77,1956.86458 3185.77,1956.96875 C3185.97833,1955.71874 3186.13458,1954.57292 3186.23875,1953.53125 C3186.23875,1952.48958 3185.77,1951.39584 3184.8325,1950.25 C3184.8325,1950.25 3184.72833,1950.09375 3184.52,1949.78125 Z M3050.77,2070.25 C3050.77,2070.5625 3051.29083,2070.82292 3052.3325,2071.03125 C3053.16584,2070.09375 3053.84291,2068.89584 3054.36375,2067.4375 C3057.59293,2058.16662 3062.07205,2041.60429 3067.80125,2017.75 C3071.65543,2004.20827 3075.56164,1988.47926 3079.52,1970.5625 C3080.145,1968.89583 3080.97833,1966.81251 3082.02,1964.3125 C3082.9575,1961.29165 3083.42625,1959.20834 3083.42625,1958.0625 L3083.42625,1957.90625 C3083.32208,1956.65624 3082.85334,1956.03125 3082.02,1956.03125 L3081.7075,1956.03125 C3080.87416,1956.03125 3080.30125,1956.86458 3079.98875,1958.53125 C3079.98875,1958.73958 3079.41584,1960.5104 3078.27,1963.84375 L3076.23875,1973.53125 C3065.19703,2013.84395 3057.22836,2043.89573 3052.3325,2063.6875 C3051.91583,2065.04167 3051.395,2067.22915 3050.77,2070.25 Z M3185.145,1959.9375 C3185.24916,1960.25 3185.40541,1960.40625 3185.61375,1960.40625 C3185.92625,1960.30208 3186.0825,1960.19792 3186.0825,1960.09375 L3186.0825,1959.78125 C3186.0825,1959.36458 3185.97833,1958.73959 3185.77,1957.90625 C3185.56166,1957.90625 3185.35333,1958.47916 3185.145,1959.625 C3185.145,1959.625 3185.145,1959.72917 3185.145,1959.9375 Z M3142.48875,2029 C3141.44708,2029.41667 3140.50959,2029.9375 3139.67625,2030.5625 C3138.53041,2031.60417 3137.85333,2032.59375 3137.645,2033.53125 C3137.9575,2034.88542 3138.42624,2035.5625 3139.05125,2035.5625 L3139.2075,2035.5625 C3139.93667,2035.5625 3140.40541,2035.35417 3140.61375,2034.9375 C3141.96792,2033.58333 3142.80125,2032.28126 3143.11375,2031.03125 C3143.42625,2030.30208 3143.73875,2029.9375 3144.05125,2029.9375 C3145.71792,2029.3125 3147.38457,2027.75001 3149.05125,2025.25 C3149.15541,2025.25 3150.7179,2023.37502 3153.73875,2019.625 C3157.59293,2016.29165 3159.88458,2013.94792 3160.61375,2012.59375 C3162.07209,2010.40624 3163.99915,2007.75002 3166.395,2004.625 C3167.645,2002.64582 3168.84291,2000.45835 3169.98875,1998.0625 C3169.98875,1997.64583 3170.50958,1996.60417 3171.55125,1994.9375 C3172.48875,1993.58333 3173.53041,1991.08335 3174.67625,1987.4375 C3175.82209,1983.58331 3177.17624,1980.14585 3178.73875,1977.125 C3179.88459,1973.27081 3180.4575,1970.66667 3180.4575,1969.3125 L3180.30125,1969.3125 C3180.09291,1969.3125 3179.62417,1969.20833 3178.895,1969 C3178.5825,1969 3178.37416,1969.67708 3178.27,1971.03125 C3178.06166,1971.44792 3177.85333,1972.59374 3177.645,1974.46875 C3175.87416,1978.63544 3172.90544,1984.88538 3168.73875,1993.21875 C3165.4054,1999.78128 3163.00959,2004.2604 3161.55125,2006.65625 C3158.8429,2007.59375 3156.75959,2009.36457 3155.30125,2011.96875 C3154.36374,2013.53126 3152.43668,2015.8229 3149.52,2018.84375 C3148.06166,2020.30209 3146.81167,2021.29166 3145.77,2021.8125 C3143.58249,2023.79168 3142.48875,2026.18749 3142.48875,2029 Z M3184.36375,1969.3125 C3184.36375,1969.52083 3184.25958,1969.78125 3184.05125,1970.09375 L3184.2075,1970.09375 L3184.52,1969.3125 L3184.36375,1969.3125 Z M3183.5825,1971.65625 C3183.16583,1972.28125 3182.645,1973.84374 3182.02,1976.34375 C3181.60333,1977.90626 3180.82209,1980.35415 3179.67625,1983.6875 C3180.09292,1983.6875 3180.50958,1983.16667 3180.92625,1982.125 C3182.69709,1979.10415 3183.5825,1976.18751 3183.5825,1973.375 L3183.5825,1971.65625 Z M3104.52,1982.90625 L3104.67625,1982.90625 L3104.67625,1983.0625 L3104.52,1983.0625 L3104.52,1982.90625 Z M3172.645,1996.03125 C3172.645,1996.23958 3172.69708,1996.34375 3172.80125,1996.34375 L3172.9575,1996.34375 L3172.9575,1995.875 C3172.74916,1995.97917 3172.645,1996.03125 3172.645,1996.03125 Z M3052.17625,2074.625 C3050.61374,2077.64585 3049.8325,2080.19791 3049.8325,2082.28125 L3049.67625,2085.25 C3049.88458,2085.35417 3049.98875,2085.45833 3049.98875,2085.5625 C3050.09291,2085.5625 3050.24916,2085.04167 3050.4575,2084 C3051.7075,2080.56248 3052.3325,2077.54168 3052.3325,2074.9375 L3052.3325,2074.625 L3052.17625,2074.625 Z M3086.55125,2079.15625 C3085.40541,2080.40626 3084.52,2081.13542 3083.895,2081.34375 C3088.58252,2082.38542 3092.12415,2083.375 3094.52,2084.3125 C3094.8325,2084.3125 3096.86373,2085.09374 3100.61375,2086.65625 L3100.61375,2086.5 C3100.61375,2085.14583 3099.98875,2084.26042 3098.73875,2083.84375 C3095.4054,2082.07291 3092.17626,2080.71875 3089.05125,2079.78125 C3088.21791,2079.46875 3087.38459,2079.26042 3086.55125,2079.15625 Z M3250.54325,1943.53125 C3261.58497,1943.53125 3272.36611,1947.48954 3282.887,1955.40625 C3284.97034,1955.82292 3287.10574,1956.86458 3289.29325,1958.53125 C3290.64742,1959.57292 3291.94949,1960.87499 3293.1995,1962.4375 C3294.76201,1964.72918 3295.95991,1966.76041 3296.79325,1968.53125 C3298.25159,1971.34376 3299.65783,1975.61455 3301.012,1981.34375 C3302.78284,1989.57296 3303.66825,1997.95829 3303.66825,2006.5 L3303.66825,2009.9375 C3303.66825,2023.5834 3301.84535,2036.96868 3298.1995,2050.09375 C3296.53282,2055.09377 3294.65784,2059.52081 3292.5745,2063.375 C3290.69949,2066.70835 3288.30368,2070.24998 3285.387,2074 C3281.84531,2078.06252 3278.51201,2081.29165 3275.387,2083.6875 C3264.97028,2091.70837 3254.34539,2095.71875 3243.512,2095.71875 C3230.1786,2095.71875 3218.45997,2089.78131 3208.35575,2077.90625 C3196.79319,2071.65622 3188.8766,2062.59381 3184.60575,2050.71875 C3182.10574,2044.05205 3180.85575,2037.07295 3180.85575,2029.78125 L3180.85575,2028.21875 C3180.85575,2015.71869 3184.08488,2002.59382 3190.54325,1988.84375 C3192.62659,1984.67706 3195.0224,1980.56252 3197.73075,1976.5 C3200.02243,1973.06248 3203.35573,1968.94794 3207.73075,1964.15625 C3212.10577,1959.8854 3215.43907,1956.96876 3217.73075,1955.40625 C3221.48077,1952.6979 3224.65782,1950.77084 3227.262,1949.625 C3235.28287,1945.56248 3243.04321,1943.53125 3250.54325,1943.53125 Z M3215.387,1966.8125 L3215.387,1967.125 C3217.78284,1966.29166 3218.98075,1965.61459 3218.98075,1965.09375 C3218.98075,1964.78125 3219.03283,1964.52083 3219.137,1964.3125 C3219.03283,1963.6875 3218.92867,1963.16667 3218.8245,1962.75 C3217.47033,1963.0625 3216.58492,1963.58333 3216.16825,1964.3125 C3215.64741,1965.04167 3215.387,1965.875 3215.387,1966.8125 Z M3216.48075,2031.03125 C3216.48075,2047.80217 3222.00153,2061.49995 3233.04325,2072.125 C3235.02243,2073.79167 3236.53283,2074.98958 3237.5745,2075.71875 C3242.47036,2074.26041 3246.48073,2071.60419 3249.60575,2067.75 C3252.9391,2063.79165 3257.4703,2054.57299 3263.1995,2040.09375 C3264.4495,2036.96873 3265.75158,2031.86462 3267.10575,2024.78125 C3268.14742,2019.78122 3269.18908,2011.81255 3270.23075,2000.875 C3271.37659,1986.49993 3271.9495,1974.05214 3271.9495,1963.53125 L3270.23075,1963.53125 C3262.10571,1963.53125 3254.91828,1965.24998 3248.66825,1968.6875 C3246.5849,1969.93751 3244.39743,1971.44791 3242.10575,1973.21875 C3237.93906,1977.07294 3235.33492,1979.72916 3234.29325,1981.1875 C3231.79324,1984.31252 3229.55368,1987.54165 3227.5745,1990.875 C3225.28282,1994.72919 3223.19951,1999.31247 3221.3245,2004.625 C3218.09532,2013.68755 3216.48075,2022.48954 3216.48075,2031.03125 Z M3212.262,1970.5625 L3212.41825,1971.34375 C3212.73075,1971.23958 3212.99116,1971.08333 3213.1995,1970.875 L3212.73075,1970.25 L3212.41825,1970.25 C3212.41825,1970.25 3212.36617,1970.35417 3212.262,1970.5625 Z M3188.1995,2013.84375 L3188.66825,2013.84375 C3190.33492,2013.84375 3191.16825,2012.64585 3191.16825,2010.25 C3191.27242,2008.58333 3191.58491,2007.17709 3192.10575,2006.03125 C3194.29326,1999.78122 3196.84532,1994.31252 3199.762,1989.625 C3201.11617,1987.43749 3203.19948,1984.78127 3206.012,1981.65625 C3208.61618,1978.73957 3210.64741,1975.45835 3212.10575,1971.8125 C3211.89741,1971.70833 3211.58492,1971.65625 3211.16825,1971.65625 L3210.85575,1971.65625 C3210.02241,1971.65625 3209.24117,1972.28124 3208.512,1973.53125 C3204.55365,1977.69794 3201.42868,1981.4479 3199.137,1984.78125 C3196.22032,1988.84377 3194.4495,1992.0729 3193.8245,1994.46875 L3191.3245,1998.6875 C3189.24115,2002.95835 3188.1995,2008.01039 3188.1995,2013.84375 Z M3187.73075,2017.28125 C3187.00158,2019.05209 3186.637,2020.92707 3186.637,2022.90625 C3186.637,2025.3021 3186.89741,2026.5 3187.41825,2026.5 C3187.83492,2026.70833 3188.09533,2026.8125 3188.1995,2026.8125 L3188.35575,2026.8125 C3188.66825,2026.8125 3188.8245,2026.5 3188.8245,2025.875 C3189.24117,2023.79166 3189.4495,2021.96876 3189.4495,2020.40625 L3189.4495,2019.9375 C3189.4495,2018.27083 3189.08492,2017.4375 3188.35575,2017.4375 L3187.73075,2017.28125 Z M3294.762,2029.46875 L3294.762,2031.96875 C3294.762,2033.01042 3293.61618,2036.91663 3291.3245,2043.6875 C3289.97033,2047.02085 3288.45992,2050.1979 3286.79325,2053.21875 C3285.64741,2054.88542 3284.03284,2057.02082 3281.9495,2059.625 C3280.28282,2062.12501 3279.03284,2064.52082 3278.1995,2066.8125 C3277.78283,2068.06251 3277.5745,2068.73958 3277.5745,2068.84375 L3278.35575,2068.84375 C3279.60575,2068.84375 3280.49116,2068.21876 3281.012,2066.96875 C3287.0537,2059.57288 3291.01199,2053.53127 3292.887,2048.84375 L3294.29325,2044.78125 C3294.29325,2044.57292 3294.76199,2043.47918 3295.6995,2041.5 C3296.9495,2038.27082 3297.5745,2034.88543 3297.5745,2031.34375 C3297.5745,2029.67708 3297.47033,2028.06251 3297.262,2026.5 C3295.59532,2026.5 3294.762,2027.48957 3294.762,2029.46875 Z M3277.73075,2044.78125 C3278.14742,2046.34376 3278.56408,2047.125 3278.98075,2047.125 L3279.137,2047.125 C3279.24117,2046.8125 3279.39741,2046.03126 3279.60575,2044.78125 C3279.70992,2044.78125 3279.762,2044.67708 3279.762,2044.46875 C3279.55366,2044.57292 3278.87659,2044.67708 3277.73075,2044.78125 Z M3276.48075,2069.78125 C3276.58492,2069.98958 3276.74116,2070.14583 3276.9495,2070.25 L3277.41825,2070.25 L3277.41825,2069.9375 L3277.262,2069.3125 C3277.05366,2069.3125 3276.79325,2069.46875 3276.48075,2069.78125 Z M3270.6995,2076.1875 L3270.6995,2076.34375 C3270.80367,2077.48959 3270.95991,2078.0625 3271.16825,2078.0625 C3272.52242,2077.64583 3273.45991,2077.02084 3273.98075,2076.1875 C3274.29325,2075.35416 3274.4495,2074.625 3274.4495,2074 L3274.4495,2073.6875 C3272.15782,2074.625 3270.95992,2075.30208 3270.85575,2075.71875 L3270.6995,2076.1875 Z M3262.41825,2085.25 L3262.41825,2085.71875 C3262.41825,2085.82292 3262.83491,2086.13541 3263.66825,2086.65625 C3266.16826,2085.61458 3267.93908,2083.94793 3268.98075,2081.65625 C3269.08492,2081.65625 3269.137,2081.60417 3269.137,2081.5 C3268.40783,2080.66666 3267.83492,2080.25 3267.41825,2080.25 C3264.29323,2082.43751 3262.62658,2084.10416 3262.41825,2085.25 Z M3379.379,1918.0625 L3379.84775,1918.0625 C3381.41026,1918.27083 3382.1915,1918.6875 3382.1915,1919.3125 C3387.29569,1939.41677 3391.8269,1956.49993 3395.78525,1970.5625 C3398.18109,1978.89587 3400.8894,1987.74995 3403.91025,1997.125 L3404.0665,1997.125 C3404.0665,1996.60416 3405.47274,1994.3646 3408.28525,1990.40625 C3410.68109,1987.6979 3412.76441,1985.71876 3414.53525,1984.46875 C3417.13943,1982.0729 3418.70191,1980.30209 3419.22275,1979.15625 C3419.53525,1978.32291 3420.36858,1977.33334 3421.72275,1976.1875 C3422.45192,1974.10416 3423.38941,1972.02084 3424.53525,1969.9375 C3426.09776,1966.29165 3426.93108,1964.41667 3427.03525,1964.3125 L3427.03525,1964.46875 C3426.41025,1967.38543 3426.09775,1969.26041 3426.09775,1970.09375 L3426.09775,1970.5625 C3426.82692,1969.625 3427.97274,1966.96877 3429.53525,1962.59375 C3429.84775,1961.65625 3430.62899,1959.83335 3431.879,1957.125 C3432.60817,1954.83332 3433.49358,1951.81252 3434.53525,1948.0625 C3438.28527,1939.93746 3441.20191,1934.00002 3443.28525,1930.25 C3444.22275,1928.68749 3445.47274,1927.22917 3447.03525,1925.875 C3448.28526,1925.04166 3449.89982,1924.3125 3451.879,1923.6875 C3460.42071,1922.02083 3466.72273,1921.1875 3470.78525,1921.1875 L3472.8165,1921.1875 C3478.54569,1921.1875 3481.82691,1922.90623 3482.66025,1926.34375 C3482.76442,1926.96875 3482.92067,1928.89582 3483.129,1932.125 C3483.54567,1933.0625 3483.754,1933.73958 3483.754,1934.15625 C3483.754,1934.78125 3482.92067,1936.18749 3481.254,1938.375 C3480.52483,1939.62501 3480.16025,1940.61458 3480.16025,1941.34375 C3480.26442,1941.65625 3480.78524,1942.43749 3481.72275,1943.6875 C3482.97276,1945.56251 3483.59775,1948.0104 3483.59775,1951.03125 C3484.22275,1952.28126 3484.53525,1953.01042 3484.53525,1953.21875 L3484.53525,1953.6875 L3483.59775,1959.46875 C3483.38942,1960.61459 3483.28525,1961.86458 3483.28525,1963.21875 L3483.28525,1966.5 C3482.86858,1972.95837 3482.504,1977.6979 3482.1915,1980.71875 C3481.5665,1986.34378 3481.254,1990.97915 3481.254,1994.625 C3481.254,1995.04167 3481.35817,1998.06247 3481.5665,2003.6875 C3479.89982,2005.97918 3478.85817,2008.9479 3478.4415,2012.59375 C3478.4415,2014.78126 3477.76442,2017.6979 3476.41025,2021.34375 C3475.68108,2022.69792 3475.3165,2023.89583 3475.3165,2024.9375 L3475.3165,2025.09375 C3475.3165,2025.92709 3475.68108,2026.65625 3476.41025,2027.28125 C3476.41025,2032.90628 3475.83734,2046.39573 3474.6915,2067.75 C3474.27483,2078.58339 3473.91025,2084 3473.59775,2084 C3472.24358,2085.45834 3470.78526,2086.5 3469.22275,2087.125 L3469.0665,2087.125 C3470.10817,2076.60411 3470.629,2065.51048 3470.629,2053.84375 C3470.629,2052.28124 3470.57692,2049.10419 3470.47275,2044.3125 L3470.47275,2043.6875 C3470.88942,2043.6875 3471.35816,2040.61461 3471.879,2034.46875 C3471.98317,2033.11458 3472.03525,2032.07292 3472.03525,2031.34375 C3472.03525,2030.71875 3471.98317,2030.25 3471.879,2029.9375 C3471.98317,2029.20833 3472.03525,2028.42709 3472.03525,2027.59375 L3472.03525,2023.375 C3471.93108,2020.24998 3471.5665,2018.6875 3470.9415,2018.6875 C3469.89983,2018.6875 3469.22275,2019.15625 3468.91025,2020.09375 C3468.49358,2024.67711 3467.97275,2028.53123 3467.34775,2031.65625 C3466.72275,2034.78127 3466.20192,2036.34375 3465.78525,2036.34375 L3465.629,2036.34375 L3465.47275,2036.1875 L3465.47275,2036.34375 C3465.88942,2041.13544 3466.09775,2044.26041 3466.09775,2045.71875 C3466.09775,2046.96876 3465.57692,2049.62498 3464.53525,2053.6875 C3464.11858,2055.56251 3463.91025,2057.28124 3463.91025,2058.84375 C3463.91025,2060.30209 3464.22275,2061.91666 3464.84775,2063.6875 C3464.84775,2064.3125 3464.01442,2065.61457 3462.34775,2067.59375 C3461.93108,2068.32292 3461.72275,2068.84375 3461.72275,2069.15625 L3461.72275,2069.46875 C3463.07692,2071.44793 3463.754,2073.42707 3463.754,2075.40625 C3463.754,2077.59376 3462.97276,2081.23956 3461.41025,2086.34375 C3461.09775,2087.90626 3460.83733,2090.45832 3460.629,2094 C3460.52483,2094.20833 3460.05609,2094.625 3459.22275,2095.25 C3452.55605,2101.70837 3448.02484,2104.9375 3445.629,2104.9375 L3445.004,2104.9375 C3444.06649,2104.9375 3443.4415,2104.41667 3443.129,2103.375 C3442.39983,2101.49999 3442.03525,2098.01044 3442.03525,2092.90625 C3442.55609,2075.40616 3442.8165,2065.87501 3442.8165,2064.3125 C3444.17067,2021.49979 3445.004,2000.09375 3445.3165,2000.09375 L3445.629,1996.96875 C3441.56648,2004.46879 3436.87903,2011.81246 3431.5665,2019 C3428.44148,2023.16669 3424.69152,2027.90622 3420.3165,2033.21875 C3417.81649,2036.2396 3415.83734,2038.99999 3414.379,2041.5 C3410.62898,2047.64586 3405.68111,2052.22915 3399.53525,2055.25 C3397.86857,2056.39584 3394.69152,2059.20831 3390.004,2063.6875 C3388.75399,2064.72917 3387.71234,2065.25 3386.879,2065.25 L3386.72275,2065.25 C3385.36858,2065.25 3383.59776,2062.90627 3381.41025,2058.21875 C3379.11857,2053.53123 3376.82693,2047.90628 3374.53525,2041.34375 C3372.24357,2032.38537 3368.91027,2015.87512 3364.53525,1991.8125 C3363.80608,1987.33331 3363.38942,1984.83334 3363.28525,1984.3125 L3363.129,1984.3125 C3362.504,1984.3125 3361.35817,1988.06246 3359.6915,1995.5625 C3357.60816,2005.77088 3354.69152,2020.51032 3350.9415,2039.78125 C3349.37899,2047.28129 3347.60818,2053.63539 3345.629,2058.84375 C3341.98315,2071.13548 3339.01443,2078.68749 3336.72275,2081.5 C3335.36858,2083.37501 3332.76444,2084.83333 3328.91025,2085.875 C3323.07689,2088.16668 3318.96234,2090.35416 3316.5665,2092.4375 C3315.83733,2093.0625 3314.79567,2094.05208 3313.4415,2095.40625 C3312.60816,2096.13542 3311.93109,2096.5 3311.41025,2096.5 L3310.78525,2096.5 C3308.80607,2096.5 3307.13942,2094.62502 3305.78525,2090.875 C3305.26441,2089.20833 3305.004,2087.38543 3305.004,2085.40625 C3305.004,2083.0104 3305.73316,2079.52086 3307.1915,2074.9375 C3310.00401,2063.68744 3313.91022,2043.68764 3318.91025,2014.9375 C3324.63944,1982.229 3329.95189,1959.57298 3334.84775,1946.96875 C3336.93109,1941.76039 3338.96232,1937.8021 3340.9415,1935.09375 C3342.19151,1933.73958 3343.23316,1932.80209 3344.0665,1932.28125 C3345.21234,1928.9479 3347.1394,1926.55209 3349.84775,1925.09375 C3351.72276,1923.94791 3354.74356,1923.11459 3358.91025,1922.59375 C3365.57695,1922.28125 3369.37899,1921.86459 3370.3165,1921.34375 C3375.31652,1919.15624 3378.33733,1918.0625 3379.379,1918.0625 Z M3426.72275,1981.03125 C3426.93108,1981.86459 3427.39983,1982.28125 3428.129,1982.28125 L3428.4415,1982.28125 C3428.96234,1982.28125 3429.95191,1980.40627 3431.41025,1976.65625 C3432.66026,1973.6354 3435.52481,1968.21879 3440.004,1960.40625 C3443.12902,1954.36455 3446.82689,1946.96879 3451.09775,1938.21875 C3448.59774,1941.13543 3446.61859,1943.79165 3445.16025,1946.1875 C3442.66024,1950.25002 3438.44153,1957.5937 3432.504,1968.21875 C3429.37898,1973.21878 3427.8165,1976.13541 3427.8165,1976.96875 C3427.08733,1978.73959 3426.72275,1980.09375 3426.72275,1981.03125 Z M3425.16025,1982.28125 C3425.26442,1982.69792 3425.36858,1982.90625 3425.47275,1982.90625 C3425.88942,1982.90625 3426.09775,1982.59375 3426.09775,1981.96875 L3426.09775,1981.8125 C3426.09775,1981.60417 3425.9415,1981.5 3425.629,1981.5 C3425.3165,1981.5 3425.16025,1981.76041 3425.16025,1982.28125 Z M3420.78525,1989.78125 C3420.26441,1991.23959 3420.004,1992.17708 3420.004,1992.59375 L3422.1915,1992.59375 L3422.1915,1992.4375 C3421.5665,1991.5 3421.09775,1990.61459 3420.78525,1989.78125 Z M3413.754,2026.8125 C3413.754,2027.54167 3414.11858,2028.0625 3414.84775,2028.375 L3415.3165,2028.53125 C3417.39984,2027.17708 3419.89982,2025.04168 3422.8165,2022.125 C3426.35818,2017.85415 3428.49358,2013.94793 3429.22275,2010.40625 L3429.22275,2010.09375 C3428.91025,2009.67708 3428.54567,2009.3125 3428.129,2009 L3427.97275,2009 C3424.11856,2012.85419 3421.56651,2015.87499 3420.3165,2018.0625 C3418.33732,2020.97918 3416.82692,2023.11458 3415.78525,2024.46875 L3413.754,2026.8125 Z M3403.129,2038.0625 C3403.23317,2039.10417 3403.59775,2039.625 3404.22275,2039.625 L3404.379,2039.625 C3405.83734,2039.625 3407.34774,2037.69794 3408.91025,2033.84375 C3406.93107,2034.15625 3405.47275,2034.83333 3404.53525,2035.875 C3403.59774,2036.70834 3403.129,2037.4375 3403.129,2038.0625 Z M3333.59775,2082.125 C3333.49358,2082.4375 3333.85816,2082.59375 3334.6915,2082.59375 C3335.3165,2081.76041 3336.30608,2079.05211 3337.66025,2074.46875 C3340.26443,2070.09373 3343.18107,2057.48969 3346.41025,2036.65625 L3348.129,2031.5 C3348.64984,2029.52082 3348.96233,2028.16667 3349.0665,2027.4375 C3349.0665,2026.5 3348.70192,2026.03125 3347.97275,2026.03125 C3347.13941,2026.03125 3346.61858,2026.65624 3346.41025,2027.90625 C3345.16024,2032.1771 3344.53525,2035.19791 3344.53525,2036.96875 C3342.03524,2053.42717 3339.53526,2064.05206 3337.03525,2068.84375 C3336.09774,2072.07293 3335.10817,2075.40623 3334.0665,2078.84375 C3333.754,2080.82293 3333.59775,2081.91667 3333.59775,2082.125 Z M3724.238,1931.8125 C3729.9672,1931.8125 3735.64422,1932.90624 3741.26925,1935.09375 C3743.24843,1935.61459 3744.65466,1936.34375 3745.488,1937.28125 C3746.42551,1938.42709 3746.89425,1939.72916 3746.89425,1941.1875 C3746.99842,1941.1875 3747.0505,1941.39583 3747.0505,1941.8125 L3747.0505,1942.75 C3747.0505,1948.4792 3742.10263,1973.16645 3732.20675,2016.8125 C3729.60257,2028.06256 3727.88384,2035.14582 3727.0505,2038.0625 C3721.11297,2058.16677 3716.21719,2077.22908 3712.363,2095.25 C3710.59216,2104.00004 3709.70675,2111.08331 3709.70675,2116.5 L3709.70675,2117.125 C3709.70675,2122.95836 3710.64424,2128.53122 3712.51925,2133.84375 C3712.62342,2134.46875 3712.6755,2134.88542 3712.6755,2135.09375 C3712.6755,2135.82292 3712.05051,2136.23958 3710.8005,2136.34375 C3709.65466,2136.44792 3708.66509,2136.5 3707.83175,2136.5 C3701.37339,2136.5 3695.54011,2134.00002 3690.33175,2129 C3688.66508,2126.91666 3687.51925,2124.31252 3686.89425,2121.1875 C3685.33174,2114.72913 3684.5505,2106.18755 3684.5505,2095.5625 C3684.5505,2085.04161 3685.22758,2076.65628 3686.58175,2070.40625 L3690.33175,2050.09375 C3681.89421,2059.88547 3671.68598,2071.34368 3659.70675,2084.46875 C3648.87336,2096.44798 3642.98801,2103.27083 3642.0505,2104.9375 C3639.44632,2107.85418 3636.99843,2110.14583 3634.70675,2111.8125 C3625.54004,2119.00004 3618.50886,2122.59375 3613.613,2122.59375 C3611.84216,2122.59375 3610.38384,2121.86459 3609.238,2120.40625 C3609.02967,2120.40625 3605.01929,2118.32294 3597.20675,2114.15625 C3592.6234,2112.17707 3589.75884,2110.51042 3588.613,2109.15625 C3586.73799,2107.38541 3585.38384,2105.77084 3584.5505,2104.3125 C3582.67549,2100.77082 3581.738,2097.22918 3581.738,2093.6875 C3581.738,2089.62498 3585.0713,2072.22932 3591.738,2041.5 C3598.82137,2010.24984 3605.12339,1986.7605 3610.64425,1971.03125 C3611.58176,1968.84374 3612.88383,1966.60418 3614.5505,1964.3125 C3616.84218,1961.29165 3619.44632,1959.3125 3622.363,1958.375 C3623.71717,1958.0625 3625.22758,1957.90625 3626.89425,1957.90625 C3629.70677,1957.90625 3632.10257,1958.73958 3634.08175,1960.40625 L3636.26925,1961.34375 C3635.33175,1962.69792 3634.39426,1964.72915 3633.45675,1967.4375 C3633.14425,1968.68751 3632.51926,1971.08332 3631.58175,1974.625 C3630.54008,1977.33335 3629.65467,1979.98957 3628.9255,1982.59375 C3628.40467,1985.40626 3627.72759,1989.93747 3626.89425,1996.1875 C3626.26925,1999.41668 3625.48801,2002.54165 3624.5505,2005.5625 C3623.613,2008.27085 3623.14425,2009.88541 3623.14425,2010.40625 L3623.14425,2010.5625 C3623.14425,2011.1875 3623.19633,2012.22916 3623.3005,2013.6875 C3625.27968,2012.85416 3627.31091,2009.46878 3629.39425,2003.53125 C3630.64426,2000.09373 3631.94633,1994.88545 3633.3005,1987.90625 C3634.23801,1982.17705 3635.38383,1973.47923 3636.738,1961.8125 L3636.89425,1961.5 C3638.04009,1961.5 3639.08175,1962.33333 3640.01925,1964 C3640.95676,1966.08334 3641.4255,1969.2604 3641.4255,1973.53125 C3641.4255,1981.86462 3640.07135,1990.97912 3637.363,2000.875 C3630.80047,2025.25012 3625.95677,2043.47911 3622.83175,2055.5625 C3618.35256,2074.00009 3616.113,2085.61456 3616.113,2090.40625 C3618.50885,2089.88541 3621.6859,2088.4271 3625.64425,2086.03125 C3626.89426,2085.09375 3628.97757,2083.16668 3631.89425,2080.25 L3635.95675,2075.5625 C3640.01927,2070.35414 3644.02965,2064.78128 3647.988,2058.84375 C3656.42554,2046.44785 3665.85253,2031.39592 3676.26925,2013.6875 C3685.3318,1998.27076 3691.21715,1988.4271 3693.9255,1984.15625 C3696.00885,1981.65624 3700.33172,1972.073 3706.89425,1955.40625 C3711.89428,1943.01035 3715.69632,1935.51043 3718.3005,1932.90625 C3718.9255,1932.17708 3720.12341,1931.8125 3721.89425,1931.8125 L3724.238,1931.8125 Z M3749.863,1939.15625 C3750.80051,1940.30209 3751.26925,1941.60416 3751.26925,1943.0625 C3751.26925,1944.10417 3750.74842,1946.4479 3749.70675,1950.09375 C3747.31091,1963.42715 3744.02969,1979.52074 3739.863,1998.375 C3739.65467,1999.10417 3739.5505,1999.57292 3739.5505,1999.78125 L3739.39425,1999.78125 L3739.39425,1996.65625 C3739.39425,1991.96873 3740.12341,1986.55211 3741.58175,1980.40625 C3742.51926,1975.71873 3743.66508,1971.08336 3745.01925,1966.5 L3747.363,1959.3125 C3747.363,1955.14581 3747.77966,1951.2396 3748.613,1947.59375 C3749.238,1943.84373 3749.65467,1941.03126 3749.863,1939.15625 Z M3721.113,2028.6875 L3721.113,2030.71875 C3721.21717,2032.80209 3721.738,2033.84375 3722.6755,2033.84375 L3722.988,2033.84375 C3723.71717,2033.32291 3724.08175,2031.44793 3724.08175,2028.21875 L3724.08175,2026.34375 C3724.08175,2023.84374 3724.91508,2020.45835 3726.58175,2016.1875 C3726.89425,2015.25 3727.25883,2012.85419 3727.6755,2009 C3728.40467,2005.14581 3729.34216,2001.18752 3730.488,1997.125 C3731.32134,1994.72915 3732.0505,1992.07293 3732.6755,1989.15625 C3733.19634,1987.17707 3733.82133,1985.45834 3734.5505,1984 L3734.5505,1983.53125 C3734.5505,1981.03124 3735.12341,1977.38544 3736.26925,1972.59375 L3738.76925,1964.625 C3739.81092,1961.60415 3740.95675,1958.63543 3742.20675,1955.71875 L3742.6755,1951.8125 L3744.863,1942.75 C3743.19633,1944.72918 3742.363,1946.03125 3742.363,1946.65625 C3740.17549,1952.17711 3738.61301,1957.02081 3737.6755,1961.1875 C3737.6755,1962.64584 3736.42551,1967.17705 3733.9255,1974.78125 C3732.25883,1978.94794 3730.54009,1984.62496 3728.76925,1991.8125 C3727.93591,1995.77085 3726.37343,2002.38537 3724.08175,2011.65625 C3723.04008,2016.03127 3722.31092,2020.04165 3721.89425,2023.6875 L3721.113,2028.6875 Z M3738.3005,2004.15625 L3738.45675,2004.15625 L3738.45675,2004.3125 L3738.3005,2004.3125 L3738.3005,2004.15625 Z M3738.3005,2004.46875 L3738.45675,2004.46875 C3737.62341,2007.8021 3737.20675,2009.57292 3737.20675,2009.78125 L3737.0505,2009.78125 C3737.363,2008.32291 3737.77967,2006.55209 3738.3005,2004.46875 Z M3642.6755,2095.09375 L3642.83175,2095.09375 C3647.62344,2091.03123 3651.58174,2087.64585 3654.70675,2084.9375 C3659.81094,2079.93748 3662.83175,2076.70834 3663.76925,2075.25 C3673.1443,2064.20828 3678.40466,2057.59376 3679.5505,2055.40625 C3682.67552,2050.71873 3685.43591,2045.61461 3687.83175,2040.09375 C3687.10258,2041.03125 3682.88387,2046.91661 3675.1755,2057.75 C3672.05049,2062.22919 3666.52971,2068.89579 3658.613,2077.75 C3656.73799,2079.83334 3654.13385,2082.59373 3650.8005,2086.03125 C3646.63381,2090.3021 3643.92551,2093.32291 3642.6755,2095.09375 Z M3641.113,2097.125 C3639.863,2098.16667 3639.238,2098.89583 3639.238,2099.3125 L3639.238,2099.46875 C3639.34217,2100.09375 3639.60258,2100.40625 3640.01925,2100.40625 C3640.43592,2100.40625 3640.85258,2099.46876 3641.26925,2097.59375 L3641.26925,2097.28125 C3641.26925,2097.17708 3641.21717,2097.125 3641.113,2097.125 Z M3862.605,1896.1875 C3871.04254,1896.70834 3875.26125,1897.125 3875.26125,1897.4375 C3876.92793,1897.95834 3878.28208,1898.99999 3879.32375,1900.5625 C3881.09459,1903.06251 3881.98,1906.76039 3881.98,1911.65625 C3881.98,1914.9896 3881.61542,1918.42707 3880.88625,1921.96875 C3877.65707,1929.57295 3875.05293,1936.13539 3873.07375,1941.65625 C3870.26124,1950.09379 3867.50085,1959.62495 3864.7925,1970.25 C3864.48,1973.68752 3864.06334,1976.03124 3863.5425,1977.28125 C3862.18833,1979.57293 3860.4696,1980.71875 3858.38625,1980.71875 C3858.17792,1980.71875 3857.65709,1980.61458 3856.82375,1980.40625 C3856.51125,1980.51042 3856.30292,1980.5625 3856.19875,1980.5625 L3859.94875,1958.53125 L3859.94875,1958.375 C3858.38624,1963.06252 3856.51126,1970.30203 3854.32375,1980.09375 L3854.1675,1980.25 C3850.52165,1980.25 3848.02168,1978.7396 3846.6675,1975.71875 C3845.93833,1974.67708 3845.15709,1973.6875 3844.32375,1972.75 C3843.49042,1970.97916 3843.07375,1967.48961 3843.07375,1962.28125 C3843.07375,1955.09371 3843.69875,1946.13547 3844.94875,1935.40625 C3835.05287,1941.86462 3826.04254,1948.2708 3817.9175,1954.625 C3811.45914,1959.52086 3803.0738,1966.76037 3792.76125,1976.34375 L3792.13625,1976.1875 L3791.51125,1976.1875 C3791.19875,1976.1875 3790.93834,1976.39583 3790.73,1976.8125 L3790.88625,1978.0625 C3787.96957,1980.77085 3784.58419,1984.05206 3780.73,1987.90625 C3785.00086,1992.07294 3788.12583,1994.72916 3790.105,1995.875 C3794.16752,1998.16668 3797.76124,2000.45832 3800.88625,2002.75 C3804.01127,2004.93751 3807.81331,2007.85415 3812.2925,2011.5 C3818.9592,2017.02086 3822.605,2020.09375 3823.23,2020.71875 C3824.16751,2022.59376 3826.25082,2025.40623 3829.48,2029.15625 C3830.20917,2029.88542 3831.92791,2032.02082 3834.63625,2035.5625 C3836.09459,2037.12501 3837.55291,2039.36457 3839.01125,2042.28125 C3839.11542,2042.28125 3839.58417,2043.06249 3840.4175,2044.625 L3840.57375,2044.625 C3837.5529,2038.2708 3836.0425,2035.04167 3836.0425,2034.9375 C3838.64668,2038.47918 3840.62583,2041.65624 3841.98,2044.46875 C3845.93836,2052.48962 3847.9175,2060.24996 3847.9175,2067.75 L3847.9175,2070.09375 L3847.76125,2070.09375 C3847.65709,2069.67708 3847.39667,2069.15625 3846.98,2068.53125 C3846.98,2068.94792 3846.45917,2069.67708 3845.4175,2070.71875 C3845.105,2070.71875 3844.68834,2072.22915 3844.1675,2075.25 C3843.855,2076.29167 3843.69875,2078.0104 3843.69875,2080.40625 C3843.28208,2084.26044 3842.81334,2086.86458 3842.2925,2088.21875 C3842.08417,2089.36459 3841.98,2090.87499 3841.98,2092.75 C3841.77167,2093.79167 3840.93834,2095.14583 3839.48,2096.8125 C3839.1675,2097.85417 3837.39669,2100.30206 3834.1675,2104.15625 L3834.63625,2104.625 C3830.26123,2108.68752 3826.35502,2111.91665 3822.9175,2114.3125 C3814.27163,2120.6667 3808.17794,2124.15625 3804.63625,2124.78125 C3802.55291,2125.19792 3801.09459,2125.40625 3800.26125,2125.40625 L3799.63625,2123.53125 C3798.59458,2124.05209 3797.70917,2124.36458 3796.98,2124.46875 L3796.6675,2125.09375 C3797.60501,2125.30208 3798.49042,2125.40625 3799.32375,2125.40625 L3799.32375,2125.5625 C3799.01125,2125.5625 3797.0321,2126.55207 3793.38625,2128.53125 C3792.55292,2129.15625 3788.80295,2130.35416 3782.13625,2132.125 C3778.28207,2132.95834 3775.1571,2133.375 3772.76125,2133.375 L3772.2925,2133.375 C3771.0425,2133.375 3769.84459,2133.21875 3768.69875,2132.90625 C3766.71958,2133.21875 3765.00084,2133.375 3763.5425,2133.375 L3763.23,2133.375 C3756.04247,2133.375 3750.15711,2128.06255 3745.57375,2117.4375 C3744.53208,2114.41665 3743.59459,2111.2396 3742.76125,2107.90625 C3741.82375,2103.32289 3741.355,2100.09376 3741.355,2098.21875 L3741.51125,2098.21875 C3744.94877,2100.51043 3749.11539,2101.65625 3754.01125,2101.65625 C3762.44879,2101.65625 3772.29245,2098.58336 3783.5425,2092.4375 C3786.77169,2090.66666 3790.3654,2088.32293 3794.32375,2085.40625 C3799.84461,2080.82289 3804.7404,2076.50002 3809.01125,2072.4375 C3809.01125,2072.33333 3809.63625,2071.60417 3810.88625,2070.25 C3814.42794,2066.29165 3816.77166,2062.64585 3817.9175,2059.3125 C3818.64667,2057.43749 3819.01125,2055.40626 3819.01125,2053.21875 C3818.90709,2052.28125 3818.855,2051.60417 3818.855,2051.1875 C3816.77166,2047.54165 3815.36542,2045.25 3814.63625,2044.3125 C3811.71957,2041.81249 3808.75085,2039.72917 3805.73,2038.0625 C3803.95916,2037.02083 3797.55297,2033.27087 3786.51125,2026.8125 C3781.40706,2023.68748 3776.98002,2020.66668 3773.23,2017.75 C3765.6258,2011.81247 3761.40709,2006.81252 3760.57375,2002.75 L3760.105,1999.78125 C3756.87582,1996.96874 3754.84459,1994.78126 3754.01125,1993.21875 C3752.44874,1990.8229 3751.6675,1988.01043 3751.6675,1984.78125 C3751.6675,1975.51037 3752.76124,1968.84377 3754.94875,1964.78125 C3756.40709,1961.1354 3759.63623,1956.55211 3764.63625,1951.03125 C3767.0321,1948.42707 3769.06333,1946.50001 3770.73,1945.25 C3778.33421,1939.41664 3786.35496,1934.00003 3794.7925,1929 C3806.8759,1921.49996 3818.12578,1915.30211 3828.5425,1910.40625 C3832.50086,1908.63541 3836.19874,1907.17709 3839.63625,1906.03125 C3842.44877,1905.19791 3845.26124,1904.78125 3848.07375,1904.78125 C3849.84459,1904.78125 3851.77166,1904.9375 3853.855,1905.25 C3854.1675,1903.27082 3854.68833,1901.50001 3855.4175,1899.9375 C3856.25084,1898.37499 3857.39666,1897.33334 3858.855,1896.8125 C3860.10501,1896.39583 3861.355,1896.1875 3862.605,1896.1875 Z M3819.48,1920.09375 C3819.58417,1920.82292 3819.89667,1921.1875 3820.4175,1921.1875 C3825.20919,1919.10416 3828.12583,1917.43751 3829.1675,1916.1875 L3829.32375,1916.03125 C3828.90708,1915.61458 3828.64667,1915.40625 3828.5425,1915.40625 C3825.00082,1916.44792 3821.98002,1918.01041 3819.48,1920.09375 Z M3815.57375,1921.8125 L3816.6675,1921.34375 L3816.6675,1921.03125 C3816.6675,1920.92708 3816.56334,1920.875 3816.355,1920.875 C3815.93833,1920.875 3815.67792,1921.1875 3815.57375,1921.8125 Z M3766.355,1961.34375 C3767.60501,1961.34375 3768.80291,1960.77084 3769.94875,1959.625 C3770.15709,1959.41667 3771.14666,1958.1146 3772.9175,1955.71875 C3779.5842,1949.15622 3784.89665,1944.3646 3788.855,1941.34375 C3793.75086,1937.48956 3797.96957,1934.46876 3801.51125,1932.28125 C3804.5321,1930.71874 3808.59456,1927.75002 3813.69875,1923.375 L3814.94875,1922.125 L3814.32375,1922.125 C3812.86541,1922.125 3811.30293,1922.85416 3809.63625,1924.3125 C3801.82371,1928.89586 3794.06337,1934.15622 3786.355,1940.09375 C3784.79249,1941.55209 3783.28209,1942.95833 3781.82375,1944.3125 C3779.53207,1946.08334 3777.50084,1947.80208 3775.73,1949.46875 C3772.50082,1952.59377 3770.15709,1955.19791 3768.69875,1957.28125 C3767.03208,1959.78126 3766.19875,1961.13542 3766.19875,1961.34375 L3766.355,1961.34375 Z M3858.23,1977.4375 C3859.79251,1977.33333 3860.57375,1977.22917 3860.57375,1977.125 C3860.57375,1977.02083 3860.73,1976.39584 3861.0425,1975.25 L3860.73,1975.09375 C3860.52167,1975.09375 3859.74043,1975.77083 3858.38625,1977.125 C3858.38625,1977.125 3858.33417,1977.22917 3858.23,1977.4375 Z M3805.57375,2016.65625 C3808.49043,2019.0521 3811.14666,2020.45833 3813.5425,2020.875 C3812.50083,2019.10416 3810.73002,2017.85417 3808.23,2017.125 C3806.98,2016.8125 3806.09459,2016.65625 3805.57375,2016.65625 Z M3814.01125,2021.1875 C3814.01125,2022.125 3814.58416,2022.95833 3815.73,2023.6875 C3820.52169,2028.27086 3823.28208,2031.18749 3824.01125,2032.4375 C3826.82377,2035.77085 3829.16749,2039.05207 3831.0425,2042.28125 C3832.91751,2045.82293 3834.1675,2047.85416 3834.7925,2048.375 C3835.20917,2048.79167 3835.88625,2049.10417 3836.82375,2049.3125 C3836.82375,2048.375 3836.45917,2047.22917 3835.73,2045.875 C3833.43832,2041.39581 3830.15711,2036.60419 3825.88625,2031.5 C3821.6154,2026.70831 3818.64668,2023.79167 3816.98,2022.75 C3816.355,2022.33333 3815.36543,2021.8125 3814.01125,2021.1875 Z M3814.7925,2111.03125 C3814.7925,2111.76042 3815.15708,2112.22917 3815.88625,2112.4375 C3816.19875,2112.64583 3816.45917,2112.75 3816.6675,2112.75 C3820.52169,2110.87499 3824.47998,2108.4271 3828.5425,2105.40625 C3834.06336,2100.92706 3837.70916,2096.39586 3839.48,2091.8125 C3839.06333,2091.39583 3838.59459,2090.97917 3838.07375,2090.5625 L3837.9175,2090.5625 C3835.10499,2093.58335 3830.88628,2097.90622 3825.26125,2103.53125 C3823.59458,2105.30209 3821.56335,2106.81249 3819.1675,2108.0625 C3817.50083,2109.10417 3816.09459,2110.04166 3814.94875,2110.875 L3814.7925,2111.03125 Z" id="fromus"></path>
        </g>
    </g>
</svg>