<?xml version="1.0" encoding="UTF-8"?>
<svg width="586px" height="189px" viewBox="0 0 586 189" version="1.1" xmlns="http://www.w3.org/2000/svg" xmlns:xlink="http://www.w3.org/1999/xlink">
    <!-- Generator: Sketch 54.1 (76490) - https://sketchapp.com -->
    <title>Group 2</title>
    <desc>Created with Sketch.</desc>
    <g id="Page-1" stroke="none" stroke-width="1" fill="none" fill-rule="evenodd">
        <g id="Artboard" transform="translate(-1874.000000, -854.000000)" fill-rule="nonzero" stroke="#FFFFFF">
            <g id="Group-2" transform="translate(1875.000000, 855.003945)">
                <path d="M6.38205357,29.9960546 L6.49401942,29.9960546 C8.36012628,29.9960546 11.7937114,31.1896753 16.7948778,33.5769526 L18.5863314,34.248371 C18.5116872,35.5166121 18.3997224,37.754651 18.2504339,40.9625549 C18.3250782,44.5434709 18.3623997,50.6980779 18.3623997,59.4265606 L18.3623997,60.4336882 C18.3623997,74.0859304 18.0638271,82.515877 17.4666729,85.7237809 C17.3173844,87.365034 17.2427412,88.9316613 17.2427412,90.4237096 C17.2427412,92.6617821 17.3547059,94.1911087 17.5786388,95.0117353 L18.138468,95.0117353 C18.4370451,95.0117353 18.8475825,98.6671988 19.3700924,105.978236 C19.7433138,108.663923 20.1538511,110.715458 20.6017168,112.132904 C20.9002939,113.028133 21.4974391,114.632061 22.3931704,116.944736 L22.5051363,116.944736 L22.5051363,115.713802 C22.5051363,114.147152 21.8706694,110.454387 20.6017168,104.635399 L20.6017168,103.516368 C21.0495824,89.1927043 21.2735119,74.5335494 21.2735119,59.5384637 C21.4228004,51.1829931 21.6467299,43.0887523 21.945307,35.2554986 L21.945307,35.0316925 C22.5424612,35.0316925 23.176928,35.9269081 23.8487265,37.717366 C24.5951692,40.6268603 24.968385,43.1260037 24.968385,45.2148714 C25.1176736,46.930727 25.2296383,51.2576022 25.3042826,58.1956269 C25.4535711,58.1956269 25.5282143,59.463849 25.5282143,62.0003311 C25.2296372,93.2587435 25.0430293,113.289192 24.968385,122.092277 L24.968385,132.499262 C24.968385,143.615022 25.229636,149.433923 25.752146,149.95614 C25.8267902,150.105345 25.8641118,150.217247 25.8641118,150.291849 C34.896069,136.191993 41.2034156,126.158118 44.7863408,120.189925 C48.4439103,114.072527 50.2726676,110.454364 50.2726676,109.335328 C50.2726676,109.036918 50.0487381,108.552009 49.6008725,107.880588 C55.721703,96.0188035 63.3726264,80.0914266 72.5538721,60.097979 C73.7481805,57.5614969 74.6438984,55.845667 75.2410526,54.950438 C78.077535,49.5044617 80.2048649,45.4759916 81.6231061,42.864907 C84.9820985,37.2697258 87.4826442,34.4721772 89.1248182,34.4721772 L89.2367841,34.4721772 C90.7296696,34.7705868 91.9986032,34.9197894 93.0436231,34.9197894 C93.4914887,34.9197894 95.9547128,34.7705868 100.433369,34.4721772 L102.112857,34.4721772 C105.322561,34.4721772 107.487212,35.7030986 108.606876,38.1649783 C108.905454,38.9110025 109.05474,39.5451135 109.05474,40.0673304 C107.935076,42.7530174 107.151323,44.2450433 106.703457,44.543453 C104.240196,47.9751642 102.67269,50.5862096 102.000891,52.3766675 C100.433361,55.4353666 97.9701373,59.8741438 94.611145,65.6931323 L94.1632816,121.644665 C94.1632816,122.316086 94.12596,125.710445 94.0513157,131.827844 C94.0513157,144.36105 94.3125668,151.037866 94.8350767,151.858492 L94.9470425,152.082298 C95.618841,150.963262 97.3356336,148.650622 100.097472,145.144308 C103.456464,140.668163 105.919688,137.05 107.487218,134.289711 C108.084372,133.02147 108.382945,132.088954 108.382945,131.492134 L108.382945,131.268328 C108.382945,131.044521 108.196337,130.596913 107.823116,129.925491 C115.287543,115.303418 124.431329,96.8768975 135.254749,74.6453775 C139.80805,65.4692803 142.681811,59.7249804 143.87612,57.4123055 C144.249341,57.0392934 145.219702,55.3234635 146.787232,52.2647645 C148.50405,48.6092461 150.594059,44.9164819 153.05732,41.1863611 C155.296648,37.9784572 156.976119,36.3745293 158.095783,36.3745293 L158.207749,36.3745293 C159.924567,36.5983365 161.193501,36.7102385 162.014588,36.7102385 L162.462451,36.7102385 C166.866464,36.4864312 169.441652,36.3745293 170.188095,36.3745293 L171.195788,36.3745293 C174.405492,36.3745293 176.607465,37.56815 177.801773,39.9554273 C178.10035,40.9252588 178.249636,41.5593698 178.249636,41.8577794 C177.279261,44.2450568 176.458186,45.811684 175.786388,46.5577082 C173.472415,49.6164072 171.942231,52.07825 171.195788,53.9433105 C169.105748,58.1956482 165.522877,64.6113597 160.447066,73.1906376 C158.058449,77.4429753 155.893798,81.620648 153.953047,85.7237809 C149.772967,92.8110104 146.787241,98.8537155 144.995778,103.852077 C144.100047,106.164752 143.353616,108.402791 142.756461,110.566261 L140.293213,116.832833 C138.427106,120.413749 136.001203,125.113631 133.015432,130.932619 C132.940788,130.932619 132.791502,130.895318 132.567569,130.820716 C132.567569,130.895318 132.418283,131.044521 132.119705,131.268328 L132.119705,131.380231 C132.119705,131.529436 132.268992,131.715939 132.567569,131.939747 C128.984644,138.877771 126.148204,144.435568 124.058164,148.613303 C120.475239,155.551328 117.862728,161.109125 116.220554,165.28686 C114.653025,169.31539 113.496056,171.814534 112.749613,172.784365 C112.227103,173.604992 111.44335,174.351005 110.39833,175.022427 C108.606868,175.917656 107.375255,176.365263 106.703457,176.365263 C104.613417,176.962083 99.164467,177.596194 90.3564426,178.267616 C83.6384579,179.312049 79.0105823,179.834258 76.472677,179.834258 L76.0248135,179.834258 C72.889754,179.834258 70.8743888,179.200147 69.9786575,177.931906 C69.6054362,176.887472 69.3441851,161.892612 69.1948966,132.946874 C69.1202523,127.948512 69.0829307,123.285931 69.0829307,118.958991 C65.7985826,125.524004 64.0444685,128.881062 63.8205357,129.030267 C63.7458914,129.030267 63.6339267,128.992966 63.4846381,128.918364 L63.0367747,129.477879 C63.0367747,129.627084 63.1487394,129.850888 63.3726723,130.149298 C55.9828891,144.547564 50.9444761,154.65604 48.2572822,160.475028 C44.37578,169.949535 41.278089,176.365247 38.9641165,179.722355 C35.5304799,184.571512 31.7983221,186.996055 27.7675313,186.996055 C24.6324718,186.996055 21.0496003,185.541329 17.0188095,182.631835 C15.3019912,181.736606 13.5105555,181.027894 11.6444486,180.505677 C7.38972496,179.461243 4.47864192,178.566027 2.91111215,177.820003 C1.49287094,176.924774 0.783760964,176.178761 0.783760964,175.581942 C0.261251042,166.405845 0,144.584965 0,110.118649 L0,102.956853 C0,66.1032592 0.186607887,42.7903539 0.55982926,33.0174373 C2.12735903,31.0031721 4.06808105,29.9960546 6.38205357,29.9960546 Z M104.688072,41.5220703 C103.045898,43.3871307 102.15018,44.9537579 102.000891,46.221999 C101.926247,46.221999 101.851604,46.5204042 101.77696,47.1172235 C103.419134,45.3267655 104.426816,43.7974389 104.800038,42.5291978 L105.023969,41.8577794 C104.874681,41.6339722 104.762716,41.5220703 104.688072,41.5220703 Z M170.971856,48.9076725 C173.061896,46.5949976 174.1069,44.8418671 174.1069,43.6482285 C173.957611,43.4990237 173.882968,43.3871217 173.882968,43.3125193 C172.240794,45.1775797 171.345076,46.6696056 171.195788,47.7886419 C171.046499,48.4600636 170.971856,48.8330701 170.971856,48.9076725 Z M96.0667011,57.1884993 C97.7088751,55.6218486 98.7165577,54.3909272 99.0897791,53.4956982 C99.612289,52.749674 100.209434,51.481452 100.881233,49.690994 C101.254454,48.4973553 101.441062,47.8259437 101.441062,47.6767388 C99.6495994,49.3925944 98.4553089,50.8846203 97.8581547,52.1528614 C96.8131348,54.1671267 96.2159896,55.8456558 96.0667011,57.1884993 Z M165.149632,59.0908514 C166.791806,57.5988031 167.83681,56.3305811 168.284676,55.2861472 C169.255051,53.7194965 170.001483,51.8171634 170.523993,49.5790909 C168.73253,51.2203441 167.612883,52.6004681 167.165017,53.7195043 C166.567863,54.6147333 165.970718,55.9575567 165.373563,57.7480147 C165.373563,58.1210267 165.29892,58.5686345 165.149632,59.0908514 Z M160.3351,68.1549997 C160.3351,66.5137465 161.081532,64.8352173 162.574417,63.1193618 C162.574417,64.9098198 161.827986,66.5883489 160.3351,68.1549997 Z M87.4453305,71.7358978 L87.4453305,73.862056 C88.5649946,71.7731883 89.1994614,70.2438617 89.3487499,69.2740303 C88.2290858,70.3930666 87.594619,71.2136809 87.4453305,71.7358978 Z M154.624842,78.2262755 C156.192371,76.4358175 157.274697,74.6826871 157.871851,72.9668315 C158.095784,72.3700121 158.282392,71.7732018 158.431681,71.1763824 C156.938795,72.7430332 155.893791,74.3469611 155.296637,75.9882142 C154.99806,76.8088408 154.77413,77.5548538 154.624842,78.2262755 Z M90.2444768,73.3025407 C88.8262355,75.9136252 87.8185529,77.8159583 87.2213987,79.009597 C87.2213987,81.1730671 86.9974693,84.4182235 86.5496036,88.7451636 C86.4749594,89.4911878 86.4376378,90.6102072 86.4376378,92.1022556 L86.4376378,92.4379648 C86.4376378,94.6760373 87.1094262,104.63531 88.4530231,122.316083 C88.5276674,123.658927 88.6023106,129.216723 88.6769548,138.98964 C88.9755319,146.300677 89.3860693,150.329147 89.9085792,151.075171 L91.1402036,154.096554 C91.2148478,153.648939 91.2521694,153.350534 91.2521694,153.201329 C91.2521694,152.902919 90.9909184,150.552978 90.4684085,146.151436 C89.8712543,139.138809 89.5726816,130.708862 89.5726816,120.861343 L89.5726816,115.154287 C89.5726816,110.528937 89.7592895,100.756167 90.1325109,85.8356839 C90.2071552,79.3452737 90.2444768,75.1676011 90.2444768,73.3025407 Z M150.370139,81.4714644 C146.488637,89.1555133 140.554506,101.129021 132.567569,117.392348 L134.247057,118.287573 C139.696089,108.440054 143.838784,99.9728066 146.675266,92.885577 L151.489798,81.9190767 C151.415154,81.9190767 151.041938,81.7698741 150.370139,81.4714644 Z M69.0829307,103.516368 L52.4000188,136.527772 L52.4000188,136.639675 L54.0795065,137.422997 C59.90176,126.680249 64.9028513,116.98208 69.0829307,108.3282 L69.0829307,103.516368 Z M64.0444674,124.777951 C64.1191116,125.07636 64.2310764,125.225563 64.3803649,125.225563 C64.5296535,125.225563 64.6789398,125.07636 64.8282283,124.777951 C64.7535841,124.479541 64.6042978,124.330338 64.3803649,124.330338 L64.2683991,124.330338 C64.1937548,124.330338 64.1191116,124.479541 64.0444674,124.777951 Z M133.239364,126.680303 C133.239364,126.90411 133.314007,127.053312 133.463296,127.127915 C133.761873,127.053312 133.911159,126.866809 133.911159,126.5684 C133.911159,126.419195 133.836516,126.307293 133.687227,126.23269 L133.463296,126.23269 C133.314007,126.23269 133.239364,126.381893 133.239364,126.680303 Z M227.128196,50.8100246 L230.151274,50.8100246 C237.24248,50.8100246 241.75839,51.2949331 243.699142,52.2647645 C245.789181,53.0107886 248.140441,54.5028146 250.75299,56.7408871 C252.32052,58.2329354 253.290881,59.4265562 253.664102,60.3217851 C253.888035,60.9932069 254,61.8138212 254,62.7836526 C254,64.2757009 253.402855,65.8796288 252.208546,67.5954844 C249.670641,68.4161109 247.916527,68.8264181 246.946151,68.8264181 C245.080044,68.9010205 243.176644,69.1994257 241.235893,69.7216426 L218.506825,75.9882142 C214.774611,76.7342384 211.527634,77.1072449 208.765796,77.1072449 L209.773488,78.0024694 C207.907382,78.3008791 203.83933,78.7111862 197.569211,79.2334031 C197.494566,79.3080055 196.300276,79.4945088 193.986303,79.7929184 C192.791995,82.9262199 191.48574,86.8054874 190.067498,91.4308372 L190.179464,91.4308372 C194.882054,90.5356082 199.248678,89.8268959 203.279469,89.3046789 C209.997454,88.5586548 216.155514,87.9245438 221.753835,87.4023268 C223.619941,87.6261341 224.851554,87.8126373 225.448708,87.9618422 C226.045862,88.1856494 226.344435,88.5213553 226.344435,88.9689698 C228.658407,89.4165843 230.449843,89.9387933 231.718795,90.5356127 C232.241305,90.6848175 232.614521,91.1324253 232.838454,91.8784494 L233.286317,94.7879291 C234.405981,97.4736161 234.965805,99.6743544 234.965805,101.39021 L234.965805,102.733047 C234.070074,103.479071 231.569528,104.709992 227.464093,106.425848 C223.358658,107.992499 220.522218,108.775812 218.954688,108.775812 C205.444075,110.790077 193.949029,113.140018 184.469206,115.825705 C180.886281,116.870139 178.199127,117.728054 176.407665,118.399476 C177.37804,119.070898 177.863221,119.443904 177.863221,119.518506 L177.863221,119.63041 C175.325315,121.570072 174.01906,122.838294 173.944416,123.435114 L172.264928,126.680303 C170.921331,129.216785 170.137578,131.342922 169.913645,133.058777 C169.764357,133.580994 169.652392,133.842099 169.577748,133.842099 L169.577748,134.065905 C169.353815,135.408748 169.465779,136.341265 169.913645,136.863482 L169.801679,137.870609 C169.279169,137.870609 168.943275,138.131714 168.793987,138.653931 C167.674322,143.27928 167.114499,146.599038 167.114499,148.613303 C166.591989,152.567231 166.330738,155.066375 166.330738,156.110809 C166.330738,158.721893 166.890562,160.624226 168.010226,161.817865 C168.458091,162.563889 169.204523,163.421804 170.249543,164.391635 C169.428456,161.482141 169.017918,159.356004 169.017918,158.013161 C169.017918,157.640149 169.05524,156.334626 169.129884,154.096554 C169.129884,153.723541 168.943276,152.940228 168.570055,151.746589 L168.570055,151.522783 C168.570055,151.298976 168.980592,150.515662 169.801679,149.172819 C170.398833,147.755373 170.697406,146.375249 170.697406,145.032405 C170.697406,144.8832 170.585441,143.68958 170.361509,141.451507 L170.361509,140.891992 C169.838999,137.087269 171.033289,132.461988 173.944416,127.016012 C174.466926,126.04618 175.549251,124.666056 177.191425,122.875598 C177.415358,122.427984 177.639288,121.793873 177.863221,120.973246 C178.087153,120.674837 178.385726,120.525634 178.758947,120.525634 L178.982879,120.525634 C180.251832,120.674839 180.886299,121.271649 180.886299,122.316083 C180.886299,122.763698 180.139867,124.62873 178.646982,127.911236 C176.780875,132.014369 175.474619,134.92382 174.728177,136.639675 C173.011358,141.936447 172.152962,146.71093 172.152962,150.963268 C172.152962,155.66322 173.04868,160.661507 174.840143,165.958278 C178.049846,165.809074 186.036664,162.936924 198.800835,157.341742 C209.848188,152.417983 216.603393,148.986323 219.066654,147.04666 C224.291753,143.987961 228.583735,142.458635 231.942727,142.458635 C234.107411,142.458635 235.189737,143.130046 235.189737,144.47289 L234.741873,148.053788 L234.741873,148.165691 C234.741873,148.538703 234.853838,148.986311 235.077771,149.508528 C232.838443,150.702167 230.711113,152.04499 228.695717,153.537038 C227.87463,154.20846 227.277485,154.80527 226.904264,155.327487 C228.695726,154.954475 230.188589,154.245763 231.382898,153.201329 C232.875783,151.933088 233.920788,151.224376 234.517942,151.075171 C234.517942,151.149773 234.48062,151.410878 234.405976,151.858492 L234.965805,154.879875 C234.965805,156.073514 233.286334,158.125049 229.927342,161.034544 C225.597974,164.391652 220.820812,167.301103 215.595713,169.762983 C211.639566,171.777248 207.534193,173.60498 203.279469,175.246233 L203.279469,174.351008 C202.383738,174.873225 200.890875,175.432735 198.800835,176.029554 C196.860084,176.402566 195.068648,176.58907 193.426474,176.58907 C192.680031,176.663672 191.075203,177.185881 188.611942,178.155712 C187.8655,178.752532 186.708531,179.274741 185.141001,179.722355 C184.24527,179.946163 182.005975,180.35647 178.42305,180.953289 C175.885145,181.475506 173.272634,182.109617 170.58544,182.855641 L170.249543,182.855641 C166.89055,182.855641 164.128754,181.960426 161.96407,180.169968 C154.723575,174.723991 151.103382,166.144842 151.103382,154.432263 C151.103382,146.972021 152.745531,137.273852 156.029879,125.337466 C161.404267,105.642428 165.285711,92.5125996 167.674328,85.947587 C170.212233,78.4873454 171.966348,72.8176468 172.936723,68.9383211 L172.936723,68.8264181 L172.824757,67.3716782 C172.824757,64.6859913 173.683154,62.1868478 175.399972,59.8741729 C175.922482,59.0535463 177.564631,58.1583307 180.326469,57.1884993 C183.237596,55.9948607 188.014758,54.8012399 194.658098,53.6076013 C206.078672,51.7425409 216.90193,50.8100246 227.128196,50.8100246 Z M194.88203,59.5384637 C194.88203,60.135283 195.59114,60.4336882 197.009381,60.4336882 C203.204856,59.9114713 209.027022,59.3519616 214.476054,58.7551422 L215.483747,58.7551422 C216.528767,58.8297447 217.237877,58.8670453 217.611098,58.8670453 C217.835031,58.7924429 217.946996,58.6805409 217.946996,58.5313361 C217.946996,57.8599144 217.34985,57.4123066 216.155542,57.1884993 C215.856965,57.1884993 215.707679,57.1511987 215.707679,57.0765963 C215.633034,57.0765963 215.558391,57.1138969 215.483747,57.1884993 C215.035881,57.1884993 214.513379,57.1511987 213.916225,57.0765963 C207.72075,57.0765963 201.674655,57.636106 195.777757,58.7551422 C195.180603,58.9789495 194.88203,59.240054 194.88203,59.5384637 Z M178.646982,62.0003311 L178.646982,62.1122342 C178.646982,62.4852463 179.020197,62.8209521 179.76664,63.1193618 C179.915929,63.2685666 180.102537,63.3431679 180.326469,63.3431679 C184.730482,62.5971437 188.387996,61.7765295 191.299123,60.8813005 C191.373767,60.6574932 191.411089,60.5082906 191.411089,60.4336882 C191.187156,59.9114713 190.254116,59.6503668 188.611942,59.6503668 C188.014788,59.6503668 186.932462,59.8741707 185.364933,60.3217851 L185.364933,60.2098821 C185.962087,59.83687 186.26066,59.6130661 186.26066,59.5384637 C186.186015,59.3892589 186.036729,59.3146576 185.812796,59.3146576 L185.364933,59.3146576 C183.200249,59.3146576 181.072919,59.9114679 178.982879,61.1051066 C178.758946,61.4035163 178.646982,61.7019215 178.646982,62.0003311 Z M201.823913,91.7665464 C201.823913,91.9157512 202.010521,91.9903525 202.383742,91.9903525 C202.607675,91.9903525 202.71964,91.8784506 202.71964,91.6546433 L202.71964,91.4308372 C202.644995,91.2816323 202.495709,91.2070311 202.271776,91.2070311 C201.973199,91.2070311 201.823913,91.3935343 201.823913,91.7665464 Z M198.912801,92.2141586 C198.912801,92.3633635 199.024766,92.5125661 199.248698,92.6617709 L199.47263,92.6617709 C199.845851,92.5871685 200.032459,92.4379659 200.032459,92.2141586 C199.957815,91.915749 199.808529,91.7665464 199.584596,91.7665464 L199.360664,91.7665464 C199.062087,91.7665464 198.912801,91.915749 198.912801,92.2141586 Z M195.553825,92.885577 C195.62847,93.1839867 195.703113,93.3331893 195.777757,93.3331893 L196.22562,93.3331893 C196.524197,93.3331893 196.710805,93.0720847 196.78545,92.5498678 C196.710805,92.3260606 196.561519,92.2141586 196.337586,92.2141586 L196.22562,92.2141586 C195.852399,92.2141586 195.62847,92.4379625 195.553825,92.885577 Z M188.723908,95.5712506 C188.723908,95.7204554 188.947838,95.869658 189.395703,96.0188628 L189.395703,96.1307659 C190.440723,95.9815611 191.448406,95.5712539 192.418781,94.8998322 C193.015936,94.3776153 193.314508,93.8927068 193.314508,93.4450923 C193.16522,93.0720803 192.94129,92.885577 192.642713,92.885577 L192.530747,92.885577 C191.635016,92.9601794 190.440725,93.6688918 188.94784,95.0117353 C188.798551,95.2355425 188.723908,95.4220457 188.723908,95.5712506 Z M183.909377,117.280445 C184.133309,117.280445 184.357239,117.392347 184.581172,117.616154 C184.581172,118.809793 183.722775,119.630407 182.005957,120.078022 L181.67006,120.078022 C181.14755,120.003419 180.886299,119.779615 180.886299,119.406603 L180.886299,119.2947 C180.886299,118.474074 181.782016,117.839963 183.573479,117.392348 L183.909377,117.280445 Z M223.993152,157.006033 C224.963527,156.782226 225.672637,156.44652 226.120503,155.998906 L226.4564,155.551293 L226.344435,155.551293 C225.523348,155.551293 224.739594,156.036202 223.993152,157.006033 Z M217.387166,159.80361 L217.723064,159.915513 L218.282893,159.915513 C219.925067,159.915513 221.268644,159.132199 222.313664,157.565549 C222.089731,157.565549 221.903123,157.528248 221.753835,157.453645 C219.962372,157.453645 218.50683,158.236959 217.387166,159.80361 Z M216.043576,160.698834 C216.416798,160.698834 216.71537,160.47503 216.939303,160.027416 L216.827337,160.027416 C216.52876,160.027416 216.267509,160.25122 216.043576,160.698834 Z" id="WE"></path>
                <path d="M353.982614,17.3920895 C355.69881,17.3920895 358.347682,19.184899 361.929309,22.7705717 L362.153159,22.7705717 C364.167825,22.7705717 366.55554,24.4139804 369.316378,27.700847 C370.510253,28.7466682 371.778727,29.4936722 373.121837,29.9418812 C374.838034,30.6888964 375.696119,31.3985501 375.696119,32.0708638 C375.696119,32.2202668 375.472271,33.0793213 375.024567,34.6480532 C374.502247,37.3373077 373.86801,43.2386389 373.121837,52.3522237 L373.121837,52.4642754 C373.121837,57.6933814 375.323013,80.8878539 379.725429,122.048389 C380.471601,128.696823 381.404303,137.362069 382.523561,148.044386 C383.269734,153.273492 383.642814,156.933811 383.642814,159.025454 C383.642814,162.31232 382.859345,163.955729 381.292383,163.955729 C377.636139,163.059311 375.061883,162.125556 373.569538,161.154436 C372.375663,160.332719 370.174488,158.764011 366.965947,156.448264 C365.772071,155.925354 365.02591,155.25305 364.727441,154.431333 C364.20512,153.534915 363.458959,151.816806 362.488935,149.276955 C361.071208,144.645461 360.362355,140.387538 360.362355,136.503059 C360.362355,134.56082 360.623511,132.65596 361.145832,130.788422 L361.257757,130.564319 C361.257757,130.340214 361.033909,129.59321 360.586205,128.323284 L360.586205,128.099181 C360.73544,126.978658 360.847364,125.932853 360.921981,124.961733 C361.22045,124.364121 361.369682,123.505066 361.369682,122.384544 C361.369682,121.637529 361.03391,120.666423 360.362355,119.471199 C360.138503,119.02299 359.989271,118.462737 359.914654,117.790424 C360.213123,117.192811 360.362355,116.744609 360.362355,116.445803 C359.616183,114.727668 358.981946,112.897508 358.459625,110.955269 C358.235773,110.731165 357.862693,110.619114 357.340372,110.619114 L356.780746,110.619114 C354.616846,110.619114 347.789472,112.486624 336.298418,116.2217 C328.463609,118.68685 324.023951,119.919406 322.97931,119.919406 C321.636199,120.292914 320.069261,120.479665 318.278448,120.479665 L317.718821,120.367613 C311.301739,132.469258 306.600924,141.918858 303.616235,148.716696 C301.452336,153.646996 299.736165,157.979619 298.467672,161.714695 C297.199179,165.300367 296.564942,168.661885 296.564942,171.799349 L296.564942,172.359607 C296.564942,173.554832 296.676866,175.795843 296.900718,179.08271 C296.900718,179.530919 296.714178,179.75502 296.341092,179.75502 C292.983316,179.008005 289.625591,177.327246 286.267816,174.712693 C284.775471,173.592171 283.171225,172.471665 281.455029,171.351142 C280.485005,169.707709 280,167.802849 280,165.636505 L280,164.964194 C280,160.780909 281.865403,154.281975 285.596264,145.467196 C286.491671,143.076748 288.095917,138.632074 290.409052,132.133043 C293.020655,125.409906 295.59491,119.135073 298.131896,113.308355 C295.147207,110.544399 293.654885,107.705784 293.654885,104.792425 C293.654885,102.177872 294.69951,99.1525059 296.788793,95.7162363 C297.609582,96.4632514 298.206511,97.5464071 298.579597,98.9657359 C298.803449,99.563348 299.400378,100.273002 300.370402,101.094718 C301.564278,101.916435 302.496979,102.327287 303.168534,102.327287 C310.854109,85.892954 318.987265,70.6167233 327.568246,56.498137 C333.761476,46.1146264 340.178462,35.1336685 346.819395,23.5549337 C349.729467,19.4463503 352.117183,17.3920895 353.982614,17.3920895 Z M337.753447,70.2804976 C341.409691,65.3501976 344.580876,60.0838198 347.267096,54.4812062 C348.087886,52.7630714 348.908663,50.8582113 349.729453,48.7665689 C347.565553,51.0076143 345.886691,53.1365756 344.692815,55.1535165 C343.797408,56.6475468 342.715475,58.7018076 341.446982,61.3163606 L339.208476,64.9020154 C338.238452,66.7695533 337.753447,68.5623628 337.753447,70.2804976 Z M349.953303,60.3078952 C346.81938,65.4622998 344.991285,68.7117669 344.468964,70.0563942 C340.141165,78.8711729 334.731497,89.1424772 328.239798,100.870615 L328.239798,100.982667 C330.627549,100.385055 332.791417,99.6754009 334.731464,98.8536842 C339.208498,96.6873403 345.476252,93.9607759 353.534912,90.6739092 C351.744099,77.3770396 350.550241,67.3298365 349.953303,60.5319987 L349.953303,60.3078952 Z M368.644826,61.2043089 C368.346357,62.9971453 368.197125,64.640554 368.197125,66.1345843 L368.197125,66.8068945 C368.197125,69.7202536 368.682129,71.8492149 369.652153,73.1938421 L370.323705,74.426411 L370.43563,74.426411 C370.734099,72.8576791 370.883332,71.4010215 370.883332,70.0563942 C370.883332,67.2177366 370.137171,64.267071 368.644826,61.2043089 Z M369.876004,80.7013068 L369.876004,80.9254103 C369.876004,81.3736193 370.211777,82.7182264 370.883332,84.9592719 C371.256418,86.9015113 371.442958,88.4328694 371.442958,89.5533921 C371.442958,90.1510042 371.40565,91.5329615 371.331033,93.6993054 C371.331033,95.9403509 371.816037,100.347674 372.786061,106.921407 L374.24109,123.280957 C375.434966,133.664468 376.255743,139.341698 376.703446,140.312818 C377.449619,142.553863 378.419628,144.458723 379.613504,146.027455 L379.725429,146.027455 C378.382319,140.126035 377.113845,132.282494 375.919969,122.496595 C375.323032,118.163908 374.763411,111.926425 374.24109,103.78396 C374.24109,100.123585 373.644161,92.3920945 372.450286,80.5892551 C371.927965,79.4687324 371.293728,78.9084794 370.547556,78.9084794 C370.099852,79.43139 369.876004,80.0289932 369.876004,80.7013068 Z M317.383045,109.274493 L317.494971,109.274493 C318.539612,108.60218 319.061925,107.631075 319.061925,106.361149 L318.949999,106.024994 C317.905358,107.070815 317.383045,108.153971 317.383045,109.274493 Z M317.27112,109.498597 C317.196503,109.648 317.159195,109.76005 317.159195,109.834752 L317.383045,109.610649 L317.27112,109.498597 Z M306.078591,131.236629 L306.078591,131.796888 L306.190517,131.796888 C309.249823,127.090692 311.786771,122.608668 313.801436,118.350682 C314.846077,116.034935 315.890703,113.308371 316.935344,110.170907 C313.950655,113.457774 311.712172,117.080743 310.219827,121.039923 C309.175186,123.056864 308.13056,124.924374 307.085919,126.642509 C306.414364,128.211241 306.078591,129.742599 306.078591,131.236629 Z M303.50431,136.054853 C300.743472,140.462242 299.363074,143.82376 299.363074,146.139507 L299.363074,146.923869 C299.363074,147.372078 299.400382,148.007031 299.475,148.828748 C302.16122,145.392478 303.50431,141.470707 303.50431,137.063318 L303.50431,136.054853 Z M294.886063,158.689298 C294.96068,159.884523 295.035296,160.482126 295.109914,160.482126 C296.527641,159.062797 297.236494,157.494089 297.236494,155.775954 C297.236494,155.551849 297.161878,154.916896 297.012643,153.871075 L296.900718,153.871075 C295.557608,155.215702 294.886063,156.821761 294.886063,158.689298 Z M433.622917,0.584332679 L434.406394,0.584332679 C447.315174,-0.984399134 459.701449,0.584309148 471.565588,5.29050459 C475.371067,6.93393792 478.691484,8.72674738 481.526939,10.6689868 C483.243135,11.714808 485.332386,13.3582167 487.794755,15.5992621 C490.257123,18.0644121 491.973294,20.1560231 492.943318,21.874158 C495.0326,25.3104277 496.263766,28.1490427 496.636852,30.3900881 C496.263766,30.7635957 496.077226,31.0997474 496.077226,31.3985535 C496.22646,32.0708671 496.301076,32.5937699 496.301076,32.9672775 L496.301076,33.0793292 C496.301076,33.7516428 496.03992,35.1336001 495.517599,37.2252425 C494.846044,38.5698698 494.510272,39.6903757 494.510272,40.5867939 C494.510272,41.2591075 494.846044,42.3422633 495.517599,43.8362936 C495.592217,44.2098011 495.629525,44.5459529 495.629525,44.844759 C495.629525,45.5170726 495.107212,47.0110805 494.062571,49.3268274 C492.644843,52.8377986 491.712142,55.0414603 491.264439,55.9378785 C490.96597,56.5354906 490.406349,56.9836929 489.585559,57.282499 C489.137856,57.8054096 488.279771,59.0753163 487.011278,61.0922572 C485.220464,63.4827057 483.653526,66.2092701 482.310416,69.2720322 C481.93733,70.3178534 479.81077,73.081768 475.930674,77.5638589 C477.870722,75.8457241 480.03459,73.9782142 482.422341,71.9612733 C479.363035,76.2192596 474.438371,82.0832406 467.648203,89.5533921 C463.618873,93.88608 459.06729,98.442804 453.993319,103.223701 C452.650208,104.493627 451.941355,105.12858 451.866738,105.12858 C457.313796,114.98918 462.648848,123.766476 467.872054,131.460732 C470.185188,134.672898 472.83406,138.071766 475.818749,141.657438 L491.488289,161.602643 C494.547596,165.337719 497.71878,168.923338 501.001938,172.359607 C502.643517,174.003041 504.13584,174.824745 505.47895,174.824745 C505.777419,174.899447 506.448964,174.936797 507.493605,174.936797 L508.948634,174.936797 C509.396337,174.936797 509.620185,175.011497 509.620185,175.1609 C509.620185,175.385005 509.023256,175.982608 507.829381,176.953728 C506.411653,177.850146 505.031255,178.522449 503.688145,178.970658 C503.01659,179.194763 501.785424,179.530915 499.994611,179.979124 C498.94997,180.427333 497.420339,180.875535 495.405674,181.323744 C494.584885,181.62255 493.838723,181.809301 493.167168,181.884003 C492.868699,181.958704 492.570235,181.996055 492.271766,181.996055 C487.720115,181.996055 480.370428,177.812832 470.222485,169.446263 C468.357054,167.877531 465.670874,165.337718 462.163864,161.826746 C457.089893,156.448237 453.545627,152.265015 451.530962,149.276955 C447.650866,144.12255 444.442374,138.968223 441.905388,133.813818 C439.666871,129.331727 437.129923,124.476202 434.294468,119.247096 L431.944037,120.81582 C431.944037,120.741118 432.46635,119.732663 433.510991,117.790424 C433.436374,117.790424 433.361758,117.715723 433.287141,117.56632 C431.645562,118.836246 430.265164,119.471199 429.145905,119.471199 C428.399733,119.770005 427.317799,120.330258 425.900072,121.151975 C425.303134,121.376079 424.892746,121.48813 424.668894,121.48813 C424.445042,121.48813 424.071962,121.338729 423.549641,121.039923 L423.32579,120.927871 C422.952704,120.927871 422.318467,121.712226 421.423061,123.280957 C420.303802,124.625585 418.99802,125.297888 417.505676,125.297888 C416.3118,125.297888 414.856786,126.119593 413.140589,127.763026 C409.484345,140.462283 407.65625,149.463681 407.65625,154.767489 C407.65625,156.485623 407.992023,159.174838 408.663578,162.835212 C408.812812,163.955735 408.887429,164.889489 408.887429,165.636505 L408.887429,166.308815 C408.887429,168.475159 408.103959,170.193268 406.536998,171.463194 C406.089294,171.537895 405.716214,171.575245 405.417745,171.575245 L404.410417,171.575245 C401.948049,171.575245 398.963404,170.716191 395.456394,168.998056 C389.263164,165.412383 386.166596,160.108655 386.166596,153.086713 L386.166596,152.862609 C386.166596,141.657382 390.867411,118.57496 400.269182,83.6146513 C406.910115,59.6354651 411.648238,42.4917245 414.483693,32.1829155 C415.304482,28.8213473 415.901411,26.2068335 416.274497,24.3392956 L416.162572,24.3392956 C413.774821,25.1610123 411.648262,25.5718645 409.782831,25.5718645 C406.201204,25.5718645 403.850796,23.7043546 402.731538,19.9692789 C402.731538,19.5210698 401.985377,18.1017623 400.493032,15.7113138 C400.194563,15.0390002 400.045331,14.441397 400.045331,13.9184864 C400.045331,13.4702773 400.231871,13.1714758 400.604957,13.0220727 C408.141298,8.31587728 414.707515,5.70136348 420.303808,5.17845288 C425.07931,4.95434833 427.877415,4.65554675 428.698204,4.28203918 C429.07129,4.20733766 429.630911,3.98323648 430.377083,3.60972891 C429.257825,3.53502739 428.026659,3.49767719 426.683549,3.49767719 L425.900072,3.49767719 C423.81079,3.49767719 421.721538,3.79647877 419.632256,4.39409089 C416.57295,4.84229998 414.185234,5.36520274 412.469038,5.96281486 C409.484349,7.1580391 407.805486,7.75564225 407.4324,7.75564225 C405.865438,8.20385134 404.111959,8.98820548 402.171911,10.1087282 C401.574974,10.4822358 401.164585,10.6689868 400.940733,10.6689868 L400.940733,10.4448833 C401.910757,9.39906214 402.992691,8.5400076 404.186567,7.86769397 C406.350466,6.44836518 409.447035,4.99170749 413.476365,3.49767719 C419.147275,1.55543781 425.862725,0.584332679 433.622917,0.584332679 Z M419.856107,17.5041412 C419.856107,17.9523503 420.042647,18.1764515 420.415733,18.1764515 C420.639585,18.10175 420.751509,18.0270496 420.751509,17.9523481 L420.751509,17.7282446 C420.751509,17.6535431 420.676893,17.4667921 420.527658,17.1679861 L420.191882,17.1679861 C419.968031,17.1679861 419.856107,17.2800367 419.856107,17.5041412 Z M440.450359,23.4428819 C440.450359,23.5175835 440.487667,23.7790348 440.562284,24.2272439 C440.562284,24.8248561 440.226512,26.132113 439.554957,28.1490539 C439.256488,28.8213675 439.03264,30.3527256 438.883405,32.7431741 C437.913381,37.374668 435.898746,46.0399137 432.83944,58.7391713 C429.481664,72.7083545 426.123939,85.5568224 422.766164,97.2849602 C422.990016,97.5090648 423.251172,97.6211154 423.549641,97.6211154 C424.071962,97.6211154 424.818123,96.986162 425.788147,95.7162363 L425.788147,95.6041845 C425.788147,95.4547815 425.750839,95.3800811 425.676221,95.3800811 C428.362442,94.3342599 430.227844,93.400505 431.272486,92.5787883 C431.720189,91.8317732 432.540966,90.860668 433.734842,89.6654438 C434.107928,89.2919362 434.630241,88.8810841 435.301796,88.432875 C436.047968,87.7605613 436.644897,87.3497092 437.0926,87.2003061 C437.241835,87.2003061 438.846081,85.7062982 441.905388,82.7182376 C441.905388,82.4941331 443.770791,80.4398723 447.501652,76.5553935 C448.919379,75.5842738 450.187853,75.0987212 451.307112,75.0987212 C463.842806,60.7560304 470.11056,48.9907182 470.11056,39.8024319 C470.11056,31.5105638 461.902787,26.2068358 445.486997,23.8910888 C444.143887,23.7416858 442.465024,23.592285 440.450359,23.4428819 Z M492.831393,28.8213641 L493.726795,34.0877946 L493.83872,34.0877946 C493.987955,32.8925704 494.062571,32.070866 494.062571,31.6226569 L494.062571,31.5106052 C494.062571,30.8382916 493.801414,30.165988 493.279094,29.4936744 C492.980625,29.0454653 492.831393,28.8213641 492.831393,28.8213641 Z M395.344469,116.781958 C395.344469,117.006063 395.71755,117.192814 396.463722,117.342217 C397.135277,116.894008 398.179903,114.242144 399.59763,109.386545 C403.477726,96.31378 408.738162,75.3976696 415.379095,46.6375864 C416.349119,41.5578833 417.319129,38.1216652 418.289153,36.3288288 C419.035325,35.2083061 419.408405,34.237201 419.408405,33.4154843 C419.408405,32.5190661 418.998017,32.0708638 418.177227,32.0708638 L418.065302,32.0708638 C417.393747,32.0708638 416.94605,32.8178677 416.722199,34.311898 C416.050643,36.0300329 415.491023,37.6734415 415.043319,39.2421734 C414.22253,42.9025476 412.730208,48.7291783 410.566308,56.7222404 C402.507647,88.0221752 397.47106,107.78043 395.456394,115.997596 C395.381777,116.296402 395.344469,116.557854 395.344469,116.781958 Z M493.279094,36.2167771 C493.279094,36.4408817 493.391018,36.5529323 493.61487,36.5529323 C493.838721,36.5529323 493.950645,36.4035315 493.950645,36.1047254 C493.950645,36.0300239 493.876029,35.5818215 493.726795,34.7601049 C493.57756,34.7601049 493.428328,35.2083072 493.279094,36.1047254 C493.279094,36.1047254 493.279094,36.1420756 493.279094,36.2167771 Z M462.163864,86.5279959 L462.163864,86.6400476 L460.820761,87.3123578 C459.77612,87.90997 459.067267,88.8063747 458.694181,90.0015989 C458.918032,90.8980171 459.253805,91.3462195 459.701508,91.3462195 L460.149209,91.3462195 C460.820764,91.3462195 461.716158,90.1510132 462.835416,87.7605647 C462.835416,87.4617586 463.133881,87.2376575 463.730818,87.0882544 C464.626225,86.7147468 465.372386,86.0797935 465.969324,85.1833753 C466.566262,84.5110617 468.021276,82.7556024 470.33441,79.9169448 C473.244482,77.3770933 474.960653,75.5842839 475.482973,74.5384627 C476.452997,73.1191339 477.609547,71.5504256 478.952657,69.8322908 C480.146533,68.0394544 481.079234,66.3960457 481.750789,64.9020154 C482.27311,63.6320897 482.907347,62.4368834 483.653519,61.3163606 C484.399691,59.9717334 485.369701,57.3198694 486.563577,53.3606891 C487.235132,51.7172558 487.943985,50.1485475 488.690157,48.6545172 C489.436329,45.8905611 489.80941,44.0230513 489.80941,43.0519316 C489.436324,43.0519316 489.100551,43.0145814 488.802082,42.9398799 C488.503613,42.9398799 488.354381,43.2760316 488.354381,43.9483453 C488.130529,44.5459574 487.943989,45.5170625 487.794755,46.8616898 C485.033917,53.136617 481.265804,60.7560573 476.490301,69.720239 C476.266449,70.1684481 475.967985,70.4298995 475.594899,70.504601 C473.804085,71.1769147 472.423687,72.4841716 471.453663,74.426411 C470.334405,76.0698443 468.804774,77.8253036 466.864726,79.6928414 C465.96932,80.5145581 465.148542,81.1121612 464.40237,81.4856688 C462.910025,82.9796991 462.163864,84.660458 462.163864,86.5279959 Z M492.719467,43.0519316 C492.719467,43.1266331 492.682159,43.2760339 492.607542,43.5001384 L492.719467,43.5001384 C492.794084,43.2760339 492.831393,43.1266331 492.831393,43.0519316 L492.719467,43.0519316 Z M489.249783,53.5847925 C489.697487,53.4353895 489.995951,53.1365879 490.145186,52.6883788 C491.488296,50.3726318 492.159841,48.0942698 492.159841,45.8532244 L492.159841,44.844759 C491.861372,45.143565 491.450983,46.4134717 490.928663,48.6545172 C490.928663,48.7292187 490.369042,50.3726274 489.249783,53.5847925 Z M484.10122,62.6609812 L484.325071,62.8850846 C484.399688,62.8850846 484.436996,62.8477344 484.436996,62.7730329 L484.436996,62.6609812 C484.436996,62.5862797 484.399688,62.5489295 484.325071,62.5489295 C484.175836,62.623631 484.10122,62.6609812 484.10122,62.6609812 Z M396.351797,119.919406 C395.232538,122.160452 394.672917,123.915911 394.672917,125.185837 L394.449067,127.763026 C394.598301,127.837727 394.710225,127.875078 394.784843,127.875078 L396.016021,123.505061 C396.31449,122.384538 396.463722,121.226682 396.463722,120.031458 L396.463722,119.919406 L396.351797,119.919406 Z M481.191163,152.078247 L481.191163,152.302351 C481.191163,152.75056 481.601551,153.646965 482.422341,154.991592 C483.541599,157.232637 485.07123,159.473649 487.011278,161.714695 C487.608216,162.312307 488.578225,163.171361 489.921335,164.291884 C490.965976,165.337705 492.309066,166.757013 493.950645,168.549849 C495.592224,170.043879 496.972622,170.865584 498.091881,171.014987 L498.315732,171.014987 C490.480922,162.79782 486.11588,157.942295 485.220473,156.448264 C483.578894,154.207219 482.422344,152.414409 481.750789,151.069782 C481.526938,151.069782 481.340397,151.405934 481.191163,152.078247 Z M557.137932,24.6754508 L560.159914,24.6754508 C567.248551,24.6754508 571.762826,25.1610033 573.702874,26.132123 C575.792156,26.8791382 578.142564,28.3731461 580.754167,30.6141915 C582.321129,32.1082218 583.291138,33.3034281 583.664224,34.1998463 C583.888076,34.8721599 584,35.6938643 584,36.664984 C584,38.1590143 583.403071,39.7650728 582.209195,41.4832076 C579.67221,42.3049243 577.918731,42.7157764 576.948707,42.7157764 C575.083276,42.7904779 573.180565,43.0892795 571.240517,43.6121901 L548.519685,49.887086 C544.788823,50.6341012 541.543022,51.0076031 538.782185,51.0076031 L539.789512,51.9040168 C537.924082,52.2028229 533.857504,52.6136751 527.589656,53.1365857 C527.515039,53.2112872 526.321181,53.3980382 524.008047,53.6968442 C522.814171,56.8343078 521.508389,60.7187283 520.090662,65.3502223 L520.202587,65.3502223 C524.903473,64.4538041 529.268515,63.7441503 533.297846,63.2212397 C540.013396,62.4742246 546.169226,61.8392712 551.765518,61.3163606 C553.630949,61.5404652 554.862114,61.7272162 555.459052,61.8766192 C556.05599,62.1007237 556.354455,62.4368755 556.354455,62.8850846 C558.667589,63.3332937 560.458375,63.8561965 561.726868,64.4538086 C562.249189,64.6032116 562.622269,65.051414 562.846121,65.7984291 L563.293822,68.7117736 C564.413081,71.4010282 564.972702,73.6046898 564.972702,75.3228247 L564.972702,76.6674452 C564.077295,77.4144603 561.577655,78.6470169 557.473707,80.3651517 C553.36976,81.9338835 550.534348,82.7182376 548.967386,82.7182376 C535.461667,84.7351786 523.970786,87.088241 514.494398,89.7774955 C510.912771,90.8233167 508.226591,91.6823713 506.435777,92.3546849 C507.405801,93.0269985 507.890806,93.4005005 507.890806,93.475202 L507.890806,93.5872537 C505.35382,95.5294931 504.048038,96.7993998 503.973421,97.3970119 L502.294542,100.646512 C500.951432,103.186363 500.167962,105.315324 499.944111,107.033459 C499.794876,107.55637 499.682952,107.817821 499.608335,107.817821 L499.608335,108.041925 C499.384483,109.386552 499.496407,110.320307 499.944111,110.843217 L499.832185,111.851683 C499.309865,111.851683 498.974092,112.113134 498.824858,112.636045 C497.705599,117.267539 497.145979,120.591706 497.145979,122.608647 C496.623658,126.567827 496.362502,129.070291 496.362502,130.116112 C496.362502,132.730665 496.922122,134.635525 498.041381,135.830749 C498.489084,136.577764 499.235245,137.436819 500.279887,138.407939 C499.459097,135.494579 499.048709,133.365618 499.048709,132.020991 C499.048709,131.647483 499.086017,130.340226 499.160634,128.099181 C499.160634,127.725673 498.974094,126.941319 498.601007,125.746095 L498.601007,125.521992 C498.601007,125.297887 499.011396,124.513533 499.832185,123.168906 C500.429123,121.749577 500.727588,120.36762 500.727588,119.022992 C500.727588,118.873589 500.615664,117.678383 500.391812,115.437338 L500.391812,114.877079 C499.869491,111.067302 501.063349,106.435877 503.973421,100.982667 C504.495742,100.011547 505.577675,98.6295897 507.219254,96.8367534 C507.443106,96.3885443 507.666954,95.7535909 507.890806,94.9318743 C508.114658,94.6330682 508.413122,94.4836674 508.786208,94.4836674 L509.010059,94.4836674 C510.278552,94.6330705 510.912789,95.2306736 510.912789,96.2764948 C510.912789,96.7247039 510.166628,98.5922138 508.674283,101.87908 C506.808852,105.987664 505.50307,108.900979 504.756898,110.619114 C503.040702,115.922922 502.182616,120.703747 502.182616,124.961733 C502.182616,129.667929 503.07801,134.672855 504.868823,139.976663 C508.077364,139.82726 516.061288,136.951294 528.820834,131.348681 C539.864184,126.418381 546.616942,122.982163 549.079311,121.039923 C554.302517,117.977161 558.592943,116.445803 561.950719,116.445803 C564.114618,116.445803 565.196552,117.118107 565.196552,118.462734 L564.748851,122.048389 L564.748851,122.16044 C564.748851,122.533948 564.860775,122.98215 565.084627,123.505061 C562.84611,124.700285 560.719551,126.044892 558.704886,127.538922 C557.884096,128.211236 557.287167,128.808839 556.914081,129.33175 C558.704894,128.958242 560.197217,128.248589 561.391092,127.202767 C562.883437,125.932842 563.928063,125.223188 564.525,125.073785 C564.525,125.148486 564.487692,125.409938 564.413075,125.858147 L564.972702,128.883543 C564.972702,130.078767 563.293839,132.133028 559.936064,135.046387 C555.608264,138.407955 550.832833,141.321271 545.609627,143.786421 C541.654914,145.803362 537.551028,147.633521 533.297846,149.276955 L533.297846,148.380541 C532.402439,148.903452 530.910117,149.463705 528.820834,150.061317 C526.880786,150.434824 525.09,150.621575 523.448421,150.621575 C522.702248,150.696277 521.098002,151.219179 518.635633,152.190299 C517.889461,152.787911 516.732911,153.310814 515.16595,153.759023 C514.270543,153.983128 512.032059,154.39398 508.450432,154.991592 C505.913447,155.514503 503.301883,156.149456 500.615662,156.896471 L500.279887,156.896471 C496.922111,156.896471 494.161315,156.000066 491.997416,154.20723 C484.759544,148.754019 481.140663,140.163474 481.140663,128.435336 C481.140663,120.965185 482.782217,111.254133 486.065375,99.301891 C491.437816,79.5806911 495.317854,66.4334217 497.705605,59.8596884 C500.242591,52.3895369 501.996069,46.7123069 502.966093,42.8278281 L502.966093,42.7157764 L502.854168,41.2591042 C502.854168,38.5698496 503.712253,36.0673864 505.42845,33.7516395 C505.95077,32.9299228 507.592325,32.0335181 510.353162,31.0623984 C513.263234,29.8671741 518.038665,28.6719678 524.679599,27.4767436 C536.096035,25.6092057 546.915371,24.6754508 557.137932,24.6754508 Z M524.903449,33.4154843 C524.903449,34.0130964 525.612302,34.311898 527.03003,34.311898 C533.22326,33.7889874 539.043317,33.2287345 544.490374,32.6311223 L545.497702,32.6311223 C546.542343,32.7058239 547.251196,32.7431741 547.624282,32.7431741 C547.848134,32.6684725 547.960058,32.5564219 547.960058,32.4070189 C547.960058,31.7347053 547.363129,31.2865029 546.169254,31.0623984 C545.870785,31.0623984 545.721552,31.0250482 545.721552,30.9503467 C545.646935,30.9503467 545.572319,30.9876969 545.497702,31.0623984 C545.049998,31.0623984 544.527686,31.0250482 543.930748,30.9503467 C537.737518,30.9503467 531.693613,31.5105996 525.798852,32.6311223 C525.201914,32.8552269 524.903449,33.1166783 524.903449,33.4154843 Z M508.674283,35.880622 L508.674283,35.9926737 C508.674283,36.3661813 509.047364,36.7023331 509.793536,37.0011391 C509.94277,37.1505421 510.129311,37.2252425 510.353162,37.2252425 C514.755579,36.4782274 518.411768,35.656523 521.32184,34.7601049 C521.396457,34.5360003 521.433766,34.3865995 521.433766,34.311898 C521.209914,33.7889874 520.277212,33.527536 518.635633,33.527536 C518.038696,33.527536 516.956762,33.7516372 515.3898,34.1998463 L515.3898,34.0877946 C515.986738,33.714287 516.285202,33.4901858 516.285202,33.4154843 C516.210585,33.2660813 516.061353,33.1913809 515.837501,33.1913809 L515.3898,33.1913809 C513.2259,33.1913809 511.099341,33.7889841 509.010059,34.9842083 C508.786207,35.2830144 508.674283,35.5818159 508.674283,35.880622 Z M531.842817,65.6863774 C531.842817,65.8357804 532.029357,65.9104808 532.402444,65.9104808 C532.626295,65.9104808 532.738219,65.7984302 532.738219,65.5743257 L532.738219,65.3502223 C532.663602,65.2008192 532.51437,65.1261188 532.290518,65.1261188 C531.992049,65.1261188 531.842817,65.3128698 531.842817,65.6863774 Z M528.93276,66.1345843 C528.93276,66.2839873 529.044684,66.4333881 529.268536,66.5827911 L529.492386,66.5827911 C529.865472,66.5080896 530.052013,66.3586888 530.052013,66.1345843 C529.977395,65.8357782 529.828163,65.6863774 529.604311,65.6863774 L529.380461,65.6863774 C529.081992,65.6863774 528.93276,65.8357782 528.93276,66.1345843 Z M525.575001,66.8068945 C525.649618,67.1057006 525.724234,67.2551014 525.798852,67.2551014 L526.246553,67.2551014 C526.545022,67.2551014 526.731562,66.99365 526.806179,66.4707394 C526.731562,66.2466349 526.58233,66.1345843 526.358478,66.1345843 L526.246553,66.1345843 C525.873467,66.1345843 525.649618,66.3586854 525.575001,66.8068945 Z M518.747559,69.4961356 C518.747559,69.6455387 518.971407,69.7949394 519.41911,69.9443425 L519.41911,70.0563942 C520.463752,69.9069912 521.471069,69.496139 522.441093,68.8238253 C523.038031,68.3009147 523.336495,67.8153622 523.336495,67.3671531 C523.187261,66.9936455 522.963413,66.8068945 522.664944,66.8068945 L522.553018,66.8068945 C521.657612,66.881596 520.463754,67.5912498 518.971409,68.9358771 C518.822175,69.1599816 518.747559,69.3467326 518.747559,69.4961356 Z M513.934771,91.2341678 C514.158623,91.2341678 514.382471,91.3462184 514.606323,91.5703229 C514.606323,92.7655471 513.748238,93.5872515 512.032042,94.0354606 L511.696266,94.0354606 C511.173945,93.9607591 510.912789,93.7366579 510.912789,93.3631503 L510.912789,93.2510986 C510.912789,92.4293819 511.808182,91.7944286 513.598996,91.3462195 L513.934771,91.2341678 Z M554.004024,131.012526 C554.974048,130.788421 555.682901,130.452269 556.130604,130.00406 L556.46638,129.555853 L556.354455,129.555853 C555.533665,129.555853 554.750196,130.041406 554.004024,131.012526 Z M547.400432,133.813818 L547.736208,133.92587 L548.295834,133.92587 C549.937413,133.92587 551.280503,133.141516 552.325144,131.572784 C552.101293,131.572784 551.914752,131.535434 551.765518,131.460732 C549.974704,131.460732 548.51969,132.245087 547.400432,133.813818 Z M546.057328,134.710232 C546.430414,134.710232 546.728879,134.486131 546.952731,134.037922 L546.840805,134.037922 C546.542336,134.037922 546.28118,134.262023 546.057328,134.710232 Z" id="ARE"></path>
            </g>
        </g>
    </g>
</svg>