<?xml version="1.0" encoding="UTF-8"?>
<svg width="814px" height="254px" viewBox="0 0 814 254" version="1.1" xmlns="http://www.w3.org/2000/svg" xmlns:xlink="http://www.w3.org/1999/xlink">
    <!-- Generator: Sketch 54.1 (76490) - https://sketchapp.com -->
    <title>mesage</title>
    <desc>Created with Sketch.</desc>
    <g id="Page-1" stroke="none" stroke-width="1" fill="none" fill-rule="evenodd">
        <g id="Artboard" transform="translate(-2103.000000, -3422.000000)" fill-rule="nonzero" stroke="#F0BA41">
            <path d="M2166.61742,3445.24023 L2167.01292,3445.24023 C2168.33129,3445.41602 2168.99046,3445.76758 2168.99046,3446.29492 C2173.29712,3463.2579 2177.12033,3477.67182 2180.46019,3489.53711 C2182.48168,3496.56839 2184.76682,3504.03902 2187.31566,3511.94922 L2187.44749,3511.94922 C2187.44749,3511.50976 2188.63401,3509.62013 2191.00706,3506.28027 C2193.02856,3503.99511 2194.78635,3502.3252 2196.2805,3501.27051 C2198.47778,3499.24901 2199.79612,3497.75489 2200.23558,3496.78809 C2200.49925,3496.08496 2201.20237,3495.25 2202.34495,3494.2832 C2202.96019,3492.52538 2203.7512,3490.76759 2204.718,3489.00977 C2206.03637,3485.93358 2206.73949,3484.35156 2206.82738,3484.26367 L2206.82738,3484.39551 C2206.30003,3486.85646 2206.03636,3488.43847 2206.03636,3489.1416 L2206.03636,3489.53711 C2206.6516,3488.74609 2207.61839,3486.5049 2208.93675,3482.81348 C2209.20042,3482.02246 2209.8596,3480.48439 2210.91429,3478.19922 C2211.52953,3476.26562 2212.27659,3473.71681 2213.1555,3470.55273 C2216.31958,3463.69723 2218.78049,3458.68752 2220.53831,3455.52344 C2221.32933,3454.20507 2222.38401,3452.97462 2223.70238,3451.83203 C2224.75707,3451.1289 2226.11936,3450.51367 2227.78929,3449.98633 C2234.99636,3448.58007 2240.31369,3447.87695 2243.74144,3447.87695 L2245.45531,3447.87695 C2250.28931,3447.87695 2253.05784,3449.32713 2253.76097,3452.22754 C2253.84886,3452.75489 2253.9807,3454.38085 2254.15648,3457.10547 C2254.50804,3457.89649 2254.68382,3458.46777 2254.68382,3458.81934 C2254.68382,3459.34668 2253.9807,3460.53319 2252.57445,3462.37891 C2251.95921,3463.4336 2251.6516,3464.26855 2251.6516,3464.88379 C2251.73949,3465.14746 2252.17894,3465.80664 2252.96995,3466.86133 C2254.02465,3468.44337 2254.55199,3470.50878 2254.55199,3473.05762 C2255.07933,3474.11231 2255.343,3474.72754 2255.343,3474.90332 L2255.343,3475.29883 L2254.55199,3480.17676 C2254.3762,3481.14356 2254.28831,3482.19824 2254.28831,3483.34082 L2254.28831,3486.10938 C2253.93675,3491.55862 2253.62914,3495.5576 2253.36546,3498.10645 C2252.83812,3502.85256 2252.57445,3506.76366 2252.57445,3509.83984 C2252.57445,3510.19141 2252.66234,3512.74021 2252.83812,3517.48633 C2251.43186,3519.41993 2250.55296,3521.92479 2250.2014,3525.00098 C2250.2014,3526.84669 2249.63012,3529.3076 2248.48753,3532.38379 C2247.8723,3533.52637 2247.56468,3534.5371 2247.56468,3535.41602 L2247.56468,3535.54785 C2247.56468,3536.25098 2247.8723,3536.86621 2248.48753,3537.39355 C2248.48753,3542.13967 2248.00414,3553.52139 2247.03734,3571.53906 C2246.68577,3580.67973 2246.37816,3585.25 2246.11449,3585.25 C2244.9719,3586.48047 2243.74145,3587.35937 2242.42308,3587.88672 L2242.29124,3587.88672 C2243.17015,3579.00972 2243.6096,3569.64946 2243.6096,3559.80566 C2243.6096,3558.4873 2243.56566,3555.80666 2243.47777,3551.76367 L2243.47777,3551.23633 C2243.82933,3551.23633 2244.22484,3548.64358 2244.66429,3543.45801 C2244.75218,3542.31542 2244.79613,3541.43653 2244.79613,3540.82129 C2244.79613,3540.29394 2244.75218,3539.89844 2244.66429,3539.63477 C2244.75218,3539.01953 2244.79613,3538.36036 2244.79613,3537.65723 L2244.79613,3534.09766 C2244.70824,3531.46092 2244.40062,3530.14258 2243.87327,3530.14258 C2242.99436,3530.14258 2242.42308,3530.53808 2242.15941,3531.3291 C2241.80784,3535.19631 2241.36839,3538.44823 2240.84105,3541.08496 C2240.3137,3543.72169 2239.87425,3545.04004 2239.52269,3545.04004 L2239.39085,3545.04004 L2239.25902,3544.9082 L2239.25902,3545.04004 C2239.61058,3549.08303 2239.78636,3551.71972 2239.78636,3552.9502 C2239.78636,3554.00489 2239.34691,3556.24608 2238.468,3559.67383 C2238.11644,3561.25587 2237.94066,3562.70605 2237.94066,3564.02441 C2237.94066,3565.25489 2238.20433,3566.61718 2238.73167,3568.11133 C2238.73167,3568.63867 2238.02856,3569.7373 2236.6223,3571.40723 C2236.27073,3572.02246 2236.09495,3572.46191 2236.09495,3572.72559 L2236.09495,3572.98926 C2237.23754,3574.65919 2237.80882,3576.32909 2237.80882,3577.99902 C2237.80882,3579.84474 2237.14965,3582.92088 2235.83128,3587.22754 C2235.56761,3588.54591 2235.34789,3590.6992 2235.1721,3593.6875 C2235.08421,3593.86328 2234.68871,3594.21484 2233.98558,3594.74219 C2228.36055,3600.19143 2224.53735,3602.91602 2222.51585,3602.91602 L2221.98851,3602.91602 C2221.19749,3602.91602 2220.67015,3602.47657 2220.40648,3601.59766 C2219.79124,3600.01562 2219.48363,3597.07131 2219.48363,3592.76465 C2219.92308,3577.99895 2220.14281,3569.95704 2220.14281,3568.63867 C2221.28539,3532.51544 2221.98851,3514.4541 2222.25218,3514.4541 L2222.51585,3511.81738 C2219.0881,3518.14554 2215.13306,3524.34177 2210.65062,3530.40625 C2208.01389,3533.92189 2204.84986,3537.92088 2201.15843,3542.40332 C2199.04905,3544.95216 2197.37914,3547.28124 2196.14867,3549.39062 C2192.98459,3554.5762 2188.80982,3558.44335 2183.62425,3560.99219 C2182.21799,3561.95899 2179.53736,3564.33201 2175.58226,3568.11133 C2174.52757,3568.99024 2173.64867,3569.42969 2172.94554,3569.42969 L2172.8137,3569.42969 C2171.67112,3569.42969 2170.177,3567.45217 2168.33128,3563.49707 C2166.39768,3559.54197 2164.4641,3554.79593 2162.5305,3549.25879 C2160.5969,3541.70016 2157.78443,3527.76963 2154.093,3507.4668 C2153.47776,3503.68748 2153.12621,3501.57813 2153.03831,3501.13867 L2152.90648,3501.13867 C2152.37913,3501.13867 2151.41234,3504.3027 2150.00609,3510.63086 C2148.24827,3519.24418 2145.78735,3531.68058 2142.62327,3547.94043 C2141.30491,3554.26859 2139.81078,3559.62986 2138.14085,3564.02441 C2135.06467,3574.39556 2132.55981,3580.76757 2130.6262,3583.14062 C2129.48362,3584.72266 2127.28638,3585.95312 2124.03441,3586.83203 C2119.11251,3588.76563 2115.64086,3590.61132 2113.61937,3592.36914 C2113.00413,3592.89649 2112.12523,3593.73144 2110.98265,3594.87402 C2110.27952,3595.48926 2109.70824,3595.79688 2109.26878,3595.79688 L2108.74144,3595.79688 C2107.07151,3595.79688 2105.66527,3594.21486 2104.52269,3591.05078 C2104.08323,3589.64452 2103.86351,3588.10645 2103.86351,3586.43652 C2103.86351,3584.41503 2104.47874,3581.47072 2105.70921,3577.60352 C2108.08227,3568.11128 2111.37814,3551.23645 2115.59691,3526.97852 C2120.43092,3499.38072 2124.91329,3480.2647 2129.04417,3469.62988 C2130.80199,3465.23533 2132.51584,3461.89552 2134.18577,3459.61035 C2135.24047,3458.46777 2136.11937,3457.67676 2136.82249,3457.2373 C2137.7893,3454.42479 2139.41526,3452.40333 2141.70042,3451.17285 C2143.28246,3450.20605 2145.83127,3449.50293 2149.34691,3449.06348 C2154.97194,3448.7998 2158.17991,3448.44824 2158.97093,3448.00879 C2163.1897,3446.16308 2165.7385,3445.24023 2166.61742,3445.24023 Z M2206.5637,3498.37012 C2206.73949,3499.07325 2207.13499,3499.4248 2207.75023,3499.4248 L2208.0139,3499.4248 C2208.45336,3499.4248 2209.28831,3497.84279 2210.51878,3494.67871 C2211.57348,3492.12987 2213.99044,3487.5596 2217.76976,3480.96777 C2220.40649,3475.87009 2223.52658,3469.62992 2227.13011,3462.24707 C2225.02073,3464.70802 2223.35082,3466.94921 2222.12035,3468.9707 C2220.01096,3472.39845 2216.45142,3478.59468 2211.44163,3487.55957 C2208.8049,3491.77834 2207.48656,3494.23925 2207.48656,3494.94238 C2206.87132,3496.43653 2206.5637,3497.5791 2206.5637,3498.37012 Z M2205.24535,3499.4248 C2205.33324,3499.77637 2205.42113,3499.95215 2205.50902,3499.95215 C2205.86058,3499.95215 2206.03636,3499.68848 2206.03636,3499.16113 L2206.03636,3499.0293 C2206.03636,3498.85351 2205.90453,3498.76562 2205.64085,3498.76562 C2205.37718,3498.76562 2205.24535,3498.98535 2205.24535,3499.4248 Z M2201.55394,3505.75293 C2201.11448,3506.9834 2200.89476,3507.77441 2200.89476,3508.12598 L2202.74046,3508.12598 L2202.74046,3507.99414 C2202.21312,3507.20312 2201.81761,3506.45606 2201.55394,3505.75293 Z M2195.62132,3536.99805 C2195.62132,3537.61328 2195.92894,3538.05273 2196.54417,3538.31641 L2196.93968,3538.44824 C2198.6975,3537.30566 2200.80686,3535.50392 2203.26781,3533.04297 C2206.2561,3529.43944 2208.05784,3526.14357 2208.67308,3523.15527 L2208.67308,3522.8916 C2208.40941,3522.54004 2208.10179,3522.23242 2207.75023,3521.96875 L2207.61839,3521.96875 C2204.36642,3525.22072 2202.21312,3527.76952 2201.15843,3529.61523 C2199.4885,3532.07618 2198.2141,3533.87792 2197.33519,3535.02051 L2195.62132,3536.99805 Z M2186.65648,3546.49023 C2186.74437,3547.36915 2187.05198,3547.80859 2187.57933,3547.80859 L2187.71117,3547.80859 C2188.94164,3547.80859 2190.21604,3546.18263 2191.53441,3542.93066 C2189.86448,3543.19434 2188.63402,3543.76562 2187.843,3544.64453 C2187.05198,3545.34766 2186.65648,3545.96289 2186.65648,3546.49023 Z M2127.98949,3583.66797 C2127.90159,3583.93164 2128.20921,3584.06348 2128.91234,3584.06348 C2129.43968,3583.36035 2130.27464,3581.07521 2131.41722,3577.20801 C2133.6145,3573.51658 2136.07541,3562.88192 2138.80003,3545.30371 L2140.25023,3540.95312 C2140.68968,3539.28319 2140.95335,3538.14063 2141.04124,3537.52539 C2141.04124,3536.73437 2140.73363,3536.33887 2140.11839,3536.33887 C2139.41526,3536.33887 2138.97581,3536.86621 2138.80003,3537.9209 C2137.74534,3541.52443 2137.218,3544.07323 2137.218,3545.56738 C2135.10862,3559.45417 2132.99926,3568.41893 2130.88988,3572.46191 C2130.09886,3575.18654 2129.2639,3577.99901 2128.38499,3580.89941 C2128.12132,3582.56934 2127.98949,3583.49219 2127.98949,3583.66797 Z M2373.80403,3448.7998 C2380.48375,3448.7998 2384.87823,3449.32714 2386.98762,3450.38184 C2392.26108,3452.40333 2395.86456,3455.25975 2397.79817,3458.95117 C2398.32551,3459.83008 2398.58918,3460.75292 2398.58918,3461.71973 L2398.58918,3461.9834 C2398.58918,3464.09278 2397.79817,3466.37792 2396.21614,3468.83887 C2393.05206,3469.98145 2389.88803,3470.55273 2386.72395,3470.55273 C2371.16723,3473.45314 2357.85193,3476.30956 2346.77766,3479.12207 C2345.10773,3479.64942 2342.11948,3480.26464 2337.81281,3480.96777 C2335.17608,3481.23145 2333.11067,3481.36328 2331.61653,3481.36328 L2332.80305,3482.41797 C2332.80305,3482.50586 2331.30892,3482.72558 2328.32063,3483.07715 C2320.762,3483.60449 2315.44467,3484.21972 2312.36848,3484.92285 C2312.28059,3485.01074 2311.35775,3485.23047 2309.59992,3485.58203 L2309.59992,3485.71387 C2319.53161,3489.3174 2330.69361,3493.05272 2343.08625,3496.91992 L2351.26008,3499.68848 C2354.07259,3500.21582 2356.138,3500.83105 2357.45637,3501.53418 C2357.98372,3501.70996 2358.33527,3501.97363 2358.51106,3502.3252 C2358.86262,3502.85254 2359.0384,3504.083 2359.0384,3506.0166 C2360.26888,3509.79592 2360.8841,3512.30078 2360.8841,3513.53125 L2360.8841,3515.37695 C2360.8841,3516.16797 2360.70832,3516.56348 2360.35676,3516.56348 C2357.63214,3518.23341 2353.58921,3520.03515 2348.22785,3521.96875 C2344.71221,3523.02344 2342.33919,3523.55078 2341.10871,3523.55078 C2324.76098,3526.01173 2310.96229,3528.8242 2299.71223,3531.98828 C2296.0208,3533.04297 2292.5931,3534.05371 2289.42903,3535.02051 C2289.42903,3535.1084 2290.04425,3535.63574 2291.27473,3536.60254 C2289.42902,3537.92091 2287.89095,3539.19531 2286.66047,3540.42578 C2286.3968,3540.68945 2285.60579,3542.18358 2284.28742,3544.9082 C2282.79328,3547.10548 2281.69465,3549.74217 2280.99153,3552.81836 L2279.805,3556.37793 C2279.45344,3558.39942 2279.14582,3561.03612 2278.88215,3564.28809 C2278.79426,3564.72754 2278.66243,3564.94727 2278.48664,3564.94727 C2277.78351,3564.94727 2277.30012,3565.87011 2277.03645,3567.71582 C2275.80597,3572.28616 2275.19074,3575.3623 2275.19074,3576.94434 C2274.22394,3582.65726 2273.74055,3586.26073 2273.74055,3587.75488 L2273.74055,3588.01855 C2273.74055,3590.4795 2274.26789,3592.36913 2275.32258,3593.6875 C2275.93782,3594.74219 2276.86066,3595.84081 2278.09114,3596.9834 L2277.16828,3592.10547 C2277.08039,3591.49023 2277.03645,3590.65528 2277.03645,3589.60059 L2277.03645,3588.94141 C2277.03645,3588.23828 2277.12434,3586.91993 2277.30012,3584.98633 C2277.30012,3584.2832 2277.0804,3583.18458 2276.64094,3581.69043 C2276.64094,3581.25097 2277.08039,3580.37208 2277.9593,3579.05371 C2279.01399,3577.03222 2279.54133,3575.18653 2279.54133,3573.5166 L2279.54133,3572.85742 L2279.27766,3569.29785 C2279.27766,3563.84861 2280.99151,3557.0811 2284.41926,3548.99512 C2285.91341,3545.74315 2287.80304,3542.97462 2290.08821,3540.68945 C2290.35188,3540.51367 2290.65949,3539.76661 2291.01106,3538.44824 C2291.27473,3537.9209 2291.71418,3537.65723 2292.32942,3537.65723 C2293.91146,3537.83301 2294.70246,3538.53613 2294.70246,3539.7666 C2294.70246,3540.29395 2293.82357,3542.35936 2292.06574,3545.96289 C2289.34112,3551.50003 2287.01204,3556.90525 2285.07844,3562.17871 C2282.44171,3569.56156 2281.12336,3576.50485 2281.12336,3583.00879 C2281.12336,3588.10647 2281.95831,3593.4238 2283.62824,3598.96094 L2283.76008,3598.96094 C2287.45151,3598.87305 2298.39378,3594.87406 2316.58723,3586.96387 C2326.16735,3582.65721 2333.02276,3579.2295 2337.15364,3576.68066 C2338.64778,3575.53808 2340.6253,3574.39551 2343.08625,3573.25293 C2347.30502,3571.49511 2350.73272,3570.61621 2353.36946,3570.61621 L2353.8968,3570.61621 C2355.39095,3570.61621 2356.44562,3570.96777 2357.06086,3571.6709 C2357.23664,3572.02246 2357.32453,3572.41797 2357.32453,3572.85742 C2356.97297,3575.49415 2356.79719,3576.98828 2356.79719,3577.33984 L2356.79719,3577.86719 C2356.79719,3578.04297 2356.88508,3578.43847 2357.06086,3579.05371 C2354.07257,3580.45997 2351.04037,3582.39354 2347.96418,3584.85449 C2347.34894,3585.55762 2347.04133,3585.95312 2347.04133,3586.04102 C2347.65657,3586.04102 2348.93097,3585.60157 2350.86457,3584.72266 L2354.81965,3581.82227 C2355.25911,3581.4707 2355.78644,3581.16309 2356.40168,3580.89941 L2356.40168,3581.03125 C2356.31379,3581.20703 2356.26985,3581.51465 2356.26985,3581.9541 C2356.53352,3584.15138 2356.66535,3585.38183 2356.66535,3585.64551 C2356.40168,3587.31544 2354.0726,3589.90819 2349.67805,3593.42383 C2344.75615,3597.11525 2339.43882,3600.32323 2333.7259,3603.04785 C2328.97978,3605.5088 2323.57456,3607.88182 2317.51008,3610.16699 L2317.51008,3608.98047 C2316.01593,3609.77149 2314.25814,3610.43066 2312.23664,3610.95801 C2310.6546,3611.39746 2308.32553,3611.70508 2305.24934,3611.88086 C2302.78839,3612.4961 2300.89876,3613.11133 2299.58039,3613.72656 C2298.43781,3614.60547 2296.7679,3615.30859 2294.57063,3615.83594 C2287.80302,3616.80274 2282.30991,3617.94531 2278.09114,3619.26367 C2278.09114,3619.35156 2277.91536,3619.39551 2277.56379,3619.39551 C2273.25713,3619.39551 2269.82943,3618.209 2267.28059,3615.83594 C2259.37039,3609.68356 2255.41535,3600.19147 2255.41535,3587.35938 C2255.41535,3575.66986 2258.66727,3561.43172 2265.17121,3544.64453 L2264.90754,3544.64453 C2263.23761,3544.64453 2261.78743,3543.15041 2260.55696,3540.16211 C2259.94172,3539.01953 2259.2386,3536.91017 2258.44758,3533.83398 L2258.05207,3531.98828 C2258.13996,3530.05468 2258.31574,3528.1211 2258.57942,3526.1875 L2258.57942,3526.05566 C2258.57942,3525.87988 2258.62336,3525.79199 2258.71125,3525.79199 L2258.57942,3525.52832 L2258.57942,3525.26465 C2258.57942,3524.38574 2258.84309,3522.93556 2259.37043,3520.91406 C2259.45832,3519.5957 2259.76594,3518.93652 2260.29328,3518.93652 C2262.31478,3518.1455 2265.69853,3517.17872 2270.44465,3516.03613 C2272.64193,3515.4209 2273.74055,3514.98145 2273.74055,3514.71777 L2273.74055,3514.4541 C2273.74055,3514.19043 2273.21321,3514.05859 2272.15852,3514.05859 L2271.76301,3514.05859 C2270.97199,3514.05859 2269.03842,3514.54199 2265.96223,3515.50879 C2263.23761,3516.21192 2261.61165,3516.56348 2261.0843,3516.56348 C2260.90852,3515.77246 2260.82063,3515.15723 2260.82063,3514.71777 C2261.0843,3513.66308 2261.30402,3513.13574 2261.47981,3513.13574 L2262.13899,3511.81738 C2274.26795,3508.91698 2291.40645,3505.44533 2313.555,3501.40234 C2320.4984,3500.08398 2326.38701,3499.11719 2331.22102,3498.50195 L2331.22102,3498.37012 C2324.27762,3496.43651 2314.25819,3493.9756 2301.16242,3490.9873 C2296.94365,3489.84472 2293.03256,3488.79004 2289.42903,3487.82324 C2288.46222,3487.91113 2287.62727,3487.95508 2286.92414,3487.95508 L2285.86946,3487.95508 C2280.85966,3487.95508 2276.94857,3485.93361 2274.13606,3481.89062 C2272.46613,3479.166 2271.49934,3476.26564 2271.23567,3473.18945 C2271.23567,3472.48632 2270.62044,3470.20119 2269.38996,3466.33398 C2269.30207,3465.98242 2269.21418,3465.41114 2269.12629,3464.62012 C2269.12629,3463.21386 2269.9173,3462.20313 2271.49934,3461.58789 C2274.66342,3460.18163 2281.47487,3458.51173 2291.93391,3456.57812 C2302.56873,3454.55663 2318.56466,3452.53517 2339.92219,3450.51367 C2353.80898,3449.37109 2365.10281,3448.7998 2373.80403,3448.7998 Z M2312.10481,3458.6875 L2312.10481,3458.81934 C2312.10481,3459.43457 2312.85187,3459.74219 2314.34602,3459.74219 L2314.60969,3459.74219 C2319.53159,3459.30273 2325.33231,3458.77539 2332.01203,3458.16016 C2333.41829,3457.80859 2334.82453,3457.63281 2336.23078,3457.63281 C2336.58235,3457.63281 2337.63702,3457.7207 2339.39485,3457.89648 C2339.74641,3457.80859 2339.92219,3457.63281 2339.92219,3457.36914 C2339.92219,3456.31445 2338.64779,3455.78711 2336.09895,3455.78711 L2334.12141,3455.78711 C2327.44169,3455.78711 2320.58629,3456.40234 2313.555,3457.63281 C2312.5882,3457.89649 2312.10481,3458.24804 2312.10481,3458.6875 Z M2278.35481,3465.14746 C2278.70637,3466.11426 2279.54132,3466.6416 2280.85969,3466.72949 C2283.14486,3466.72949 2285.47394,3466.20215 2287.84699,3465.14746 C2290.04427,3464.26855 2293.73564,3463.34571 2298.92121,3462.37891 C2303.31577,3461.58789 2306.26007,3460.88477 2307.75422,3460.26953 L2307.75422,3459.61035 C2307.49055,3459.1709 2306.56771,3458.95117 2304.98567,3458.95117 L2304.19465,3458.95117 C2303.57941,3458.95117 2301.42611,3459.39062 2297.73469,3460.26953 C2294.39483,3460.97266 2290.13218,3461.54394 2284.9466,3461.9834 C2283.013,3462.07129 2280.94759,3462.73046 2278.75031,3463.96094 C2278.48664,3464.40039 2278.35481,3464.7959 2278.35481,3465.14746 Z M2296.41633,3508.25781 C2296.15266,3508.43359 2296.02082,3508.69726 2296.02082,3509.04883 C2296.10871,3509.22461 2296.28449,3509.3125 2296.54817,3509.3125 L2296.68,3509.3125 C2296.94368,3509.3125 2297.07551,3509.18067 2297.07551,3508.91699 L2297.07551,3508.78516 C2297.07551,3508.43359 2296.85579,3508.25781 2296.41633,3508.25781 Z M2291.5384,3510.10352 L2291.5384,3510.23535 C2291.5384,3510.58692 2291.71418,3510.7627 2292.06574,3510.7627 C2292.41731,3510.7627 2292.68098,3510.58692 2292.85676,3510.23535 C2292.76887,3509.7959 2292.59309,3509.57617 2292.32942,3509.57617 L2292.06574,3509.57617 C2291.71418,3509.57617 2291.5384,3509.75195 2291.5384,3510.10352 Z M2286.79231,3511.55371 C2286.79231,3511.81738 2286.8802,3511.99316 2287.05598,3512.08105 L2287.31965,3512.08105 C2287.847,3512.08105 2288.11067,3511.77344 2288.11067,3511.1582 L2288.11067,3511.02637 C2288.02278,3510.76269 2287.847,3510.63086 2287.58332,3510.63086 C2287.05598,3510.63086 2286.79231,3510.93847 2286.79231,3511.55371 Z M2278.35481,3514.4541 C2278.35481,3514.71777 2278.61848,3514.9375 2279.14582,3515.11328 L2279.27766,3515.11328 C2280.33235,3515.11328 2281.6507,3514.542 2283.23274,3513.39941 C2283.76008,3512.87207 2284.02375,3512.38867 2284.02375,3511.94922 C2283.76008,3511.42187 2283.49641,3511.1582 2283.23274,3511.1582 C2281.12335,3511.77344 2279.49739,3512.78417 2278.35481,3514.19043 L2278.35481,3514.4541 Z M2298.78938,3533.96582 C2298.87727,3533.96582 2299.05305,3534.05371 2299.31672,3534.22949 C2299.31672,3535.37208 2298.56966,3536.29492 2297.07551,3536.99805 C2296.63605,3537.08594 2296.19661,3537.12988 2295.75715,3537.12988 L2295.62531,3537.12988 C2295.09797,3537.12988 2294.8343,3536.91016 2294.8343,3536.4707 L2294.8343,3536.20703 C2294.8343,3535.32812 2295.93292,3534.58106 2298.1302,3533.96582 L2298.78938,3533.96582 Z M2343.34992,3588.01855 C2344.49251,3587.93066 2345.50324,3587.44727 2346.38215,3586.56836 L2346.38215,3586.43652 C2345.32746,3586.43652 2344.31673,3586.96386 2343.34992,3588.01855 Z M2335.1761,3591.44629 L2335.1761,3591.57812 L2336.23078,3591.57812 C2338.25228,3591.57812 2339.96613,3590.65528 2341.37239,3588.80957 L2340.84504,3588.67773 C2338.47198,3588.67773 2336.58235,3589.60058 2335.1761,3591.44629 Z M2333.46223,3592.63281 L2333.59406,3592.63281 C2334.38508,3592.36914 2334.78059,3592.10547 2334.78059,3591.8418 L2334.64875,3591.8418 C2334.2093,3591.8418 2333.81379,3592.10547 2333.46223,3592.63281 Z M2466.42521,3426.65137 C2468.35881,3426.65137 2470.33633,3426.87109 2472.35782,3427.31055 C2475.34612,3428.10157 2477.58731,3429.5078 2479.08146,3431.5293 C2480.39982,3433.11134 2481.059,3434.7373 2481.059,3436.40723 C2481.059,3437.90137 2480.48771,3439.57128 2479.34513,3441.41699 C2478.642,3442.12012 2477.98283,3442.6914 2477.36759,3443.13086 C2474.64297,3445.06446 2471.30316,3447.08593 2467.34806,3449.19531 C2466.02969,3449.89844 2464.62346,3450.6455 2463.12931,3451.43652 C2456.71326,3455.47951 2451.30804,3458.9951 2446.91349,3461.9834 C2444.45254,3463.74122 2442.6508,3465.01562 2441.50821,3465.80664 C2438.25624,3468.26759 2434.69671,3471.16795 2430.8295,3474.50781 C2428.45644,3476.52931 2424.9848,3479.73728 2420.41446,3484.13184 L2419.49161,3485.05469 L2419.35978,3485.05469 C2418.39297,3485.05469 2417.90958,3485.18652 2417.90958,3485.4502 C2417.82169,3485.4502 2417.77775,3485.58203 2417.77775,3485.8457 C2417.86564,3486.19727 2417.90958,3486.46094 2417.90958,3486.63672 C2417.29434,3487.25196 2416.67912,3488.04296 2416.06388,3489.00977 C2413.16347,3493.22854 2411.71329,3497.13963 2411.71329,3500.74316 C2411.71329,3505.3135 2414.26209,3509.00487 2419.35978,3511.81738 C2419.53556,3511.81738 2420.19473,3512.16894 2421.33732,3512.87207 C2421.77677,3513.31153 2422.392,3513.75097 2423.18302,3514.19043 C2427.40179,3516.91505 2433.7738,3521.88082 2442.29923,3529.08789 C2443.5297,3530.05469 2444.54044,3530.88964 2445.33146,3531.59277 C2446.38615,3533.35059 2447.79238,3535.28417 2449.55021,3537.39355 C2451.13225,3539.23927 2452.18692,3540.51367 2452.71427,3541.2168 C2453.68107,3542.53516 2454.73575,3543.89745 2455.87833,3545.30371 C2457.02092,3546.88575 2458.25137,3548.86327 2459.56974,3551.23633 C2459.83341,3551.67578 2460.00919,3551.9834 2460.09708,3552.15918 L2460.09708,3552.02734 L2456.40567,3543.85352 L2456.27384,3543.58984 C2462.95356,3553.08208 2466.29337,3562.3105 2466.29337,3571.27539 L2466.29337,3573.5166 L2466.16153,3573.5166 C2465.80997,3572.63769 2465.59025,3572.1543 2465.50235,3572.06641 C2465.50235,3572.50586 2465.1508,3573.0332 2464.44767,3573.64844 C2464.00821,3574.17578 2463.74454,3574.70312 2463.65665,3575.23047 C2463.65665,3575.66992 2463.39298,3576.94433 2462.86564,3579.05371 C2462.77774,3579.40528 2462.7338,3580.41601 2462.7338,3582.08594 C2462.38224,3584.72267 2462.16251,3586.30468 2462.07462,3586.83203 C2461.54727,3588.23829 2461.2836,3589.60058 2461.2836,3590.91895 C2461.2836,3592.67677 2460.97599,3593.90722 2460.36075,3594.61035 C2459.56973,3595.57715 2459.08634,3596.23633 2458.91056,3596.58789 C2458.4711,3597.4668 2457.06487,3599.31249 2454.69181,3602.125 C2454.7797,3602.21289 2454.91153,3602.38867 2455.08732,3602.65234 C2452.53847,3605.0254 2450.42912,3606.87109 2448.75919,3608.18945 C2445.41933,3610.82619 2442.16741,3613.11132 2439.00333,3615.04492 C2436.19082,3616.89063 2433.86174,3618.20898 2432.01603,3619 C2431.66446,3619.17578 2430.56584,3619.43945 2428.72013,3619.79102 C2427.75333,3619.9668 2426.96232,3620.05469 2426.34708,3620.05469 L2426.21525,3620.05469 C2426.12735,3620.05469 2425.95157,3619.65918 2425.6879,3618.86816 C2425.6879,3618.69238 2425.64396,3618.56055 2425.55607,3618.47266 C2424.85294,3618.91211 2424.14982,3619.21973 2423.44669,3619.39551 L2423.05118,3619.92285 C2423.75431,3620.09863 2424.54532,3620.18652 2425.42423,3620.18652 C2424.98477,3620.27441 2423.57854,3620.97753 2421.20548,3622.2959 C2419.975,3622.99903 2418.87638,3623.48242 2417.90958,3623.74609 L2413.9545,3624.93262 C2409.38417,3626.16309 2405.6928,3626.77832 2402.88028,3626.77832 L2402.61661,3626.77832 C2401.47403,3626.77832 2400.41935,3626.69043 2399.45255,3626.51465 C2397.78262,3626.69043 2396.37638,3626.77832 2395.2338,3626.77832 L2394.97013,3626.77832 C2392.68496,3626.77832 2390.6635,3626.25098 2388.90567,3625.19629 C2384.86269,3622.82323 2381.61077,3618.03324 2379.14982,3610.82617 C2378.3588,3608.71679 2377.65568,3605.90431 2377.04044,3602.38867 C2376.60099,3599.75194 2376.38126,3597.99415 2376.38126,3597.11523 C2379.28167,3599.04884 2382.8412,3600.01562 2387.05997,3600.01562 C2393.38813,3600.01562 2400.77087,3597.95022 2409.20841,3593.81934 C2412.2846,3592.32519 2415.58046,3590.34767 2419.0961,3587.88672 C2420.94182,3586.65624 2423.05117,3584.94239 2425.42423,3582.74512 C2428.06096,3580.45995 2430.65371,3578.13087 2433.20255,3575.75781 C2435.57561,3573.20897 2437.15762,3571.36329 2437.94864,3570.2207 C2438.91545,3568.72656 2439.7504,3567.27637 2440.45353,3565.87012 C2441.24455,3564.0244 2441.68399,3562.57422 2441.77189,3561.51953 C2441.85978,3560.8164 2441.90372,3560.0254 2441.90372,3559.14648 C2441.90372,3557.82812 2441.81583,3557.16895 2441.64005,3557.16895 C2440.40958,3555.05956 2439.44279,3553.4336 2438.73966,3552.29102 C2438.47599,3551.85156 2437.72892,3551.01661 2436.49845,3549.78613 C2434.74063,3548.29198 2432.67522,3546.8418 2430.30216,3545.43555 C2427.84121,3543.85351 2423.13911,3540.99709 2416.19571,3536.86621 C2411.18592,3533.96581 2406.57171,3530.97755 2402.35294,3527.90137 C2400.41934,3526.49511 2398.26604,3524.64943 2395.89298,3522.36426 C2388.7738,3515.59665 2385.21427,3508.60941 2385.21427,3501.40234 C2385.21427,3499.73241 2385.43399,3497.88673 2385.87345,3495.86523 L2385.87345,3495.7334 C2385.87345,3489.66891 2386.26895,3485.31837 2387.05997,3482.68164 C2388.20256,3478.46287 2390.92714,3473.67288 2395.2338,3468.31152 C2396.55217,3466.72948 2398.13418,3465.01563 2399.97989,3463.16992 C2402.52873,3460.79686 2404.9457,3458.73145 2407.23087,3456.97363 C2411.80121,3453.3701 2416.89881,3449.72267 2422.52384,3446.03125 C2429.37934,3441.6367 2436.27869,3437.68166 2443.22208,3434.16602 C2446.73772,3432.40819 2450.29726,3430.82618 2453.90079,3429.41992 C2455.48283,3428.71679 2457.19668,3428.10157 2459.04239,3427.57422 C2461.15178,3426.95898 2463.48086,3426.65137 2466.0297,3426.65137 L2466.42521,3426.65137 Z M2532.0795,3426.7832 L2532.47501,3426.7832 C2533.35392,3426.7832 2536.12245,3427.00293 2540.78067,3427.44238 C2541.92326,3427.44238 2543.10977,3427.75 2544.34025,3428.36523 C2547.24065,3430.12306 2548.69083,3433.90231 2548.69083,3439.70312 C2548.69083,3442.07618 2548.42716,3444.80077 2547.89982,3447.87695 C2547.63614,3448.75586 2547.06486,3450.20604 2546.18595,3452.22754 C2544.34024,3456.44631 2542.62639,3460.79685 2541.04435,3465.2793 C2538.75918,3472.31058 2536.47405,3480.22066 2534.18888,3489.00977 C2533.9252,3491.03126 2533.74943,3492.4375 2533.66153,3493.22852 C2533.30997,3494.81055 2532.73869,3495.95312 2531.94767,3496.65625 C2530.98087,3497.53516 2529.97013,3497.97461 2528.91544,3497.97461 L2528.7836,3497.97461 C2528.34415,3497.97461 2527.9047,3497.93066 2527.46525,3497.84277 C2527.20157,3497.93066 2527.02579,3497.97461 2526.9379,3497.97461 L2526.80607,3497.84277 C2528.65178,3487.55952 2529.79434,3481.31935 2530.2338,3479.12207 L2530.2338,3478.99023 L2530.10196,3478.99023 C2528.87149,3482.68166 2527.55314,3487.69137 2526.14689,3494.01953 C2525.61954,3496.21681 2525.35587,3497.40332 2525.35587,3497.5791 L2525.22403,3497.5791 C2522.76308,3497.5791 2521.00529,3496.87598 2519.9506,3495.46973 C2519.59903,3495.03027 2519.02775,3494.15137 2518.23673,3492.83301 C2517.97306,3492.48144 2517.57755,3492.04199 2517.05021,3491.51465 C2516.25919,3490.19628 2515.86368,3487.25198 2515.86368,3482.68164 L2515.86368,3482.1543 C2515.86368,3476.52927 2516.39102,3469.05864 2517.44571,3459.74219 C2510.6781,3464.22463 2504.87738,3468.26756 2500.04337,3471.87109 C2495.64882,3475.03517 2490.19965,3479.42966 2483.69571,3485.05469 C2480.97109,3487.42775 2477.54339,3490.50389 2473.41251,3494.2832 L2472.6215,3494.2832 C2472.09415,3494.2832 2471.78653,3494.41504 2471.69864,3494.67871 L2471.69864,3494.81055 C2471.78653,3495.33789 2471.83048,3495.68945 2471.83048,3495.86523 C2470.6,3497.00782 2467.74359,3499.7324 2463.26114,3504.03906 C2465.80998,3506.5879 2467.52383,3508.12597 2468.40275,3508.65332 C2469.89689,3509.97169 2471.17129,3510.89453 2472.22599,3511.42188 C2474.51116,3512.74024 2477.05996,3514.3662 2479.87247,3516.2998 C2482.77288,3518.40919 2486.0248,3520.91405 2489.62833,3523.81445 C2494.9018,3528.20901 2498.02188,3530.80175 2498.98868,3531.59277 C2499.95548,3533.35059 2501.31778,3535.28417 2503.0756,3537.39355 C2504.74553,3539.23927 2505.88809,3540.6455 2506.50333,3541.6123 C2507.38224,3542.75489 2508.34903,3543.9414 2509.40372,3545.17188 C2510.45841,3546.57813 2511.82071,3548.77538 2513.49064,3551.76367 L2513.62247,3551.89551 C2513.3588,3551.28027 2512.17229,3548.64358 2510.0629,3543.98535 C2509.97501,3543.80957 2509.93107,3543.67773 2509.93107,3543.58984 C2511.33732,3545.61134 2512.56778,3547.6328 2513.62247,3549.6543 L2514.67716,3551.5 C2515.20451,3551.93946 2515.55606,3552.42285 2515.73185,3552.9502 C2516.1713,3553.917 2516.6547,3555.32323 2517.18204,3557.16895 C2517.70939,3558.48731 2518.14884,3559.8496 2518.5004,3561.25586 L2518.23673,3561.25586 L2518.36857,3561.65137 L2518.5004,3561.65137 L2518.89591,3562.96973 C2519.59904,3565.78224 2519.9506,3568.59471 2519.9506,3571.40723 C2519.86271,3572.46192 2519.81876,3573.16504 2519.81876,3573.5166 C2519.55509,3572.98926 2519.33536,3572.59375 2519.15958,3572.33008 L2519.02775,3572.33008 C2519.02775,3572.76953 2518.72013,3573.34082 2518.10489,3574.04395 C2517.57755,3574.74707 2517.26993,3575.49414 2517.18204,3576.28516 C2517.18204,3576.72461 2516.91837,3578.13085 2516.39103,3580.50391 L2516.25919,3583.4043 C2515.99552,3585.77736 2515.81974,3587.31543 2515.73185,3588.01855 C2515.2045,3589.68848 2514.94083,3590.96289 2514.94083,3591.8418 C2514.94083,3593.7754 2514.72111,3595.0498 2514.28165,3595.66504 C2514.19376,3596.0166 2513.88615,3596.54394 2513.3588,3597.24707 C2513.09513,3597.68653 2512.65568,3598.47753 2512.04044,3599.62012 C2511.07364,3601.46583 2509.79924,3603.44335 2508.2172,3605.55273 L2508.2172,3605.68457 C2508.30509,3605.77246 2508.43692,3605.86035 2508.61271,3605.94824 C2506.85488,3608.23341 2504.78948,3610.69432 2502.41642,3613.33105 C2501.01016,3615.00098 2498.81292,3617.28612 2495.82462,3620.18652 C2492.0453,3623.87795 2489.45256,3626.25097 2488.0463,3627.30566 C2486.28848,3628.79981 2485.05802,3629.72265 2484.35489,3630.07422 C2482.68496,3631.04102 2481.14689,3631.74414 2479.74064,3632.18359 C2479.56485,3631.91992 2479.38907,3631.48047 2479.21329,3630.86523 C2478.33438,3631.56836 2477.58732,3632.05176 2476.97208,3632.31543 L2476.57657,3632.97461 C2476.92814,3632.97461 2477.71915,3632.79883 2478.94962,3632.44727 C2478.33438,3632.88672 2476.92815,3634.02929 2474.73087,3635.875 C2473.06094,3637.28126 2472.00626,3638.11621 2471.56681,3638.37988 C2470.24844,3639.1709 2469.3256,3639.69824 2468.79825,3639.96191 C2468.62247,3640.1377 2467.56779,3640.75292 2465.63419,3641.80762 C2463.08535,3643.21387 2460.71233,3644.35644 2458.51505,3645.23535 C2456.49356,3646.02637 2455.2631,3646.42188 2454.82364,3646.42188 C2454.38419,3646.50977 2453.76896,3646.59766 2452.97794,3646.68555 C2449.63808,3648.17969 2447.08928,3648.92676 2445.33146,3648.92676 L2445.06778,3648.92676 C2442.9584,3648.92676 2440.84904,3648.13575 2438.73966,3646.55371 C2437.68497,3645.58691 2436.85001,3644.70801 2436.23478,3643.91699 C2435.35587,3642.68652 2434.69669,3641.63184 2434.25724,3640.75293 C2433.20254,3638.81933 2432.23576,3636.27052 2431.35685,3633.10645 C2431.00528,3631.6123 2430.65372,3629.67872 2430.30216,3627.30566 C2430.03849,3625.81152 2429.90665,3624.80078 2429.90665,3624.27344 L2430.03849,3624.27344 C2431.35685,3624.71289 2432.71914,3624.93262 2434.1254,3624.93262 L2434.65275,3624.93262 C2438.43206,3624.93262 2443.13416,3623.48244 2448.75919,3620.58203 C2451.48381,3619.26367 2454.51601,3617.41798 2457.85587,3615.04492 C2460.40471,3613.2871 2463.30507,3610.95802 2466.55704,3608.05762 C2468.05119,3606.82714 2469.67715,3605.33302 2471.43497,3603.5752 C2474.0717,3600.93846 2475.69766,3599.22461 2476.3129,3598.43359 C2477.19181,3597.29101 2478.42227,3595.66505 2480.00431,3593.55566 C2487.56294,3583.27241 2491.3422,3574.65921 2491.3422,3567.71582 C2491.3422,3562.79392 2489.5844,3558.22365 2486.06876,3554.00488 C2485.45352,3553.30175 2484.70646,3552.51075 2483.82755,3551.63184 C2481.54238,3549.34667 2479.74064,3547.72071 2478.42228,3546.75391 C2475.87344,3544.64452 2472.66546,3542.13966 2468.79825,3539.23926 C2465.28261,3536.60253 2461.9428,3533.96583 2458.77872,3531.3291 C2456.93301,3529.83495 2454.64788,3527.7256 2451.92325,3525.00098 C2449.72598,3522.8037 2448.45158,3521.39746 2448.10001,3520.78223 C2447.74845,3520.16699 2447.35294,3519.41993 2446.91349,3518.54102 C2446.29825,3517.04687 2445.99064,3516.08008 2445.99064,3515.64062 C2445.90274,3515.02539 2445.8588,3514.54199 2445.8588,3514.19043 C2445.50724,3514.01465 2444.40861,3513.00392 2442.5629,3511.1582 C2441.33243,3509.75195 2440.49747,3508.56543 2440.05802,3507.59863 C2439.09122,3505.84081 2438.60782,3503.73146 2438.60782,3501.27051 C2438.78361,3496.61228 2438.95939,3493.84375 2439.13517,3492.96484 C2439.48673,3490.24022 2440.05801,3487.8672 2440.84903,3485.8457 C2441.37638,3484.52734 2442.03555,3483.25294 2442.82657,3482.02246 C2443.79338,3480.35253 2444.93594,3478.63868 2446.25431,3476.88086 C2447.22111,3475.65038 2448.84707,3473.84864 2451.13224,3471.47559 C2452.80217,3469.80566 2454.2084,3468.53125 2455.35099,3467.65234 C2457.72405,3465.80663 2460.36074,3463.917 2463.26114,3461.9834 C2468.18304,3458.55565 2473.45643,3455.17189 2479.08146,3451.83203 C2488.4858,3446.29489 2497.01111,3441.76857 2504.65763,3438.25293 C2507.38225,3437.02245 2510.23867,3435.92383 2513.22696,3434.95703 C2515.42424,3434.2539 2517.70937,3433.90234 2520.08243,3433.90234 C2521.57658,3433.90234 2523.20254,3434.03418 2524.96036,3434.29785 C2525.22404,3432.8037 2525.53165,3431.66114 2525.88321,3430.87012 C2526.58634,3429.1123 2527.55313,3427.92578 2528.7836,3427.31055 C2529.75041,3426.95898 2530.84903,3426.7832 2532.0795,3426.7832 Z M2441.64005,3439.17578 C2441.64005,3439.35156 2441.81583,3439.57129 2442.16739,3439.83496 L2442.5629,3439.9668 C2447.22113,3437.9453 2449.68204,3436.58301 2449.94571,3435.87988 L2449.28653,3435.35254 C2446.29824,3436.14356 2443.74944,3437.41796 2441.64005,3439.17578 Z M2438.47599,3440.49414 C2438.73966,3440.49414 2439.04727,3440.36231 2439.39884,3440.09863 C2439.39884,3439.92285 2439.31095,3439.83496 2439.13517,3439.83496 C2438.87149,3439.83496 2438.65177,3440.05469 2438.47599,3440.49414 Z M2397.73868,3475.43066 C2398.5297,3475.34277 2399.32071,3475.03516 2400.11173,3474.50781 C2400.81486,3473.80468 2401.3422,3473.18946 2401.69376,3472.66211 C2402.57267,3471.25585 2403.10001,3470.46484 2403.27579,3470.28906 C2404.76994,3468.61913 2406.35196,3466.90528 2408.02189,3465.14746 C2410.74651,3462.42284 2412.89981,3460.35743 2414.48185,3458.95117 C2417.82171,3455.96288 2420.54629,3453.72169 2422.65567,3452.22754 C2424.4135,3450.90917 2426.39102,3449.54688 2428.58829,3448.14062 C2430.5219,3446.91015 2432.67519,3445.32813 2435.04825,3443.39453 C2436.36662,3442.33984 2437.33341,3441.50489 2437.94864,3440.88965 L2437.68497,3440.88965 C2436.4545,3440.88965 2435.26799,3441.37304 2434.1254,3442.33984 C2429.29139,3445.24025 2424.54535,3448.44822 2419.88712,3451.96387 C2417.77773,3453.54591 2415.75627,3455.17187 2413.82267,3456.8418 C2413.20743,3457.45703 2412.24064,3458.46777 2410.92228,3459.87402 C2410.30704,3460.40137 2409.16447,3461.4121 2407.49454,3462.90625 C2405.56094,3464.75196 2404.33048,3466.02636 2403.80314,3466.72949 C2402.48477,3468.22364 2401.47404,3469.54199 2400.77091,3470.68457 C2399.54043,3472.3545 2398.5297,3473.93652 2397.73868,3475.43066 Z M2495.82462,3446.9541 C2496.08829,3447.48145 2496.30802,3447.74512 2496.4838,3447.74512 L2496.74747,3447.74512 C2500.87835,3445.9873 2503.33926,3444.625 2504.13028,3443.6582 L2504.26212,3443.39453 L2503.60294,3442.86719 C2502.37247,3443.21875 2501.09806,3443.70215 2499.7797,3444.31738 C2498.54922,3444.93262 2497.27482,3445.72363 2495.95646,3446.69043 C2495.86857,3446.77832 2495.82462,3446.86621 2495.82462,3446.9541 Z M2492.52872,3448.27246 L2492.66056,3448.27246 C2492.83634,3448.27246 2493.14395,3448.14063 2493.58341,3447.87695 C2493.58341,3447.61328 2493.49552,3447.48145 2493.31974,3447.48145 L2493.1879,3447.48145 C2492.92423,3447.48145 2492.7045,3447.74511 2492.52872,3448.27246 Z M2451.0004,3481.62695 C2451.9672,3481.62695 2452.93399,3481.27539 2453.90079,3480.57227 C2454.51603,3479.86914 2455.04337,3479.12207 2455.48282,3478.33105 C2456.01017,3477.62793 2456.44962,3477.10059 2456.80118,3476.74902 C2461.01995,3472.61814 2463.96426,3469.89356 2465.63419,3468.5752 C2468.88616,3465.67479 2471.9623,3463.21388 2474.86271,3461.19238 C2477.41155,3459.34667 2479.60879,3457.85254 2481.4545,3456.70996 C2483.12443,3455.83105 2485.58535,3454.1172 2488.83732,3451.56836 C2489.89201,3450.68945 2490.99063,3449.72266 2492.13321,3448.66797 L2491.47403,3448.66797 C2490.41934,3448.66797 2489.32072,3449.10742 2488.17814,3449.98633 C2483.6078,3452.71095 2478.81781,3455.83104 2473.80802,3459.34668 C2471.25918,3461.19239 2468.75432,3463.12597 2466.29337,3465.14746 C2464.62344,3466.90528 2463.48087,3467.95996 2462.86564,3468.31152 C2461.63516,3469.19043 2460.14104,3470.46484 2458.38321,3472.13477 C2456.27383,3474.33204 2454.91154,3475.87011 2454.2963,3476.74902 C2453.06583,3478.24317 2451.9672,3479.86913 2451.0004,3481.62695 Z M2528.51993,3495.20605 C2529.66252,3495.11816 2530.32169,3495.07422 2530.49747,3495.07422 L2531.02482,3493.49219 L2530.76114,3493.22852 C2530.49747,3493.22852 2530.10197,3493.58007 2529.57462,3494.2832 C2529.31095,3494.54688 2528.95939,3494.85449 2528.51993,3495.20605 Z M2430.56583,3528.29688 C2431.26896,3528.91211 2432.10391,3529.52734 2433.07071,3530.14258 C2434.74064,3531.10938 2436.14688,3531.68066 2437.28946,3531.85645 C2437.11368,3531.50488 2436.76212,3531.06543 2436.23478,3530.53809 C2435.35587,3529.74707 2434.43302,3529.17578 2433.46622,3528.82422 C2432.23575,3528.47265 2431.26896,3528.29688 2430.56583,3528.29688 Z M2484.22306,3528.29688 C2486.33244,3530.14259 2488.35391,3531.28515 2490.28751,3531.72461 C2490.3754,3531.8125 2490.59513,3531.85645 2490.94669,3531.85645 C2490.68302,3531.41699 2490.11173,3530.84571 2489.23282,3530.14258 C2488.35391,3529.35156 2487.12346,3528.82422 2485.54142,3528.56055 C2484.83829,3528.38476 2484.39884,3528.29688 2484.22306,3528.29688 Z M2491.07853,3531.98828 L2491.21036,3531.98828 L2491.07853,3531.98828 Z M2437.68497,3532.12012 C2437.77286,3532.73535 2437.9047,3533.1748 2438.08048,3533.43848 C2439.31095,3534.49317 2440.49747,3535.59179 2441.64005,3536.73438 C2444.18889,3539.37111 2446.07852,3541.48046 2447.309,3543.0625 C2449.50627,3545.87501 2451.43985,3548.77538 2453.10978,3551.76367 C2453.72501,3552.99415 2454.2963,3554.00488 2454.82364,3554.7959 C2455.52677,3555.41114 2456.01017,3555.71875 2456.27384,3555.71875 L2457.06485,3555.98242 C2456.97696,3555.80664 2456.88907,3555.36719 2456.80118,3554.66406 C2455.57071,3552.11522 2453.94475,3549.34669 2451.92325,3546.3584 C2450.60489,3544.4248 2448.80315,3542.13966 2446.51798,3539.50293 C2444.3207,3537.12987 2442.73869,3535.54786 2441.77189,3534.75684 C2440.71719,3533.70214 2439.53068,3532.91114 2438.21232,3532.38379 C2438.21232,3532.38379 2438.03654,3532.2959 2437.68497,3532.12012 Z M2491.21036,3532.12012 C2491.38614,3532.82325 2491.56192,3533.26269 2491.73771,3533.43848 C2492.52873,3534.14161 2494.15469,3535.67968 2496.61564,3538.05273 C2499.16448,3540.77736 2501.01016,3543.01855 2502.15275,3544.77637 C2504.26213,3547.67677 2506.10782,3550.62108 2507.68985,3553.60938 C2508.39298,3554.83985 2509.0961,3555.54297 2509.79923,3555.71875 C2510.23868,3555.89453 2510.50235,3555.98242 2510.59025,3555.98242 C2510.50235,3555.63086 2510.41446,3555.19141 2510.32657,3554.66406 C2509.44766,3552.73046 2508.3051,3550.62111 2506.89884,3548.33594 C2505.58047,3546.31444 2504.08635,3544.24903 2502.41642,3542.13965 C2501.27383,3540.73339 2499.69182,3539.01954 2497.67032,3536.99805 C2495.20937,3534.62499 2493.84708,3533.39453 2493.58341,3533.30664 C2493.05606,3532.95508 2492.309,3532.55957 2491.3422,3532.12012 C2491.3422,3532.12012 2491.29825,3532.12012 2491.21036,3532.12012 Z M2438.47599,3607.92578 L2438.47599,3608.58496 C2439.00333,3609.11231 2439.53067,3609.37598 2440.05802,3609.37598 C2442.87053,3607.96972 2445.683,3606.29981 2448.49552,3604.36621 C2453.68109,3600.67479 2457.28457,3596.45608 2459.30607,3591.70996 C2458.51505,3591.00683 2458.0756,3590.65527 2457.98771,3590.65527 L2457.85587,3590.65527 C2456.44961,3592.23731 2454.34026,3594.4785 2451.52775,3597.37891 C2449.50625,3599.31251 2447.88029,3600.98241 2446.64982,3602.38867 C2445.33145,3603.44336 2443.44182,3604.71777 2440.98087,3606.21191 C2439.92618,3606.82715 2439.09122,3607.39843 2438.47599,3607.92578 Z M2492.00138,3616.23145 L2492.00138,3616.62695 C2492.00138,3616.89063 2492.08927,3617.02246 2492.26505,3617.02246 C2492.52872,3617.28613 2492.83634,3617.41797 2493.1879,3617.41797 L2493.31974,3617.41797 C2493.49552,3617.41797 2493.71524,3617.28613 2493.97892,3617.02246 C2496.00041,3615.44042 2498.46132,3613.24318 2501.36173,3610.43066 C2503.91057,3607.79393 2505.58048,3605.99219 2506.3715,3605.02539 C2507.60197,3603.35546 2508.78848,3601.64161 2509.93107,3599.88379 C2511.07365,3597.86229 2512.04044,3595.88478 2512.83146,3593.95117 C2512.21622,3593.51172 2511.77677,3593.29199 2511.5131,3593.29199 C2509.22793,3596.45607 2506.54729,3599.97166 2503.4711,3603.83887 L2500.04337,3608.45312 C2499.07657,3609.59571 2497.75822,3610.958 2496.08829,3612.54004 C2494.85782,3613.50684 2493.49553,3614.7373 2492.00138,3616.23145 Z M2606.24365,3446.55859 C2608.26515,3446.55859 2611.2534,3448.53611 2615.2085,3452.49121 L2615.73584,3452.49121 C2617.84523,3452.49121 2620.52586,3454.38084 2623.77783,3458.16016 C2624.83252,3458.95118 2626.72215,3459.91796 2629.44678,3461.06055 C2630.32569,3461.58789 2630.76514,3462.11523 2630.76514,3462.64258 C2630.41357,3463.69727 2630.10596,3464.66406 2629.84229,3465.54297 C2629.05127,3469.23439 2628.17237,3475.82612 2627.20557,3485.31836 L2627.20557,3486.24121 C2627.20557,3494.59086 2628.87547,3521.35329 2632.21533,3566.5293 C2632.74268,3573.20902 2633.00635,3577.73534 2633.00635,3580.1084 C2633.00635,3583.27248 2632.61084,3585.20605 2631.81982,3585.90918 C2631.20459,3586.17285 2630.76514,3586.30469 2630.50146,3586.30469 L2630.6333,3586.17285 C2627.645,3585.46972 2625.35987,3584.72266 2623.77783,3583.93164 C2621.93212,3582.78906 2618.6802,3580.72365 2614.02197,3577.73535 C2613.14306,3577.2959 2612.48389,3576.63672 2612.04443,3575.75781 C2611.25341,3574.08788 2610.15479,3572.46192 2608.74854,3570.87988 C2608.83643,3570.35254 2609.36376,3568.9463 2610.33057,3566.66113 L2610.33057,3566.26562 C2610.33057,3566.00195 2610.11084,3565.21094 2609.67139,3563.89258 L2609.67139,3563.62891 L2610.19873,3559.9375 C2610.55029,3559.14648 2610.72607,3558.31153 2610.72607,3557.43262 C2610.72607,3556.55371 2610.37452,3555.45508 2609.67139,3554.13672 C2609.31982,3553.43359 2609.14404,3552.81836 2609.14404,3552.29102 L2609.67139,3551.10449 L2609.67139,3550.97266 C2609.5835,3550.79687 2609.40772,3550.09376 2609.14404,3548.86328 C2608.88037,3548.77539 2608.66065,3548.73145 2608.48486,3548.73145 C2606.63915,3548.73145 2600.48687,3551.36814 2590.02783,3556.6416 C2580.5356,3561.47561 2572.44974,3565.21092 2565.77002,3567.84766 C2562.51805,3569.07813 2560.01319,3569.69336 2558.25537,3569.69336 L2556.40967,3569.69336 C2555.79443,3570.66016 2553.77297,3574.17575 2550.34521,3580.24023 C2547.5327,3585.42581 2544.85206,3590.83103 2542.30322,3596.45605 C2540.5454,3600.49904 2538.91944,3605.24509 2537.42529,3610.69434 C2537.07373,3612.80372 2536.89795,3614.95702 2536.89795,3617.1543 C2536.89795,3617.76953 2536.98584,3619.791 2537.16162,3623.21875 C2537.16162,3623.65821 2536.98584,3623.92187 2536.63428,3624.00977 C2536.19482,3624.00977 2534.43703,3623.43848 2531.36084,3622.2959 C2529.60302,3621.50488 2526.87844,3619.74708 2523.18701,3617.02246 L2519.75928,3614.78125 C2518.70458,3612.93554 2518.17725,3610.87013 2518.17725,3608.58496 L2518.17725,3607.79395 C2518.17725,3601.3779 2521.64889,3591.75397 2528.59229,3578.92188 C2529.91065,3576.37303 2537.90862,3560.81655 2552.58643,3532.25195 C2565.85798,3506.41198 2572.97705,3492.65723 2573.94385,3490.9873 C2578.77786,3482.98922 2586.20454,3471.34383 2596.22412,3456.05078 C2597.27881,3454.11718 2598.94872,3451.91993 2601.23389,3449.45898 C2603.34327,3447.52538 2605.01318,3446.55859 2606.24365,3446.55859 Z M2586.46826,3504.30273 C2589.80812,3500.17185 2592.79637,3495.82131 2595.43311,3491.25098 C2597.89406,3486.76853 2599.60791,3483.29689 2600.57471,3480.83594 C2597.93798,3483.47267 2596.0044,3485.80175 2594.77393,3487.82324 C2593.80712,3489.40528 2592.40089,3491.82225 2590.55518,3495.07422 C2588.09423,3498.41408 2586.81982,3500.87499 2586.73193,3502.45703 C2586.55615,3503.07227 2586.46826,3503.6875 2586.46826,3504.30273 Z M2600.57471,3493.36035 C2596.53172,3499.60062 2594.02686,3503.81932 2593.06006,3506.0166 C2586.29245,3518.32135 2578.9976,3531.15325 2571.17529,3544.5127 C2577.06399,3541.96385 2586.64398,3538.14065 2599.91553,3533.04297 L2604.79346,3531.06543 C2602.06883,3507.68641 2600.70654,3495.29395 2600.70654,3493.8877 L2600.70654,3493.36035 L2600.57471,3493.36035 Z M2621.80029,3494.41504 C2621.44873,3496.61232 2621.27295,3498.54589 2621.27295,3500.21582 L2621.27295,3502.3252 C2621.27295,3504.61036 2622.06396,3506.80761 2623.646,3508.91699 C2624.08545,3506.8955 2624.30518,3505.1377 2624.30518,3503.64355 C2624.30518,3500.74315 2623.51417,3497.66701 2621.93213,3494.41504 L2621.80029,3494.41504 Z M2623.646,3513.66309 C2623.03076,3514.36621 2622.72314,3515.15722 2622.72314,3516.03613 C2622.72314,3516.3877 2623.0747,3517.88182 2623.77783,3520.51855 C2624.1294,3522.27638 2624.30518,3523.99023 2624.30518,3525.66016 C2624.21728,3527.68165 2624.17334,3528.95605 2624.17334,3529.4834 L2624.17334,3530.66992 C2624.17334,3532.8672 2624.48095,3536.55857 2625.09619,3541.74414 L2625.09619,3543.32617 L2624.70068,3549.25879 L2624.70068,3549.6543 C2624.70068,3554.5762 2625.18408,3559.71775 2626.15088,3565.0791 C2626.9419,3567.97951 2628.12841,3570.39647 2629.71045,3572.33008 L2629.71045,3572.19824 C2628.04052,3564.63961 2627.20557,3556.46586 2627.20557,3547.67676 C2627.20557,3535.89936 2626.89795,3527.76955 2626.28271,3523.28711 C2626.01904,3517.66208 2625.71143,3514.84961 2625.35986,3514.84961 C2624.74463,3514.05859 2624.17334,3513.66309 2623.646,3513.66309 Z M2562.34229,3547.01758 C2563.57276,3546.13867 2564.18799,3545.04005 2564.18799,3543.72168 L2564.18799,3543.45801 C2562.95751,3544.60059 2562.34229,3545.7871 2562.34229,3547.01758 Z M2562.07861,3547.28125 L2562.07861,3547.54492 C2562.1665,3547.54492 2562.21045,3547.45703 2562.21045,3547.28125 L2562.07861,3547.28125 Z M2548.89502,3571.53906 C2552.32277,3566.88084 2555.31102,3562.0469 2557.85986,3557.03711 C2560.4966,3551.41208 2561.81494,3548.42383 2561.81494,3548.07227 C2559.44188,3550.44532 2557.77198,3552.51073 2556.80518,3554.26855 C2555.75048,3555.85059 2554.60792,3557.95995 2553.37744,3560.59668 C2552.49853,3562.17872 2551.39991,3564.0244 2550.08154,3566.13379 C2549.29052,3567.9795 2548.89502,3569.78124 2548.89502,3571.53906 Z M2540.72119,3588.01855 C2540.72119,3588.63379 2540.80908,3589.33691 2540.98486,3590.12793 C2544.23683,3586.4365 2545.86279,3581.82229 2545.86279,3576.28516 C2544.28075,3578.39454 2543.00635,3580.5039 2542.03955,3582.61328 C2541.16064,3584.3711 2540.72119,3586.17284 2540.72119,3588.01855 Z M2535.44775,3600.93848 L2535.44775,3601.07031 C2535.44775,3601.77344 2535.4917,3602.38867 2535.57959,3602.91602 C2537.24952,3601.42187 2538.08447,3599.66407 2538.08447,3597.64258 C2538.08447,3596.93945 2538.04053,3596.28028 2537.95264,3595.66504 C2536.28271,3597.15919 2535.44775,3598.91698 2535.44775,3600.93848 Z M2751.73104,3422.56445 C2754.27988,3422.56445 2759.50932,3426.51949 2767.41952,3434.42969 C2768.91367,3435.83594 2769.66073,3436.84668 2769.66073,3437.46191 C2769.9244,3438.16504 2770.05624,3439 2770.05624,3439.9668 C2770.05624,3442.60353 2769.57285,3445.10839 2768.60604,3447.48145 C2768.43026,3447.83301 2767.72714,3448.62402 2766.49667,3449.85449 C2762.80524,3454.95217 2759.15782,3461.45602 2755.55429,3469.36621 C2754.76327,3471.03614 2754.36776,3471.91504 2754.36776,3472.00293 L2754.23593,3472.00293 C2754.85116,3469.10252 2755.59823,3466.42189 2756.47714,3463.96094 C2757.70761,3460.79686 2759.46541,3457.32521 2761.75058,3453.5459 C2762.54159,3451.70019 2763.90389,3450.29395 2765.83749,3449.32715 C2766.27694,3448.97558 2766.49667,3448.66797 2766.49667,3448.4043 L2766.49667,3448.00879 C2766.49667,3447.30566 2766.14511,3446.86621 2765.44198,3446.69043 L2765.31015,3446.69043 C2764.69491,3446.69043 2763.99179,3447.3496 2763.20077,3448.66797 C2752.1265,3463.34578 2746.58944,3475.78218 2746.58944,3485.97754 L2746.58944,3486.90039 C2746.58944,3492.26175 2748.30329,3497.18357 2751.73104,3501.66602 L2751.73104,3501.79785 C2751.37948,3503.46778 2751.2037,3504.78613 2751.2037,3505.75293 C2752.34628,3504.69824 2752.96151,3503.86328 2753.0494,3503.24805 L2753.18124,3503.11621 C2754.06015,3503.99512 2755.42244,3504.74218 2757.26815,3505.35742 C2758.23495,3506.06055 2759.11385,3506.80761 2759.90487,3507.59863 L2759.90487,3507.73047 C2757.18025,3508.87305 2754.01622,3509.44434 2750.41268,3509.44434 C2743.29351,3509.44434 2736.0426,3507.51076 2728.65975,3503.64355 C2726.72615,3502.58886 2724.52891,3500.87501 2722.06796,3498.50195 C2719.43123,3495.60155 2718.11288,3492.70119 2718.11288,3489.80078 C2718.28866,3485.49412 2718.37655,3482.59376 2718.37655,3481.09961 L2718.37655,3480.83594 C2718.37655,3480.39648 2718.68417,3479.51758 2719.2994,3478.19922 L2719.95858,3476.48535 C2718.37654,3477.62794 2716.44297,3479.56151 2714.1578,3482.28613 C2708.88434,3488.70218 2704.44591,3494.81052 2700.84237,3500.61133 C2693.10796,3512.91608 2686.60412,3524.82514 2681.33065,3536.33887 C2678.34236,3542.66702 2675.88144,3548.46775 2673.94784,3553.74121 C2672.62947,3562.96977 2671.39902,3568.81444 2670.25643,3571.27539 C2669.90487,3574.87892 2669.46542,3577.60351 2668.93808,3579.44922 C2668.58651,3581.47071 2668.41073,3583.22851 2668.41073,3584.72266 L2668.41073,3585.38184 C2668.41073,3588.54591 2669.59724,3590.65527 2671.9703,3591.70996 C2673.28867,3592.23731 2674.95857,3592.50098 2676.98007,3592.50098 C2680.05625,3592.50098 2684.62652,3591.92969 2690.691,3590.78711 C2693.15195,3588.9414 2695.12947,3587.84278 2696.62362,3587.49121 L2692.1412,3587.49121 L2692.1412,3587.35938 C2696.97521,3586.39257 2704.35795,3582.21781 2714.28964,3574.83496 C2723.86976,3567.10055 2729.01131,3563.2334 2729.71444,3563.2334 C2733.14219,3561.82714 2734.98788,3561.12402 2735.25155,3561.12402 C2731.38434,3560.15722 2728.92343,3559.23438 2727.86874,3558.35547 C2726.90194,3557.47656 2726.15487,3555.98243 2725.62753,3553.87305 C2725.27596,3552.02733 2725.10018,3548.90725 2725.10018,3544.5127 C2724.9244,3542.40331 2724.70468,3541.34863 2724.441,3541.34863 C2724.441,3539.59081 2735.91062,3537.26173 2758.85018,3534.36133 L2759.24569,3534.36133 C2761.1793,3534.36133 2763.68415,3535.8994 2766.76034,3538.97559 C2769.1334,3541.7881 2770.31991,3544.55663 2770.31991,3547.28125 L2770.31991,3547.67676 C2770.31991,3548.81934 2770.14413,3549.47851 2769.79257,3549.6543 C2768.29842,3551.14844 2767.15585,3552.95018 2766.36483,3555.05957 C2765.7496,3557.16896 2765.44198,3558.44336 2765.44198,3558.88281 C2765.52987,3559.49805 2765.79354,3559.80566 2766.233,3559.80566 L2766.36483,3559.80566 C2767.33163,3559.80566 2767.94686,3559.36622 2768.21054,3558.4873 C2768.38632,3556.90527 2768.60604,3555.85059 2768.86972,3555.32324 C2769.30917,3554.44433 2769.83651,3553.52149 2770.45175,3552.55469 C2771.68222,3553.16992 2772.29745,3553.69726 2772.29745,3554.13672 L2772.29745,3554.26855 C2772.29745,3554.44434 2771.81406,3555.1914 2770.84725,3556.50977 C2768.73787,3560.64065 2766.40879,3565.73825 2763.85995,3571.80273 C2761.22322,3581.11919 2757.0924,3597.64246 2751.46737,3621.37305 C2746.72125,3641.06065 2743.733,3653.93649 2742.50253,3660.00098 C2741.44784,3668.17485 2740.30527,3672.92089 2739.07479,3674.23926 L2738.67929,3674.50293 C2737.36092,3674.23926 2736.61386,3674.01953 2736.43808,3673.84375 C2737.05331,3670.76756 2737.88827,3666.1973 2738.94296,3660.13281 C2739.4703,3658.11132 2740.26131,3656.00196 2741.316,3653.80469 C2741.84335,3652.6621 2742.45858,3650.46486 2743.16171,3647.21289 C2743.42538,3646.33398 2743.68905,3644.26857 2743.95272,3641.0166 C2746.94102,3629.59076 2748.43515,3623.57032 2748.43515,3622.95508 L2748.03964,3622.55957 C2747.51229,3622.55957 2746.89706,3623.92186 2746.19393,3626.64648 C2743.64509,3634.64457 2742.01913,3639.61034 2741.316,3641.54395 C2740.96444,3642.42286 2740.34921,3643.52148 2739.4703,3644.83984 L2739.4703,3645.23535 C2739.64608,3646.20215 2739.73397,3647.03711 2739.73397,3647.74023 C2739.73397,3649.32227 2739.20663,3652.61814 2738.15194,3657.62793 C2737.18514,3660.70412 2736.13046,3663.34081 2734.98788,3665.53809 C2734.63632,3665.97754 2734.46054,3666.28516 2734.46054,3666.46094 C2734.46054,3666.63672 2734.72421,3667.25195 2735.25155,3668.30664 C2735.42733,3668.6582 2735.51522,3669.05371 2735.51522,3669.49316 C2735.16366,3671.95411 2734.94393,3673.18457 2734.85604,3673.18457 C2732.92244,3672.39355 2729.97813,3670.72365 2726.02304,3668.1748 C2724.96834,3666.76855 2724.13339,3665.40626 2723.51815,3664.08789 C2722.90292,3662.41796 2722.5953,3661.27539 2722.5953,3660.66016 C2722.5953,3655.47458 2723.64998,3646.72955 2725.75936,3634.4248 C2728.3961,3618.95598 2731.42829,3602.74032 2734.85604,3585.77734 L2734.72421,3585.77734 C2722.06789,3592.36917 2711.12562,3597.51072 2701.89706,3601.20215 C2687.83449,3606.82718 2676.1891,3609.63965 2666.96054,3609.63965 C2654.74368,3609.63965 2646.52599,3604.76177 2642.30722,3595.00586 C2641.5162,3593.16015 2640.81308,3590.83107 2640.19784,3588.01855 L2639.27499,3583.14062 L2639.01132,3583.27246 C2638.65975,3581.8662 2638.48397,3579.97657 2638.48397,3577.60352 C2638.48397,3573.73631 2638.87948,3568.59476 2639.6705,3562.17871 C2642.65879,3551.456 2645.91071,3542.00785 2649.42636,3533.83398 C2656.01819,3517.57414 2663.44487,3502.32527 2671.70663,3488.08691 C2675.66173,3481.3193 2680.27594,3474.20023 2685.5494,3466.72949 C2688.62559,3462.33494 2692.80035,3457.19339 2698.07382,3451.30469 C2710.46646,3438.12103 2721.45268,3431.5293 2731.0328,3431.5293 L2732.08749,3431.5293 C2734.37266,3431.5293 2736.87751,3432.05664 2739.60214,3433.11133 C2741.79941,3430.56249 2743.95271,3428.40919 2746.0621,3426.65137 C2749.05039,3423.92674 2750.94002,3422.56445 2751.73104,3422.56445 Z M2652.32675,3540.95312 L2652.32675,3541.08496 C2652.32675,3541.43653 2652.45858,3541.70019 2652.72225,3541.87598 C2653.77695,3541.34863 2654.30429,3540.38184 2654.30429,3538.97559 C2655.00741,3537.21776 2656.36971,3533.61429 2658.3912,3528.16504 C2662.43419,3517.96968 2667.75152,3507.5108 2674.34335,3496.78809 C2677.41954,3491.7783 2681.33063,3486.06546 2686.07675,3479.64941 C2689.15293,3474.99119 2693.06403,3469.93753 2697.81015,3464.48828 C2702.73204,3459.30271 2706.1158,3456.00684 2707.96151,3454.60059 C2709.27988,3453.54589 2711.2574,3451.70021 2713.89413,3449.06348 C2713.89413,3448.97559 2714.64119,3448.14063 2716.13534,3446.55859 C2716.5748,3446.11914 2716.79452,3445.63574 2716.79452,3445.1084 C2716.79452,3444.31738 2716.53085,3443.87793 2716.0035,3443.79004 C2715.30038,3443.79004 2714.55331,3444.31738 2713.76229,3445.37207 C2711.03767,3448.18458 2708.2252,3450.82128 2705.32479,3453.28223 C2703.65486,3454.77637 2700.93028,3457.45701 2697.15097,3461.32422 C2693.899,3464.75197 2691.52597,3467.60839 2690.03183,3469.89355 C2688.18611,3472.79396 2686.73593,3474.90331 2685.68124,3476.22168 C2681.98981,3480.87991 2678.69395,3485.49412 2675.79354,3490.06445 C2674.03572,3493.31642 2671.13536,3498.15036 2667.09237,3504.56641 C2663.31306,3511.15824 2660.3248,3517.26657 2658.12753,3522.8916 C2655.84236,3528.95609 2654.43612,3532.77929 2653.90878,3534.36133 C2653.55721,3535.94337 2653.2496,3537.43749 2652.98593,3538.84375 C2652.54647,3539.72266 2652.32675,3540.42578 2652.32675,3540.95312 Z M2743.82089,3471.08008 L2743.82089,3471.60742 C2745.13925,3470.11327 2746.36971,3468.00392 2747.51229,3465.2793 C2748.4791,3462.90624 2749.62166,3459.43459 2750.94003,3454.86426 C2751.29159,3454.24902 2751.46737,3453.72168 2751.46737,3453.28223 L2750.67636,3453.28223 C2749.79745,3453.45801 2748.69882,3454.95213 2747.38046,3457.76465 C2746.67733,3459.2588 2746.01816,3461.19237 2745.40292,3463.56543 C2744.34823,3466.20216 2743.82089,3468.70702 2743.82089,3471.08008 Z M2743.16171,3478.06738 L2743.16171,3479.12207 C2743.77695,3478.41894 2744.08456,3477.62793 2744.08456,3476.74902 L2743.95272,3475.69434 C2743.42538,3476.22168 2743.16171,3477.01269 2743.16171,3478.06738 Z M2740.12948,3489.40527 L2740.12948,3489.53711 C2740.12948,3490.32813 2740.30526,3491.03125 2740.65683,3491.64648 C2741.8873,3490.59179 2742.50253,3489.27345 2742.50253,3487.69141 L2742.50253,3487.42773 C2742.50253,3486.90039 2742.41464,3486.24121 2742.23886,3485.4502 L2742.10702,3485.4502 C2740.78865,3486.59278 2740.12948,3487.91113 2740.12948,3489.40527 Z M2736.43808,3487.82324 C2736.08651,3488.08692 2735.91073,3488.48242 2735.91073,3489.00977 L2736.04257,3489.00977 C2736.39413,3488.74609 2736.56991,3488.43848 2736.56991,3488.08691 L2736.56991,3487.95508 C2736.56991,3487.86719 2736.52597,3487.82324 2736.43808,3487.82324 Z M2668.54257,3516.2998 C2670.91563,3513.92675 2672.27792,3511.64161 2672.62948,3509.44434 L2672.49765,3509.44434 C2670.91561,3510.32325 2669.77304,3511.86132 2669.06991,3514.05859 C2668.80624,3514.67383 2668.63046,3515.42089 2668.54257,3516.2998 Z M2667.09237,3519.99121 C2667.97128,3519.28808 2668.41073,3518.40918 2668.41073,3517.35449 L2668.41073,3516.95898 C2667.53182,3517.75 2667.09237,3518.76074 2667.09237,3519.99121 Z M2664.58749,3525.00098 C2664.58749,3524.03417 2665.02694,3523.06739 2665.90585,3522.10059 C2665.90585,3523.06739 2665.4664,3524.03417 2664.58749,3525.00098 Z M2662.34628,3529.74707 L2662.34628,3529.87891 C2662.87362,3528.82421 2663.18124,3527.94532 2663.26913,3527.24219 C2662.65389,3528.29688 2662.34628,3529.13183 2662.34628,3529.74707 Z M2650.87655,3542.93066 L2650.74472,3543.32617 L2650.87655,3543.32617 L2650.87655,3542.93066 Z M2650.21737,3544.64453 C2649.42635,3546.22657 2649.03085,3547.2373 2649.03085,3547.67676 L2649.16268,3547.67676 C2649.86581,3546.09472 2650.21737,3545.08399 2650.21737,3544.64453 Z M2645.47128,3558.0918 L2645.47128,3558.61914 C2646.96543,3556.59765 2648.0201,3553.60939 2648.63534,3549.6543 C2648.63534,3549.47851 2648.67929,3549.08301 2648.76718,3548.46777 C2646.5699,3551.89552 2645.47128,3555.1035 2645.47128,3558.0918 Z M2763.06893,3562.17871 L2763.06893,3562.44238 C2763.06893,3562.61816 2763.37655,3562.75 2763.99179,3562.83789 C2765.22226,3562.83789 2766.01327,3562.3545 2766.36483,3561.3877 C2766.45272,3561.2998 2766.49667,3561.16797 2766.49667,3560.99219 C2766.49667,3560.64062 2766.32089,3560.46484 2765.96933,3560.46484 C2765.09041,3560.46484 2764.16757,3561.03613 2763.20077,3562.17871 L2763.06893,3562.17871 Z M2642.83456,3563.10156 C2642.83456,3563.36524 2642.96639,3563.58496 2643.23007,3563.76074 C2643.66952,3563.76074 2643.97714,3563.54102 2644.15292,3563.10156 C2644.3287,3562.48633 2644.41659,3562.04688 2644.41659,3561.7832 C2644.41659,3561.34375 2644.24081,3561.12402 2643.88925,3561.12402 C2643.44979,3561.12402 2643.23007,3561.34375 2643.23007,3561.7832 C2642.96639,3562.66211 2642.83456,3563.10156 2642.83456,3563.10156 Z M2729.31893,3580.1084 L2729.97811,3580.24023 L2730.10995,3580.24023 C2732.30723,3580.24023 2734.37264,3579.66895 2736.30624,3578.52637 C2736.56991,3577.208 2736.70175,3576.41699 2736.70175,3576.15332 C2735.29549,3576.85645 2733.62558,3577.55957 2731.69198,3578.2627 C2730.72518,3578.79004 2729.93417,3579.40527 2729.31893,3580.1084 Z M2890.89031,3448.7998 C2897.57003,3448.7998 2901.96452,3449.32714 2904.0739,3450.38184 C2909.34737,3452.40333 2912.95085,3455.25975 2914.88445,3458.95117 C2915.4118,3459.83008 2915.67547,3460.75292 2915.67547,3461.71973 L2915.67547,3461.9834 C2915.67547,3464.09278 2914.88446,3466.37792 2913.30242,3468.83887 C2910.13834,3469.98145 2906.97431,3470.55273 2903.81023,3470.55273 C2888.25351,3473.45314 2874.93822,3476.30956 2863.86394,3479.12207 C2862.19401,3479.64942 2859.20576,3480.26464 2854.8991,3480.96777 C2852.26237,3481.23145 2850.19696,3481.36328 2848.70281,3481.36328 L2849.88933,3482.41797 C2849.88933,3482.50586 2848.39521,3482.72558 2845.40691,3483.07715 C2837.84828,3483.60449 2832.53095,3484.21972 2829.45476,3484.92285 C2829.36687,3485.01074 2828.44403,3485.23047 2826.68621,3485.58203 L2826.68621,3485.71387 C2836.6179,3489.3174 2847.7799,3493.05272 2860.17254,3496.91992 L2868.34636,3499.68848 C2871.15888,3500.21582 2873.22429,3500.83105 2874.54265,3501.53418 C2875.07,3501.70996 2875.42156,3501.97363 2875.59734,3502.3252 C2875.94891,3502.85254 2876.12469,3504.083 2876.12469,3506.0166 C2877.35516,3509.79592 2877.97039,3512.30078 2877.97039,3513.53125 L2877.97039,3515.37695 C2877.97039,3516.16797 2877.79461,3516.56348 2877.44304,3516.56348 C2874.71842,3518.23341 2870.67549,3520.03515 2865.31414,3521.96875 C2861.7985,3523.02344 2859.42547,3523.55078 2858.195,3523.55078 C2841.84726,3526.01173 2828.04857,3528.8242 2816.79851,3531.98828 C2813.10709,3533.04297 2809.67939,3534.05371 2806.51531,3535.02051 C2806.51531,3535.1084 2807.13054,3535.63574 2808.36101,3536.60254 C2806.5153,3537.92091 2804.97723,3539.19531 2803.74676,3540.42578 C2803.48308,3540.68945 2802.69207,3542.18358 2801.37371,3544.9082 C2799.87956,3547.10548 2798.78094,3549.74217 2798.07781,3552.81836 L2796.89129,3556.37793 C2796.53972,3558.39942 2796.23211,3561.03612 2795.96844,3564.28809 C2795.88054,3564.72754 2795.74871,3564.94727 2795.57293,3564.94727 C2794.8698,3564.94727 2794.38641,3565.87011 2794.12273,3567.71582 C2792.89226,3572.28616 2792.27703,3575.3623 2792.27703,3576.94434 C2791.31023,3582.65726 2790.82683,3586.26073 2790.82683,3587.75488 L2790.82683,3588.01855 C2790.82683,3590.4795 2791.35417,3592.36913 2792.40886,3593.6875 C2793.0241,3594.74219 2793.94694,3595.84081 2795.17742,3596.9834 L2794.25457,3592.10547 C2794.16668,3591.49023 2794.12273,3590.65528 2794.12273,3589.60059 L2794.12273,3588.94141 C2794.12273,3588.23828 2794.21062,3586.91993 2794.3864,3584.98633 C2794.3864,3584.2832 2794.16668,3583.18458 2793.72722,3581.69043 C2793.72722,3581.25097 2794.16667,3580.37208 2795.04558,3579.05371 C2796.10028,3577.03222 2796.62761,3575.18653 2796.62761,3573.5166 L2796.62761,3572.85742 L2796.36394,3569.29785 C2796.36394,3563.84861 2798.07779,3557.0811 2801.50554,3548.99512 C2802.99969,3545.74315 2804.88932,3542.97462 2807.17449,3540.68945 C2807.43816,3540.51367 2807.74578,3539.76661 2808.09734,3538.44824 C2808.36101,3537.9209 2808.80046,3537.65723 2809.4157,3537.65723 C2810.99774,3537.83301 2811.78875,3538.53613 2811.78875,3539.7666 C2811.78875,3540.29395 2810.90985,3542.35936 2809.15203,3545.96289 C2806.42741,3551.50003 2804.09833,3556.90525 2802.16472,3562.17871 C2799.52799,3569.56156 2798.20965,3576.50485 2798.20965,3583.00879 C2798.20965,3588.10647 2799.0446,3593.4238 2800.71453,3598.96094 L2800.84636,3598.96094 C2804.53779,3598.87305 2815.48006,3594.87406 2833.67351,3586.96387 C2843.25364,3582.65721 2850.10904,3579.2295 2854.23992,3576.68066 C2855.73407,3575.53808 2857.71159,3574.39551 2860.17254,3573.25293 C2864.39131,3571.49511 2867.81901,3570.61621 2870.45574,3570.61621 L2870.98308,3570.61621 C2872.47723,3570.61621 2873.53191,3570.96777 2874.14715,3571.6709 C2874.32293,3572.02246 2874.41082,3572.41797 2874.41082,3572.85742 C2874.05925,3575.49415 2873.88347,3576.98828 2873.88347,3577.33984 L2873.88347,3577.86719 C2873.88347,3578.04297 2873.97136,3578.43847 2874.14715,3579.05371 C2871.15885,3580.45997 2868.12665,3582.39354 2865.05047,3584.85449 C2864.43523,3585.55762 2864.12761,3585.95312 2864.12761,3586.04102 C2864.74285,3586.04102 2866.01725,3585.60157 2867.95086,3584.72266 L2871.90594,3581.82227 C2872.34539,3581.4707 2872.87273,3581.16309 2873.48797,3580.89941 L2873.48797,3581.03125 C2873.40008,3581.20703 2873.35613,3581.51465 2873.35613,3581.9541 C2873.6198,3584.15138 2873.75164,3585.38183 2873.75164,3585.64551 C2873.48797,3587.31544 2871.15889,3589.90819 2866.76433,3593.42383 C2861.84243,3597.11525 2856.5251,3600.32323 2850.81219,3603.04785 C2846.06607,3605.5088 2840.66085,3607.88182 2834.59636,3610.16699 L2834.59636,3608.98047 C2833.10222,3609.77149 2831.34442,3610.43066 2829.32293,3610.95801 C2827.74089,3611.39746 2825.41181,3611.70508 2822.33562,3611.88086 C2819.87467,3612.4961 2817.98504,3613.11133 2816.66668,3613.72656 C2815.52409,3614.60547 2813.85419,3615.30859 2811.65691,3615.83594 C2804.8893,3616.80274 2799.39619,3617.94531 2795.17742,3619.26367 C2795.17742,3619.35156 2795.00164,3619.39551 2794.65008,3619.39551 C2790.34341,3619.39551 2786.91571,3618.209 2784.36687,3615.83594 C2776.45668,3609.68356 2772.50164,3600.19147 2772.50164,3587.35938 C2772.50164,3575.66986 2775.75356,3561.43172 2782.2575,3544.64453 L2781.99383,3544.64453 C2780.3239,3544.64453 2778.87371,3543.15041 2777.64324,3540.16211 C2777.028,3539.01953 2776.32488,3536.91017 2775.53386,3533.83398 L2775.13836,3531.98828 C2775.22625,3530.05468 2775.40203,3528.1211 2775.6657,3526.1875 L2775.6657,3526.05566 C2775.6657,3525.87988 2775.70965,3525.79199 2775.79754,3525.79199 L2775.6657,3525.52832 L2775.6657,3525.26465 C2775.6657,3524.38574 2775.92937,3522.93556 2776.45672,3520.91406 C2776.54461,3519.5957 2776.85222,3518.93652 2777.37957,3518.93652 C2779.40106,3518.1455 2782.78482,3517.17872 2787.53094,3516.03613 C2789.72821,3515.4209 2790.82683,3514.98145 2790.82683,3514.71777 L2790.82683,3514.4541 C2790.82683,3514.19043 2790.2995,3514.05859 2789.2448,3514.05859 L2788.84929,3514.05859 C2788.05827,3514.05859 2786.1247,3514.54199 2783.04851,3515.50879 C2780.32389,3516.21192 2778.69793,3516.56348 2778.17058,3516.56348 C2777.9948,3515.77246 2777.90691,3515.15723 2777.90691,3514.71777 C2778.17058,3513.66308 2778.39031,3513.13574 2778.56609,3513.13574 L2779.22527,3511.81738 C2791.35424,3508.91698 2808.49274,3505.44533 2830.64129,3501.40234 C2837.58468,3500.08398 2843.47329,3499.11719 2848.3073,3498.50195 L2848.3073,3498.37012 C2841.36391,3496.43651 2831.34448,3493.9756 2818.24871,3490.9873 C2814.02994,3489.84472 2810.11884,3488.79004 2806.51531,3487.82324 C2805.54851,3487.91113 2804.71356,3487.95508 2804.01043,3487.95508 L2802.95574,3487.95508 C2797.94595,3487.95508 2794.03486,3485.93361 2791.22234,3481.89062 C2789.55241,3479.166 2788.58562,3476.26564 2788.32195,3473.18945 C2788.32195,3472.48632 2787.70672,3470.20119 2786.47625,3466.33398 C2786.38836,3465.98242 2786.30047,3465.41114 2786.21258,3464.62012 C2786.21258,3463.21386 2787.00358,3462.20313 2788.58562,3461.58789 C2791.7497,3460.18163 2798.56116,3458.51173 2809.02019,3456.57812 C2819.65501,3454.55663 2835.65095,3452.53517 2857.00847,3450.51367 C2870.89526,3449.37109 2882.18909,3448.7998 2890.89031,3448.7998 Z M2829.19109,3458.6875 L2829.19109,3458.81934 C2829.19109,3459.43457 2829.93815,3459.74219 2831.4323,3459.74219 L2831.69597,3459.74219 C2836.61787,3459.30273 2842.4186,3458.77539 2849.09832,3458.16016 C2850.50458,3457.80859 2851.91081,3457.63281 2853.31707,3457.63281 C2853.66863,3457.63281 2854.72331,3457.7207 2856.48113,3457.89648 C2856.83269,3457.80859 2857.00847,3457.63281 2857.00847,3457.36914 C2857.00847,3456.31445 2855.73407,3455.78711 2853.18523,3455.78711 L2851.20769,3455.78711 C2844.52797,3455.78711 2837.67257,3456.40234 2830.64129,3457.63281 C2829.67449,3457.89649 2829.19109,3458.24804 2829.19109,3458.6875 Z M2795.44109,3465.14746 C2795.79266,3466.11426 2796.62761,3466.6416 2797.94597,3466.72949 C2800.23114,3466.72949 2802.56022,3466.20215 2804.93328,3465.14746 C2807.13056,3464.26855 2810.82192,3463.34571 2816.0075,3462.37891 C2820.40205,3461.58789 2823.34636,3460.88477 2824.84051,3460.26953 L2824.84051,3459.61035 C2824.57683,3459.1709 2823.65399,3458.95117 2822.07195,3458.95117 L2821.28094,3458.95117 C2820.6657,3458.95117 2818.5124,3459.39062 2814.82097,3460.26953 C2811.48111,3460.97266 2807.21846,3461.54394 2802.03289,3461.9834 C2800.09928,3462.07129 2798.03388,3462.73046 2795.8366,3463.96094 C2795.57293,3464.40039 2795.44109,3464.7959 2795.44109,3465.14746 Z M2813.50261,3508.25781 C2813.23894,3508.43359 2813.10711,3508.69726 2813.10711,3509.04883 C2813.195,3509.22461 2813.37078,3509.3125 2813.63445,3509.3125 L2813.76629,3509.3125 C2814.02996,3509.3125 2814.16179,3509.18067 2814.16179,3508.91699 L2814.16179,3508.78516 C2814.16179,3508.43359 2813.94207,3508.25781 2813.50261,3508.25781 Z M2808.62469,3510.10352 L2808.62469,3510.23535 C2808.62469,3510.58692 2808.80046,3510.7627 2809.15203,3510.7627 C2809.50359,3510.7627 2809.76726,3510.58692 2809.94304,3510.23535 C2809.85515,3509.7959 2809.67937,3509.57617 2809.4157,3509.57617 L2809.15203,3509.57617 C2808.80046,3509.57617 2808.62469,3509.75195 2808.62469,3510.10352 Z M2803.87859,3511.55371 C2803.87859,3511.81738 2803.96648,3511.99316 2804.14226,3512.08105 L2804.40594,3512.08105 C2804.93328,3512.08105 2805.19695,3511.77344 2805.19695,3511.1582 L2805.19695,3511.02637 C2805.10906,3510.76269 2804.93328,3510.63086 2804.66961,3510.63086 C2804.14226,3510.63086 2803.87859,3510.93847 2803.87859,3511.55371 Z M2795.44109,3514.4541 C2795.44109,3514.71777 2795.70476,3514.9375 2796.23211,3515.11328 L2796.36394,3515.11328 C2797.41864,3515.11328 2798.73698,3514.542 2800.31902,3513.39941 C2800.84637,3512.87207 2801.11004,3512.38867 2801.11004,3511.94922 C2800.84636,3511.42187 2800.58269,3511.1582 2800.31902,3511.1582 C2798.20964,3511.77344 2796.58368,3512.78417 2795.44109,3514.19043 L2795.44109,3514.4541 Z M2815.87566,3533.96582 C2815.96355,3533.96582 2816.13933,3534.05371 2816.40301,3534.22949 C2816.40301,3535.37208 2815.65594,3536.29492 2814.16179,3536.99805 C2813.72234,3537.08594 2813.28289,3537.12988 2812.84344,3537.12988 L2812.7116,3537.12988 C2812.18425,3537.12988 2811.92058,3536.91016 2811.92058,3536.4707 L2811.92058,3536.20703 C2811.92058,3535.32812 2813.01921,3534.58106 2815.21648,3533.96582 L2815.87566,3533.96582 Z M2860.43621,3588.01855 C2861.57879,3587.93066 2862.58952,3587.44727 2863.46844,3586.56836 L2863.46844,3586.43652 C2862.41374,3586.43652 2861.40301,3586.96386 2860.43621,3588.01855 Z M2852.26238,3591.44629 L2852.26238,3591.57812 L2853.31707,3591.57812 C2855.33856,3591.57812 2857.05241,3590.65528 2858.45867,3588.80957 L2857.93133,3588.67773 C2855.55827,3588.67773 2853.66864,3589.60058 2852.26238,3591.44629 Z M2850.54851,3592.63281 L2850.68035,3592.63281 C2851.47137,3592.36914 2851.86687,3592.10547 2851.86687,3591.8418 L2851.73504,3591.8418 C2851.29558,3591.8418 2850.90008,3592.10547 2850.54851,3592.63281 Z" id="mesage"></path>
        </g>
    </g>
</svg>