<?xml version="1.0" encoding="UTF-8"?>
<svg width="1106px" height="372px" viewBox="0 0 1106 372" version="1.1" xmlns="http://www.w3.org/2000/svg" xmlns:xlink="http://www.w3.org/1999/xlink">
    <!-- Generator: Sketch 54.1 (76490) - https://sketchapp.com -->
    <title>esports</title>
    <desc>Created with Sketch.</desc>
    <g id="Page-1" stroke="none" stroke-width="1" fill="none" fill-rule="evenodd">
        <g id="Artboard" transform="translate(-1518.000000, -1288.000000)" fill-rule="nonzero" stroke="#FFFFFF">
            <path d="M1694.85921,1361.85156 C1704.7551,1361.85156 1711.26545,1362.6328 1714.39046,1364.19531 C1722.203,1367.19012 1727.54149,1371.42185 1730.40609,1376.89062 C1731.18734,1378.19271 1731.57796,1379.55989 1731.57796,1380.99219 L1731.57796,1381.38281 C1731.57796,1384.50783 1730.4061,1387.89321 1728.06234,1391.53906 C1723.37482,1393.23178 1718.68736,1394.07812 1713.99984,1394.07812 C1690.95285,1398.37502 1671.22648,1402.60675 1654.82015,1406.77344 C1652.34618,1407.55469 1647.91914,1408.46614 1641.5389,1409.50781 C1637.63263,1409.89844 1634.57277,1410.09375 1632.35921,1410.09375 L1634.11703,1411.65625 C1634.11703,1411.78646 1631.90351,1412.11198 1627.4764,1412.63281 C1616.27843,1413.41407 1608.4009,1414.32552 1603.84359,1415.36719 C1603.71338,1415.4974 1602.34621,1415.82291 1599.74203,1416.34375 L1599.74203,1416.53906 C1614.45564,1421.87763 1630.99194,1427.41143 1649.3514,1433.14062 L1661.46078,1437.24219 C1665.62746,1438.02344 1668.68733,1438.93489 1670.64046,1439.97656 C1671.42172,1440.23698 1671.94255,1440.6276 1672.20296,1441.14844 C1672.7238,1441.92969 1672.98421,1443.75259 1672.98421,1446.61719 C1674.80714,1452.21617 1675.71859,1455.92707 1675.71859,1457.75 L1675.71859,1460.48438 C1675.71859,1461.65626 1675.45818,1462.24219 1674.93734,1462.24219 C1670.90086,1464.71616 1664.91134,1467.3854 1656.96859,1470.25 C1651.76023,1471.81251 1648.24464,1472.59375 1646.42171,1472.59375 C1622.20284,1476.2396 1601.76034,1480.40623 1585.09359,1485.09375 C1579.62481,1486.65626 1574.54674,1488.15364 1569.85921,1489.58594 C1569.85921,1489.71615 1570.77066,1490.49739 1572.59359,1491.92969 C1569.8592,1493.88282 1567.58058,1495.77082 1565.75765,1497.59375 C1565.36703,1497.98438 1564.19516,1500.1979 1562.24203,1504.23438 C1560.02847,1507.4896 1558.40089,1511.39581 1557.35921,1515.95312 L1555.6014,1521.22656 C1555.08057,1524.22137 1554.62484,1528.12758 1554.23421,1532.94531 C1554.10401,1533.59636 1553.9087,1533.92188 1553.64828,1533.92188 C1552.60661,1533.92188 1551.89047,1535.28905 1551.49984,1538.02344 C1549.67691,1544.7943 1548.76546,1549.35155 1548.76546,1551.69531 C1547.33317,1560.1589 1546.61703,1565.49738 1546.61703,1567.71094 L1546.61703,1568.10156 C1546.61703,1571.74741 1547.39827,1574.54687 1548.96078,1576.5 C1549.87224,1578.06251 1551.23941,1579.6901 1553.06234,1581.38281 L1551.69515,1574.15625 C1551.56494,1573.24479 1551.49984,1572.00782 1551.49984,1570.44531 L1551.49984,1569.46875 C1551.49984,1568.42708 1551.63005,1566.47397 1551.89046,1563.60938 C1551.89046,1562.5677 1551.56495,1560.94012 1550.9139,1558.72656 C1550.9139,1558.07552 1551.56494,1556.77345 1552.86703,1554.82031 C1554.42953,1551.82551 1555.21078,1549.09116 1555.21078,1546.61719 L1555.21078,1545.64062 L1554.82015,1540.36719 C1554.82015,1532.29423 1557.35919,1522.26829 1562.43734,1510.28906 C1564.65089,1505.47133 1567.45034,1501.36981 1570.83578,1497.98438 C1571.2264,1497.72396 1571.68213,1496.6172 1572.20296,1494.66406 C1572.59359,1493.88281 1573.24463,1493.49219 1574.15609,1493.49219 C1576.49985,1493.75261 1577.67171,1494.79426 1577.67171,1496.61719 C1577.67171,1497.39844 1576.36964,1500.45831 1573.76546,1505.79688 C1569.72899,1514.00004 1566.2785,1522.00777 1563.4139,1529.82031 C1559.50763,1540.75787 1557.55453,1551.04422 1557.55453,1560.67969 C1557.55453,1568.23181 1558.79149,1576.10933 1561.26546,1584.3125 L1561.46078,1584.3125 C1566.92955,1584.18229 1583.14033,1578.25787 1610.09359,1566.53906 C1624.28637,1560.15882 1634.44252,1555.08075 1640.56234,1551.30469 C1642.77589,1549.61197 1645.70555,1547.91928 1649.3514,1546.22656 C1655.60143,1543.62238 1660.67951,1542.32031 1664.58578,1542.32031 L1665.36703,1542.32031 C1667.58058,1542.32031 1669.14306,1542.84114 1670.05453,1543.88281 C1670.31495,1544.40365 1670.44515,1544.98958 1670.44515,1545.64062 C1669.92432,1549.54689 1669.6639,1551.76041 1669.6639,1552.28125 L1669.6639,1553.0625 C1669.6639,1553.32292 1669.79411,1553.90885 1670.05453,1554.82031 C1665.62742,1556.90366 1661.13528,1559.76821 1656.57796,1563.41406 C1655.6665,1564.45573 1655.21078,1565.04167 1655.21078,1565.17188 C1656.12224,1565.17188 1658.01024,1564.52084 1660.87484,1563.21875 L1666.73421,1558.92188 C1667.38526,1558.40104 1668.1665,1557.94531 1669.07796,1557.55469 L1669.07796,1557.75 C1668.94776,1558.01042 1668.88265,1558.46614 1668.88265,1559.11719 C1669.27328,1562.37241 1669.46859,1564.19531 1669.46859,1564.58594 C1669.07796,1567.05991 1665.62748,1570.90102 1659.11703,1576.10938 C1651.82532,1581.57815 1643.9478,1586.33071 1635.48421,1590.36719 C1628.45293,1594.01304 1620.4452,1597.52863 1611.46078,1600.91406 L1611.46078,1599.15625 C1609.24722,1600.32813 1606.64308,1601.30468 1603.64828,1602.08594 C1601.30452,1602.73698 1597.85403,1603.19271 1593.29671,1603.45312 C1589.65086,1604.36459 1586.85141,1605.27604 1584.89828,1606.1875 C1583.20556,1607.48959 1580.73163,1608.53125 1577.4764,1609.3125 C1567.45031,1610.7448 1559.31237,1612.43749 1553.06234,1614.39062 C1553.06234,1614.52083 1552.80193,1614.58594 1552.28109,1614.58594 C1545.90085,1614.58594 1540.82278,1612.82814 1537.04671,1609.3125 C1525.32791,1600.19787 1519.46859,1586.13551 1519.46859,1567.125 C1519.46859,1549.80721 1524.28625,1528.71367 1533.92171,1503.84375 L1533.53109,1503.84375 C1531.05712,1503.84375 1528.9087,1501.63023 1527.08578,1497.20312 C1526.17431,1495.51041 1525.13266,1492.38544 1523.96078,1487.82812 L1523.37484,1485.09375 C1523.50505,1482.22915 1523.76546,1479.3646 1524.15609,1476.5 L1524.15609,1476.30469 C1524.15609,1476.04427 1524.22119,1475.91406 1524.3514,1475.91406 L1524.15609,1475.52344 L1524.15609,1475.13281 C1524.15609,1473.83072 1524.54671,1471.68231 1525.32796,1468.6875 C1525.45817,1466.73437 1525.9139,1465.75781 1526.69515,1465.75781 C1529.68996,1464.58593 1534.70293,1463.15365 1541.73421,1461.46094 C1544.98944,1460.54947 1546.61703,1459.89844 1546.61703,1459.50781 L1546.61703,1459.11719 C1546.61703,1458.72656 1545.83578,1458.53125 1544.27328,1458.53125 L1543.68734,1458.53125 C1542.51546,1458.53125 1539.6509,1459.24739 1535.09359,1460.67969 C1531.05711,1461.72136 1528.64828,1462.24219 1527.86703,1462.24219 C1527.60661,1461.07031 1527.4764,1460.15886 1527.4764,1459.50781 C1527.86703,1457.9453 1528.19255,1457.16406 1528.45296,1457.16406 L1529.42953,1455.21094 C1547.39837,1450.91404 1572.78874,1445.77086 1605.6014,1439.78125 C1615.88791,1437.82812 1624.61178,1436.39584 1631.77328,1435.48438 L1631.77328,1435.28906 C1621.48677,1432.42446 1606.64317,1428.77867 1587.24203,1424.35156 C1580.992,1422.65885 1575.19778,1421.09636 1569.85921,1419.66406 C1568.42692,1419.79427 1567.18995,1419.85938 1566.14828,1419.85938 L1564.58578,1419.85938 C1557.16386,1419.85938 1551.36965,1416.86461 1547.20296,1410.875 C1544.72899,1406.83852 1543.29672,1402.54169 1542.90609,1397.98438 C1542.90609,1396.9427 1541.99464,1393.55732 1540.17171,1387.82812 C1540.04151,1387.30729 1539.9113,1386.46094 1539.78109,1385.28906 C1539.78109,1383.20572 1540.95295,1381.70834 1543.29671,1380.79688 C1547.98424,1378.71353 1558.07528,1376.2396 1573.57015,1373.375 C1589.32544,1370.38019 1613.02312,1367.38543 1644.6639,1364.39062 C1665.23692,1362.69791 1681.96853,1361.85156 1694.85921,1361.85156 Z M1603.45296,1376.5 L1603.45296,1376.69531 C1603.45296,1377.60678 1604.55972,1378.0625 1606.77328,1378.0625 L1607.1639,1378.0625 C1614.45561,1377.41146 1623.04927,1376.63021 1632.94515,1375.71875 C1635.0285,1375.19791 1637.11181,1374.9375 1639.19515,1374.9375 C1639.71599,1374.9375 1641.27847,1375.06771 1643.88265,1375.32812 C1644.40349,1375.19792 1644.6639,1374.9375 1644.6639,1374.54688 C1644.6639,1372.98437 1642.7759,1372.20312 1638.99984,1372.20312 L1636.07015,1372.20312 C1626.17427,1372.20312 1616.01812,1373.11457 1605.6014,1374.9375 C1604.1691,1375.32813 1603.45296,1375.84896 1603.45296,1376.5 Z M1553.45296,1386.07031 C1553.9738,1387.50261 1555.21077,1388.28385 1557.1639,1388.41406 C1560.54934,1388.41406 1563.99982,1387.63282 1567.51546,1386.07031 C1570.77069,1384.76822 1576.23938,1383.40105 1583.92171,1381.96875 C1590.43216,1380.79687 1594.7941,1379.75521 1597.00765,1378.84375 L1597.00765,1377.86719 C1596.61703,1377.21614 1595.24985,1376.89062 1592.90609,1376.89062 L1591.73421,1376.89062 C1590.82275,1376.89062 1587.63268,1377.54166 1582.1639,1378.84375 C1577.21596,1379.88542 1570.90092,1380.73177 1563.21859,1381.38281 C1560.35399,1381.51302 1557.29413,1382.48957 1554.0389,1384.3125 C1553.64828,1384.96354 1553.45296,1385.54948 1553.45296,1386.07031 Z M1580.21078,1449.9375 C1579.82015,1450.19792 1579.62484,1450.58854 1579.62484,1451.10938 C1579.75505,1451.36979 1580.01546,1451.5 1580.40609,1451.5 L1580.6014,1451.5 C1580.99203,1451.5 1581.18734,1451.30469 1581.18734,1450.91406 L1581.18734,1450.71875 C1581.18734,1450.19791 1580.86182,1449.9375 1580.21078,1449.9375 Z M1572.98421,1452.67188 L1572.98421,1452.86719 C1572.98421,1453.38802 1573.24463,1453.64844 1573.76546,1453.64844 C1574.2863,1453.64844 1574.67692,1453.38802 1574.93734,1452.86719 C1574.80713,1452.21614 1574.54672,1451.89062 1574.15609,1451.89062 L1573.76546,1451.89062 C1573.24463,1451.89062 1572.98421,1452.15104 1572.98421,1452.67188 Z M1565.95296,1454.82031 C1565.95296,1455.21094 1566.08317,1455.47135 1566.34359,1455.60156 L1566.73421,1455.60156 C1567.51547,1455.60156 1567.90609,1455.14584 1567.90609,1454.23438 L1567.90609,1454.03906 C1567.77588,1453.64844 1567.51547,1453.45312 1567.12484,1453.45312 C1566.34359,1453.45312 1565.95296,1453.90885 1565.95296,1454.82031 Z M1553.45296,1459.11719 C1553.45296,1459.50781 1553.84359,1459.83333 1554.62484,1460.09375 L1554.82015,1460.09375 C1556.38266,1460.09375 1558.33577,1459.2474 1560.67953,1457.55469 C1561.46078,1456.77343 1561.8514,1456.05729 1561.8514,1455.40625 C1561.46078,1454.625 1561.07015,1454.23438 1560.67953,1454.23438 C1557.55451,1455.14584 1555.14568,1456.64322 1553.45296,1458.72656 L1553.45296,1459.11719 Z M1583.7264,1488.02344 C1583.85661,1488.02344 1584.11703,1488.15364 1584.50765,1488.41406 C1584.50765,1490.10678 1583.40089,1491.47395 1581.18734,1492.51562 C1580.53629,1492.64583 1579.88526,1492.71094 1579.23421,1492.71094 L1579.0389,1492.71094 C1578.25765,1492.71094 1577.86703,1492.38542 1577.86703,1491.73438 L1577.86703,1491.34375 C1577.86703,1490.04166 1579.49461,1488.9349 1582.74984,1488.02344 L1583.7264,1488.02344 Z M1649.74203,1568.10156 C1651.43474,1567.97135 1652.93212,1567.25521 1654.23421,1565.95312 L1654.23421,1565.75781 C1652.67171,1565.75781 1651.17433,1566.53905 1649.74203,1568.10156 Z M1637.63265,1573.17969 L1637.63265,1573.375 L1639.19515,1573.375 C1642.18996,1573.375 1644.729,1572.00783 1646.81234,1569.27344 L1646.03109,1569.07812 C1642.51545,1569.07812 1639.716,1570.4453 1637.63265,1573.17969 Z M1635.09359,1574.9375 L1635.2889,1574.9375 C1636.46078,1574.54687 1637.04671,1574.15625 1637.04671,1573.76562 L1636.8514,1573.76562 C1636.20036,1573.76562 1635.61443,1574.15625 1635.09359,1574.9375 Z M1849.6539,1329.23438 C1860.20083,1329.88542 1865.47422,1330.40625 1865.47422,1330.79688 C1867.55756,1331.44792 1869.25025,1332.74999 1870.55234,1334.70312 C1872.76589,1337.82814 1873.87265,1342.45049 1873.87265,1348.57031 C1873.87265,1352.737 1873.41693,1357.03383 1872.50547,1361.46094 C1868.46899,1370.96619 1865.21381,1379.16924 1862.73984,1386.07031 C1859.2242,1396.61724 1855.77371,1408.53118 1852.38828,1421.8125 C1851.99765,1426.1094 1851.47682,1429.03905 1850.82578,1430.60156 C1849.13306,1433.46616 1846.98465,1434.89844 1844.38047,1434.89844 C1844.12005,1434.89844 1843.46901,1434.76823 1842.42734,1434.50781 C1842.03671,1434.63802 1841.7763,1434.70312 1841.64609,1434.70312 L1846.33359,1407.16406 L1846.33359,1406.96875 C1844.38046,1412.82815 1842.03673,1421.87754 1839.30234,1434.11719 L1839.10703,1434.3125 C1834.54971,1434.3125 1831.42475,1432.4245 1829.73203,1428.64844 C1828.82057,1427.34635 1827.84401,1426.10938 1826.80234,1424.9375 C1825.76067,1422.72395 1825.23984,1418.36201 1825.23984,1411.85156 C1825.23984,1402.86714 1826.02108,1391.66934 1827.58359,1378.25781 C1815.21374,1386.33077 1803.95083,1394.3385 1793.79453,1402.28125 C1785.72157,1408.40107 1775.23991,1417.45046 1762.34922,1429.42969 L1761.56797,1429.23438 L1760.78672,1429.23438 C1760.39609,1429.23438 1760.07057,1429.49479 1759.81015,1430.01562 L1760.00547,1431.57812 C1756.35961,1434.96356 1752.12789,1439.06508 1747.31015,1443.88281 C1752.64872,1449.09117 1756.55493,1452.41145 1759.0289,1453.84375 C1764.10705,1456.70835 1768.5992,1459.5729 1772.50547,1462.4375 C1776.41174,1465.17189 1781.16429,1468.81769 1786.76328,1473.375 C1795.09665,1480.27608 1799.6539,1484.11718 1800.43515,1484.89844 C1801.60703,1487.2422 1804.21117,1490.75779 1808.24765,1495.44531 C1809.15912,1496.35678 1811.30753,1499.02602 1814.69297,1503.45312 C1816.51589,1505.40626 1818.33879,1508.20571 1820.16172,1511.85156 C1820.29192,1511.85156 1820.87786,1512.82812 1821.91953,1514.78125 L1822.11484,1514.78125 C1818.33878,1506.8385 1816.45078,1502.80208 1816.45078,1502.67188 C1819.706,1507.09898 1822.17994,1511.07029 1823.87265,1514.58594 C1828.82059,1524.61203 1831.29453,1534.31245 1831.29453,1543.6875 L1831.29453,1546.61719 L1831.09922,1546.61719 C1830.96901,1546.09635 1830.64349,1545.44532 1830.12265,1544.66406 C1830.12265,1545.1849 1829.47162,1546.09635 1828.16953,1547.39844 C1827.7789,1547.39844 1827.25807,1549.28644 1826.60703,1553.0625 C1826.2164,1554.36459 1826.02109,1556.51301 1826.02109,1559.50781 C1825.50025,1564.32554 1824.91432,1567.58072 1824.26328,1569.27344 C1824.00286,1570.70574 1823.87265,1572.59374 1823.87265,1574.9375 C1823.61224,1576.23959 1822.57058,1577.93228 1820.74765,1580.01562 C1820.35703,1581.31771 1818.14351,1584.37758 1814.10703,1589.19531 L1814.69297,1589.78125 C1809.22419,1594.8594 1804.34142,1598.89582 1800.04453,1601.89062 C1789.23718,1609.83337 1781.62007,1614.19531 1777.19297,1614.97656 C1774.58879,1615.4974 1772.76589,1615.75781 1771.72422,1615.75781 L1770.94297,1613.41406 C1769.64088,1614.06511 1768.53412,1614.45573 1767.62265,1614.58594 L1767.23203,1615.36719 C1768.40391,1615.62761 1769.51067,1615.75781 1770.55234,1615.75781 L1770.55234,1615.95312 C1770.16171,1615.95312 1767.68778,1617.19009 1763.13047,1619.66406 C1762.08879,1620.44532 1757.40134,1621.9427 1749.06797,1624.15625 C1744.25023,1625.19792 1740.34402,1625.71875 1737.34922,1625.71875 L1736.76328,1625.71875 C1735.20077,1625.71875 1733.70339,1625.52344 1732.27109,1625.13281 C1729.79712,1625.52344 1727.6487,1625.71875 1725.82578,1625.71875 L1725.43515,1625.71875 C1716.45073,1625.71875 1709.09404,1619.07819 1703.36484,1605.79688 C1702.06275,1602.02081 1700.89089,1598.0495 1699.84922,1593.88281 C1698.67733,1588.15362 1698.0914,1584.1172 1698.0914,1581.77344 L1698.28672,1581.77344 C1702.58361,1584.63804 1707.79189,1586.07031 1713.91172,1586.07031 C1724.45864,1586.07031 1736.76321,1582.22921 1750.82578,1574.54688 C1754.86226,1572.33332 1759.3544,1569.40366 1764.30234,1565.75781 C1771.20342,1560.02862 1777.32315,1554.62503 1782.66172,1549.54688 C1782.66172,1549.41667 1783.44296,1548.50522 1785.00547,1546.8125 C1789.43257,1541.86456 1792.36223,1537.30731 1793.79453,1533.14062 C1794.70599,1530.79686 1795.16172,1528.25783 1795.16172,1525.52344 C1795.03151,1524.35156 1794.9664,1523.50521 1794.9664,1522.98438 C1792.36222,1518.42706 1790.60443,1515.56251 1789.69297,1514.39062 C1786.04711,1511.26561 1782.33621,1508.66147 1778.56015,1506.57812 C1776.3466,1505.27604 1768.33887,1500.58858 1754.53672,1492.51562 C1748.15648,1488.60936 1742.62268,1484.83335 1737.93515,1481.1875 C1728.4299,1473.76559 1723.15651,1467.51565 1722.11484,1462.4375 L1721.5289,1458.72656 C1717.49242,1455.21092 1714.95339,1452.47657 1713.91172,1450.52344 C1711.95858,1447.52863 1710.98203,1444.01304 1710.98203,1439.97656 C1710.98203,1428.38796 1712.3492,1420.05471 1715.08359,1414.97656 C1716.90652,1410.41925 1720.94293,1404.69014 1727.19297,1397.78906 C1730.18777,1394.53384 1732.72681,1392.12501 1734.81015,1390.5625 C1744.31541,1383.2708 1754.34135,1376.50003 1764.88828,1370.25 C1779.99252,1360.87495 1794.05488,1353.12763 1807.07578,1347.00781 C1812.02372,1344.79426 1816.64607,1342.97136 1820.94297,1341.53906 C1824.45861,1340.49739 1827.9742,1339.97656 1831.48984,1339.97656 C1833.70339,1339.97656 1836.11222,1340.17187 1838.7164,1340.5625 C1839.10703,1338.08853 1839.75807,1335.87501 1840.66953,1333.92188 C1841.7112,1331.96874 1843.14348,1330.66667 1844.9664,1330.01562 C1846.52891,1329.49479 1848.0914,1329.23438 1849.6539,1329.23438 Z M1795.74765,1359.11719 C1795.87786,1360.02865 1796.26848,1360.48438 1796.91953,1360.48438 C1802.90914,1357.8802 1806.55494,1355.79688 1807.85703,1354.23438 L1808.05234,1354.03906 C1807.5315,1353.51823 1807.20599,1353.25781 1807.07578,1353.25781 C1802.64867,1354.5599 1798.87267,1356.51301 1795.74765,1359.11719 Z M1790.86484,1361.26562 L1792.23203,1360.67969 L1792.23203,1360.28906 C1792.23203,1360.15885 1792.10182,1360.09375 1791.8414,1360.09375 C1791.32057,1360.09375 1790.99505,1360.48437 1790.86484,1361.26562 Z M1729.3414,1410.67969 C1730.90391,1410.67969 1732.40129,1409.96355 1733.83359,1408.53125 C1734.09401,1408.27083 1735.33098,1406.64324 1737.54453,1403.64844 C1745.8779,1395.44527 1752.51846,1389.45575 1757.4664,1385.67969 C1763.58623,1380.86196 1768.85961,1377.08595 1773.28672,1374.35156 C1777.06278,1372.39843 1782.14085,1368.68753 1788.52109,1363.21875 L1790.08359,1361.65625 L1789.30234,1361.65625 C1787.47941,1361.65625 1785.52631,1362.5677 1783.44297,1364.39062 C1773.67729,1370.11982 1763.97687,1376.69528 1754.3414,1384.11719 C1752.38827,1385.94011 1750.50027,1387.69791 1748.67734,1389.39062 C1745.81274,1391.60418 1743.27371,1393.75259 1741.06015,1395.83594 C1737.02367,1399.74221 1734.09402,1402.99738 1732.27109,1405.60156 C1730.18775,1408.72658 1729.14609,1410.41927 1729.14609,1410.67969 L1729.3414,1410.67969 Z M1844.18515,1430.79688 C1846.13829,1430.66667 1847.11484,1430.53646 1847.11484,1430.40625 C1847.11484,1430.27604 1847.31015,1429.4948 1847.70078,1428.0625 L1847.31015,1427.86719 C1847.04974,1427.86719 1846.07318,1428.71353 1844.38047,1430.40625 C1844.38047,1430.40625 1844.31536,1430.53646 1844.18515,1430.79688 Z M1778.36484,1479.82031 C1782.01069,1482.81512 1785.33097,1484.57291 1788.32578,1485.09375 C1787.02369,1482.8802 1784.81017,1481.31771 1781.68515,1480.40625 C1780.12265,1480.01562 1779.01589,1479.82031 1778.36484,1479.82031 Z M1788.91172,1485.48438 C1788.91172,1486.65626 1789.62785,1487.69791 1791.06015,1488.60938 C1797.04977,1494.33857 1800.50025,1497.98437 1801.41172,1499.54688 C1804.92736,1503.71356 1807.85702,1507.81508 1810.20078,1511.85156 C1812.54454,1516.27867 1814.10702,1518.81771 1814.88828,1519.46875 C1815.40911,1519.98959 1816.25546,1520.38021 1817.42734,1520.64062 C1817.42734,1519.46874 1816.97162,1518.03647 1816.06015,1516.34375 C1813.19556,1510.74476 1809.09403,1504.75524 1803.75547,1498.375 C1798.4169,1492.38539 1794.706,1488.73959 1792.62265,1487.4375 C1791.8414,1486.91666 1790.60443,1486.26563 1788.91172,1485.48438 Z M1789.88828,1597.78906 C1789.88828,1598.70053 1790.344,1599.28646 1791.25547,1599.54688 C1791.64609,1599.80729 1791.97161,1599.9375 1792.23203,1599.9375 C1797.04976,1597.59374 1801.99763,1594.53387 1807.07578,1590.75781 C1813.97685,1585.15883 1818.5341,1579.49482 1820.74765,1573.76562 C1820.22682,1573.24479 1819.64089,1572.72396 1818.98984,1572.20312 L1818.79453,1572.20312 C1815.27889,1575.97919 1810.0055,1581.38278 1802.97422,1588.41406 C1800.89087,1590.62762 1798.35183,1592.51562 1795.35703,1594.07812 C1793.27368,1595.38021 1791.51589,1596.55208 1790.08359,1597.59375 L1789.88828,1597.78906 Z M1914.99547,1345.25 C1916.55797,1345.25 1922.67771,1346.03124 1933.35484,1347.59375 C1947.80804,1349.41668 1959.85219,1351.49999 1969.48765,1353.84375 C1980.55542,1356.70835 1989.5397,1359.83332 1996.44078,1363.21875 C2015.06066,1372.33338 2024.37047,1384.89836 2024.37047,1400.91406 C2024.37047,1408.98702 2022.09184,1417.8411 2017.53453,1427.47656 C2014.66993,1432.81513 2010.89393,1438.67445 2006.2064,1445.05469 C2001.7793,1451.0443 1995.91998,1457.94527 1988.62828,1465.75781 C1980.81574,1474.09119 1974.5007,1480.40623 1969.68297,1484.70312 L1963.82359,1489.78125 C1968.2507,1484.44268 1970.72463,1481.64323 1971.24547,1481.38281 C1975.93299,1477.47654 1979.05796,1474.35157 1980.62047,1472.00781 C1981.53193,1470.4453 1983.68035,1467.64585 1987.06578,1463.60938 C1989.80017,1459.83331 1992.01369,1456.05731 1993.7064,1452.28125 C1995.39912,1450.45832 1997.22202,1446.94273 1999.17515,1441.73438 C2000.60745,1437.43748 2002.16994,1433.79168 2003.86265,1430.79688 C2004.90433,1428.97395 2005.94598,1426.2396 2006.98765,1422.59375 C2007.50849,1420.64062 2007.7689,1419.40365 2007.7689,1418.88281 L2007.7689,1418.6875 L2007.57359,1418.6875 C2007.05276,1418.6875 2006.53193,1418.6224 2006.01109,1418.49219 C2005.62046,1418.49219 2005.36005,1418.7526 2005.22984,1419.27344 C2004.70901,1421.48699 2004.25328,1423.4401 2003.86265,1425.13281 C1998.6543,1435.80995 1991.68822,1448.50513 1982.96422,1463.21875 C1982.05275,1464.91147 1981.20641,1465.75781 1980.42515,1465.75781 C1977.16993,1467.19011 1974.696,1469.40363 1973.00328,1472.39844 C1971.05014,1475.00262 1968.70642,1477.67186 1965.97203,1480.40625 C1963.62827,1482.48959 1961.87047,1483.79166 1960.69859,1484.3125 C1958.48504,1486.00522 1956.98766,1488.34894 1956.2064,1491.34375 C1956.0762,1492.77605 1955.94599,1493.49219 1955.81578,1493.49219 C1953.08139,1494.40365 1951.19339,1495.90103 1950.15172,1497.98438 C1949.76109,1498.63542 1949.56578,1499.02604 1949.56578,1499.15625 C1949.56578,1499.41667 1949.82619,1500.0026 1950.34703,1500.91406 C1942.53449,1506.77347 1935.50331,1511.59113 1929.25328,1515.36719 C1928.34182,1514.71614 1927.75588,1514.39062 1927.49547,1514.39062 L1927.30015,1514.39062 C1926.64911,1514.39062 1925.15173,1515.88801 1922.80797,1518.88281 C1921.8965,1519.92448 1918.51112,1521.35676 1912.65172,1523.17969 C1903.40688,1526.17449 1896.4408,1527.67188 1891.75328,1527.67188 C1890.06056,1527.67188 1888.49808,1527.41146 1887.06578,1526.89062 L1886.47984,1526.89062 C1886.21942,1526.89062 1886.08922,1527.60676 1886.08922,1529.03906 C1886.08922,1529.29948 1885.50329,1530.08072 1884.3314,1531.38281 L1884.3314,1531.77344 L1884.52672,1533.33594 C1884.52672,1533.59636 1884.00589,1535.54946 1882.96422,1539.19531 C1880.62046,1544.7943 1879.44859,1549.02603 1879.44859,1551.89062 C1878.27671,1552.67188 1877.69078,1554.69009 1877.69078,1557.94531 C1877.69078,1558.72657 1877.03974,1560.87498 1875.73765,1564.39062 C1875.08661,1567.38543 1874.50068,1572.07288 1873.97984,1578.45312 C1873.97984,1578.58333 1873.91474,1579.03906 1873.78453,1579.82031 C1873.91474,1580.99219 1873.97984,1581.77344 1873.97984,1582.16406 C1873.97984,1583.33594 1873.58922,1585.87498 1872.80797,1589.78125 L1872.80797,1589.97656 L1873.00328,1589.97656 C1874.95641,1581.64319 1875.93297,1576.82553 1875.93297,1575.52344 L1875.93297,1574.54688 C1876.4538,1569.20831 1877.23505,1564.84637 1878.27672,1561.46094 C1879.4486,1558.20571 1880.09963,1556.51302 1880.22984,1556.38281 C1880.49026,1557.42448 1880.62047,1558.14062 1880.62047,1558.53125 C1880.62047,1558.92188 1880.55536,1559.89843 1880.42515,1561.46094 C1880.42515,1561.85156 1880.81578,1562.37239 1881.59703,1563.02344 C1877.82097,1582.42458 1875.93297,1596.42183 1875.93297,1605.01562 C1875.93297,1607.4896 1876.4538,1611.00519 1877.49547,1615.5625 C1877.88609,1618.03647 1878.0814,1620.05468 1878.0814,1621.61719 L1878.0814,1622.39844 C1878.0814,1625.39324 1877.16996,1627.80207 1875.34703,1629.625 C1874.9564,1630.40625 1873.84964,1630.79688 1872.02672,1630.79688 L1871.44078,1630.79688 C1867.27409,1630.79688 1862.45643,1629.23439 1856.98765,1626.10938 C1855.29494,1625.19791 1853.21163,1623.44012 1850.73765,1620.83594 C1845.26888,1614.71612 1842.53453,1607.16411 1842.53453,1598.17969 L1842.53453,1596.42188 C1842.53453,1575.97906 1848.58916,1540.04192 1860.69859,1488.60938 C1873.45907,1435.3539 1879.83922,1408.27084 1879.83922,1407.35938 C1880.75068,1403.19269 1881.85744,1397.59379 1883.15953,1390.5625 C1883.81057,1388.21874 1884.46161,1383.98701 1885.11265,1377.86719 L1885.50328,1369.85938 L1885.69859,1369.85938 C1886.47985,1372.07293 1887.19598,1373.57031 1887.84703,1374.35156 L1887.84703,1373.375 C1887.84703,1371.81249 1889.47462,1366.92973 1892.72984,1358.72656 C1893.25068,1357.03385 1894.03192,1354.75522 1895.07359,1351.89062 L1895.2689,1351.10938 C1895.2689,1350.84896 1894.87828,1350.26303 1894.09703,1349.35156 C1894.09703,1349.22135 1893.77151,1348.44011 1893.12047,1347.00781 C1895.46423,1346.61719 1897.15692,1346.42188 1898.19859,1346.42188 L1898.97984,1346.42188 C1900.54235,1346.42188 1901.32359,1346.8125 1901.32359,1347.59375 C1900.28192,1350.84897 1899.43557,1355.14581 1898.78453,1360.48438 C1896.9616,1369.33859 1892.33925,1387.95819 1884.91734,1416.34375 C1877.88606,1443.29701 1873.1986,1461.91662 1870.85484,1472.20312 C1870.2038,1475.71877 1869.87828,1477.67187 1869.87828,1478.0625 C1869.87828,1478.58334 1870.52931,1478.90885 1871.8314,1479.03906 C1872.87308,1478.1276 1874.50066,1474.09118 1876.71422,1466.92969 C1884.39655,1439.97643 1892.33918,1407.03405 1900.54234,1368.10156 C1901.84443,1360.94007 1903.1465,1356.18751 1904.44859,1353.84375 C1905.62047,1351.10936 1907.05275,1348.96095 1908.74547,1347.39844 C1910.30797,1345.96614 1912.39129,1345.25 1914.99547,1345.25 Z M1921.24547,1385.67969 C1921.7663,1387.89324 1922.02672,1392.84111 1922.02672,1400.52344 C1922.02672,1405.21096 1917.66478,1424.67691 1908.94078,1458.92188 C1905.94597,1470.38027 1903.08142,1480.92704 1900.34703,1490.5625 C1910.24291,1483.79163 1919.48761,1477.15107 1928.0814,1470.64062 C1960.76386,1445.6405 1977.10484,1426.17455 1977.10484,1412.24219 L1977.10484,1411.46094 C1977.10484,1402.60673 1970.00856,1395.83596 1955.81578,1391.14844 C1951.64909,1389.84635 1945.72467,1388.60938 1938.04234,1387.4375 C1933.87565,1386.78646 1928.27675,1386.20052 1921.24547,1385.67969 Z M2014.21422,1394.27344 C2014.99547,1400.00263 2015.38609,1402.99739 2015.38609,1403.25781 C2015.90693,1401.17447 2016.16734,1399.54688 2016.16734,1398.375 C2016.16734,1397.46354 2015.58141,1396.22657 2014.40953,1394.66406 C2014.40953,1394.40364 2014.34443,1394.27344 2014.21422,1394.27344 Z M2014.40953,1407.16406 C2014.40953,1407.42448 2014.60484,1407.55469 2014.99547,1407.55469 C2015.38609,1407.55469 2015.5814,1407.35938 2015.5814,1406.96875 C2015.5814,1406.1875 2015.4512,1405.40625 2015.19078,1404.625 C2014.93036,1404.625 2014.66995,1405.47135 2014.40953,1407.16406 Z M2012.65172,1418.6875 C2012.65172,1419.07813 2012.58661,1419.40364 2012.4564,1419.66406 L2012.84703,1418.88281 L2012.84703,1418.6875 L2012.65172,1418.6875 Z M2005.81578,1436.85156 C2006.72724,1436.85156 2008.15952,1434.50784 2010.11265,1429.82031 C2011.15433,1427.08592 2011.67515,1424.35158 2011.67515,1421.61719 C2011.15432,1422.13802 2010.30797,1424.35154 2009.13609,1428.25781 C2007.96421,1431.25262 2006.85745,1434.11717 2005.81578,1436.85156 Z M1996.05015,1452.08594 L1996.05015,1452.28125 L1996.44078,1452.47656 L1996.63609,1452.47656 L1996.63609,1452.08594 L1996.05015,1452.08594 Z M1871.63609,1483.72656 C1870.07358,1487.24221 1869.29234,1490.04166 1869.29234,1492.125 C1869.03192,1493.16667 1868.90172,1494.79426 1868.90172,1497.00781 C1869.16213,1497.13802 1869.35745,1497.20312 1869.48765,1497.20312 C1869.48765,1496.94271 1870.07359,1494.53388 1871.24547,1489.97656 C1871.63609,1488.54426 1871.8314,1486.91668 1871.8314,1485.09375 L1871.8314,1483.72656 L1871.63609,1483.72656 Z M1958.55015,1494.27344 L1957.18297,1495.44531 L1957.18297,1495.25 C1957.18297,1494.72916 1957.63869,1494.40365 1958.55015,1494.27344 Z M2099.08703,1388.41406 C2112.88918,1388.41406 2126.36561,1393.36193 2139.51672,1403.25781 C2142.1209,1403.77865 2144.79014,1405.08072 2147.52453,1407.16406 C2149.21725,1408.46615 2150.84484,1410.09374 2152.40734,1412.04688 C2154.36048,1414.91147 2155.85786,1417.45051 2156.89953,1419.66406 C2158.72246,1423.17971 2160.48025,1428.51819 2162.17297,1435.67969 C2164.38652,1445.9662 2165.49328,1456.44786 2165.49328,1467.125 L2165.49328,1471.42188 C2165.49328,1488.47925 2163.21466,1505.21086 2158.65734,1521.61719 C2156.574,1527.86722 2154.23027,1533.40102 2151.62609,1538.21875 C2149.28233,1542.38544 2146.28757,1546.81248 2142.64172,1551.5 C2138.21461,1556.57815 2134.04799,1560.61457 2130.14172,1563.60938 C2117.12082,1573.63547 2103.8397,1578.64844 2090.29797,1578.64844 C2073.63122,1578.64844 2058.98293,1571.22664 2046.35266,1556.38281 C2031.89946,1548.57027 2022.00372,1537.24226 2016.66516,1522.39844 C2013.54014,1514.06506 2011.97766,1505.34119 2011.97766,1496.22656 L2011.97766,1494.27344 C2011.97766,1478.64836 2016.01407,1462.24227 2024.08703,1445.05469 C2026.69121,1439.84633 2029.68597,1434.70315 2033.07141,1429.625 C2035.936,1425.3281 2040.10263,1420.18493 2045.57141,1414.19531 C2051.04018,1408.85674 2055.20681,1405.21095 2058.07141,1403.25781 C2062.75893,1399.87238 2066.73024,1397.46355 2069.98547,1396.03125 C2080.01156,1390.9531 2089.71198,1388.41406 2099.08703,1388.41406 Z M2055.14172,1417.51562 L2055.14172,1417.90625 C2058.13652,1416.86458 2059.63391,1416.01823 2059.63391,1415.36719 C2059.63391,1414.97656 2059.69901,1414.65104 2059.82922,1414.39062 C2059.69901,1413.60937 2059.5688,1412.95834 2059.43859,1412.4375 C2057.74588,1412.82813 2056.63912,1413.47916 2056.11828,1414.39062 C2055.46724,1415.30209 2055.14172,1416.34374 2055.14172,1417.51562 Z M2056.50891,1497.78906 C2056.50891,1518.75271 2063.40988,1535.87493 2077.21203,1549.15625 C2079.686,1551.23959 2081.574,1552.73697 2082.87609,1553.64844 C2088.99592,1551.82551 2094.00889,1548.50523 2097.91516,1543.6875 C2102.08184,1538.73956 2107.74585,1527.21624 2114.90734,1509.11719 C2116.46985,1505.21092 2118.09744,1498.83077 2119.79016,1489.97656 C2121.09225,1483.72653 2122.39432,1473.76569 2123.69641,1460.09375 C2125.1287,1442.12491 2125.84484,1426.56517 2125.84484,1413.41406 L2123.69641,1413.41406 C2113.5401,1413.41406 2104.55582,1415.56248 2096.74328,1419.85938 C2094.1391,1421.42188 2091.40475,1423.30988 2088.54016,1425.52344 C2083.3318,1430.34117 2080.07662,1433.66145 2078.77453,1435.48438 C2075.64952,1439.39064 2072.85006,1443.42706 2070.37609,1447.59375 C2067.5115,1452.41148 2064.90735,1458.14059 2062.56359,1464.78125 C2058.52711,1476.10943 2056.50891,1487.11193 2056.50891,1497.78906 Z M2051.23547,1422.20312 L2051.43078,1423.17969 C2051.82141,1423.04948 2052.14693,1422.85417 2052.40734,1422.59375 L2051.82141,1421.8125 L2051.43078,1421.8125 C2051.43078,1421.8125 2051.36568,1421.94271 2051.23547,1422.20312 Z M2021.15734,1476.30469 L2021.74328,1476.30469 C2023.82662,1476.30469 2024.86828,1474.80731 2024.86828,1471.8125 C2024.99849,1469.72916 2025.38911,1467.97136 2026.04016,1466.53906 C2028.77454,1458.72652 2031.96462,1451.89065 2035.61047,1446.03125 C2037.30318,1443.29686 2039.90733,1439.97658 2043.42297,1436.07031 C2046.67819,1432.42446 2049.21723,1428.32294 2051.04016,1423.76562 C2050.77974,1423.63542 2050.38912,1423.57031 2049.86828,1423.57031 L2049.47766,1423.57031 C2048.43598,1423.57031 2047.45943,1424.35155 2046.54797,1425.91406 C2041.60003,1431.12242 2037.69382,1435.80987 2034.82922,1439.97656 C2031.18337,1445.05471 2028.96985,1449.09113 2028.18859,1452.08594 L2025.06359,1457.35938 C2022.45941,1462.69794 2021.15734,1469.01298 2021.15734,1476.30469 Z M2020.57141,1480.60156 C2019.65994,1482.81512 2019.20422,1485.15884 2019.20422,1487.63281 C2019.20422,1490.62762 2019.52974,1492.125 2020.18078,1492.125 C2020.70162,1492.38542 2021.02713,1492.51562 2021.15734,1492.51562 L2021.35266,1492.51562 C2021.74328,1492.51562 2021.93859,1492.125 2021.93859,1491.34375 C2022.45943,1488.73957 2022.71984,1486.46095 2022.71984,1484.50781 L2022.71984,1483.92188 C2022.71984,1481.83853 2022.26412,1480.79688 2021.35266,1480.79688 L2020.57141,1480.60156 Z M2154.36047,1495.83594 L2154.36047,1498.96094 C2154.36047,1500.26303 2152.92819,1505.14579 2150.06359,1513.60938 C2148.37088,1517.77606 2146.48287,1521.74738 2144.39953,1525.52344 C2142.96723,1527.60678 2140.94902,1530.27603 2138.34484,1533.53125 C2136.2615,1536.65627 2134.69902,1539.65103 2133.65734,1542.51562 C2133.13651,1544.07813 2132.87609,1544.92448 2132.87609,1545.05469 L2133.85266,1545.05469 C2135.41516,1545.05469 2136.52192,1544.27345 2137.17297,1542.71094 C2144.72509,1533.4661 2149.67296,1525.91409 2152.01672,1520.05469 L2153.77453,1514.97656 C2153.77453,1514.71614 2154.36046,1513.34897 2155.53234,1510.875 C2157.09485,1506.83852 2157.87609,1502.60679 2157.87609,1498.17969 C2157.87609,1496.09634 2157.74589,1494.07813 2157.48547,1492.125 C2155.40212,1492.125 2154.36047,1493.36197 2154.36047,1495.83594 Z M2133.07141,1514.97656 C2133.59224,1516.9297 2134.11307,1517.90625 2134.63391,1517.90625 L2134.82922,1517.90625 C2134.95943,1517.51562 2135.15474,1516.53907 2135.41516,1514.97656 C2135.54536,1514.97656 2135.61047,1514.84636 2135.61047,1514.58594 C2135.35005,1514.71615 2134.5037,1514.84635 2133.07141,1514.97656 Z M2131.50891,1546.22656 C2131.63911,1546.48698 2131.83443,1546.68229 2132.09484,1546.8125 L2132.68078,1546.8125 L2132.68078,1546.42188 L2132.48547,1545.64062 C2132.22505,1545.64062 2131.89953,1545.83594 2131.50891,1546.22656 Z M2124.28234,1554.23438 L2124.28234,1554.42969 C2124.41255,1555.86199 2124.60786,1556.57812 2124.86828,1556.57812 C2126.561,1556.05729 2127.73286,1555.27605 2128.38391,1554.23438 C2128.77453,1553.1927 2128.96984,1552.28125 2128.96984,1551.5 L2128.96984,1551.10938 C2126.10525,1552.28126 2124.60786,1553.1276 2124.47766,1553.64844 L2124.28234,1554.23438 Z M2113.93078,1565.5625 L2113.93078,1566.14844 C2113.93078,1566.27865 2114.45161,1566.66927 2115.49328,1567.32031 C2118.6183,1566.01822 2120.83182,1563.93491 2122.13391,1561.07031 C2122.26411,1561.07031 2122.32922,1561.00521 2122.32922,1560.875 C2121.41776,1559.83333 2120.70162,1559.3125 2120.18078,1559.3125 C2116.27451,1562.04689 2114.1912,1564.1302 2113.93078,1565.5625 Z M2325.36609,1365.36719 C2328.62132,1367.45053 2332.20201,1370.38019 2336.10828,1374.15625 C2340.40518,1378.45315 2343.39994,1382.16405 2345.09266,1385.28906 C2347.176,1388.54429 2348.80359,1392.05988 2349.97547,1395.83594 C2350.62651,1397.52865 2350.95203,1398.57031 2350.95203,1398.96094 C2350.17078,1399.48177 2349.78016,1400.0026 2349.78016,1400.52344 C2350.17078,1401.69532 2350.36609,1402.67187 2350.36609,1403.45312 C2350.36609,1404.62501 2349.78016,1407.16404 2348.60828,1411.07031 C2347.69682,1413.02345 2347.24109,1414.78124 2347.24109,1416.34375 C2347.24109,1417.38542 2347.82703,1419.33853 2348.99891,1422.20312 C2349.12912,1422.85417 2349.19422,1423.375 2349.19422,1423.76562 C2349.19422,1424.8073 2348.15256,1427.54164 2346.06922,1431.96875 C2343.85567,1437.69795 2342.29318,1441.34374 2341.38172,1442.90625 C2340.99109,1443.81771 2340.20985,1444.46875 2339.03797,1444.85938 C2337.86609,1445.90105 2336.75933,1447.46353 2335.71766,1449.54688 C2331.81139,1454.88544 2328.62132,1460.28904 2326.14734,1465.75781 C2325.10567,1467.97137 2321.45988,1472.59371 2315.20984,1479.625 L2315.40516,1479.625 C2318.79059,1476.63019 2322.43639,1473.44012 2326.34266,1470.05469 L2326.53797,1470.05469 C2320.02752,1478.77869 2311.23855,1489.19525 2300.17078,1501.30469 C2290.66553,1511.33078 2282.59269,1519.33851 2275.95203,1525.32812 L2267.35828,1533.14062 C2278.42605,1539.00003 2292.4233,1545.77079 2309.35047,1553.45312 C2322.24116,1559.44274 2331.22544,1564.19529 2336.30359,1567.71094 C2337.21506,1568.49219 2338.58223,1569.85937 2340.40516,1571.8125 C2343.00934,1573.76563 2344.76713,1576.17446 2345.67859,1579.03906 L2345.87391,1580.60156 C2345.87391,1585.67971 2340.79583,1589.32551 2330.63953,1591.53906 C2326.99368,1590.10676 2323.34788,1588.41407 2319.70203,1586.46094 L2308.17859,1580.01562 C2304.01191,1577.54165 2299.38956,1574.41669 2294.31141,1570.64062 C2293.79057,1570.11979 2292.03278,1569.46875 2289.03797,1568.6875 C2285.91295,1567.38541 2280.24895,1564.71617 2272.04578,1560.67969 C2269.57181,1559.50781 2268.20464,1558.92188 2267.94422,1558.92188 L2267.74891,1558.92188 C2267.6187,1558.92188 2267.35828,1559.05208 2266.96766,1559.3125 C2267.22807,1560.35417 2267.6838,1561.07031 2268.33484,1561.46094 C2274.58488,1564.97658 2281.29054,1569.0781 2288.45203,1573.76562 C2293.92081,1577.15106 2300.10564,1580.21092 2307.00672,1582.94531 C2311.69424,1585.15887 2316.18639,1587.5677 2320.48328,1590.17188 C2322.04579,1591.21355 2323.47807,1592.1901 2324.78016,1593.10156 L2322.24109,1594.07812 C2320.15775,1594.98959 2318.79058,1596.29166 2318.13953,1597.98438 C2317.7489,1598.50521 2317.35828,1598.76562 2316.96766,1598.76562 L2316.38172,1598.76562 C2315.07963,1598.76562 2311.17342,1596.81252 2304.66297,1592.90625 C2296.72022,1588.21873 2287.54063,1583.987 2277.12391,1580.21094 C2270.35304,1577.86718 2262.2151,1575.58855 2252.70984,1573.375 C2236.56393,1568.68748 2223.0875,1564.97658 2212.28016,1562.24219 L2212.08484,1562.24219 C2210.91296,1562.89323 2209.54579,1563.86979 2207.98328,1565.17188 C2207.72286,1565.17188 2207.26714,1566.47395 2206.61609,1569.07812 C2202.44941,1583.01049 2200.36609,1591.53905 2200.36609,1594.66406 L2200.36609,1594.85938 C2200.36609,1596.03126 2201.01713,1599.80726 2202.31922,1606.1875 C2202.84006,1609.44272 2203.10047,1611.98176 2203.10047,1613.80469 C2203.10047,1617.32033 2202.18902,1619.92447 2200.36609,1621.61719 C2199.71505,1622.78907 2198.60829,1623.375 2197.04578,1623.375 L2196.26453,1623.375 C2192.61868,1623.375 2188.25674,1622.39845 2183.17859,1620.44531 C2180.314,1619.14322 2177.70986,1617.58074 2175.36609,1615.75781 C2167.81397,1609.63799 2164.03797,1601.50005 2164.03797,1591.34375 C2164.03797,1584.70309 2165.34004,1574.02612 2167.94422,1559.3125 C2171.59007,1540.4322 2176.40773,1520.185 2182.39734,1498.57031 C2185.91299,1485.94004 2192.42334,1464.19547 2201.92859,1433.33594 C2205.96507,1419.01295 2209.48066,1405.27611 2212.47547,1392.125 C2212.47547,1391.99479 2212.54057,1391.60417 2212.67078,1390.95312 L2212.47547,1390.95312 C2208.17857,1392.38542 2204.59788,1393.10156 2201.73328,1393.10156 C2195.22283,1393.10156 2190.9911,1389.65108 2189.03797,1382.75 C2189.03797,1382.22916 2187.93121,1380.14585 2185.71766,1376.5 C2185.19682,1375.19791 2184.93641,1374.15625 2184.93641,1373.375 L2184.93641,1372.98438 C2184.93641,1372.33333 2185.19682,1371.87761 2185.71766,1371.61719 C2196.78542,1364.84632 2205.83481,1360.7448 2212.86609,1359.3125 C2217.03278,1358.27083 2221.72023,1357.75 2226.92859,1357.75 C2230.83486,1357.35937 2233.50411,1356.90365 2234.93641,1356.38281 C2235.97808,1355.86198 2236.56401,1355.53646 2236.69422,1355.40625 C2235.26192,1355.27604 2233.43902,1355.21094 2231.22547,1355.21094 L2228.68641,1355.21094 C2225.6916,1355.21094 2222.76194,1355.66666 2219.89734,1356.57812 L2209.74109,1358.53125 C2206.35566,1359.3125 2203.10048,1360.41926 2199.97547,1361.85156 C2199.45463,1362.11198 2197.95725,1362.56771 2195.48328,1363.21875 C2193.26973,1364 2190.40517,1365.36718 2186.88953,1367.32031 C2186.88953,1367.45052 2186.82443,1367.51562 2186.69422,1367.51562 L2186.49891,1367.51562 L2186.30359,1367.32031 C2186.82443,1366.40885 2187.86609,1365.4323 2189.42859,1364.39062 C2192.16298,1362.5677 2195.02754,1360.87501 2198.02234,1359.3125 C2203.88175,1356.31769 2210.65251,1354.03907 2218.33484,1352.47656 C2225.62655,1351.04426 2240.73056,1350.49088 2263.64734,1350.81641 C2286.56413,1351.14193 2307.13684,1355.99214 2325.36609,1365.36719 Z M2218.92078,1379.42969 C2218.92078,1380.08073 2219.1812,1380.40625 2219.70203,1380.40625 C2220.09266,1380.40625 2220.28797,1380.14584 2220.28797,1379.625 C2220.15776,1379.10416 2220.09266,1378.77865 2220.09266,1378.64844 L2219.11609,1378.64844 C2218.98589,1378.77865 2218.92078,1379.03906 2218.92078,1379.42969 Z M2254.07703,1389.39062 L2254.27234,1389.97656 L2254.27234,1391.34375 C2254.27234,1391.99479 2253.62131,1394.33852 2252.31922,1398.375 C2251.92859,1399.41667 2251.60307,1401.89061 2251.34266,1405.79688 C2250.69161,1409.83335 2250.23589,1412.04687 2249.97547,1412.4375 C2247.11087,1414.52084 2245.28797,1416.92967 2244.50672,1419.66406 C2244.11609,1421.48699 2243.26975,1424.02603 2241.96766,1427.28125 C2241.57703,1428.32292 2241.0562,1430.40623 2240.40516,1433.53125 C2236.88951,1446.03131 2235.13172,1453.90884 2235.13172,1457.16406 L2235.13172,1458.14062 C2235.13172,1459.05209 2235.32703,1459.50781 2235.71766,1459.50781 C2236.49891,1459.50781 2238.1916,1455.79691 2240.79578,1448.375 C2242.22808,1444.46873 2243.39994,1441.01824 2244.31141,1438.02344 L2244.50672,1438.02344 C2236.17334,1470.96631 2228.62134,1498.5051 2221.85047,1520.64062 C2228.36092,1516.21352 2235.65251,1510.61462 2243.72547,1503.84375 C2248.28278,1500.1979 2254.59782,1494.33858 2262.67078,1486.26562 C2271.91562,1476.76037 2278.23066,1469.66409 2281.61609,1464.97656 C2297.37138,1445.05459 2305.24891,1428.38809 2305.24891,1414.97656 C2305.24891,1401.17441 2288.19179,1392.64585 2254.07703,1389.39062 Z M2344.31141,1396.22656 C2345.35308,1402.08597 2345.87391,1405.08073 2345.87391,1405.21094 C2346.13432,1403.64843 2346.32964,1402.21615 2346.45984,1400.91406 C2346.45984,1399.61197 2345.87391,1398.2448 2344.70203,1396.8125 C2344.70203,1396.8125 2344.57182,1396.61719 2344.31141,1396.22656 Z M2177.12391,1546.8125 C2177.12391,1547.20313 2177.77494,1547.52864 2179.07703,1547.78906 C2180.1187,1546.61718 2180.96505,1545.1198 2181.61609,1543.29688 C2185.65257,1531.70828 2191.25148,1511.00536 2198.41297,1481.1875 C2203.2307,1464.26033 2208.11347,1444.59907 2213.06141,1422.20312 C2213.84266,1420.11978 2214.88432,1417.51564 2216.18641,1414.39062 C2217.35829,1410.61456 2217.94422,1408.01042 2217.94422,1406.57812 L2217.94422,1406.38281 C2217.81401,1404.8203 2217.22808,1404.03906 2216.18641,1404.03906 L2215.79578,1404.03906 C2214.75411,1404.03906 2214.03797,1405.08072 2213.64734,1407.16406 C2213.64734,1407.42448 2212.93121,1409.638 2211.49891,1413.80469 L2208.95984,1425.91406 C2195.15769,1476.30494 2185.19685,1513.86967 2179.07703,1538.60938 C2178.5562,1540.30209 2177.90516,1543.03644 2177.12391,1546.8125 Z M2345.09266,1408.92188 C2345.22287,1409.3125 2345.41818,1409.50781 2345.67859,1409.50781 C2346.06922,1409.3776 2346.26453,1409.2474 2346.26453,1409.11719 L2346.26453,1408.72656 C2346.26453,1408.20573 2346.13432,1407.42448 2345.87391,1406.38281 C2345.61349,1406.38281 2345.35307,1407.09895 2345.09266,1408.53125 C2345.09266,1408.53125 2345.09266,1408.66146 2345.09266,1408.92188 Z M2291.77234,1495.25 C2290.47025,1495.77084 2289.29839,1496.42187 2288.25672,1497.20312 C2286.82442,1498.50521 2285.97807,1499.74218 2285.71766,1500.91406 C2286.10828,1502.60678 2286.69422,1503.45312 2287.47547,1503.45312 L2287.67078,1503.45312 C2288.58224,1503.45312 2289.16818,1503.19271 2289.42859,1502.67188 C2291.12131,1500.97916 2292.16297,1499.35157 2292.55359,1497.78906 C2292.94422,1496.8776 2293.33484,1496.42188 2293.72547,1496.42188 C2295.80881,1495.64062 2297.89213,1493.68752 2299.97547,1490.5625 C2300.10568,1490.5625 2302.05878,1488.21877 2305.83484,1483.53125 C2310.65258,1479.36456 2313.51713,1476.4349 2314.42859,1474.74219 C2316.25152,1472.0078 2318.66035,1468.68752 2321.65516,1464.78125 C2323.21766,1462.30728 2324.71505,1459.57293 2326.14734,1456.57812 C2326.14734,1456.05729 2326.79838,1454.75522 2328.10047,1452.67188 C2329.27235,1450.97916 2330.57442,1447.85419 2332.00672,1443.29688 C2333.43902,1438.47914 2335.13171,1434.18231 2337.08484,1430.40625 C2338.51714,1425.58852 2339.23328,1422.33334 2339.23328,1420.64062 L2339.03797,1420.64062 C2338.77755,1420.64062 2338.19162,1420.51042 2337.28016,1420.25 C2336.88953,1420.25 2336.62912,1421.09635 2336.49891,1422.78906 C2336.23849,1423.3099 2335.97807,1424.74218 2335.71766,1427.08594 C2333.5041,1432.2943 2329.7932,1440.10672 2324.58484,1450.52344 C2320.41816,1458.7266 2317.4234,1464.32551 2315.60047,1467.32031 C2312.21504,1468.49219 2309.6109,1470.70571 2307.78797,1473.96094 C2306.61609,1475.91407 2304.20726,1478.77863 2300.56141,1482.55469 C2298.73848,1484.37761 2297.176,1485.61458 2295.87391,1486.26562 C2293.13952,1488.7396 2291.77234,1491.73436 2291.77234,1495.25 Z M2344.11609,1420.64062 C2344.11609,1420.90104 2343.98589,1421.22656 2343.72547,1421.61719 L2343.92078,1421.61719 L2344.31141,1420.64062 L2344.11609,1420.64062 Z M2343.13953,1423.57031 C2342.6187,1424.35157 2341.96766,1426.30467 2341.18641,1429.42969 C2340.66557,1431.38282 2339.68902,1434.44269 2338.25672,1438.60938 C2338.77756,1438.60938 2339.29838,1437.95834 2339.81922,1436.65625 C2342.03277,1432.88019 2343.13953,1429.23439 2343.13953,1425.71875 L2343.13953,1423.57031 Z M2244.31141,1437.63281 L2244.50672,1437.63281 L2244.50672,1437.82812 L2244.31141,1437.82812 L2244.31141,1437.63281 Z M2329.46766,1454.03906 C2329.46766,1454.29948 2329.53276,1454.42969 2329.66297,1454.42969 L2329.85828,1454.42969 L2329.85828,1453.84375 C2329.59786,1453.97396 2329.46766,1454.03906 2329.46766,1454.03906 Z M2178.88172,1552.28125 C2176.92858,1556.05731 2175.95203,1559.24738 2175.95203,1561.85156 L2175.75672,1565.5625 C2176.01714,1565.69271 2176.14734,1565.82292 2176.14734,1565.95312 C2176.27755,1565.95312 2176.47286,1565.30209 2176.73328,1564 C2178.29579,1559.7031 2179.07703,1555.9271 2179.07703,1552.67188 L2179.07703,1552.28125 L2178.88172,1552.28125 Z M2221.85047,1557.94531 C2220.41817,1559.50782 2219.31141,1560.41927 2218.53016,1560.67969 C2224.38956,1561.98178 2228.8166,1563.21874 2231.81141,1564.39062 C2232.20203,1564.39062 2234.74107,1565.36718 2239.42859,1567.32031 L2239.42859,1567.125 C2239.42859,1565.43228 2238.64735,1564.32552 2237.08484,1563.80469 C2232.91816,1561.59113 2228.88174,1559.89844 2224.97547,1558.72656 C2223.9338,1558.33594 2222.89214,1558.07552 2221.85047,1557.94531 Z M2454.77016,1289.39062 L2457.69985,1289.39062 C2461.47591,1289.39062 2463.94984,1290.43228 2465.12172,1292.51562 C2465.51235,1293.42709 2465.70766,1294.72916 2465.70766,1296.42188 C2465.70766,1297.59376 2465.64255,1299.02603 2465.51235,1300.71875 C2489.34059,1296.68227 2507.9602,1294.66406 2521.37172,1294.66406 C2544.15829,1294.66406 2563.10342,1299.15621 2578.20766,1308.14062 C2581.85351,1310.6146 2584.71806,1315.88798 2586.80141,1323.96094 C2588.23371,1329.95055 2588.94985,1334.31249 2588.94985,1337.04688 C2588.94985,1337.82813 2587.58267,1338.28385 2584.84828,1338.41406 C2580.8118,1338.41406 2574.30145,1336.72137 2565.31703,1333.33594 C2561.02014,1332.03385 2556.7233,1331.38281 2552.42641,1331.38281 C2547.08784,1331.38281 2536.93169,1332.88019 2521.95766,1335.875 C2514.53575,1337.17709 2504.83532,1338.54426 2492.8561,1339.97656 C2477.36123,1341.40886 2466.16342,1342.51562 2459.26235,1343.29688 C2460.30402,1343.29688 2460.82485,1343.42708 2460.82485,1343.6875 C2459.39255,1343.94792 2458.67641,1344.14323 2458.67641,1344.27344 C2450.47324,1385.8101 2442.13999,1422.91911 2433.67641,1455.60156 C2431.07223,1467.05995 2428.33788,1480.27597 2425.47328,1495.25 C2425.21287,1495.25 2425.08266,1495.51041 2425.08266,1496.03125 C2421.82743,1512.43758 2419.22329,1527.86712 2417.27016,1542.32031 C2416.87953,1546.35679 2416.16339,1552.0859 2415.12172,1559.50781 C2411.9967,1582.29438 2410.43422,1597.3333 2410.43422,1604.625 L2410.43422,1606.77344 C2410.43422,1612.89326 2411.15036,1628.64831 2412.58266,1654.03906 L2412.58266,1657.35938 C2412.58266,1658.66146 2412.45245,1659.3125 2412.19203,1659.3125 L2408.87172,1659.3125 C2408.35088,1659.3125 2407.83006,1658.92188 2407.30922,1658.14062 C2406.26755,1657.48958 2405.55141,1657.16406 2405.16078,1657.16406 L2405.16078,1656.57812 C2405.16078,1655.27604 2406.00713,1653.45314 2407.69985,1651.10938 C2408.22068,1650.0677 2408.4811,1649.28646 2408.4811,1648.76562 L2408.4811,1647.98438 C2408.4811,1646.9427 2407.11392,1645.57553 2404.37953,1643.88281 L2404.57485,1643.6875 C2404.31443,1642.38541 2404.18422,1641.01824 2404.18422,1639.58594 L2404.18422,1639.39062 C2404.18422,1639.26042 2404.11912,1639.13021 2403.98891,1639 L2404.18422,1638.41406 L2404.18422,1637.82812 C2404.18422,1635.09374 2404.90036,1631.83856 2406.33266,1628.0625 L2406.33266,1627.47656 C2406.33266,1626.95573 2405.94204,1625.65366 2405.16078,1623.57031 C2404.37953,1620.70571 2403.98891,1617.45054 2403.98891,1613.80469 L2403.98891,1611.85156 C2403.98891,1605.2109 2404.63994,1599.80731 2405.94203,1595.64062 C2406.20245,1594.98958 2406.65818,1594.33854 2407.30922,1593.6875 C2407.96027,1592.38541 2408.28578,1591.14844 2408.28578,1589.97656 C2408.28578,1589.0651 2407.83006,1587.2422 2406.9186,1584.50781 C2406.39776,1582.42447 2406.13735,1580.66667 2406.13735,1579.23438 L2406.13735,1577.86719 C2406.13735,1575.91405 2406.72328,1572.78908 2407.89516,1568.49219 C2408.41599,1566.01822 2408.80662,1561.39587 2409.06703,1554.625 C2409.71808,1549.02601 2410.56442,1543.68753 2411.6061,1538.60938 C2412.90819,1532.88018 2414.66598,1522.91934 2416.87953,1508.72656 C2417.791,1503.25779 2418.24672,1499.67709 2418.24672,1497.98438 C2418.24672,1497.07291 2417.72589,1496.61719 2416.68422,1496.61719 C2415.38213,1496.87761 2414.7311,1497.46354 2414.7311,1498.375 C2413.42901,1501.63022 2412.19204,1505.86195 2411.02016,1511.07031 C2410.36911,1513.41407 2409.91339,1516.73435 2409.65297,1521.03125 C2408.48109,1529.75525 2406.7884,1540.17181 2404.57485,1552.28125 C2403.14255,1559.96358 2401.90558,1569.20828 2400.86391,1580.01562 C2398.38994,1593.29694 2397.15297,1604.82026 2397.15297,1614.58594 C2397.15297,1618.23179 2397.34828,1621.48696 2397.73891,1624.35156 L2397.5436,1624.74219 L2397.5436,1636.85156 C2397.5436,1643.49222 2397.73891,1650.13278 2398.12953,1656.77344 L2397.73891,1656.77344 C2396.43682,1656.38281 2394.35351,1655.27605 2391.48891,1653.45312 C2386.15034,1649.67706 2382.76496,1645.83596 2381.33266,1641.92969 C2377.42639,1632.55464 2375.47328,1616.9949 2375.47328,1595.25 C2375.47328,1576.23949 2376.90556,1555.60167 2379.77016,1533.33594 C2381.33267,1523.04943 2383.54619,1510.74486 2386.41078,1496.42188 C2386.54099,1496.42188 2386.6061,1496.03125 2386.6061,1495.25 L2386.41078,1495.05469 C2395.3952,1448.8305 2406.07218,1401.23983 2418.44203,1352.28125 C2396.1763,1358.01045 2375.864,1364.26038 2357.50453,1371.03125 C2343.83259,1375.97919 2335.88996,1378.45312 2333.67641,1378.45312 C2328.98888,1378.45312 2325.01757,1376.43492 2321.76235,1372.39844 C2319.54879,1369.40363 2318.44203,1366.53908 2318.44203,1363.80469 C2318.18162,1360.41925 2315.90299,1355.6667 2311.6061,1349.54688 C2311.34568,1349.28646 2311.21547,1348.96094 2311.21547,1348.57031 L2311.21547,1348.17969 C2311.21547,1345.05467 2321.24141,1340.43232 2341.2936,1334.3125 C2353.79366,1330.27602 2364.73105,1326.36981 2374.1061,1322.59375 C2386.86658,1318.16664 2403.01225,1313.73961 2422.5436,1309.3125 L2422.5436,1308.92188 C2422.5436,1306.83853 2422.34829,1303.12763 2421.95766,1297.78906 C2428.3379,1295.31509 2434.78315,1293.16668 2441.2936,1291.34375 C2447.153,1290.04166 2451.64514,1289.39062 2454.77016,1289.39062 Z M2399.69203,1322.78906 C2402.94726,1322.26823 2404.57485,1321.61719 2404.57485,1320.83594 C2404.31443,1319.79427 2403.8587,1319.27344 2403.20766,1319.27344 C2402.4264,1319.27344 2401.25454,1320.4453 2399.69203,1322.78906 Z M2331.52797,1348.375 C2332.83006,1348.89584 2334.13213,1349.15625 2335.43422,1349.15625 C2337.90819,1349.15625 2340.96806,1348.44011 2344.61391,1347.00781 C2358.28585,1342.71092 2370.33,1337.95836 2380.74672,1332.75 C2386.86654,1329.8854 2392.79096,1326.69533 2398.52016,1323.17969 L2397.5436,1323.17969 C2392.85607,1323.17969 2388.03841,1324.48176 2383.09047,1327.08594 C2381.26754,1327.9974 2376.7103,1329.62499 2369.4186,1331.96875 C2359.52271,1335.35418 2348.06449,1339.71612 2335.0436,1345.05469 C2334.52276,1345.31511 2333.3509,1346.42187 2331.52797,1348.375 Z M2325.86391,1349.54688 L2325.86391,1349.74219 C2325.86391,1350.00261 2326.18943,1350.13281 2326.84047,1350.13281 C2328.01235,1350.13281 2329.24932,1349.61198 2330.55141,1348.57031 C2330.55141,1348.4401 2329.77017,1348.24479 2328.20766,1347.98438 L2327.62172,1347.98438 C2326.44984,1348.11458 2325.86391,1348.63541 2325.86391,1349.54688 Z M2434.45766,1424.15625 C2432.76494,1427.41147 2431.9186,1430.47134 2431.9186,1433.33594 L2431.9186,1434.89844 L2432.11391,1434.89844 C2434.06704,1430.73175 2435.0436,1427.54168 2435.0436,1425.32812 L2435.0436,1424.9375 C2435.0436,1424.67708 2434.84829,1424.41667 2434.45766,1424.15625 Z M2431.52797,1436.07031 C2428.40295,1441.14846 2426.84047,1446.48695 2426.84047,1452.08594 L2426.84047,1454.23438 L2427.03578,1454.23438 C2430.1608,1449.54685 2431.72328,1443.75264 2431.72328,1436.85156 L2431.72328,1436.07031 L2431.52797,1436.07031 Z M2424.30141,1462.4375 C2423.12953,1464.78126 2422.5436,1467.05988 2422.5436,1469.27344 C2422.6738,1470.31511 2422.73891,1471.09635 2422.73891,1471.61719 C2424.041,1469.53384 2424.69203,1467.51563 2424.69203,1465.5625 L2424.69203,1464.39062 C2424.69203,1463.86979 2424.62693,1463.21875 2424.49672,1462.4375 L2424.30141,1462.4375 Z M2420.9811,1477.47656 C2418.89775,1481.51304 2417.8561,1485.28904 2417.8561,1488.80469 L2417.8561,1490.95312 L2418.05141,1490.95312 C2420.13475,1486.65623 2421.17641,1482.4245 2421.17641,1478.25781 C2421.0462,1477.99739 2420.9811,1477.73698 2420.9811,1477.47656 Z M2599.21328,1329.23438 C2609.76021,1329.88542 2615.0336,1330.40625 2615.0336,1330.79688 C2617.11694,1331.44792 2618.80963,1332.74999 2620.11172,1334.70312 C2622.32527,1337.82814 2623.43203,1342.45049 2623.43203,1348.57031 C2623.43203,1352.737 2622.97631,1357.03383 2622.06485,1361.46094 C2618.02837,1370.96619 2614.77319,1379.16924 2612.29922,1386.07031 C2608.78358,1396.61724 2605.33309,1408.53118 2601.94766,1421.8125 C2601.55703,1426.1094 2601.0362,1429.03905 2600.38516,1430.60156 C2598.69244,1433.46616 2596.54403,1434.89844 2593.93985,1434.89844 C2593.67943,1434.89844 2593.02839,1434.76823 2591.98672,1434.50781 C2591.59609,1434.63802 2591.33568,1434.70312 2591.20547,1434.70312 L2595.89297,1407.16406 L2595.89297,1406.96875 C2593.93984,1412.82815 2591.59611,1421.87754 2588.86172,1434.11719 L2588.66641,1434.3125 C2584.10909,1434.3125 2580.98413,1432.4245 2579.29141,1428.64844 C2578.37995,1427.34635 2577.40339,1426.10938 2576.36172,1424.9375 C2575.32005,1422.72395 2574.79922,1418.36201 2574.79922,1411.85156 C2574.79922,1402.86714 2575.58046,1391.66934 2577.14297,1378.25781 C2564.77312,1386.33077 2553.51021,1394.3385 2543.35391,1402.28125 C2535.28095,1408.40107 2524.79929,1417.45046 2511.9086,1429.42969 L2511.12735,1429.23438 L2510.3461,1429.23438 C2509.95547,1429.23438 2509.62995,1429.49479 2509.36953,1430.01562 L2509.56485,1431.57812 C2505.919,1434.96356 2501.68727,1439.06508 2496.86953,1443.88281 C2502.2081,1449.09117 2506.11431,1452.41145 2508.58828,1453.84375 C2513.66643,1456.70835 2518.15858,1459.5729 2522.06485,1462.4375 C2525.97112,1465.17189 2530.72367,1468.81769 2536.32266,1473.375 C2544.65603,1480.27608 2549.21328,1484.11718 2549.99453,1484.89844 C2551.16642,1487.2422 2553.77056,1490.75779 2557.80703,1495.44531 C2558.7185,1496.35678 2560.86691,1499.02602 2564.25235,1503.45312 C2566.07527,1505.40626 2567.89817,1508.20571 2569.7211,1511.85156 C2569.85131,1511.85156 2570.43724,1512.82812 2571.47891,1514.78125 L2571.67422,1514.78125 C2567.89816,1506.8385 2566.01016,1502.80208 2566.01016,1502.67188 C2569.26538,1507.09898 2571.73932,1511.07029 2573.43203,1514.58594 C2578.37998,1524.61203 2580.85391,1534.31245 2580.85391,1543.6875 L2580.85391,1546.61719 L2580.6586,1546.61719 C2580.52839,1546.09635 2580.20287,1545.44532 2579.68203,1544.66406 C2579.68203,1545.1849 2579.031,1546.09635 2577.72891,1547.39844 C2577.33828,1547.39844 2576.81745,1549.28644 2576.16641,1553.0625 C2575.77578,1554.36459 2575.58047,1556.51301 2575.58047,1559.50781 C2575.05964,1564.32554 2574.4737,1567.58072 2573.82266,1569.27344 C2573.56224,1570.70574 2573.43203,1572.59374 2573.43203,1574.9375 C2573.17162,1576.23959 2572.12996,1577.93228 2570.30703,1580.01562 C2569.91641,1581.31771 2567.70289,1584.37758 2563.66641,1589.19531 L2564.25235,1589.78125 C2558.78357,1594.8594 2553.90081,1598.89582 2549.60391,1601.89062 C2538.79656,1609.83337 2531.17945,1614.19531 2526.75235,1614.97656 C2524.14817,1615.4974 2522.32527,1615.75781 2521.2836,1615.75781 L2520.50235,1613.41406 C2519.20026,1614.06511 2518.0935,1614.45573 2517.18203,1614.58594 L2516.79141,1615.36719 C2517.96329,1615.62761 2519.07005,1615.75781 2520.11172,1615.75781 L2520.11172,1615.95312 C2519.72109,1615.95312 2517.24716,1617.19009 2512.68985,1619.66406 C2511.64817,1620.44532 2506.96072,1621.9427 2498.62735,1624.15625 C2493.80961,1625.19792 2489.9034,1625.71875 2486.9086,1625.71875 L2486.32266,1625.71875 C2484.76015,1625.71875 2483.26277,1625.52344 2481.83047,1625.13281 C2479.3565,1625.52344 2477.20809,1625.71875 2475.38516,1625.71875 L2474.99453,1625.71875 C2466.01011,1625.71875 2458.65342,1619.07819 2452.92422,1605.79688 C2451.62213,1602.02081 2450.45027,1598.0495 2449.4086,1593.88281 C2448.23672,1588.15362 2447.65078,1584.1172 2447.65078,1581.77344 L2447.8461,1581.77344 C2452.14299,1584.63804 2457.35127,1586.07031 2463.4711,1586.07031 C2474.01802,1586.07031 2486.32259,1582.22921 2500.38516,1574.54688 C2504.42164,1572.33332 2508.91378,1569.40366 2513.86172,1565.75781 C2520.7628,1560.02862 2526.88253,1554.62503 2532.2211,1549.54688 C2532.2211,1549.41667 2533.00234,1548.50522 2534.56485,1546.8125 C2538.99195,1541.86456 2541.92161,1537.30731 2543.35391,1533.14062 C2544.26537,1530.79686 2544.7211,1528.25783 2544.7211,1525.52344 C2544.59089,1524.35156 2544.52578,1523.50521 2544.52578,1522.98438 C2541.9216,1518.42706 2540.16381,1515.56251 2539.25235,1514.39062 C2535.6065,1511.26561 2531.89559,1508.66147 2528.11953,1506.57812 C2525.90598,1505.27604 2517.89825,1500.58858 2504.0961,1492.51562 C2497.71586,1488.60936 2492.18206,1484.83335 2487.49453,1481.1875 C2477.98928,1473.76559 2472.71589,1467.51565 2471.67422,1462.4375 L2471.08828,1458.72656 C2467.05181,1455.21092 2464.51277,1452.47657 2463.4711,1450.52344 C2461.51796,1447.52863 2460.54141,1444.01304 2460.54141,1439.97656 C2460.54141,1428.38796 2461.90858,1420.05471 2464.64297,1414.97656 C2466.4659,1410.41925 2470.50232,1404.69014 2476.75235,1397.78906 C2479.74715,1394.53384 2482.28619,1392.12501 2484.36953,1390.5625 C2493.87479,1383.2708 2503.90073,1376.50003 2514.44766,1370.25 C2529.5519,1360.87495 2543.61426,1353.12763 2556.63516,1347.00781 C2561.5831,1344.79426 2566.20545,1342.97136 2570.50235,1341.53906 C2574.01799,1340.49739 2577.53358,1339.97656 2581.04922,1339.97656 C2583.26277,1339.97656 2585.6716,1340.17187 2588.27578,1340.5625 C2588.66641,1338.08853 2589.31745,1335.87501 2590.22891,1333.92188 C2591.27058,1331.96874 2592.70286,1330.66667 2594.52578,1330.01562 C2596.08829,1329.49479 2597.65078,1329.23438 2599.21328,1329.23438 Z M2545.30703,1359.11719 C2545.43724,1360.02865 2545.82786,1360.48438 2546.47891,1360.48438 C2552.46852,1357.8802 2556.11432,1355.79688 2557.41641,1354.23438 L2557.61172,1354.03906 C2557.09089,1353.51823 2556.76537,1353.25781 2556.63516,1353.25781 C2552.20805,1354.5599 2548.43205,1356.51301 2545.30703,1359.11719 Z M2540.42422,1361.26562 L2541.79141,1360.67969 L2541.79141,1360.28906 C2541.79141,1360.15885 2541.6612,1360.09375 2541.40078,1360.09375 C2540.87995,1360.09375 2540.55443,1360.48437 2540.42422,1361.26562 Z M2478.90078,1410.67969 C2480.46329,1410.67969 2481.96067,1409.96355 2483.39297,1408.53125 C2483.65339,1408.27083 2484.89036,1406.64324 2487.10391,1403.64844 C2495.43728,1395.44527 2502.07784,1389.45575 2507.02578,1385.67969 C2513.14561,1380.86196 2518.41899,1377.08595 2522.8461,1374.35156 C2526.62216,1372.39843 2531.70023,1368.68753 2538.08047,1363.21875 L2539.64297,1361.65625 L2538.86172,1361.65625 C2537.0388,1361.65625 2535.08569,1362.5677 2533.00235,1364.39062 C2523.23667,1370.11982 2513.53625,1376.69528 2503.90078,1384.11719 C2501.94765,1385.94011 2500.05965,1387.69791 2498.23672,1389.39062 C2495.37212,1391.60418 2492.83309,1393.75259 2490.61953,1395.83594 C2486.58306,1399.74221 2483.6534,1402.99738 2481.83047,1405.60156 C2479.74713,1408.72658 2478.70547,1410.41927 2478.70547,1410.67969 L2478.90078,1410.67969 Z M2593.74453,1430.79688 C2595.69767,1430.66667 2596.67422,1430.53646 2596.67422,1430.40625 C2596.67422,1430.27604 2596.86953,1429.4948 2597.26016,1428.0625 L2596.86953,1427.86719 C2596.60912,1427.86719 2595.63256,1428.71353 2593.93985,1430.40625 C2593.93985,1430.40625 2593.87474,1430.53646 2593.74453,1430.79688 Z M2527.92422,1479.82031 C2531.57007,1482.81512 2534.89035,1484.57291 2537.88516,1485.09375 C2536.58307,1482.8802 2534.36955,1481.31771 2531.24453,1480.40625 C2529.68203,1480.01562 2528.57527,1479.82031 2527.92422,1479.82031 Z M2538.4711,1485.48438 C2538.4711,1486.65626 2539.18724,1487.69791 2540.61953,1488.60938 C2546.60915,1494.33857 2550.05963,1497.98437 2550.9711,1499.54688 C2554.48674,1503.71356 2557.4164,1507.81508 2559.76016,1511.85156 C2562.10392,1516.27867 2563.66641,1518.81771 2564.44766,1519.46875 C2564.9685,1519.98959 2565.81484,1520.38021 2566.98672,1520.64062 C2566.98672,1519.46874 2566.531,1518.03647 2565.61953,1516.34375 C2562.75494,1510.74476 2558.65342,1504.75524 2553.31485,1498.375 C2547.97628,1492.38539 2544.26538,1488.73959 2542.18203,1487.4375 C2541.40078,1486.91666 2540.16381,1486.26563 2538.4711,1485.48438 Z M2539.44766,1597.78906 C2539.44766,1598.70053 2539.90338,1599.28646 2540.81485,1599.54688 C2541.20547,1599.80729 2541.53099,1599.9375 2541.79141,1599.9375 C2546.60914,1597.59374 2551.55701,1594.53387 2556.63516,1590.75781 C2563.53624,1585.15883 2568.09348,1579.49482 2570.30703,1573.76562 C2569.7862,1573.24479 2569.20027,1572.72396 2568.54922,1572.20312 L2568.35391,1572.20312 C2564.83827,1575.97919 2559.56488,1581.38278 2552.5336,1588.41406 C2550.45025,1590.62762 2547.91122,1592.51562 2544.91641,1594.07812 C2542.83307,1595.38021 2541.07527,1596.55208 2539.64297,1597.59375 L2539.44766,1597.78906 Z" id="esports"></path>
        </g>
    </g>
</svg>