<?xml version="1.0" encoding="UTF-8"?>
<svg width="891px" height="265px" viewBox="0 0 891 265" version="1.1" xmlns="http://www.w3.org/2000/svg" xmlns:xlink="http://www.w3.org/1999/xlink">
    <!-- Generator: Sketch 54.1 (76490) - https://sketchapp.com -->
    <title>succes</title>
    <desc>Created with Sketch.</desc>
    <g id="Page-1" stroke="none" stroke-width="1" fill="none" fill-rule="evenodd">
        <g id="Artboard" transform="translate(-2980.000000, -1385.000000)" fill-rule="nonzero" stroke="#FFFFFF">
            <path d="M3102.28962,1386.1875 C3110.72716,1386.70834 3114.94587,1387.125 3114.94587,1387.4375 C3116.61255,1387.95834 3117.9667,1388.99999 3119.00837,1390.5625 C3120.77921,1393.06251 3121.66462,1396.76039 3121.66462,1401.65625 C3121.66462,1404.9896 3121.30004,1408.42707 3120.57087,1411.96875 C3117.34169,1419.57295 3114.73755,1426.13539 3112.75837,1431.65625 C3109.94586,1440.09379 3107.18547,1449.62495 3104.47712,1460.25 C3104.16462,1463.68752 3103.74796,1466.03124 3103.22712,1467.28125 C3101.87295,1469.57293 3100.15422,1470.71875 3098.07087,1470.71875 C3097.86254,1470.71875 3097.34171,1470.61458 3096.50837,1470.40625 C3096.19587,1470.51042 3095.98754,1470.5625 3095.88337,1470.5625 L3099.63337,1448.53125 L3099.63337,1448.375 C3098.07086,1453.06252 3096.19588,1460.30203 3094.00837,1470.09375 L3093.85212,1470.25 C3090.20627,1470.25 3087.7063,1468.7396 3086.35212,1465.71875 C3085.62295,1464.67708 3084.84171,1463.6875 3084.00837,1462.75 C3083.17504,1460.97916 3082.75837,1457.48961 3082.75837,1452.28125 C3082.75837,1445.09371 3083.38337,1436.13547 3084.63337,1425.40625 C3074.73749,1431.86462 3065.72716,1438.2708 3057.60212,1444.625 C3051.14376,1449.52086 3042.75842,1456.76037 3032.44587,1466.34375 L3031.82087,1466.1875 L3031.19587,1466.1875 C3030.88337,1466.1875 3030.62296,1466.39583 3030.41462,1466.8125 L3030.57087,1468.0625 C3027.65419,1470.77085 3024.26881,1474.05206 3020.41462,1477.90625 C3024.68548,1482.07294 3027.81045,1484.72916 3029.78962,1485.875 C3033.85214,1488.16668 3037.44586,1490.45832 3040.57087,1492.75 C3043.69589,1494.93751 3047.49793,1497.85415 3051.97712,1501.5 C3058.64382,1507.02086 3062.28962,1510.09375 3062.91462,1510.71875 C3063.85213,1512.59376 3065.93544,1515.40623 3069.16462,1519.15625 C3069.89379,1519.88542 3071.61253,1522.02082 3074.32087,1525.5625 C3075.77921,1527.12501 3077.23753,1529.36457 3078.69587,1532.28125 C3078.80004,1532.28125 3079.26879,1533.06249 3080.10212,1534.625 L3080.25837,1534.625 C3077.23752,1528.2708 3075.72712,1525.04167 3075.72712,1524.9375 C3078.3313,1528.47918 3080.31045,1531.65624 3081.66462,1534.46875 C3085.62298,1542.48962 3087.60212,1550.24996 3087.60212,1557.75 L3087.60212,1560.09375 L3087.44587,1560.09375 C3087.34171,1559.67708 3087.08129,1559.15625 3086.66462,1558.53125 C3086.66462,1558.94792 3086.14379,1559.67708 3085.10212,1560.71875 C3084.78962,1560.71875 3084.37296,1562.22915 3083.85212,1565.25 C3083.53962,1566.29167 3083.38337,1568.0104 3083.38337,1570.40625 C3082.9667,1574.26044 3082.49796,1576.86458 3081.97712,1578.21875 C3081.76879,1579.36459 3081.66462,1580.87499 3081.66462,1582.75 C3081.45629,1583.79167 3080.62296,1585.14583 3079.16462,1586.8125 C3078.85212,1587.85417 3077.08131,1590.30206 3073.85212,1594.15625 L3074.32087,1594.625 C3069.94585,1598.68752 3066.03964,1601.91665 3062.60212,1604.3125 C3053.95625,1610.6667 3047.86256,1614.15625 3044.32087,1614.78125 C3042.23753,1615.19792 3040.77921,1615.40625 3039.94587,1615.40625 L3039.32087,1613.53125 C3038.2792,1614.05209 3037.39379,1614.36458 3036.66462,1614.46875 L3036.35212,1615.09375 C3037.28963,1615.30208 3038.17504,1615.40625 3039.00837,1615.40625 L3039.00837,1615.5625 C3038.69587,1615.5625 3036.71672,1616.55207 3033.07087,1618.53125 C3032.23754,1619.15625 3028.48757,1620.35416 3021.82087,1622.125 C3017.96669,1622.95834 3014.84172,1623.375 3012.44587,1623.375 L3011.97712,1623.375 C3010.72712,1623.375 3009.52921,1623.21875 3008.38337,1622.90625 C3006.4042,1623.21875 3004.68546,1623.375 3003.22712,1623.375 L3002.91462,1623.375 C2995.72709,1623.375 2989.84173,1618.06255 2985.25837,1607.4375 C2984.2167,1604.41665 2983.27921,1601.2396 2982.44587,1597.90625 C2981.50837,1593.32289 2981.03962,1590.09376 2981.03962,1588.21875 L2981.19587,1588.21875 C2984.63339,1590.51043 2988.80001,1591.65625 2993.69587,1591.65625 C3002.13341,1591.65625 3011.97707,1588.58336 3023.22712,1582.4375 C3026.45631,1580.66666 3030.05002,1578.32293 3034.00837,1575.40625 C3039.52923,1570.82289 3044.42502,1566.50002 3048.69587,1562.4375 C3048.69587,1562.33333 3049.32087,1561.60417 3050.57087,1560.25 C3054.11256,1556.29165 3056.45628,1552.64585 3057.60212,1549.3125 C3058.33129,1547.43749 3058.69587,1545.40626 3058.69587,1543.21875 C3058.59171,1542.28125 3058.53962,1541.60417 3058.53962,1541.1875 C3056.45628,1537.54165 3055.05004,1535.25 3054.32087,1534.3125 C3051.40419,1531.81249 3048.43547,1529.72917 3045.41462,1528.0625 C3043.64378,1527.02083 3037.23759,1523.27087 3026.19587,1516.8125 C3021.09168,1513.68748 3016.66464,1510.66668 3012.91462,1507.75 C3005.31042,1501.81247 3001.09171,1496.81252 3000.25837,1492.75 L2999.78962,1489.78125 C2996.56044,1486.96874 2994.52921,1484.78126 2993.69587,1483.21875 C2992.13336,1480.8229 2991.35212,1478.01043 2991.35212,1474.78125 C2991.35212,1465.51037 2992.44586,1458.84377 2994.63337,1454.78125 C2996.09171,1451.1354 2999.32085,1446.55211 3004.32087,1441.03125 C3006.71672,1438.42707 3008.74795,1436.50001 3010.41462,1435.25 C3018.01883,1429.41664 3026.03958,1424.00003 3034.47712,1419 C3046.56052,1411.49996 3057.8104,1405.30211 3068.22712,1400.40625 C3072.18548,1398.63541 3075.88336,1397.17709 3079.32087,1396.03125 C3082.13339,1395.19791 3084.94586,1394.78125 3087.75837,1394.78125 C3089.52921,1394.78125 3091.45628,1394.9375 3093.53962,1395.25 C3093.85212,1393.27082 3094.37295,1391.50001 3095.10212,1389.9375 C3095.93546,1388.37499 3097.08128,1387.33334 3098.53962,1386.8125 C3099.78963,1386.39583 3101.03962,1386.1875 3102.28962,1386.1875 Z M3059.16462,1410.09375 C3059.26879,1410.82292 3059.58129,1411.1875 3060.10212,1411.1875 C3064.89381,1409.10416 3067.81045,1407.43751 3068.85212,1406.1875 L3069.00837,1406.03125 C3068.5917,1405.61458 3068.33129,1405.40625 3068.22712,1405.40625 C3064.68544,1406.44792 3061.66464,1408.01041 3059.16462,1410.09375 Z M3055.25837,1411.8125 L3056.35212,1411.34375 L3056.35212,1411.03125 C3056.35212,1410.92708 3056.24796,1410.875 3056.03962,1410.875 C3055.62295,1410.875 3055.36254,1411.1875 3055.25837,1411.8125 Z M3006.03962,1451.34375 C3007.28963,1451.34375 3008.48753,1450.77084 3009.63337,1449.625 C3009.84171,1449.41667 3010.83128,1448.1146 3012.60212,1445.71875 C3019.26882,1439.15622 3024.58127,1434.3646 3028.53962,1431.34375 C3033.43548,1427.48956 3037.65419,1424.46876 3041.19587,1422.28125 C3044.21672,1420.71874 3048.27918,1417.75002 3053.38337,1413.375 L3054.63337,1412.125 L3054.00837,1412.125 C3052.55003,1412.125 3050.98755,1412.85416 3049.32087,1414.3125 C3041.50833,1418.89586 3033.74799,1424.15622 3026.03962,1430.09375 C3024.47711,1431.55209 3022.96671,1432.95833 3021.50837,1434.3125 C3019.21669,1436.08334 3017.18546,1437.80208 3015.41462,1439.46875 C3012.18544,1442.59377 3009.84171,1445.19791 3008.38337,1447.28125 C3006.7167,1449.78126 3005.88337,1451.13542 3005.88337,1451.34375 L3006.03962,1451.34375 Z M3097.91462,1467.4375 C3099.47713,1467.33333 3100.25837,1467.22917 3100.25837,1467.125 C3100.25837,1467.02083 3100.41462,1466.39584 3100.72712,1465.25 L3100.41462,1465.09375 C3100.20629,1465.09375 3099.42505,1465.77083 3098.07087,1467.125 C3098.07087,1467.125 3098.01879,1467.22917 3097.91462,1467.4375 Z M3045.25837,1506.65625 C3048.17505,1509.0521 3050.83128,1510.45833 3053.22712,1510.875 C3052.18545,1509.10416 3050.41464,1507.85417 3047.91462,1507.125 C3046.66462,1506.8125 3045.77921,1506.65625 3045.25837,1506.65625 Z M3053.69587,1511.1875 C3053.69587,1512.125 3054.26878,1512.95833 3055.41462,1513.6875 C3060.20631,1518.27086 3062.9667,1521.18749 3063.69587,1522.4375 C3066.50839,1525.77085 3068.85211,1529.05207 3070.72712,1532.28125 C3072.60213,1535.82293 3073.85212,1537.85416 3074.47712,1538.375 C3074.89379,1538.79167 3075.57087,1539.10417 3076.50837,1539.3125 C3076.50837,1538.375 3076.14379,1537.22917 3075.41462,1535.875 C3073.12294,1531.39581 3069.84173,1526.60419 3065.57087,1521.5 C3061.30002,1516.70831 3058.3313,1513.79167 3056.66462,1512.75 C3056.03962,1512.33333 3055.05005,1511.8125 3053.69587,1511.1875 Z M3054.47712,1601.03125 C3054.47712,1601.76042 3054.8417,1602.22917 3055.57087,1602.4375 C3055.88337,1602.64583 3056.14379,1602.75 3056.35212,1602.75 C3060.20631,1600.87499 3064.1646,1598.4271 3068.22712,1595.40625 C3073.74798,1590.92706 3077.39378,1586.39586 3079.16462,1581.8125 C3078.74795,1581.39583 3078.27921,1580.97917 3077.75837,1580.5625 L3077.60212,1580.5625 C3074.78961,1583.58335 3070.5709,1587.90622 3064.94587,1593.53125 C3063.2792,1595.30209 3061.24797,1596.81249 3058.85212,1598.0625 C3057.18545,1599.10417 3055.77921,1600.04166 3054.63337,1600.875 L3054.47712,1601.03125 Z M3239.71912,1421.8125 C3245.44832,1421.8125 3251.12535,1422.90624 3256.75037,1425.09375 C3258.72955,1425.61459 3260.13579,1426.34375 3260.96912,1427.28125 C3261.90663,1428.42709 3262.37537,1429.72916 3262.37537,1431.1875 C3262.47954,1431.1875 3262.53162,1431.39583 3262.53162,1431.8125 L3262.53162,1432.75 C3262.53162,1438.4792 3257.58376,1463.16645 3247.68787,1506.8125 C3245.08369,1518.06256 3243.36496,1525.14582 3242.53162,1528.0625 C3236.59409,1548.16677 3231.69831,1567.22908 3227.84412,1585.25 C3226.07328,1594.00004 3225.18787,1601.08331 3225.18787,1606.5 L3225.18787,1607.125 C3225.18787,1612.95836 3226.12536,1618.53122 3228.00037,1623.84375 C3228.10454,1624.46875 3228.15662,1624.88542 3228.15662,1625.09375 C3228.15662,1625.82292 3227.53163,1626.23958 3226.28162,1626.34375 C3225.13578,1626.44792 3224.14621,1626.5 3223.31287,1626.5 C3216.85451,1626.5 3211.02123,1624.00003 3205.81287,1619 C3204.1462,1616.91666 3203.00038,1614.31252 3202.37537,1611.1875 C3200.81287,1604.72913 3200.03162,1596.18755 3200.03162,1585.5625 C3200.03162,1575.04161 3200.7087,1566.65628 3202.06287,1560.40625 L3205.81287,1540.09375 C3197.37533,1549.88547 3187.1671,1561.34368 3175.18787,1574.46875 C3164.35449,1586.44798 3158.46913,1593.27083 3157.53162,1594.9375 C3154.92744,1597.85418 3152.47955,1600.14583 3150.18787,1601.8125 C3141.02116,1609.00004 3133.98998,1612.59375 3129.09412,1612.59375 C3127.32328,1612.59375 3125.86496,1611.86459 3124.71912,1610.40625 C3124.51079,1610.40625 3120.50041,1608.32294 3112.68787,1604.15625 C3108.10452,1602.17707 3105.23996,1600.51042 3104.09412,1599.15625 C3102.21911,1597.38541 3100.86496,1595.77084 3100.03162,1594.3125 C3098.15661,1590.77082 3097.21912,1587.22918 3097.21912,1583.6875 C3097.21912,1579.62498 3100.55242,1562.22932 3107.21912,1531.5 C3114.30249,1500.24984 3120.60451,1476.7605 3126.12537,1461.03125 C3127.06288,1458.84374 3128.36495,1456.60418 3130.03162,1454.3125 C3132.3233,1451.29165 3134.92744,1449.3125 3137.84412,1448.375 C3139.1983,1448.0625 3140.7087,1447.90625 3142.37537,1447.90625 C3145.18789,1447.90625 3147.5837,1448.73958 3149.56287,1450.40625 L3151.75037,1451.34375 C3150.81287,1452.69792 3149.87538,1454.72915 3148.93787,1457.4375 C3148.62537,1458.68751 3148.00038,1461.08332 3147.06287,1464.625 C3146.0212,1467.33335 3145.13579,1469.98957 3144.40662,1472.59375 C3143.88579,1475.40626 3143.20871,1479.93747 3142.37537,1486.1875 C3141.75037,1489.41668 3140.96913,1492.54165 3140.03162,1495.5625 C3139.09412,1498.27085 3138.62537,1499.88541 3138.62537,1500.40625 L3138.62537,1500.5625 C3138.62537,1501.1875 3138.67746,1502.22916 3138.78162,1503.6875 C3140.7608,1502.85416 3142.79203,1499.46878 3144.87537,1493.53125 C3146.12538,1490.09373 3147.42745,1484.88545 3148.78162,1477.90625 C3149.71913,1472.17705 3150.86495,1463.47923 3152.21912,1451.8125 L3152.37537,1451.5 C3153.52121,1451.5 3154.56287,1452.33333 3155.50037,1454 C3156.43788,1456.08334 3156.90662,1459.2604 3156.90662,1463.53125 C3156.90662,1471.86462 3155.55247,1480.97912 3152.84412,1490.875 C3146.28159,1515.25012 3141.43789,1533.47911 3138.31287,1545.5625 C3133.83368,1564.00009 3131.59412,1575.61456 3131.59412,1580.40625 C3133.98997,1579.88541 3137.16702,1578.4271 3141.12537,1576.03125 C3142.37538,1575.09375 3144.45869,1573.16668 3147.37537,1570.25 L3151.43787,1565.5625 C3155.50039,1560.35414 3159.51077,1554.78128 3163.46912,1548.84375 C3171.90667,1536.44785 3181.33365,1521.39592 3191.75037,1503.6875 C3200.81292,1488.27076 3206.69828,1478.4271 3209.40662,1474.15625 C3211.48997,1471.65624 3215.81284,1462.073 3222.37537,1445.40625 C3227.3754,1433.01035 3231.17744,1425.51043 3233.78162,1422.90625 C3234.40663,1422.17708 3235.60453,1421.8125 3237.37537,1421.8125 L3239.71912,1421.8125 Z M3265.34412,1429.15625 C3266.28163,1430.30209 3266.75037,1431.60416 3266.75037,1433.0625 C3266.75037,1434.10417 3266.22955,1436.4479 3265.18787,1440.09375 C3262.79203,1453.42715 3259.51081,1469.52074 3255.34412,1488.375 C3255.13579,1489.10417 3255.03162,1489.57292 3255.03162,1489.78125 L3254.87537,1489.78125 L3254.87537,1486.65625 C3254.87537,1481.96873 3255.60453,1476.55211 3257.06287,1470.40625 C3258.00038,1465.71873 3259.1462,1461.08336 3260.50037,1456.5 L3262.84412,1449.3125 C3262.84412,1445.14581 3263.26079,1441.2396 3264.09412,1437.59375 C3264.71913,1433.84373 3265.13579,1431.03126 3265.34412,1429.15625 Z M3236.59412,1518.6875 L3236.59412,1520.71875 C3236.69829,1522.80209 3237.21912,1523.84375 3238.15662,1523.84375 L3238.46912,1523.84375 C3239.19829,1523.32291 3239.56287,1521.44793 3239.56287,1518.21875 L3239.56287,1516.34375 C3239.56287,1513.84374 3240.3962,1510.45835 3242.06287,1506.1875 C3242.37537,1505.25 3242.73995,1502.85419 3243.15662,1499 C3243.88579,1495.14581 3244.82328,1491.18752 3245.96912,1487.125 C3246.80246,1484.72915 3247.53162,1482.07293 3248.15662,1479.15625 C3248.67746,1477.17707 3249.30245,1475.45834 3250.03162,1474 L3250.03162,1473.53125 C3250.03162,1471.03124 3250.60453,1467.38544 3251.75037,1462.59375 L3254.25037,1454.625 C3255.29205,1451.60415 3256.43787,1448.63543 3257.68787,1445.71875 L3258.15662,1441.8125 L3260.34412,1432.75 C3258.67745,1434.72918 3257.84412,1436.03125 3257.84412,1436.65625 C3255.65661,1442.17711 3254.09413,1447.02081 3253.15662,1451.1875 C3253.15662,1452.64584 3251.90664,1457.17705 3249.40662,1464.78125 C3247.73995,1468.94794 3246.02122,1474.62496 3244.25037,1481.8125 C3243.41704,1485.77085 3241.85455,1492.38537 3239.56287,1501.65625 C3238.5212,1506.03127 3237.79204,1510.04165 3237.37537,1513.6875 L3236.59412,1518.6875 Z M3253.78162,1494.15625 L3253.93787,1494.15625 L3253.93787,1494.3125 L3253.78162,1494.3125 L3253.78162,1494.15625 Z M3253.78162,1494.46875 L3253.93787,1494.46875 C3253.10454,1497.8021 3252.68787,1499.57292 3252.68787,1499.78125 L3252.53162,1499.78125 C3252.84412,1498.32291 3253.26079,1496.55209 3253.78162,1494.46875 Z M3158.15662,1585.09375 L3158.31287,1585.09375 C3163.10456,1581.03123 3167.06286,1577.64585 3170.18787,1574.9375 C3175.29207,1569.93747 3178.31287,1566.70834 3179.25037,1565.25 C3188.62542,1554.20828 3193.88578,1547.59376 3195.03162,1545.40625 C3198.15664,1540.71873 3200.91703,1535.61461 3203.31287,1530.09375 C3202.5837,1531.03125 3198.365,1536.91661 3190.65662,1547.75 C3187.53161,1552.22919 3182.01083,1558.89579 3174.09412,1567.75 C3172.21911,1569.83334 3169.61497,1572.59373 3166.28162,1576.03125 C3162.11494,1580.3021 3159.40663,1583.32291 3158.15662,1585.09375 Z M3156.59412,1587.125 C3155.34412,1588.16667 3154.71912,1588.89583 3154.71912,1589.3125 L3154.71912,1589.46875 C3154.82329,1590.09375 3155.0837,1590.40625 3155.50037,1590.40625 C3155.91704,1590.40625 3156.3337,1589.46876 3156.75037,1587.59375 L3156.75037,1587.28125 C3156.75037,1587.17708 3156.69829,1587.125 3156.59412,1587.125 Z M3378.24237,1391.8125 C3380.84655,1391.8125 3383.71111,1393.68748 3386.83612,1397.4375 C3392.77365,1403.68753 3395.74237,1407.33333 3395.74237,1408.375 C3395.84654,1409.10417 3395.89862,1409.83333 3395.89862,1410.5625 L3395.89862,1411.65625 C3395.89862,1415.19793 3395.27363,1418.3229 3394.02362,1421.03125 C3392.87779,1422.17709 3391.73196,1423.68749 3390.58612,1425.5625 C3386.31527,1432.75004 3382.25281,1441.18745 3378.39862,1450.875 L3378.24237,1450.875 C3379.49238,1444.62497 3381.41944,1438.79169 3384.02362,1433.375 C3386.3153,1428.58331 3387.8257,1425.82292 3388.55487,1425.09375 C3389.49238,1424.05208 3390.58612,1423.11459 3391.83612,1422.28125 C3392.04446,1421.86458 3392.14862,1421.5 3392.14862,1421.1875 C3392.04446,1420.25 3391.83613,1419.78125 3391.52362,1419.78125 L3391.05487,1419.78125 C3390.11737,1419.78125 3388.91946,1420.71874 3387.46112,1422.59375 C3384.85694,1425.51043 3382.66947,1428.42707 3380.89862,1431.34375 C3378.50278,1435.40627 3376.47155,1439.62498 3374.80487,1444 C3373.24237,1448.06252 3371.83613,1452.74997 3370.58612,1458.0625 C3368.60695,1468.27088 3366.9403,1475.92706 3365.58612,1481.03125 C3364.64862,1485.09377 3364.17987,1487.95833 3364.17987,1489.625 L3364.17987,1491.5 C3364.17987,1494.52085 3363.76321,1497.54165 3362.92987,1500.5625 C3362.72154,1501.91667 3362.61737,1503.42708 3362.61737,1505.09375 C3362.61737,1507.4896 3362.66946,1509.72916 3362.77362,1511.8125 C3363.60696,1512.64584 3364.28404,1513.0625 3364.80487,1513.0625 C3364.90904,1514.41667 3365.53404,1516.4479 3366.67987,1519.15625 C3367.09654,1519.88542 3367.56529,1520.61458 3368.08612,1521.34375 C3367.66946,1523.21876 3367.46112,1524.83333 3367.46112,1526.1875 C3368.5028,1525.04166 3369.17987,1523.94792 3369.49237,1522.90625 L3369.64862,1522.90625 C3370.79446,1523.73959 3372.30486,1524.46875 3374.17987,1525.09375 C3375.22155,1525.71875 3376.2632,1526.5 3377.30487,1527.4375 C3376.36737,1528.0625 3374.23197,1528.99999 3370.89862,1530.25 C3367.56527,1531.39584 3364.54447,1531.96875 3361.83612,1531.96875 L3361.52362,1531.96875 C3357.04444,1531.96875 3352.98198,1530.25002 3349.33612,1526.8125 C3347.14861,1524.93749 3345.42988,1523.16667 3344.17987,1521.5 C3337.40901,1512.43745 3334.02362,1501.91673 3334.02362,1489.9375 L3334.02362,1488.375 C3334.02362,1480.45829 3335.89861,1470.92714 3339.64862,1459.78125 C3337.46111,1461.86459 3334.90906,1464.78123 3331.99237,1468.53125 C3324.07567,1478.42713 3317.14865,1488.42703 3311.21112,1498.53125 C3303.50275,1511.44798 3297.25281,1524.05202 3292.46112,1536.34375 C3290.06528,1542.69795 3288.24238,1548.27081 3286.99237,1553.0625 C3284.49236,1562.75005 3283.24237,1570.82288 3283.24237,1577.28125 L3283.24237,1578.0625 C3283.24237,1583.68753 3284.3882,1587.59374 3286.67987,1589.78125 C3288.24238,1591.55209 3289.80487,1592.4375 3291.36737,1592.4375 C3292.40905,1592.4375 3294.02361,1592.22917 3296.21112,1591.8125 C3296.73196,1591.91667 3297.04446,1591.96875 3297.14862,1591.96875 C3297.77363,1591.96875 3299.75277,1591.34376 3303.08612,1590.09375 C3304.02363,1589.78125 3306.00278,1589.46875 3309.02362,1589.15625 C3311.3153,1588.63541 3312.72154,1587.95834 3313.24237,1587.125 C3315.95072,1585.04166 3317.77362,1583.89583 3318.71112,1583.6875 C3315.89861,1584 3314.23196,1584.15625 3313.71112,1584.15625 L3313.71112,1584 C3328.7112,1578.68747 3340.42983,1573.89585 3348.86737,1569.625 C3353.5549,1566.81249 3358.24235,1564.46876 3362.92987,1562.59375 C3366.78406,1561.03124 3369.28404,1560.25 3370.42987,1560.25 C3371.57571,1560.25 3372.8257,1561.86457 3374.17987,1565.09375 C3375.01321,1567.38543 3375.42987,1568.94791 3375.42987,1569.78125 C3374.17987,1570.71875 3371.31531,1573.11456 3366.83612,1576.96875 C3361.2111,1581.44794 3357.14864,1584.15625 3354.64862,1585.09375 C3353.50279,1585.61459 3352.51321,1586.49999 3351.67987,1587.75 L3352.30487,1587.75 C3354.90905,1587.75 3358.13819,1586.29168 3361.99237,1583.375 C3370.22158,1577.95831 3374.75279,1574.88542 3375.58612,1574.15625 L3376.05487,1573.6875 L3376.05487,1574 C3376.88821,1574.41667 3377.30487,1574.83333 3377.30487,1575.25 C3377.30487,1577.22918 3375.32573,1579.72915 3371.36737,1582.75 C3369.90903,1583.6875 3369.17987,1584.26042 3369.17987,1584.46875 C3367.30486,1586.55209 3365.32572,1588.37499 3363.24237,1589.9375 C3357.92985,1593.89585 3352.35699,1597.17707 3346.52362,1599.78125 C3338.91942,1603.32293 3329.17993,1606.65623 3317.30487,1609.78125 C3304.59648,1613.01043 3293.607,1614.625 3284.33612,1614.625 C3280.48194,1614.625 3277.30489,1614.3125 3274.80487,1613.6875 C3272.8257,1614.20834 3271.21113,1614.46875 3269.96112,1614.46875 C3260.58608,1614.46875 3254.64864,1605.87509 3252.14862,1588.6875 C3251.52362,1583.68747 3251.21112,1578.58336 3251.21112,1573.375 C3251.21112,1562.74995 3252.82569,1552.02089 3256.05487,1541.1875 C3257.72155,1535.24997 3259.96111,1528.42712 3262.77362,1520.71875 C3270.89866,1499.26031 3280.22149,1479.72925 3290.74237,1462.125 C3295.53406,1453.99996 3301.47151,1445.25005 3308.55487,1435.875 C3325.11746,1415.35406 3340.22147,1405.09375 3353.86737,1405.09375 C3356.26322,1405.09375 3358.86736,1405.51041 3361.67987,1406.34375 C3362.20071,1405.19791 3365.53401,1401.55211 3371.67987,1395.40625 C3373.76322,1393.21874 3375.42987,1392.07292 3376.67987,1391.96875 C3377.51321,1391.86458 3378.03404,1391.8125 3378.24237,1391.8125 Z M3263.39862,1543.53125 L3263.39862,1543.84375 C3263.50279,1544.26042 3263.65904,1544.46875 3263.86737,1544.46875 C3265.01321,1543.84375 3265.58612,1542.64584 3265.58612,1540.875 C3266.41946,1538.79166 3267.25279,1536.39585 3268.08612,1533.6875 C3271.52364,1523.68745 3275.48194,1513.89588 3279.96112,1504.3125 C3285.27365,1493.27078 3292.25275,1481.13548 3300.89862,1467.90625 C3304.75281,1461.44788 3309.38818,1454.78128 3314.80487,1447.90625 C3317.30489,1444.46873 3321.41943,1439.83336 3327.14862,1434 C3329.7528,1431.39582 3331.67987,1429.26042 3332.92987,1427.59375 C3335.01322,1425.1979 3336.05487,1423.79167 3336.05487,1423.375 L3336.05487,1422.59375 C3336.05487,1421.86458 3335.74238,1421.5 3335.11737,1421.5 C3334.3882,1421.5 3333.5028,1422.28124 3332.46112,1423.84375 C3330.06528,1426.5521 3326.26323,1430.61456 3321.05487,1436.03125 L3311.36737,1447.28125 C3307.92986,1451.96877 3305.32572,1455.92707 3303.55487,1459.15625 C3302.92987,1460.30209 3300.74239,1463.58331 3296.99237,1469 C3293.24236,1474.62503 3290.42988,1479.31248 3288.55487,1483.0625 C3286.8882,1486.39585 3284.17989,1491.44788 3280.42987,1498.21875 C3275.84652,1506.44796 3271.62781,1516.18744 3267.77362,1527.4375 C3267.56529,1528.47917 3266.88821,1530.56248 3265.74237,1533.6875 C3265.22154,1535.25001 3264.64863,1537.74998 3264.02362,1541.1875 C3263.60696,1542.02084 3263.39862,1542.80208 3263.39862,1543.53125 Z M3366.52362,1450.5625 L3366.52362,1451.5 C3368.08613,1449.83333 3369.85695,1446.13545 3371.83612,1440.40625 L3375.11737,1429 L3374.17987,1429 C3373.1382,1429.3125 3371.83613,1431.39581 3370.27362,1435.25 C3369.54445,1437.43751 3368.91946,1439.41666 3368.39862,1441.1875 C3367.14862,1444.83335 3366.52362,1447.95832 3366.52362,1450.5625 Z M3366.52362,1456.34375 C3366.00279,1457.28125 3365.74237,1458.11458 3365.74237,1458.84375 L3365.74237,1459.9375 L3365.89862,1460.25 C3366.52363,1459.52083 3366.83612,1458.73959 3366.83612,1457.90625 L3366.83612,1457.28125 L3366.67987,1456.34375 L3366.52362,1456.34375 Z M3362.46112,1472.59375 L3362.46112,1473.21875 C3362.46112,1474.15625 3362.61737,1474.9375 3362.92987,1475.5625 C3364.38821,1474.10416 3365.11737,1472.43751 3365.11737,1470.5625 C3365.11737,1469.72916 3364.96113,1468.89584 3364.64862,1468.0625 C3363.19028,1469.52084 3362.46112,1471.03124 3362.46112,1472.59375 Z M3357.46112,1472.90625 L3357.61737,1472.90625 C3358.03404,1472.59375 3358.24237,1472.28125 3358.24237,1471.96875 L3358.24237,1471.34375 C3358.03404,1471.34375 3357.77363,1471.86458 3357.46112,1472.90625 Z M3281.67987,1512.59375 C3283.86739,1510.40624 3285.42987,1507.54168 3286.36737,1504 L3286.21112,1504 C3284.33611,1505.35417 3282.98196,1507.28124 3282.14862,1509.78125 C3281.94029,1510.61459 3281.78404,1511.55208 3281.67987,1512.59375 Z M3279.96112,1517.125 C3279.96112,1515.56249 3280.48195,1514.26042 3281.52362,1513.21875 C3281.52362,1514.88542 3281.0028,1516.1875 3279.96112,1517.125 Z M3277.14862,1523.21875 C3277.14862,1522.07291 3277.66945,1520.87501 3278.71112,1519.625 C3278.71112,1520.66667 3278.1903,1521.86458 3277.14862,1523.21875 Z M3275.74237,1526.03125 C3275.0132,1527.48959 3274.64862,1528.53125 3274.64862,1529.15625 L3274.64862,1529.3125 L3274.80487,1529.3125 C3275.42988,1527.43749 3275.74237,1526.34375 3275.74237,1526.03125 Z M3261.67987,1546.1875 L3261.67987,1546.65625 C3261.67987,1546.55208 3261.73196,1546.44792 3261.83612,1546.34375 L3261.83612,1546.1875 L3261.67987,1546.1875 Z M3260.89862,1548.0625 C3260.16945,1550.04168 3259.80487,1551.23958 3259.80487,1551.65625 L3259.80487,1551.8125 C3260.63821,1549.83332 3261.05487,1548.63542 3261.05487,1548.21875 L3261.05487,1548.0625 L3260.89862,1548.0625 Z M3259.33612,1552.75 C3256.94028,1557.33336 3255.74237,1561.1354 3255.74237,1564.15625 L3255.74237,1565.09375 C3257.20071,1562.80207 3258.29445,1559.72919 3259.02362,1555.875 L3259.49237,1552.90625 L3259.49237,1552.75 L3259.33612,1552.75 Z M3296.36737,1594 L3295.27362,1594 C3294.23195,1594 3293.08613,1594.10417 3291.83612,1594.3125 L3291.83612,1594.46875 C3292.8778,1594.98959 3293.55487,1595.25 3293.86737,1595.25 C3294.17988,1595.25 3295.42986,1594.83334 3297.61737,1594 L3297.61737,1593.84375 C3297.20071,1593.94792 3296.78404,1594 3296.36737,1594 Z M3512.85938,1391.8125 C3515.46355,1391.8125 3518.32811,1393.68748 3521.45312,1397.4375 C3527.39065,1403.68753 3530.35938,1407.33333 3530.35938,1408.375 C3530.46354,1409.10417 3530.51562,1409.83333 3530.51562,1410.5625 L3530.51562,1411.65625 C3530.51562,1415.19793 3529.89063,1418.3229 3528.64062,1421.03125 C3527.49479,1422.17709 3526.34896,1423.68749 3525.20312,1425.5625 C3520.93227,1432.75004 3516.86981,1441.18745 3513.01562,1450.875 L3512.85938,1450.875 C3514.10938,1444.62497 3516.03645,1438.79169 3518.64062,1433.375 C3520.9323,1428.58331 3522.4427,1425.82292 3523.17188,1425.09375 C3524.10938,1424.05208 3525.20312,1423.11459 3526.45312,1422.28125 C3526.66146,1421.86458 3526.76562,1421.5 3526.76562,1421.1875 C3526.66146,1420.25 3526.45313,1419.78125 3526.14062,1419.78125 L3525.67188,1419.78125 C3524.73437,1419.78125 3523.53647,1420.71874 3522.07812,1422.59375 C3519.47395,1425.51043 3517.28647,1428.42707 3515.51562,1431.34375 C3513.11978,1435.40627 3511.08855,1439.62498 3509.42188,1444 C3507.85937,1448.06252 3506.45313,1452.74997 3505.20312,1458.0625 C3503.22395,1468.27088 3501.5573,1475.92706 3500.20312,1481.03125 C3499.26562,1485.09377 3498.79688,1487.95833 3498.79688,1489.625 L3498.79688,1491.5 C3498.79688,1494.52085 3498.38021,1497.54165 3497.54688,1500.5625 C3497.33854,1501.91667 3497.23438,1503.42708 3497.23438,1505.09375 C3497.23438,1507.4896 3497.28646,1509.72916 3497.39062,1511.8125 C3498.22396,1512.64584 3498.90104,1513.0625 3499.42188,1513.0625 C3499.52604,1514.41667 3500.15104,1516.4479 3501.29688,1519.15625 C3501.71354,1519.88542 3502.18229,1520.61458 3502.70312,1521.34375 C3502.28646,1523.21876 3502.07812,1524.83333 3502.07812,1526.1875 C3503.1198,1525.04166 3503.79687,1523.94792 3504.10938,1522.90625 L3504.26562,1522.90625 C3505.41146,1523.73959 3506.92187,1524.46875 3508.79688,1525.09375 C3509.83855,1525.71875 3510.8802,1526.5 3511.92188,1527.4375 C3510.98437,1528.0625 3508.84897,1528.99999 3505.51562,1530.25 C3502.18228,1531.39584 3499.16147,1531.96875 3496.45312,1531.96875 L3496.14062,1531.96875 C3491.66144,1531.96875 3487.59898,1530.25002 3483.95312,1526.8125 C3481.76561,1524.93749 3480.04688,1523.16667 3478.79688,1521.5 C3472.02601,1512.43745 3468.64062,1501.91673 3468.64062,1489.9375 L3468.64062,1488.375 C3468.64062,1480.45829 3470.51561,1470.92714 3474.26562,1459.78125 C3472.07811,1461.86459 3469.52606,1464.78123 3466.60938,1468.53125 C3458.69267,1478.42713 3451.76565,1488.42703 3445.82812,1498.53125 C3438.11975,1511.44798 3431.86982,1524.05202 3427.07812,1536.34375 C3424.68228,1542.69795 3422.85938,1548.27081 3421.60938,1553.0625 C3419.10936,1562.75005 3417.85938,1570.82288 3417.85938,1577.28125 L3417.85938,1578.0625 C3417.85938,1583.68753 3419.0052,1587.59374 3421.29688,1589.78125 C3422.85938,1591.55209 3424.42187,1592.4375 3425.98438,1592.4375 C3427.02605,1592.4375 3428.64061,1592.22917 3430.82812,1591.8125 C3431.34896,1591.91667 3431.66146,1591.96875 3431.76562,1591.96875 C3432.39063,1591.96875 3434.36978,1591.34376 3437.70312,1590.09375 C3438.64063,1589.78125 3440.61978,1589.46875 3443.64062,1589.15625 C3445.9323,1588.63541 3447.33854,1587.95834 3447.85938,1587.125 C3450.56772,1585.04166 3452.39062,1583.89583 3453.32812,1583.6875 C3450.51561,1584 3448.84896,1584.15625 3448.32812,1584.15625 L3448.32812,1584 C3463.3282,1578.68747 3475.04683,1573.89585 3483.48438,1569.625 C3488.1719,1566.81249 3492.85935,1564.46876 3497.54688,1562.59375 C3501.40106,1561.03124 3503.90104,1560.25 3505.04688,1560.25 C3506.19271,1560.25 3507.4427,1561.86457 3508.79688,1565.09375 C3509.63021,1567.38543 3510.04688,1568.94791 3510.04688,1569.78125 C3508.79687,1570.71875 3505.93231,1573.11456 3501.45312,1576.96875 C3495.8281,1581.44794 3491.76564,1584.15625 3489.26562,1585.09375 C3488.11979,1585.61459 3487.13021,1586.49999 3486.29688,1587.75 L3486.92188,1587.75 C3489.52605,1587.75 3492.75519,1586.29168 3496.60938,1583.375 C3504.83858,1577.95831 3509.36979,1574.88542 3510.20312,1574.15625 L3510.67188,1573.6875 L3510.67188,1574 C3511.50521,1574.41667 3511.92188,1574.83333 3511.92188,1575.25 C3511.92188,1577.22918 3509.94273,1579.72915 3505.98438,1582.75 C3504.52603,1583.6875 3503.79688,1584.26042 3503.79688,1584.46875 C3501.92187,1586.55209 3499.94272,1588.37499 3497.85938,1589.9375 C3492.54685,1593.89585 3486.97399,1597.17707 3481.14062,1599.78125 C3473.53642,1603.32293 3463.79693,1606.65623 3451.92188,1609.78125 C3439.21348,1613.01043 3428.224,1614.625 3418.95312,1614.625 C3415.09894,1614.625 3411.92189,1614.3125 3409.42188,1613.6875 C3407.4427,1614.20834 3405.82813,1614.46875 3404.57812,1614.46875 C3395.20308,1614.46875 3389.26564,1605.87509 3386.76562,1588.6875 C3386.14062,1583.68747 3385.82812,1578.58336 3385.82812,1573.375 C3385.82812,1562.74995 3387.44269,1552.02089 3390.67188,1541.1875 C3392.33855,1535.24997 3394.57811,1528.42712 3397.39062,1520.71875 C3405.51567,1499.26031 3414.83849,1479.72925 3425.35938,1462.125 C3430.15107,1453.99996 3436.08851,1445.25005 3443.17188,1435.875 C3459.73446,1415.35406 3474.83847,1405.09375 3488.48438,1405.09375 C3490.88022,1405.09375 3493.48436,1405.51041 3496.29688,1406.34375 C3496.81771,1405.19791 3500.15101,1401.55211 3506.29688,1395.40625 C3508.38022,1393.21874 3510.04687,1392.07292 3511.29688,1391.96875 C3512.13021,1391.86458 3512.65104,1391.8125 3512.85938,1391.8125 Z M3398.01562,1543.53125 L3398.01562,1543.84375 C3398.11979,1544.26042 3398.27604,1544.46875 3398.48438,1544.46875 C3399.63021,1543.84375 3400.20312,1542.64584 3400.20312,1540.875 C3401.03646,1538.79166 3401.86979,1536.39585 3402.70312,1533.6875 C3406.14064,1523.68745 3410.09894,1513.89588 3414.57812,1504.3125 C3419.89065,1493.27078 3426.86975,1481.13548 3435.51562,1467.90625 C3439.36981,1461.44788 3444.00518,1454.78128 3449.42188,1447.90625 C3451.92189,1444.46873 3456.03643,1439.83336 3461.76562,1434 C3464.3698,1431.39582 3466.29687,1429.26042 3467.54688,1427.59375 C3469.63022,1425.1979 3470.67188,1423.79167 3470.67188,1423.375 L3470.67188,1422.59375 C3470.67188,1421.86458 3470.35938,1421.5 3469.73438,1421.5 C3469.0052,1421.5 3468.1198,1422.28124 3467.07812,1423.84375 C3464.68228,1426.5521 3460.88023,1430.61456 3455.67188,1436.03125 L3445.98438,1447.28125 C3442.54686,1451.96877 3439.94272,1455.92707 3438.17188,1459.15625 C3437.54687,1460.30209 3435.35939,1463.58331 3431.60938,1469 C3427.85936,1474.62503 3425.04688,1479.31248 3423.17188,1483.0625 C3421.5052,1486.39585 3418.79689,1491.44788 3415.04688,1498.21875 C3410.46352,1506.44796 3406.24481,1516.18744 3402.39062,1527.4375 C3402.18229,1528.47917 3401.50521,1530.56248 3400.35938,1533.6875 C3399.83854,1535.25001 3399.26563,1537.74998 3398.64062,1541.1875 C3398.22396,1542.02084 3398.01562,1542.80208 3398.01562,1543.53125 Z M3501.14062,1450.5625 L3501.14062,1451.5 C3502.70313,1449.83333 3504.47395,1446.13545 3506.45312,1440.40625 L3509.73438,1429 L3508.79688,1429 C3507.7552,1429.3125 3506.45313,1431.39581 3504.89062,1435.25 C3504.16145,1437.43751 3503.53646,1439.41666 3503.01562,1441.1875 C3501.76562,1444.83335 3501.14062,1447.95832 3501.14062,1450.5625 Z M3501.14062,1456.34375 C3500.61979,1457.28125 3500.35938,1458.11458 3500.35938,1458.84375 L3500.35938,1459.9375 L3500.51562,1460.25 C3501.14063,1459.52083 3501.45312,1458.73959 3501.45312,1457.90625 L3501.45312,1457.28125 L3501.29688,1456.34375 L3501.14062,1456.34375 Z M3497.07812,1472.59375 L3497.07812,1473.21875 C3497.07812,1474.15625 3497.23437,1474.9375 3497.54688,1475.5625 C3499.00522,1474.10416 3499.73438,1472.43751 3499.73438,1470.5625 C3499.73438,1469.72916 3499.57813,1468.89584 3499.26562,1468.0625 C3497.80728,1469.52084 3497.07812,1471.03124 3497.07812,1472.59375 Z M3492.07812,1472.90625 L3492.23438,1472.90625 C3492.65104,1472.59375 3492.85938,1472.28125 3492.85938,1471.96875 L3492.85938,1471.34375 C3492.65104,1471.34375 3492.39063,1471.86458 3492.07812,1472.90625 Z M3416.29688,1512.59375 C3418.48439,1510.40624 3420.04687,1507.54168 3420.98438,1504 L3420.82812,1504 C3418.95312,1505.35417 3417.59896,1507.28124 3416.76562,1509.78125 C3416.55729,1510.61459 3416.40104,1511.55208 3416.29688,1512.59375 Z M3414.57812,1517.125 C3414.57812,1515.56249 3415.09895,1514.26042 3416.14062,1513.21875 C3416.14062,1514.88542 3415.6198,1516.1875 3414.57812,1517.125 Z M3411.76562,1523.21875 C3411.76562,1522.07291 3412.28645,1520.87501 3413.32812,1519.625 C3413.32812,1520.66667 3412.8073,1521.86458 3411.76562,1523.21875 Z M3410.35938,1526.03125 C3409.6302,1527.48959 3409.26562,1528.53125 3409.26562,1529.15625 L3409.26562,1529.3125 L3409.42188,1529.3125 C3410.04688,1527.43749 3410.35938,1526.34375 3410.35938,1526.03125 Z M3396.29688,1546.1875 L3396.29688,1546.65625 C3396.29688,1546.55208 3396.34896,1546.44792 3396.45312,1546.34375 L3396.45312,1546.1875 L3396.29688,1546.1875 Z M3395.51562,1548.0625 C3394.78645,1550.04168 3394.42188,1551.23958 3394.42188,1551.65625 L3394.42188,1551.8125 C3395.25521,1549.83332 3395.67188,1548.63542 3395.67188,1548.21875 L3395.67188,1548.0625 L3395.51562,1548.0625 Z M3393.95312,1552.75 C3391.55728,1557.33336 3390.35938,1561.1354 3390.35938,1564.15625 L3390.35938,1565.09375 C3391.81772,1562.80207 3392.91145,1559.72919 3393.64062,1555.875 L3394.10938,1552.90625 L3394.10938,1552.75 L3393.95312,1552.75 Z M3430.98438,1594 L3429.89062,1594 C3428.84895,1594 3427.70313,1594.10417 3426.45312,1594.3125 L3426.45312,1594.46875 C3427.4948,1594.98959 3428.17187,1595.25 3428.48438,1595.25 C3428.79688,1595.25 3430.04686,1594.83334 3432.23438,1594 L3432.23438,1593.84375 C3431.81771,1593.94792 3431.40104,1594 3430.98438,1594 Z M3662.78888,1412.28125 C3670.70558,1412.28125 3675.91386,1412.90624 3678.41388,1414.15625 C3684.66391,1416.5521 3688.9347,1419.93748 3691.22638,1424.3125 C3691.85138,1425.35417 3692.16388,1426.44791 3692.16388,1427.59375 L3692.16388,1427.90625 C3692.16388,1430.40626 3691.22639,1433.11457 3689.35138,1436.03125 C3685.60136,1437.38542 3681.85139,1438.0625 3678.10138,1438.0625 C3659.66378,1441.50002 3643.88269,1444.8854 3630.75763,1448.21875 C3628.77845,1448.84375 3625.23682,1449.57291 3620.13263,1450.40625 C3617.00761,1450.71875 3614.55972,1450.875 3612.78888,1450.875 L3614.19513,1452.125 C3614.19513,1452.22917 3612.42431,1452.48958 3608.88263,1452.90625 C3599.92425,1453.53125 3593.62223,1454.26041 3589.97638,1455.09375 C3589.87221,1455.19792 3588.77847,1455.45833 3586.69513,1455.875 L3586.69513,1456.03125 C3598.46602,1460.3021 3611.69505,1464.72914 3626.38263,1469.3125 L3636.07013,1472.59375 C3639.40348,1473.21875 3641.85137,1473.94791 3643.41388,1474.78125 C3644.03888,1474.98958 3644.45554,1475.30208 3644.66388,1475.71875 C3645.08054,1476.34375 3645.28888,1477.80207 3645.28888,1480.09375 C3646.74722,1484.57294 3647.47638,1487.54166 3647.47638,1489 L3647.47638,1491.1875 C3647.47638,1492.125 3647.26804,1492.59375 3646.85138,1492.59375 C3643.62219,1494.57293 3638.83057,1496.70832 3632.47638,1499 C3628.30969,1500.25001 3625.49722,1500.875 3624.03888,1500.875 C3604.66378,1503.79168 3588.30978,1507.12498 3574.97638,1510.875 C3570.60135,1512.12501 3566.53889,1513.32291 3562.78888,1514.46875 C3562.78888,1514.57292 3563.51804,1515.19791 3564.97638,1516.34375 C3562.78886,1517.90626 3560.96597,1519.41666 3559.50763,1520.875 C3559.19512,1521.1875 3558.25763,1522.95832 3556.69513,1526.1875 C3554.92428,1528.79168 3553.62221,1531.91665 3552.78888,1535.5625 L3551.38263,1539.78125 C3550.96596,1542.1771 3550.60138,1545.30206 3550.28888,1549.15625 C3550.18471,1549.67709 3550.02846,1549.9375 3549.82013,1549.9375 C3548.98679,1549.9375 3548.41388,1551.03124 3548.10138,1553.21875 C3546.64304,1558.63544 3545.91388,1562.28124 3545.91388,1564.15625 C3544.76804,1570.92712 3544.19513,1575.19791 3544.19513,1576.96875 L3544.19513,1577.28125 C3544.19513,1580.19793 3544.82012,1582.43749 3546.07013,1584 C3546.7993,1585.25001 3547.89304,1586.55208 3549.35138,1587.90625 L3548.25763,1582.125 C3548.15346,1581.39583 3548.10138,1580.40626 3548.10138,1579.15625 L3548.10138,1578.375 C3548.10138,1577.54166 3548.20554,1575.97918 3548.41388,1573.6875 C3548.41388,1572.85416 3548.15346,1571.55209 3547.63263,1569.78125 C3547.63263,1569.26041 3548.15345,1568.21876 3549.19513,1566.65625 C3550.44513,1564.2604 3551.07013,1562.07293 3551.07013,1560.09375 L3551.07013,1559.3125 L3550.75763,1555.09375 C3550.75763,1548.63538 3552.78886,1540.61463 3556.85138,1531.03125 C3558.62222,1527.17706 3560.86178,1523.89585 3563.57013,1521.1875 C3563.88263,1520.97917 3564.24721,1520.09376 3564.66388,1518.53125 C3564.97638,1517.90625 3565.49721,1517.59375 3566.22638,1517.59375 C3568.10139,1517.80208 3569.03888,1518.63541 3569.03888,1520.09375 C3569.03888,1520.71875 3567.99722,1523.16665 3565.91388,1527.4375 C3562.68469,1534.00003 3559.9243,1540.40622 3557.63263,1546.65625 C3554.50761,1555.40629 3552.94513,1563.63538 3552.94513,1571.34375 C3552.94513,1577.38545 3553.9347,1583.68747 3555.91388,1590.25 L3556.07013,1590.25 C3560.44515,1590.14583 3573.41377,1585.4063 3594.97638,1576.03125 C3606.3306,1570.92706 3614.45552,1566.8646 3619.35138,1563.84375 C3621.12222,1562.48958 3623.46594,1561.13542 3626.38263,1559.78125 C3631.38265,1557.69791 3635.44511,1556.65625 3638.57013,1556.65625 L3639.19513,1556.65625 C3640.96597,1556.65625 3642.21596,1557.07291 3642.94513,1557.90625 C3643.15346,1558.32292 3643.25763,1558.79166 3643.25763,1559.3125 C3642.84096,1562.43752 3642.63263,1564.20833 3642.63263,1564.625 L3642.63263,1565.25 C3642.63263,1565.45833 3642.73679,1565.92708 3642.94513,1566.65625 C3639.40344,1568.32292 3635.80973,1570.61457 3632.16388,1573.53125 C3631.43471,1574.36459 3631.07013,1574.83333 3631.07013,1574.9375 C3631.7993,1574.9375 3633.3097,1574.41667 3635.60138,1573.375 L3640.28888,1569.9375 C3640.80971,1569.52083 3641.43471,1569.15625 3642.16388,1568.84375 L3642.16388,1569 C3642.05971,1569.20833 3642.00763,1569.57291 3642.00763,1570.09375 C3642.32013,1572.69793 3642.47638,1574.15625 3642.47638,1574.46875 C3642.16387,1576.44793 3639.40349,1579.52081 3634.19513,1583.6875 C3628.36176,1588.06252 3622.05974,1591.86457 3615.28888,1595.09375 C3609.66385,1598.01043 3603.25766,1600.8229 3596.07013,1603.53125 L3596.07013,1602.125 C3594.29928,1603.0625 3592.21597,1603.84375 3589.82013,1604.46875 C3587.94512,1604.98959 3585.18473,1605.35417 3581.53888,1605.5625 C3578.62219,1606.29167 3576.38263,1607.02083 3574.82013,1607.75 C3573.46595,1608.79167 3571.48681,1609.625 3568.88263,1610.25 C3560.86175,1611.39584 3554.3514,1612.74999 3549.35138,1614.3125 C3549.35138,1614.41667 3549.14304,1614.46875 3548.72638,1614.46875 C3543.62218,1614.46875 3539.55972,1613.06251 3536.53888,1610.25 C3527.16383,1602.9583 3522.47638,1591.70841 3522.47638,1576.5 C3522.47638,1562.64576 3526.3305,1545.77093 3534.03888,1525.875 L3533.72638,1525.875 C3531.7472,1525.875 3530.02847,1524.10418 3528.57013,1520.5625 C3527.84096,1519.20833 3527.00763,1516.70835 3526.07013,1513.0625 L3525.60138,1510.875 C3525.70554,1508.58332 3525.91387,1506.29168 3526.22638,1504 L3526.22638,1503.84375 C3526.22638,1503.63542 3526.27846,1503.53125 3526.38263,1503.53125 L3526.22638,1503.21875 L3526.22638,1502.90625 C3526.22638,1501.86458 3526.53887,1500.14585 3527.16388,1497.75 C3527.26804,1496.18749 3527.63262,1495.40625 3528.25763,1495.40625 C3530.65347,1494.46875 3534.66385,1493.32292 3540.28888,1491.96875 C3542.89306,1491.23958 3544.19513,1490.71875 3544.19513,1490.40625 L3544.19513,1490.09375 C3544.19513,1489.78125 3543.57013,1489.625 3542.32013,1489.625 L3541.85138,1489.625 C3540.91387,1489.625 3538.62223,1490.19791 3534.97638,1491.34375 C3531.74719,1492.17709 3529.82013,1492.59375 3529.19513,1492.59375 C3528.98679,1491.65625 3528.88263,1490.92709 3528.88263,1490.40625 C3529.19513,1489.15624 3529.45554,1488.53125 3529.66388,1488.53125 L3530.44513,1486.96875 C3544.8202,1483.53123 3565.13249,1479.41669 3591.38263,1474.625 C3599.61183,1473.06249 3606.59093,1471.91667 3612.32013,1471.1875 L3612.32013,1471.03125 C3604.09092,1468.73957 3592.21604,1465.82293 3576.69513,1462.28125 C3571.6951,1460.92708 3567.05973,1459.67709 3562.78888,1458.53125 C3561.64304,1458.63542 3560.65346,1458.6875 3559.82013,1458.6875 L3558.57013,1458.6875 C3552.6326,1458.6875 3547.99723,1456.29169 3544.66388,1451.5 C3542.6847,1448.27082 3541.53888,1444.83335 3541.22638,1441.1875 C3541.22638,1440.35416 3540.49722,1437.64586 3539.03888,1433.0625 C3538.93471,1432.64583 3538.83054,1431.96875 3538.72638,1431.03125 C3538.72638,1429.36458 3539.66387,1428.16667 3541.53888,1427.4375 C3545.28889,1425.77083 3553.36173,1423.79168 3565.75763,1421.5 C3578.36186,1419.10415 3597.32,1416.70835 3622.63263,1414.3125 C3639.09104,1412.95833 3652.47632,1412.28125 3662.78888,1412.28125 Z M3589.66388,1424 L3589.66388,1424.15625 C3589.66388,1424.88542 3590.54928,1425.25 3592.32013,1425.25 L3592.63263,1425.25 C3598.46599,1424.72916 3605.34092,1424.10417 3613.25763,1423.375 C3614.9243,1422.95833 3616.59095,1422.75 3618.25763,1422.75 C3618.67429,1422.75 3619.92428,1422.85417 3622.00763,1423.0625 C3622.42429,1422.95833 3622.63263,1422.75 3622.63263,1422.4375 C3622.63263,1421.18749 3621.12222,1420.5625 3618.10138,1420.5625 L3615.75763,1420.5625 C3607.84092,1420.5625 3599.716,1421.29166 3591.38263,1422.75 C3590.23679,1423.0625 3589.66388,1423.47916 3589.66388,1424 Z M3549.66388,1431.65625 C3550.08054,1432.80209 3551.07012,1433.42708 3552.63263,1433.53125 C3555.34097,1433.53125 3558.10136,1432.90626 3560.91388,1431.65625 C3563.51806,1430.61458 3567.89301,1429.52084 3574.03888,1428.375 C3579.24724,1427.4375 3582.73678,1426.60417 3584.50763,1425.875 L3584.50763,1425.09375 C3584.19512,1424.57291 3583.10139,1424.3125 3581.22638,1424.3125 L3580.28888,1424.3125 C3579.55971,1424.3125 3577.00765,1424.83333 3572.63263,1425.875 C3568.67427,1426.70834 3563.62224,1427.38541 3557.47638,1427.90625 C3555.1847,1428.01042 3552.73681,1428.79166 3550.13263,1430.25 C3549.82012,1430.77084 3549.66388,1431.23958 3549.66388,1431.65625 Z M3571.07013,1482.75 C3570.75762,1482.95833 3570.60138,1483.27083 3570.60138,1483.6875 C3570.70554,1483.89583 3570.91387,1484 3571.22638,1484 L3571.38263,1484 C3571.69513,1484 3571.85138,1483.84375 3571.85138,1483.53125 L3571.85138,1483.375 C3571.85138,1482.95833 3571.59096,1482.75 3571.07013,1482.75 Z M3565.28888,1484.9375 L3565.28888,1485.09375 C3565.28888,1485.51042 3565.49721,1485.71875 3565.91388,1485.71875 C3566.33054,1485.71875 3566.64304,1485.51042 3566.85138,1485.09375 C3566.74721,1484.57291 3566.53888,1484.3125 3566.22638,1484.3125 L3565.91388,1484.3125 C3565.49721,1484.3125 3565.28888,1484.52083 3565.28888,1484.9375 Z M3559.66388,1486.65625 C3559.66388,1486.96875 3559.76804,1487.17708 3559.97638,1487.28125 L3560.28888,1487.28125 C3560.91388,1487.28125 3561.22638,1486.91667 3561.22638,1486.1875 L3561.22638,1486.03125 C3561.12221,1485.71875 3560.91388,1485.5625 3560.60138,1485.5625 C3559.97637,1485.5625 3559.66388,1485.92708 3559.66388,1486.65625 Z M3549.66388,1490.09375 C3549.66388,1490.40625 3549.97637,1490.66667 3550.60138,1490.875 L3550.75763,1490.875 C3552.00763,1490.875 3553.57012,1490.19792 3555.44513,1488.84375 C3556.07013,1488.21875 3556.38263,1487.64584 3556.38263,1487.125 C3556.07012,1486.5 3555.75763,1486.1875 3555.44513,1486.1875 C3552.94511,1486.91667 3551.01805,1488.11458 3549.66388,1489.78125 L3549.66388,1490.09375 Z M3573.88263,1513.21875 C3573.98679,1513.21875 3574.19512,1513.32292 3574.50763,1513.53125 C3574.50763,1514.88542 3573.62222,1515.97916 3571.85138,1516.8125 C3571.33054,1516.91667 3570.80971,1516.96875 3570.28888,1516.96875 L3570.13263,1516.96875 C3569.50762,1516.96875 3569.19513,1516.70834 3569.19513,1516.1875 L3569.19513,1515.875 C3569.19513,1514.83333 3570.4972,1513.94792 3573.10138,1513.21875 L3573.88263,1513.21875 Z M3626.69513,1577.28125 C3628.0493,1577.17708 3629.2472,1576.60417 3630.28888,1575.5625 L3630.28888,1575.40625 C3629.03887,1575.40625 3627.84096,1576.03124 3626.69513,1577.28125 Z M3617.00763,1581.34375 L3617.00763,1581.5 L3618.25763,1581.5 C3620.65347,1581.5 3622.6847,1580.40626 3624.35138,1578.21875 L3623.72638,1578.0625 C3620.91386,1578.0625 3618.6743,1579.15624 3617.00763,1581.34375 Z M3614.97638,1582.75 L3615.13263,1582.75 C3616.07013,1582.4375 3616.53888,1582.125 3616.53888,1581.8125 L3616.38263,1581.8125 C3615.86179,1581.8125 3615.39304,1582.125 3614.97638,1582.75 Z M3772.56213,1386.03125 C3774.8538,1386.03125 3777.19753,1386.29166 3779.59338,1386.8125 C3783.13506,1387.75 3785.79128,1389.41665 3787.56213,1391.8125 C3789.12463,1393.68751 3789.90588,1395.61457 3789.90588,1397.59375 C3789.90588,1399.36459 3789.2288,1401.34374 3787.87463,1403.53125 C3787.04129,1404.36459 3786.26005,1405.04166 3785.53088,1405.5625 C3782.30169,1407.85418 3778.3434,1410.24999 3773.65588,1412.75 C3772.09337,1413.58334 3770.42672,1414.46875 3768.65588,1415.40625 C3761.05167,1420.19794 3754.64549,1424.36457 3749.43713,1427.90625 C3746.52045,1429.98959 3744.38505,1431.5 3743.03088,1432.4375 C3739.17669,1435.35418 3734.95798,1438.79165 3730.37463,1442.75 C3727.56211,1445.14585 3723.44757,1448.94789 3718.03088,1454.15625 L3716.93713,1455.25 L3716.78088,1455.25 C3715.63504,1455.25 3715.06213,1455.40625 3715.06213,1455.71875 C3714.95796,1455.71875 3714.90588,1455.875 3714.90588,1456.1875 C3715.01004,1456.60417 3715.06213,1456.91667 3715.06213,1457.125 C3714.33296,1457.85417 3713.6038,1458.79166 3712.87463,1459.9375 C3709.43711,1464.93753 3707.71838,1469.5729 3707.71838,1473.84375 C3707.71838,1479.26044 3710.73918,1483.6354 3716.78088,1486.96875 C3716.98921,1486.96875 3717.77045,1487.38541 3719.12463,1488.21875 C3719.64546,1488.73959 3720.37462,1489.26041 3721.31213,1489.78125 C3726.31215,1493.01043 3733.86416,1498.89579 3743.96838,1507.4375 C3745.42672,1508.58334 3746.62462,1509.57291 3747.56213,1510.40625 C3748.81213,1512.48959 3750.47878,1514.78124 3752.56213,1517.28125 C3754.43714,1519.46876 3755.68712,1520.97916 3756.31213,1521.8125 C3757.45797,1523.37501 3758.70795,1524.98958 3760.06213,1526.65625 C3761.4163,1528.53126 3762.87462,1530.87499 3764.43713,1533.6875 C3764.74963,1534.20834 3764.95796,1534.57292 3765.06213,1534.78125 L3765.06213,1534.625 L3760.68713,1524.9375 L3760.53088,1524.625 C3768.44758,1535.87506 3772.40588,1546.81245 3772.40588,1557.4375 L3772.40588,1560.09375 L3772.24963,1560.09375 C3771.83296,1559.05208 3771.57254,1558.47917 3771.46838,1558.375 C3771.46838,1558.89584 3771.05171,1559.52083 3770.21838,1560.25 C3769.69754,1560.875 3769.38504,1561.5 3769.28088,1562.125 C3769.28088,1562.64584 3768.96838,1564.15624 3768.34338,1566.65625 C3768.23921,1567.07292 3768.18713,1568.27082 3768.18713,1570.25 C3767.77046,1573.37502 3767.51004,1575.25 3767.40588,1575.875 C3766.78087,1577.54167 3766.46838,1579.15624 3766.46838,1580.71875 C3766.46838,1582.80209 3766.1038,1584.26041 3765.37463,1585.09375 C3764.43712,1586.23959 3763.86421,1587.02083 3763.65588,1587.4375 C3763.13504,1588.47917 3761.46839,1590.66665 3758.65588,1594 C3758.76004,1594.10417 3758.91629,1594.3125 3759.12463,1594.625 C3756.10378,1597.43751 3753.6038,1599.62499 3751.62463,1601.1875 C3747.66627,1604.31252 3743.81215,1607.02082 3740.06213,1609.3125 C3736.72878,1611.50001 3733.96839,1613.0625 3731.78088,1614 C3731.36421,1614.20833 3730.06214,1614.52083 3727.87463,1614.9375 C3726.72879,1615.14583 3725.7913,1615.25 3725.06213,1615.25 L3724.90588,1615.25 C3724.80171,1615.25 3724.59338,1614.78125 3724.28088,1613.84375 C3724.28088,1613.63542 3724.22879,1613.47917 3724.12463,1613.375 C3723.29129,1613.89584 3722.45796,1614.26042 3721.62463,1614.46875 L3721.15588,1615.09375 C3721.98921,1615.30208 3722.9267,1615.40625 3723.96838,1615.40625 C3723.44754,1615.51042 3721.78089,1616.34374 3718.96838,1617.90625 C3717.51004,1618.73959 3716.20797,1619.3125 3715.06213,1619.625 L3710.37463,1621.03125 C3704.95793,1622.48959 3700.58298,1623.21875 3697.24963,1623.21875 L3696.93713,1623.21875 C3695.58295,1623.21875 3694.33297,1623.11458 3693.18713,1622.90625 C3691.20795,1623.11458 3689.5413,1623.21875 3688.18713,1623.21875 L3687.87463,1623.21875 C3685.16628,1623.21875 3682.77047,1622.59376 3680.68713,1621.34375 C3675.89544,1618.53124 3672.04131,1612.85421 3669.12463,1604.3125 C3668.18712,1601.81249 3667.3538,1598.47919 3666.62463,1594.3125 C3666.10379,1591.18748 3665.84338,1589.10417 3665.84338,1588.0625 C3669.28089,1590.35418 3673.4996,1591.5 3678.49963,1591.5 C3685.99966,1591.5 3694.74958,1589.05211 3704.74963,1584.15625 C3708.39548,1582.38541 3712.30169,1580.04168 3716.46838,1577.125 C3718.65589,1575.66666 3721.15586,1573.63543 3723.96838,1571.03125 C3727.09339,1568.3229 3730.16628,1565.56251 3733.18713,1562.75 C3735.99964,1559.72915 3737.87462,1557.54167 3738.81213,1556.1875 C3739.95797,1554.41666 3740.94754,1552.69792 3741.78088,1551.03125 C3742.71838,1548.84374 3743.23921,1547.12501 3743.34338,1545.875 C3743.44754,1545.04166 3743.49963,1544.10417 3743.49963,1543.0625 C3743.49963,1541.49999 3743.39546,1540.71875 3743.18713,1540.71875 C3741.72879,1538.21874 3740.58296,1536.29167 3739.74963,1534.9375 C3739.43713,1534.41666 3738.55172,1533.42709 3737.09338,1531.96875 C3735.01003,1530.19791 3732.56214,1528.47917 3729.74963,1526.8125 C3726.83295,1524.93749 3721.26008,1521.55211 3713.03088,1516.65625 C3707.09335,1513.21873 3701.62465,1509.6771 3696.62463,1506.03125 C3694.33295,1504.36458 3691.78089,1502.1771 3688.96838,1499.46875 C3680.53083,1491.44788 3676.31213,1483.16671 3676.31213,1474.625 C3676.31213,1472.64582 3676.57254,1470.45835 3677.09338,1468.0625 L3677.09338,1467.90625 C3677.09338,1460.71871 3677.56212,1455.56252 3678.49963,1452.4375 C3679.8538,1447.43747 3683.08293,1441.76045 3688.18713,1435.40625 C3689.74963,1433.53124 3691.62462,1431.50001 3693.81213,1429.3125 C3696.83298,1426.49999 3699.69753,1424.05209 3702.40588,1421.96875 C3707.82257,1417.6979 3713.86418,1413.37502 3720.53088,1409 C3728.65592,1403.79164 3736.83292,1399.10419 3745.06213,1394.9375 C3749.22881,1392.85416 3753.44752,1390.97917 3757.71838,1389.3125 C3759.59339,1388.47916 3761.62462,1387.75 3763.81213,1387.125 C3766.31214,1386.39583 3769.07253,1386.03125 3772.09338,1386.03125 L3772.56213,1386.03125 Z M3850.37463,1386.1875 L3850.84338,1386.1875 C3851.88505,1386.1875 3855.16627,1386.44791 3860.68713,1386.96875 C3862.0413,1386.96875 3863.44754,1387.33333 3864.90588,1388.0625 C3868.34339,1390.14584 3870.06213,1394.62497 3870.06213,1401.5 C3870.06213,1404.31251 3869.74963,1407.54165 3869.12463,1411.1875 C3868.81213,1412.22917 3868.13505,1413.9479 3867.09338,1416.34375 C3864.90587,1421.34378 3862.87464,1426.49997 3860.99963,1431.8125 C3858.29128,1440.14587 3855.58297,1449.52078 3852.87463,1459.9375 C3852.56213,1462.33335 3852.35379,1464 3852.24963,1464.9375 C3851.83296,1466.81251 3851.15588,1468.16666 3850.21838,1469 C3849.07254,1470.04167 3847.87463,1470.5625 3846.62463,1470.5625 L3846.46838,1470.5625 C3845.94754,1470.5625 3845.42671,1470.51042 3844.90588,1470.40625 C3844.59338,1470.51042 3844.38504,1470.5625 3844.28088,1470.5625 L3844.12463,1470.40625 C3846.31214,1458.21869 3847.66629,1450.82293 3848.18713,1448.21875 L3848.18713,1448.0625 L3848.03088,1448.0625 C3846.57254,1452.43752 3845.01005,1458.37496 3843.34338,1465.875 C3842.71837,1468.47918 3842.40588,1469.88542 3842.40588,1470.09375 L3842.24963,1470.09375 C3839.33295,1470.09375 3837.24963,1469.26042 3835.99963,1467.59375 C3835.58296,1467.07291 3834.90588,1466.03126 3833.96838,1464.46875 C3833.65588,1464.05208 3833.18713,1463.53125 3832.56213,1462.90625 C3831.62462,1461.34374 3831.15588,1457.85419 3831.15588,1452.4375 L3831.15588,1451.8125 C3831.15588,1445.1458 3831.78087,1436.29172 3833.03088,1425.25 C3825.01,1430.56253 3818.13507,1435.35415 3812.40588,1439.625 C3807.19752,1443.37502 3800.73925,1448.5833 3793.03088,1455.25 C3789.80169,1458.06251 3785.73923,1461.70831 3780.84338,1466.1875 L3779.90588,1466.1875 C3779.28088,1466.1875 3778.91629,1466.34375 3778.81213,1466.65625 L3778.81213,1466.8125 C3778.91629,1467.4375 3778.96838,1467.85417 3778.96838,1468.0625 C3777.51004,1469.41667 3774.12465,1472.64581 3768.81213,1477.75 C3771.83298,1480.77085 3773.8642,1482.59375 3774.90588,1483.21875 C3776.67672,1484.78126 3778.18712,1485.875 3779.43713,1486.5 C3782.14547,1488.06251 3785.16628,1489.98957 3788.49963,1492.28125 C3791.93714,1494.78126 3795.79127,1497.74998 3800.06213,1501.1875 C3806.31216,1506.39586 3810.01004,1509.46875 3811.15588,1510.40625 C3812.30172,1512.48959 3813.91628,1514.78124 3815.99963,1517.28125 C3817.9788,1519.46876 3819.33296,1521.13541 3820.06213,1522.28125 C3821.1038,1523.63542 3822.24962,1525.04166 3823.49963,1526.5 C3824.74963,1528.16667 3826.3642,1530.77082 3828.34338,1534.3125 L3828.49963,1534.46875 C3828.18713,1533.73958 3826.78089,1530.61461 3824.28088,1525.09375 C3824.17671,1524.88542 3824.12463,1524.72917 3824.12463,1524.625 C3825.7913,1527.02085 3827.24962,1529.41665 3828.49963,1531.8125 L3829.74963,1534 C3830.37463,1534.52084 3830.79129,1535.09375 3830.99963,1535.71875 C3831.52046,1536.86459 3832.09337,1538.53124 3832.71838,1540.71875 C3833.34338,1542.28126 3833.86421,1543.89583 3834.28088,1545.5625 L3833.96838,1545.5625 L3834.12463,1546.03125 L3834.28088,1546.03125 L3834.74963,1547.59375 C3835.58296,1550.9271 3835.99963,1554.2604 3835.99963,1557.59375 C3835.89546,1558.84376 3835.84338,1559.67708 3835.84338,1560.09375 C3835.53088,1559.46875 3835.27046,1559 3835.06213,1558.6875 L3834.90588,1558.6875 C3834.90588,1559.20834 3834.5413,1559.88541 3833.81213,1560.71875 C3833.18712,1561.55209 3832.82254,1562.4375 3832.71838,1563.375 C3832.71838,1563.89584 3832.40588,1565.56249 3831.78088,1568.375 L3831.62463,1571.8125 C3831.31213,1574.62501 3831.10379,1576.44791 3830.99963,1577.28125 C3830.37462,1579.26043 3830.06213,1580.77083 3830.06213,1581.8125 C3830.06213,1584.10418 3829.80171,1585.61458 3829.28088,1586.34375 C3829.17671,1586.76042 3828.81213,1587.38541 3828.18713,1588.21875 C3827.87463,1588.73959 3827.3538,1589.67708 3826.62463,1591.03125 C3825.47879,1593.21876 3823.96839,1595.56249 3822.09338,1598.0625 L3822.09338,1598.21875 C3822.19754,1598.32292 3822.35379,1598.42708 3822.56213,1598.53125 C3820.47878,1601.2396 3818.03089,1604.15623 3815.21838,1607.28125 C3813.5517,1609.26043 3810.94756,1611.96873 3807.40588,1615.40625 C3802.92669,1619.78127 3799.8538,1622.59374 3798.18713,1623.84375 C3796.10378,1625.61459 3794.64546,1626.70833 3793.81213,1627.125 C3791.83295,1628.27084 3790.01005,1629.10416 3788.34338,1629.625 C3788.13504,1629.3125 3787.92671,1628.79167 3787.71838,1628.0625 C3786.6767,1628.89584 3785.7913,1629.46875 3785.06213,1629.78125 L3784.59338,1630.5625 C3785.01005,1630.5625 3785.94754,1630.35417 3787.40588,1629.9375 C3786.67671,1630.45834 3785.01006,1631.81249 3782.40588,1634 C3780.4267,1635.66667 3779.17671,1636.65625 3778.65588,1636.96875 C3777.09337,1637.90625 3775.99963,1638.53125 3775.37463,1638.84375 C3775.16629,1639.05208 3773.9163,1639.78124 3771.62463,1641.03125 C3768.60378,1642.69792 3765.79131,1644.05208 3763.18713,1645.09375 C3760.79128,1646.03125 3759.33296,1646.5 3758.81213,1646.5 C3758.29129,1646.60417 3757.56213,1646.70833 3756.62463,1646.8125 C3752.66627,1648.58334 3749.64547,1649.46875 3747.56213,1649.46875 L3747.24963,1649.46875 C3744.74961,1649.46875 3742.24964,1648.53126 3739.74963,1646.65625 C3738.49962,1645.51041 3737.51005,1644.46875 3736.78088,1643.53125 C3735.7392,1642.07291 3734.95796,1640.82292 3734.43713,1639.78125 C3733.18712,1637.48957 3732.0413,1634.46877 3730.99963,1630.71875 C3730.58296,1628.94791 3730.1663,1626.65626 3729.74963,1623.84375 C3729.43713,1622.07291 3729.28088,1620.875 3729.28088,1620.25 L3729.43713,1620.25 C3730.99963,1620.77084 3732.6142,1621.03125 3734.28088,1621.03125 L3734.90588,1621.03125 C3739.38507,1621.03125 3744.95793,1619.31252 3751.62463,1615.875 C3754.85381,1614.31249 3758.44752,1612.12501 3762.40588,1609.3125 C3765.42673,1607.22916 3768.86419,1604.46877 3772.71838,1601.03125 C3774.48922,1599.57291 3776.41628,1597.80209 3778.49963,1595.71875 C3781.62464,1592.59373 3783.55171,1590.5625 3784.28088,1589.625 C3785.32255,1588.27083 3786.78087,1586.34376 3788.65588,1583.84375 C3797.61425,1571.65619 3802.09338,1561.44796 3802.09338,1553.21875 C3802.09338,1547.38539 3800.01006,1541.96878 3795.84338,1536.96875 C3795.11421,1536.13541 3794.2288,1535.19792 3793.18713,1534.15625 C3790.47878,1531.4479 3788.34338,1529.52084 3786.78088,1528.375 C3783.76003,1525.87499 3779.95798,1522.90627 3775.37463,1519.46875 C3771.20794,1516.34373 3767.24965,1513.21877 3763.49963,1510.09375 C3761.31212,1508.32291 3758.60381,1505.82293 3755.37463,1502.59375 C3752.77045,1499.98957 3751.26005,1498.32292 3750.84338,1497.59375 C3750.42671,1496.86458 3749.95796,1495.97917 3749.43713,1494.9375 C3748.70796,1493.16666 3748.34338,1492.02084 3748.34338,1491.5 C3748.23921,1490.77083 3748.18713,1490.19792 3748.18713,1489.78125 C3747.77046,1489.57292 3746.46839,1488.37501 3744.28088,1486.1875 C3742.82254,1484.52083 3741.83296,1483.11459 3741.31213,1481.96875 C3740.16629,1479.88541 3739.59338,1477.38543 3739.59338,1474.46875 C3739.80171,1468.94789 3740.01004,1465.66667 3740.21838,1464.625 C3740.63505,1461.39582 3741.31212,1458.58335 3742.24963,1456.1875 C3742.87463,1454.62499 3743.65587,1453.11459 3744.59338,1451.65625 C3745.73922,1449.67707 3747.09337,1447.64584 3748.65588,1445.5625 C3749.80172,1444.10416 3751.72878,1441.96876 3754.43713,1439.15625 C3756.4163,1437.17707 3758.08295,1435.66667 3759.43713,1434.625 C3762.24964,1432.43749 3765.37461,1430.19793 3768.81213,1427.90625 C3774.64549,1423.84373 3780.89543,1419.83335 3787.56213,1415.875 C3798.70802,1409.31247 3808.81208,1403.94794 3817.87463,1399.78125 C3821.10381,1398.32291 3824.48919,1397.02084 3828.03088,1395.875 C3830.63506,1395.04166 3833.34336,1394.625 3836.15588,1394.625 C3837.92672,1394.625 3839.85378,1394.78125 3841.93713,1395.09375 C3842.24963,1393.32291 3842.61421,1391.96875 3843.03088,1391.03125 C3843.86421,1388.94791 3845.01004,1387.54167 3846.46838,1386.8125 C3847.61422,1386.39583 3848.91629,1386.1875 3850.37463,1386.1875 Z M3743.18713,1400.875 C3743.18713,1401.08333 3743.39546,1401.34375 3743.81213,1401.65625 L3744.28088,1401.8125 C3749.80174,1399.41665 3752.71838,1397.80209 3753.03088,1396.96875 L3752.24963,1396.34375 C3748.70794,1397.28125 3745.68714,1398.79166 3743.18713,1400.875 Z M3739.43713,1402.4375 C3739.74963,1402.4375 3740.11421,1402.28125 3740.53088,1401.96875 C3740.53088,1401.76042 3740.42671,1401.65625 3740.21838,1401.65625 C3739.90588,1401.65625 3739.64546,1401.91666 3739.43713,1402.4375 Z M3691.15588,1443.84375 C3692.09338,1443.73958 3693.03087,1443.375 3693.96838,1442.75 C3694.80171,1441.91666 3695.42671,1441.1875 3695.84338,1440.5625 C3696.88505,1438.89583 3697.51004,1437.95833 3697.71838,1437.75 C3699.48922,1435.77082 3701.3642,1433.73959 3703.34338,1431.65625 C3706.57256,1428.42707 3709.12462,1425.97917 3710.99963,1424.3125 C3714.95798,1420.77082 3718.18711,1418.11459 3720.68713,1416.34375 C3722.77047,1414.78124 3725.1142,1413.16667 3727.71838,1411.5 C3730.01005,1410.04166 3732.56211,1408.16668 3735.37463,1405.875 C3736.93713,1404.62499 3738.08296,1403.63542 3738.81213,1402.90625 L3738.49963,1402.90625 C3737.04129,1402.90625 3735.63505,1403.47916 3734.28088,1404.625 C3728.55168,1408.06252 3722.92674,1411.86456 3717.40588,1416.03125 C3714.90586,1417.90626 3712.51005,1419.83332 3710.21838,1421.8125 C3709.48921,1422.54167 3708.34338,1423.73958 3706.78088,1425.40625 C3706.05171,1426.03125 3704.69755,1427.22916 3702.71838,1429 C3700.4267,1431.18751 3698.96838,1432.69791 3698.34338,1433.53125 C3696.78087,1435.30209 3695.58296,1436.86458 3694.74963,1438.21875 C3693.29129,1440.19793 3692.09338,1442.07291 3691.15588,1443.84375 Z M3807.40588,1410.09375 C3807.71838,1410.71875 3807.97879,1411.03125 3808.18713,1411.03125 L3808.49963,1411.03125 C3813.39548,1408.94791 3816.31212,1407.33334 3817.24963,1406.1875 L3817.40588,1405.875 L3816.62463,1405.25 C3815.16629,1405.66667 3813.65588,1406.23958 3812.09338,1406.96875 C3810.63504,1407.69792 3809.12463,1408.63541 3807.56213,1409.78125 C3807.45796,1409.88542 3807.40588,1409.98958 3807.40588,1410.09375 Z M3803.49963,1411.65625 L3803.65588,1411.65625 C3803.86421,1411.65625 3804.22879,1411.5 3804.74963,1411.1875 C3804.74963,1410.875 3804.64546,1410.71875 3804.43713,1410.71875 L3804.28088,1410.71875 C3803.96838,1410.71875 3803.70796,1411.03125 3803.49963,1411.65625 Z M3754.28088,1451.1875 C3755.42672,1451.1875 3756.57254,1450.77084 3757.71838,1449.9375 C3758.44755,1449.10416 3759.07254,1448.21875 3759.59338,1447.28125 C3760.21838,1446.44791 3760.73921,1445.82292 3761.15588,1445.40625 C3766.1559,1440.51039 3769.64545,1437.28126 3771.62463,1435.71875 C3775.47881,1432.28123 3779.12461,1429.3646 3782.56213,1426.96875 C3785.58298,1424.78124 3788.18712,1423.01042 3790.37463,1421.65625 C3792.3538,1420.61458 3795.27044,1418.58335 3799.12463,1415.5625 C3800.37463,1414.52083 3801.6767,1413.37501 3803.03088,1412.125 L3802.24963,1412.125 C3800.99962,1412.125 3799.69755,1412.64583 3798.34338,1413.6875 C3792.92668,1416.91668 3787.24966,1420.61456 3781.31213,1424.78125 C3778.29128,1426.96876 3775.32256,1429.2604 3772.40588,1431.65625 C3770.4267,1433.73959 3769.07255,1434.98958 3768.34338,1435.40625 C3766.88504,1436.44792 3765.11422,1437.95832 3763.03088,1439.9375 C3760.53086,1442.54168 3758.9163,1444.36458 3758.18713,1445.40625 C3756.72879,1447.17709 3755.42672,1449.10416 3754.28088,1451.1875 Z M3846.15588,1467.28125 C3847.51005,1467.17708 3848.29129,1467.125 3848.49963,1467.125 L3849.12463,1465.25 L3848.81213,1464.9375 C3848.49963,1464.9375 3848.03088,1465.35416 3847.40588,1466.1875 C3847.09338,1466.5 3846.67671,1466.86458 3846.15588,1467.28125 Z M3730.06213,1506.5 C3730.89546,1507.22917 3731.88504,1507.95833 3733.03088,1508.6875 C3735.01005,1509.83334 3736.6767,1510.51042 3738.03088,1510.71875 C3737.82254,1510.30208 3737.40588,1509.78125 3736.78088,1509.15625 C3735.7392,1508.21875 3734.64547,1507.54167 3733.49963,1507.125 C3732.04129,1506.70833 3730.89546,1506.5 3730.06213,1506.5 Z M3793.65588,1506.5 C3796.15589,1508.68751 3798.5517,1510.04166 3800.84338,1510.5625 C3800.94754,1510.66667 3801.20796,1510.71875 3801.62463,1510.71875 C3801.31213,1510.19791 3800.63505,1509.52084 3799.59338,1508.6875 C3798.5517,1507.75 3797.09339,1507.125 3795.21838,1506.8125 C3794.38504,1506.60417 3793.86421,1506.5 3793.65588,1506.5 Z M3801.78088,1510.875 L3801.93713,1510.875 L3801.78088,1510.875 Z M3738.49963,1511.03125 C3738.60379,1511.76042 3738.76004,1512.28125 3738.96838,1512.59375 C3740.42672,1513.84376 3741.83295,1515.14583 3743.18713,1516.5 C3746.20798,1519.62502 3748.44754,1522.12499 3749.90588,1524 C3752.51006,1527.33335 3754.8017,1530.77082 3756.78088,1534.3125 C3757.51005,1535.77084 3758.18712,1536.96875 3758.81213,1537.90625 C3759.64546,1538.63542 3760.21838,1539 3760.53088,1539 L3761.46838,1539.3125 C3761.36421,1539.10417 3761.26004,1538.58334 3761.15588,1537.75 C3759.69754,1534.72915 3757.77047,1531.44793 3755.37463,1527.90625 C3753.81212,1525.61457 3751.67672,1522.90627 3748.96838,1519.78125 C3746.3642,1516.96874 3744.48922,1515.09375 3743.34338,1514.15625 C3742.09337,1512.90624 3740.68713,1511.96875 3739.12463,1511.34375 C3739.12463,1511.34375 3738.9163,1511.23958 3738.49963,1511.03125 Z M3801.93713,1511.03125 C3802.14546,1511.86459 3802.35379,1512.38542 3802.56213,1512.59375 C3803.49963,1513.42709 3805.4267,1515.24999 3808.34338,1518.0625 C3811.36423,1521.29168 3813.5517,1523.94791 3814.90588,1526.03125 C3817.40589,1529.46877 3819.59337,1532.95832 3821.46838,1536.5 C3822.30171,1537.95834 3823.13504,1538.79167 3823.96838,1539 C3824.48921,1539.20833 3824.80171,1539.3125 3824.90588,1539.3125 C3824.80171,1538.89583 3824.69754,1538.375 3824.59338,1537.75 C3823.5517,1535.45832 3822.19755,1532.95835 3820.53088,1530.25 C3818.96837,1527.85415 3817.19755,1525.40626 3815.21838,1522.90625 C3813.8642,1521.23958 3811.98922,1519.20835 3809.59338,1516.8125 C3806.6767,1513.99999 3805.06213,1512.54167 3804.74963,1512.4375 C3804.12462,1512.02083 3803.23922,1511.55209 3802.09338,1511.03125 C3802.09338,1511.03125 3802.04129,1511.03125 3801.93713,1511.03125 Z M3739.43713,1600.875 L3739.43713,1601.65625 C3740.06213,1602.28125 3740.68712,1602.59375 3741.31213,1602.59375 C3744.64548,1600.92708 3747.97878,1598.94793 3751.31213,1596.65625 C3757.45799,1592.28123 3761.72878,1587.28128 3764.12463,1581.65625 C3763.18712,1580.82291 3762.66629,1580.40625 3762.56213,1580.40625 L3762.40588,1580.40625 C3760.7392,1582.28126 3758.23923,1584.93748 3754.90588,1588.375 C3752.51003,1590.66668 3750.58297,1592.64583 3749.12463,1594.3125 C3747.56212,1595.56251 3745.32256,1597.07291 3742.40588,1598.84375 C3741.15587,1599.57292 3740.1663,1600.25 3739.43713,1600.875 Z M3802.87463,1610.71875 L3802.87463,1611.1875 C3802.87463,1611.5 3802.97879,1611.65625 3803.18713,1611.65625 C3803.49963,1611.96875 3803.86421,1612.125 3804.28088,1612.125 L3804.43713,1612.125 C3804.64546,1612.125 3804.90588,1611.96875 3805.21838,1611.65625 C3807.61422,1609.78124 3810.53086,1607.1771 3813.96838,1603.84375 C3816.98923,1600.71873 3818.96837,1598.58334 3819.90588,1597.4375 C3821.36422,1595.45832 3822.77045,1593.42709 3824.12463,1591.34375 C3825.4788,1588.9479 3826.62462,1586.60418 3827.56213,1584.3125 C3826.83296,1583.79166 3826.31213,1583.53125 3825.99963,1583.53125 C3823.29128,1587.28127 3820.11423,1591.44789 3816.46838,1596.03125 L3812.40588,1601.5 C3811.26004,1602.85417 3809.69755,1604.46874 3807.71838,1606.34375 C3806.26004,1607.48959 3804.64547,1608.94791 3802.87463,1610.71875 Z" id="succes"></path>
        </g>
    </g>
</svg>