<?xml version="1.0" encoding="UTF-8"?>
<svg width="871px" height="221px" viewBox="0 0 871 221" version="1.1" xmlns="http://www.w3.org/2000/svg" xmlns:xlink="http://www.w3.org/1999/xlink">
    <!-- Generator: Sketch 54.1 (76490) - https://sketchapp.com -->
    <title>Group</title>
    <desc>Created with Sketch.</desc>
    <g id="Page-1" stroke="none" stroke-width="1" fill="none" fill-rule="evenodd">
        <g id="Group" transform="translate(1.173828, 0.600000)" fill-rule="nonzero" stroke="#EFBA40">
            <path d="M90.0195312,4.24960938 C92.1679795,4.24960938 96.7870739,7.9019166 103.876953,15.2066406 C104.235028,15.7795602 104.414062,16.6389266 104.414062,17.7847656 L104.414062,18.4292969 C104.414062,20.7925899 103.984379,22.8335852 103.125,24.5523438 C101.835931,25.8414127 100.869144,27.0230415 100.224609,28.0972656 C97.1451669,32.8238518 94.4238399,37.9800502 92.0605469,43.5660156 L91.953125,43.5660156 C92.5260445,40.9878777 93.1705693,38.7320409 93.8867188,36.7984375 C94.8893279,34.3635295 96.1783775,31.7854303 97.7539062,29.0640625 C98.5416706,27.4885338 99.7232994,26.271098 101.298828,25.4117188 C101.585288,25.1968739 101.728516,24.9462254 101.728516,24.6597656 L101.728516,24.5523438 C101.656901,23.8361943 101.406252,23.478125 100.976562,23.478125 L100.654297,23.478125 C100.152992,23.478125 99.4010467,24.3016845 98.3984375,25.9488281 C96.0351444,29.2431154 93.9583423,32.6805811 92.1679688,36.2613281 C87.2265378,46.2874199 84.7558594,54.881084 84.7558594,62.0425781 L84.7558594,62.5796875 C84.7558594,67.4495035 86.044909,71.6031078 88.6230469,75.040625 C88.3365871,76.3296939 88.1933594,77.403902 88.1933594,78.2632813 C89.0527387,77.332287 89.5182288,76.6519553 89.5898438,76.2222656 L89.8046875,76.2222656 C90.377607,76.7235702 91.3085873,77.2248673 92.5976562,77.7261719 C93.0273459,77.8694018 93.8509054,78.5139266 95.0683594,79.6597656 C91.7740721,81.0920645 88.6230619,81.8082031 85.6152344,81.8082031 C82.1061022,81.8082031 79.0625129,80.7339951 76.484375,78.5855469 C67.6041223,72.2118171 63.1640625,65.4084997 63.1640625,58.1753906 C63.3789073,54.3797987 63.4863281,51.6942787 63.4863281,50.11875 C63.9160178,49.2593707 64.309894,48.2567766 64.6679688,47.1109375 C63.5937446,47.8987019 61.8750118,49.6890485 59.5117188,52.4820313 C54.4270579,58.7841461 49.9869981,65.2293941 46.1914062,71.8179688 C39.3879868,83.2763594 33.8021052,94.4123157 29.4335938,105.226172 C28.5742145,107.37462 28.1445312,108.66367 28.1445312,109.093359 C27.1419221,115.681934 26.1393279,120.229415 25.1367188,122.735938 C25.1367188,124.025006 24.7786494,126.459878 24.0625,130.040625 C23.8476552,131.258079 23.7402344,132.475515 23.7402344,133.692969 C23.7402344,139.565394 25.8886504,143.575771 30.1855469,145.724219 C31.9043055,146.440368 33.8020729,146.798438 35.8789062,146.798438 C40.1041878,146.583593 42.2167969,146.189716 42.2167969,145.616797 C44.4368601,144.256113 45.7975235,143.575781 46.2988281,143.575781 L46.2988281,143.468359 L46.1914062,143.468359 C45.4752568,143.539974 44.866539,143.575781 44.3652344,143.575781 L42.7539062,143.575781 L42.7539062,143.468359 C54.069067,140.675377 62.6269241,138.061471 68.4277344,135.626563 C69.5735734,134.982028 71.4713409,134.194275 74.1210938,133.263281 C71.6145708,132.618747 69.7884172,131.938415 68.6425781,131.222266 C67.4251241,130.076427 66.7447924,128.823184 66.6015625,127.4625 C66.3867177,126.817966 66.207683,124.132446 66.0644531,119.405859 C65.9212232,118.40325 65.8138024,117.794532 65.7421875,117.579688 C65.7421875,116.147389 74.8729556,114.285428 93.1347656,111.99375 C94.7102943,111.99375 96.6796757,113.139572 99.0429688,115.43125 C101.048187,117.722928 102.050781,120.086186 102.050781,122.521094 C102.050781,123.523703 101.871747,124.096614 101.513672,124.239844 C100.224603,126.245062 99.114588,128.500899 98.1835938,131.007422 L98.1835938,131.544531 C98.2552087,132.045836 98.4700503,132.296484 98.828125,132.296484 C99.5442744,132.296484 100.081378,131.902608 100.439453,131.114844 L100.654297,129.503516 C100.940757,128.644136 101.406247,127.641542 102.050781,126.495703 L102.265625,126.495703 C103.053389,127.068623 103.447266,127.56992 103.447266,127.999609 C103.447266,128.071224 103.089196,128.644135 102.373047,129.718359 C101.227208,131.795193 99.5800889,135.411693 97.4316406,140.567969 C96.7154912,142.071883 95.4622485,146.153873 93.671875,152.814063 C91.0937371,162.33885 89.0527419,170.467024 87.5488281,177.198828 C86.6178339,183.286098 85.8300813,187.045826 85.1855469,188.478125 C84.8274722,189.122659 84.5052098,189.552343 84.21875,189.767188 C83.0729109,189.480728 82.5,189.301693 82.5,189.230078 C82.9296896,187.010015 83.6100214,183.286094 84.5410156,178.058203 C85.1139352,176.1246 85.7942669,174.334253 86.5820312,172.687109 C87.7278703,169.321207 88.3007812,166.241811 88.3007812,163.448828 C89.87631,157.648018 91.1295526,152.814082 92.0605469,148.946875 C91.917317,148.660415 91.7740893,148.517188 91.6308594,148.517188 C91.2727847,148.517188 90.9505223,149.161712 90.6640625,150.450781 C88.4439993,157.469046 87.011722,161.837491 86.3671875,163.55625 C85.9374979,164.558859 85.4362008,165.454033 84.8632812,166.241797 L84.8632812,166.456641 C85.0065111,167.17279 85.078125,167.853122 85.078125,168.497656 C85.078125,170.00157 84.5768279,172.866125 83.5742188,177.091406 C82.8580693,179.454699 81.9987029,181.495695 80.9960938,183.214453 L80.9960938,183.429297 C80.9960938,183.500912 81.2109354,184.002209 81.640625,184.933203 C81.7122399,185.291278 81.7480469,185.577733 81.7480469,185.792578 C81.4615871,187.582952 81.3183594,188.585546 81.3183594,188.800391 C80.0292904,188.299086 77.7018397,187.010036 74.3359375,184.933203 C73.763018,184.288669 73.190107,183.465109 72.6171875,182.4625 C71.8294231,180.815356 71.4355469,179.562114 71.4355469,178.702734 C71.4355469,177.413665 71.3997399,175.050408 71.328125,171.612891 C71.328125,167.172764 72.1874914,160.906551 73.90625,152.814063 L73.7988281,152.814063 C70.289696,154.604436 65.4915669,156.358976 59.4042969,158.077734 C48.0891361,160.870717 38.1348086,162.267188 29.5410156,162.267188 L27.5,162.267188 C23.4179483,162.267188 19.9804827,161.944925 17.1875,161.300391 C14.3229023,158.937098 11.7089962,157.325786 9.34570312,156.466406 C6.48110547,155.678642 4.86979346,154.962503 4.51171875,154.317969 C3.58072451,153.243745 2.97200664,151.883081 2.68554688,150.235938 C1.46809287,146.082271 0.572919531,138.527008 0,127.569922 C0,124.490479 0.358069336,120.301068 1.07421875,115.001563 C3.86720146,105.118701 7.12563242,95.9163187 10.8496094,87.3941406 C16.0775001,75.0763707 22.4153273,62.8662063 29.8632812,50.7632813 C33.1575686,45.2489308 37.5260145,39.0185243 42.96875,32.071875 C45.2604281,29.3505072 47.3014233,27.0946704 49.0917969,25.3042969 C53.0306187,21.43709 55.7161387,19.0738324 57.1484375,18.2144531 C63.1640926,13.7027118 68.5709396,11.446875 73.3691406,11.446875 L74.3359375,11.446875 C76.126311,11.446875 78.0956924,11.8407513 80.2441406,12.6285156 C81.5332096,11.1246019 83.3951701,9.29844824 85.8300781,7.15 C88.0501413,5.21639658 89.4466117,4.24960938 90.0195312,4.24960938 Z M11.0644531,98.3511719 L11.0644531,98.5660156 C11.0644531,98.7092455 11.136067,98.8882802 11.2792969,99.103125 C12.1386762,98.6734354 12.5683594,97.8856828 12.5683594,96.7398438 C13.2128938,95.3075449 14.1796811,92.6936388 15.46875,88.8980469 C18.5481925,81.3068631 21.9856581,74.2528972 25.78125,67.7359375 C29.1471522,61.7918974 34.8404547,53.4488818 42.8613281,42.7066406 C45.0813913,39.842043 47.6952975,36.9058744 50.703125,33.8980469 C52.8515732,31.6779837 55.0357962,29.6727954 57.2558594,27.8824219 C60.5501467,24.6597495 62.1972656,22.8694028 62.1972656,22.5113281 L62.1972656,21.9742188 C62.1256507,21.4012992 61.9108091,21.1148438 61.5527344,21.1148438 C61.0514298,21.1148438 60.4785188,21.544527 59.8339844,22.4039063 C57.4706913,24.7671993 55.0716268,26.9872292 52.6367188,29.0640625 C46.6210637,35.0081026 43.5058604,38.2307267 43.2910156,38.7320313 C41.643872,40.8088646 40.0683669,43.0647014 38.5644531,45.4996094 C33.0501026,52.5894886 29.612637,57.5666523 28.2519531,60.43125 C24.8144359,65.9456005 22.2005298,70.3498533 20.4101562,73.6441406 C18.3333229,77.5829624 16.4355555,81.7723736 14.7167969,86.2125 L12.3535156,92.7652344 L11.3867188,96.9546875 C11.1718739,97.4559921 11.0644531,97.9214822 11.0644531,98.3511719 Z M83.6816406,43.24375 L83.6816406,43.3511719 C84.3261751,42.7066374 84.9706999,41.7398502 85.6152344,40.4507813 C86.8326884,37.9442583 88.2291588,34.0413025 89.8046875,28.7417969 L89.2675781,28.634375 L89.1601562,28.634375 C88.4440068,28.7776049 87.5488335,30.0308476 86.4746094,32.3941406 C85.3287703,35.4019682 84.5052108,37.9800674 84.0039062,40.1285156 C83.7890614,40.9878949 83.6816406,42.026296 83.6816406,43.24375 Z M83.7890625,46.4664063 C83.3593729,47.1109407 83.1445312,47.7554655 83.1445312,48.4 C83.1445312,48.4716149 83.1803382,48.7222635 83.2519531,49.1519531 C83.6816428,48.6506485 83.8964844,48.0419307 83.8964844,47.3257813 C83.8964844,47.1825514 83.8606774,46.8960959 83.7890625,46.4664063 Z M80.8886719,57.2085938 L80.8886719,57.5308594 C80.8886719,58.2470088 80.9960927,58.7841128 81.2109375,59.1421875 C82.2135467,58.2111933 82.7148438,57.1369853 82.7148438,55.9195313 C82.7148438,55.3466117 82.6432299,54.7737008 82.5,54.2007813 L82.3925781,54.2007813 C81.3899689,55.1317755 80.8886719,56.1343696 80.8886719,57.2085938 Z M77.34375,56.99375 C77.4153649,56.99375 77.4511719,57.0295569 77.4511719,57.1011719 C77.7376316,56.8863271 77.8808594,56.5998716 77.8808594,56.2417969 L77.8808594,56.134375 C77.5227847,56.3492198 77.34375,56.6356753 77.34375,56.99375 Z M23.8476562,78.8003906 C24.8502654,77.8693964 25.602211,76.9384161 26.1035156,76.0074219 C26.819665,74.575123 27.1777344,73.6799497 27.1777344,73.321875 C25.8170505,73.9664095 24.8502633,75.1838452 24.2773438,76.9742188 C24.1341139,77.4039084 23.9908861,78.0126263 23.8476562,78.8003906 Z M22.6660156,81.7007813 C22.6660156,80.6981721 23.024085,79.8746126 23.7402344,79.2300781 C23.7402344,80.3043022 23.382165,81.1278617 22.6660156,81.7007813 Z M20.7324219,85.6753906 C20.7324219,84.8876263 21.0904912,84.1356807 21.8066406,83.4195313 C21.8066406,84.1356807 21.4485713,84.8876263 20.7324219,85.6753906 Z M19.6582031,87.3941406 C19.1568985,88.3251349 18.90625,89.0054666 18.90625,89.4351563 L19.0136719,89.4351563 C19.3001316,88.7906218 19.5507802,88.11029 19.765625,87.3941406 L19.6582031,87.3941406 Z M9.8828125,99.9625 C9.81119756,100.10573 9.77539062,100.213151 9.77539062,100.284766 C9.84700557,100.284766 9.8828125,100.248959 9.8828125,100.177344 L9.8828125,99.9625 Z M9.23828125,101.358984 C8.95182148,101.931904 8.66536602,102.719656 8.37890625,103.722266 L8.48632812,103.722266 C8.98763271,102.648042 9.27408818,101.860289 9.34570312,101.358984 L9.23828125,101.358984 Z M8.1640625,104.259375 C6.44530391,107.195588 5.5859375,109.702073 5.5859375,111.778906 L5.5859375,112.316016 C6.01562715,111.743096 6.55273115,110.668888 7.19726562,109.093359 C7.8418001,107.016526 8.1640625,105.476828 8.1640625,104.474219 C8.23567744,104.474219 8.27148438,104.438412 8.27148438,104.366797 L8.27148438,104.259375 L8.1640625,104.259375 Z M3.54492188,115.968359 C3.54492188,116.183204 3.65234268,116.362239 3.8671875,116.505469 C4.22526221,116.505469 4.47591074,116.147399 4.61914062,115.43125 L4.7265625,114.894141 C4.7265625,114.536066 4.6191417,114.357031 4.40429688,114.357031 C3.97460723,114.357031 3.75976562,114.500259 3.75976562,114.786719 C3.61653574,115.502868 3.54492188,115.896744 3.54492188,115.968359 Z M96.3574219,134.015234 L96.3574219,134.3375 C96.6438816,134.48073 96.8229163,134.552344 96.8945312,134.552344 L97.3242188,134.552344 C98.1119831,134.552344 98.684894,134.158467 99.0429688,133.370703 L99.0429688,133.263281 C99.0429688,132.905207 98.899741,132.726172 98.6132812,132.726172 C97.9687468,132.726172 97.2168012,133.155855 96.3574219,134.015234 Z M69.5019531,148.409766 L70.2539062,148.409766 C71.9726648,148.409766 73.5839769,147.944275 75.0878906,147.013281 C75.3027354,145.867442 75.4101562,145.222917 75.4101562,145.079688 C74.479162,145.652607 73.1543055,146.261325 71.4355469,146.905859 C70.5761676,147.335549 69.9316428,147.836846 69.5019531,148.409766 Z M154.782891,119.02 L137.182891,134.64 L137.402891,134.64 C137.842893,134.493333 142.609512,133.686674 151.702891,132.22 C159.769598,130.899993 165.709538,129.910003 169.522891,129.25 C173.336243,128.589997 176.196214,128.003336 178.102891,127.49 C180.009567,126.976664 181.549551,126.353337 182.722891,125.62 C184.482899,124.446661 185.802886,124.15333 186.682891,124.74 C187.416228,125.32667 186.609569,126.426659 184.262891,128.04 C182.796217,128.920004 182.356221,129.323334 182.942891,129.25 C183.52956,129.176666 184.702882,128.626672 186.462891,127.6 C188.076232,126.719996 189.029556,126.426665 189.322891,126.72 C190.789565,127.600004 192.329549,129.433319 193.942891,132.22 L194.822891,133.98 L194.162891,134.42 L193.282891,135.08 L194.382891,134.86 C194.96956,134.713333 195.66622,135.263327 196.472891,136.51 C197.279561,137.756673 197.682891,138.489999 197.682891,138.71 C197.682891,138.930001 196.949565,139.516662 195.482891,140.47 C194.016217,141.423338 193.282891,141.973333 193.282891,142.12 L195.592891,141.35 C196.252894,141.129999 196.876221,140.873335 197.462891,140.58 L198.562891,139.92 L199.442891,141.46 C200.322895,143.366676 200.102897,144.906661 198.782891,146.08 C196.58288,148.133344 193.942906,149.526663 190.862891,150.26 C187.48954,150.993337 179.349622,151.506665 166.442891,151.8 C152.069485,152.093335 139.676276,153.339989 129.262891,155.54 C121.782853,157.153341 114.302928,159.279987 106.822891,161.92 C103.596208,163.093339 101.542895,163.716666 100.662891,163.79 C99.7828862,163.863334 99.0862265,163.496671 98.5728906,162.69 C98.0595547,161.883329 97.9495558,161.260002 98.2428906,160.82 C98.389558,160.526665 98.4628906,160.343334 98.4628906,160.27 C98.4628906,160.196666 98.3162254,160.16 98.0228906,160.16 C97.5828884,160.306667 96.9962276,159.756673 96.2628906,158.51 C95.5295536,157.263327 95.1628906,156.530001 95.1628906,156.31 C95.1628906,156.089999 95.089558,155.98 94.9428906,155.98 C94.7962232,155.98 94.4295602,155.28334 93.8428906,153.89 C93.256221,152.49666 92.8162254,151.360004 92.5228906,150.48 C92.5228906,149.89333 92.6695558,149.416669 92.9628906,149.05 C93.2562254,148.683332 93.1828928,148.353335 92.7428906,148.06 C92.3028884,147.766665 92.2295558,147.180004 92.5228906,146.3 C92.669558,145.566663 93.2562188,144.723338 94.2828906,143.77 C95.3095624,142.816662 99.4895206,138.9667 106.822891,132.22 C115.182932,124.739963 121.856199,118.726689 126.842891,114.18 C143.709642,98.6332556 152.142891,90.7133348 152.142891,90.42 L150.602891,91.3 C148.842882,92.6200066 145.39625,93.3533326 140.262891,93.5 C133.369523,93.9400022 128.749569,92.6200154 126.402891,89.54 C125.962888,88.9533304 124.679568,86.6800198 122.552891,82.72 C120.426213,78.7599802 118.922895,75.9000088 118.042891,74.14 C117.162886,71.939989 116.466227,69.2633491 115.952891,66.11 C115.439555,62.9566509 115.329556,60.4266762 115.622891,58.52 C116.942897,50.1599582 125.082816,40.113392 140.042891,28.38 C151.776283,19.1399538 163.436166,12.3933546 175.022891,8.14 C186.609615,3.8866454 196.142853,2.859989 203.622891,5.06 C206.556239,5.793337 209.41621,7.4066542 212.202891,9.9 C214.549569,11.9533436 216.41955,14.1166553 217.812891,16.39 C219.206231,18.6633447 221.00288,22.366641 223.202891,27.5 C224.669565,31.3133524 225.476223,34.1733238 225.622891,36.08 C225.769558,39.013348 225.146231,42.1299835 223.752891,45.43 C222.35955,48.7300165 220.122906,52.5066454 217.042891,56.76 C213.962875,61.0133546 209.85625,65.9266388 204.722891,71.5 C194.01617,83.3800594 177.36967,99.219901 154.782891,119.02 Z M178.762891,69.52 C178.909558,69.52 179.349554,69.0800044 180.082891,68.2 C180.816228,67.3199956 181.146224,66.88 181.072891,66.88 C180.999557,66.88 180.559561,67.3199956 179.752891,68.2 C178.94622,69.0800044 178.616223,69.52 178.762891,69.52 Z M182.502891,65.78 C182.649558,65.78 182.942888,65.5233359 183.382891,65.01 C183.822893,64.4966641 183.969558,64.24 183.822891,64.24 C183.676223,64.24 183.419559,64.4966641 183.052891,65.01 C182.686222,65.5233359 182.502891,65.78 182.502891,65.78 Z M183.822891,9.02 L184.042891,9.24 L184.482891,9.02 C184.336223,8.8733326 184.116225,8.8733326 183.822891,9.02 Z M132.562891,40.04 C148.40297,26.106597 163.582818,16.4266938 178.102891,11 C180.596236,10.1199956 182.062888,9.5333348 182.502891,9.24 L178.542891,10.34 C163.729483,15.0333568 148.622968,24.2732644 133.222891,38.06 C131.462882,39.526674 129.446235,41.5433205 127.172891,44.11 C124.899546,46.6766795 123.542893,48.326663 123.102891,49.06 L125.962891,46.42 C128.162902,44.219989 130.36288,42.0933436 132.562891,40.04 Z M179.862891,29.04 C179.862891,28.8933326 178.432905,29.4433271 175.572891,30.69 C172.712876,31.9366729 170.622897,32.926663 169.302891,33.66 C165.196203,36.0066784 160.282919,39.4533106 154.562891,44 C151.629543,46.3466784 150.162891,47.5933326 150.162891,47.74 L150.822891,47.19 C151.262893,46.8233315 151.922886,46.3466696 152.802891,45.76 C153.682895,45.1733304 154.636219,44.4400044 155.662891,43.56 C159.329576,40.9199868 162.996206,38.500011 166.662891,36.3 C170.182908,34.099989 173.262877,32.3400066 175.902891,31.02 C177.07623,30.5799978 178.029554,30.1400022 178.762891,29.7 C179.496228,29.2599978 179.862891,29.04 179.862891,29.04 Z M151.042891,82.94 L153.022891,82.72 L153.902891,84.7 C154.636228,86.166674 154.856225,87.1199978 154.562891,87.56 C154.416223,88.0000022 154.342891,88.2566663 154.342891,88.33 C154.342891,88.4033337 154.562888,88.2933348 155.002891,88 C155.442893,87.7066652 157.716203,85.5800198 161.822891,81.62 C180.889653,63.7265772 194.016188,50.013381 201.202891,40.48 C205.602913,34.7599714 207.802891,31.533337 207.802891,30.8 C207.802891,30.6533326 206.849567,30.5066674 204.942891,30.36 C196.436181,29.4799956 185.94962,32.4866322 173.482891,39.38 C168.789534,42.0200132 163.582919,45.5766443 157.862891,50.05 C152.142862,54.5233557 147.376243,58.8133128 143.562891,62.92 L141.142891,65.78 L143.342891,67.98 C146.422906,71.3533502 147.962891,73.6266608 147.962891,74.8 C147.962891,74.9466674 147.596228,75.1666652 146.862891,75.46 C145.542884,76.0466696 145.762882,76.2666674 147.522891,76.12 C148.256228,76.12 148.73289,76.2299989 148.952891,76.45 C149.172892,76.6700011 149.649554,77.3666608 150.382891,78.54 L151.702891,80.74 L150.382891,81.62 C149.502886,82.2066696 149.062891,82.5733326 149.062891,82.72 C149.062891,82.8666674 149.722884,82.94 151.042891,82.94 Z M132.562891,113.08 C138.722921,107.359971 144.736195,101.786694 150.602891,96.36 C168.936316,79.6399164 178.102891,70.8400044 178.102891,69.96 L177.552891,70.4 C177.186222,70.6933348 176.672894,71.1333304 176.012891,71.72 C175.352887,72.3066696 174.656228,72.966663 173.922891,73.7 C159.109483,88.0734052 136.816373,108.533201 107.042891,135.08 C100.589525,140.946696 97.289558,143.953333 97.1428906,144.1 C96.7028884,144.833337 97.142884,144.686672 98.4628906,143.66 C99.6362298,142.779996 101.469545,141.240011 103.962891,139.04 C112.909602,130.973293 122.44284,122.320046 132.562891,113.08 Z M287.373281,31.6421875 L290.273672,31.6421875 C297.077091,31.6421875 301.40973,32.1076776 303.271719,33.0386719 C305.276937,33.7548213 307.532774,35.1870986 310.039297,37.3355469 C311.543211,38.7678457 312.474191,39.9136676 312.832266,40.7730469 C313.04711,41.4175813 313.154531,42.2053339 313.154531,43.1363281 C313.154531,44.568627 312.58162,46.1083251 311.435781,47.7554688 C309.000873,48.5432331 307.317947,48.9371094 306.386953,48.9371094 C304.59658,49.0087243 302.770426,49.2951798 300.908438,49.7964844 L279.101797,55.8121094 C275.52105,56.5282588 272.405847,56.8863281 269.756094,56.8863281 L270.722891,57.7457031 C268.932517,58.0321629 265.029561,58.4260392 259.013906,58.9273438 C258.942291,58.9989587 257.796469,59.1779934 255.576406,59.4644531 C254.430567,62.4722807 253.177325,66.1962018 251.816641,70.6363281 L251.924062,70.6363281 C256.435804,69.7769488 260.625215,69.0966171 264.492422,68.5953125 C270.937767,67.8791631 276.845911,67.2704452 282.217031,66.7691406 C284.007405,66.9839854 285.189034,67.1630201 285.761953,67.30625 C286.334873,67.5210948 286.621328,67.8433572 286.621328,68.2730469 C288.841391,68.7027365 290.560124,69.2040336 291.777578,69.7769531 C292.278883,69.920183 292.636952,70.3498662 292.851797,71.0660156 L293.281484,73.8589844 C294.355708,76.4371223 294.892813,78.5497313 294.892813,80.196875 L294.892813,81.4859375 C294.033433,82.2020869 291.634369,83.3837157 287.695547,85.0308594 C283.756725,86.5347731 281.035398,87.2867188 279.531484,87.2867188 C266.56918,89.2203222 255.540644,91.476159 246.445547,94.0542969 C243.00803,95.0569061 240.42993,95.8804655 238.711172,96.525 C239.642166,97.1695345 240.107656,97.5276038 240.107656,97.5992188 L240.107656,97.7066406 C237.672748,99.5686291 236.419506,100.786065 236.347891,101.358984 L234.736562,104.474219 C233.447494,106.909127 232.695548,108.950122 232.480703,110.597266 C232.337473,111.09857 232.230052,111.349219 232.158437,111.349219 L232.158437,111.564063 C231.943593,112.853131 232.051013,113.748305 232.480703,114.249609 L232.373281,115.216406 C231.871977,115.216406 231.549714,115.467055 231.406484,115.968359 C230.33226,120.408486 229.795156,123.595303 229.795156,125.528906 C229.293852,129.324498 229.043203,131.723563 229.043203,132.726172 C229.043203,135.232695 229.580307,137.058848 230.654531,138.204688 C231.084221,138.920837 231.80036,139.744396 232.802969,140.675391 C232.015204,137.882408 231.621328,135.841413 231.621328,134.552344 C231.621328,134.194269 231.657135,132.941026 231.72875,130.792578 C231.72875,130.434503 231.549715,129.682558 231.191641,128.536719 L231.191641,128.321875 C231.191641,128.10703 231.585517,127.355085 232.373281,126.066016 C232.946201,124.705332 233.232656,123.380475 233.232656,122.091406 C233.232656,121.948176 233.125235,120.802354 232.910391,118.653906 L232.910391,118.116797 C232.409086,114.464435 233.554908,110.024375 236.347891,104.796484 C236.849195,103.86549 237.887596,102.540634 239.463125,100.821875 C239.67797,100.392185 239.892811,99.7834675 240.107656,98.9957031 C240.322501,98.7092434 240.608957,98.5660156 240.967031,98.5660156 L241.181875,98.5660156 C242.399329,98.7092455 243.008047,99.2821564 243.008047,100.284766 C243.008047,100.714455 242.291908,102.504802 240.859609,105.655859 C239.069236,109.594681 237.815993,112.387622 237.099844,114.034766 C235.4527,119.119426 234.629141,123.702714 234.629141,127.784766 C234.629141,132.296507 235.488507,137.094636 237.207266,142.179297 C240.286708,142.036067 247.949392,139.278933 260.195547,133.907813 C270.794558,129.181226 277.275613,125.886988 279.638906,124.025 C284.651952,121.088787 288.76975,119.620703 291.992422,119.620703 C294.069255,119.620703 295.107656,120.265228 295.107656,121.554297 L294.677969,124.991797 L294.677969,125.099219 C294.677969,125.457293 294.78539,125.886977 295.000234,126.388281 C292.851786,127.53412 290.810791,128.82317 288.877188,130.255469 C288.089423,130.900003 287.516512,131.472914 287.158438,131.974219 C288.877196,131.616144 290.309473,130.935812 291.455313,129.933203 C292.887611,128.715749 293.890205,128.035417 294.463125,127.892188 C294.463125,127.963802 294.427318,128.214451 294.355703,128.644141 L294.892813,131.544531 C294.892813,132.69037 293.2815,134.659752 290.058828,137.452734 C285.905162,140.675407 281.321874,143.468348 276.308828,145.831641 C272.513236,147.765244 268.574474,149.519784 264.492422,151.095313 L264.492422,150.235938 C263.633043,150.737242 262.200765,151.274346 260.195547,151.847266 C258.333558,152.20534 256.614826,152.384375 255.039297,152.384375 C254.323147,152.45599 252.783449,152.957287 250.420156,153.888281 C249.704007,154.461201 248.593992,154.962498 247.090078,155.392188 C246.230699,155.607032 244.082283,156.000909 240.644766,156.573828 C238.209858,157.075133 235.703372,157.683851 233.125234,158.4 L232.802969,158.4 C229.580296,158.4 226.930583,157.540634 224.85375,155.821875 C217.907101,150.593984 214.433828,142.35839 214.433828,131.114844 C214.433828,123.95335 216.009333,114.643547 219.160391,103.185156 C224.316666,84.2788117 228.040588,71.6747711 230.332266,65.3726563 C232.767174,58.2111621 234.4501,52.7685082 235.381094,49.0445313 L235.381094,48.9371094 L235.273672,47.540625 C235.273672,44.9624871 236.097231,42.5634226 237.744375,40.3433594 C238.24568,39.555595 239.821185,38.6962286 242.470937,37.7652344 C245.26392,36.6193953 249.847208,35.4735734 256.220937,34.3277344 C267.178024,32.5373608 277.562034,31.6421875 287.373281,31.6421875 Z M256.435781,40.0210938 C256.435781,40.5940133 257.116113,40.8804688 258.476797,40.8804688 C264.420837,40.3791642 270.006719,39.8420602 275.234609,39.2691406 L276.201406,39.2691406 C277.204015,39.3407556 277.884347,39.3765625 278.242422,39.3765625 C278.457267,39.3049476 278.564688,39.1975268 278.564688,39.0542969 C278.564688,38.4097624 277.991777,37.9800792 276.845938,37.7652344 C276.559478,37.7652344 276.41625,37.7294274 276.41625,37.6578125 C276.344635,37.6578125 276.273021,37.6936194 276.201406,37.7652344 C275.771717,37.7652344 275.27042,37.7294274 274.6975,37.6578125 C268.75346,37.6578125 262.952737,38.1949165 257.295156,39.2691406 C256.722237,39.4839854 256.435781,39.734634 256.435781,40.0210938 Z M240.859609,42.384375 L240.859609,42.4917969 C240.859609,42.8498716 241.217679,43.172134 241.933828,43.4585938 C242.077058,43.6018236 242.256093,43.6734375 242.470937,43.6734375 C246.696219,42.9572881 250.205299,42.1695355 252.998281,41.3101563 C253.069896,41.0953114 253.105703,40.9520837 253.105703,40.8804688 C252.890858,40.3791642 251.995685,40.1285156 250.420156,40.1285156 C249.847237,40.1285156 248.808836,40.3433572 247.304922,40.7730469 L247.304922,40.665625 C247.877841,40.3075503 248.164297,40.0927087 248.164297,40.0210938 C248.092682,39.8778639 247.949454,39.80625 247.734609,39.80625 L247.304922,39.80625 C245.228089,39.80625 243.187093,40.3791609 241.181875,41.525 C240.96703,41.8114598 240.859609,42.0979152 240.859609,42.384375 Z M263.095937,70.9585938 C263.095937,71.1018236 263.274972,71.1734375 263.633047,71.1734375 C263.847892,71.1734375 263.955313,71.0660167 263.955313,70.8511719 L263.955313,70.6363281 C263.883698,70.4930982 263.74047,70.4214844 263.525625,70.4214844 C263.239165,70.4214844 263.095937,70.600519 263.095937,70.9585938 Z M260.302969,71.3882813 C260.302969,71.5315111 260.41039,71.6747389 260.625234,71.8179688 L260.840078,71.8179688 C261.198153,71.7463538 261.377187,71.6031261 261.377187,71.3882813 C261.305573,71.1018215 261.162345,70.9585938 260.9475,70.9585938 L260.732656,70.9585938 C260.446196,70.9585938 260.302969,71.1018215 260.302969,71.3882813 Z M257.080312,72.0328125 C257.151927,72.3192723 257.223541,72.4625 257.295156,72.4625 L257.724844,72.4625 C258.011304,72.4625 258.190338,72.2118515 258.261953,71.7105469 C258.190338,71.4957021 258.04711,71.3882813 257.832266,71.3882813 L257.724844,71.3882813 C257.366769,71.3882813 257.151927,71.6031229 257.080312,72.0328125 Z M250.527578,74.6109375 C250.527578,74.7541674 250.74242,74.8973951 251.172109,75.040625 L251.172109,75.1480469 C252.174719,75.004817 253.141506,74.6109407 254.0725,73.9664063 C254.64542,73.4651017 254.931875,72.9996115 254.931875,72.5699219 C254.788645,72.2118472 254.573804,72.0328125 254.287344,72.0328125 L254.179922,72.0328125 C253.320543,72.1044274 252.174721,72.7847592 250.742422,74.0738281 C250.599192,74.2886729 250.527578,74.4677076 250.527578,74.6109375 Z M245.908437,95.4507813 C246.123282,95.4507813 246.338124,95.5582021 246.552969,95.7730469 C246.552969,96.9188859 245.729409,97.7066385 244.082266,98.1363281 L243.76,98.1363281 C243.258695,98.0647132 243.008047,97.8498716 243.008047,97.4917969 L243.008047,97.384375 C243.008047,96.5966106 243.867413,95.9878928 245.586172,95.5582031 L245.908437,95.4507813 Z M284.365469,133.585547 C285.296463,133.370702 285.976795,133.04844 286.406484,132.61875 L286.72875,132.189063 L286.621328,132.189063 C285.833564,132.189063 285.081618,132.654553 284.365469,133.585547 Z M278.027578,136.271094 L278.349844,136.378516 L278.886953,136.378516 C280.462482,136.378516 281.751531,135.62657 282.754141,134.122656 C282.539296,134.122656 282.360261,134.086849 282.217031,134.015234 C280.498273,134.015234 279.101802,134.76718 278.027578,136.271094 Z M276.738516,137.130469 C277.09659,137.130469 277.383046,136.915627 277.597891,136.485938 L277.490469,136.485938 C277.204009,136.485938 276.95336,136.700779 276.738516,137.130469 Z" id="G2E"></path>
            <path d="M434.946172,6.82 C437.439518,6.9666674 439.309499,7.04 440.556172,7.04 C441.802845,7.04 443.23283,7.2599978 444.846172,7.7 C446.459513,8.1400022 448.146163,8.7633293 449.906172,9.57 C451.666181,10.3766707 452.802836,11.0733304 453.316172,11.66 C453.829508,12.2466696 454.526167,12.906663 455.406172,13.64 L459.366172,20.46 C459.952841,20.46 460.392837,20.4966663 460.686172,20.57 C460.979507,20.6433337 461.602834,20.5700011 462.556172,20.35 C463.50951,20.1299989 464.242836,20.1666652 464.756172,20.46 C465.269508,20.7533348 465.856169,21.0099989 466.516172,21.23 C467.176175,21.4500011 468.0195,21.7066652 469.046172,22 C470.072844,22.2933348 470.952835,22.7333304 471.686172,23.32 C472.419509,23.9066696 473.372833,24.7133282 474.546172,25.74 C475.279509,27.206674 475.902836,28.3799956 476.416172,29.26 C476.929508,30.1400044 477.112839,31.2033271 476.966172,32.45 C476.819504,33.6966729 476.599507,34.5399978 476.306172,34.98 C476.012837,35.4200022 475.792839,36.006663 475.646172,36.74 C474.766167,37.0333348 474.069508,37.3266652 473.556172,37.62 C473.042836,37.9133348 472.30951,37.9866674 471.356172,37.84 C470.402834,37.6933326 469.522843,37.5100011 468.716172,37.29 C467.909501,37.0699989 466.699513,36.8133348 465.086172,36.52 C463.47283,36.2266652 461.272852,36.2266652 458.486172,36.52 C455.699491,36.8133348 452.876186,37.1066652 450.016172,37.4 C447.156158,37.6933348 445.286176,38.1333304 444.406172,38.72 C443.526167,39.3066696 442.60951,39.7466652 441.656172,40.04 C440.702834,40.3333348 439.566178,40.846663 438.246172,41.58 C436.926165,42.313337 435.202849,43.3033271 433.076172,44.55 C430.949495,45.7966729 427.099533,49.1333062 421.526172,54.56 L416.466172,59.84 L417.126172,58.08 L416.466172,57.86 C415.292833,59.1800066 413.826181,60.0599978 412.066172,60.5 L411.626172,59.4 L411.186172,59.4 C410.306167,61.600011 409.499509,63.7266564 408.766172,65.78 L406.566172,66.66 C406.419504,66.66 406.309506,66.6233337 406.236172,66.55 C406.162838,66.4766663 406.089506,66.44 406.016172,66.44 C405.942838,66.44 405.686174,66.5133326 405.246172,66.66 C404.952837,66.3666652 404.476175,66.0000022 403.816172,65.56 C403.156169,65.1199978 402.606174,65.0099989 402.166172,65.23 C401.72617,65.4500011 401.396173,65.4866674 401.176172,65.34 C400.956171,65.1933326 400.626174,65.0466674 400.186172,64.9 C399.74617,64.3133304 399.379507,63.8366685 399.086172,63.47 C398.792837,63.1033315 398.499507,62.1133414 398.206172,60.5 C397.912837,58.8866586 397.436175,57.4933392 396.776172,56.32 C396.116169,55.1466608 395.859504,54.2300033 396.006172,53.57 C396.152839,52.9099967 396.152839,52.3966685 396.006172,52.03 L395.346172,50.38 C394.026165,50.38 392.779511,50.4166663 391.606172,50.49 C390.432833,50.5633337 388.746183,50.4900011 386.546172,50.27 C384.346161,50.0499989 382.07285,49.7200022 379.726172,49.28 C377.379493,48.8399978 376.132839,48.62 375.986172,48.62 C375.839504,48.62 375.692839,48.6933326 375.546172,48.84 L374.886172,48.62 C373.27283,47.886663 372.026176,47.4100011 371.146172,47.19 C370.266167,46.9699989 369.459509,46.6033359 368.726172,46.09 C367.992835,45.5766641 366.746181,44.7333392 364.986172,43.56 C364.692837,42.6799956 364.436173,42.0200022 364.216172,41.58 C363.996171,41.1399978 363.776173,40.5900033 363.556172,39.93 C363.336171,39.2699967 363.226172,38.6100033 363.226172,37.95 C363.226172,37.2899967 363.372837,36.8133348 363.666172,36.52 L364.766172,35.42 C366.379513,35.5666674 367.736166,35.64 368.836172,35.64 C369.936177,35.64 371.146165,35.9699967 372.466172,36.63 C373.786178,37.2900033 375.399496,37.7666652 377.306172,38.06 C379.212848,38.3533348 381.266161,38.5366663 383.466172,38.61 C385.666183,38.6833337 388.196158,38.5000022 391.056172,38.06 C393.916186,37.6199978 395.56617,37.3266674 396.006172,37.18 C395.419502,34.6866542 395.016173,32.8900055 394.796172,31.79 C394.576171,30.6899945 394.246174,29.4433403 393.806172,28.05 C393.36617,26.6566597 392.596177,25.5200044 391.496172,24.64 C390.396166,23.7599956 388.746183,22.0000132 386.546172,19.36 L384.126172,18.7 L384.786172,18.26 C383.906167,17.8199978 383.246174,17.3066696 382.806172,16.72 C383.246174,17.0133348 383.942834,17.3799978 384.896172,17.82 C385.84951,18.2600022 386.692835,18.3333348 387.426172,18.04 C388.159509,17.7466652 389.296164,17.6366663 390.836172,17.71 C392.37618,17.7833337 393.696166,18.1133304 394.796172,18.7 C395.896177,19.2866696 397.399496,20.0933282 399.306172,21.12 C400.332844,22.2933392 401.176169,23.1733304 401.836172,23.76 C402.496175,24.3466696 403.229501,25.4099923 404.036172,26.95 C404.842843,28.4900077 405.392837,29.7366619 405.686172,30.69 C405.979507,31.6433381 406.419502,32.9999912 407.006172,34.76 L408.216172,34.76 C408.58284,34.76 417.199421,32.4133568 434.066172,27.72 C434.506174,27.4266652 434.836171,27.0966685 435.056172,26.73 C435.276173,26.3633315 436.082832,25.0433447 437.476172,22.77 C438.869512,20.4966553 439.566172,19.1033359 439.566172,18.59 C439.566172,18.0766641 439.639504,17.6000022 439.786172,17.16 C438.612833,16.426663 437.659509,15.8766685 436.926172,15.51 C436.192835,15.1433315 435.129512,14.8500011 433.736172,14.63 C432.342832,14.4099989 431.059511,14.0066696 429.886172,13.42 C428.712833,12.8333304 427.722843,12.173337 426.916172,11.44 C426.109501,10.706663 425.376175,10.1200022 424.716172,9.68 C424.056169,9.2399978 423.066178,8.5066718 421.746172,7.48 C426.146194,7.48 430.54615,7.2600022 434.946172,6.82 Z M372.246172,39.6 C371.80617,40.1866696 371.366174,40.6999978 370.926172,41.14 L371.366172,42.24 L372.686172,41.8 L372.906172,42.68 L374.006172,42.46 C373.419502,42.1666652 373.199504,41.653337 373.346172,40.92 L372.686172,40.48 L372.686172,39.6 L372.246172,39.6 Z M420.426172,45.32 C417.639491,46.053337 415.512846,46.5666652 414.046172,46.86 C412.579498,47.1533348 411.772839,47.3733326 411.626172,47.52 L410.966172,48.18 L411.186172,58.08 L412.946172,56.32 L412.066172,56.32 C417.346198,50.1599692 420.022838,46.8966685 420.096172,46.53 C420.169506,46.1633315 420.279504,45.8333348 420.426172,45.54 L420.426172,45.32 Z M423.881467,162.612353 L423.506172,162.8 L423.286172,162.14 C423.459114,162.399413 423.657545,162.556864 423.881467,162.612353 L423.881467,162.612353 Z M423.979382,162.629935 C424.107191,162.64444 424.242787,162.627795 424.386172,162.58 L424.936172,163.13 C425.156173,163.350001 425.522836,163.789997 426.036172,164.45 C426.549508,165.110003 427.392833,166.246659 428.566172,167.86 C428.566172,167.419998 428.639504,167.016668 428.786172,166.65 C428.932839,166.283331 428.82284,165.80667 428.456172,165.22 C428.089503,164.63333 427.466176,163.606674 426.586172,162.14 L428.786172,165 C428.932839,162.213319 429.079504,160.416671 429.226172,159.61 C429.372839,158.803329 429.372839,157.960004 429.226172,157.08 C429.079504,156.199996 428.712841,155.430003 428.126172,154.77 C427.539502,154.109997 427.319504,153.48667 427.466172,152.9 C427.612839,152.31333 427.612839,151.873335 427.466172,151.58 C427.319504,151.286665 427.246172,150.920002 427.246172,150.48 L427.686172,150.92 C427.686172,150.626665 427.722838,150.443334 427.796172,150.37 C427.869506,150.296666 428.016171,150.186667 428.236172,150.04 C428.456173,149.893333 428.712837,149.52667 429.006172,148.94 C428.859504,148.646665 428.786172,148.390001 428.786172,148.17 C428.786172,147.949999 428.969503,147.253339 429.336172,146.08 C429.70284,144.906661 429.70284,143.770005 429.336172,142.67 C428.969503,141.569995 429.00617,140.653337 429.446172,139.92 C429.886174,139.186663 430.069506,138.453337 429.996172,137.72 C429.922838,136.986663 429.959504,135.996673 430.106172,134.75 C430.252839,133.503327 430.289506,131.303349 430.216172,128.15 C430.142838,124.996651 430.142838,122.320011 430.216172,120.12 C430.289506,117.919989 430.399504,115.720011 430.546172,113.52 C430.692839,111.319989 430.656173,109.046678 430.436172,106.7 C430.216171,104.353322 430.436169,102.373341 431.096172,100.76 C431.756175,99.1466586 431.939507,95.8466916 431.646172,90.86 C431.352837,85.8733084 431.059507,82.4633425 430.766172,80.63 C430.472837,78.7966575 430.179507,76.2666828 429.886172,73.04 L424.826172,69.3 L422.626172,66.66 L418.006172,62.48 L418.226172,62.26 L420.646172,62.26 C421.232841,62.26 421.636171,62.1500011 421.856172,61.93 C422.076173,61.7099989 422.479502,61.5266674 423.066172,61.38 L422.186172,60.94 C423.066176,60.3533304 423.872835,59.9133348 424.606172,59.62 C425.339509,59.3266652 426.91616,59.2166663 429.336172,59.29 C431.756184,59.3633337 433.259502,59.2900011 433.846172,59.07 C434.432841,58.8499989 434.94617,58.5933348 435.386172,58.3 C435.679507,58.3 435.936171,58.2633337 436.156172,58.19 C436.376173,58.1166663 437.109499,58.4099967 438.356172,59.07 C439.602845,59.7300033 440.7395,60.0233337 441.766172,59.95 C442.792844,59.8766663 443.599502,60.0599978 444.186172,60.5 C444.772841,60.9400022 445.469501,61.3066652 446.276172,61.6 C447.082843,61.8933348 447.70617,62.1499989 448.146172,62.37 C448.586174,62.5900011 449.172835,62.9199978 449.906172,63.36 L453.426172,67.76 L453.206172,69.96 C453.646174,70.693337 454.012837,71.4999956 454.306172,72.38 L453.426172,74.36 L450.786172,74.58 C450.34617,76.046674 450.089506,77.2566619 450.016172,78.21 C449.942838,79.1633381 449.686174,80.739989 449.246172,82.94 C448.80617,85.140011 448.586172,86.973326 448.586172,88.44 C449.466176,88.2933326 450.236169,88.22 450.896172,88.22 C451.556175,88.22 452.472833,88.0733348 453.646172,87.78 C454.819511,87.4866652 456.579493,86.973337 458.926172,86.24 L460.026172,84.7 C460.612841,84.7 461.089503,84.6633337 461.456172,84.59 C461.82284,84.5166663 462.079504,84.5166663 462.226172,84.59 C462.372839,84.6633337 462.519504,84.7 462.666172,84.7 L463.546172,84.26 C463.986174,84.26 464.316171,84.2233337 464.536172,84.15 C464.756173,84.0766663 465.049503,83.8566685 465.416172,83.49 C465.78284,83.1233315 466.18617,82.8300011 466.626172,82.61 C467.066174,82.3899989 467.469503,82.28 467.836172,82.28 C468.20284,82.28 468.60617,82.1333348 469.046172,81.84 L470.146172,83.38 L474.326172,84.48 L475.866172,86.02 L478.286172,88 C477.992837,89.1733392 478.139502,90.2733282 478.726172,91.3 L476.306172,94.38 C475.572835,94.38 474.986174,94.4533326 474.546172,94.6 C474.10617,94.7466674 473.519509,94.7833337 472.786172,94.71 C472.052835,94.6366663 471.50284,94.6366663 471.136172,94.71 C470.769503,94.7833337 470.549506,94.8566663 470.476172,94.93 C470.402838,95.0033337 470.219507,95.04 469.926172,95.04 L469.266172,95.26 C468.972837,95.4066674 468.752839,95.48 468.606172,95.48 C468.459504,95.48 468.239507,95.6266652 467.946172,95.92 C467.652837,96.2133348 466.956177,96.4699989 465.856172,96.69 C464.756166,96.9100011 463.802843,97.4599956 462.996172,98.34 C462.189501,99.2200044 461.162845,99.5866674 459.916172,99.44 C458.669499,99.2933326 457.349512,99.6966619 455.956172,100.65 C454.562832,101.603338 453.352844,102.336664 452.326172,102.85 C451.2995,103.363336 450.529508,103.803331 450.016172,104.17 C449.502836,104.536669 448.806176,105.233328 447.926172,106.26 L446.606172,108.24 L447.046172,108.9 C447.926176,109.193335 448.769501,109.376666 449.576172,109.45 C450.382843,109.523334 452.729486,109.376669 456.616172,109.01 C460.502858,108.643332 462.9595,108.386667 463.986172,108.24 C465.012844,108.093333 465.709503,107.946667 466.076172,107.8 C466.44284,107.653333 466.919502,107.28667 467.506172,106.7 C468.092841,106.993335 468.752835,107.14 469.486172,107.14 L470.366172,108.24 C472.71285,108.973337 474.986161,109.926661 477.186172,111.1 C477.479507,111.540002 478.029501,112.089997 478.836172,112.75 C479.642843,113.410003 480.082838,114.179996 480.156172,115.06 C480.229506,115.940004 480.412837,116.67333 480.706172,117.26 L479.166172,118.8 C478.72617,119.240002 478.249508,119.569999 477.736172,119.79 C477.222836,120.010001 476.269512,119.900002 474.876172,119.46 C473.482832,119.019998 471.942847,119.129997 470.256172,119.79 C468.569497,120.450003 467.286176,121.109997 466.406172,121.77 C465.526167,122.430003 464.279513,123.419993 462.666172,124.74 C462.372837,124.593333 462.116173,124.52 461.896172,124.52 C461.676171,124.52 461.08951,124.81333 460.136172,125.4 C459.182834,125.98667 458.486174,126.353333 458.046172,126.5 L456.726172,125.62 C452.912819,127.966678 449.53952,130.533319 446.606172,133.32 L447.046172,141.02 C447.339507,141.02 447.669503,141.093333 448.036172,141.24 C448.40284,141.386667 448.916169,141.350001 449.576172,141.13 C450.236175,140.909999 451.446163,140.653335 453.206172,140.36 L453.206172,139.92 C453.646174,139.33333 454.306167,138.966667 455.186172,138.82 L455.846172,137.06 L458.486172,136.84 L459.146172,135.74 L458.706172,135.08 L459.146172,134.64 L459.366172,134.2 L460.246172,135.3 L460.466172,134.86 L460.686172,133.1 C460.979507,133.68667 461.272837,134.419996 461.566172,135.3 L460.906172,134.64 L460.466172,135.3 L461.786172,135.74 L462.446172,134.64 L463.766172,133.98 L464.206172,133.1 L465.086172,133.32 L465.746172,132.44 L465.306172,131.34 L466.296172,131.34 C466.516173,131.34 466.699504,131.486665 466.846172,131.78 L467.506172,131.34 L467.066172,128.92 L466.186172,128.7 L467.066172,128.48 L468.606172,130.24 C468.899507,130.24 469.082838,130.203334 469.156172,130.13 C469.229506,130.056666 469.302838,130.093333 469.376172,130.24 C469.449506,130.386667 469.779502,130.533333 470.366172,130.68 L470.806172,131.56 L472.346172,132.22 L472.566172,131.56 C473.446176,131.853335 474.032837,131.633337 474.326172,130.9 C475.206176,131.340002 476.012835,131.193337 476.746172,130.46 L477.846172,130.68 C478.139507,130.239998 478.322838,129.946667 478.396172,129.8 C478.469506,129.653333 478.469506,129.470001 478.396172,129.25 C478.322838,129.029999 478.139507,128.773335 477.846172,128.48 C478.579509,128.626667 479.386167,128.626667 480.266172,128.48 C480.266172,128.626667 480.522836,128.99333 481.036172,129.58 C481.549508,130.16667 482.099502,130.973328 482.686172,132 C485.179518,133.320007 486.9395,134.309997 487.966172,134.97 C488.992844,135.630003 489.909501,135.96 490.716172,135.96 C491.522843,135.96 492.366167,136.179998 493.246172,136.62 C494.126176,137.060002 494.749503,137.28 495.116172,137.28 C495.48284,137.28 495.812837,137.353333 496.106172,137.5 L496.326172,136.84 L496.986172,136.62 C497.426174,137.940007 498.086167,139.186661 498.966172,140.36 C500.139511,141.533339 501.386165,142.559996 502.706172,143.44 C502.999507,144.02667 503.292837,144.503332 503.586172,144.87 C503.879507,145.236669 504.026172,145.639998 504.026172,146.08 L504.026172,147.84 L505.786172,148.94 C505.786172,149.820004 505.822838,150.369999 505.896172,150.59 C505.969506,150.810001 505.896173,151.066665 505.676172,151.36 C505.456171,151.653335 505.199507,152.09333 504.906172,152.68 C504.026167,153.413337 503.40284,153.963332 503.036172,154.33 C502.669503,154.696669 502.266174,154.88 501.826172,154.88 C501.38617,154.88 500.872841,154.953333 500.286172,155.1 L498.966172,156.2 L496.436172,156.2 C495.922836,156.2 495.519507,156.163334 495.226172,156.09 C494.932837,156.016666 494.712839,155.906667 494.566172,155.76 C493.832835,156.34667 493.136175,156.713333 492.476172,156.86 C491.816169,157.006667 491.046176,157.006667 490.166172,156.86 C489.286167,156.713333 488.552841,156.786665 487.966172,157.08 C487.379502,157.373335 486.792841,157.483334 486.206172,157.41 C485.619502,157.336666 485.106174,157.519998 484.666172,157.96 C484.22617,158.400002 483.639509,158.473335 482.906172,158.18 C482.172835,157.886665 480.962847,157.74 479.276172,157.74 C477.589497,157.74 475.792848,157.44667 473.886172,156.86 C471.979496,156.27333 470.219513,156.163331 468.606172,156.53 C466.99283,156.896668 465.41618,157.043334 463.876172,156.97 C462.336164,156.896666 461.346174,156.933333 460.906172,157.08 C460.46617,157.226667 459.146183,157.373333 456.946172,157.52 C454.746161,157.666667 451.959522,158.106663 448.586172,158.84 L448.586172,160.16 L449.246172,159.06 L449.686172,159.94 L448.696172,160.6 C448.476171,160.746667 448.402838,161.369995 448.476172,162.47 C448.549506,163.570006 448.586172,165.293322 448.586172,167.64 L449.246172,165.66 C449.246172,165.953335 449.319504,166.209999 449.466172,166.43 C449.612839,166.650001 449.392841,167.089997 448.806172,167.75 C448.219502,168.410003 448.072837,172.919958 448.366172,181.28 L448.806172,181.06 C448.659504,181.940004 448.622838,182.636664 448.696172,183.15 C448.769506,183.663336 448.659507,184.689992 448.366172,186.23 C448.072837,187.770008 448.256169,189.23666 448.916172,190.63 C449.576175,192.02334 449.759507,192.939998 449.466172,193.38 C449.172837,193.820002 449.026172,194.259998 449.026172,194.7 L446.606172,196.02 C446.019502,196.900004 445.54284,197.449999 445.176172,197.67 C444.809503,197.890001 444.552839,198.29333 444.406172,198.88 L443.746172,201.52 L441.766172,202.84 C441.179502,202.693333 440.776173,202.546667 440.556172,202.4 C440.336171,202.253333 439.162849,201.960002 437.036172,201.52 C434.909495,201.079998 433.332844,200.346672 432.306172,199.32 C431.2795,198.293328 429.812848,196.753344 427.906172,194.7 C427.759504,194.406665 427.722838,194.223334 427.796172,194.15 C427.869506,194.076666 427.796173,193.783336 427.576172,193.27 C427.356171,192.756664 427.246172,191.766674 427.246172,190.3 C427.246172,188.833326 427.099507,187.953335 426.806172,187.66 C426.512837,187.366665 426.146174,186.92667 425.706172,186.34 L426.806172,187 L426.806172,185.68 C426.806172,185.386665 426.62284,185.020002 426.256172,184.58 C425.889503,184.139998 425.339509,183.040009 424.606172,181.28 L424.826172,180.84 L425.266172,180.62 C424.2395,179.153326 423.432841,177.613341 422.846172,176 L423.726172,177.32 L424.386172,177.1 C423.94617,176.51333 423.652839,175.92667 423.506172,175.34 L424.606172,176.22 L424.606172,175.56 L425.266172,176 L423.726172,172.7 L425.046172,174.46 L426.366172,174.02 C426.219504,173.873333 426.072839,173.653335 425.926172,173.36 C425.779504,173.066665 425.816171,172.663336 426.036172,172.15 C426.256173,171.636664 426.18284,171.233335 425.816172,170.94 C425.449503,170.646665 425.046174,170.133337 424.606172,169.4 L427.026172,171.16 L427.246172,170.94 C427.246172,170.499998 427.099507,169.950003 426.806172,169.29 C426.512837,168.629997 426.256173,167.970003 426.036172,167.31 C425.816171,166.649997 425.632839,166.136668 425.486172,165.77 C425.339504,165.403331 425.192839,165.000002 425.046172,164.56 C424.902292,164.12836 424.546699,163.485011 423.979382,162.629935 L423.979382,162.629935 Z M389.406172,73.26 C390.872846,73.7000022 391.899502,73.92 392.486172,73.92 C393.072841,73.92 393.659502,74.0299989 394.246172,74.25 C394.832841,74.4700011 395.602834,74.58 396.556172,74.58 C397.50951,74.58 398.79283,74.8733304 400.406172,75.46 C402.019513,76.0466696 403.376166,76.706663 404.476172,77.44 C405.576177,78.173337 406.566167,78.6499989 407.446172,78.87 C408.326176,79.0900011 408.98617,79.3833315 409.426172,79.75 L411.406172,81.4 C412.579511,83.3066762 413.459502,84.626663 414.046172,85.36 C414.632841,86.093337 415.036171,86.9366619 415.256172,87.89 C415.476173,88.8433381 415.586172,89.4666652 415.586172,89.76 L415.586172,91.3 L413.606172,93.06 L410.306172,109.56 L412.066172,108.46 L415.366172,104.94 C415.072837,105.380002 415.072837,105.89333 415.366172,106.48 L415.036172,106.81 C414.962838,106.883334 414.15618,107.763325 412.616172,109.45 C411.076164,111.136675 410.012841,112.786659 409.426172,114.4 C408.839502,116.013341 408.36284,117.736658 407.996172,119.57 C407.629503,121.403343 407.26284,123.30999 406.896172,125.29 C406.529503,127.27001 406.56617,129.213324 407.006172,131.12 C407.446174,133.026676 407.776171,136.143312 407.996172,140.47 C408.216173,144.796688 407.996175,150.149968 407.336172,156.53 C406.676169,162.910032 406.639502,166.686661 407.226172,167.86 C407.812841,169.033339 408.106172,170.133328 408.106172,171.16 C408.106172,172.186672 407.666176,173.139996 406.786172,174.02 C405.906167,174.900004 405.429506,175.63333 405.356172,176.22 C405.282838,176.80667 405.172839,177.759993 405.026172,179.08 C404.439502,179.373335 403.999507,179.703332 403.706172,180.07 C403.412837,180.436669 402.936175,180.583334 402.276172,180.51 C401.616169,180.436666 401.066174,180.509999 400.626172,180.73 L399.086172,181.5 C397.47283,180.91333 396.226176,180.400002 395.346172,179.96 C394.466167,179.519998 393.806174,179.153335 393.366172,178.86 L392.266172,177.1 L391.386172,177.1 C391.386172,176.659998 391.349506,176.366667 391.276172,176.22 C391.202838,176.073333 391.019507,175.890001 390.726172,175.67 C390.432837,175.449999 390.176173,175.04667 389.956172,174.46 C389.736171,173.87333 389.296175,173.176671 388.636172,172.37 C387.976169,171.563329 387.609506,170.756671 387.536172,169.95 C387.462838,169.143329 387.462838,168.593335 387.536172,168.3 C387.609506,168.006665 387.572839,167.786667 387.426172,167.64 L386.766172,166.98 L387.646172,166.98 C387.499504,166.539998 387.389506,166.283334 387.316172,166.21 C387.242838,166.136666 387.242838,166.026667 387.316172,165.88 C387.389506,165.733333 387.426172,165.440002 387.426172,165 L386.766172,164.56 C386.472837,163.679996 386.14284,162.983336 385.776172,162.47 C385.409503,161.956664 385.079507,161.296671 384.786172,160.49 C384.492837,159.683329 384.052841,158.876671 383.466172,158.07 C382.879502,157.263329 382.586172,156.56667 382.586172,155.98 L382.146172,155.98 L378.846172,148.94 L368.946172,155.76 L367.626172,157.96 C366.892835,158.400002 366.416173,158.729999 366.196172,158.95 C365.976171,159.170001 365.572841,159.316666 364.986172,159.39 C364.399502,159.463334 363.776175,159.79333 363.116172,160.38 C362.456169,160.96667 361.612844,161.406665 360.586172,161.7 C359.5595,161.993335 358.496177,161.956669 357.396172,161.59 C356.296166,161.223332 355.379509,160.893335 354.646172,160.6 C353.912835,160.306665 353.326174,159.976669 352.886172,159.61 C352.44617,159.243332 351.932841,158.840002 351.346172,158.4 C351.199504,157.373328 351.089506,156.676669 351.016172,156.31 C350.942838,155.943332 350.832839,155.650001 350.686172,155.43 C350.539504,155.209999 350.246174,154.733337 349.806172,154 L347.386172,152.24 L347.386172,151.03 C347.386172,150.663332 347.716169,150.150003 348.376172,149.49 C349.036175,148.829997 349.58617,148.170003 350.026172,147.51 C350.466174,146.849997 351.1995,145.713341 352.226172,144.1 C353.252844,142.926661 354.499498,142.120002 355.966172,141.68 L357.286172,140.36 L356.846172,141.46 L357.506172,141.9 L359.046172,141.02 C358.899504,142.486674 358.899504,143.879993 359.046172,145.2 C359.926176,145.053333 360.622836,144.870001 361.136172,144.65 C361.649508,144.429999 363.079493,143.770006 365.426172,142.67 C367.77285,141.569995 372.099474,138.600024 378.406172,133.76 L378.406172,132.88 L379.066172,133.32 L379.066172,132.88 L379.726172,132.88 L378.846172,131.78 L379.726172,131.78 L379.946172,132.22 L393.146172,123.42 L394.246172,117.7 L393.586172,117.26 L393.366172,118.14 C392.3395,119.020004 391.459509,119.826663 390.726172,120.56 C389.992835,121.293337 387.426194,122.466659 383.026172,124.08 C378.62615,125.693341 375.766178,126.939996 374.446172,127.82 C373.126165,128.700004 371.439515,129.726661 369.386172,130.9 L368.286172,132.22 C367.992837,132.660002 367.736173,133.026665 367.516172,133.32 C367.296171,133.613335 366.819509,133.723334 366.086172,133.65 C365.352835,133.576666 364.80284,133.649999 364.436172,133.87 C364.069503,134.090001 363.372844,134.49333 362.346172,135.08 L363.886172,133.32 C363.299502,133.173333 362.896173,133.063334 362.676172,132.99 C362.456171,132.916666 362.126174,132.696669 361.686172,132.33 C361.24617,131.963332 360.439511,131.340004 359.266172,130.46 C358.532835,129.87333 358.459502,129.066672 359.046172,128.04 C357.726165,126.866661 356.846174,125.400009 356.406172,123.64 C357.139509,123.05333 357.616171,122.613335 357.836172,122.32 C358.056173,122.026665 358.312837,121.88 358.606172,121.88 L359.486172,121.88 L359.486172,121.22 L360.366172,121.88 L361.026172,120.78 L362.676172,121.33 C362.896173,121.403334 363.446167,121.330001 364.326172,121.11 C365.206176,120.889999 367.552819,119.716677 371.366172,117.59 C375.179524,115.463323 378.002829,114.10667 379.836172,113.52 C381.669514,112.93333 382.989501,112.310003 383.796172,111.65 C384.602843,110.989997 385.702832,110.66 387.096172,110.66 C388.489512,110.66 389.626167,110.769999 390.506172,110.99 C391.386176,111.210001 391.936171,111.429999 392.156172,111.65 L393.146172,112.64 L394.906172,112.2 L396.666172,99.88 C394.319493,100.320002 392.522845,100.686665 391.276172,100.98 C390.029499,101.273335 388.63618,101.639998 387.096172,102.08 C385.556164,102.520002 384.236177,102.923332 383.136172,103.29 C382.036166,103.656669 380.386183,104.353328 378.186172,105.38 L379.506172,103.84 L372.906172,106.04 L372.026172,107.14 L372.686172,107.8 L373.126172,108.9 L372.686172,110 C372.24617,110 371.879507,110.036666 371.586172,110.11 C371.292837,110.183334 370.742843,110.073335 369.936172,109.78 C369.129501,109.486665 368.212844,109.413333 367.186172,109.56 C366.1595,109.706667 365.426174,109.560002 364.986172,109.12 C364.54617,108.679998 363.959509,108.496666 363.226172,108.57 C362.492835,108.643334 361.979507,108.570001 361.686172,108.35 C361.392837,108.129999 361.026174,107.72667 360.586172,107.14 C359.999502,105.819993 359.596173,104.903336 359.376172,104.39 C359.156171,103.876664 359.046172,103.363336 359.046172,102.85 L359.046172,100.54 L359.486172,100.32 L360.806172,99.22 C361.246174,98.6333304 361.576171,98.3033337 361.796172,98.23 L362.456172,98.01 C362.676173,97.9366663 362.859504,97.9733326 363.006172,98.12 C363.152839,98.2666674 363.519502,98.4866652 364.106172,98.78 C365.719513,98.046663 368.762816,96.9100077 373.236172,95.37 C377.709528,93.8299923 381.522823,92.8033359 384.676172,92.29 C387.829521,91.7766641 389.882834,91.2633359 390.836172,90.75 C391.78951,90.2366641 392.632835,90.1266652 393.366172,90.42 C394.099509,90.7133348 395.566161,91.0799978 397.766172,91.52 C397.766172,90.053326 397.802838,88.9900033 397.876172,88.33 C397.949506,87.6699967 397.729508,87.1566685 397.216172,86.79 C396.702836,86.4233315 396.006176,85.8000044 395.126172,84.92 L392.486172,82.72 C391.019498,80.9599912 389.956175,79.8233359 389.296172,79.31 C388.636169,78.7966641 388.306172,78.3200022 388.306172,77.88 C388.306172,77.4399978 388.196173,77.1100011 387.976172,76.89 C387.756171,76.6699989 387.352841,76.0466718 386.766172,75.02 L386.106172,75.24 L385.666172,74.8 L389.406172,73.26 Z M451.666172,99.88 L447.046172,100.98 L446.826172,104.5 L448.146172,103.84 L451.886172,100.1 L451.666172,99.88 Z M454.966172,121.88 C452.326159,122.173335 450.346178,122.32 449.026172,122.32 C447.706165,122.32 446.972839,122.429999 446.826172,122.65 C446.679504,122.870001 446.386174,123.126665 445.946172,123.42 L446.386172,129.8 L453.426172,123.86 L454.966172,121.88 Z M390.946172,138.16 L387.646172,141.02 L388.306172,141.02 L387.206172,142.12 L387.646172,143.22 L390.286172,144.76 L391.606172,137.28 L390.946172,138.16 Z M384.126172,144.98 L385.666172,146.74 C385.22617,145.713328 384.932839,144.686672 384.786172,143.66 L384.126172,144.98 Z M383.026172,145.64 L384.346172,148.28 L384.786172,148.28 L383.906172,144.98 L383.026172,145.64 Z M381.486172,146.74 L381.266172,147.18 L380.826172,147.4 L382.146172,149.38 L382.146172,148.72 L382.586172,149.16 C382.732839,149.306667 382.806172,149.453333 382.806172,149.6 L382.806172,150.04 L382.146172,149.82 L382.586172,151.14 L383.246172,151.58 L383.246172,150.92 L384.566172,153.34 L384.786172,152.9 L381.706172,146.96 L381.486172,146.74 Z M608.346172,1.42108547e-14 C610.399515,0.4400022 611.902834,0.66 612.856172,0.66 C613.80951,0.66 614.726167,0.9166641 615.606172,1.43 C616.486176,1.9433359 617.586165,2.2 618.906172,2.2 C620.226178,2.2 621.986161,2.8599934 624.186172,4.18 C626.386183,5.5000066 629.97948,7.4799868 634.966172,10.12 L635.626172,16.94 L632.986172,16.94 L632.106172,32.12 L643.326172,28.16 L642.666172,26.84 C643.839511,24.7866564 644.609503,23.393337 644.976172,22.66 C645.34284,21.926663 645.782836,21.3766685 646.296172,21.01 C646.809508,20.6433315 647.359502,20.093337 647.946172,19.36 C648.972844,19.36 650.036166,19.2866674 651.136172,19.14 C652.236177,18.9933326 653.042836,18.9933326 653.556172,19.14 C654.069508,19.2866674 654.766167,19.5066652 655.646172,19.8 L656.526172,18.48 C659.606187,20.680011 661.769499,22.146663 663.016172,22.88 C664.262845,23.613337 665.179502,24.1266652 665.766172,24.42 C666.352841,24.7133348 667.1595,24.9333326 668.186172,25.08 C669.066176,26.1066718 669.799502,26.8033315 670.386172,27.17 C670.972841,27.5366685 671.632835,28.3799934 672.366172,29.7 C673.099509,31.0200066 674.27283,33.146652 675.886172,36.08 C671.339482,37.9866762 667.232857,40.406652 663.566172,43.34 L660.706172,48.84 C664.666192,48.3999978 667.599496,48.18 669.506172,48.18 C671.412848,48.18 672.989499,47.9233359 674.236172,47.41 C675.482845,46.8966641 676.472835,46.2366707 677.206172,45.43 C677.939509,44.6233293 678.709501,44.2566663 679.516172,44.33 C680.322843,44.4033337 681.459498,44.44 682.926172,44.44 L683.366172,43.78 L686.666172,42.02 L687.326172,43.56 C688.792846,44.4400044 689.856169,45.0999978 690.516172,45.54 C691.176175,45.9800022 693.00949,46.8233271 696.016172,48.07 C699.022854,49.3166729 702.579485,51.039989 706.686172,53.24 C706.392837,53.6800022 706.099507,54.0466652 705.806172,54.34 C705.512837,54.6333348 705.402838,55.1833293 705.476172,55.99 C705.549506,56.7966707 705.366174,58.2266564 704.926172,60.28 C701.992824,61.6000066 698.912855,62.26 695.686172,62.26 L694.366172,60.5 C692.459496,60.5 690.919511,60.5366663 689.746172,60.61 C688.572833,60.6833337 687.436177,60.2066718 686.336172,59.18 C685.236166,58.1533282 683.586183,57.5666674 681.386172,57.42 C679.186161,57.2733326 676.546187,57.3099989 673.466172,57.53 C670.386156,57.7500011 667.599518,58.4099945 665.106172,59.51 C662.612826,60.6100055 659.166194,62.1133238 654.766172,64.02 L652.346172,69.08 L654.546172,71.94 L657.406172,71.28 L658.506172,72.6 C661.146185,74.2133414 663.786159,75.9733238 666.426172,77.88 L665.326172,81.62 L661.366172,82.28 L660.486172,80.96 L653.006172,82.72 L652.786172,84.92 L647.946172,85.14 L645.746172,91.08 L644.206172,86.9 C643.76617,86.9 643.36284,86.8633337 642.996172,86.79 C642.629503,86.7166663 641.529514,87.1933282 639.696172,88.22 C637.862829,89.2466718 635.039524,90.859989 631.226172,93.06 L630.346172,99.88 C640.466222,97.0933194 650.439456,93.5733546 660.266172,89.32 L660.486172,90.42 L661.586172,91.08 L662.026172,90.42 C662.759509,90.42 663.309503,90.3466674 663.676172,90.2 C664.04284,90.0533326 664.996164,90.713326 666.536172,92.18 C668.07618,93.646674 669.579498,95.0399934 671.046172,96.36 C669.872833,97.093337 668.919509,97.7899967 668.186172,98.45 C667.452835,99.1100033 666.31618,99.2566685 664.776172,98.89 C663.236164,98.5233315 662.062843,98.5966641 661.256172,99.11 C660.449501,99.6233359 659.239513,100.246663 657.626172,100.98 L657.626172,102.3 L656.526172,101.64 C647.872795,106.333357 639.586211,111.613304 631.666172,117.48 C630.6395,121.880022 630.126172,126.133313 630.126172,130.24 L654.986172,122.76 L653.886172,118.36 L657.626172,122.54 L658.726172,121.44 L659.606172,121.88 C659.459504,121.146663 659.532837,120.266672 659.826172,119.24 L656.746172,114.62 L662.906172,120.12 L664.006172,119.9 L659.826172,114.18 L661.806172,115.72 L661.806172,113.96 L658.066172,110.66 L668.186172,117.48 L667.526172,116.16 L669.066172,117.48 L669.946172,116.16 L672.366172,117.92 L673.026172,115.94 L673.906172,117.04 C675.226178,118.213339 676.362834,119.166663 677.316172,119.9 C678.26951,120.633337 679.699496,121.036666 681.606172,121.11 C683.512848,121.183334 684.796169,121.51333 685.456172,122.1 C686.116175,122.68667 686.812835,123.016666 687.546172,123.09 C688.279509,123.163334 689.526163,123.49333 691.286172,124.08 C690.992837,126.133344 690.112846,127.966659 688.646172,129.58 C689.379509,131.046674 689.746172,132.439993 689.746172,133.76 C688.13283,133.76 687.032841,133.723334 686.446172,133.65 C685.859502,133.576666 685.199509,133.83333 684.466172,134.42 C683.732835,135.00667 682.926176,135.263334 682.046172,135.19 C681.166167,135.116666 680.469508,135.226665 679.956172,135.52 C679.442836,135.813335 678.856175,136.033333 678.196172,136.18 C677.536169,136.326667 676.289514,136.839996 674.456172,137.72 C672.622829,138.600004 670.93618,138.710003 669.396172,138.05 C667.856164,137.389997 665.839518,136.950001 663.346172,136.73 C660.852826,136.509999 657.662858,136.803329 653.776172,137.61 C649.889486,138.416671 646.332855,139.333328 643.106172,140.36 C639.879489,141.386672 635.552866,142.926656 630.126172,144.98 C629.0995,149.233355 628.512839,152.643321 628.366172,155.21 C628.219504,157.77668 627.816175,162.103303 627.156172,168.19 C626.496169,174.276697 626.019507,177.979993 625.726172,179.3 L629.466172,187.66 L630.346172,186.78 L629.686172,187.66 L629.246172,189.42 L630.346172,191.18 L629.686172,192.5 L630.126172,193.38 C629.68617,194.260004 629.246174,194.919998 628.806172,195.36 C628.36617,195.800002 628.622834,197.523318 629.576172,200.53 C630.52951,203.536682 630.676175,205.993324 630.016172,207.9 C629.356169,209.806676 628.586176,211.199996 627.706172,212.08 C626.826167,212.960004 625.652846,214.426656 624.186172,216.48 C623.306167,216.48 622.572841,216.443334 621.986172,216.37 C621.399502,216.296666 620.702843,216.516664 619.896172,217.03 C619.089501,217.543336 617.659515,218.239996 615.606172,219.12 L613.186172,214.94 C612.012833,214.793333 611.169508,214.536669 610.656172,214.17 C610.142836,213.803332 609.006181,212.886674 607.246172,211.42 C605.486163,209.953326 603.43285,208.120011 601.086172,205.92 L602.406172,206.14 L603.066172,205.48 L597.566172,200.2 L603.066172,202.18 L603.286172,201.3 L600.646172,198 L601.306172,198.66 C601.599507,197.926663 601.892837,197.486667 602.186172,197.34 C602.479507,197.193333 602.516173,196.900002 602.296172,196.46 C602.076171,196.019998 601.966172,195.433337 601.966172,194.7 C595.952808,192.499989 590.012868,189.786683 584.146172,186.56 C587.226187,187.586672 589.389499,188.319998 590.636172,188.76 C591.882845,189.200002 592.909501,189.42 593.716172,189.42 C594.522843,189.42 595.806163,189.493333 597.566172,189.64 L598.006172,188.98 L600.866172,189.42 L601.086172,188.54 C594.486139,186.926659 588.252868,184.653348 582.386172,181.72 C587.079529,183.040007 590.63616,183.99333 593.056172,184.58 C595.476184,185.16667 597.712828,185.386667 599.766172,185.24 C601.819515,185.093333 603.102836,185.056666 603.616172,185.13 C604.129508,185.203334 604.532837,185.166667 604.826172,185.02 C604.972839,182.819989 605.412835,179.703353 606.146172,175.67 C606.879509,171.636647 608.199496,164.633383 610.106172,154.66 L609.006172,154.22 L610.106172,152.9 L605.706172,154.22 L606.146172,152.68 C605.70617,153.120002 603.909521,154.146659 600.756172,155.76 C597.602823,157.373341 595.366178,158.399998 594.046172,158.84 C592.726165,159.280002 591.186181,160.233326 589.426172,161.7 L596.466172,158.62 L588.986172,163.02 L592.506172,161.92 C592.06617,162.066667 591.66284,162.213333 591.296172,162.36 C590.929503,162.506667 590.122845,163.166661 588.876172,164.34 C587.629499,165.513339 585.53952,167.566652 582.606172,170.5 L583.046172,169.4 C579.232819,170.720007 576.592846,171.709997 575.126172,172.37 C573.659498,173.030003 572.559509,173.213335 571.826172,172.92 C571.092835,172.626665 570.139511,172.333335 568.966172,172.04 L569.626172,169.4 C569.772839,168.81333 569.736173,168.22667 569.516172,167.64 C569.296171,167.05333 569.039507,166.173339 568.746172,165 C569.626176,163.093324 570.5795,161.040011 571.606172,158.84 L569.846172,159.5 L568.746172,158.4 L571.166172,156.86 L572.926172,154.88 L571.826172,154.22 L572.706172,152.46 L573.586172,152.9 L574.466172,151.36 L575.346172,151.36 L575.566172,150.7 C576.446176,150.11333 577.10617,149.746667 577.546172,149.6 C577.986174,149.453333 578.352837,149.196669 578.646172,148.83 C578.939507,148.463332 579.452835,148.133335 580.186172,147.84 C580.919509,147.546665 581.946165,147.363334 583.266172,147.29 C584.586178,147.216666 585.282838,147.216666 585.356172,147.29 C585.429506,147.363334 585.612837,147.473333 585.906172,147.62 L614.286172,125.18 L615.386172,118.8 L614.286172,117.48 C599.032762,125.40004 590.196184,130.019993 587.776172,131.34 C585.35616,132.660007 582.606187,134.419989 579.526172,136.62 L576.006172,140.58 L572.706172,140.58 L571.606172,136.84 L574.686172,132.44 L573.366172,131.56 L574.466172,129.58 L576.226172,128.7 L575.126172,127.6 L576.666172,126.72 L577.766172,124.96 L577.106172,123.42 L582.606172,123.42 C584.219513,123.42 595.219403,115.353414 615.606172,99.22 C615.459504,97.4599912 615.532837,95.7733414 615.826172,94.16 C607.319463,97.2400154 599.032879,100.906645 590.966172,105.16 L587.446172,108.9 L583.486172,110.66 L584.806172,112.42 C582.606161,112.566667 580.552848,112.34667 578.646172,111.76 C579.379509,109.853324 579.819504,108.533337 579.966172,107.8 C580.112839,107.066663 580.40617,106.223338 580.846172,105.27 C581.286174,104.316662 581.616171,103.400004 581.836172,102.52 C582.056173,101.639996 582.312837,100.943336 582.606172,100.43 C582.899507,99.9166641 583.119504,99.1466718 583.266172,98.12 L581.506172,96.14 L583.706172,95.04 L585.466172,92.4 C586.199509,92.6933348 587.849492,93.0966641 590.416172,93.61 C592.982851,94.1233359 601.159436,90.9333678 614.946172,84.04 L615.606172,78.98 L614.946172,78.76 L615.606172,77.22 L614.286172,76.56 C614.872841,75.6799956 615.239504,75.0933348 615.386172,74.8 C615.532839,74.5066652 615.532839,74.0666696 615.386172,73.48 C615.239504,72.8933304 615.092839,72.0133392 614.946172,70.84 C612.599493,71.2800022 610.619513,71.6833315 609.006172,72.05 C607.39283,72.4166685 603.286205,73.8099879 596.686172,76.23 C590.086139,78.6500121 580.406236,83.7466278 567.646172,91.52 L567.426172,93.06 C566.252833,94.3800066 565.006178,95.4799956 563.686172,96.36 L562.146172,93.28 L560.606172,92.18 C561.046174,90.2733238 562.146163,88.6600066 563.906172,87.34 L564.786172,87.78 C581.359588,79.1266234 598.226086,70.5467092 615.386172,62.04 C615.679507,60.8666608 615.752839,59.9866696 615.606172,59.4 C615.459504,58.8133304 615.422838,58.1166707 615.496172,57.31 C615.569506,56.5033293 615.569506,55.7700033 615.496172,55.11 C615.422838,54.4499967 615.386172,53.753337 615.386172,53.02 C615.386172,52.286663 615.459504,51.553337 615.606172,50.82 C614.139498,51.7000044 612.709512,52.3966641 611.316172,52.91 C609.922832,53.4233359 608.309514,54.1933282 606.476172,55.22 C604.642829,56.2466718 602.846181,57.126663 601.086172,57.86 C599.326163,58.593337 597.126185,60.059989 594.486172,62.26 L593.826172,64.46 C592.506165,65.193337 591.259511,65.7066652 590.086172,66 L589.206172,64.68 L584.366172,60.72 C583.486167,57.4933172 581.87285,54.6333458 579.526172,52.14 L581.726172,48.84 C583.046178,49.2800022 583.999502,49.5366663 584.586172,49.61 C585.172841,49.6833337 585.722836,49.9033315 586.236172,50.27 C586.749508,50.6366685 587.5195,51.2599956 588.546172,52.14 L594.266172,50.71 C595.732846,50.3433315 602.992773,46.860033 616.046172,40.26 C615.752837,39.3799956 615.569506,38.6833359 615.496172,38.17 C615.422838,37.6566641 615.386172,36.5566751 615.386172,34.87 C615.386172,33.1833249 615.166174,29.2966971 614.726172,23.21 C614.28617,17.1233029 612.379522,12.6500143 609.006172,9.79 C605.632822,6.9299857 603.872839,5.1700033 603.726172,4.51 C603.579504,3.8499967 603.506172,3.153337 603.506172,2.42 L605.486172,0.66 L608.346172,0.88 L608.346172,1.42108547e-14 Z M564.126172,14.3 L568.086172,16.28 L570.506172,19.36 L569.406172,23.1 L566.326172,25.08 C565.006165,27.7200132 563.979509,29.9566575 563.246172,31.79 C562.512835,33.6233425 555.912901,43.4865772 543.446172,61.38 L549.606172,58.3 C550.632844,56.833326 551.439502,55.2200088 552.026172,53.46 L554.226172,51.48 L555.546172,52.14 L556.866172,51.26 C558.039511,51.26 558.956169,51.1500011 559.616172,50.93 C560.276175,50.7099989 560.972835,50.9299967 561.706172,51.59 C562.439509,52.2500033 563.3195,52.7999978 564.346172,53.24 C565.372844,53.6800022 566.986161,54.4866608 569.186172,55.66 L571.166172,58.3 C571.606174,58.8866696 571.972837,59.8766597 572.266172,61.27 C572.559507,62.6633403 572.486174,63.7633293 572.046172,64.57 C571.60617,65.3766707 570.946176,66.513326 570.066172,67.98 L564.786172,72.6 C555.83946,86.3867356 551.072841,93.4999978 550.486172,93.94 C549.899502,94.3800022 549.312841,94.966663 548.726172,95.7 L549.606172,97.02 C550.632844,96.1399956 551.732833,94.966674 552.906172,93.5 C551.8795,95.2600088 551.036175,96.506663 550.376172,97.24 C549.716169,97.973337 549.752835,99.5499879 550.486172,101.97 C551.219509,104.390012 551.696171,108.459971 551.916172,114.18 C552.136173,119.900029 551.989508,125.179976 551.476172,130.02 C550.962836,134.860024 550.596173,139.919974 550.376172,145.2 C550.156171,150.480026 549.679509,154.329988 548.946172,156.75 C548.212835,159.170012 547.882838,160.856662 547.956172,161.81 L548.286172,166.1 C547.2595,165.51333 546.489508,165.036669 545.976172,164.67 C545.462836,164.303332 544.986174,164.266665 544.546172,164.56 C544.10617,164.853335 543.372844,165 542.346172,165 L540.806172,162.36 L538.166172,160.6 C537.872837,159.573328 537.579507,158.876668 537.286172,158.51 C536.992837,158.143332 536.36951,156.786678 535.416172,154.44 C534.462834,152.093322 533.619509,149.966676 532.886172,148.06 L531.126172,146.52 C531.126172,145.93333 531.236171,145.383336 531.456172,144.87 C531.676173,144.356664 531.822838,143.733337 531.896172,143 C531.969506,142.266663 532.116171,141.570003 532.336172,140.91 C532.556173,140.249997 532.666172,139.480004 532.666172,138.6 L536.186172,135.08 C538.386183,127.306628 539.852835,119.240042 540.586172,110.88 C536.332817,116.746696 533.289514,120.889988 531.456172,123.31 C529.622829,125.730012 527.642849,127.966656 525.516172,130.02 C523.389495,132.073344 520.052861,135.593308 515.506172,140.58 L515.066172,137.5 L513.746172,137.72 L511.986172,135.74 L510.226172,137.72 C510.226172,137.13333 510.262838,136.656669 510.336172,136.29 C510.409506,135.923332 510.042843,135.410003 509.236172,134.75 C508.429501,134.089997 507.989506,132.843343 507.916172,131.01 C507.842838,129.176658 507.696173,127.96667 507.476172,127.38 C507.256171,126.79333 507.182838,126.096671 507.256172,125.29 C507.329506,124.483329 507.512837,123.860002 507.806172,123.42 L506.706172,120.12 C507.586176,118.506659 508.392835,116.746676 509.126172,114.84 C510.152844,114.106663 510.996169,113.520002 511.656172,113.08 C512.316175,112.639998 513.269499,111.833339 514.516172,110.66 C515.762845,109.486661 517.779491,107.433348 520.566172,104.5 C532.886233,88.6599208 539.706165,79.4566795 541.026172,76.89 C542.346178,74.3233205 544.106161,71.206685 546.306172,67.54 L536.846172,73.92 L522.986172,92.4 L514.846172,99.88 L515.066172,99.22 L514.626172,98.34 L511.326172,102.74 L509.566172,103.84 C509.272837,102.813328 509.126172,101.970003 509.126172,101.31 C509.126172,100.649997 508.612844,99.7333392 507.586172,98.56 C506.5595,97.3866608 506.082838,95.9566751 506.156172,94.27 C506.229506,92.5833249 505.899509,91.0433403 505.166172,89.65 C504.432835,88.2566597 504.249503,87.193337 504.616172,86.46 C504.98284,85.726663 505.38617,84.7000066 505.826172,83.38 L509.346172,80.74 C513.159524,76.1933106 516.532824,72.3433491 519.466172,69.19 C522.39952,66.0366509 528.706123,58.3367279 538.386172,46.09 C548.06622,33.8432721 553.786163,26.4000132 555.546172,23.76 C557.306181,21.1199868 559.212828,18.0400176 561.266172,14.52 L563.906172,14.08 L564.126172,14.3 Z M644.646172,36.08 L632.986172,41.36 C631.812833,45.9066894 631.226172,50.5999758 631.226172,55.44 L638.926172,53.68 C641.419518,48.1066388 643.47283,42.2400308 645.086172,36.08 L644.646172,36.08 Z M661.586172,42.9 L658.506172,48.84 L658.946172,49.5 L661.806172,42.9 L661.586172,42.9 Z M631.666172,71.28 C630.492833,73.480011 630.052837,75.7533216 630.346172,78.1 L633.426172,76.78 C632.3995,75.1666586 631.886172,73.3333436 631.886172,71.28 L631.666172,71.28 Z M615.386172,102.96 C614.3595,103.693337 613.259511,104.316664 612.086172,104.83 C610.912833,105.343336 604.386231,110.366619 592.506172,119.9 L615.386172,108.02 L615.606172,103.18 L615.386172,102.96 Z M641.126172,105.6 C639.219496,106.480004 637.276182,107.249997 635.296172,107.91 C633.316162,108.570003 632.032841,109.19333 631.446172,109.78 L630.566172,112.86 L641.126172,105.6 Z M538.826172,110.66 L531.786172,118.8 C526.946148,124.080026 521.812866,128.846645 516.386172,133.1 L515.506172,136.62 L516.386172,137.72 L521.446172,133.76 L527.386172,125.4 L528.926172,124.74 L539.046172,110.88 L538.826172,110.66 Z M610.546172,134.86 L604.826172,140.58 L613.186172,137.72 L613.846172,132.22 L610.546172,134.86 Z M771.076172,46.75 L770.746172,47.08 L771.076172,46.75 Z M771.076172,46.75 L771.406172,46.42 L770.966172,45.54 L765.686172,47.52 L767.446172,47.52 L766.126172,48.62 L765.026172,47.52 C763.706165,48.253337 762.532844,48.8766641 761.506172,49.39 C760.4795,49.9033359 758.829517,50.526663 756.556172,51.26 C754.282827,51.993337 752.156182,53.1666586 750.176172,54.78 C748.196162,56.3933414 745.079526,58.9599824 740.826172,62.48 C739.506165,64.3866762 738.479509,65.6333304 737.746172,66.22 C737.012835,66.8066696 736.719504,68.1633227 736.866172,70.29 C737.012839,72.4166773 737.636166,76.1566399 738.736172,81.51 C739.836177,86.8633601 740.349506,90.4199912 740.276172,92.18 C740.202838,93.9400088 740.239504,95.5166597 740.386172,96.91 C740.532839,98.3033403 740.972835,101.786639 741.706172,107.36 L739.066172,108.9 L736.426172,112.64 L733.566172,111.54 L730.706172,107.8 L729.606172,108.68 L728.066172,107.8 C726.306163,103.986648 724.692846,100.173352 723.226172,96.36 L720.366172,94.38 L719.046172,92.73 C718.752837,92.3633315 718.496173,91.7766707 718.276172,90.97 C718.056171,90.1633293 717.799507,88.7333436 717.506172,86.68 L718.826172,86.46 L717.726172,84.7 L718.826172,81.84 L719.706172,82.28 L721.246172,79.2 L719.486172,77.44 L722.786172,75.9 C724.106178,74.2866586 725.169501,73.0033381 725.976172,72.05 C726.782843,71.0966619 727.259504,68.6400198 727.406172,64.68 C727.552839,60.7199802 727.186176,58.3366707 726.306172,57.53 C725.426167,56.7233293 724.619509,55.7333392 723.886172,54.56 L725.426172,52.14 C727.626183,53.4600066 729.972826,54.3399978 732.466172,54.78 L734.886172,57.42 C736.646181,55.5133238 738.149499,54.1200044 739.396172,53.24 C740.642845,52.3599956 742.732824,51.1500077 745.666172,49.61 C748.59952,48.0699923 751.56949,45.9800132 754.576172,43.34 C757.582854,40.6999868 764.95278,34.246718 776.686172,23.98 L774.706172,22 L766.566172,16.94 L765.026172,15.18 L767.006172,13.86 C768.472846,13.86 769.682834,13.8233337 770.636172,13.75 C771.58951,13.6766663 772.726165,13.9333304 774.046172,14.52 C775.366178,15.1066696 777.492824,15.9866608 780.426172,17.16 C781.599511,16.5733304 783.139496,15.913337 785.046172,15.18 L786.366172,16.28 L787.466172,15.62 L790.326172,20.02 L798.906172,25.52 L805.946172,32.78 C811.959535,33.0733348 816.542823,33.5133304 819.696172,34.1 C822.849521,34.6866696 825.489495,34.3933392 827.616172,33.22 C829.742849,32.0466608 831.649497,31.3500011 833.336172,31.13 C835.022847,30.9099989 835.976171,30.9099989 836.196172,31.13 L836.746172,31.68 C836.892839,33.7333436 837.919496,35.3466608 839.826172,36.52 L850.166172,42.9 C851.926181,45.833348 853.3195,47.8499945 854.346172,48.95 C855.372844,50.0500055 855.849506,51.1499945 855.776172,52.25 C855.702838,53.3500055 855.812837,54.999989 856.106172,57.2 C854.932833,58.2266718 854.052841,58.9599978 853.466172,59.4 C852.879502,59.8400022 852.292841,60.1333326 851.706172,60.28 C851.119502,60.4266674 850.166178,60.6466652 848.846172,60.94 L848.186172,59.84 L842.906172,60.72 L843.566172,59.84 L841.586172,57.42 C838.946159,56.0999934 836.526183,54.2666784 834.326172,51.92 L834.326172,50.6 L832.016172,50.27 C831.502836,50.1966663 830.622845,50.526663 829.376172,51.26 C828.129499,51.993337 826.112852,53.1666586 823.326172,54.78 L823.326172,53.46 C822.2995,54.0466696 821.30951,54.4133326 820.356172,54.56 C819.402834,54.7066674 818.339511,55.2199956 817.166172,56.1 C815.992833,56.9800044 813.93952,58.2999912 811.006172,60.06 L811.006172,59.18 C808.072824,61.5266784 804.846189,63.066663 801.326172,63.8 L801.326172,65.56 L802.646172,67.1 C802.352837,69.1533436 801.692844,70.913326 800.666172,72.38 C799.199498,73.5533392 797.476182,74.6166619 795.496172,75.57 C793.516162,76.5233381 792.122843,77.1099989 791.316172,77.33 C790.509501,77.5500011 789.592844,78.1733282 788.566172,79.2 L787.466172,78.98 L787.466172,80.08 C782.772815,83.8933524 777.932863,87.5599824 772.946172,91.08 C777.932863,89.3199912 782.149488,87.9266718 785.596172,86.9 C789.042856,85.8733282 793.66281,84.993337 799.456172,84.26 C805.249534,83.526663 808.512835,82.9766685 809.246172,82.61 C809.979509,82.2433315 810.712835,81.693337 811.446172,80.96 C811.886174,81.5466696 812.6195,81.5466696 813.646172,80.96 L819.366172,84.26 L817.166172,85.8 L820.466172,87.78 L819.366172,88.22 L820.686172,89.32 L819.806172,90.2 L820.906172,90.86 C820.612837,91.0066674 820.356173,91.7033271 820.136172,92.95 L819.146172,98.56 L818.266172,98.34 C817.82617,98.9266696 817.42284,99.4766641 817.056172,99.99 C816.689503,100.503336 815.03952,107.506599 812.106172,121 L817.496172,121 C818.596177,121 819.586167,120.890001 820.466172,120.67 C821.346176,120.449999 822.446165,120.120002 823.766172,119.68 L823.986172,118.58 L826.186172,119.68 L827.946172,116.82 L829.266172,116.38 L830.806172,117.92 C831.392841,117.186663 831.612839,116.380004 831.466172,115.5 L833.226172,114.62 L833.446172,115.72 L834.986172,113.74 L835.866172,113.74 L835.426172,114.84 C836.599511,114.25333 838.066163,113.96 839.826172,113.96 L838.506172,111.98 L841.146172,113.96 L840.266172,114.18 C840.559507,115.060004 840.706172,115.79333 840.706172,116.38 L842.466172,114.4 L843.346172,116.82 C843.932841,117.40667 844.482836,117.883332 844.996172,118.25 C845.509508,118.616669 848.039482,119.569992 852.586172,121.11 C857.132861,122.650008 859.956166,124.006661 861.056172,125.18 C862.156177,126.353339 863.586163,127.673326 865.346172,129.14 L868.426172,134.42 C868.132837,135.153337 867.986172,135.739998 867.986172,136.18 C867.986172,136.620002 867.582843,137.206663 866.776172,137.94 C865.969501,138.673337 864.759513,140.139989 863.146172,142.34 C861.972833,142.633335 861.129508,142.78 860.616172,142.78 C860.102836,142.78 859.479509,142.999998 858.746172,143.44 C858.012835,143.880002 854.162873,142.376684 847.196172,138.93 C840.22947,135.483316 835.57285,133.686667 833.226172,133.54 C830.879493,133.393333 828.972846,133.429999 827.506172,133.65 C826.039498,133.870001 824.242849,133.943334 822.116172,133.87 C819.989495,133.796666 818.082847,133.869999 816.396172,134.09 C814.709497,134.310001 812.619518,134.639998 810.126172,135.08 C809.246167,137.720013 808.366176,140.286654 807.486172,142.78 L806.166172,140.58 L804.626172,142.78 L803.306172,142.34 L803.306172,140.58 L801.326172,141.24 L800.446172,144.54 C799.566167,143.659996 799.126172,142.560007 799.126172,141.24 L795.826172,142.34 L797.366172,141.24 L797.366172,139.04 C796.3395,138.893333 795.386176,138.746667 794.506172,138.6 L793.626172,136.84 C793.332837,136.84 792.966174,136.730001 792.526172,136.51 C792.08617,136.289999 790.509519,136.216666 787.796172,136.29 C785.082825,136.363334 782.332852,136.803329 779.546172,137.61 C776.759491,138.416671 772.652866,139.553326 767.226172,141.02 L767.226172,150.7 C765.61283,150.553333 764.292844,150.993328 763.266172,152.02 L761.506172,154.66 C760.919502,154.66 759.709514,153.96334 757.876172,152.57 C756.042829,151.17666 754.246181,149.893339 752.486172,148.72 L751.606172,143.22 C747.646152,144.540007 740.202893,146.923316 729.276172,150.37 C718.349451,153.816684 711.492852,155.83333 708.706172,156.42 L710.906172,154.88 L710.026172,154.88 L710.686172,154 C707.899491,154.58667 705.33285,155.393328 702.986172,156.42 L706.506172,156.42 C704.159493,157.153337 702.326178,158.473324 701.006172,160.38 L698.146172,158.62 L697.046172,159.06 C694.112824,154.953313 691.87618,152.093341 690.336172,150.48 C688.796164,148.866659 687.952839,147.876668 687.806172,147.51 C687.659504,147.143331 687.586172,146.813335 687.586172,146.52 L690.226172,145.2 C690.666174,145.346667 691.802829,145.786663 693.636172,146.52 C695.469514,147.253337 698.842814,147.216671 703.756172,146.41 C708.66953,145.603329 723.739379,141.24004 748.966172,133.32 C749.112839,131.853326 749.479502,130.42334 750.066172,129.03 C750.652841,127.63666 750.799507,126.610003 750.506172,125.95 C750.212837,125.289997 750.249503,124.630003 750.616172,123.97 C750.98284,123.309997 751.606167,122.430006 752.486172,121.33 C753.366176,120.229995 753.732839,117.626687 753.586172,113.52 C753.439504,109.413313 753.146174,106.37001 752.706172,104.39 C752.26617,102.40999 751.826174,99.5133524 751.386172,95.7 L748.306172,95.7 C748.159504,94.966663 747.976173,93.9766729 747.756172,92.73 C747.536171,91.4833271 747.352839,90.5666696 747.206172,89.98 C747.059504,89.3933304 746.546176,88.5866718 745.666172,87.56 L746.106172,86.46 L747.646172,85.8 C747.939507,85.066663 748.232837,84.5900011 748.526172,84.37 C748.819507,84.1499989 748.929506,83.7466696 748.856172,83.16 C748.782838,82.5733304 748.746172,81.6200066 748.746172,80.3 L749.846172,80.74 C749.846172,80.4466652 750.139502,79.8233381 750.726172,78.87 C751.312841,77.9166619 751.899502,76.9266718 752.486172,75.9 C753.952846,76.0466674 755.089501,76.12 755.896172,76.12 C756.702843,76.12 757.32617,76.3766641 757.766172,76.89 C758.206174,77.4033359 759.012833,78.0999956 760.186172,78.98 C762.386183,77.9533282 764.182832,77.2933348 765.576172,77 C766.969512,76.7066652 769.096158,75.6800088 771.956172,73.92 C774.816186,72.1599912 777.126163,70.5100077 778.886172,68.97 C780.646181,67.4299923 783.212822,65.2666806 786.586172,62.48 L786.586172,60.5 C786.586172,60.0599978 786.842836,59.5100033 787.356172,58.85 C787.869508,58.1899967 788.419502,57.126674 789.006172,55.66 L793.186172,55.22 L794.506172,58.08 C796.412848,58.813337 798.099498,59.8399934 799.566172,61.16 L800.886172,63.8 L822.666172,45.32 C820.026159,44.586663 817.789514,44.0000022 815.956172,43.56 C814.122829,43.1199978 811.702854,42.7533348 808.696172,42.46 C805.68949,42.1666652 802.279524,42.02 798.466172,42.02 C794.652819,42.02 790.912857,42.2766641 787.246172,42.79 C783.579487,43.3033359 781.159511,43.8166641 779.986172,44.33 C778.812833,44.8433359 777.566178,45.2466652 776.246172,45.54 L775.586172,44.88 L773.826172,45.76 L772.946172,45.1 L772.726172,46.42 L771.846172,45.1 L771.406172,46.42 L771.076172,46.75 Z M785.028931,80.5362833 C784.879789,80.6693014 784.628872,80.70054 784.276172,80.63 C783.909503,80.5566663 783.469508,80.7766641 782.956172,81.29 L780.426172,83.82 L781.086172,84.26 L785.028931,80.5362833 L785.028931,80.5362833 Z M769.206172,86.46 L768.766172,87.34 L759.746172,88.22 L762.166172,96.36 L767.886172,93.5 L768.326172,92.62 L770.966172,91.08 L771.186172,89.98 L765.906172,92.62 L764.806172,91.3 L767.226172,90.2 L768.326172,88.44 L770.746172,87.12 L769.426172,86.68 L769.206172,86.46 Z M806.386172,93.5 C801.252813,94.6733392 797.072855,95.5533304 793.846172,96.14 C790.619489,96.7266696 786.586196,97.7899923 781.746172,99.33 C776.906148,100.870008 773.532848,102.116662 771.626172,103.07 C769.719496,104.023338 767.29952,105.379991 764.366172,107.14 C765.099509,114.033368 765.539504,120.8533 765.686172,127.6 L766.126172,123.42 L766.126172,128.48 C768.766185,127.89333 773.936133,126.940007 781.636172,125.62 C789.33621,124.299993 794.066163,123.34667 795.826172,122.76 C796.706176,121.586661 797.402836,120.560004 797.916172,119.68 C798.429508,118.799996 801.326145,110.146749 806.606172,93.72 L806.386172,93.5 Z M812.326172,100.54 L811.006172,104.06 C811.152839,104.353335 811.299504,104.609999 811.446172,104.83 C811.592839,105.050001 811.592839,105.306665 811.446172,105.6 C811.299504,105.893335 811.226172,106.479996 811.226172,107.36 L810.346172,108.02 L811.006172,108.9 C811.446174,108.019996 811.739504,107.360002 811.886172,106.92 C812.032839,106.479998 812.142838,105.820004 812.216172,104.94 C812.289506,104.059996 812.326172,102.593344 812.326172,100.54 Z M750.726172,142.56 C748.526161,143.000002 746.912844,143.366665 745.886172,143.66 C744.8595,143.953335 744.272839,144.136666 744.126172,144.21 C743.979504,144.283334 743.612841,144.539998 743.026172,144.98 L751.386172,142.78 L750.726172,142.56 Z M736.866172,145.2 L730.266172,148.06 C732.61285,147.47333 735.032826,146.593339 737.526172,145.42 L736.866172,145.2 Z M809.686172,147.62 C818.926218,149.673344 825.672817,151.213328 829.926172,152.24 C834.179526,153.266672 837.11283,154.146663 838.726172,154.88 L839.606172,154.66 L842.026172,156.42 L842.026172,158.51 C842.026172,159.023336 843.052828,160.379989 845.106172,162.58 C847.159515,164.780011 848.552835,166.57666 849.286172,167.97 C850.019509,169.36334 851.046165,170.646661 852.366172,171.82 C853.686178,172.993339 854.419504,173.983329 854.566172,174.79 C854.712839,175.596671 854.969503,176.219998 855.336172,176.66 C855.70284,177.100002 856.3995,178.126659 857.426172,179.74 L856.546172,179.96 C856.986174,182.306678 857.352837,183.846663 857.646172,184.58 C857.939507,185.313337 858.012839,185.97333 857.866172,186.56 C857.719504,187.14667 857.572839,188.246659 857.426172,189.86 L854.346172,191.18 L855.666172,193.16 C855.959507,193.600002 856.142838,194.333328 856.216172,195.36 C856.289506,196.386672 856.179507,197.083332 855.886172,197.45 C855.592837,197.816669 855.079509,198.366663 854.346172,199.1 C853.466167,199.1 852.806174,199.173333 852.366172,199.32 C851.92617,199.466667 851.339509,199.283336 850.606172,198.77 C849.872835,198.256664 848.846178,197.633337 847.526172,196.9 L846.646172,194.04 L844.886172,192.72 C842.099491,193.600004 839.386185,193.966667 836.746172,193.82 C833.666156,190.299982 831.392846,187.916673 829.926172,186.67 C828.459498,185.423327 827.396175,184.140007 826.736172,182.82 C826.076169,181.499993 825.306176,179.520013 824.426172,176.88 L822.226172,176.66 L823.766172,176 L822.446172,173.58 C819.659491,173.286665 817.49618,172.956669 815.956172,172.59 C814.416164,172.223332 812.509517,172.259998 810.236172,172.7 C807.962827,173.140002 804.626194,173.506665 800.226172,173.8 C801.106176,173.359998 802.35283,173.066667 803.966172,172.92 L804.626172,171.38 C808.586192,169.033322 812.252822,166.026685 815.626172,162.36 L812.986172,159.06 L804.626172,152.46 L808.366172,152.02 C807.92617,151.579998 807.852837,150.920004 808.146172,150.04 L810.346172,150.04 L809.246172,148.94 L811.886172,148.94 L809.686172,147.62 Z M745.446172,148.28 C746.032841,149.160004 747.572826,150.919987 750.066172,153.56 C752.559518,156.200013 754.099502,158.106661 754.686172,159.28 C759.526196,156.933322 764.512813,154.513346 769.646172,152.02 L764.366172,156.42 L764.366172,156.86 L771.406172,152.9 C766.272813,157.006687 761.432861,161.333311 756.886172,165.88 L753.366172,171.38 L754.246172,172.7 C753.952837,173.433337 753.732839,174.019998 753.586172,174.46 C753.439504,174.900002 753.439504,176.329988 753.586172,178.75 C753.732839,181.170012 754.099502,183.07666 754.686172,184.47 C755.272841,185.86334 755.126176,187.146661 754.246172,188.32 C753.366167,189.493339 752.999504,190.519996 753.146172,191.4 C753.292839,192.280004 753.512837,193.819989 753.806172,196.02 L752.046172,197.56 L750.066172,196.9 L747.866172,198.66 L748.746172,203.5 L746.986172,204.82 L744.566172,202.4 C741.046154,203.866674 737.892852,203.353346 735.106172,200.86 C734.226167,199.099991 733.639507,197.853337 733.346172,197.12 C733.052837,196.386663 732.539509,194.480015 731.806172,191.4 C731.072835,188.319985 730.339509,186.193339 729.606172,185.02 L727.846172,184.14 L725.426172,181.5 L727.186172,175.12 C726.599502,174.679998 726.379504,173.946672 726.526172,172.92 L728.066172,172.48 C729.826181,169.10665 731.182834,166.906672 732.136172,165.88 C733.08951,164.853328 733.78617,163.680007 734.226172,162.36 C734.666174,161.039993 735.582832,159.610008 736.976172,158.07 C738.369512,156.529992 738.956173,155.393337 738.736172,154.66 C738.516171,153.926663 738.332839,152.900007 738.186172,151.58 C740.239515,150.259993 742.659491,149.160004 745.446172,148.28 Z" id=""></path>
        </g>
    </g>
</svg>