<?xml version="1.0" encoding="UTF-8"?>
<svg width="452px" height="93px" viewBox="0 0 452 93" version="1.1" xmlns="http://www.w3.org/2000/svg" xmlns:xlink="http://www.w3.org/1999/xlink">
    <!-- Generator: Sketch 54.1 (76490) - https://sketchapp.com -->
    <title>sendusa</title>
    <desc>Created with Sketch.</desc>
    <g id="Page-1" stroke="none" stroke-width="1" fill="none" fill-rule="evenodd">
        <g id="Artboard" transform="translate(-2274.000000, -3301.000000)" fill-rule="nonzero" stroke="#FFFFFF">
            <path d="M2319.97834,3301.57031 C2323.14242,3301.76563 2324.72444,3301.92187 2324.72444,3302.03906 C2325.34944,3302.23438 2325.85725,3302.625 2326.24787,3303.21094 C2326.91194,3304.14844 2327.24397,3305.53515 2327.24397,3307.37109 C2327.24397,3308.6211 2327.10725,3309.91015 2326.83381,3311.23828 C2325.62287,3314.08986 2324.64631,3316.55077 2323.90412,3318.62109 C2322.84943,3321.78517 2321.81428,3325.35936 2320.79865,3329.34375 C2320.68147,3330.63282 2320.52522,3331.51172 2320.3299,3331.98047 C2319.82209,3332.83985 2319.17756,3333.26953 2318.39631,3333.26953 C2318.31819,3333.26953 2318.12287,3333.23047 2317.81037,3333.15234 C2317.69319,3333.19141 2317.61506,3333.21094 2317.576,3333.21094 L2318.98225,3324.94922 L2318.98225,3324.89062 C2318.39631,3326.64845 2317.69319,3329.36326 2316.87287,3333.03516 L2316.81428,3333.09375 C2315.44709,3333.09375 2314.50959,3332.52735 2314.00178,3331.39453 C2313.72834,3331.0039 2313.43537,3330.63281 2313.12287,3330.28125 C2312.81037,3329.61718 2312.65412,3328.3086 2312.65412,3326.35547 C2312.65412,3323.66014 2312.8885,3320.3008 2313.35725,3316.27734 C2309.64629,3318.69923 2306.26742,3321.10155 2303.22053,3323.48438 C2300.79864,3325.32032 2297.65414,3328.03514 2293.78694,3331.62891 L2293.55256,3331.57031 L2293.31819,3331.57031 C2293.201,3331.57031 2293.10334,3331.64844 2293.02522,3331.80469 L2293.08381,3332.27344 C2291.99006,3333.28907 2290.72054,3334.51952 2289.27522,3335.96484 C2290.87679,3337.52735 2292.04865,3338.52344 2292.79084,3338.95312 C2294.31429,3339.8125 2295.66193,3340.67187 2296.83381,3341.53125 C2298.00569,3342.35157 2299.43146,3343.44531 2301.11115,3344.8125 C2303.61117,3346.88282 2304.97834,3348.03516 2305.21272,3348.26953 C2305.56428,3348.97266 2306.34552,3350.02734 2307.55647,3351.43359 C2307.82991,3351.70703 2308.47443,3352.50781 2309.49006,3353.83594 C2310.03694,3354.42188 2310.58381,3355.26171 2311.13069,3356.35547 C2311.16975,3356.35547 2311.34553,3356.64843 2311.65803,3357.23438 L2311.71662,3357.23438 C2310.58381,3354.85155 2310.0174,3353.64063 2310.0174,3353.60156 C2310.99397,3354.92969 2311.73615,3356.12109 2312.24397,3357.17578 C2313.72835,3360.18361 2314.47053,3363.09374 2314.47053,3365.90625 L2314.47053,3366.78516 L2314.41194,3366.78516 C2314.37287,3366.62891 2314.27522,3366.43359 2314.11897,3366.19922 C2314.11897,3366.35547 2313.92366,3366.6289 2313.53303,3367.01953 C2313.41584,3367.01953 2313.25959,3367.58593 2313.06428,3368.71875 C2312.94709,3369.10938 2312.8885,3369.7539 2312.8885,3370.65234 C2312.73225,3372.09766 2312.55647,3373.07422 2312.36115,3373.58203 C2312.28303,3374.01172 2312.24397,3374.57812 2312.24397,3375.28125 C2312.16584,3375.67188 2311.85334,3376.17968 2311.30647,3376.80469 C2311.18928,3377.19531 2310.52522,3378.11327 2309.31428,3379.55859 L2309.49006,3379.73438 C2307.84943,3381.25782 2306.3846,3382.46875 2305.09553,3383.36719 C2301.85333,3385.75001 2299.56819,3387.05859 2298.24006,3387.29297 C2297.45881,3387.44922 2296.91194,3387.52734 2296.59944,3387.52734 L2296.36506,3386.82422 C2295.97443,3387.01953 2295.64241,3387.13672 2295.36897,3387.17578 L2295.25178,3387.41016 C2295.60334,3387.48828 2295.93537,3387.52734 2296.24787,3387.52734 L2296.24787,3387.58594 C2296.13069,3387.58594 2295.38851,3387.95703 2294.02131,3388.69922 C2293.70881,3388.93359 2292.30257,3389.38281 2289.80256,3390.04688 C2288.35724,3390.35938 2287.18538,3390.51562 2286.28694,3390.51562 L2286.11115,3390.51562 C2285.6424,3390.51562 2285.19319,3390.45703 2284.7635,3390.33984 C2284.02131,3390.45703 2283.37678,3390.51562 2282.8299,3390.51562 L2282.71272,3390.51562 C2280.01739,3390.51562 2277.81038,3388.52346 2276.09162,3384.53906 C2275.701,3383.40624 2275.34944,3382.21485 2275.03694,3380.96484 C2274.68537,3379.24609 2274.50959,3378.03516 2274.50959,3377.33203 L2274.56819,3377.33203 C2275.85725,3378.19141 2277.41974,3378.62109 2279.25569,3378.62109 C2282.41976,3378.62109 2286.11113,3377.46876 2290.3299,3375.16406 C2291.54085,3374.5 2292.88849,3373.6211 2294.37287,3372.52734 C2296.4432,3370.80859 2298.27912,3369.18751 2299.88069,3367.66406 C2299.88069,3367.625 2300.11506,3367.35157 2300.58381,3366.84375 C2301.91194,3365.35937 2302.79084,3363.99219 2303.22053,3362.74219 C2303.49397,3362.03906 2303.63069,3361.27735 2303.63069,3360.45703 C2303.59162,3360.10547 2303.57209,3359.85156 2303.57209,3359.69531 C2302.79084,3358.32812 2302.2635,3357.46875 2301.99006,3357.11719 C2300.89631,3356.17968 2299.78304,3355.39844 2298.65022,3354.77344 C2297.98615,3354.38281 2295.58383,3352.97657 2291.44319,3350.55469 C2289.52911,3349.38281 2287.86897,3348.25001 2286.46272,3347.15625 C2283.61114,3344.92968 2282.02912,3343.0547 2281.71662,3341.53125 L2281.54084,3340.41797 C2280.3299,3339.36328 2279.56819,3338.54297 2279.25569,3337.95703 C2278.66975,3337.05859 2278.37678,3336.00391 2278.37678,3334.79297 C2278.37678,3331.31639 2278.78693,3328.81641 2279.60725,3327.29297 C2280.15413,3325.92577 2281.36505,3324.20704 2283.24006,3322.13672 C2284.1385,3321.16015 2284.90021,3320.4375 2285.52522,3319.96875 C2288.37679,3317.78124 2291.38458,3315.75001 2294.54865,3313.875 C2299.07993,3311.06249 2303.29863,3308.73829 2307.2049,3306.90234 C2308.68929,3306.23828 2310.07599,3305.69141 2311.36506,3305.26172 C2312.41975,3304.94922 2313.47443,3304.79297 2314.52912,3304.79297 C2315.19319,3304.79297 2315.91584,3304.85156 2316.69709,3304.96875 C2316.81428,3304.22656 2317.00959,3303.5625 2317.28303,3302.97656 C2317.59553,3302.39062 2318.02521,3302 2318.57209,3301.80469 C2319.04084,3301.64844 2319.50959,3301.57031 2319.97834,3301.57031 Z M2303.80647,3310.53516 C2303.84553,3310.8086 2303.96272,3310.94531 2304.15803,3310.94531 C2305.95491,3310.16406 2307.04865,3309.53906 2307.43928,3309.07031 L2307.49787,3309.01172 C2307.34162,3308.85547 2307.24397,3308.77734 2307.2049,3308.77734 C2305.87677,3309.16797 2304.74397,3309.7539 2303.80647,3310.53516 Z M2302.34162,3311.17969 L2302.75178,3311.00391 L2302.75178,3310.88672 C2302.75178,3310.84766 2302.71272,3310.82812 2302.63459,3310.82812 C2302.47834,3310.82812 2302.38069,3310.94531 2302.34162,3311.17969 Z M2283.88459,3326.00391 C2284.35334,3326.00391 2284.80256,3325.78906 2285.23225,3325.35938 C2285.31037,3325.28125 2285.68146,3324.79297 2286.34553,3323.89453 C2288.84554,3321.43358 2290.83771,3319.63672 2292.32209,3318.50391 C2294.15804,3317.05859 2295.74005,3315.92579 2297.06819,3315.10547 C2298.201,3314.51953 2299.72443,3313.40626 2301.6385,3311.76562 L2302.10725,3311.29688 L2301.87287,3311.29688 C2301.326,3311.29688 2300.74006,3311.57031 2300.11506,3312.11719 C2297.18536,3313.83595 2294.27523,3315.80858 2291.38459,3318.03516 C2290.79865,3318.58203 2290.23225,3319.10937 2289.68537,3319.61719 C2288.82599,3320.28125 2288.06428,3320.92578 2287.40022,3321.55078 C2286.18927,3322.72266 2285.31038,3323.69921 2284.7635,3324.48047 C2284.1385,3325.41797 2283.826,3325.92578 2283.826,3326.00391 L2283.88459,3326.00391 Z M2318.33772,3332.03906 C2318.92366,3332 2319.21662,3331.96094 2319.21662,3331.92188 C2319.21662,3331.88281 2319.27522,3331.64844 2319.3924,3331.21875 L2319.27522,3331.16016 C2319.19709,3331.16016 2318.90413,3331.41406 2318.39631,3331.92188 C2318.39631,3331.92188 2318.37678,3331.96094 2318.33772,3332.03906 Z M2298.59162,3346.74609 C2299.68538,3347.64454 2300.68146,3348.17187 2301.5799,3348.32812 C2301.18928,3347.66406 2300.52522,3347.19531 2299.58772,3346.92188 C2299.11896,3346.80469 2298.78694,3346.74609 2298.59162,3346.74609 Z M2301.75569,3348.44531 C2301.75569,3348.79688 2301.97053,3349.10937 2302.40022,3349.38281 C2304.1971,3351.10157 2305.23225,3352.19531 2305.50569,3352.66406 C2306.56038,3353.91407 2307.43928,3355.14453 2308.1424,3356.35547 C2308.84553,3357.6836 2309.31428,3358.44531 2309.54865,3358.64062 C2309.70491,3358.79688 2309.95881,3358.91406 2310.31037,3358.99219 C2310.31037,3358.64062 2310.17366,3358.21094 2309.90022,3357.70312 C2309.04084,3356.02343 2307.81038,3354.22657 2306.20881,3352.3125 C2304.60724,3350.51562 2303.49397,3349.42188 2302.86897,3349.03125 C2302.63459,3348.875 2302.2635,3348.67969 2301.75569,3348.44531 Z M2302.04865,3382.13672 C2302.04865,3382.41016 2302.18537,3382.58594 2302.45881,3382.66406 C2302.576,3382.74219 2302.67365,3382.78125 2302.75178,3382.78125 C2304.1971,3382.07812 2305.68146,3381.16016 2307.2049,3380.02734 C2309.27523,3378.34765 2310.6424,3376.64845 2311.30647,3374.92969 C2311.15022,3374.77344 2310.97444,3374.61719 2310.77912,3374.46094 L2310.72053,3374.46094 C2309.66584,3375.59376 2308.08382,3377.21483 2305.97444,3379.32422 C2305.34943,3379.98828 2304.58772,3380.55469 2303.68928,3381.02344 C2303.06428,3381.41406 2302.53694,3381.76562 2302.10725,3382.07812 L2302.04865,3382.13672 Z M2372.33472,3311.35547 C2375.30348,3311.35547 2377.25659,3311.58984 2378.19409,3312.05859 C2380.53785,3312.95704 2382.1394,3314.22655 2382.99878,3315.86719 C2383.23316,3316.25781 2383.35034,3316.66797 2383.35034,3317.09766 L2383.35034,3317.21484 C2383.35034,3318.15235 2382.99878,3319.16796 2382.29565,3320.26172 C2380.8894,3320.76953 2379.48316,3321.02344 2378.0769,3321.02344 C2371.16281,3322.31251 2365.2449,3323.58203 2360.323,3324.83203 C2359.58081,3325.06641 2358.2527,3325.33984 2356.33862,3325.65234 C2355.16674,3325.76953 2354.24878,3325.82812 2353.58472,3325.82812 L2354.11206,3326.29688 C2354.11206,3326.33594 2353.44801,3326.43359 2352.11987,3326.58984 C2348.76048,3326.82422 2346.39722,3327.09765 2345.03003,3327.41016 C2344.99097,3327.44922 2344.58082,3327.54687 2343.79956,3327.70312 L2343.79956,3327.76172 C2348.21365,3329.36329 2353.17453,3331.02343 2358.68237,3332.74219 L2362.31519,3333.97266 C2363.56519,3334.20703 2364.48315,3334.48047 2365.06909,3334.79297 C2365.30347,3334.87109 2365.45972,3334.98828 2365.53784,3335.14453 C2365.69409,3335.37891 2365.77222,3335.92578 2365.77222,3336.78516 C2366.3191,3338.46485 2366.59253,3339.57812 2366.59253,3340.125 L2366.59253,3340.94531 C2366.59253,3341.29688 2366.51441,3341.47266 2366.35815,3341.47266 C2365.14721,3342.21485 2363.35035,3343.01562 2360.96753,3343.875 C2359.40502,3344.34375 2358.35035,3344.57812 2357.80347,3344.57812 C2350.53781,3345.67188 2344.40505,3346.92187 2339.40503,3348.32812 C2337.7644,3348.79688 2336.24097,3349.24609 2334.83472,3349.67578 C2334.83472,3349.71484 2335.10815,3349.94922 2335.65503,3350.37891 C2334.83471,3350.96485 2334.15113,3351.53125 2333.60425,3352.07812 C2333.48706,3352.19531 2333.1355,3352.85937 2332.54956,3354.07031 C2331.8855,3355.04688 2331.39722,3356.21874 2331.08472,3357.58594 L2330.55737,3359.16797 C2330.40112,3360.06641 2330.26441,3361.23827 2330.14722,3362.68359 C2330.10815,3362.87891 2330.04956,3362.97656 2329.97144,3362.97656 C2329.65893,3362.97656 2329.44409,3363.38671 2329.3269,3364.20703 C2328.78003,3366.23829 2328.50659,3367.60547 2328.50659,3368.30859 C2328.0769,3370.84767 2327.86206,3372.44922 2327.86206,3373.11328 L2327.86206,3373.23047 C2327.86206,3374.32422 2328.09643,3375.16406 2328.56519,3375.75 C2328.83862,3376.21875 2329.24878,3376.70703 2329.79565,3377.21484 L2329.3855,3375.04688 C2329.34644,3374.77344 2329.3269,3374.40235 2329.3269,3373.93359 L2329.3269,3373.64062 C2329.3269,3373.32812 2329.36597,3372.74219 2329.44409,3371.88281 C2329.44409,3371.57031 2329.34644,3371.08203 2329.15112,3370.41797 C2329.15112,3370.22266 2329.34643,3369.83203 2329.73706,3369.24609 C2330.20581,3368.34765 2330.44019,3367.52735 2330.44019,3366.78516 L2330.44019,3366.49219 L2330.323,3364.91016 C2330.323,3362.48827 2331.08471,3359.48049 2332.60815,3355.88672 C2333.27222,3354.4414 2334.11206,3353.21094 2335.12769,3352.19531 C2335.24487,3352.11719 2335.38159,3351.78516 2335.53784,3351.19922 C2335.65503,3350.96484 2335.85034,3350.84766 2336.12378,3350.84766 C2336.82691,3350.92578 2337.17847,3351.23828 2337.17847,3351.78516 C2337.17847,3352.01953 2336.78785,3352.93749 2336.00659,3354.53906 C2334.79565,3357.00001 2333.7605,3359.40233 2332.90112,3361.74609 C2331.72924,3365.02736 2331.14331,3368.11327 2331.14331,3371.00391 C2331.14331,3373.26954 2331.5144,3375.6328 2332.25659,3378.09375 L2332.31519,3378.09375 C2333.95582,3378.05469 2338.81905,3376.27736 2346.90503,3372.76172 C2351.16286,3370.84765 2354.20971,3369.32422 2356.04565,3368.19141 C2356.70972,3367.68359 2357.58862,3367.17578 2358.68237,3366.66797 C2360.55738,3365.88671 2362.08081,3365.49609 2363.25269,3365.49609 L2363.48706,3365.49609 C2364.15113,3365.49609 2364.61987,3365.65234 2364.89331,3365.96484 C2364.97144,3366.12109 2365.0105,3366.29687 2365.0105,3366.49219 C2364.85425,3367.66407 2364.77612,3368.32812 2364.77612,3368.48438 L2364.77612,3368.71875 C2364.77612,3368.79688 2364.81519,3368.97265 2364.89331,3369.24609 C2363.56518,3369.8711 2362.21754,3370.73046 2360.85034,3371.82422 C2360.5769,3372.13672 2360.44019,3372.3125 2360.44019,3372.35156 C2360.71362,3372.35156 2361.28003,3372.15625 2362.1394,3371.76562 L2363.89722,3370.47656 C2364.09253,3370.32031 2364.3269,3370.18359 2364.60034,3370.06641 L2364.60034,3370.125 C2364.56128,3370.20313 2364.54175,3370.33984 2364.54175,3370.53516 C2364.65894,3371.51172 2364.71753,3372.05859 2364.71753,3372.17578 C2364.60034,3372.91797 2363.5652,3374.0703 2361.61206,3375.63281 C2359.42455,3377.27345 2357.06129,3378.69921 2354.52222,3379.91016 C2352.41283,3381.00391 2350.01051,3382.05859 2347.31519,3383.07422 L2347.31519,3382.54688 C2346.65112,3382.89844 2345.86988,3383.19141 2344.97144,3383.42578 C2344.26831,3383.62109 2343.23316,3383.75781 2341.86597,3383.83594 C2340.77221,3384.10938 2339.93238,3384.38281 2339.34644,3384.65625 C2338.83862,3385.04688 2338.09644,3385.35937 2337.11987,3385.59375 C2334.11205,3386.02344 2331.67066,3386.53125 2329.79565,3387.11719 C2329.79565,3387.15625 2329.71753,3387.17578 2329.56128,3387.17578 C2327.64721,3387.17578 2326.12379,3386.64844 2324.99097,3385.59375 C2321.47532,3382.85936 2319.71753,3378.64065 2319.71753,3372.9375 C2319.71753,3367.74216 2321.16283,3361.4141 2324.05347,3353.95312 L2323.93628,3353.95312 C2323.19409,3353.95312 2322.54956,3353.28907 2322.00269,3351.96094 C2321.72925,3351.45312 2321.41675,3350.51563 2321.06519,3349.14844 L2320.8894,3348.32812 C2320.92847,3347.46875 2321.00659,3346.60938 2321.12378,3345.75 L2321.12378,3345.69141 C2321.12378,3345.61328 2321.14331,3345.57422 2321.18237,3345.57422 L2321.12378,3345.45703 L2321.12378,3345.33984 C2321.12378,3344.94922 2321.24097,3344.30469 2321.47534,3343.40625 C2321.51441,3342.82031 2321.65112,3342.52734 2321.8855,3342.52734 C2322.78394,3342.17578 2324.28783,3341.7461 2326.39722,3341.23828 C2327.37378,3340.96484 2327.86206,3340.76953 2327.86206,3340.65234 L2327.86206,3340.53516 C2327.86206,3340.41797 2327.62769,3340.35938 2327.15894,3340.35938 L2326.98315,3340.35938 C2326.63159,3340.35938 2325.77222,3340.57422 2324.40503,3341.00391 C2323.19409,3341.31641 2322.47144,3341.47266 2322.23706,3341.47266 C2322.15894,3341.12109 2322.11987,3340.84766 2322.11987,3340.65234 C2322.23706,3340.18359 2322.33472,3339.94922 2322.41284,3339.94922 L2322.70581,3339.36328 C2328.09646,3338.07421 2335.71357,3336.53126 2345.55737,3334.73438 C2348.64333,3334.14843 2351.26049,3333.71875 2353.40894,3333.44531 L2353.40894,3333.38672 C2350.32298,3332.52734 2345.8699,3331.4336 2340.04956,3330.10547 C2338.17455,3329.59765 2336.43629,3329.12891 2334.83472,3328.69922 C2334.40503,3328.73828 2334.03394,3328.75781 2333.72144,3328.75781 L2333.25269,3328.75781 C2331.02611,3328.75781 2329.28785,3327.85938 2328.03784,3326.0625 C2327.29565,3324.85156 2326.86597,3323.56251 2326.74878,3322.19531 C2326.74878,3321.88281 2326.47535,3320.8672 2325.92847,3319.14844 C2325.8894,3318.99219 2325.85034,3318.73828 2325.81128,3318.38672 C2325.81128,3317.76172 2326.16284,3317.3125 2326.86597,3317.03906 C2328.27222,3316.41406 2331.29954,3315.67188 2335.948,3314.8125 C2340.67458,3313.91406 2347.78389,3313.01563 2357.27612,3312.11719 C2363.44803,3311.60937 2368.46751,3311.35547 2372.33472,3311.35547 Z M2344.91284,3315.75 L2344.91284,3315.80859 C2344.91284,3316.08203 2345.24487,3316.21875 2345.90894,3316.21875 L2346.02612,3316.21875 C2348.21363,3316.02344 2350.79173,3315.78906 2353.7605,3315.51562 C2354.3855,3315.35937 2355.0105,3315.28125 2355.6355,3315.28125 C2355.79175,3315.28125 2356.26049,3315.32031 2357.04175,3315.39844 C2357.198,3315.35937 2357.27612,3315.28125 2357.27612,3315.16406 C2357.27612,3314.69531 2356.70972,3314.46094 2355.5769,3314.46094 L2354.698,3314.46094 C2351.72923,3314.46094 2348.68239,3314.73437 2345.55737,3315.28125 C2345.12768,3315.39844 2344.91284,3315.55469 2344.91284,3315.75 Z M2329.91284,3318.62109 C2330.06909,3319.05078 2330.44018,3319.28516 2331.02612,3319.32422 C2332.04175,3319.32422 2333.0769,3319.08985 2334.13159,3318.62109 C2335.10816,3318.23047 2336.74877,3317.82031 2339.05347,3317.39062 C2341.0066,3317.03906 2342.31518,3316.72656 2342.97925,3316.45312 L2342.97925,3316.16016 C2342.86206,3315.96484 2342.45191,3315.86719 2341.74878,3315.86719 L2341.39722,3315.86719 C2341.12378,3315.86719 2340.16676,3316.0625 2338.52612,3316.45312 C2337.04174,3316.76563 2335.14723,3317.01953 2332.84253,3317.21484 C2331.98315,3317.25391 2331.06519,3317.54687 2330.08862,3318.09375 C2329.97144,3318.28906 2329.91284,3318.46484 2329.91284,3318.62109 Z M2337.94019,3337.78125 C2337.823,3337.85938 2337.7644,3337.97656 2337.7644,3338.13281 C2337.80347,3338.21094 2337.88159,3338.25 2337.99878,3338.25 L2338.05737,3338.25 C2338.17456,3338.25 2338.23315,3338.19141 2338.23315,3338.07422 L2338.23315,3338.01562 C2338.23315,3337.85937 2338.1355,3337.78125 2337.94019,3337.78125 Z M2335.77222,3338.60156 L2335.77222,3338.66016 C2335.77222,3338.81641 2335.85034,3338.89453 2336.00659,3338.89453 C2336.16284,3338.89453 2336.28003,3338.81641 2336.35815,3338.66016 C2336.31909,3338.46484 2336.24097,3338.36719 2336.12378,3338.36719 L2336.00659,3338.36719 C2335.85034,3338.36719 2335.77222,3338.44531 2335.77222,3338.60156 Z M2333.66284,3339.24609 C2333.66284,3339.36328 2333.7019,3339.44141 2333.78003,3339.48047 L2333.89722,3339.48047 C2334.13159,3339.48047 2334.24878,3339.34375 2334.24878,3339.07031 L2334.24878,3339.01172 C2334.20972,3338.89453 2334.13159,3338.83594 2334.0144,3338.83594 C2333.78003,3338.83594 2333.66284,3338.97265 2333.66284,3339.24609 Z M2329.91284,3340.53516 C2329.91284,3340.65234 2330.03003,3340.75 2330.2644,3340.82812 L2330.323,3340.82812 C2330.79175,3340.82812 2331.37768,3340.57422 2332.08081,3340.06641 C2332.31519,3339.83203 2332.43237,3339.61719 2332.43237,3339.42188 C2332.31519,3339.1875 2332.198,3339.07031 2332.08081,3339.07031 C2331.14331,3339.34375 2330.42066,3339.79297 2329.91284,3340.41797 L2329.91284,3340.53516 Z M2338.99487,3349.20703 C2339.03394,3349.20703 2339.11206,3349.24609 2339.22925,3349.32422 C2339.22925,3349.83203 2338.89722,3350.24219 2338.23315,3350.55469 C2338.03784,3350.59375 2337.84253,3350.61328 2337.64722,3350.61328 L2337.58862,3350.61328 C2337.35425,3350.61328 2337.23706,3350.51563 2337.23706,3350.32031 L2337.23706,3350.20312 C2337.23706,3349.8125 2337.72534,3349.48047 2338.7019,3349.20703 L2338.99487,3349.20703 Z M2358.79956,3373.23047 C2359.30738,3373.19141 2359.75659,3372.97656 2360.14722,3372.58594 L2360.14722,3372.52734 C2359.67847,3372.52734 2359.22925,3372.76172 2358.79956,3373.23047 Z M2355.16675,3374.75391 L2355.16675,3374.8125 L2355.6355,3374.8125 C2356.53394,3374.8125 2357.29565,3374.40235 2357.92065,3373.58203 L2357.68628,3373.52344 C2356.63159,3373.52344 2355.79175,3373.93359 2355.16675,3374.75391 Z M2354.40503,3375.28125 L2354.46362,3375.28125 C2354.81519,3375.16406 2354.99097,3375.04688 2354.99097,3374.92969 L2354.93237,3374.92969 C2354.73706,3374.92969 2354.56128,3375.04687 2354.40503,3375.28125 Z M2385.37469,3306.90234 L2385.43328,3306.90234 C2386.48797,3306.94141 2387.01531,3307.01953 2387.01531,3307.13672 C2387.01531,3307.25391 2387.30828,3307.52734 2387.89422,3307.95703 C2387.89422,3308.11328 2388.30437,3308.25 2389.12469,3308.36719 C2389.78875,3308.64063 2390.53093,3309.10937 2391.35125,3309.77344 C2392.1325,3310.16406 2393.49968,3310.78906 2395.45281,3311.64844 C2395.45281,3311.6875 2395.53094,3311.70703 2395.68719,3311.70703 C2396.11688,3311.62891 2396.35125,3311.58984 2396.39031,3311.58984 C2396.85906,3311.58984 2397.3864,3312.52733 2397.97234,3314.40234 C2398.36297,3315.45704 2398.71453,3316.0625 2399.02703,3316.21875 C2399.73016,3316.57031 2400.08172,3316.82422 2400.08172,3316.98047 C2401.80048,3320.37892 2403.59733,3324.73435 2405.47234,3330.04688 C2405.9411,3331.37501 2406.66374,3332.97655 2407.64031,3334.85156 C2410.17939,3339.85159 2412.62077,3344.75388 2414.96453,3349.55859 L2414.96453,3349.91016 C2414.96453,3350.02734 2415.10125,3350.55468 2415.37469,3351.49219 C2415.37469,3351.84375 2415.58953,3352.39062 2416.01922,3353.13281 L2416.72234,3354.83203 L2417.65984,3355.53516 L2417.89422,3355.53516 C2420.51142,3343.03509 2422.71843,3332.82035 2424.51531,3324.89062 C2425.49188,3320.90623 2426.37078,3316.80471 2427.15203,3312.58594 C2427.42547,3311.45312 2427.71843,3310.61328 2428.03094,3310.06641 C2428.57781,3309.20703 2429.35906,3308.77734 2430.37469,3308.77734 C2431.46844,3308.77734 2432.91374,3309.20703 2434.71062,3310.06641 C2434.90594,3310.26172 2435.23797,3310.6914 2435.70672,3311.35547 L2435.99969,3311.58984 C2435.8825,3312.25391 2435.70672,3313.60155 2435.47234,3315.63281 C2435.08172,3317.82032 2434.61297,3319.6953 2434.06609,3321.25781 C2433.79265,3321.88282 2433.57781,3322.66406 2433.42156,3323.60156 C2433.30437,3324.46094 2433.24578,3324.98828 2433.24578,3325.18359 L2433.24578,3325.24219 L2433.30437,3325.18359 C2433.34344,3325.22266 2433.36297,3325.26172 2433.36297,3325.30078 C2432.54265,3330.10549 2432.1325,3333.30859 2432.1325,3334.91016 C2432.09344,3334.91016 2432.01531,3335.82812 2431.89812,3337.66406 C2432.09344,3339.14844 2432.30828,3339.89062 2432.54266,3339.89062 C2432.54266,3339.96875 2432.65984,3340.00781 2432.89422,3340.00781 C2433.16766,3340.00781 2433.32391,3339.57813 2433.36297,3338.71875 C2433.24578,3337.11718 2433.18719,3336.17969 2433.18719,3335.90625 L2433.18719,3335.73047 C2433.18719,3334.87109 2433.44109,3333.6211 2433.94891,3331.98047 C2434.06609,3331.55078 2434.12469,3331.16016 2434.12469,3330.80859 C2434.08562,3329.40234 2434.06609,3328.54297 2434.06609,3328.23047 C2434.18328,3327.37109 2434.43718,3326.02345 2434.82781,3324.1875 C2434.86687,3323.28906 2435.17937,3322.03907 2435.76531,3320.4375 L2435.70672,3320.14453 L2435.70672,3318.85547 C2435.70672,3318.69922 2435.68719,3318.60156 2435.64812,3318.5625 L2435.53094,3318.5625 L2436.40984,3314.8125 C2436.76141,3313.44531 2437.03484,3312.56641 2437.23016,3312.17578 C2437.42547,3312.05859 2437.56219,3312 2437.64031,3312 L2437.81609,3312 C2438.24578,3312 2438.57781,3312.48828 2438.81219,3313.46484 L2438.81219,3313.52344 C2437.95281,3317.78127 2436.80047,3324.49995 2435.35516,3333.67969 C2432.77702,3349.38289 2430.84344,3360.92574 2429.55437,3368.30859 C2427.91374,3377.83989 2426.48797,3385.2031 2425.27703,3390.39844 C2424.96453,3391.68751 2424.6325,3392.68359 2424.28094,3393.38672 C2423.46062,3393.38672 2421.83954,3393.05469 2419.41766,3392.39062 C2417.62077,3392 2416.35125,3391.60938 2415.60906,3391.21875 C2413.65593,3390.16406 2412.67937,3388.32814 2412.67937,3385.71094 L2412.67937,3385.00781 C2412.67937,3384.38281 2412.83562,3382.27346 2413.14812,3378.67969 L2413.20672,3377.15625 C2413.20672,3374.65624 2412.64032,3372.56641 2411.5075,3370.88672 C2408.96842,3366.35545 2405.06221,3359.08989 2399.78875,3349.08984 C2398.06999,3345.92577 2396.3122,3342.58596 2394.51531,3339.07031 L2394.45672,3339.07031 C2394.45672,3339.77344 2394.20281,3340.92577 2393.695,3342.52734 C2393.22625,3343.66016 2392.99187,3344.59765 2392.99187,3345.33984 C2391.66374,3358.73835 2390.68719,3367.74216 2390.06219,3372.35156 C2389.82781,3374.46095 2389.55438,3376.17968 2389.24187,3377.50781 C2389.0075,3378.44532 2388.75359,3379.10937 2388.48016,3379.5 C2388.28484,3379.8125 2388.01141,3379.96875 2387.65984,3379.96875 C2386.21452,3379.8125 2383.8708,3378.46486 2380.62859,3375.92578 C2379.37859,3374.91015 2378.75359,3374.1875 2378.75359,3373.75781 C2378.36297,3372.35156 2378.16766,3370.45704 2378.16766,3368.07422 L2378.16766,3367.60547 C2378.16766,3362.95701 2379.04655,3355.12506 2380.80437,3344.10938 C2382.01532,3336.68746 2383.03093,3329.65628 2383.85125,3323.01562 C2384.20281,3319.26561 2384.37859,3316.29689 2384.37859,3314.10938 L2384.37859,3310.59375 C2384.37859,3309.03124 2384.69109,3307.82032 2385.31609,3306.96094 L2385.37469,3306.90234 Z M2410.15984,3346.33594 C2410.39422,3347.3125 2410.78484,3348.05468 2411.33172,3348.5625 C2411.72234,3348.95313 2412.05437,3349.14844 2412.32781,3349.14844 C2412.445,3349.1875 2412.54265,3349.20703 2412.62078,3349.20703 C2412.89422,3349.05078 2413.03094,3348.85547 2413.03094,3348.62109 L2413.03094,3348.5625 C2412.71843,3347.50781 2412.05438,3346.62891 2411.03875,3345.92578 C2410.84344,3345.76953 2410.72625,3345.69141 2410.68719,3345.69141 L2410.57,3345.69141 C2410.37469,3345.69141 2410.2575,3345.84765 2410.21844,3346.16016 C2410.21844,3346.19922 2410.19891,3346.25781 2410.15984,3346.33594 Z M2387.36687,3366.84375 C2387.36687,3366.92188 2387.38641,3367.11719 2387.42547,3367.42969 L2387.42547,3368.36719 C2387.42547,3369.34375 2387.62078,3370.24218 2388.01141,3371.0625 L2388.07,3371.0625 C2388.53875,3370.00781 2388.77312,3369.08985 2388.77312,3368.30859 C2388.77312,3368.07422 2388.75359,3367.46875 2388.71453,3366.49219 C2388.98797,3362.74217 2389.16375,3360.86719 2389.24187,3360.86719 C2389.82781,3357.89842 2390.12078,3355.84766 2390.12078,3354.71484 C2390.47234,3352.8789 2390.76531,3351.1211 2390.99969,3349.44141 C2390.57,3349.94922 2390.2575,3350.49609 2390.06219,3351.08203 C2389.90594,3351.4336 2389.73016,3352.41015 2389.53484,3354.01172 C2389.30047,3355.02735 2388.87078,3356.90233 2388.24578,3359.63672 C2388.0114,3360.84766 2387.71844,3363.24998 2387.36687,3366.84375 Z M2412.79656,3351.25781 C2412.79656,3351.6875 2412.95281,3351.90234 2413.26531,3351.90234 L2413.44109,3351.90234 C2413.67547,3351.82422 2413.79266,3351.70703 2413.79266,3351.55078 L2413.79266,3351.43359 C2413.75359,3351.12109 2413.59734,3350.96484 2413.32391,3350.96484 L2413.26531,3350.96484 C2412.95281,3350.96484 2412.79656,3351.0625 2412.79656,3351.25781 Z M2414.08562,3354.42188 L2414.08562,3354.48047 C2414.16375,3354.79297 2414.30047,3354.94922 2414.49578,3354.94922 C2414.73016,3354.79297 2414.84734,3354.63672 2414.84734,3354.48047 L2414.84734,3354.42188 C2414.80828,3354.14844 2414.69109,3354.01172 2414.49578,3354.01172 C2414.22234,3354.01172 2414.08562,3354.14844 2414.08562,3354.42188 Z M2415.37469,3357.29297 C2415.37469,3357.52734 2415.43328,3357.64453 2415.55047,3357.64453 C2415.86297,3357.64453 2416.03875,3357.52734 2416.07781,3357.29297 C2416.07781,3357.05859 2415.96063,3356.94141 2415.72625,3356.94141 L2415.66766,3356.94141 C2415.47234,3356.94141 2415.37469,3357.05859 2415.37469,3357.29297 Z M2422.34734,3391.39453 C2422.34734,3391.58984 2422.54265,3391.6875 2422.93328,3391.6875 C2423.24578,3391.29687 2423.695,3389.91017 2424.28094,3387.52734 C2424.86688,3384.98827 2425.47234,3381.66799 2426.09734,3377.56641 L2426.85906,3374.92969 C2427.09344,3373.87499 2427.21062,3373.17188 2427.21062,3372.82031 C2427.21062,3372.3125 2427.01531,3372.05859 2426.62469,3372.05859 C2426.23406,3372.05859 2425.99969,3372.39062 2425.92156,3373.05469 C2425.37468,3375.28126 2425.10125,3376.84375 2425.10125,3377.74219 C2424.82781,3379.50001 2424.39813,3381.80467 2423.81219,3384.65625 C2423.46062,3386.29688 2423.03094,3387.99608 2422.52312,3389.75391 C2422.40594,3390.76954 2422.34734,3391.31641 2422.34734,3391.39453 Z M2448.45372,3387.11719 C2447.16465,3386.84375 2445.91466,3386.00391 2444.70372,3384.59766 C2439.07869,3378.23044 2436.05138,3373.21096 2435.62169,3369.53906 C2435.54356,3368.83593 2435.5045,3367.97657 2435.5045,3366.96094 C2435.5045,3363.36717 2436.26621,3358.66019 2437.78966,3352.83984 C2437.86778,3352.83984 2437.90684,3352.78125 2437.90684,3352.66406 C2437.86778,3352.66406 2437.84825,3352.64453 2437.84825,3352.60547 C2439.80138,3345.06637 2441.1295,3340.8086 2441.83262,3339.83203 C2442.3795,3338.73828 2442.65294,3337.70313 2442.65294,3336.72656 L2442.53575,3336.78516 C2444.48888,3330.65231 2445.85606,3325.57424 2446.63731,3321.55078 C2445.46543,3320.80859 2444.50841,3320.125 2443.76622,3319.5 C2443.2584,3318.95312 2443.0045,3318.25 2443.0045,3317.39062 C2443.0045,3316.88281 2443.16075,3315.84766 2443.47325,3314.28516 L2443.47325,3313.20117 C2443.47325,3312.79101 2443.84434,3312.11719 2444.58653,3311.17969 C2444.62559,3310.98437 2445.27012,3310.55469 2446.52012,3309.89062 C2448.55138,3308.79687 2450.42637,3308.01563 2452.14512,3307.54688 C2454.33264,3307 2456.73496,3306.72656 2459.35216,3306.72656 C2464.31312,3306.72656 2469.17635,3307.5078 2473.942,3309.07031 C2483.1608,3312.39064 2488.98105,3318.17183 2491.40294,3326.41406 L2490.93419,3326.0625 C2490.69981,3326.29688 2490.58262,3326.57031 2490.58262,3326.88281 C2490.77794,3328.52345 2490.87559,3330.08593 2490.87559,3331.57031 C2490.87559,3334.65627 2490.42638,3337.87889 2489.52794,3341.23828 C2489.33262,3342.41016 2489.23497,3343.15234 2489.23497,3343.46484 C2489.97716,3342.8789 2490.62168,3341.8047 2491.16856,3340.24219 C2491.91075,3338.4453 2492.28184,3336.04298 2492.28184,3333.03516 L2492.22325,3330.57422 L2492.28184,3330.57422 C2492.43809,3331.94141 2492.51622,3333.24999 2492.51622,3334.5 C2492.51622,3338.52346 2491.75451,3342.91794 2490.23106,3347.68359 C2489.8795,3348.85547 2489.70372,3349.77343 2489.70372,3350.4375 L2488.47325,3352.78125 C2488.23887,3352.58594 2488.06309,3352.46875 2487.94591,3352.42969 C2487.35997,3352.58594 2487.067,3352.70312 2487.067,3352.78125 C2486.24668,3353.60157 2485.83653,3354.92968 2485.83653,3356.76562 C2485.83653,3357.23438 2484.70373,3359.03123 2482.43809,3362.15625 C2481.22715,3363.75782 2480.11388,3365.12499 2479.09825,3366.25781 C2478.23887,3367.11719 2477.51622,3367.95703 2476.93028,3368.77734 C2471.81307,3373.97268 2469.0006,3376.58984 2468.49278,3376.62891 C2466.6959,3378.03516 2465.32872,3378.875 2464.39122,3379.14844 C2462.43808,3380.63282 2460.77794,3381.72656 2459.41075,3382.42969 L2451.03184,3386.47266 C2449.58652,3386.7461 2448.72716,3386.96094 2448.45372,3387.11719 Z M2487.18419,3319.91016 C2487.18419,3319.51953 2486.2467,3318.32813 2484.37169,3316.33594 C2482.34043,3314.42187 2480.23107,3313.11328 2478.04356,3312.41016 C2476.16855,3311.86328 2474.80138,3311.33594 2473.942,3310.82812 C2472.41855,3309.77343 2469.05921,3308.85547 2463.86387,3308.07422 C2462.18418,3307.87891 2460.95372,3307.78125 2460.17247,3307.78125 C2460.01622,3307.78125 2459.84044,3307.83984 2459.64512,3307.95703 L2459.64512,3308.07422 C2460.03575,3308.19141 2460.34825,3308.25 2460.58262,3308.25 L2461.81309,3308.07422 C2464.31311,3308.11328 2468.0826,3309.03124 2473.12169,3310.82812 C2476.48108,3312.15626 2480.40682,3314.24608 2484.89903,3317.09766 C2485.71935,3318.26954 2486.442,3319.20703 2487.067,3319.91016 L2487.18419,3319.91016 Z M2465.97325,3309.12891 C2465.69981,3309.12891 2465.28966,3309.03125 2464.74278,3308.83594 C2465.13341,3308.875 2465.54356,3308.97266 2465.97325,3309.12891 Z M2467.02794,3309.42188 C2466.98887,3309.42188 2466.94981,3309.40234 2466.91075,3309.36328 L2467.02794,3309.42188 Z M2471.94981,3311.17969 C2471.83262,3311.21875 2471.5006,3311.12109 2470.95372,3310.88672 C2471.14903,3310.84766 2471.48106,3310.94531 2471.94981,3311.17969 Z M2473.88341,3311.88281 C2473.5709,3311.88281 2473.18028,3311.72656 2472.71153,3311.41406 C2473.10216,3311.41406 2473.49278,3311.57031 2473.88341,3311.88281 Z M2475.99278,3312.76172 C2475.4459,3312.76172 2475.03575,3312.60547 2474.76231,3312.29297 C2475.27013,3312.29297 2475.68028,3312.44922 2475.99278,3312.76172 Z M2478.98106,3314.51953 C2478.04356,3314.36328 2477.1256,3313.875 2476.22716,3313.05469 C2477.51622,3313.17188 2478.43418,3313.66015 2478.98106,3314.51953 Z M2447.10606,3377.56641 C2450.58264,3377.56641 2455.73884,3373.48442 2462.57481,3365.32031 C2469.68422,3356.49214 2474.87948,3348.58207 2478.16075,3341.58984 C2479.17638,3339.36327 2479.72325,3337.9375 2479.80137,3337.3125 L2479.62559,3337.42969 C2480.52404,3336.33593 2480.97325,3334.18752 2480.97325,3330.98438 C2480.85606,3331.375 2480.60216,3331.9414 2480.21153,3332.68359 C2480.21153,3327.95701 2478.35608,3324.24611 2474.64512,3321.55078 C2472.06699,3319.83202 2470.68028,3318.97266 2470.48497,3318.97266 C2468.02402,3318.42578 2466.20763,3317.91797 2465.03575,3317.44922 C2463.16074,3317.44922 2462.14513,3317.37109 2461.98887,3317.21484 C2461.36387,3316.98047 2461.03184,3316.76563 2460.99278,3316.57031 C2460.95372,3316.375 2460.87559,3316.27734 2460.75841,3316.27734 C2460.4459,3316.27734 2459.74279,3316.74609 2458.64903,3317.68359 C2458.76622,3318.03516 2458.82481,3318.44531 2458.82481,3318.91406 C2458.82481,3319.5 2458.76622,3319.8125 2458.64903,3319.85156 L2458.70762,3320.20312 C2458.43419,3321.57032 2458.23887,3322.25391 2458.12169,3322.25391 C2457.34043,3323.34766 2456.73497,3324.79296 2456.30528,3326.58984 C2454.5084,3332.52737 2453.60997,3336.90233 2453.60997,3339.71484 L2451.96934,3345.98438 C2449.66464,3351.21878 2448.51231,3354.49999 2448.51231,3355.82812 C2448.51231,3356.10156 2448.57091,3356.33594 2448.68809,3356.53125 L2446.46153,3363.03516 C2444.54746,3368.62112 2443.59044,3372.60546 2443.59044,3374.98828 C2443.59044,3375.41797 2444.02012,3376.02343 2444.8795,3376.80469 C2445.5045,3377.3125 2446.24668,3377.56641 2447.10606,3377.56641 Z M2438.78575,3371.94141 L2439.02012,3371.70703 L2438.43419,3368.54297 C2438.43419,3365.18358 2438.82481,3362.35157 2439.60606,3360.04688 C2439.64512,3359.34375 2439.99668,3357.95704 2440.66075,3355.88672 C2440.97325,3355.02734 2441.28575,3353.66017 2441.59825,3351.78516 C2442.30138,3348.73827 2443.10215,3346.1211 2444.00059,3343.93359 C2445.09435,3341.31639 2445.79747,3338.81642 2446.10997,3336.43359 L2447.16466,3333.26953 L2449.33262,3323.54297 C2449.33262,3322.99609 2449.15684,3322.58594 2448.80528,3322.3125 C2448.33653,3322.3125 2448.08262,3322.60547 2448.04356,3323.19141 C2447.80919,3326.74611 2447.10607,3330.28123 2445.93419,3333.79688 C2445.46543,3335.32032 2445.11388,3336.50195 2444.8795,3337.3418 C2444.64512,3338.18164 2444.21544,3338.89453 2443.59044,3339.48047 C2443.35606,3339.79297 2443.23887,3340.06641 2443.23887,3340.30078 L2443.70762,3340.88672 C2443.70762,3341.04297 2442.8092,3344.30466 2441.01231,3350.67188 C2440.07481,3353.21095 2439.27403,3355.86717 2438.60997,3358.64062 C2437.59434,3363.36721 2437.08653,3367.03905 2437.08653,3369.65625 C2437.08653,3370.55469 2437.61387,3371.3164 2438.66856,3371.94141 L2438.78575,3371.94141 Z M2487.65294,3348.62109 C2488.74669,3347.37109 2489.29356,3346.1211 2489.29356,3344.87109 C2489.2545,3344.20703 2489.19591,3343.875 2489.11778,3343.875 C2488.14121,3345.67188 2487.65294,3347.2539 2487.65294,3348.62109 Z M2484.84044,3354.12891 C2485.42638,3353.58203 2485.79747,3352.95703 2485.95372,3352.25391 L2485.71934,3352.01953 C2485.1334,3352.01953 2484.84044,3352.72265 2484.84044,3354.12891 Z M2439.31309,3353.13281 C2439.31309,3353.05469 2439.35216,3353.01562 2439.43028,3353.01562 L2439.31309,3353.13281 Z M2480.44591,3360.51562 C2482.1256,3359.03124 2483.317,3357.21485 2484.02012,3355.06641 C2483.39512,3355.41797 2482.692,3356.14062 2481.91075,3357.23438 C2481.05137,3358.52344 2480.56309,3359.61718 2480.44591,3360.51562 Z M2477.34044,3365.02734 C2477.34044,3364.40234 2478.21933,3363.26954 2479.97716,3361.62891 C2479.66465,3363.07423 2478.78576,3364.20703 2477.34044,3365.02734 Z M2451.03184,3385.00781 C2453.80529,3384.30468 2457.90682,3381.98049 2463.33653,3378.03516 C2465.32873,3376.6289 2467.59433,3374.83204 2470.13341,3372.64453 C2473.06311,3369.98827 2475.05528,3367.82032 2476.10997,3366.14062 C2471.30526,3370.86721 2464.6647,3375.98435 2456.18809,3381.49219 L2451.03184,3385.00781 Z M2580.82272,3314.92969 C2582.97117,3314.92969 2585.10005,3315.33984 2587.20944,3316.16016 C2587.95163,3316.35547 2588.47897,3316.6289 2588.79147,3316.98047 C2589.14303,3317.41016 2589.31881,3317.89843 2589.31881,3318.44531 C2589.35788,3318.44531 2589.37741,3318.52344 2589.37741,3318.67969 L2589.37741,3319.03125 C2589.37741,3321.1797 2587.52196,3330.43742 2583.811,3346.80469 C2582.83443,3351.02346 2582.18991,3353.67968 2581.87741,3354.77344 C2579.65083,3362.31254 2577.81491,3369.4609 2576.36959,3376.21875 C2575.70553,3379.50002 2575.3735,3382.15624 2575.3735,3384.1875 L2575.3735,3384.42188 C2575.3735,3386.60939 2575.72506,3388.69921 2576.42819,3390.69141 C2576.46725,3390.92578 2576.48678,3391.08203 2576.48678,3391.16016 C2576.48678,3391.4336 2576.25241,3391.58984 2575.78366,3391.62891 C2575.35397,3391.66797 2574.98288,3391.6875 2574.67038,3391.6875 C2572.24849,3391.6875 2570.06101,3390.75001 2568.10788,3388.875 C2567.48287,3388.09375 2567.05319,3387.11719 2566.81881,3385.94531 C2566.23287,3383.52343 2565.93991,3380.32033 2565.93991,3376.33594 C2565.93991,3372.39061 2566.19381,3369.24611 2566.70163,3366.90234 L2568.10788,3359.28516 C2564.9438,3362.95705 2561.11571,3367.25388 2556.6235,3372.17578 C2552.56098,3376.66799 2550.35397,3379.22656 2550.00241,3379.85156 C2549.02584,3380.94532 2548.10788,3381.80468 2547.2485,3382.42969 C2543.81098,3385.12501 2541.17429,3386.47266 2539.33834,3386.47266 C2538.67428,3386.47266 2538.12741,3386.19922 2537.69772,3385.65234 C2537.61959,3385.65234 2536.1157,3384.8711 2533.186,3383.30859 C2531.46724,3382.5664 2530.39303,3381.94141 2529.96334,3381.43359 C2529.26022,3380.76953 2528.75241,3380.16407 2528.43991,3379.61719 C2527.73678,3378.28906 2527.38522,3376.96094 2527.38522,3375.63281 C2527.38522,3374.10937 2528.63521,3367.586 2531.13522,3356.0625 C2533.79148,3344.34369 2536.15474,3335.53519 2538.22506,3329.63672 C2538.57663,3328.8164 2539.0649,3327.97657 2539.68991,3327.11719 C2540.54929,3325.98437 2541.52584,3325.24219 2542.61959,3324.89062 C2543.12741,3324.77344 2543.69381,3324.71484 2544.31881,3324.71484 C2545.37351,3324.71484 2546.27193,3325.02734 2547.01413,3325.65234 L2547.83444,3326.00391 C2547.48287,3326.51172 2547.13131,3327.27343 2546.77975,3328.28906 C2546.66256,3328.75781 2546.42819,3329.65624 2546.07663,3330.98438 C2545.686,3332.00001 2545.35397,3332.99609 2545.08053,3333.97266 C2544.88522,3335.02735 2544.63131,3336.72655 2544.31881,3339.07031 C2544.08444,3340.28126 2543.79147,3341.45312 2543.43991,3342.58594 C2543.08834,3343.60157 2542.91256,3344.20703 2542.91256,3344.40234 L2542.91256,3344.46094 C2542.91256,3344.69531 2542.93209,3345.08593 2542.97116,3345.63281 C2543.71335,3345.32031 2544.47506,3344.05079 2545.25631,3341.82422 C2545.72507,3340.53515 2546.21334,3338.58204 2546.72116,3335.96484 C2547.07272,3333.8164 2547.5024,3330.55471 2548.01022,3326.17969 L2548.06881,3326.0625 C2548.4985,3326.0625 2548.88912,3326.375 2549.24069,3327 C2549.59225,3327.78125 2549.76803,3328.97265 2549.76803,3330.57422 C2549.76803,3333.69923 2549.26022,3337.11717 2548.24459,3340.82812 C2545.78364,3349.9688 2543.96726,3356.80466 2542.79538,3361.33594 C2541.11568,3368.25003 2540.27584,3372.60546 2540.27584,3374.40234 C2541.17429,3374.20703 2542.36568,3373.66016 2543.85006,3372.76172 C2544.31882,3372.41015 2545.10006,3371.68751 2546.19381,3370.59375 L2547.71725,3368.83594 C2549.2407,3366.8828 2550.74459,3364.79298 2552.22897,3362.56641 C2555.39305,3357.91795 2558.92817,3352.27347 2562.83444,3345.63281 C2566.23289,3339.85153 2568.4399,3336.16016 2569.45553,3334.55859 C2570.23679,3333.62109 2571.85786,3330.02738 2574.31881,3323.77734 C2576.19382,3319.12888 2577.61959,3316.31641 2578.59616,3315.33984 C2578.83053,3315.0664 2579.27975,3314.92969 2579.94381,3314.92969 L2580.82272,3314.92969 Z M2590.43209,3317.68359 C2590.78366,3318.11328 2590.95944,3318.60156 2590.95944,3319.14844 C2590.95944,3319.53906 2590.76413,3320.41796 2590.3735,3321.78516 C2589.47506,3326.78518 2588.2446,3332.82028 2586.68209,3339.89062 C2586.60397,3340.16406 2586.56491,3340.33984 2586.56491,3340.41797 L2586.50631,3340.41797 L2586.50631,3339.24609 C2586.50631,3337.48827 2586.77975,3335.45704 2587.32663,3333.15234 C2587.67819,3331.39452 2588.10787,3329.65626 2588.61569,3327.9375 L2589.49459,3325.24219 C2589.49459,3323.67968 2589.65084,3322.21485 2589.96334,3320.84766 C2590.19772,3319.4414 2590.35397,3318.38672 2590.43209,3317.68359 Z M2579.65084,3351.25781 L2579.65084,3352.01953 C2579.68991,3352.80079 2579.88522,3353.19141 2580.23678,3353.19141 L2580.35397,3353.19141 C2580.62741,3352.99609 2580.76413,3352.29297 2580.76413,3351.08203 L2580.76413,3350.37891 C2580.76413,3349.4414 2581.07662,3348.17188 2581.70163,3346.57031 C2581.81881,3346.21875 2581.95553,3345.32032 2582.11178,3343.875 C2582.38522,3342.42968 2582.73678,3340.94532 2583.16647,3339.42188 C2583.47897,3338.52343 2583.75241,3337.52735 2583.98678,3336.43359 C2584.18209,3335.6914 2584.41647,3335.04688 2584.68991,3334.5 L2584.68991,3334.32422 C2584.68991,3333.38671 2584.90475,3332.01954 2585.33444,3330.22266 L2586.27194,3327.23438 C2586.66256,3326.10156 2587.09225,3324.98829 2587.561,3323.89453 L2587.73678,3322.42969 L2588.55709,3319.03125 C2587.93209,3319.77344 2587.61959,3320.26172 2587.61959,3320.49609 C2586.79928,3322.56642 2586.21335,3324.3828 2585.86178,3325.94531 C2585.86178,3326.49219 2585.39304,3328.19139 2584.45553,3331.04297 C2583.83053,3332.60548 2583.186,3334.73436 2582.52194,3337.42969 C2582.20944,3338.91407 2581.6235,3341.39451 2580.76413,3344.87109 C2580.3735,3346.51173 2580.10006,3348.01562 2579.94381,3349.38281 L2579.65084,3351.25781 Z M2586.09616,3342.17578 L2586.15475,3342.17578 C2585.84225,3343.42579 2585.686,3344.08984 2585.686,3344.16797 L2585.62741,3344.16797 C2585.74459,3343.62109 2585.90084,3342.95704 2586.09616,3342.17578 Z M2550.23678,3376.16016 L2550.29538,3376.16016 C2552.09226,3374.63671 2553.57662,3373.36719 2554.7485,3372.35156 C2556.66257,3370.47655 2557.79537,3369.26563 2558.14694,3368.71875 C2561.66258,3364.5781 2563.63522,3362.09766 2564.06491,3361.27734 C2565.23679,3359.51952 2566.27193,3357.60548 2567.17038,3355.53516 C2566.89694,3355.88672 2565.31492,3358.09373 2562.42428,3362.15625 C2561.2524,3363.83595 2559.18211,3366.33592 2556.21334,3369.65625 C2555.51022,3370.4375 2554.53366,3371.47265 2553.28366,3372.76172 C2551.72115,3374.36329 2550.70553,3375.49609 2550.23678,3376.16016 Z M2549.65084,3376.92188 C2549.18209,3377.3125 2548.94772,3377.58594 2548.94772,3377.74219 L2548.94772,3377.80078 C2548.98678,3378.03516 2549.08444,3378.15234 2549.24069,3378.15234 C2549.39694,3378.15234 2549.55319,3377.80078 2549.70944,3377.09766 L2549.70944,3376.98047 C2549.70944,3376.94141 2549.68991,3376.92188 2549.65084,3376.92188 Z M2632.71034,3301.57031 C2635.87442,3301.76563 2637.45644,3301.92187 2637.45644,3302.03906 C2638.08144,3302.23438 2638.58925,3302.625 2638.97988,3303.21094 C2639.64394,3304.14844 2639.97597,3305.53515 2639.97597,3307.37109 C2639.97597,3308.6211 2639.83925,3309.91015 2639.56581,3311.23828 C2638.35487,3314.08986 2637.37832,3316.55077 2636.63613,3318.62109 C2635.58143,3321.78517 2634.54629,3325.35936 2633.53066,3329.34375 C2633.41347,3330.63282 2633.25722,3331.51172 2633.06191,3331.98047 C2632.55409,3332.83985 2631.90957,3333.26953 2631.12831,3333.26953 C2631.05019,3333.26953 2630.85488,3333.23047 2630.54238,3333.15234 C2630.42519,3333.19141 2630.34706,3333.21094 2630.308,3333.21094 L2631.71425,3324.94922 L2631.71425,3324.89062 C2631.12831,3326.64845 2630.42519,3329.36326 2629.60488,3333.03516 L2629.54628,3333.09375 C2628.17909,3333.09375 2627.2416,3332.52735 2626.73378,3331.39453 C2626.46034,3331.0039 2626.16738,3330.63281 2625.85488,3330.28125 C2625.54237,3329.61718 2625.38613,3328.3086 2625.38613,3326.35547 C2625.38613,3323.66014 2625.6205,3320.3008 2626.08925,3316.27734 C2622.37829,3318.69923 2618.99942,3321.10155 2615.95253,3323.48438 C2613.53064,3325.32032 2610.38614,3328.03514 2606.51894,3331.62891 L2606.28456,3331.57031 L2606.05019,3331.57031 C2605.933,3331.57031 2605.83534,3331.64844 2605.75722,3331.80469 L2605.81581,3332.27344 C2604.72206,3333.28907 2603.45254,3334.51952 2602.00722,3335.96484 C2603.60879,3337.52735 2604.78065,3338.52344 2605.52284,3338.95312 C2607.04629,3339.8125 2608.39393,3340.67187 2609.56581,3341.53125 C2610.73769,3342.35157 2612.16346,3343.44531 2613.84316,3344.8125 C2616.34317,3346.88282 2617.71034,3348.03516 2617.94472,3348.26953 C2618.29628,3348.97266 2619.07753,3350.02734 2620.28847,3351.43359 C2620.56191,3351.70703 2621.20643,3352.50781 2622.22206,3353.83594 C2622.76894,3354.42188 2623.31581,3355.26171 2623.86269,3356.35547 C2623.90175,3356.35547 2624.07753,3356.64843 2624.39003,3357.23438 L2624.44863,3357.23438 C2623.31581,3354.85155 2622.74941,3353.64063 2622.74941,3353.60156 C2623.72597,3354.92969 2624.46815,3356.12109 2624.97597,3357.17578 C2626.46035,3360.18361 2627.20253,3363.09374 2627.20253,3365.90625 L2627.20253,3366.78516 L2627.14394,3366.78516 C2627.10488,3366.62891 2627.00722,3366.43359 2626.85097,3366.19922 C2626.85097,3366.35547 2626.65566,3366.6289 2626.26503,3367.01953 C2626.14784,3367.01953 2625.9916,3367.58593 2625.79628,3368.71875 C2625.67909,3369.10938 2625.6205,3369.7539 2625.6205,3370.65234 C2625.46425,3372.09766 2625.28847,3373.07422 2625.09316,3373.58203 C2625.01503,3374.01172 2624.97597,3374.57812 2624.97597,3375.28125 C2624.89784,3375.67188 2624.58535,3376.17968 2624.03847,3376.80469 C2623.92128,3377.19531 2623.25723,3378.11327 2622.04628,3379.55859 L2622.22206,3379.73438 C2620.58143,3381.25782 2619.1166,3382.46875 2617.82753,3383.36719 C2614.58533,3385.75001 2612.30019,3387.05859 2610.97206,3387.29297 C2610.19081,3387.44922 2609.64394,3387.52734 2609.33144,3387.52734 L2609.09706,3386.82422 C2608.70644,3387.01953 2608.37441,3387.13672 2608.10097,3387.17578 L2607.98378,3387.41016 C2608.33535,3387.48828 2608.66737,3387.52734 2608.97988,3387.52734 L2608.97988,3387.58594 C2608.86269,3387.58594 2608.12051,3387.95703 2606.75331,3388.69922 C2606.44081,3388.93359 2605.03458,3389.38281 2602.53456,3390.04688 C2601.08924,3390.35938 2599.91738,3390.51562 2599.01894,3390.51562 L2598.84316,3390.51562 C2598.3744,3390.51562 2597.92519,3390.45703 2597.4955,3390.33984 C2596.75331,3390.45703 2596.10878,3390.51562 2595.56191,3390.51562 L2595.44472,3390.51562 C2592.74939,3390.51562 2590.54238,3388.52346 2588.82363,3384.53906 C2588.433,3383.40624 2588.08144,3382.21485 2587.76894,3380.96484 C2587.41737,3379.24609 2587.24159,3378.03516 2587.24159,3377.33203 L2587.30019,3377.33203 C2588.58926,3378.19141 2590.15174,3378.62109 2591.98769,3378.62109 C2595.15177,3378.62109 2598.84314,3377.46876 2603.06191,3375.16406 C2604.27285,3374.5 2605.62049,3373.6211 2607.10488,3372.52734 C2609.1752,3370.80859 2611.01112,3369.18751 2612.61269,3367.66406 C2612.61269,3367.625 2612.84706,3367.35157 2613.31581,3366.84375 C2614.64394,3365.35937 2615.52284,3363.99219 2615.95253,3362.74219 C2616.22597,3362.03906 2616.36269,3361.27735 2616.36269,3360.45703 C2616.32363,3360.10547 2616.30409,3359.85156 2616.30409,3359.69531 C2615.52284,3358.32812 2614.9955,3357.46875 2614.72206,3357.11719 C2613.62831,3356.17968 2612.51504,3355.39844 2611.38222,3354.77344 C2610.71815,3354.38281 2608.31583,3352.97657 2604.17519,3350.55469 C2602.26112,3349.38281 2600.60098,3348.25001 2599.19472,3347.15625 C2596.34314,3344.92968 2594.76113,3343.0547 2594.44863,3341.53125 L2594.27284,3340.41797 C2593.0619,3339.36328 2592.30019,3338.54297 2591.98769,3337.95703 C2591.40175,3337.05859 2591.10878,3336.00391 2591.10878,3334.79297 C2591.10878,3331.31639 2591.51893,3328.81641 2592.33925,3327.29297 C2592.88613,3325.92577 2594.09705,3324.20704 2595.97206,3322.13672 C2596.87051,3321.16015 2597.63222,3320.4375 2598.25722,3319.96875 C2601.1088,3317.78124 2604.11658,3315.75001 2607.28066,3313.875 C2611.81193,3311.06249 2616.03064,3308.73829 2619.93691,3306.90234 C2621.42129,3306.23828 2622.80799,3305.69141 2624.09706,3305.26172 C2625.15176,3304.94922 2626.20643,3304.79297 2627.26113,3304.79297 C2627.92519,3304.79297 2628.64784,3304.85156 2629.42909,3304.96875 C2629.54628,3304.22656 2629.74159,3303.5625 2630.01503,3302.97656 C2630.32753,3302.39062 2630.75722,3302 2631.30409,3301.80469 C2631.77285,3301.64844 2632.24159,3301.57031 2632.71034,3301.57031 Z M2616.53847,3310.53516 C2616.57753,3310.8086 2616.69472,3310.94531 2616.89003,3310.94531 C2618.68692,3310.16406 2619.78065,3309.53906 2620.17128,3309.07031 L2620.22988,3309.01172 C2620.07362,3308.85547 2619.97597,3308.77734 2619.93691,3308.77734 C2618.60878,3309.16797 2617.47597,3309.7539 2616.53847,3310.53516 Z M2615.07363,3311.17969 L2615.48378,3311.00391 L2615.48378,3310.88672 C2615.48378,3310.84766 2615.44472,3310.82812 2615.36659,3310.82812 C2615.21034,3310.82812 2615.11269,3310.94531 2615.07363,3311.17969 Z M2596.61659,3326.00391 C2597.08535,3326.00391 2597.53456,3325.78906 2597.96425,3325.35938 C2598.04238,3325.28125 2598.41347,3324.79297 2599.07753,3323.89453 C2601.57754,3321.43358 2603.56971,3319.63672 2605.05409,3318.50391 C2606.89004,3317.05859 2608.47206,3315.92579 2609.80019,3315.10547 C2610.93301,3314.51953 2612.45643,3313.40626 2614.3705,3311.76562 L2614.83925,3311.29688 L2614.60488,3311.29688 C2614.058,3311.29688 2613.47207,3311.57031 2612.84706,3312.11719 C2609.91736,3313.83595 2607.00723,3315.80858 2604.11659,3318.03516 C2603.53065,3318.58203 2602.96425,3319.10937 2602.41738,3319.61719 C2601.558,3320.28125 2600.79629,3320.92578 2600.13222,3321.55078 C2598.92128,3322.72266 2598.04238,3323.69921 2597.4955,3324.48047 C2596.8705,3325.41797 2596.558,3325.92578 2596.558,3326.00391 L2596.61659,3326.00391 Z M2631.06972,3332.03906 C2631.65566,3332 2631.94863,3331.96094 2631.94863,3331.92188 C2631.94863,3331.88281 2632.00722,3331.64844 2632.12441,3331.21875 L2632.00722,3331.16016 C2631.92909,3331.16016 2631.63613,3331.41406 2631.12831,3331.92188 C2631.12831,3331.92188 2631.10878,3331.96094 2631.06972,3332.03906 Z M2611.32363,3346.74609 C2612.41738,3347.64454 2613.41346,3348.17187 2614.31191,3348.32812 C2613.92128,3347.66406 2613.25722,3347.19531 2612.31972,3346.92188 C2611.85097,3346.80469 2611.51894,3346.74609 2611.32363,3346.74609 Z M2614.48769,3348.44531 C2614.48769,3348.79688 2614.70253,3349.10937 2615.13222,3349.38281 C2616.9291,3351.10157 2617.96425,3352.19531 2618.23769,3352.66406 C2619.29238,3353.91407 2620.17128,3355.14453 2620.87441,3356.35547 C2621.57754,3357.6836 2622.04628,3358.44531 2622.28066,3358.64062 C2622.43691,3358.79688 2622.69081,3358.91406 2623.04238,3358.99219 C2623.04238,3358.64062 2622.90566,3358.21094 2622.63222,3357.70312 C2621.77284,3356.02343 2620.54238,3354.22657 2618.94081,3352.3125 C2617.33924,3350.51562 2616.22597,3349.42188 2615.60097,3349.03125 C2615.36659,3348.875 2614.9955,3348.67969 2614.48769,3348.44531 Z M2614.78066,3382.13672 C2614.78066,3382.41016 2614.91737,3382.58594 2615.19081,3382.66406 C2615.308,3382.74219 2615.40566,3382.78125 2615.48378,3382.78125 C2616.9291,3382.07812 2618.41346,3381.16016 2619.93691,3380.02734 C2622.00723,3378.34765 2623.3744,3376.64845 2624.03847,3374.92969 C2623.88222,3374.77344 2623.70644,3374.61719 2623.51113,3374.46094 L2623.45253,3374.46094 C2622.39784,3375.59376 2620.81582,3377.21483 2618.70644,3379.32422 C2618.08143,3379.98828 2617.31972,3380.55469 2616.42128,3381.02344 C2615.79628,3381.41406 2615.26894,3381.76562 2614.83925,3382.07812 L2614.78066,3382.13672 Z M2712.9895,3310.35938 C2713.88794,3310.35938 2715.21606,3311.23827 2716.97388,3312.99609 L2717.20825,3312.99609 C2718.14576,3312.99609 2719.33715,3313.83593 2720.78247,3315.51562 C2721.25122,3315.86719 2722.09106,3316.29687 2723.302,3316.80469 C2723.69263,3317.03906 2723.88794,3317.27344 2723.88794,3317.50781 C2723.73169,3317.97656 2723.59497,3318.40625 2723.47778,3318.79688 C2723.12622,3320.43751 2722.7356,3323.36717 2722.30591,3327.58594 L2722.30591,3327.99609 C2722.30591,3331.70705 2723.04809,3343.60146 2724.53247,3363.67969 C2724.76685,3366.64845 2724.88403,3368.66015 2724.88403,3369.71484 C2724.88403,3371.1211 2724.70825,3371.98047 2724.35669,3372.29297 C2724.08325,3372.41016 2723.88794,3372.46875 2723.77075,3372.46875 L2723.82935,3372.41016 C2722.50121,3372.09765 2721.4856,3371.76563 2720.78247,3371.41406 C2719.96215,3370.90625 2718.51686,3369.98829 2716.44653,3368.66016 C2716.05591,3368.46484 2715.76294,3368.17188 2715.56763,3367.78125 C2715.21606,3367.03906 2714.72779,3366.31641 2714.10278,3365.61328 C2714.14185,3365.37891 2714.37622,3364.75391 2714.80591,3363.73828 L2714.80591,3363.5625 C2714.80591,3363.44531 2714.70825,3363.09375 2714.51294,3362.50781 L2714.51294,3362.39062 L2714.74731,3360.75 C2714.90356,3360.39844 2714.98169,3360.02735 2714.98169,3359.63672 C2714.98169,3359.24609 2714.82544,3358.75782 2714.51294,3358.17188 C2714.35669,3357.85937 2714.27856,3357.58594 2714.27856,3357.35156 L2714.51294,3356.82422 L2714.51294,3356.76562 C2714.47388,3356.6875 2714.39575,3356.375 2714.27856,3355.82812 C2714.16138,3355.78906 2714.06372,3355.76953 2713.9856,3355.76953 C2713.16528,3355.76953 2710.43093,3356.94139 2705.78247,3359.28516 C2701.5637,3361.4336 2697.96998,3363.09374 2695.00122,3364.26562 C2693.5559,3364.8125 2692.44263,3365.08594 2691.66138,3365.08594 L2690.84106,3365.08594 C2690.56763,3365.51563 2689.6692,3367.07811 2688.14575,3369.77344 C2686.89575,3372.07814 2685.70435,3374.48046 2684.57153,3376.98047 C2683.79028,3378.77735 2683.06763,3380.88671 2682.40356,3383.30859 C2682.24731,3384.2461 2682.16919,3385.20312 2682.16919,3386.17969 C2682.16919,3386.45313 2682.20825,3387.35155 2682.28638,3388.875 C2682.28638,3389.07031 2682.20825,3389.1875 2682.052,3389.22656 C2681.85669,3389.22656 2681.07545,3388.97266 2679.70825,3388.46484 C2678.927,3388.11328 2677.71607,3387.33204 2676.07544,3386.12109 L2674.552,3385.125 C2674.08325,3384.30468 2673.84888,3383.38672 2673.84888,3382.37109 L2673.84888,3382.01953 C2673.84888,3379.16795 2675.39183,3374.89065 2678.47778,3369.1875 C2679.06372,3368.05468 2682.61838,3361.14069 2689.14185,3348.44531 C2695.04031,3336.96088 2698.20434,3330.84766 2698.63403,3330.10547 C2700.78248,3326.55076 2704.08323,3321.37503 2708.53638,3314.57812 C2709.00513,3313.71875 2709.74731,3312.74219 2710.76294,3311.64844 C2711.70044,3310.78906 2712.44262,3310.35938 2712.9895,3310.35938 Z M2704.20044,3336.02344 C2705.68482,3334.18749 2707.01293,3332.25392 2708.18481,3330.22266 C2709.27857,3328.23046 2710.04028,3326.68751 2710.46997,3325.59375 C2709.29809,3326.76563 2708.43872,3327.80078 2707.89185,3328.69922 C2707.46216,3329.40235 2706.83716,3330.47656 2706.01685,3331.92188 C2704.92309,3333.40626 2704.35669,3334.5 2704.31763,3335.20312 C2704.2395,3335.47656 2704.20044,3335.75 2704.20044,3336.02344 Z M2710.46997,3331.16016 C2708.67309,3333.93361 2707.55982,3335.80859 2707.13013,3336.78516 C2704.1223,3342.25393 2700.88014,3347.957 2697.40356,3353.89453 C2700.02076,3352.76171 2704.27853,3351.06251 2710.177,3348.79688 L2712.34497,3347.91797 C2711.13403,3337.52729 2710.52856,3332.01953 2710.52856,3331.39453 L2710.52856,3331.16016 L2710.46997,3331.16016 Z M2719.90356,3331.62891 C2719.74731,3332.60547 2719.66919,3333.46484 2719.66919,3334.20703 L2719.66919,3335.14453 C2719.66919,3336.16016 2720.02075,3337.13671 2720.72388,3338.07422 C2720.91919,3337.17578 2721.01685,3336.39453 2721.01685,3335.73047 C2721.01685,3334.4414 2720.66529,3333.07423 2719.96216,3331.62891 L2719.90356,3331.62891 Z M2720.72388,3340.18359 C2720.45044,3340.4961 2720.31372,3340.84765 2720.31372,3341.23828 C2720.31372,3341.39453 2720.46997,3342.05859 2720.78247,3343.23047 C2720.93872,3344.01172 2721.01685,3344.77343 2721.01685,3345.51562 C2720.97778,3346.41407 2720.95825,3346.98047 2720.95825,3347.21484 L2720.95825,3347.74219 C2720.95825,3348.71875 2721.09497,3350.35936 2721.36841,3352.66406 L2721.36841,3353.36719 L2721.19263,3356.00391 L2721.19263,3356.17969 C2721.19263,3358.3672 2721.40747,3360.65233 2721.83716,3363.03516 C2722.18872,3364.32423 2722.71606,3365.39843 2723.41919,3366.25781 L2723.41919,3366.19922 C2722.677,3362.83983 2722.30591,3359.20705 2722.30591,3355.30078 C2722.30591,3350.06638 2722.16919,3346.45313 2721.89575,3344.46094 C2721.77856,3341.96092 2721.64185,3340.71094 2721.4856,3340.71094 C2721.21216,3340.35937 2720.95825,3340.18359 2720.72388,3340.18359 Z M2693.47778,3355.00781 C2694.02466,3354.61719 2694.2981,3354.12891 2694.2981,3353.54297 L2694.2981,3353.42578 C2693.75122,3353.9336 2693.47778,3354.46093 2693.47778,3355.00781 Z M2693.3606,3355.125 L2693.3606,3355.24219 C2693.39966,3355.24219 2693.41919,3355.20313 2693.41919,3355.125 L2693.3606,3355.125 Z M2687.50122,3365.90625 C2689.02467,3363.83593 2690.35278,3361.68751 2691.4856,3359.46094 C2692.65748,3356.96092 2693.24341,3355.63281 2693.24341,3355.47656 C2692.18871,3356.53126 2691.44653,3357.44921 2691.01685,3358.23047 C2690.54809,3358.9336 2690.04029,3359.87109 2689.49341,3361.04297 C2689.10278,3361.7461 2688.6145,3362.5664 2688.02856,3363.50391 C2687.677,3364.32422 2687.50122,3365.125 2687.50122,3365.90625 Z M2683.86841,3373.23047 C2683.86841,3373.50391 2683.90747,3373.8164 2683.9856,3374.16797 C2685.43091,3372.52734 2686.15356,3370.47657 2686.15356,3368.01562 C2685.45044,3368.95313 2684.88403,3369.89062 2684.45435,3370.82812 C2684.06372,3371.60938 2683.86841,3372.41015 2683.86841,3373.23047 Z M2681.52466,3378.97266 L2681.52466,3379.03125 C2681.52466,3379.34375 2681.54419,3379.61719 2681.58325,3379.85156 C2682.32544,3379.1875 2682.69653,3378.40625 2682.69653,3377.50781 C2682.69653,3377.19531 2682.677,3376.90235 2682.63794,3376.62891 C2681.89575,3377.29297 2681.52466,3378.07421 2681.52466,3378.97266 Z" id="sendusa"></path>
        </g>
    </g>
</svg>