<?xml version="1.0" encoding="UTF-8"?>
<svg width="502px" height="113px" viewBox="0 0 502 113" version="1.1" xmlns="http://www.w3.org/2000/svg" xmlns:xlink="http://www.w3.org/1999/xlink">
    <!-- Generator: Sketch 54.1 (76490) - https://sketchapp.com -->
    <title>Unbeatabl</title>
    <desc>Created with Sketch.</desc>
    <g id="Page-1" stroke="none" stroke-width="1" fill="none" fill-rule="evenodd">
        <g id="Artboard" transform="translate(-682.000000, -3289.000000)" fill-rule="nonzero" stroke="#FFFFFF">
            <path d="M744.909983,3310.47656 L745.613108,3310.47656 C748.386559,3310.47656 750.534975,3311.0039 752.05842,3312.05859 L752.05842,3312.11719 C751.550605,3314.42189 750.984204,3316.60936 750.359201,3318.67969 C749.695136,3321.14064 749.363108,3322.74218 749.363108,3323.48438 C749.363108,3324.46094 748.913893,3326.90232 748.015451,3330.80859 C747.312323,3332.95704 746.648267,3335.82811 746.023264,3339.42188 C745.788888,3340.71094 745.515453,3342.56639 745.202951,3344.98828 C744.577948,3348.46486 744.031079,3352.15623 743.562326,3356.0625 C743.562326,3356.375 743.386547,3357.15624 743.034983,3358.40625 C741.589663,3363.52346 740.320144,3368.77732 739.226389,3374.16797 C738.718574,3376.90236 738.46467,3379.20702 738.46467,3381.08203 C738.46467,3383.38673 738.855291,3385.67186 739.636545,3387.9375 L739.636545,3388.23047 C739.597482,3388.38672 739.519358,3388.46484 739.40217,3388.46484 L738.992014,3388.46484 C736.335751,3388.46484 734.167803,3386.8633 732.488108,3383.66016 C730.730286,3379.9492 729.851389,3374.81253 729.851389,3368.25 C729.851389,3364.65623 730.124824,3361.2383 730.671701,3357.99609 C729.070131,3360.14454 727.409991,3362.21483 725.691233,3364.20703 C724.792791,3365.30079 723.074058,3367.09764 720.534983,3369.59766 C718.620911,3371.4336 716.94124,3372.89843 715.49592,3373.99219 C708.38651,3379.57815 701.667827,3382.37109 695.33967,3382.37109 C693.152159,3382.29297 692.05842,3382.17578 692.05842,3382.01953 C689.909972,3380.6914 688.230301,3379.71485 687.019358,3379.08984 C685.417787,3378.26953 684.226393,3376.86329 683.445139,3374.87109 C683.054512,3373.77734 682.859201,3372.6836 682.859201,3371.58984 C682.859201,3370.61328 683.171698,3368.69923 683.796701,3365.84766 C686.1014,3354.87104 688.718562,3344.16802 691.648264,3333.73828 C693.32796,3327.91794 694.81232,3323.19142 696.101389,3319.55859 C696.374828,3318.62109 696.667794,3317.80078 696.980295,3317.09766 C698.347489,3314.51952 700.007629,3313.23047 701.960764,3313.23047 C703.054519,3313.23047 704.109196,3313.64062 705.124826,3314.46094 C705.124826,3314.77344 704.831861,3315.78905 704.24592,3317.50781 C702.878726,3320.94533 701.589676,3325.22263 700.378733,3330.33984 C699.636541,3333.66017 699.265451,3335.80859 699.265451,3336.78516 L699.265451,3340.35938 C699.265451,3340.59375 699.24592,3340.86719 699.206858,3341.17969 L699.206858,3341.23828 L699.265451,3341.23828 L706.531076,3315.51562 C706.531076,3315.24219 706.667794,3315.10547 706.941233,3315.10547 L707.175608,3315.10547 C707.800611,3315.10547 708.171701,3315.78906 708.288889,3317.15625 L708.288889,3318.03516 C708.288889,3321.51174 706.492032,3329.51947 702.898264,3342.05859 C701.648258,3346.2383 700.808422,3349.4414 700.378733,3351.66797 C700.378733,3352.87891 699.636552,3355.5742 698.15217,3359.75391 C697.097477,3362.76173 696.570139,3365.10546 696.570139,3366.78516 C696.609202,3366.94141 696.628733,3367.15625 696.628733,3367.42969 C696.628733,3367.54688 697.195133,3367.70312 698.327951,3367.89844 C698.718578,3367.9375 699.050606,3367.95703 699.324045,3367.95703 L699.675608,3367.95703 C703.581877,3367.95703 707.89824,3365.45706 712.624826,3360.45703 C714.538898,3358.30858 716.140445,3356.33595 717.429514,3354.53906 C720.749843,3349.73435 723.523253,3345.16408 725.749826,3340.82812 C726.96077,3338.64061 728.484192,3335.69142 730.320139,3331.98047 C730.749828,3331.08203 731.159981,3330.37891 731.550608,3329.87109 C732.527175,3328.46484 733.757631,3326.33595 735.242014,3323.48438 C737.663901,3318.71873 739.577944,3315.20314 740.984201,3312.9375 C742.038894,3311.33593 742.859198,3310.53516 743.445139,3310.53516 C743.835766,3310.49609 744.324042,3310.47656 744.909983,3310.47656 Z M752.585764,3312.76172 L752.644358,3312.76172 C752.956859,3313.19141 753.113108,3313.67968 753.113108,3314.22656 C753.113108,3314.61719 752.917797,3315.57421 752.52717,3317.09766 C751.706853,3321.82424 750.554521,3327.46872 749.070139,3334.03125 C748.835763,3335.04688 748.699045,3335.65234 748.659983,3335.84766 L748.601389,3335.84766 L748.601389,3334.32422 C748.601389,3332.83984 748.894355,3330.84767 749.480295,3328.34766 C749.949047,3326.12108 750.495917,3324.01173 751.12092,3322.01953 C751.511547,3321.04296 751.706858,3320.4375 751.706858,3320.20312 L751.706858,3319.44141 C751.706858,3318.66015 751.980292,3316.64845 752.52717,3313.40625 L752.585764,3312.76172 Z M750.769358,3312.82031 C750.613107,3312.9375 750.49592,3313.15234 750.417795,3313.46484 C749.949043,3314.98829 749.421704,3316.51171 748.835764,3318.03516 C748.210761,3319.83204 747.898264,3321.02343 747.898264,3321.60938 C747.351386,3323.95314 746.726392,3326.04296 746.023264,3327.87891 C745.437323,3329.40235 744.870923,3331.45311 744.324045,3334.03125 L742.449045,3342.05859 C742.292794,3342.72266 742.01936,3344.32421 741.628733,3346.86328 L741.628733,3347.625 C741.706858,3348.48438 741.882637,3348.91406 742.156076,3348.91406 L742.273264,3348.91406 C742.624828,3348.75781 742.800608,3348.13282 742.800608,3347.03906 L742.800608,3346.10156 C742.800608,3345.08593 743.113104,3343.77735 743.738108,3342.17578 C743.855296,3341.90234 743.992013,3341.04298 744.148264,3339.59766 C744.421703,3338.03515 744.792793,3336.45313 745.261545,3334.85156 C745.534984,3334.07031 745.788888,3333.07422 746.023264,3331.86328 C746.25764,3331.04296 746.511544,3330.37891 746.784983,3329.87109 C746.784983,3329.79297 746.765452,3329.69531 746.726389,3329.57812 C746.726389,3328.95312 746.882637,3327.89844 747.195139,3326.41406 C747.663891,3324.73437 748.034981,3323.46485 748.30842,3322.60547 C748.777172,3321.3164 749.245918,3320.10547 749.71467,3318.97266 C749.71467,3318.23047 750.046698,3316.66798 750.710764,3314.28516 C750.867015,3313.58203 750.945139,3313.15234 750.945139,3312.99609 C750.906076,3312.91797 750.847483,3312.85938 750.769358,3312.82031 Z M748.191233,3337.66406 L748.249826,3337.66406 C747.976387,3338.95313 747.83967,3339.61719 747.83967,3339.65625 L747.781076,3339.65625 C747.820139,3339.1875 747.956856,3338.52344 748.191233,3337.66406 Z M699.148264,3341.47266 C698.640449,3342.13672 698.230297,3342.9375 697.917795,3343.875 C697.761544,3344.38282 697.48811,3345.39843 697.097483,3346.92188 C696.355291,3348.91407 695.945139,3350.41796 695.867014,3351.43359 C695.437324,3354.40236 695.066234,3356.41406 694.753733,3357.46875 C694.167792,3359.34376 693.874826,3360.39844 693.874826,3360.63281 L693.93342,3361.74609 L693.992014,3361.74609 C694.617017,3361.51172 695.261542,3360.5547 695.925608,3358.875 C696.433423,3357.54687 696.94123,3355.82814 697.449045,3353.71875 C697.995923,3350.90624 698.542792,3347.01956 699.08967,3342.05859 C699.08967,3342.05859 699.109201,3341.86328 699.148264,3341.47266 Z M693.054514,3362.97656 C693.054514,3363.09375 693.132638,3363.21094 693.288889,3363.32812 C693.484202,3363.32812 693.659982,3362.9961 693.816233,3362.33203 L693.816233,3362.03906 C693.308418,3362.39063 693.054514,3362.70312 693.054514,3362.97656 Z M705.359201,3377.27344 L705.417795,3377.27344 C709.206877,3375.94531 711.999817,3374.63673 713.796701,3373.34766 C716.726403,3371.27733 718.640447,3369.8711 719.538889,3369.12891 C720.671707,3368.11328 721.511542,3367.23438 722.05842,3366.49219 C722.722486,3365.67187 723.34748,3364.8125 723.93342,3363.91406 C720.261527,3367.15627 718.406077,3368.77734 718.367014,3368.77734 C716.765443,3370.10548 715.281083,3371.17968 713.913889,3372 C711.687315,3373.48438 709.538899,3374.77343 707.468576,3375.86719 C706.570134,3376.41407 705.867016,3376.88281 705.359201,3377.27344 Z M758.008545,3306.90234 L758.067139,3306.90234 C759.121832,3306.94141 759.64917,3307.01953 759.64917,3307.13672 C759.64917,3307.25391 759.942136,3307.52734 760.528077,3307.95703 C760.528077,3308.11328 760.938229,3308.25 761.758545,3308.36719 C762.422611,3308.64063 763.164791,3309.10937 763.985108,3309.77344 C764.766362,3310.16406 766.133536,3310.78906 768.08667,3311.64844 C768.08667,3311.6875 768.164795,3311.70703 768.321045,3311.70703 C768.750735,3311.62891 768.985108,3311.58984 769.02417,3311.58984 C769.492923,3311.58984 770.020261,3312.52733 770.606202,3314.40234 C770.996829,3315.45704 771.348388,3316.0625 771.660889,3316.21875 C772.364018,3316.57031 772.715577,3316.82422 772.715577,3316.98047 C774.434335,3320.37892 776.231192,3324.73435 778.106202,3330.04688 C778.574954,3331.37501 779.297603,3332.97655 780.27417,3334.85156 C782.813246,3339.85159 785.254628,3344.75388 787.598389,3349.55859 L787.598389,3349.91016 C787.598389,3350.02734 787.735107,3350.55468 788.008545,3351.49219 C788.008545,3351.84375 788.223387,3352.39062 788.653077,3353.13281 L789.356202,3354.83203 L790.293702,3355.53516 L790.528077,3355.53516 C793.145277,3343.03509 795.352286,3332.82035 797.14917,3324.89062 C798.125738,3320.90623 799.004635,3316.80471 799.785889,3312.58594 C800.059328,3311.45312 800.352294,3310.61328 800.664795,3310.06641 C801.211673,3309.20703 801.992915,3308.77734 803.008545,3308.77734 C804.102301,3308.77734 805.547599,3309.20703 807.344483,3310.06641 C807.539796,3310.26172 807.871824,3310.6914 808.340577,3311.35547 L808.633545,3311.58984 C808.516357,3312.25391 808.340578,3313.60155 808.106202,3315.63281 C807.715575,3317.82032 807.246829,3319.6953 806.699952,3321.25781 C806.426513,3321.88282 806.211671,3322.66406 806.05542,3323.60156 C805.938232,3324.46094 805.879639,3324.98828 805.879639,3325.18359 L805.879639,3325.24219 L805.938233,3325.18359 C805.977296,3325.22266 805.996827,3325.26172 805.996827,3325.30078 C805.17651,3330.10549 804.766358,3333.30859 804.766358,3334.91016 C804.727295,3334.91016 804.649171,3335.82812 804.531983,3337.66406 C804.727296,3339.14844 804.942138,3339.89062 805.176514,3339.89062 C805.176514,3339.96875 805.293701,3340.00781 805.528077,3340.00781 C805.801516,3340.00781 805.957764,3339.57813 805.996827,3338.71875 C805.879639,3337.11718 805.821045,3336.17969 805.821045,3335.90625 L805.821045,3335.73047 C805.821045,3334.87109 806.074949,3333.6211 806.582764,3331.98047 C806.699952,3331.55078 806.758545,3331.16016 806.758545,3330.80859 C806.719483,3329.40234 806.699952,3328.54297 806.699952,3328.23047 C806.81714,3327.37109 807.071044,3326.02345 807.46167,3324.1875 C807.500733,3323.28906 807.81323,3322.03907 808.39917,3320.4375 L808.340577,3320.14453 L808.340577,3318.85547 C808.340577,3318.69922 808.321046,3318.60156 808.281983,3318.5625 L808.164795,3318.5625 L809.043702,3314.8125 C809.395266,3313.44531 809.668701,3312.56641 809.864014,3312.17578 C810.059328,3312.05859 810.196045,3312 810.27417,3312 L810.449952,3312 C810.879641,3312 811.211669,3312.48828 811.446045,3313.46484 L811.446045,3313.52344 C810.586666,3317.78127 809.434334,3324.49995 807.989014,3333.67969 C805.410876,3349.38289 803.477302,3360.92574 802.188233,3368.30859 C800.5476,3377.83989 799.121833,3385.2031 797.910889,3390.39844 C797.598388,3391.68751 797.26636,3392.68359 796.914795,3393.38672 C796.094479,3393.38672 794.473401,3393.05469 792.051514,3392.39062 C790.25463,3392 788.985112,3391.60938 788.24292,3391.21875 C786.289786,3390.16406 785.313233,3388.32814 785.313233,3385.71094 L785.313233,3385.00781 C785.313233,3384.38281 785.469481,3382.27346 785.781983,3378.67969 L785.840577,3377.15625 C785.840577,3374.65624 785.274176,3372.56641 784.141358,3370.88672 C781.602283,3366.35545 777.696072,3359.08989 772.422608,3349.08984 C770.703849,3345.92577 768.946054,3342.58596 767.14917,3339.07031 L767.090577,3339.07031 C767.090577,3339.77344 766.836673,3340.92577 766.328858,3342.52734 C765.860106,3343.66016 765.625733,3344.59765 765.625733,3345.33984 C764.297601,3358.73835 763.321049,3367.74216 762.696045,3372.35156 C762.461669,3374.46095 762.188235,3376.17968 761.875733,3377.50781 C761.641357,3378.44532 761.387453,3379.10937 761.114014,3379.5 C760.918701,3379.8125 760.645266,3379.96875 760.293702,3379.96875 C758.848382,3379.8125 756.504655,3378.46486 753.262452,3375.92578 C752.012445,3374.91015 751.387452,3374.1875 751.387452,3373.75781 C750.996825,3372.35156 750.801514,3370.45704 750.801514,3368.07422 L750.801514,3367.60547 C750.801514,3362.95701 751.680412,3355.12506 753.438233,3344.10938 C754.649177,3336.68746 755.664791,3329.65628 756.485108,3323.01562 C756.836672,3319.26561 757.012452,3316.29689 757.012452,3314.10938 L757.012452,3310.59375 C757.012452,3309.03124 757.324949,3307.82032 757.949952,3306.96094 L758.008545,3306.90234 Z M782.793702,3346.33594 C783.028078,3347.3125 783.418699,3348.05468 783.965577,3348.5625 C784.356204,3348.95313 784.688232,3349.14844 784.96167,3349.14844 C785.078859,3349.1875 785.176514,3349.20703 785.254639,3349.20703 C785.528078,3349.05078 785.664795,3348.85547 785.664795,3348.62109 L785.664795,3348.5625 C785.352294,3347.50781 784.688238,3346.62891 783.672608,3345.92578 C783.477294,3345.76953 783.360108,3345.69141 783.321045,3345.69141 L783.203858,3345.69141 C783.008544,3345.69141 782.891358,3345.84765 782.852295,3346.16016 C782.852295,3346.19922 782.832764,3346.25781 782.793702,3346.33594 Z M760.000733,3366.84375 C760.000733,3366.92188 760.020264,3367.11719 760.059327,3367.42969 L760.059327,3368.36719 C760.059327,3369.34375 760.254637,3370.24218 760.645264,3371.0625 L760.703858,3371.0625 C761.17261,3370.00781 761.406983,3369.08985 761.406983,3368.30859 C761.406983,3368.07422 761.387452,3367.46875 761.348389,3366.49219 C761.621828,3362.74217 761.797608,3360.86719 761.875733,3360.86719 C762.461673,3357.89842 762.754639,3355.84766 762.754639,3354.71484 C763.106203,3352.8789 763.399169,3351.1211 763.633545,3349.44141 C763.203856,3349.94922 762.891359,3350.49609 762.696045,3351.08203 C762.539795,3351.4336 762.364015,3352.41015 762.168702,3354.01172 C761.934326,3355.02735 761.504642,3356.90233 760.879639,3359.63672 C760.645263,3360.84766 760.352297,3363.24998 760.000733,3366.84375 Z M785.43042,3351.25781 C785.43042,3351.6875 785.586669,3351.90234 785.89917,3351.90234 L786.074952,3351.90234 C786.309328,3351.82422 786.426514,3351.70703 786.426514,3351.55078 L786.426514,3351.43359 C786.387452,3351.12109 786.231203,3350.96484 785.957764,3350.96484 L785.89917,3350.96484 C785.586669,3350.96484 785.43042,3351.0625 785.43042,3351.25781 Z M786.719483,3354.42188 L786.719483,3354.48047 C786.797608,3354.79297 786.934326,3354.94922 787.129639,3354.94922 C787.364015,3354.79297 787.481202,3354.63672 787.481202,3354.48047 L787.481202,3354.42188 C787.442139,3354.14844 787.324953,3354.01172 787.129639,3354.01172 C786.8562,3354.01172 786.719483,3354.14844 786.719483,3354.42188 Z M788.008545,3357.29297 C788.008545,3357.52734 788.067139,3357.64453 788.184327,3357.64453 C788.496828,3357.64453 788.672608,3357.52734 788.71167,3357.29297 C788.71167,3357.05859 788.594484,3356.94141 788.360108,3356.94141 L788.301514,3356.94141 C788.106201,3356.94141 788.008545,3357.05859 788.008545,3357.29297 Z M794.981202,3391.39453 C794.981202,3391.58984 795.176512,3391.6875 795.567139,3391.6875 C795.879641,3391.29687 796.328855,3389.91017 796.914795,3387.52734 C797.500736,3384.98827 798.106199,3381.66799 798.731202,3377.56641 L799.49292,3374.92969 C799.727297,3373.87499 799.844483,3373.17188 799.844483,3372.82031 C799.844483,3372.3125 799.649172,3372.05859 799.258545,3372.05859 C798.867919,3372.05859 798.633546,3372.39062 798.55542,3373.05469 C798.008543,3375.28126 797.735108,3376.84375 797.735108,3377.74219 C797.461669,3379.50001 797.031986,3381.80467 796.446045,3384.65625 C796.094481,3386.29688 795.664798,3387.99608 795.156983,3389.75391 C795.039795,3390.76954 794.981202,3391.31641 794.981202,3391.39453 Z M836.90789,3296.00391 C840.032905,3296.00391 844.661765,3297.23436 850.794608,3299.69531 C852.044615,3300.24219 853.314133,3301.0039 854.603202,3301.98047 C855.267268,3302.48828 856.185228,3303.34765 857.357108,3304.55859 C858.0993,3305.37891 858.528983,3305.86719 858.646171,3306.02344 C858.880547,3306.80469 859.095389,3308.01562 859.290702,3309.65625 C859.642266,3310.16407 859.818046,3310.59375 859.818046,3310.94531 C859.271168,3310.28125 858.958671,3309.94922 858.880546,3309.94922 L858.704765,3309.94922 C858.587577,3309.98828 858.528983,3310.02734 858.528983,3310.06641 C858.528983,3310.14453 858.548514,3310.18359 858.587577,3310.18359 L858.528983,3310.47656 L858.528983,3310.82812 C858.646171,3312.15626 858.704765,3313.05469 858.704765,3313.52344 L858.704765,3313.99219 C858.704765,3315.8672 858.372737,3317.99608 857.708671,3320.37891 C857.161793,3321.94141 856.497737,3323.28906 855.716483,3324.42188 C855.130543,3325.55469 854.818046,3326.51171 854.778983,3327.29297 C855.989927,3325.96484 856.673514,3325.08594 856.829765,3324.65625 C857.103203,3324.07031 857.611011,3323.05469 858.353202,3321.60938 C858.665704,3320.78906 858.95867,3319.81251 859.232108,3318.67969 C859.54461,3318.28906 859.837576,3316.94142 860.111015,3314.63672 C860.18914,3314.05078 860.345388,3313.34766 860.579765,3312.52734 L860.579765,3312.41016 C861.400081,3313.11328 861.810233,3314.26562 861.810233,3315.86719 L861.810233,3315.98438 C861.810233,3317.42969 861.536799,3319.20702 860.989921,3321.31641 C859.896165,3324.59767 857.279004,3329.32419 853.138358,3335.49609 C851.693039,3337.64454 850.189147,3339.63671 848.62664,3341.47266 C847.845386,3342.25391 847.396171,3342.64453 847.278983,3342.64453 C847.161795,3342.64453 847.103202,3342.68359 847.103202,3342.76172 C847.22039,3342.95703 847.318045,3343.26953 847.396171,3343.69922 C848.060237,3344.12891 848.431327,3344.38281 848.509452,3344.46094 L849.56414,3345.86719 C850.657895,3346.88282 851.204765,3347.48828 851.204765,3347.68359 C851.204765,3348.19141 851.30242,3348.5625 851.497733,3348.79688 C852.161799,3349.61719 853.275069,3351.31639 854.837577,3353.89453 C855.696956,3354.8711 856.12664,3355.57422 856.12664,3356.00391 C856.321953,3356.82422 856.536795,3357.39062 856.771171,3357.70312 C857.161798,3358.17188 857.650074,3358.48437 858.236015,3358.64062 C858.509453,3359.61719 858.646171,3360.71093 858.646171,3361.92188 L858.646171,3362.44922 C858.646171,3366.27736 857.474308,3370.41795 855.130546,3374.87109 C854.271167,3376.47266 853.157896,3378.1328 851.790702,3379.85156 C850.032881,3381.96095 848.177431,3383.79687 846.224296,3385.35938 C842.864904,3388.01564 840.111025,3389.94921 837.962577,3391.16016 C835.150063,3392.87891 832.415715,3394.34374 829.759452,3395.55469 C827.025063,3396.80469 824.407902,3397.70312 821.90789,3398.25 C820.540695,3398.5625 819.681329,3398.71875 819.329765,3398.71875 C818.704762,3397.89843 818.294609,3397.17578 818.099296,3396.55078 C818.060233,3396.47266 818.040702,3396.41406 818.040702,3396.375 C817.767263,3396.57031 817.33758,3396.96093 816.75164,3397.54688 C816.400075,3397.78125 815.950861,3398.25 815.403983,3398.95312 L815.169608,3398.95312 C813.255536,3398.95312 811.361024,3398.48438 809.486015,3397.54688 C808.782886,3397.15625 808.11883,3396.60938 807.493827,3395.90625 C806.595385,3394.92968 805.931329,3393.56251 805.50164,3391.80469 C805.462577,3391.76562 805.384453,3391.53125 805.267265,3391.10156 C805.579766,3390.39843 805.892263,3389.65625 806.204765,3388.875 L806.790702,3388.11328 C806.790702,3388.03516 806.849295,3387.9375 806.966483,3387.82031 L806.966483,3387.58594 L806.90789,3387.52734 L806.966483,3387.46875 C807.708675,3387.82031 808.607103,3388.09375 809.661796,3388.28906 C810.599301,3388.44531 811.243825,3388.52344 811.59539,3388.52344 C813.470399,3388.52344 816.907865,3387.48829 821.90789,3385.41797 C826.361037,3383.42577 830.169593,3381.41407 833.333671,3379.38281 C834.700865,3378.5625 836.048508,3377.56641 837.37664,3376.39453 C838.821959,3374.87109 840.013354,3373.42579 840.950858,3372.05859 C844.31025,3367.21482 845.989921,3362.99611 845.989921,3359.40234 C845.989921,3355.92576 844.349312,3353.26954 841.068046,3351.43359 C840.872732,3351.31641 840.775077,3351.23828 840.775077,3351.19922 L840.833671,3350.73047 C839.857103,3350.26172 839.173517,3350.02734 838.78289,3350.02734 L838.607108,3350.02734 C838.33367,3350.02734 837.962579,3350.10547 837.493827,3350.26172 C837.454764,3350.22266 837.37664,3349.98828 837.259452,3349.55859 L837.435233,3349.55859 C837.552421,3349.44141 837.611015,3349.32422 837.611015,3349.20703 L837.611015,3349.14844 C837.611015,3348.99219 837.552421,3348.875 837.435233,3348.79688 C837.23992,3348.79688 837.142265,3348.93359 837.142265,3349.20703 L837.142265,3349.38281 L835.50164,3349.38281 C835.228201,3349.30469 835.052421,3349.24609 834.974296,3349.20703 C834.935233,3349.20703 834.739923,3349.30469 834.388358,3349.5 C833.607104,3349.57813 832.435241,3350.04687 830.872733,3350.90625 C829.466476,3351.6875 828.626641,3352.07812 828.353202,3352.07812 C828.157889,3352.03906 828.040702,3352.01953 828.00164,3352.01953 C827.689138,3352.29297 827.103206,3352.54687 826.243827,3352.78125 C825.814137,3352.97656 825.189144,3353.17187 824.368827,3353.36719 C824.368827,3353.32812 824.388358,3353.25 824.427421,3353.13281 C824.310233,3353.13281 823.763363,3353.34765 822.786796,3353.77734 C822.435232,3353.77734 822.259452,3353.875 822.259452,3354.07031 C820.618819,3359.34378 819.407894,3363.48436 818.62664,3366.49219 C818.118825,3368.48438 817.864921,3370.04687 817.864921,3371.17969 C817.864921,3371.53125 817.923514,3372.01953 818.040702,3372.64453 L818.040702,3372.87891 C818.040702,3373.89454 816.71259,3374.98828 814.056327,3376.16016 C813.07976,3376.66797 812.591483,3377 812.591483,3377.15625 C811.810229,3377.50781 811.341484,3377.70312 811.185233,3377.74219 C810.677418,3377.23437 810.306328,3376.1797 810.071952,3374.57812 C809.915701,3373.36718 809.837577,3372.03907 809.837577,3370.59375 L809.837577,3364.26562 C809.837577,3361.96093 810.325853,3357.44925 811.302421,3350.73047 C811.732111,3347.99608 812.200856,3345.82813 812.708671,3344.22656 C813.607113,3343.21093 814.173513,3342.46875 814.40789,3342 C814.40789,3342.03906 814.6032,3342.2539 814.993827,3342.64453 C815.540705,3343.38672 815.911795,3344.05078 816.107108,3344.63672 C816.263359,3345.30078 816.439139,3345.63281 816.634452,3345.63281 C816.790703,3345.75 817.044607,3345.80859 817.396171,3345.80859 C817.630547,3345.80859 817.747733,3345.41797 817.747733,3344.63672 C817.903984,3343.5039 818.099295,3341.39455 818.333671,3338.30859 C818.255545,3337.48828 818.118828,3337.07812 817.923515,3337.07812 C817.806327,3337 817.68914,3336.96094 817.571952,3336.96094 C817.259451,3337 816.946954,3337.39062 816.634452,3338.13281 L816.400077,3339.48047 C816.282889,3340.06641 815.989923,3340.61328 815.521171,3341.12109 C815.247732,3341.35547 814.896173,3341.64844 814.466483,3342 L814.40789,3342 L814.466483,3341.70703 C814.466483,3341.47266 814.173518,3341.16016 813.587577,3340.76953 C817.493847,3325.61321 819.525076,3317.6836 819.681327,3316.98047 C820.228205,3313.30858 820.755543,3310.82813 821.263358,3309.53906 C821.653985,3308.75781 822.044606,3308.07422 822.435233,3307.48828 C823.607114,3305.76952 825.111005,3303.83595 826.946952,3301.6875 C827.806331,3300.78906 828.353201,3300.10547 828.587577,3299.63672 C828.821953,3299.20703 829.251637,3298.75781 829.87664,3298.28906 L829.935233,3298.28906 L829.935233,3298.46484 L829.87664,3298.69922 C830.696956,3297.80078 831.204764,3297.33203 831.400077,3297.29297 C831.595391,3297.05859 832.200853,3296.80469 833.216483,3296.53125 C834.739928,3296.17969 835.970385,3296.00391 836.90789,3296.00391 Z M829.349296,3325.94531 L829.642265,3325.71094 L829.700858,3325.71094 C829.778984,3326.33594 829.818046,3326.72656 829.818046,3326.88281 C829.818046,3327 829.70086,3327.50781 829.466483,3328.40625 C829.466483,3328.5625 829.40789,3328.875 829.290702,3329.34375 L829.290702,3329.46094 C829.290702,3329.61719 829.329764,3329.8125 829.40789,3330.04688 C829.212576,3331.17969 828.978203,3331.86328 828.704765,3332.09766 C828.587577,3332.33203 828.411797,3332.625 828.177421,3332.97656 C828.177421,3333.21094 828.099297,3333.85546 827.943046,3334.91016 C827.943046,3336.4336 827.767266,3337.37109 827.415702,3337.72266 C827.415702,3337.91797 826.986019,3338.48437 826.12664,3339.42188 C829.876658,3338.67968 832.747723,3337.89844 834.739921,3337.07812 C836.536805,3336.33593 837.767261,3335.63282 838.431327,3334.96875 C839.603208,3333.95312 840.501637,3333.03516 841.12664,3332.21484 C843.079774,3329.75389 844.915694,3327.00002 846.634452,3323.95312 C848.392273,3320.9453 849.642261,3318.89454 850.384452,3317.80078 C850.696954,3317.41015 850.970388,3317.11719 851.204765,3316.92188 C851.243827,3316.57031 851.263358,3316.23828 851.263358,3315.92578 L851.263358,3315.39844 C851.263358,3313.60155 850.638365,3311.7461 849.388358,3309.83203 C849.153982,3309.40234 848.450864,3308.64063 847.278983,3307.54688 C845.950852,3306.37499 844.388367,3305.20313 842.591483,3304.03125 L842.415702,3304.03125 C841.556323,3304.03125 840.657894,3303.83594 839.72039,3303.44531 L839.427421,3303.44531 C838.607104,3303.44531 837.591489,3303.89453 836.380546,3304.79297 C836.380546,3305.06641 836.321953,3305.24219 836.204765,3305.32031 C836.048514,3305.39844 835.833672,3305.88671 835.560233,3306.78516 C835.482108,3306.98047 835.169611,3307.33203 834.622733,3307.83984 C833.958668,3308.69922 833.372736,3309.69531 832.864921,3310.82812 C832.357106,3311.96094 832.103202,3312.70312 832.103202,3313.05469 C832.103202,3313.95313 831.185243,3318.24996 829.349296,3325.94531 Z M829.525077,3315.63281 L829.642265,3316.74609 C830.345393,3316.0039 830.696952,3315.20313 830.696952,3314.34375 L830.403983,3314.10938 C830.013356,3314.10938 829.739922,3314.40234 829.583671,3314.98828 C829.544608,3315.14453 829.525077,3315.35937 829.525077,3315.63281 Z M828.821952,3320.4375 C828.118824,3321.33594 827.68914,3322.05859 827.53289,3322.60547 C826.829761,3324.2461 826.478202,3325.6914 826.478202,3326.94141 C826.517265,3327.21485 826.536796,3327.42969 826.536796,3327.58594 L826.536796,3327.70312 C828.099304,3325.35936 828.880546,3322.93751 828.880546,3320.4375 L828.821952,3320.4375 Z M829.759452,3325.41797 C829.798515,3325.41797 829.818046,3325.4375 829.818046,3325.47656 C829.778983,3325.55469 829.739921,3325.61328 829.700858,3325.65234 L829.642265,3325.65234 C829.681327,3325.49609 829.720389,3325.41797 829.759452,3325.41797 Z M850.384452,3334.73438 L850.384452,3334.79297 C850.032888,3335.06641 849.739922,3335.32031 849.505546,3335.55469 C849.193044,3336.02344 849.036796,3336.31641 849.036796,3336.43359 C849.036796,3336.55078 849.134451,3336.6875 849.329765,3336.84375 C849.681329,3336.84375 849.954764,3336.62891 850.150077,3336.19922 C850.306328,3335.96484 850.501638,3335.55469 850.736015,3334.96875 C851.126642,3334.8125 851.614918,3334.30469 852.200858,3333.44531 C853.646178,3331.29686 854.466482,3329.96875 854.661796,3329.46094 C854.896172,3328.875 855.2282,3328.17188 855.65789,3327.35156 C854.837573,3327.82031 854.193048,3328.58203 853.724296,3329.63672 C853.177418,3330.4961 852.513362,3331.35546 851.732108,3332.21484 C850.833666,3332.9961 850.384452,3333.83593 850.384452,3334.73438 Z M825.247733,3331.6875 C825.130545,3332 824.915704,3332.5664 824.603202,3333.38672 C824.407889,3334.16797 824.310233,3334.85156 824.310233,3335.4375 C824.310233,3335.90625 824.349295,3336.375 824.427421,3336.84375 C825.169612,3335.74999 825.540702,3334.59766 825.540702,3333.38672 C825.540702,3332.99609 825.443047,3332.42969 825.247733,3331.6875 Z M847.161796,3338.42578 C847.161796,3338.58203 847.220389,3338.69922 847.337577,3338.77734 L847.454765,3338.77734 C847.571953,3338.69922 847.630546,3338.5625 847.630546,3338.36719 C847.591483,3338.13281 847.53289,3338.01562 847.454765,3338.01562 C847.259451,3338.05469 847.161796,3338.19141 847.161796,3338.42578 Z M822.611015,3340.06641 C822.611015,3340.37891 822.747732,3340.57422 823.021171,3340.65234 L823.079765,3340.65234 C823.314141,3340.49609 823.431327,3340.26172 823.431327,3339.94922 C823.431327,3339.71484 823.353203,3339.51953 823.196952,3339.36328 L823.138358,3339.36328 C822.786794,3339.36328 822.611015,3339.59765 822.611015,3340.06641 Z M845.228202,3342.58594 C845.228202,3342.70313 845.286795,3342.80078 845.403983,3342.87891 L845.579765,3342.87891 C845.65789,3342.72266 845.696952,3342.625 845.696952,3342.58594 C845.696952,3342.42969 845.65789,3342.27344 845.579765,3342.11719 L845.521171,3342.11719 C845.325857,3342.11719 845.228202,3342.27344 845.228202,3342.58594 Z M822.435233,3343.52344 C822.161795,3344.38282 822.025077,3345.14453 822.025077,3345.80859 C822.025077,3346.08203 822.064139,3346.53125 822.142265,3347.15625 C822.298515,3346.96094 822.454764,3346.55078 822.611015,3345.92578 C822.68914,3345.61328 822.747733,3345.10547 822.786796,3344.40234 C822.786796,3344.05078 822.689141,3343.77734 822.493827,3343.58203 L822.493827,3343.52344 L822.435233,3343.52344 Z M820.911796,3348.26953 C820.169605,3349.94923 819.466487,3351.84374 818.802421,3353.95312 C818.333669,3355.59376 817.864923,3357.64452 817.396171,3360.10547 C817.200857,3360.18359 817.06414,3360.3789 816.986015,3360.69141 C816.517262,3362.13673 816.28289,3363.66015 816.28289,3365.26172 L816.28289,3365.4375 C816.28289,3366.0625 816.321952,3366.58984 816.400077,3367.01953 C817.571958,3363.46483 818.52898,3360.2422 819.271171,3357.35156 C819.857111,3354.96874 820.403981,3351.94142 820.911796,3348.26953 Z M856.068046,3365.61328 C855.208667,3367.91798 854.075865,3370.14452 852.669608,3372.29297 C851.614916,3373.85548 849.896183,3376.04295 847.513358,3378.85547 C846.38054,3380.10547 845.091491,3381.51171 843.646171,3383.07422 C842.825854,3383.97266 842.083674,3384.83203 841.419608,3385.65234 L841.478202,3385.65234 C844.525092,3384.55859 847.903965,3381.43362 851.614921,3376.27734 C852.786802,3374.51952 853.665699,3373.03516 854.25164,3371.82422 C855.462583,3369.36327 856.068046,3367.31251 856.068046,3365.67188 L856.068046,3365.61328 Z M844.232108,3378.79688 C844.857112,3378.48437 845.267264,3378.21094 845.462577,3377.97656 C845.618828,3377.82031 845.755545,3377.625 845.872733,3377.39062 C845.872733,3377.11719 845.736016,3376.98047 845.462577,3376.98047 C844.915699,3377.25391 844.505547,3377.83984 844.232108,3378.73828 L844.232108,3378.79688 Z M839.778983,3383.89453 C841.146178,3383.1914 842.435227,3381.84376 843.646171,3379.85156 C843.802422,3379.5 843.919608,3379.20703 843.997733,3378.97266 C843.489918,3379.28516 842.7868,3379.89062 841.888358,3380.78906 C840.872728,3381.88282 840.16961,3382.91796 839.778983,3383.89453 Z M836.263358,3387 C837.00555,3386.72656 837.728199,3386.23828 838.431327,3385.53516 C838.743829,3385.26172 839.056326,3384.8711 839.368827,3384.36328 L839.544608,3384.1875 L839.544608,3384.12891 C838.333665,3384.51953 837.376643,3385.22265 836.673515,3386.23828 C836.400076,3386.70703 836.263358,3386.96094 836.263358,3387 Z M839.427421,3386.88281 L839.427421,3387.05859 C839.466484,3387.3711 839.58367,3387.52734 839.778983,3387.52734 L839.837577,3387.52734 C840.189141,3387.21484 840.482107,3386.88281 840.716483,3386.53125 L840.716483,3386.29688 C840.599295,3386.17969 840.443047,3386.12109 840.247733,3386.12109 C839.700856,3386.4336 839.427421,3386.6875 839.427421,3386.88281 Z M818.099296,3396.31641 L818.099296,3396.375 L818.275077,3396.375 C821.712594,3396.375 827.982063,3394.07034 837.083671,3389.46094 C837.864925,3389.14844 838.255546,3388.66016 838.255546,3387.99609 C835.325844,3388.97266 832.122751,3390.20312 828.646171,3391.6875 C826.653973,3392.625 824.036812,3393.66015 820.794608,3394.79297 C819.974292,3395.10547 819.095394,3395.61328 818.15789,3396.31641 C818.118827,3396.31641 818.099296,3396.31641 818.099296,3396.31641 Z M915.162703,3311.35547 C918.131467,3311.35547 920.084573,3311.58984 921.022078,3312.05859 C923.365839,3312.95704 924.967386,3314.22655 925.826765,3315.86719 C926.061141,3316.25781 926.178328,3316.66797 926.178328,3317.09766 L926.178328,3317.21484 C926.178328,3318.15235 925.826769,3319.16796 925.12364,3320.26172 C923.717383,3320.76953 922.311147,3321.02344 920.90489,3321.02344 C913.990793,3322.31251 908.072883,3323.58203 903.150984,3324.83203 C902.408793,3325.06641 901.080681,3325.33984 899.166609,3325.65234 C897.994728,3325.76953 897.076768,3325.82812 896.412703,3325.82812 L896.940046,3326.29688 C896.940046,3326.33594 896.27599,3326.43359 894.947859,3326.58984 C891.588467,3326.82422 889.225209,3327.09765 887.858015,3327.41016 C887.818952,3327.44922 887.4088,3327.54687 886.627546,3327.70312 L886.627546,3327.76172 C891.041631,3329.36329 896.002519,3331.02343 901.510359,3332.74219 L905.143171,3333.97266 C906.393178,3334.20703 907.311137,3334.48047 907.897078,3334.79297 C908.131454,3334.87109 908.287702,3334.98828 908.365828,3335.14453 C908.522078,3335.37891 908.600203,3335.92578 908.600203,3336.78516 C909.14708,3338.46485 909.420515,3339.57812 909.420515,3340.125 L909.420515,3340.94531 C909.420515,3341.29688 909.342391,3341.47266 909.18614,3341.47266 C907.975196,3342.21485 906.178339,3343.01562 903.795515,3343.875 C902.233007,3344.34375 901.17833,3344.57812 900.631453,3344.57812 C893.365791,3345.67188 887.23304,3346.92187 882.233015,3348.32812 C880.592382,3348.79688 879.06896,3349.24609 877.662703,3349.67578 C877.662703,3349.71484 877.936137,3349.94922 878.483015,3350.37891 C877.662698,3350.96485 876.979112,3351.53125 876.432234,3352.07812 C876.315046,3352.19531 875.963487,3352.85937 875.377546,3354.07031 C874.71348,3355.04688 874.225204,3356.21874 873.912703,3357.58594 L873.385359,3359.16797 C873.229108,3360.06641 873.092391,3361.23827 872.975203,3362.68359 C872.93614,3362.87891 872.877547,3362.97656 872.799421,3362.97656 C872.48692,3362.97656 872.272078,3363.38671 872.15489,3364.20703 C871.608012,3366.23829 871.334578,3367.60547 871.334578,3368.30859 C870.904888,3370.84767 870.690046,3372.44922 870.690046,3373.11328 L870.690046,3373.23047 C870.690046,3374.32422 870.924419,3375.16406 871.393171,3375.75 C871.66661,3376.21875 872.076762,3376.70703 872.62364,3377.21484 L872.213484,3375.04688 C872.174421,3374.77344 872.15489,3374.40235 872.15489,3373.93359 L872.15489,3373.64062 C872.15489,3373.32812 872.193952,3372.74219 872.272078,3371.88281 C872.272078,3371.57031 872.174422,3371.08203 871.979109,3370.41797 C871.979109,3370.22266 872.174419,3369.83203 872.565046,3369.24609 C873.033799,3368.34765 873.268171,3367.52735 873.268171,3366.78516 L873.268171,3366.49219 L873.150984,3364.91016 C873.150984,3362.48827 873.912695,3359.48049 875.43614,3355.88672 C876.100206,3354.4414 876.940041,3353.21094 877.955671,3352.19531 C878.072859,3352.11719 878.209577,3351.78516 878.365828,3351.19922 C878.483016,3350.96484 878.678326,3350.84766 878.951765,3350.84766 C879.654894,3350.92578 880.006453,3351.23828 880.006453,3351.78516 C880.006453,3352.01953 879.615831,3352.93749 878.834578,3354.53906 C877.623634,3357.00001 876.588488,3359.40233 875.729109,3361.74609 C874.557228,3365.02736 873.971296,3368.11327 873.971296,3371.00391 C873.971296,3373.26954 874.342386,3375.6328 875.084578,3378.09375 L875.143171,3378.09375 C876.783804,3378.05469 881.647037,3376.27736 889.733015,3372.76172 C893.990849,3370.84765 897.037693,3369.32422 898.87364,3368.19141 C899.537706,3367.68359 900.416603,3367.17578 901.510359,3366.66797 C903.385368,3365.88671 904.90879,3365.49609 906.080671,3365.49609 L906.315046,3365.49609 C906.979112,3365.49609 907.447857,3365.65234 907.721296,3365.96484 C907.799422,3366.12109 907.838484,3366.29687 907.838484,3366.49219 C907.682233,3367.66407 907.604109,3368.32812 907.604109,3368.48438 L907.604109,3368.71875 C907.604109,3368.79688 907.643171,3368.97265 907.721296,3369.24609 C906.393165,3369.8711 905.045522,3370.73046 903.678328,3371.82422 C903.404889,3372.13672 903.268171,3372.3125 903.268171,3372.35156 C903.54161,3372.35156 904.108011,3372.15625 904.96739,3371.76562 L906.725203,3370.47656 C906.920516,3370.32031 907.154889,3370.18359 907.428328,3370.06641 L907.428328,3370.125 C907.389265,3370.20313 907.369734,3370.33984 907.369734,3370.53516 C907.486922,3371.51172 907.545515,3372.05859 907.545515,3372.17578 C907.428327,3372.91797 906.393181,3374.0703 904.440046,3375.63281 C902.252535,3377.27345 899.889278,3378.69921 897.350203,3379.91016 C895.240817,3381.00391 892.838497,3382.05859 890.143171,3383.07422 L890.143171,3382.54688 C889.479105,3382.89844 888.697863,3383.19141 887.799421,3383.42578 C887.096293,3383.62109 886.061147,3383.75781 884.693953,3383.83594 C883.600197,3384.10938 882.760362,3384.38281 882.174421,3384.65625 C881.666606,3385.04688 880.924426,3385.35937 879.947859,3385.59375 C876.940031,3386.02344 874.498649,3386.53125 872.62364,3387.11719 C872.62364,3387.15625 872.545516,3387.17578 872.389265,3387.17578 C870.475193,3387.17578 868.951771,3386.64844 867.818953,3385.59375 C864.30331,3382.85936 862.545515,3378.64065 862.545515,3372.9375 C862.545515,3367.74216 863.990813,3361.4141 866.881453,3353.95312 L866.764265,3353.95312 C866.022074,3353.95312 865.377549,3353.28907 864.830671,3351.96094 C864.557232,3351.45312 864.244736,3350.51563 863.893171,3349.14844 L863.71739,3348.32812 C863.756453,3347.46875 863.834577,3346.60938 863.951765,3345.75 L863.951765,3345.69141 C863.951765,3345.61328 863.971296,3345.57422 864.010359,3345.57422 L863.951765,3345.45703 L863.951765,3345.33984 C863.951765,3344.94922 864.068951,3344.30469 864.303328,3343.40625 C864.34239,3342.82031 864.479108,3342.52734 864.713484,3342.52734 C865.611926,3342.17578 867.115817,3341.7461 869.225203,3341.23828 C870.20177,3340.96484 870.690046,3340.76953 870.690046,3340.65234 L870.690046,3340.53516 C870.690046,3340.41797 870.455674,3340.35938 869.986921,3340.35938 L869.81114,3340.35938 C869.459576,3340.35938 868.600209,3340.57422 867.233015,3341.00391 C866.022071,3341.31641 865.299422,3341.47266 865.065046,3341.47266 C864.986921,3341.12109 864.947859,3340.84766 864.947859,3340.65234 C865.065047,3340.18359 865.162702,3339.94922 865.240828,3339.94922 L865.533796,3339.36328 C870.924448,3338.07421 878.54156,3336.53126 888.385359,3334.73438 C891.471312,3334.14843 894.088473,3333.71875 896.236921,3333.44531 L896.236921,3333.38672 C893.150968,3332.52734 888.697888,3331.4336 882.877546,3330.10547 C881.002537,3329.59765 879.264273,3329.12891 877.662703,3328.69922 C877.233013,3328.73828 876.861923,3328.75781 876.549421,3328.75781 L876.080671,3328.75781 C873.854098,3328.75781 872.115834,3327.85938 870.865828,3326.0625 C870.123636,3324.85156 869.693953,3323.56251 869.576765,3322.19531 C869.576765,3321.88281 869.30333,3320.8672 868.756453,3319.14844 C868.71739,3318.99219 868.678328,3318.73828 868.639265,3318.38672 C868.639265,3317.76172 868.990824,3317.3125 869.693953,3317.03906 C871.10021,3316.41406 874.127523,3315.67188 878.775984,3314.8125 C883.50257,3313.91406 890.611874,3313.01563 900.104109,3312.11719 C906.276015,3311.60937 911.295496,3311.35547 915.162703,3311.35547 Z M887.740828,3315.75 L887.740828,3315.80859 C887.740828,3316.08203 888.072855,3316.21875 888.736921,3316.21875 L888.854109,3316.21875 C891.04162,3316.02344 893.619719,3315.78906 896.588484,3315.51562 C897.213487,3315.35937 897.838481,3315.28125 898.463484,3315.28125 C898.619735,3315.28125 899.08848,3315.32031 899.869734,3315.39844 C900.025985,3315.35937 900.104109,3315.28125 900.104109,3315.16406 C900.104109,3314.69531 899.537708,3314.46094 898.40489,3314.46094 L897.525984,3314.46094 C894.557219,3314.46094 891.510374,3314.73437 888.385359,3315.28125 C887.955669,3315.39844 887.740828,3315.55469 887.740828,3315.75 Z M872.740828,3318.62109 C872.897078,3319.05078 873.268168,3319.28516 873.854109,3319.32422 C874.869739,3319.32422 875.904885,3319.08985 876.959578,3318.62109 C877.936145,3318.23047 879.576754,3317.82031 881.881453,3317.39062 C883.834587,3317.03906 885.143168,3316.72656 885.807234,3316.45312 L885.807234,3316.16016 C885.690046,3315.96484 885.279894,3315.86719 884.576765,3315.86719 L884.225203,3315.86719 C883.951764,3315.86719 882.994742,3316.0625 881.354109,3316.45312 C879.869726,3316.76563 877.975214,3317.01953 875.670515,3317.21484 C874.811136,3317.25391 873.893176,3317.54687 872.916609,3318.09375 C872.799421,3318.28906 872.740828,3318.46484 872.740828,3318.62109 Z M880.768171,3337.78125 C880.650983,3337.85938 880.59239,3337.97656 880.59239,3338.13281 C880.631453,3338.21094 880.709577,3338.25 880.826765,3338.25 L880.885359,3338.25 C881.002547,3338.25 881.06114,3338.19141 881.06114,3338.07422 L881.06114,3338.01562 C881.06114,3337.85937 880.963485,3337.78125 880.768171,3337.78125 Z M878.600203,3338.60156 L878.600203,3338.66016 C878.600203,3338.81641 878.678327,3338.89453 878.834578,3338.89453 C878.990828,3338.89453 879.108015,3338.81641 879.18614,3338.66016 C879.147077,3338.46484 879.068953,3338.36719 878.951765,3338.36719 L878.834578,3338.36719 C878.678327,3338.36719 878.600203,3338.44531 878.600203,3338.60156 Z M876.490828,3339.24609 C876.490828,3339.36328 876.52989,3339.44141 876.608015,3339.48047 L876.725203,3339.48047 C876.959579,3339.48047 877.076765,3339.34375 877.076765,3339.07031 L877.076765,3339.01172 C877.037702,3338.89453 876.959578,3338.83594 876.84239,3338.83594 C876.608014,3338.83594 876.490828,3338.97265 876.490828,3339.24609 Z M872.740828,3340.53516 C872.740828,3340.65234 872.858014,3340.75 873.09239,3340.82812 L873.150984,3340.82812 C873.619736,3340.82812 874.205668,3340.57422 874.908796,3340.06641 C875.143172,3339.83203 875.260359,3339.61719 875.260359,3339.42188 C875.143171,3339.1875 875.025984,3339.07031 874.908796,3339.07031 C873.971292,3339.34375 873.248643,3339.79297 872.740828,3340.41797 L872.740828,3340.53516 Z M881.822859,3349.20703 C881.861921,3349.20703 881.940046,3349.24609 882.057234,3349.32422 C882.057234,3349.83203 881.725206,3350.24219 881.06114,3350.55469 C880.865827,3350.59375 880.670516,3350.61328 880.475203,3350.61328 L880.416609,3350.61328 C880.182233,3350.61328 880.065046,3350.51563 880.065046,3350.32031 L880.065046,3350.20312 C880.065046,3349.8125 880.553323,3349.48047 881.52989,3349.20703 L881.822859,3349.20703 Z M901.627546,3373.23047 C902.135361,3373.19141 902.584576,3372.97656 902.975203,3372.58594 L902.975203,3372.52734 C902.50645,3372.52734 902.057236,3372.76172 901.627546,3373.23047 Z M897.994734,3374.75391 L897.994734,3374.8125 L898.463484,3374.8125 C899.361926,3374.8125 900.123637,3374.40235 900.74864,3373.58203 L900.514265,3373.52344 C899.459572,3373.52344 898.619737,3373.93359 897.994734,3374.75391 Z M897.233015,3375.28125 L897.291609,3375.28125 C897.643173,3375.16406 897.818953,3375.04688 897.818953,3374.92969 L897.760359,3374.92969 C897.565045,3374.92969 897.389266,3375.04687 897.233015,3375.28125 Z M946.718297,3310.35938 C947.616739,3310.35938 948.94485,3311.23827 950.702672,3312.99609 L950.937047,3312.99609 C951.874551,3312.99609 953.065946,3313.83593 954.511265,3315.51562 C954.980018,3315.86719 955.819853,3316.29687 957.030797,3316.80469 C957.421424,3317.03906 957.616734,3317.27344 957.616734,3317.50781 C957.460483,3317.97656 957.323766,3318.40625 957.206578,3318.79688 C956.855014,3320.43751 956.464393,3323.36717 956.034703,3327.58594 L956.034703,3327.99609 C956.034703,3331.70705 956.776883,3343.60146 958.261265,3363.67969 C958.495642,3366.64845 958.612828,3368.66015 958.612828,3369.71484 C958.612828,3371.1211 958.437048,3371.98047 958.085484,3372.29297 C957.812045,3372.41016 957.616735,3372.46875 957.499547,3372.46875 L957.55814,3372.41016 C956.230009,3372.09765 955.214394,3371.76563 954.511265,3371.41406 C953.690949,3370.90625 952.245651,3369.98829 950.175328,3368.66016 C949.784701,3368.46484 949.491735,3368.17188 949.296422,3367.78125 C948.944857,3367.03906 948.456581,3366.31641 947.831578,3365.61328 C947.870641,3365.37891 948.105013,3364.75391 948.534703,3363.73828 L948.534703,3363.5625 C948.534703,3363.44531 948.437048,3363.09375 948.241734,3362.50781 L948.241734,3362.39062 L948.476109,3360.75 C948.63236,3360.39844 948.710484,3360.02735 948.710484,3359.63672 C948.710484,3359.24609 948.554236,3358.75782 948.241734,3358.17188 C948.085483,3357.85937 948.007359,3357.58594 948.007359,3357.35156 L948.241734,3356.82422 L948.241734,3356.76562 C948.202671,3356.6875 948.124547,3356.375 948.007359,3355.82812 C947.890171,3355.78906 947.792516,3355.76953 947.71439,3355.76953 C946.894074,3355.76953 944.159726,3356.94139 939.511265,3359.28516 C935.292494,3361.4336 931.69878,3363.09374 928.730015,3364.26562 C927.284696,3364.8125 926.171426,3365.08594 925.390172,3365.08594 L924.569859,3365.08594 C924.29642,3365.51563 923.397992,3367.07811 921.874547,3369.77344 C920.62454,3372.07814 919.433146,3374.48046 918.300328,3376.98047 C917.519074,3378.77735 916.796425,3380.88671 916.132359,3383.30859 C915.976108,3384.2461 915.897984,3385.20312 915.897984,3386.17969 C915.897984,3386.45313 915.937046,3387.35155 916.015172,3388.875 C916.015172,3389.07031 915.937047,3389.1875 915.780797,3389.22656 C915.585483,3389.22656 914.804241,3388.97266 913.437047,3388.46484 C912.655793,3388.11328 911.444867,3387.33204 909.804234,3386.12109 L908.280797,3385.125 C907.812044,3384.30468 907.577672,3383.38672 907.577672,3382.37109 L907.577672,3382.01953 C907.577672,3379.16795 909.120625,3374.89065 912.206578,3369.1875 C912.792518,3368.05468 916.34717,3361.14069 922.87064,3348.44531 C928.769107,3336.96088 931.933138,3330.84766 932.362828,3330.10547 C934.511276,3326.55076 937.812024,3321.37503 942.265172,3314.57812 C942.733924,3313.71875 943.476104,3312.74219 944.491734,3311.64844 C945.429239,3310.78906 946.171419,3310.35938 946.718297,3310.35938 Z M937.929234,3336.02344 C939.413617,3334.18749 940.741728,3332.25392 941.913609,3330.22266 C943.007365,3328.23046 943.769076,3326.68751 944.198765,3325.59375 C943.026885,3326.76563 942.167518,3327.80078 941.62064,3328.69922 C941.190951,3329.40235 940.565957,3330.47656 939.74564,3331.92188 C938.651885,3333.40626 938.085484,3334.5 938.046422,3335.20312 C937.968296,3335.47656 937.929234,3335.75 937.929234,3336.02344 Z M944.198765,3331.16016 C942.401881,3333.93361 941.288611,3335.80859 940.858922,3336.78516 C937.851094,3342.25393 934.608939,3347.957 931.132359,3353.89453 C933.74956,3352.76171 938.00733,3351.06251 943.905797,3348.79688 L946.073765,3347.91797 C944.862822,3337.52729 944.257359,3332.01953 944.257359,3331.39453 L944.257359,3331.16016 L944.198765,3331.16016 Z M953.632359,3331.62891 C953.476108,3332.60547 953.397984,3333.46484 953.397984,3334.20703 L953.397984,3335.14453 C953.397984,3336.16016 953.749543,3337.13671 954.452672,3338.07422 C954.647985,3337.17578 954.74564,3336.39453 954.74564,3335.73047 C954.74564,3334.4414 954.394081,3333.07423 953.690953,3331.62891 L953.632359,3331.62891 Z M954.452672,3340.18359 C954.179233,3340.4961 954.042515,3340.84765 954.042515,3341.23828 C954.042515,3341.39453 954.198764,3342.05859 954.511265,3343.23047 C954.667516,3344.01172 954.74564,3344.77343 954.74564,3345.51562 C954.706578,3346.41407 954.687047,3346.98047 954.687047,3347.21484 L954.687047,3347.74219 C954.687047,3348.71875 954.823764,3350.35936 955.097203,3352.66406 L955.097203,3353.36719 L954.921422,3356.00391 L954.921422,3356.17969 C954.921422,3358.3672 955.136263,3360.65233 955.565953,3363.03516 C955.917517,3364.32423 956.444856,3365.39843 957.147984,3366.25781 L957.147984,3366.19922 C956.405793,3362.83983 956.034703,3359.20705 956.034703,3355.30078 C956.034703,3350.06638 955.897986,3346.45313 955.624547,3344.46094 C955.507359,3341.96092 955.370641,3340.71094 955.21439,3340.71094 C954.940952,3340.35937 954.687048,3340.18359 954.452672,3340.18359 Z M927.206578,3355.00781 C927.753456,3354.61719 928.02689,3354.12891 928.02689,3353.54297 L928.02689,3353.42578 C927.480013,3353.9336 927.206578,3354.46093 927.206578,3355.00781 Z M927.08939,3355.125 L927.08939,3355.24219 C927.128453,3355.24219 927.147984,3355.20313 927.147984,3355.125 L927.08939,3355.125 Z M921.230015,3365.90625 C922.753461,3363.83593 924.081572,3361.68751 925.21439,3359.46094 C926.386271,3356.96092 926.972203,3355.63281 926.972203,3355.47656 C925.91751,3356.53126 925.17533,3357.44921 924.74564,3358.23047 C924.276888,3358.9336 923.769081,3359.87109 923.222203,3361.04297 C922.831576,3361.7461 922.3433,3362.5664 921.757359,3363.50391 C921.405795,3364.32422 921.230015,3365.125 921.230015,3365.90625 Z M917.597203,3373.23047 C917.597203,3373.50391 917.636265,3373.8164 917.71439,3374.16797 C919.15971,3372.52734 919.882359,3370.47657 919.882359,3368.01562 C919.179231,3368.95313 918.61283,3369.89062 918.18314,3370.82812 C917.792513,3371.60938 917.597203,3372.41015 917.597203,3373.23047 Z M915.253453,3378.97266 L915.253453,3379.03125 C915.253453,3379.34375 915.272984,3379.61719 915.312047,3379.85156 C916.054238,3379.1875 916.425328,3378.40625 916.425328,3377.50781 C916.425328,3377.19531 916.405797,3376.90235 916.366734,3376.62891 C915.624543,3377.29297 915.253453,3378.07421 915.253453,3378.97266 Z M997.434047,3289.61719 L998.312953,3289.61719 C999.445771,3289.61719 1000.18795,3289.92968 1000.53952,3290.55469 C1000.6567,3290.82813 1000.7153,3291.21875 1000.7153,3291.72656 C1000.7153,3292.07813 1000.69577,3292.50781 1000.6567,3293.01562 C1007.80518,3291.80468 1013.39106,3291.19922 1017.41452,3291.19922 C1024.25049,3291.19922 1029.93402,3292.54686 1034.4653,3295.24219 C1035.55905,3295.98438 1036.41842,3297.56639 1037.04342,3299.98828 C1037.47311,3301.78517 1037.68795,3303.09375 1037.68795,3303.91406 C1037.68795,3304.14844 1037.2778,3304.28516 1036.45748,3304.32422 C1035.24654,3304.32422 1033.29344,3303.81641 1030.59811,3302.80078 C1029.30904,3302.41015 1028.01999,3302.21484 1026.73092,3302.21484 C1025.12935,3302.21484 1022.08251,3302.66406 1017.5903,3303.5625 C1015.36372,3303.95313 1012.4536,3304.36328 1008.85983,3304.79297 C1004.21137,3305.22266 1000.85203,3305.55469 998.781703,3305.78906 C999.094205,3305.78906 999.250453,3305.82812 999.250453,3305.90625 C998.820764,3305.98438 998.605922,3306.04297 998.605922,3306.08203 C996.144972,3318.54303 993.644997,3329.67573 991.105922,3339.48047 C990.324668,3342.91799 989.504364,3346.88279 988.644985,3351.375 C988.566859,3351.375 988.527797,3351.45312 988.527797,3351.60938 C987.55123,3356.53127 986.769988,3361.16013 986.184047,3365.49609 C986.066859,3366.70704 985.852017,3368.42577 985.539516,3370.65234 C984.602011,3377.48832 984.133266,3381.99999 984.133266,3384.1875 L984.133266,3384.83203 C984.133266,3386.66798 984.348107,3391.39449 984.777797,3399.01172 L984.777797,3400.00781 C984.777797,3400.39844 984.738735,3400.59375 984.66061,3400.59375 L983.664516,3400.59375 C983.508265,3400.59375 983.352017,3400.47656 983.195766,3400.24219 C982.883264,3400.04687 982.668423,3399.94922 982.551235,3399.94922 L982.551235,3399.77344 C982.551235,3399.38281 982.805138,3398.83594 983.312953,3398.13281 C983.469204,3397.82031 983.547328,3397.58594 983.547328,3397.42969 L983.547328,3397.19531 C983.547328,3396.88281 983.137176,3396.47266 982.31686,3395.96484 L982.375453,3395.90625 C982.297328,3395.51562 982.258266,3395.10547 982.258266,3394.67578 L982.258266,3394.61719 C982.258266,3394.57812 982.238735,3394.53906 982.199672,3394.5 L982.258266,3394.32422 L982.258266,3394.14844 C982.258266,3393.32812 982.473107,3392.35157 982.902797,3391.21875 L982.902797,3391.04297 C982.902797,3390.88672 982.785611,3390.4961 982.551235,3389.87109 C982.316858,3389.01171 982.199672,3388.03516 982.199672,3386.94141 L982.199672,3386.35547 C982.199672,3384.36327 982.394983,3382.74219 982.78561,3381.49219 C982.863735,3381.29687 983.000452,3381.10156 983.195766,3380.90625 C983.391079,3380.51562 983.488735,3380.14453 983.488735,3379.79297 C983.488735,3379.51953 983.352017,3378.97266 983.078578,3378.15234 C982.922328,3377.52734 982.844203,3377 982.844203,3376.57031 L982.844203,3376.16016 C982.844203,3375.57422 983.019983,3374.63673 983.371547,3373.34766 C983.527798,3372.60547 983.644984,3371.21876 983.72311,3369.1875 C983.918423,3367.5078 984.172327,3365.90626 984.484828,3364.38281 C984.875455,3362.66405 985.402794,3359.6758 986.06686,3355.41797 C986.340298,3353.77734 986.477016,3352.70313 986.477016,3352.19531 C986.477016,3351.92187 986.320767,3351.78516 986.008266,3351.78516 C985.617639,3351.86328 985.422328,3352.03906 985.422328,3352.3125 C985.031701,3353.28907 984.660611,3354.55859 984.309047,3356.12109 C984.113734,3356.82422 983.977016,3357.82031 983.898891,3359.10938 C983.547327,3361.72658 983.039519,3364.85154 982.375453,3368.48438 C981.945764,3370.78907 981.574674,3373.56248 981.262172,3376.80469 C980.519981,3380.78908 980.148891,3384.24608 980.148891,3387.17578 C980.148891,3388.26954 980.207484,3389.24609 980.324672,3390.10547 L980.266078,3390.22266 L980.266078,3393.85547 C980.266078,3395.84767 980.324671,3397.83983 980.44186,3399.83203 L980.324672,3399.83203 C979.934045,3399.71484 979.309051,3399.38282 978.449672,3398.83594 C976.848102,3397.70312 975.832487,3396.55079 975.402797,3395.37891 C974.230916,3392.56639 973.644985,3387.89847 973.644985,3381.375 C973.644985,3375.67185 974.074668,3369.4805 974.934047,3362.80078 C975.402799,3359.71483 976.066855,3356.02346 976.926235,3351.72656 C976.965297,3351.72656 976.984828,3351.60938 976.984828,3351.375 L976.926235,3351.31641 C979.621561,3337.44915 982.824654,3323.17195 986.53561,3308.48438 C979.855889,3310.20313 973.7622,3312.07811 968.25436,3314.10938 C964.152777,3315.59376 961.769988,3316.33594 961.105922,3316.33594 C959.699665,3316.33594 958.508271,3315.73047 957.531703,3314.51953 C956.867638,3313.62109 956.53561,3312.76172 956.53561,3311.94141 C956.457484,3310.92578 955.773897,3309.50001 954.484828,3307.66406 C954.406703,3307.58594 954.367641,3307.48828 954.367641,3307.37109 L954.367641,3307.25391 C954.367641,3306.3164 957.375423,3304.9297 963.391078,3303.09375 C967.141097,3301.88281 970.422314,3300.71094 973.234828,3299.57812 C977.062972,3298.24999 981.906674,3296.92188 987.766078,3295.59375 L987.766078,3295.47656 C987.766078,3294.85156 987.707485,3293.73829 987.590297,3292.13672 C989.504369,3291.39453 991.437944,3290.75 993.391078,3290.20312 C995.1489,3289.8125 996.496542,3289.61719 997.434047,3289.61719 Z M980.91061,3299.63672 C981.887177,3299.48047 982.375453,3299.28516 982.375453,3299.05078 C982.297328,3298.73828 982.160611,3298.58203 981.965297,3298.58203 C981.730921,3298.58203 981.379362,3298.93359 980.91061,3299.63672 Z M960.461391,3307.3125 C960.852018,3307.46875 961.242639,3307.54688 961.633266,3307.54688 C962.375457,3307.54688 963.293417,3307.33203 964.387172,3306.90234 C968.488755,3305.61327 972.102,3304.18751 975.227016,3302.625 C977.062963,3301.76562 978.840288,3300.8086 980.559047,3299.75391 L980.266078,3299.75391 C978.859821,3299.75391 977.414523,3300.14453 975.930141,3300.92578 C975.383263,3301.19922 974.016089,3301.6875 971.828578,3302.39062 C968.859813,3303.40626 965.422348,3304.71484 961.516078,3306.31641 C961.359828,3306.39453 961.008269,3306.72656 960.461391,3307.3125 Z M958.762172,3307.66406 L958.762172,3307.72266 C958.762172,3307.80078 958.859827,3307.83984 959.055141,3307.83984 C959.406705,3307.83984 959.777795,3307.6836 960.168422,3307.37109 C960.168422,3307.33203 959.934049,3307.27344 959.465297,3307.19531 L959.289516,3307.19531 C958.937952,3307.23438 958.762172,3307.39062 958.762172,3307.66406 Z M991.340297,3330.04688 C990.832482,3331.02344 990.578578,3331.9414 990.578578,3332.80078 L990.578578,3333.26953 L990.637172,3333.26953 C991.223113,3332.01953 991.516078,3331.0625 991.516078,3330.39844 L991.516078,3330.28125 C991.516078,3330.20312 991.457485,3330.125 991.340297,3330.04688 Z M990.461391,3333.62109 C989.523886,3335.14454 989.055141,3336.74609 989.055141,3338.42578 L989.055141,3339.07031 L989.113735,3339.07031 C990.051239,3337.66406 990.519985,3335.92579 990.519985,3333.85547 L990.519985,3333.62109 L990.461391,3333.62109 Z M988.293422,3341.53125 C987.941858,3342.23438 987.766078,3342.91797 987.766078,3343.58203 C987.805141,3343.89453 987.824672,3344.12891 987.824672,3344.28516 C988.215299,3343.66015 988.41061,3343.05469 988.41061,3342.46875 L988.41061,3342.11719 C988.41061,3341.96094 988.391079,3341.76563 988.352016,3341.53125 L988.293422,3341.53125 Z M987.297328,3346.04297 C986.672325,3347.25391 986.359828,3348.38671 986.359828,3349.44141 L986.359828,3350.08594 L986.418422,3350.08594 C987.043425,3348.79687 987.355922,3347.52735 987.355922,3346.27734 C987.316859,3346.19922 987.297328,3346.12109 987.297328,3346.04297 Z M1028.81386,3310.35938 C1029.7123,3310.35938 1031.04041,3311.23827 1032.79823,3312.99609 L1033.03261,3312.99609 C1033.97011,3312.99609 1035.16151,3313.83593 1036.60683,3315.51562 C1037.07558,3315.86719 1037.91542,3316.29687 1039.12636,3316.80469 C1039.51699,3317.03906 1039.7123,3317.27344 1039.7123,3317.50781 C1039.55605,3317.97656 1039.41933,3318.40625 1039.30214,3318.79688 C1038.95058,3320.43751 1038.55996,3323.36717 1038.13027,3327.58594 L1038.13027,3327.99609 C1038.13027,3331.70705 1038.87245,3343.60146 1040.35683,3363.67969 C1040.5912,3366.64845 1040.70839,3368.66015 1040.70839,3369.71484 C1040.70839,3371.1211 1040.53261,3371.98047 1040.18105,3372.29297 C1039.90761,3372.41016 1039.7123,3372.46875 1039.59511,3372.46875 L1039.6537,3372.41016 C1038.32557,3372.09765 1037.30996,3371.76563 1036.60683,3371.41406 C1035.78651,3370.90625 1034.34121,3369.98829 1032.27089,3368.66016 C1031.88026,3368.46484 1031.5873,3368.17188 1031.39198,3367.78125 C1031.04042,3367.03906 1030.55214,3366.31641 1029.92714,3365.61328 C1029.9662,3365.37891 1030.20058,3364.75391 1030.63027,3363.73828 L1030.63027,3363.5625 C1030.63027,3363.44531 1030.53261,3363.09375 1030.3373,3362.50781 L1030.3373,3362.39062 L1030.57167,3360.75 C1030.72792,3360.39844 1030.80605,3360.02735 1030.80605,3359.63672 C1030.80605,3359.24609 1030.6498,3358.75782 1030.3373,3358.17188 C1030.18105,3357.85937 1030.10292,3357.58594 1030.10292,3357.35156 L1030.3373,3356.82422 L1030.3373,3356.76562 C1030.29823,3356.6875 1030.22011,3356.375 1030.10292,3355.82812 C1029.98573,3355.78906 1029.88808,3355.76953 1029.80995,3355.76953 C1028.98964,3355.76953 1026.25529,3356.94139 1021.60683,3359.28516 C1017.38806,3361.4336 1013.79434,3363.09374 1010.82558,3364.26562 C1009.38026,3364.8125 1008.26699,3365.08594 1007.48573,3365.08594 L1006.66542,3365.08594 C1006.39198,3365.51563 1005.49356,3367.07811 1003.97011,3369.77344 C1002.7201,3372.07814 1001.52871,3374.48046 1000.39589,3376.98047 C999.614637,3378.77735 998.891988,3380.88671 998.227922,3383.30859 C998.071672,3384.2461 997.993547,3385.20312 997.993547,3386.17969 C997.993547,3386.45313 998.03261,3387.35155 998.110735,3388.875 C998.110735,3389.07031 998.032611,3389.1875 997.87636,3389.22656 C997.681046,3389.22656 996.899804,3388.97266 995.53261,3388.46484 C994.751356,3388.11328 993.540431,3387.33204 991.899797,3386.12109 L990.37636,3385.125 C989.907608,3384.30468 989.673235,3383.38672 989.673235,3382.37109 L989.673235,3382.01953 C989.673235,3379.16795 991.216188,3374.89065 994.302141,3369.1875 C994.888082,3368.05468 998.442734,3361.14069 1004.9662,3348.44531 C1010.86467,3336.96088 1014.0287,3330.84766 1014.45839,3330.10547 C1016.60684,3326.55076 1019.90759,3321.37503 1024.36073,3314.57812 C1024.82949,3313.71875 1025.57167,3312.74219 1026.5873,3311.64844 C1027.5248,3310.78906 1028.26698,3310.35938 1028.81386,3310.35938 Z M1020.0248,3336.02344 C1021.50918,3334.18749 1022.83729,3332.25392 1024.00917,3330.22266 C1025.10293,3328.23046 1025.86464,3326.68751 1026.29433,3325.59375 C1025.12245,3326.76563 1024.26308,3327.80078 1023.7162,3328.69922 C1023.28651,3329.40235 1022.66152,3330.47656 1021.8412,3331.92188 C1020.74745,3333.40626 1020.18105,3334.5 1020.14198,3335.20312 C1020.06386,3335.47656 1020.0248,3335.75 1020.0248,3336.02344 Z M1026.29433,3331.16016 C1024.49744,3333.93361 1023.38417,3335.80859 1022.95448,3336.78516 C1019.94666,3342.25393 1016.7045,3347.957 1013.22792,3353.89453 C1015.84512,3352.76171 1020.10289,3351.06251 1026.00136,3348.79688 L1028.16933,3347.91797 C1026.95839,3337.52729 1026.35292,3332.01953 1026.35292,3331.39453 L1026.35292,3331.16016 L1026.29433,3331.16016 Z M1035.72792,3331.62891 C1035.57167,3332.60547 1035.49355,3333.46484 1035.49355,3334.20703 L1035.49355,3335.14453 C1035.49355,3336.16016 1035.84511,3337.13671 1036.54823,3338.07422 C1036.74355,3337.17578 1036.8412,3336.39453 1036.8412,3335.73047 C1036.8412,3334.4414 1036.48964,3333.07423 1035.78652,3331.62891 L1035.72792,3331.62891 Z M1036.54823,3340.18359 C1036.2748,3340.4961 1036.13808,3340.84765 1036.13808,3341.23828 C1036.13808,3341.39453 1036.29433,3342.05859 1036.60683,3343.23047 C1036.76308,3344.01172 1036.8412,3344.77343 1036.8412,3345.51562 C1036.80214,3346.41407 1036.78261,3346.98047 1036.78261,3347.21484 L1036.78261,3347.74219 C1036.78261,3348.71875 1036.91933,3350.35936 1037.19277,3352.66406 L1037.19277,3353.36719 L1037.01698,3356.00391 L1037.01698,3356.17969 C1037.01698,3358.3672 1037.23183,3360.65233 1037.66152,3363.03516 C1038.01308,3364.32423 1038.54042,3365.39843 1039.24355,3366.25781 L1039.24355,3366.19922 C1038.50136,3362.83983 1038.13027,3359.20705 1038.13027,3355.30078 C1038.13027,3350.06638 1037.99355,3346.45313 1037.72011,3344.46094 C1037.60292,3341.96092 1037.4662,3340.71094 1037.30995,3340.71094 C1037.03651,3340.35937 1036.78261,3340.18359 1036.54823,3340.18359 Z M1009.30214,3355.00781 C1009.84902,3354.61719 1010.12245,3354.12891 1010.12245,3353.54297 L1010.12245,3353.42578 C1009.57558,3353.9336 1009.30214,3354.46093 1009.30214,3355.00781 Z M1009.18495,3355.125 L1009.18495,3355.24219 C1009.22402,3355.24219 1009.24355,3355.20313 1009.24355,3355.125 L1009.18495,3355.125 Z M1003.32558,3365.90625 C1004.84902,3363.83593 1006.17714,3361.68751 1007.30995,3359.46094 C1008.48183,3356.96092 1009.06777,3355.63281 1009.06777,3355.47656 C1008.01307,3356.53126 1007.27089,3357.44921 1006.8412,3358.23047 C1006.37245,3358.9336 1005.86464,3359.87109 1005.31777,3361.04297 C1004.92714,3361.7461 1004.43886,3362.5664 1003.85292,3363.50391 C1003.50136,3364.32422 1003.32558,3365.125 1003.32558,3365.90625 Z M999.692766,3373.23047 C999.692766,3373.50391 999.731828,3373.8164 999.809954,3374.16797 C1001.25527,3372.52734 1001.97792,3370.47657 1001.97792,3368.01562 C1001.27479,3368.95313 1000.70839,3369.89062 1000.2787,3370.82812 C999.888077,3371.60938 999.692766,3372.41015 999.692766,3373.23047 Z M997.349016,3378.97266 L997.349016,3379.03125 C997.349016,3379.34375 997.368547,3379.61719 997.40761,3379.85156 C998.149801,3379.1875 998.520891,3378.40625 998.520891,3377.50781 C998.520891,3377.19531 998.50136,3376.90235 998.462297,3376.62891 C997.720106,3377.29297 997.349016,3378.07421 997.349016,3378.97266 Z M1071.44367,3296.00391 C1074.56869,3296.00391 1079.19755,3297.23436 1085.33039,3299.69531 C1086.5804,3300.24219 1087.84992,3301.0039 1089.13899,3301.98047 C1089.80305,3302.48828 1090.72101,3303.34765 1091.89289,3304.55859 C1092.63508,3305.37891 1093.06477,3305.86719 1093.18195,3306.02344 C1093.41633,3306.80469 1093.63117,3308.01562 1093.82649,3309.65625 C1094.17805,3310.16407 1094.35383,3310.59375 1094.35383,3310.94531 C1093.80695,3310.28125 1093.49445,3309.94922 1093.41633,3309.94922 L1093.24055,3309.94922 C1093.12336,3309.98828 1093.06477,3310.02734 1093.06477,3310.06641 C1093.06477,3310.14453 1093.0843,3310.18359 1093.12336,3310.18359 L1093.06477,3310.47656 L1093.06477,3310.82812 C1093.18195,3312.15626 1093.24055,3313.05469 1093.24055,3313.52344 L1093.24055,3313.99219 C1093.24055,3315.8672 1092.90852,3317.99608 1092.24445,3320.37891 C1091.69758,3321.94141 1091.03352,3323.28906 1090.25227,3324.42188 C1089.66633,3325.55469 1089.35383,3326.51171 1089.31477,3327.29297 C1090.52571,3325.96484 1091.2093,3325.08594 1091.36555,3324.65625 C1091.63899,3324.07031 1092.14679,3323.05469 1092.88899,3321.60938 C1093.20149,3320.78906 1093.49445,3319.81251 1093.76789,3318.67969 C1094.08039,3318.28906 1094.37336,3316.94142 1094.6468,3314.63672 C1094.72492,3314.05078 1094.88117,3313.34766 1095.11555,3312.52734 L1095.11555,3312.41016 C1095.93586,3313.11328 1096.34602,3314.26562 1096.34602,3315.86719 L1096.34602,3315.98438 C1096.34602,3317.42969 1096.07258,3319.20702 1095.5257,3321.31641 C1094.43195,3324.59767 1091.81479,3329.32419 1087.67414,3335.49609 C1086.22882,3337.64454 1084.72493,3339.63671 1083.16242,3341.47266 C1082.38117,3342.25391 1081.93195,3342.64453 1081.81477,3342.64453 C1081.69758,3342.64453 1081.63899,3342.68359 1081.63899,3342.76172 C1081.75617,3342.95703 1081.85383,3343.26953 1081.93195,3343.69922 C1082.59602,3344.12891 1082.96711,3344.38281 1083.04524,3344.46094 L1084.09992,3345.86719 C1085.19368,3346.88282 1085.74055,3347.48828 1085.74055,3347.68359 C1085.74055,3348.19141 1085.8382,3348.5625 1086.03352,3348.79688 C1086.69758,3349.61719 1087.81085,3351.31639 1089.37336,3353.89453 C1090.23274,3354.8711 1090.66242,3355.57422 1090.66242,3356.00391 C1090.85774,3356.82422 1091.07258,3357.39062 1091.30695,3357.70312 C1091.69758,3358.17188 1092.18586,3358.48437 1092.7718,3358.64062 C1093.04524,3359.61719 1093.18195,3360.71093 1093.18195,3361.92188 L1093.18195,3362.44922 C1093.18195,3366.27736 1092.01009,3370.41795 1089.66633,3374.87109 C1088.80695,3376.47266 1087.69368,3378.1328 1086.32649,3379.85156 C1084.56866,3381.96095 1082.71321,3383.79687 1080.76008,3385.35938 C1077.40069,3388.01564 1074.64681,3389.94921 1072.49836,3391.16016 C1069.68585,3392.87891 1066.9515,3394.34374 1064.29524,3395.55469 C1061.56085,3396.80469 1058.94369,3397.70312 1056.44367,3398.25 C1055.07648,3398.5625 1054.21711,3398.71875 1053.86555,3398.71875 C1053.24054,3397.89843 1052.83039,3397.17578 1052.63508,3396.55078 C1052.59602,3396.47266 1052.57649,3396.41406 1052.57649,3396.375 C1052.30305,3396.57031 1051.87336,3396.96093 1051.28742,3397.54688 C1050.93586,3397.78125 1050.48664,3398.25 1049.93977,3398.95312 L1049.70539,3398.95312 C1047.79132,3398.95312 1045.89681,3398.48438 1044.0218,3397.54688 C1043.31867,3397.15625 1042.65461,3396.60938 1042.02961,3395.90625 C1041.13117,3394.92968 1040.46711,3393.56251 1040.03742,3391.80469 C1039.99836,3391.76562 1039.92024,3391.53125 1039.80305,3391.10156 C1040.11555,3390.39843 1040.42805,3389.65625 1040.74055,3388.875 L1041.32649,3388.11328 C1041.32649,3388.03516 1041.38508,3387.9375 1041.50227,3387.82031 L1041.50227,3387.58594 L1041.44367,3387.52734 L1041.50227,3387.46875 C1042.24446,3387.82031 1043.14289,3388.09375 1044.19758,3388.28906 C1045.13508,3388.44531 1045.77961,3388.52344 1046.13117,3388.52344 C1048.00618,3388.52344 1051.44365,3387.48829 1056.44367,3385.41797 C1060.89682,3383.42577 1064.70538,3381.41407 1067.86945,3379.38281 C1069.23665,3378.5625 1070.58429,3377.56641 1071.91242,3376.39453 C1073.35774,3374.87109 1074.54914,3373.42579 1075.48664,3372.05859 C1078.84603,3367.21482 1080.5257,3362.99611 1080.5257,3359.40234 C1080.5257,3355.92576 1078.8851,3353.26954 1075.60383,3351.43359 C1075.40852,3351.31641 1075.31086,3351.23828 1075.31086,3351.19922 L1075.36945,3350.73047 C1074.39289,3350.26172 1073.7093,3350.02734 1073.31867,3350.02734 L1073.14289,3350.02734 C1072.86945,3350.02734 1072.49836,3350.10547 1072.02961,3350.26172 C1071.99055,3350.22266 1071.91242,3349.98828 1071.79524,3349.55859 L1071.97102,3349.55859 C1072.0882,3349.44141 1072.1468,3349.32422 1072.1468,3349.20703 L1072.1468,3349.14844 C1072.1468,3348.99219 1072.0882,3348.875 1071.97102,3348.79688 C1071.7757,3348.79688 1071.67805,3348.93359 1071.67805,3349.20703 L1071.67805,3349.38281 L1070.03742,3349.38281 C1069.76398,3349.30469 1069.5882,3349.24609 1069.51008,3349.20703 C1069.47102,3349.20703 1069.27571,3349.30469 1068.92414,3349.5 C1068.14289,3349.57813 1066.97102,3350.04687 1065.40852,3350.90625 C1064.00226,3351.6875 1063.16242,3352.07812 1062.88899,3352.07812 C1062.69367,3352.03906 1062.57649,3352.01953 1062.53742,3352.01953 C1062.22492,3352.29297 1061.63899,3352.54687 1060.77961,3352.78125 C1060.34992,3352.97656 1059.72493,3353.17187 1058.90461,3353.36719 C1058.90461,3353.32812 1058.92414,3353.25 1058.9632,3353.13281 C1058.84602,3353.13281 1058.29915,3353.34765 1057.32258,3353.77734 C1056.97101,3353.77734 1056.79524,3353.875 1056.79524,3354.07031 C1055.1546,3359.34378 1053.94368,3363.48436 1053.16242,3366.49219 C1052.65461,3368.48438 1052.4007,3370.04687 1052.4007,3371.17969 C1052.4007,3371.53125 1052.4593,3372.01953 1052.57649,3372.64453 L1052.57649,3372.87891 C1052.57649,3373.89454 1051.24837,3374.98828 1048.59211,3376.16016 C1047.61554,3376.66797 1047.12727,3377 1047.12727,3377.15625 C1046.34601,3377.50781 1045.87727,3377.70312 1045.72102,3377.74219 C1045.2132,3377.23437 1044.84211,3376.1797 1044.60774,3374.57812 C1044.45148,3373.36718 1044.37336,3372.03907 1044.37336,3370.59375 L1044.37336,3364.26562 C1044.37336,3361.96093 1044.86164,3357.44925 1045.8382,3350.73047 C1046.26789,3347.99608 1046.73664,3345.82813 1047.24445,3344.22656 C1048.1429,3343.21093 1048.7093,3342.46875 1048.94367,3342 C1048.94367,3342.03906 1049.13898,3342.2539 1049.52961,3342.64453 C1050.07649,3343.38672 1050.44758,3344.05078 1050.64289,3344.63672 C1050.79914,3345.30078 1050.97492,3345.63281 1051.17024,3345.63281 C1051.32649,3345.75 1051.58039,3345.80859 1051.93195,3345.80859 C1052.16633,3345.80859 1052.28352,3345.41797 1052.28352,3344.63672 C1052.43977,3343.5039 1052.63508,3341.39455 1052.86945,3338.30859 C1052.79133,3337.48828 1052.65461,3337.07812 1052.4593,3337.07812 C1052.34211,3337 1052.22492,3336.96094 1052.10774,3336.96094 C1051.79523,3337 1051.48274,3337.39062 1051.17024,3338.13281 L1050.93586,3339.48047 C1050.81867,3340.06641 1050.52571,3340.61328 1050.05695,3341.12109 C1049.78352,3341.35547 1049.43196,3341.64844 1049.00227,3342 L1048.94367,3342 L1049.00227,3341.70703 C1049.00227,3341.47266 1048.7093,3341.16016 1048.12336,3340.76953 C1052.02963,3325.61321 1054.06086,3317.6836 1054.21711,3316.98047 C1054.76399,3313.30858 1055.29133,3310.82813 1055.79914,3309.53906 C1056.18977,3308.75781 1056.58039,3308.07422 1056.97102,3307.48828 C1058.1429,3305.76952 1059.64679,3303.83595 1061.48274,3301.6875 C1062.34211,3300.78906 1062.88898,3300.10547 1063.12336,3299.63672 C1063.35774,3299.20703 1063.78742,3298.75781 1064.41242,3298.28906 L1064.47102,3298.28906 L1064.47102,3298.46484 L1064.41242,3298.69922 C1065.23274,3297.80078 1065.74055,3297.33203 1065.93586,3297.29297 C1066.13117,3297.05859 1066.73664,3296.80469 1067.75227,3296.53125 C1069.27571,3296.17969 1070.50617,3296.00391 1071.44367,3296.00391 Z M1063.88508,3325.94531 L1064.17805,3325.71094 L1064.23664,3325.71094 C1064.31477,3326.33594 1064.35383,3326.72656 1064.35383,3326.88281 C1064.35383,3327 1064.23664,3327.50781 1064.00227,3328.40625 C1064.00227,3328.5625 1063.94367,3328.875 1063.82649,3329.34375 L1063.82649,3329.46094 C1063.82649,3329.61719 1063.86555,3329.8125 1063.94367,3330.04688 C1063.74836,3331.17969 1063.51399,3331.86328 1063.24055,3332.09766 C1063.12336,3332.33203 1062.94758,3332.625 1062.7132,3332.97656 C1062.7132,3333.21094 1062.63508,3333.85546 1062.47883,3334.91016 C1062.47883,3336.4336 1062.30305,3337.37109 1061.95149,3337.72266 C1061.95149,3337.91797 1061.5218,3338.48437 1060.66242,3339.42188 C1064.41244,3338.67968 1067.28351,3337.89844 1069.2757,3337.07812 C1071.07259,3336.33593 1072.30304,3335.63282 1072.96711,3334.96875 C1074.13899,3333.95312 1075.03742,3333.03516 1075.66242,3332.21484 C1077.61556,3329.75389 1079.45148,3327.00002 1081.17024,3323.95312 C1082.92806,3320.9453 1084.17804,3318.89454 1084.92024,3317.80078 C1085.23274,3317.41015 1085.50617,3317.11719 1085.74055,3316.92188 C1085.77961,3316.57031 1085.79914,3316.23828 1085.79914,3315.92578 L1085.79914,3315.39844 C1085.79914,3313.60155 1085.17415,3311.7461 1083.92414,3309.83203 C1083.68977,3309.40234 1082.98665,3308.64063 1081.81477,3307.54688 C1080.48663,3306.37499 1078.92415,3305.20313 1077.12727,3304.03125 L1076.95149,3304.03125 C1076.09211,3304.03125 1075.19368,3303.83594 1074.25617,3303.44531 L1073.9632,3303.44531 C1073.14289,3303.44531 1072.12727,3303.89453 1070.91633,3304.79297 C1070.91633,3305.06641 1070.85774,3305.24219 1070.74055,3305.32031 C1070.5843,3305.39844 1070.36946,3305.88671 1070.09602,3306.78516 C1070.01789,3306.98047 1069.70539,3307.33203 1069.15852,3307.83984 C1068.49445,3308.69922 1067.90852,3309.69531 1067.4007,3310.82812 C1066.89289,3311.96094 1066.63899,3312.70312 1066.63899,3313.05469 C1066.63899,3313.95313 1065.72103,3318.24996 1063.88508,3325.94531 Z M1064.06086,3315.63281 L1064.17805,3316.74609 C1064.88118,3316.0039 1065.23274,3315.20313 1065.23274,3314.34375 L1064.93977,3314.10938 C1064.54914,3314.10938 1064.2757,3314.40234 1064.11945,3314.98828 C1064.08039,3315.14453 1064.06086,3315.35937 1064.06086,3315.63281 Z M1063.35774,3320.4375 C1062.65461,3321.33594 1062.22492,3322.05859 1062.06867,3322.60547 C1061.36554,3324.2461 1061.01399,3325.6914 1061.01399,3326.94141 C1061.05305,3327.21485 1061.07258,3327.42969 1061.07258,3327.58594 L1061.07258,3327.70312 C1062.63509,3325.35936 1063.41633,3322.93751 1063.41633,3320.4375 L1063.35774,3320.4375 Z M1064.29524,3325.41797 C1064.3343,3325.41797 1064.35383,3325.4375 1064.35383,3325.47656 C1064.31477,3325.55469 1064.2757,3325.61328 1064.23664,3325.65234 L1064.17805,3325.65234 C1064.21711,3325.49609 1064.25617,3325.41797 1064.29524,3325.41797 Z M1084.92024,3334.73438 L1084.92024,3334.79297 C1084.56867,3335.06641 1084.27571,3335.32031 1084.04133,3335.55469 C1083.72883,3336.02344 1083.57258,3336.31641 1083.57258,3336.43359 C1083.57258,3336.55078 1083.67023,3336.6875 1083.86555,3336.84375 C1084.21711,3336.84375 1084.49055,3336.62891 1084.68586,3336.19922 C1084.84211,3335.96484 1085.03742,3335.55469 1085.2718,3334.96875 C1085.66242,3334.8125 1086.1507,3334.30469 1086.73664,3333.44531 C1088.18196,3331.29686 1089.00227,3329.96875 1089.19758,3329.46094 C1089.43196,3328.875 1089.76398,3328.17188 1090.19367,3327.35156 C1089.37336,3327.82031 1088.72883,3328.58203 1088.26008,3329.63672 C1087.7132,3330.4961 1087.04915,3331.35546 1086.26789,3332.21484 C1085.36945,3332.9961 1084.92024,3333.83593 1084.92024,3334.73438 Z M1059.78352,3331.6875 C1059.66633,3332 1059.45149,3332.5664 1059.13899,3333.38672 C1058.94367,3334.16797 1058.84602,3334.85156 1058.84602,3335.4375 C1058.84602,3335.90625 1058.88508,3336.375 1058.9632,3336.84375 C1059.7054,3335.74999 1060.07649,3334.59766 1060.07649,3333.38672 C1060.07649,3332.99609 1059.97883,3332.42969 1059.78352,3331.6875 Z M1081.69758,3338.42578 C1081.69758,3338.58203 1081.75617,3338.69922 1081.87336,3338.77734 L1081.99055,3338.77734 C1082.10774,3338.69922 1082.16633,3338.5625 1082.16633,3338.36719 C1082.12727,3338.13281 1082.06867,3338.01562 1081.99055,3338.01562 C1081.79523,3338.05469 1081.69758,3338.19141 1081.69758,3338.42578 Z M1057.1468,3340.06641 C1057.1468,3340.37891 1057.28352,3340.57422 1057.55695,3340.65234 L1057.61555,3340.65234 C1057.84992,3340.49609 1057.96711,3340.26172 1057.96711,3339.94922 C1057.96711,3339.71484 1057.88899,3339.51953 1057.73274,3339.36328 L1057.67414,3339.36328 C1057.32258,3339.36328 1057.1468,3339.59765 1057.1468,3340.06641 Z M1079.76399,3342.58594 C1079.76399,3342.70313 1079.82258,3342.80078 1079.93977,3342.87891 L1080.11555,3342.87891 C1080.19367,3342.72266 1080.23274,3342.625 1080.23274,3342.58594 C1080.23274,3342.42969 1080.19367,3342.27344 1080.11555,3342.11719 L1080.05695,3342.11719 C1079.86164,3342.11719 1079.76399,3342.27344 1079.76399,3342.58594 Z M1056.97102,3343.52344 C1056.69758,3344.38282 1056.56086,3345.14453 1056.56086,3345.80859 C1056.56086,3346.08203 1056.59992,3346.53125 1056.67805,3347.15625 C1056.8343,3346.96094 1056.99055,3346.55078 1057.1468,3345.92578 C1057.22492,3345.61328 1057.28352,3345.10547 1057.32258,3344.40234 C1057.32258,3344.05078 1057.22492,3343.77734 1057.02961,3343.58203 L1057.02961,3343.52344 L1056.97102,3343.52344 Z M1055.44758,3348.26953 C1054.70539,3349.94923 1054.00227,3351.84374 1053.3382,3353.95312 C1052.86945,3355.59376 1052.40071,3357.64452 1051.93195,3360.10547 C1051.73664,3360.18359 1051.59992,3360.3789 1051.5218,3360.69141 C1051.05305,3362.13673 1050.81867,3363.66015 1050.81867,3365.26172 L1050.81867,3365.4375 C1050.81867,3366.0625 1050.85773,3366.58984 1050.93586,3367.01953 C1052.10774,3363.46483 1053.06476,3360.2422 1053.80695,3357.35156 C1054.39289,3354.96874 1054.93976,3351.94142 1055.44758,3348.26953 Z M1090.60383,3365.61328 C1089.74445,3367.91798 1088.61165,3370.14452 1087.20539,3372.29297 C1086.1507,3373.85548 1084.43197,3376.04295 1082.04914,3378.85547 C1080.91632,3380.10547 1079.62727,3381.51171 1078.18195,3383.07422 C1077.36164,3383.97266 1076.61946,3384.83203 1075.95539,3385.65234 L1076.01399,3385.65234 C1079.06088,3384.55859 1082.43975,3381.43362 1086.1507,3376.27734 C1087.32258,3374.51952 1088.20148,3373.03516 1088.78742,3371.82422 C1089.99837,3369.36327 1090.60383,3367.31251 1090.60383,3365.67188 L1090.60383,3365.61328 Z M1078.76789,3378.79688 C1079.39289,3378.48437 1079.80305,3378.21094 1079.99836,3377.97656 C1080.15461,3377.82031 1080.29133,3377.625 1080.40852,3377.39062 C1080.40852,3377.11719 1080.2718,3376.98047 1079.99836,3376.98047 C1079.45148,3377.25391 1079.04133,3377.83984 1078.76789,3378.73828 L1078.76789,3378.79688 Z M1074.31477,3383.89453 C1075.68196,3383.1914 1076.97101,3381.84376 1078.18195,3379.85156 C1078.3382,3379.5 1078.45539,3379.20703 1078.53352,3378.97266 C1078.0257,3379.28516 1077.32258,3379.89062 1076.42414,3380.78906 C1075.40851,3381.88282 1074.70539,3382.91796 1074.31477,3383.89453 Z M1070.79914,3387 C1071.54133,3386.72656 1072.26398,3386.23828 1072.96711,3385.53516 C1073.27961,3385.26172 1073.59211,3384.8711 1073.90461,3384.36328 L1074.08039,3384.1875 L1074.08039,3384.12891 C1072.86945,3384.51953 1071.91243,3385.22265 1071.2093,3386.23828 C1070.93586,3386.70703 1070.79914,3386.96094 1070.79914,3387 Z M1073.9632,3386.88281 L1073.9632,3387.05859 C1074.00227,3387.3711 1074.11945,3387.52734 1074.31477,3387.52734 L1074.37336,3387.52734 C1074.72492,3387.21484 1075.01789,3386.88281 1075.25227,3386.53125 L1075.25227,3386.29688 C1075.13508,3386.17969 1074.97883,3386.12109 1074.78352,3386.12109 C1074.23664,3386.4336 1073.9632,3386.6875 1073.9632,3386.88281 Z M1052.63508,3396.31641 L1052.63508,3396.375 L1052.81086,3396.375 C1056.24838,3396.375 1062.51785,3394.07034 1071.61945,3389.46094 C1072.40071,3389.14844 1072.79133,3388.66016 1072.79133,3387.99609 C1069.86163,3388.97266 1066.65853,3390.20312 1063.18195,3391.6875 C1061.18976,3392.625 1058.5726,3393.66015 1055.33039,3394.79297 C1054.51008,3395.10547 1053.63118,3395.61328 1052.69367,3396.31641 C1052.65461,3396.31641 1052.63508,3396.31641 1052.63508,3396.31641 Z M1120.5188,3298.875 L1121.22192,3298.875 C1123.99537,3298.875 1125.98754,3300.43748 1127.19849,3303.5625 C1127.82349,3305.39845 1128.13599,3307.54686 1128.13599,3310.00781 L1128.13599,3310.53516 C1128.13599,3317.99613 1125.59695,3330.33976 1120.5188,3347.56641 C1117.31566,3358.58209 1115.71411,3364.36328 1115.71411,3364.91016 C1115.5188,3365.57422 1115.30396,3366.53124 1115.06958,3367.78125 L1115.12817,3367.78125 C1117.55006,3366.76562 1120.6555,3365.78907 1124.44458,3364.85156 C1126.63209,3364.38281 1129.36644,3363.875 1132.6477,3363.32812 C1140.929,3361.5703 1146.12426,3360.4961 1148.23364,3360.10547 C1150.30396,3359.71484 1151.88598,3359.51953 1152.97974,3359.51953 C1154.34693,3359.59766 1155.22583,3359.67578 1155.61645,3359.75391 C1157.1399,3360.10547 1157.90161,3360.84765 1157.90161,3361.98047 C1157.90161,3363.07422 1157.00318,3364.48046 1155.2063,3366.19922 C1154.42504,3367.09766 1153.87817,3367.83984 1153.56567,3368.42578 L1151.92505,3368.42578 C1149.85473,3368.42578 1147.99928,3368.91406 1146.35864,3369.89062 L1146.35864,3369.94922 C1147.02271,3370.06641 1147.76489,3370.125 1148.5852,3370.125 L1149.46411,3370.125 C1150.47974,3370.125 1151.74926,3370.00781 1153.2727,3369.77344 L1153.2727,3369.94922 C1153.11645,3370.26172 1152.43287,3370.61328 1151.22192,3371.00391 C1148.64379,3371.70703 1143.83915,3372.78124 1136.80786,3374.22656 C1128.80001,3376.06251 1122.58913,3377.95702 1118.17505,3379.91016 L1114.24927,3381.375 C1114.28833,3381.6875 1114.30786,3382 1114.30786,3382.3125 L1114.30786,3382.78125 C1114.30786,3384.3047 1113.72193,3385.49609 1112.55005,3386.35547 C1112.19848,3386.55078 1111.84693,3386.64844 1111.49536,3386.64844 C1110.79223,3386.64844 1109.48365,3385.8086 1107.56958,3384.12891 C1107.49145,3384.05078 1107.43286,3384.01172 1107.3938,3384.01172 C1104.7766,3384.51953 1102.56959,3385.43749 1100.7727,3386.76562 C1099.44457,3387.85938 1098.50708,3388.83593 1097.9602,3389.69531 C1097.41333,3390.39844 1096.80786,3391.39452 1096.1438,3392.68359 L1095.96802,3392.80078 C1095.61645,3392.72266 1095.38208,3390.49612 1095.26489,3386.12109 L1095.26489,3385.47656 C1095.26489,3382.78124 1095.5188,3381.14063 1096.02661,3380.55469 C1097.00318,3378.71874 1098.38988,3377.44922 1100.18677,3376.74609 C1101.00708,3376.43359 1101.82739,3376.27734 1102.6477,3376.27734 L1102.88208,3376.27734 L1102.88208,3376.04297 C1102.88208,3375.18359 1103.11645,3374.38282 1103.5852,3373.64062 C1103.81958,3372.97656 1103.93677,3372.56641 1103.93677,3372.41016 C1103.93677,3372.29297 1103.85864,3372.23438 1103.70239,3372.23438 C1103.62427,3372.42969 1103.48755,3372.52734 1103.29224,3372.52734 L1103.23364,3372.52734 C1103.11645,3372.52734 1103.0188,3371.94141 1102.94067,3370.76953 C1102.90161,3370.76953 1102.80396,3370.14454 1102.6477,3368.89453 C1103.42896,3368.62109 1103.81958,3368.03516 1103.81958,3367.13672 L1103.81958,3366.02344 C1103.81958,3358.87496 1105.53831,3349.98833 1108.97583,3339.36328 C1111.5149,3331.5898 1113.40942,3325.30081 1114.65942,3320.49609 C1115.12818,3318.8164 1115.49927,3317.09767 1115.7727,3315.33984 C1116.39771,3310.57419 1116.7102,3307.1172 1116.7102,3304.96875 L1116.7102,3304.32422 C1116.7102,3303.07421 1116.1438,3302 1115.01099,3301.10156 C1114.54223,3300.71094 1114.30786,3300.45703 1114.30786,3300.33984 C1114.30786,3299.98828 1116.06566,3299.51953 1119.5813,3298.93359 C1119.81567,3298.89453 1120.12817,3298.875 1120.5188,3298.875 Z M1169.38599,3301.98047 C1173.17507,3301.98047 1175.7141,3302.13672 1177.00317,3302.44922 C1178.56568,3302.95703 1180.0891,3303.87499 1181.57349,3305.20312 C1182.66724,3306.17969 1183.21411,3307.13671 1183.21411,3308.07422 L1183.21411,3308.25 C1183.21411,3309.14844 1182.84302,3310.0664 1182.10083,3311.00391 C1180.65551,3311.51172 1179.09303,3311.76562 1177.41333,3311.76562 C1176.43676,3311.80469 1173.95632,3312.37109 1169.97192,3313.46484 C1166.88597,3314.32422 1164.42506,3314.75391 1162.58911,3314.75391 L1162.53052,3314.75391 C1162.88208,3315.02735 1163.05786,3315.18359 1163.05786,3315.22266 L1163.05786,3315.28125 L1155.85083,3316.04297 C1154.91332,3316.19922 1153.89771,3316.39453 1152.80395,3316.62891 C1152.80395,3316.66797 1153.78051,3317.09765 1155.73364,3317.91797 C1159.56179,3319.83204 1162.25707,3321.14062 1163.81958,3321.84375 C1166.04615,3322.70313 1167.3938,3323.13281 1167.86255,3323.13281 C1169.30787,3323.5625 1170.03052,3323.89453 1170.03052,3324.12891 C1170.14771,3324.28516 1170.22583,3324.89062 1170.26489,3325.94531 C1170.77271,3327.35157 1171.02661,3328.48437 1171.02661,3329.34375 L1171.02661,3329.92969 C1171.02661,3330.24219 1170.90942,3330.4375 1170.67505,3330.51562 C1169.42504,3331.21875 1167.94068,3331.88281 1166.22192,3332.50781 C1164.42504,3333.17188 1163.15552,3333.50391 1162.41333,3333.50391 C1159.13206,3334.01172 1156.28053,3334.61718 1153.85864,3335.32031 L1143.83911,3338.66016 L1143.83911,3338.71875 C1143.87817,3338.71875 1144.13208,3338.91406 1144.60083,3339.30469 C1142.99926,3340.47657 1142.19849,3341.29687 1142.19849,3341.76562 C1141.22192,3343.56251 1140.69458,3344.48047 1140.61645,3344.51953 L1139.91333,3344.51953 C1139.75708,3345.33985 1139.67895,3346.02343 1139.67895,3346.57031 C1139.67895,3347.39063 1140.12817,3348.34765 1141.02661,3349.44141 L1141.02661,3349.08984 C1141.02661,3348.77734 1140.96802,3348.26953 1140.85083,3347.56641 C1140.85083,3346.9414 1141.28051,3345.61329 1142.13989,3343.58203 C1142.13989,3343.23047 1142.31567,3342.99609 1142.66724,3342.87891 C1142.86255,3342.52734 1143.37036,3341.92188 1144.19067,3341.0625 C1144.2688,3340.86719 1144.38598,3340.53516 1144.54224,3340.06641 C1144.69849,3339.87109 1144.8938,3339.77344 1145.12817,3339.77344 C1145.79224,3339.89063 1146.12427,3340.18359 1146.12427,3340.65234 L1146.12427,3340.82812 C1146.12427,3341.02344 1145.81177,3341.76562 1145.18677,3343.05469 C1145.18677,3343.28906 1144.65943,3344.73436 1143.60474,3347.39062 C1143.37036,3348.21094 1143.25317,3348.89453 1143.25317,3349.44141 C1143.29224,3349.91016 1143.3313,3350.20312 1143.37036,3350.32031 C1144.38599,3350.32031 1147.27659,3349.42188 1152.04224,3347.625 C1159.11258,3344.96874 1164.50315,3342.66407 1168.21411,3340.71094 C1169.77662,3339.73437 1171.43676,3338.9336 1173.19458,3338.30859 C1174.6399,3337.8789 1175.7727,3337.66406 1176.59302,3337.66406 C1177.60865,3337.74219 1178.11645,3337.95703 1178.11645,3338.30859 L1178.11645,3338.54297 C1178.11645,3338.69922 1177.90161,3339.46093 1177.47192,3340.82812 L1177.41333,3341.17969 C1177.45239,3341.25781 1177.47192,3341.33594 1177.47192,3341.41406 C1175.7141,3342.27344 1174.13209,3343.23046 1172.72583,3344.28516 L1172.49145,3344.51953 L1172.55005,3344.51953 C1173.29224,3344.44141 1174.26879,3343.99219 1175.47974,3343.17188 C1176.30005,3342.58593 1176.80786,3342.29297 1177.00317,3342.29297 C1177.00317,3342.33203 1177.0227,3342.35156 1177.06177,3342.35156 C1176.90552,3342.58594 1176.82739,3343.01562 1176.82739,3343.64062 L1176.82739,3344.10938 C1176.82739,3345.04688 1175.08913,3346.60936 1171.61255,3348.79688 C1168.37034,3350.71095 1165.18678,3352.29296 1162.06177,3353.54297 C1160.65551,3354.12891 1159.15162,3354.71484 1157.55005,3355.30078 L1157.55005,3355.24219 L1157.66724,3354.77344 L1157.60864,3354.77344 C1155.85082,3355.59375 1154.03443,3356.00391 1152.15942,3356.00391 C1151.26098,3356.12109 1149.97193,3356.57031 1148.29224,3357.35156 C1147.55004,3357.66406 1145.96803,3357.97656 1143.54614,3358.28906 C1141.86645,3358.67969 1140.38209,3359.03125 1139.09302,3359.34375 L1138.97583,3359.34375 C1137.06176,3359.34375 1135.59693,3358.79688 1134.5813,3357.70312 C1132.39379,3355.6328 1131.30005,3352.76174 1131.30005,3349.08984 C1131.30005,3347.21483 1131.59301,3345.08595 1132.17895,3342.70312 C1131.67114,3342.23437 1131.24146,3341.57032 1130.88989,3340.71094 C1130.4602,3339.69531 1130.12817,3338.58204 1129.8938,3337.37109 C1129.8938,3336.9414 1129.97192,3335.94532 1130.12817,3334.38281 C1130.12817,3333.875 1130.24536,3333.07422 1130.47974,3331.98047 C1130.47974,3331.70703 1130.61645,3331.51172 1130.88989,3331.39453 C1131.8274,3331.12109 1133.56566,3330.65235 1136.10474,3329.98828 C1136.57349,3329.79297 1136.80786,3329.67578 1136.80786,3329.63672 C1136.84692,3329.55859 1136.86645,3329.5 1136.86645,3329.46094 C1136.74927,3329.34375 1136.53442,3329.28516 1136.22192,3329.28516 L1136.04614,3329.28516 C1135.57739,3329.28516 1134.60084,3329.53906 1133.11645,3330.04688 C1131.94457,3330.32031 1131.31958,3330.45703 1131.24145,3330.45703 C1131.16333,3330.26172 1131.12427,3329.98828 1131.12427,3329.63672 C1131.20239,3329.1289 1131.31958,3328.81641 1131.47583,3328.69922 C1131.59302,3328.38672 1131.74927,3328.23047 1131.94458,3328.23047 C1140.42118,3326.12108 1148.37032,3324.28516 1155.79224,3322.72266 C1157.04224,3322.48828 1157.74536,3322.37109 1157.90161,3322.37109 C1155.36254,3321.6289 1152.13991,3320.51563 1148.23364,3319.03125 C1146.7102,3318.52343 1145.2649,3318.07422 1143.8977,3317.68359 L1142.19849,3317.68359 C1139.73754,3317.68359 1137.90162,3316.60939 1136.69067,3314.46094 C1136.06567,3313.17187 1135.71411,3311.82423 1135.63599,3310.41797 C1135.08911,3308.69921 1134.81567,3307.64453 1134.81567,3307.25391 C1134.81567,3306.55078 1135.49926,3306.00391 1136.86645,3305.61328 C1138.74146,3304.94922 1141.39769,3304.34375 1144.8352,3303.79688 C1153.27275,3302.58593 1161.45626,3301.98047 1169.38599,3301.98047 Z M1123.74145,3303.62109 L1123.74145,3303.85547 C1123.74145,3304.08984 1123.85864,3304.98827 1124.09302,3306.55078 L1124.09302,3307.37109 C1124.09302,3307.83985 1123.97583,3308.64062 1123.74145,3309.77344 L1123.74145,3310.18359 C1123.89771,3311.62891 1123.97583,3312.70312 1123.97583,3313.40625 C1123.97583,3314.61719 1123.81958,3316.5703 1123.50708,3319.26562 C1123.50708,3320.04688 1123.29224,3321.04296 1122.86255,3322.25391 C1122.94067,3322.41016 1122.97974,3322.8789 1122.97974,3323.66016 L1122.97974,3324.1875 C1122.97974,3325.59376 1122.51099,3328.03514 1121.57349,3331.51172 C1121.18286,3332.56641 1120.98755,3333.21094 1120.98755,3333.44531 L1120.98755,3334.08984 C1120.63598,3337.21486 1120.4602,3338.91406 1120.4602,3339.1875 C1120.49927,3339.30469 1120.55786,3339.38281 1120.63599,3339.42188 C1120.79224,3339.34375 1120.90942,3339.08985 1120.98755,3338.66016 C1121.22192,3337.29296 1121.63208,3335.5547 1122.21802,3333.44531 C1122.45239,3332.35156 1122.6477,3330.92579 1122.80395,3329.16797 C1123.03833,3328.11328 1123.54614,3326.06252 1124.32739,3323.01562 C1124.75708,3321.14062 1124.97192,3319.12892 1124.97192,3316.98047 C1125.16724,3314.12889 1125.26489,3311.7461 1125.26489,3309.83203 C1125.1477,3306.16014 1125.03052,3304.32422 1124.91333,3304.32422 C1124.75708,3303.38671 1124.46411,3302.91797 1124.03442,3302.91797 L1123.97583,3302.91797 C1123.81958,3302.91797 1123.74145,3303.15234 1123.74145,3303.62109 Z M1153.85864,3304.73438 C1153.85864,3305.04688 1154.22973,3305.20312 1154.97192,3305.20312 C1156.96412,3304.96875 1159.63988,3304.69531 1162.99927,3304.38281 C1163.11646,3304.30469 1163.66332,3304.26562 1164.63989,3304.26562 C1164.75708,3304.26562 1165.22583,3304.28516 1166.04614,3304.32422 C1166.12427,3304.32422 1166.18286,3304.26563 1166.22192,3304.14844 C1166.22192,3303.71875 1165.85083,3303.48438 1165.10864,3303.44531 C1164.48364,3303.44531 1164.01489,3303.42578 1163.70239,3303.38672 C1160.92894,3303.38672 1157.90163,3303.66015 1154.62036,3304.20703 C1154.11255,3304.32422 1153.85864,3304.5 1153.85864,3304.73438 Z M1138.91724,3307.48828 L1138.91724,3307.54688 C1138.91724,3307.89844 1139.26879,3308.13281 1139.97192,3308.25 C1141.02662,3308.25 1142.19848,3307.95703 1143.48755,3307.37109 C1144.85474,3306.9414 1147.04222,3306.45313 1150.05005,3305.90625 C1151.30005,3305.63281 1151.92505,3305.4375 1151.92505,3305.32031 L1151.98364,3305.08594 C1151.74927,3304.89062 1151.33911,3304.79297 1150.75317,3304.79297 L1150.34302,3304.79297 C1150.1477,3304.79297 1149.17115,3304.98828 1147.41333,3305.37891 C1145.7727,3305.73047 1143.85865,3305.98437 1141.67114,3306.14062 C1140.49926,3306.375 1139.62036,3306.6875 1139.03442,3307.07812 C1138.9563,3307.23438 1138.91724,3307.37109 1138.91724,3307.48828 Z M1146.7688,3327 L1146.7688,3327.05859 C1146.7688,3327.09766 1146.80786,3327.13672 1146.88599,3327.17578 L1147.12036,3327.17578 C1147.15942,3327.17578 1147.17895,3327.15625 1147.17895,3327.11719 L1147.17895,3326.88281 C1147.17895,3326.80469 1147.10083,3326.76562 1146.94458,3326.76562 C1146.82739,3326.80469 1146.7688,3326.88281 1146.7688,3327 Z M1144.71802,3327.52734 C1144.71802,3327.68359 1144.77661,3327.78125 1144.8938,3327.82031 L1145.01099,3327.82031 C1145.2063,3327.82031 1145.30395,3327.72266 1145.30395,3327.52734 C1145.26489,3327.41016 1145.16724,3327.35156 1145.01099,3327.35156 C1144.85473,3327.35156 1144.75708,3327.41016 1144.71802,3327.52734 Z M1142.60864,3328.17188 C1142.6477,3328.32813 1142.68677,3328.40625 1142.72583,3328.40625 L1142.90161,3328.40625 C1143.13599,3328.40625 1143.25317,3328.28906 1143.25317,3328.05469 C1143.25317,3327.89844 1143.17505,3327.82031 1143.0188,3327.82031 L1142.9602,3327.82031 C1142.76489,3327.82031 1142.6477,3327.9375 1142.60864,3328.17188 Z M1138.91724,3329.40234 L1138.91724,3329.57812 C1138.91724,3329.61719 1139.03442,3329.67578 1139.2688,3329.75391 C1139.8938,3329.75391 1140.57739,3329.40235 1141.31958,3328.69922 C1141.35864,3328.50391 1141.37817,3328.38672 1141.37817,3328.34766 C1141.37817,3328.15234 1141.26099,3328.05469 1141.02661,3328.05469 C1140.5188,3328.05469 1139.83521,3328.46484 1138.97583,3329.28516 L1138.91724,3329.40234 Z M1147.88208,3338.13281 C1148.03833,3338.13281 1148.15552,3338.19141 1148.23364,3338.30859 C1148.23364,3338.89453 1147.7649,3339.32422 1146.82739,3339.59766 L1146.53442,3339.59766 C1146.30005,3339.55859 1146.18286,3339.44141 1146.18286,3339.24609 L1146.18286,3339.12891 C1146.18286,3338.73828 1146.7102,3338.40625 1147.76489,3338.13281 L1147.88208,3338.13281 Z M1112.19849,3368.07422 C1112.27661,3369.32422 1112.3938,3369.94922 1112.55005,3369.94922 C1113.25318,3368.73828 1113.60474,3367.70313 1113.60474,3366.84375 C1114.03443,3363.99217 1114.73754,3360.88674 1115.71411,3357.52734 C1116.49536,3355.33983 1117.27661,3352.54689 1118.05786,3349.14844 C1119.38599,3345.04685 1120.05005,3342.91797 1120.05005,3342.76172 C1119.38598,3343.42578 1118.91724,3344.1289 1118.6438,3344.87109 C1118.29223,3346.27735 1117.53052,3348.48436 1116.35864,3351.49219 C1115.22582,3354.53908 1113.91724,3359.30466 1112.43286,3365.78906 C1112.27661,3367.15626 1112.19849,3367.91797 1112.19849,3368.07422 Z M1170.73364,3345.45703 L1170.79224,3345.45703 C1171.41724,3345.30078 1171.86645,3345.06641 1172.13989,3344.75391 L1172.0813,3344.75391 C1171.72973,3344.75391 1171.28052,3344.96875 1170.73364,3345.39844 L1170.73364,3345.45703 Z M1116.7102,3345.39844 C1116.00708,3346.80469 1115.65552,3348.05468 1115.65552,3349.14844 L1115.65552,3349.32422 C1116.39771,3348.11328 1116.7688,3347.01954 1116.7688,3346.04297 C1116.72974,3345.6914 1116.7102,3345.47656 1116.7102,3345.39844 Z M1166.80786,3346.98047 C1167.04224,3347.01953 1167.17895,3347.03906 1167.21802,3347.03906 C1168.11646,3347.03906 1168.95629,3346.62891 1169.73755,3345.80859 L1169.73755,3345.75 L1169.50317,3345.75 C1168.44848,3345.75 1167.55005,3346.16015 1166.80786,3346.98047 Z M1165.98755,3347.44922 L1166.10474,3347.44922 C1166.41724,3347.37109 1166.57349,3347.25391 1166.57349,3347.09766 L1166.51489,3347.09766 C1166.35864,3347.09766 1166.18286,3347.21484 1165.98755,3347.44922 Z M1140.96802,3372.23438 C1141.78833,3372.15625 1142.86254,3371.82422 1144.19067,3371.23828 C1144.81568,3370.88672 1145.40161,3370.47656 1145.94849,3370.00781 C1145.59692,3369.96875 1145.32349,3369.94922 1145.12817,3369.94922 L1144.65942,3369.94922 C1143.40942,3369.94922 1142.25708,3370.57421 1141.20239,3371.82422 C1141.04614,3372.05859 1140.96802,3372.19531 1140.96802,3372.23438 Z" id="Unbeatabl"></path>
        </g>
    </g>
</svg>