<?xml version="1.0" encoding="UTF-8"?>
<svg width="864px" height="256px" viewBox="0 0 864 256" version="1.1" xmlns="http://www.w3.org/2000/svg" xmlns:xlink="http://www.w3.org/1999/xlink">
    <!-- Generator: Sketch 54.1 (76490) - https://sketchapp.com -->
    <title>Strength</title>
    <desc>Created with Sketch.</desc>
    <g id="Page-1" stroke="none" stroke-width="1" fill="none" fill-rule="evenodd">
        <g id="Artboard" transform="translate(-571.000000, -2123.000000)" fill-rule="nonzero" stroke="#F0BA41">
            <path d="M663.315524,2158.4043 C665.675562,2158.4043 667.099702,2158.89257 667.587985,2159.86914 C668.15765,2160.4388 668.605236,2161.49674 668.930759,2163.04297 C669.174901,2164.01954 669.419039,2166.98988 669.663181,2171.9541 C669.744561,2173.17481 669.94801,2174.51757 670.273532,2175.98242 C670.273532,2177.20313 666.855598,2179.72589 660.019626,2183.55078 C659.856865,2183.63216 659.002381,2184.12044 657.456149,2185.01562 L657.456149,2184.89355 C649.887752,2189.69501 642.441538,2194.94398 635.117282,2200.64062 C629.990303,2204.70966 624.008918,2209.87725 617.172946,2216.14355 C615.463953,2217.60841 614.60947,2218.38151 614.60947,2218.46289 L613.754977,2218.46289 C613.185313,2218.46289 612.900485,2218.66634 612.900485,2219.07324 L613.022556,2219.92773 C610.825279,2221.96225 608.05838,2224.64777 604.721774,2227.98438 C607.976999,2231.15822 610.174243,2233.07063 611.313571,2233.72168 C612.208758,2234.45411 614.202553,2235.71549 617.295017,2237.50586 C622.259234,2240.6797 629.664759,2246.45764 639.511813,2254.83984 C640.407,2256.54884 642.522864,2259.35643 645.85947,2263.2627 C646.836037,2264.4834 648.219487,2266.23306 650.00986,2268.51172 C651.23057,2270.38347 652.45126,2272.45865 653.67197,2274.7373 L653.79404,2274.7373 L653.79404,2274.61523 C651.596763,2269.97654 650.376072,2267.29102 650.131931,2266.55859 C656.64238,2275.7546 659.897556,2284.74703 659.897556,2293.53613 C659.816175,2293.94304 659.775485,2294.51269 659.775485,2295.24512 L659.775485,2295.48926 C659.531343,2294.91959 659.287205,2294.5127 659.043063,2294.26855 C659.043063,2294.67546 658.676856,2295.20442 657.944431,2295.85547 C657.374766,2296.50651 657.089938,2297.40169 657.089938,2298.54102 C656.601655,2300.33139 656.357517,2302.2438 656.357517,2304.27832 C656.031994,2307.12664 655.625097,2309.24251 655.136813,2310.62598 C655.055433,2311.27702 654.974053,2312.5384 654.892673,2314.41016 C654.811292,2315.14258 654.282326,2316.03776 653.305759,2317.0957 L651.962985,2319.1709 C651.637463,2319.82194 650.498151,2321.24608 648.545017,2323.44336 L648.911227,2323.93164 C646.062906,2326.6172 643.499455,2328.85513 641.220798,2330.64551 C637.721431,2333.24969 634.710394,2335.32486 632.187595,2336.87109 C628.281325,2339.14975 625.880633,2340.28906 624.985446,2340.28906 C623.276453,2340.77735 621.852314,2341.02148 620.712985,2341.02148 C620.631605,2340.9401 620.468846,2340.41114 620.224704,2339.43457 C619.573659,2339.84147 618.841245,2340.1263 618.027438,2340.28906 L617.783298,2340.77734 C618.434343,2340.9401 619.166757,2341.02148 619.980563,2341.02148 L619.980563,2341.14355 C619.655041,2341.14355 617.905384,2342.03873 614.73154,2343.8291 C613.510831,2344.48015 610.418414,2345.37532 605.454196,2346.51465 C602.524494,2347.24707 600.083112,2347.61328 598.129977,2347.61328 L597.885837,2347.61328 C596.746508,2347.61328 595.688576,2347.49121 594.712009,2347.24707 C593.165777,2347.49121 591.782327,2347.61328 590.561618,2347.61328 L590.317477,2347.61328 C584.458073,2347.61328 579.738068,2343.50362 576.157321,2335.28418 C575.424896,2333.65657 574.651791,2331.33725 573.837985,2328.32617 C572.780037,2323.85024 572.251071,2320.63575 572.251071,2318.68262 C575.180773,2320.55437 578.680087,2321.49023 582.749118,2321.49023 C590.398896,2321.49023 599.432009,2318.43851 609.848727,2312.33496 C612.534288,2310.70735 615.463946,2308.55079 618.63779,2305.86523 C622.055776,2302.85415 625.229572,2299.96518 628.159274,2297.19824 C628.403416,2296.87272 629.095141,2296.09962 630.23447,2294.87891 C632.838649,2291.62368 634.547617,2288.7754 635.361423,2286.33398 C635.849706,2284.95051 636.093845,2283.36362 636.093845,2281.57324 C636.093845,2281.3291 636.053155,2280.80013 635.971774,2279.98633 C635.890394,2279.90495 634.913841,2278.27736 633.042087,2275.10352 C631.658616,2273.55728 630.153098,2272.2959 628.525485,2271.31934 C625.107499,2269.12206 620.265425,2266.23309 613.999118,2262.65234 C608.383856,2259.55988 603.094195,2256.14195 598.129977,2252.39844 C593.654044,2248.73631 590.683696,2245.6032 589.218845,2242.99902 C588.486419,2241.85969 587.957453,2240.15073 587.631931,2237.87207 C584.94637,2235.43065 583.359472,2233.72168 582.871188,2232.74512 C581.406337,2230.7106 580.673923,2228.3506 580.673923,2225.66504 L580.673923,2225.4209 C580.673923,2217.77112 581.569096,2212.35939 583.35947,2209.18555 C584.173276,2206.98827 586.126381,2203.97723 589.218845,2200.15234 C592.067166,2196.89712 594.589927,2194.37436 596.787204,2192.58398 C602.972131,2187.94529 609.238344,2183.71356 615.586032,2179.88867 C625.351706,2173.78513 634.669647,2168.65822 643.540134,2164.50781 C646.713978,2163.04296 649.725015,2161.82227 652.573337,2160.8457 C654.28233,2160.27604 656.276125,2159.86914 658.554782,2159.625 C660.91482,2158.81119 662.501718,2158.4043 663.315524,2158.4043 Z M636.460056,2172.19824 L636.460056,2172.32031 C636.704197,2172.8086 636.948336,2173.05273 637.192477,2173.05273 C638.982851,2172.40169 640.895267,2171.46583 642.929782,2170.24512 C643.824969,2169.75683 644.353935,2169.30925 644.516696,2168.90234 C644.191174,2168.57682 644.028415,2168.37337 644.028415,2168.29199 C641.098713,2169.18718 638.575952,2170.48925 636.460056,2172.19824 Z M633.286227,2173.66309 C633.855892,2173.41894 634.14072,2173.2155 634.14072,2173.05273 C634.14072,2172.97135 634.10003,2172.93066 634.018649,2172.93066 L633.896579,2172.93066 C633.652437,2172.93066 633.448989,2173.1748 633.286227,2173.66309 Z M592.758884,2206.13379 C594.305115,2206.13379 595.729255,2205.15724 597.031345,2203.2041 C597.438248,2202.30891 600.449285,2199.29788 606.064548,2194.1709 C610.947385,2189.93911 615.057044,2186.68393 618.393649,2184.40527 C621.811635,2182.37076 624.619224,2180.53972 626.816501,2178.91211 C628.688255,2177.61002 630.641361,2175.98243 632.675876,2174.0293 C632.594495,2173.94792 632.513116,2173.90723 632.431735,2173.90723 C631.129645,2173.90723 629.868265,2174.43619 628.647556,2175.49414 C622.218487,2179.31903 615.870894,2183.63214 609.604587,2188.43359 C607.976975,2189.81706 606.390076,2191.2412 604.843845,2192.70605 C603.378994,2193.60124 601.263129,2195.47297 598.496188,2198.32129 C595.647867,2201.57651 593.735451,2204.18065 592.758884,2206.13379 Z M625.107517,2251.66602 C627.711696,2253.70053 629.86825,2254.83984 631.577243,2255.08398 C630.682056,2253.61913 629.257917,2252.60189 627.304782,2252.03223 C626.246834,2251.78808 625.51442,2251.66602 625.107517,2251.66602 Z M631.943454,2255.32812 C632.106215,2256.06055 632.268974,2256.50814 632.431735,2256.6709 C635.931102,2259.76336 638.453863,2262.32681 640.000095,2264.36133 C642.685655,2267.61655 644.72014,2270.42414 646.10361,2272.78418 C647.4057,2275.2256 648.382253,2276.85319 649.033298,2277.66699 C649.765723,2278.23666 650.376069,2278.52148 650.864352,2278.52148 C650.701591,2277.38216 650.376074,2276.48698 649.88779,2275.83594 C648.748461,2273.55728 647.283632,2271.15659 645.493259,2268.63379 C644.109788,2266.51789 641.749786,2263.7103 638.413181,2260.21094 C635.402098,2257.28124 633.530372,2255.77572 632.797946,2255.69434 C632.797946,2255.69434 632.513118,2255.57227 631.943454,2255.32812 Z M651.596774,2312.33496 C650.457446,2313.63705 647.324339,2316.93292 642.19736,2322.22266 C640.651129,2323.85027 639.552507,2324.82682 638.901462,2325.15234 C635.564857,2327.18686 633.530372,2328.48893 632.797946,2329.05859 L632.675876,2329.18066 L632.675876,2329.4248 C632.675876,2329.99447 633.204842,2330.36068 634.26279,2330.52344 C643.947083,2325.72198 650.172607,2320.02542 652.939548,2313.43359 C652.207122,2312.70117 651.759536,2312.33496 651.596774,2312.33496 Z M749.320017,2123.73633 L751.151072,2123.73633 C753.51111,2123.73633 755.057318,2124.38736 755.789744,2125.68945 C756.033886,2126.25912 756.155955,2127.07291 756.155955,2128.13086 C756.155955,2128.86328 756.115265,2129.75846 756.033884,2130.81641 C770.926537,2128.29361 782.56379,2127.03223 790.945994,2127.03223 C805.187602,2127.03223 817.028303,2129.83982 826.468455,2135.45508 C828.747112,2137.00131 830.537459,2140.29718 831.839549,2145.34277 C832.734735,2149.08628 833.182322,2151.81249 833.182322,2153.52148 C833.182322,2154.00977 832.327838,2154.2946 830.618845,2154.37598 C828.096046,2154.37598 824.027077,2153.31804 818.411814,2151.20215 C815.726254,2150.38834 813.040734,2149.98145 810.355174,2149.98145 C807.018568,2149.98145 800.670976,2150.91731 791.312205,2152.78906 C786.67351,2153.60287 780.610745,2154.45735 773.123728,2155.35254 C763.439435,2156.24773 756.440807,2156.93945 752.127634,2157.42773 C752.778679,2157.42773 753.104197,2157.50911 753.104197,2157.67188 C752.20901,2157.83464 751.761424,2157.95671 751.761424,2158.03809 C746.634445,2183.9985 741.426164,2207.19163 736.136424,2227.61816 C734.508811,2234.77966 732.799844,2243.03967 731.00947,2252.39844 C730.846709,2252.39844 730.76533,2252.5612 730.76533,2252.88672 C728.730814,2263.14068 727.103227,2272.78413 725.882517,2281.81738 C725.638375,2284.34018 725.190789,2287.92088 724.539744,2292.55957 C722.586609,2306.80118 721.610056,2316.2005 721.610056,2320.75781 L721.610056,2322.10059 C721.610056,2325.92547 722.057643,2335.77238 722.95283,2351.6416 L722.95283,2353.7168 C722.95283,2354.5306 722.87145,2354.9375 722.708689,2354.9375 L720.633494,2354.9375 C720.307971,2354.9375 719.982454,2354.69336 719.656931,2354.20508 C719.005886,2353.79818 718.5583,2353.59473 718.314158,2353.59473 L718.314158,2353.22852 C718.314158,2352.41471 718.843124,2351.2754 719.901072,2349.81055 C720.226594,2349.1595 720.389353,2348.67123 720.389353,2348.3457 L720.389353,2347.85742 C720.389353,2347.20638 719.53487,2346.35189 717.825877,2345.29395 L717.947947,2345.17188 C717.785186,2344.35807 717.703806,2343.50359 717.703806,2342.6084 L717.703806,2342.48633 C717.703806,2342.40495 717.663117,2342.32357 717.581736,2342.24219 L717.703806,2341.87598 L717.703806,2341.50977 C717.703806,2339.80077 718.151393,2337.76629 719.04658,2335.40625 L719.04658,2335.04004 C719.04658,2334.71452 718.802442,2333.90072 718.314158,2332.59863 C717.825874,2330.80826 717.581736,2328.77377 717.581736,2326.49512 L717.581736,2325.27441 C717.581736,2321.124 717.988633,2317.74676 718.802439,2315.14258 C718.9652,2314.73568 719.250028,2314.32878 719.656931,2313.92188 C720.063834,2313.10807 720.267283,2312.33496 720.267283,2311.60254 C720.267283,2311.03287 719.982455,2309.89356 719.412791,2308.18457 C719.087268,2306.88248 718.924509,2305.78386 718.924509,2304.88867 L718.924509,2304.03418 C718.924509,2302.81347 719.290717,2300.86036 720.023142,2298.1748 C720.348665,2296.62857 720.592803,2293.7396 720.755564,2289.50781 C721.162467,2286.00845 721.691433,2282.67189 722.342478,2279.49805 C723.156284,2275.9173 724.254906,2269.69178 725.638377,2260.82129 C726.208041,2257.4033 726.492869,2255.16537 726.492869,2254.10742 C726.492869,2253.53776 726.167351,2253.25293 725.516306,2253.25293 C724.7025,2253.41569 724.295603,2253.7819 724.295603,2254.35156 C723.481797,2256.38608 722.708693,2259.03091 721.976267,2262.28613 C721.569364,2263.75098 721.284536,2265.82616 721.121775,2268.51172 C720.38935,2273.96422 719.331417,2280.47457 717.947947,2288.04297 C717.05276,2292.84443 716.279656,2298.62236 715.628611,2305.37695 C714.082379,2313.67778 713.309275,2320.87985 713.309275,2326.9834 C713.309275,2329.26206 713.431344,2331.29654 713.675486,2333.08691 L713.553416,2333.33105 L713.553416,2340.89941 C713.553416,2345.04983 713.675485,2349.20017 713.919627,2353.35059 L713.675486,2353.35059 C712.86168,2353.10644 711.55961,2352.41472 709.769236,2351.27539 C706.432631,2348.91535 704.316767,2346.51466 703.42158,2344.07324 C700.980161,2338.21384 699.75947,2328.489 699.75947,2314.89844 C699.75947,2303.01687 700.654644,2290.11823 702.445017,2276.20215 C703.421585,2269.77308 704.805034,2262.08273 706.595408,2253.13086 C706.676789,2253.13086 706.717478,2252.88672 706.717478,2252.39844 L706.595408,2252.27637 C712.21067,2223.38625 718.883781,2193.64208 726.614939,2163.04297 C712.698854,2166.62372 700.003668,2170.52993 688.529002,2174.76172 C679.984037,2177.85418 675.019894,2179.40039 673.636424,2179.40039 C670.706721,2179.40039 668.22465,2178.13901 666.190134,2175.61621 C664.806664,2173.74446 664.114939,2171.95411 664.114939,2170.24512 C663.952178,2168.12922 662.528039,2165.15887 659.842478,2161.33398 C659.679717,2161.17122 659.598338,2160.96777 659.598338,2160.72363 L659.598338,2160.47949 C659.598338,2158.52636 665.864551,2155.63739 678.397166,2151.8125 C686.209705,2149.2897 693.045574,2146.84832 698.904978,2144.48828 C706.880279,2141.72134 716.971323,2138.95444 729.178416,2136.1875 L729.178416,2135.94336 C729.178416,2134.64127 729.056347,2132.32196 728.812205,2128.98535 C732.799855,2127.43912 736.828135,2126.09636 740.897166,2124.95703 C744.559293,2124.14323 747.366883,2123.73633 749.320017,2123.73633 Z M714.896189,2144.61035 C716.930705,2144.28483 717.947947,2143.87793 717.947947,2143.38965 C717.785186,2142.7386 717.500358,2142.41309 717.093455,2142.41309 C716.605171,2142.41309 715.872757,2143.1455 714.896189,2144.61035 Z M672.29365,2160.60156 C673.107456,2160.92708 673.92125,2161.08984 674.735056,2161.08984 C676.281288,2161.08984 678.193704,2160.64226 680.472361,2159.74707 C689.017326,2157.06151 696.54492,2154.09116 703.055369,2150.83594 C706.880258,2149.04556 710.58302,2147.05177 714.163767,2144.85449 L713.553416,2144.85449 C710.623714,2144.85449 707.612676,2145.66829 704.520213,2147.2959 C703.380884,2147.86556 700.532605,2148.88281 695.975291,2150.34766 C689.790364,2152.46355 682.628977,2155.18976 674.490916,2158.52637 C674.165393,2158.68913 673.432979,2159.38085 672.29365,2160.60156 Z M668.753611,2161.33398 L668.753611,2161.45605 C668.753611,2161.61882 668.95706,2161.7002 669.363963,2161.7002 C670.096388,2161.7002 670.869492,2161.37468 671.683299,2160.72363 C671.683299,2160.64225 671.195022,2160.52018 670.218455,2160.35742 L669.852244,2160.35742 C669.119818,2160.4388 668.753611,2160.76432 668.753611,2161.33398 Z M736.624705,2207.96484 C735.566757,2209.99936 735.037791,2211.91177 735.037791,2213.70215 L735.037791,2214.67871 L735.159861,2214.67871 C736.38057,2212.07453 736.990916,2210.08074 736.990916,2208.69727 L736.990916,2208.45312 C736.990916,2208.29036 736.868847,2208.1276 736.624705,2207.96484 Z M734.79365,2215.41113 C732.840515,2218.58498 731.863963,2221.92153 731.863963,2225.4209 L731.863963,2226.76367 L731.986033,2226.76367 C733.939168,2223.83397 734.91572,2220.21259 734.91572,2215.89941 L734.91572,2215.41113 L734.79365,2215.41113 Z M730.277049,2231.89062 C729.544623,2233.35548 729.178416,2234.77962 729.178416,2236.16309 C729.259796,2236.81413 729.300486,2237.30241 729.300486,2237.62793 C730.114292,2236.32584 730.521189,2235.06446 730.521189,2233.84375 L730.521189,2233.11133 C730.521189,2232.78581 730.480499,2232.37891 730.399119,2231.89062 L730.277049,2231.89062 Z M728.201853,2241.29004 C726.899763,2243.81284 726.248728,2246.17284 726.248728,2248.37012 L726.248728,2249.71289 L726.370799,2249.71289 C727.672888,2247.02733 728.323924,2244.3825 728.323924,2241.77832 C728.242543,2241.61556 728.201853,2241.4528 728.201853,2241.29004 Z M845.700487,2171.22168 C847.735002,2172.52377 849.972936,2174.35481 852.414354,2176.71484 C855.099914,2179.4004 856.97164,2181.71972 858.029588,2183.67285 C859.331678,2185.70737 860.348921,2187.90461 861.081346,2190.26465 C861.488249,2191.3226 861.691698,2191.97363 861.691698,2192.21777 C861.203414,2192.5433 860.959276,2192.86881 860.959276,2193.19434 C861.203418,2193.92676 861.325487,2194.53711 861.325487,2195.02539 C861.325487,2195.75782 860.95928,2197.34471 860.226854,2199.78613 C859.65719,2201.00684 859.372362,2202.10546 859.372362,2203.08203 C859.372362,2203.73308 859.738569,2204.95377 860.470995,2206.74414 C860.552375,2207.15104 860.593065,2207.47656 860.593065,2207.7207 C860.593065,2208.37175 859.94203,2210.08072 858.63994,2212.84766 C857.256469,2216.4284 856.279917,2218.70703 855.710252,2219.68359 C855.466111,2220.25326 854.977834,2220.66016 854.245409,2220.9043 C853.512983,2221.55534 852.821258,2222.53189 852.170213,2223.83398 C849.728795,2227.17059 847.735,2230.54783 846.188768,2233.96582 C845.537723,2235.34929 843.2591,2238.23826 839.352831,2242.63281 L839.474901,2242.63281 C841.590797,2240.76106 843.86942,2238.76726 846.310838,2236.65137 L846.432909,2236.65137 C842.363878,2242.10387 836.870769,2248.61422 829.953416,2256.18262 C824.012632,2262.44892 818.967109,2267.45376 814.816698,2271.19727 L809.445604,2276.08008 C816.362956,2279.74221 825.111241,2283.97393 835.690721,2288.77539 C843.747402,2292.5189 849.36258,2295.48925 852.536424,2297.68652 C853.106089,2298.17481 853.960572,2299.02929 855.099901,2300.25 C856.727513,2301.47071 857.826135,2302.97623 858.395799,2304.7666 L858.51787,2305.74316 C858.51787,2308.91701 855.344073,2311.19563 848.996385,2312.5791 C846.717728,2311.68391 844.439105,2310.62598 842.160448,2309.40527 L834.958299,2305.37695 C832.35412,2303.83072 829.465151,2301.87762 826.291307,2299.51758 C825.965785,2299.19206 824.867163,2298.78516 822.995409,2298.29688 C821.042274,2297.48307 817.50227,2295.81479 812.375291,2293.29199 C810.82906,2292.55957 809.974576,2292.19336 809.811815,2292.19336 L809.689745,2292.19336 C809.608364,2292.19336 809.445605,2292.27474 809.201463,2292.4375 C809.364225,2293.08854 809.649052,2293.53613 810.055956,2293.78027 C813.962225,2295.97755 818.153264,2298.541 822.629198,2301.4707 C826.047184,2303.5866 829.912705,2305.49901 834.225877,2307.20801 C837.15558,2308.59148 839.963169,2310.097 842.648729,2311.72461 C843.625296,2312.37565 844.52047,2312.986 845.334276,2313.55566 L843.747362,2314.16602 C842.445272,2314.73568 841.590788,2315.54947 841.183885,2316.60742 C840.939743,2316.93294 840.695605,2317.0957 840.451463,2317.0957 L840.085252,2317.0957 C839.271446,2317.0957 836.830064,2315.87501 832.761034,2313.43359 C827.796816,2310.50389 822.059569,2307.85906 815.54912,2305.49902 C811.317328,2304.03417 806.231115,2302.61003 800.290331,2301.22656 C790.199134,2298.29686 781.776367,2295.97755 775.021776,2294.26855 L774.899706,2294.26855 C774.16728,2294.67546 773.312796,2295.2858 772.336229,2296.09961 C772.173468,2296.09961 771.88864,2296.9134 771.481737,2298.54102 C768.877557,2307.24874 767.575487,2312.57909 767.575487,2314.53223 L767.575487,2314.6543 C767.575487,2315.38672 767.982384,2317.74672 768.79619,2321.73438 C769.121712,2323.76889 769.284471,2325.35579 769.284471,2326.49512 C769.284471,2328.69239 768.714815,2330.31998 767.575487,2331.37793 C767.168584,2332.11036 766.476859,2332.47656 765.500291,2332.47656 L765.01201,2332.47656 C762.733353,2332.47656 760.007143,2331.86622 756.833299,2330.64551 C755.042926,2329.8317 753.415338,2328.85515 751.950487,2327.71582 C747.230411,2323.89093 744.870409,2318.80472 744.870409,2312.45703 C744.870409,2308.30662 745.684203,2301.63351 747.311815,2292.4375 C749.590472,2280.63731 752.60151,2267.98281 756.345018,2254.47363 C758.542295,2246.57971 762.611264,2232.98935 768.552049,2213.70215 C771.074848,2204.75028 773.272092,2196.16475 775.143846,2187.94531 C775.143846,2187.86393 775.184536,2187.61979 775.265916,2187.21289 L775.143846,2187.21289 C772.458286,2188.10808 770.220353,2188.55566 768.429979,2188.55566 C764.360948,2188.55566 761.716118,2186.39911 760.495409,2182.08594 C760.495409,2181.76042 759.803684,2180.45834 758.420213,2178.17969 C758.094691,2177.36588 757.931932,2176.71485 757.931932,2176.22656 L757.931932,2175.98242 C757.931932,2175.57552 758.094691,2175.29069 758.420213,2175.12793 C765.337566,2170.89614 770.993434,2168.33269 775.387987,2167.4375 C777.992166,2166.78646 780.921825,2166.46094 784.177049,2166.46094 C786.618468,2166.2168 788.286745,2165.93197 789.181932,2165.60645 C789.832977,2165.28092 790.199184,2165.07747 790.280565,2164.99609 C789.385378,2164.91471 788.246067,2164.87402 786.862596,2164.87402 L785.275682,2164.87402 C783.403928,2164.87402 781.572892,2165.15885 779.782518,2165.72852 L773.434862,2166.94922 C771.318966,2167.4375 769.284481,2168.12923 767.331346,2169.02441 C767.005824,2169.18718 766.069961,2169.472 764.523729,2169.87891 C763.140259,2170.36719 761.349912,2171.22167 759.152635,2172.44238 C759.152635,2172.52376 759.111946,2172.56445 759.030565,2172.56445 L758.908495,2172.56445 L758.786424,2172.44238 C759.111947,2171.87272 759.762982,2171.26237 760.739549,2170.61133 C762.448542,2169.472 764.238889,2168.41407 766.110643,2167.4375 C769.772771,2165.56575 774.004499,2164.14161 778.805956,2163.16504 C783.36327,2162.26985 792.80328,2161.92399 807.126268,2162.12744 C821.449256,2162.33089 834.307201,2165.36228 845.700487,2171.22168 Z M779.172166,2180.01074 C779.172166,2180.41765 779.334925,2180.62109 779.660448,2180.62109 C779.90459,2180.62109 780.026659,2180.45833 780.026659,2180.13281 C779.945278,2179.80729 779.904588,2179.60384 779.904588,2179.52246 L779.294237,2179.52246 C779.212856,2179.60384 779.172166,2179.7666 779.172166,2180.01074 Z M801.144823,2186.23633 L801.266893,2186.60254 L801.266893,2187.45703 C801.266893,2187.86393 800.859996,2189.32876 800.04619,2191.85156 C799.802048,2192.50261 799.5986,2194.04882 799.435838,2196.49023 C799.028935,2199.01303 798.744107,2200.39648 798.581346,2200.64062 C796.790973,2201.94271 795.651661,2203.44823 795.163377,2205.15723 C794.919236,2206.29656 794.390269,2207.88345 793.576463,2209.91797 C793.332321,2210.56901 793.006804,2211.87108 792.599901,2213.82422 C790.402624,2221.63676 789.304002,2226.56021 789.304002,2228.59473 L789.304002,2229.20508 C789.304002,2229.77474 789.426071,2230.05957 789.670213,2230.05957 C790.158497,2230.05957 791.216429,2227.74026 792.844041,2223.10156 C793.739228,2220.66014 794.471643,2218.50359 795.041307,2216.63184 L795.163377,2216.63184 C789.955018,2237.22113 785.235013,2254.43287 781.003221,2268.26758 C785.072252,2265.50064 789.629498,2262.00132 794.675096,2257.76953 C797.523418,2255.49087 801.470318,2251.8288 806.515916,2246.7832 C812.29394,2240.84242 816.240841,2236.40724 818.356737,2233.47754 C828.203791,2221.0263 833.127245,2210.60974 833.127245,2202.22754 C833.127245,2193.60119 822.466544,2188.27084 801.144823,2186.23633 Z M857.541307,2190.50879 C858.192352,2194.17092 858.51787,2196.04264 858.51787,2196.12402 C858.680631,2195.14746 858.8027,2194.25228 858.884081,2193.43848 C858.884081,2192.62467 858.517873,2191.77019 857.785448,2190.875 C857.785448,2190.875 857.704068,2190.75293 857.541307,2190.50879 Z M753.04912,2284.625 C753.04912,2284.86914 753.456017,2285.07259 754.269823,2285.23535 C754.920868,2284.50293 755.449834,2283.56706 755.856737,2282.42773 C758.379536,2275.18486 761.87885,2262.24554 766.354784,2243.60938 C769.365866,2233.0299 772.417594,2220.74161 775.510057,2206.74414 C775.998341,2205.44205 776.649376,2203.81446 777.463182,2201.86133 C778.195608,2199.50129 778.561815,2197.8737 778.561815,2196.97852 L778.561815,2196.85645 C778.480434,2195.87988 778.114227,2195.3916 777.463182,2195.3916 L777.219041,2195.3916 C776.567997,2195.3916 776.12041,2196.04264 775.876268,2197.34473 C775.876268,2197.50749 775.428681,2198.89094 774.533495,2201.49512 L772.946581,2209.06348 C764.320235,2240.55777 758.094712,2264.03573 754.269823,2279.49805 C753.9443,2280.55599 753.537403,2282.26496 753.04912,2284.625 Z M858.029588,2198.44336 C858.110969,2198.6875 858.233038,2198.80957 858.395799,2198.80957 C858.639941,2198.72819 858.76201,2198.64681 858.76201,2198.56543 L858.76201,2198.32129 C858.76201,2197.99577 858.680631,2197.50749 858.51787,2196.85645 C858.355108,2196.85645 858.19235,2197.30403 858.029588,2198.19922 C858.029588,2198.19922 858.029588,2198.2806 858.029588,2198.44336 Z M824.704393,2252.39844 C823.890587,2252.72396 823.158172,2253.13086 822.507127,2253.61914 C821.611941,2254.43295 821.082975,2255.20605 820.920213,2255.93848 C821.164355,2256.99642 821.530562,2257.52539 822.018846,2257.52539 L822.140916,2257.52539 C822.710581,2257.52539 823.076788,2257.36263 823.239549,2257.03711 C824.297497,2255.97916 824.948532,2254.96192 825.192674,2253.98535 C825.436816,2253.41569 825.680954,2253.13086 825.925096,2253.13086 C827.227186,2252.64258 828.529256,2251.42188 829.831346,2249.46875 C829.912727,2249.46875 831.133418,2248.00392 833.493456,2245.07422 C836.504538,2242.47004 838.294885,2240.639 838.864549,2239.58105 C840.003878,2237.87206 841.509397,2235.79689 843.381151,2233.35547 C844.357718,2231.80924 845.293581,2230.10027 846.188768,2228.22852 C846.188768,2227.90299 846.595665,2227.0892 847.409471,2225.78711 C848.141897,2224.72916 848.955691,2222.77606 849.850877,2219.92773 C850.746064,2216.91665 851.803996,2214.23113 853.024706,2211.87109 C853.919892,2208.86001 854.367479,2206.82553 854.367479,2205.76758 L854.245409,2205.76758 C854.082647,2205.76758 853.71644,2205.6862 853.146776,2205.52344 C852.902634,2205.52344 852.739875,2206.0524 852.658495,2207.11035 C852.495733,2207.43587 852.332975,2208.33105 852.170213,2209.7959 C850.786743,2213.05112 848.46743,2217.93389 845.212206,2224.44434 C842.608026,2229.57131 840.7363,2233.07063 839.596971,2234.94238 C837.481075,2235.67481 835.853487,2237.05826 834.714159,2239.09277 C833.981733,2240.31348 832.476214,2242.10383 830.197557,2244.46387 C829.058228,2245.6032 828.081676,2246.3763 827.26787,2246.7832 C825.558877,2248.32943 824.704393,2250.20116 824.704393,2252.39844 Z M857.419237,2205.76758 C857.419237,2205.93034 857.337857,2206.13379 857.175096,2206.37793 L857.297166,2206.37793 L857.541307,2205.76758 L857.419237,2205.76758 Z M856.808885,2207.59863 C856.483363,2208.08692 856.076466,2209.30761 855.588182,2211.26074 C855.26266,2212.48145 854.652314,2214.39387 853.757127,2216.99805 C854.08265,2216.99805 854.408167,2216.59115 854.73369,2215.77734 C856.11716,2213.41731 856.808885,2211.13868 856.808885,2208.94141 L856.808885,2207.59863 Z M795.041307,2216.3877 L795.163377,2216.3877 L795.163377,2216.50977 L795.041307,2216.50977 L795.041307,2216.3877 Z M848.263963,2226.6416 C848.263963,2226.80436 848.304653,2226.88574 848.386034,2226.88574 L848.508104,2226.88574 L848.508104,2226.51953 C848.345343,2226.60091 848.263963,2226.6416 848.263963,2226.6416 Z M754.147752,2288.04297 C752.927043,2290.40301 752.316698,2292.3968 752.316698,2294.02441 L752.194627,2296.34375 C752.357389,2296.42513 752.438768,2296.50651 752.438768,2296.58789 C752.520149,2296.58789 752.642218,2296.18099 752.804979,2295.36719 C753.781546,2292.68163 754.269823,2290.32162 754.269823,2288.28711 L754.269823,2288.04297 L754.147752,2288.04297 Z M781.003221,2291.58301 C780.108034,2292.55958 779.41631,2293.12923 778.928026,2293.29199 C782.590154,2294.1058 785.357053,2294.8789 787.228807,2295.61133 C787.472949,2295.61133 789.059847,2296.22167 791.989549,2297.44238 L791.989549,2297.32031 C791.989549,2296.26236 791.501273,2295.57064 790.524706,2295.24512 C787.920526,2293.86165 785.397765,2292.80371 782.956346,2292.07129 C782.305301,2291.82715 781.654266,2291.66439 781.003221,2291.58301 Z M969.546777,2169.02441 C975.731703,2169.02441 979.800673,2169.51269 981.753808,2170.48926 C986.636645,2172.36101 989.9732,2175.00584 991.763573,2178.42383 C992.251857,2179.23763 992.495995,2180.09212 992.495995,2180.9873 L992.495995,2181.23145 C992.495995,2183.18458 991.763581,2185.30044 990.29873,2187.5791 C987.369028,2188.63705 984.439369,2189.16602 981.509667,2189.16602 C967.105298,2191.85158 954.77632,2194.49641 944.522363,2197.10059 C942.976131,2197.58887 940.209231,2198.15853 936.221581,2198.80957 C933.780163,2199.05371 931.867747,2199.17578 930.484277,2199.17578 L931.582909,2200.15234 C931.582909,2200.23372 930.19946,2200.43717 927.432519,2200.7627 C920.433786,2201.25098 915.510333,2201.82063 912.662011,2202.47168 C912.58063,2202.55306 911.726147,2202.75651 910.098534,2203.08203 L910.098534,2203.2041 C919.294544,2206.54071 929.629727,2209.99933 941.104394,2213.58008 L948.672753,2216.14355 C951.276933,2216.63184 953.189349,2217.20149 954.410058,2217.85254 C954.898342,2218.0153 955.223859,2218.25944 955.38662,2218.58496 C955.712143,2219.07324 955.874902,2220.21256 955.874902,2222.00293 C957.01423,2225.5023 957.583886,2227.82161 957.583886,2228.96094 L957.583886,2230.66992 C957.583886,2231.40235 957.421127,2231.76855 957.095605,2231.76855 C954.572806,2233.31479 950.829353,2234.98306 945.865136,2236.77344 C942.609911,2237.75 940.412668,2238.23828 939.273339,2238.23828 C924.136545,2240.51694 911.35998,2243.12108 900.943261,2246.05078 C897.525275,2247.02735 894.351479,2247.96321 891.421777,2248.8584 C891.421777,2248.93978 891.991432,2249.42806 893.130761,2250.32324 C891.421768,2251.54395 889.997629,2252.72395 888.8583,2253.86328 C888.614158,2254.10742 887.881744,2255.49087 886.661034,2258.01367 C885.277564,2260.04819 884.260322,2262.48957 883.609277,2265.33789 L882.510644,2268.63379 C882.185121,2270.50554 881.900293,2272.94693 881.656152,2275.95801 C881.574771,2276.36491 881.452702,2276.56836 881.289941,2276.56836 C880.638896,2276.56836 880.191309,2277.42284 879.947167,2279.13184 C878.807839,2283.36363 878.238183,2286.21191 878.238183,2287.67676 C877.342996,2292.9665 876.895409,2296.30305 876.895409,2297.68652 L876.895409,2297.93066 C876.895409,2300.20932 877.383686,2301.95898 878.360253,2303.17969 C878.929917,2304.15625 879.784401,2305.1735 880.92373,2306.23145 L880.069238,2301.71484 C879.987857,2301.14518 879.947167,2300.37208 879.947167,2299.39551 L879.947167,2298.78516 C879.947167,2298.13411 880.028547,2296.91342 880.191308,2295.12305 C880.191308,2294.472 879.987859,2293.45476 879.580956,2292.07129 C879.580956,2291.66439 879.987853,2290.85059 880.801659,2289.62988 C881.778227,2287.75813 882.266503,2286.04916 882.266503,2284.50293 L882.266503,2283.89258 L882.022363,2280.59668 C882.022363,2275.55108 883.609261,2269.28487 886.783105,2261.79785 C888.166575,2258.78677 889.916232,2256.22332 892.032128,2254.10742 C892.27627,2253.94466 892.561098,2253.25294 892.88662,2252.03223 C893.130762,2251.54394 893.537659,2251.2998 894.107323,2251.2998 C895.572175,2251.46257 896.304589,2252.1136 896.304589,2253.25293 C896.304589,2253.74121 895.490795,2255.65363 893.863183,2258.99023 C891.340384,2264.11721 889.18383,2269.12205 887.393456,2274.00488 C884.952038,2280.84085 883.731347,2287.26983 883.731347,2293.29199 C883.731347,2298.01207 884.504451,2302.93552 886.050683,2308.0625 L886.172753,2308.0625 C889.590739,2307.98112 899.722474,2304.27836 916.568261,2296.9541 C925.438748,2292.96645 931.786341,2289.79266 935.61123,2287.43262 C936.9947,2286.37467 938.825737,2285.31674 941.104394,2284.25879 C945.010663,2282.63118 948.18446,2281.81738 950.625878,2281.81738 L951.114159,2281.81738 C952.49763,2281.81738 953.474183,2282.1429 954.043847,2282.79395 C954.206608,2283.11947 954.287988,2283.48568 954.287988,2283.89258 C953.962465,2286.334 953.799706,2287.71745 953.799706,2288.04297 L953.799706,2288.53125 C953.799706,2288.69401 953.881086,2289.06022 954.043847,2289.62988 C951.276906,2290.93197 948.469317,2292.72232 945.620995,2295.00098 C945.051331,2295.65202 944.766503,2296.01823 944.766503,2296.09961 C945.336167,2296.09961 946.516169,2295.69271 948.306542,2294.87891 L951.968652,2292.19336 C952.375555,2291.86784 952.863831,2291.58301 953.433495,2291.33887 L953.433495,2291.46094 C953.352115,2291.6237 953.311425,2291.90853 953.311425,2292.31543 C953.555567,2294.34995 953.677636,2295.48926 953.677636,2295.7334 C953.433494,2297.27963 951.27694,2299.68032 947.207909,2302.93555 C942.650595,2306.35353 937.727142,2309.32388 932.437402,2311.84668 C928.042848,2314.12534 923.038016,2316.32258 917.422753,2318.43848 L917.422753,2317.33984 C916.039283,2318.07227 914.411695,2318.68261 912.539941,2319.1709 C911.07509,2319.5778 908.918536,2319.86263 906.070214,2320.02539 C903.791557,2320.59505 902.0419,2321.16471 900.821191,2321.73438 C899.763243,2322.54818 898.217034,2323.19922 896.182519,2323.6875 C889.916211,2324.58269 884.829999,2325.64062 880.92373,2326.86133 C880.92373,2326.94271 880.760971,2326.9834 880.435448,2326.9834 C876.447798,2326.9834 873.274002,2325.88478 870.913964,2323.6875 C863.589709,2317.99086 859.927636,2309.20188 859.927636,2297.32031 C859.927636,2286.49669 862.938674,2273.31323 868.960839,2257.76953 L868.716698,2257.76953 C867.170467,2257.76953 865.827707,2256.38608 864.688378,2253.61914 C864.118714,2252.56119 863.467679,2250.60809 862.735253,2247.75977 L862.369042,2246.05078 C862.450423,2244.26041 862.613182,2242.47006 862.857323,2240.67969 L862.857323,2240.55762 C862.857323,2240.39486 862.898013,2240.31348 862.979394,2240.31348 L862.857323,2240.06934 L862.857323,2239.8252 C862.857323,2239.01139 863.101462,2237.66863 863.589745,2235.79688 C863.671126,2234.57617 863.955954,2233.96582 864.444238,2233.96582 C866.315992,2233.23339 869.449098,2232.33822 873.843652,2231.28027 C875.878167,2230.71061 876.895409,2230.30371 876.895409,2230.05957 L876.895409,2229.81543 C876.895409,2229.57129 876.407133,2229.44922 875.430566,2229.44922 L875.064355,2229.44922 C874.331929,2229.44922 872.541583,2229.89681 869.693261,2230.79199 C867.170462,2231.44304 865.664943,2231.76855 865.176659,2231.76855 C865.013898,2231.03613 864.932519,2230.46647 864.932519,2230.05957 C865.176661,2229.083 865.380109,2228.59473 865.54287,2228.59473 L866.153222,2227.37402 C877.383747,2224.68846 893.252729,2221.47398 913.760644,2217.73047 C920.189712,2216.50976 925.642132,2215.61459 930.118066,2215.04492 L930.118066,2214.92285 C923.688997,2213.13248 914.411746,2210.85385 902.286034,2208.08691 C898.379765,2207.02897 894.758382,2206.05241 891.421777,2205.15723 C890.52659,2205.23861 889.753486,2205.2793 889.102441,2205.2793 L888.125878,2205.2793 C883.487183,2205.2793 879.8658,2203.40757 877.26162,2199.66406 C875.715389,2197.14126 874.820215,2194.45574 874.576073,2191.60742 C874.576073,2190.95638 874.006418,2188.84051 872.867089,2185.25977 C872.785708,2184.93424 872.704329,2184.40528 872.622948,2183.67285 C872.622948,2182.37076 873.355363,2181.4349 874.820214,2180.86523 C877.749916,2179.56314 884.056819,2178.01694 893.741113,2176.22656 C903.588167,2174.35481 918.399217,2172.48308 938.174706,2170.61133 C951.032843,2169.55338 961.490096,2169.02441 969.546777,2169.02441 Z M912.41787,2178.17969 L912.41787,2178.30176 C912.41787,2178.87142 913.109595,2179.15625 914.493066,2179.15625 L914.737206,2179.15625 C919.294521,2178.74935 924.665561,2178.26107 930.850488,2177.69141 C932.152577,2177.36588 933.454648,2177.20312 934.756738,2177.20312 C935.08226,2177.20312 936.058813,2177.2845 937.686425,2177.44727 C938.011947,2177.36589 938.174706,2177.20313 938.174706,2176.95898 C938.174706,2175.98242 936.994705,2175.49414 934.634667,2175.49414 L932.803613,2175.49414 C926.618686,2175.49414 920.271093,2176.0638 913.760644,2177.20312 C912.865457,2177.44727 912.41787,2177.77278 912.41787,2178.17969 Z M881.16787,2184.16113 C881.493393,2185.05632 882.266497,2185.5446 883.487206,2185.62598 C885.603102,2185.62598 887.759656,2185.1377 889.956933,2184.16113 C891.991448,2183.34733 895.409383,2182.49284 900.210839,2181.59766 C904.27987,2180.86523 907.00608,2180.2142 908.38955,2179.64453 L908.38955,2179.03418 C908.145408,2178.62728 907.290925,2178.42383 905.826073,2178.42383 L905.093652,2178.42383 C904.523987,2178.42383 902.530192,2178.83073 899.112206,2179.64453 C896.019743,2180.29558 892.072842,2180.82454 887.271386,2181.23145 C885.481012,2181.31283 883.568597,2181.92317 881.534081,2183.0625 C881.289939,2183.4694 881.16787,2183.83561 881.16787,2184.16113 Z M897.891503,2224.07812 C897.647361,2224.24089 897.525292,2224.48502 897.525292,2224.81055 C897.606673,2224.97331 897.769432,2225.05469 898.013573,2225.05469 L898.135644,2225.05469 C898.379786,2225.05469 898.501855,2224.93262 898.501855,2224.68848 L898.501855,2224.56641 C898.501855,2224.24088 898.298406,2224.07812 897.891503,2224.07812 Z M893.374902,2225.78711 L893.374902,2225.90918 C893.374902,2226.2347 893.53766,2226.39746 893.863183,2226.39746 C894.188705,2226.39746 894.432843,2226.2347 894.595605,2225.90918 C894.514224,2225.50228 894.351465,2225.29883 894.107323,2225.29883 L893.863183,2225.29883 C893.53766,2225.29883 893.374902,2225.46159 893.374902,2225.78711 Z M888.98037,2227.12988 C888.98037,2227.37402 889.06175,2227.53678 889.224511,2227.61816 L889.468652,2227.61816 C889.956935,2227.61816 890.201073,2227.33334 890.201073,2226.76367 L890.201073,2226.6416 C890.119693,2226.39746 889.956934,2226.27539 889.712792,2226.27539 C889.224509,2226.27539 888.98037,2226.56022 888.98037,2227.12988 Z M881.16787,2229.81543 C881.16787,2230.05957 881.412009,2230.26302 881.900292,2230.42578 L882.022363,2230.42578 C882.99893,2230.42578 884.219621,2229.89682 885.684472,2228.83887 C886.172756,2228.35058 886.416894,2227.903 886.416894,2227.49609 C886.172752,2227.00781 885.928614,2226.76367 885.684472,2226.76367 C883.731337,2227.33334 882.225818,2228.2692 881.16787,2229.57129 L881.16787,2229.81543 Z M900.088769,2247.88184 C900.170149,2247.88184 900.332908,2247.96322 900.57705,2248.12598 C900.57705,2249.18392 899.885325,2250.03841 898.501855,2250.68945 C898.094952,2250.77083 897.688055,2250.81152 897.281152,2250.81152 L897.159081,2250.81152 C896.670798,2250.81152 896.426659,2250.60807 896.426659,2250.20117 L896.426659,2249.95703 C896.426659,2249.14323 897.443902,2248.4515 899.478417,2247.88184 L900.088769,2247.88184 Z M941.348534,2297.93066 C942.406482,2297.84928 943.342345,2297.4017 944.156152,2296.58789 L944.156152,2296.46582 C943.179584,2296.46582 942.243721,2296.9541 941.348534,2297.93066 Z M933.780175,2301.10449 L933.780175,2301.22656 L934.756738,2301.22656 C936.628492,2301.22656 938.21539,2300.37208 939.51748,2298.66309 L939.029198,2298.54102 C936.831922,2298.54102 935.082265,2299.3955 933.780175,2301.10449 Z M932.193261,2302.20312 L932.315331,2302.20312 C933.047757,2301.95898 933.413964,2301.71484 933.413964,2301.4707 L933.291894,2301.4707 C932.884991,2301.4707 932.518783,2301.71484 932.193261,2302.20312 Z M996.713379,2159.74707 L996.835449,2159.74707 C999.032726,2159.82845 1000.13135,2159.99121 1000.13135,2160.23535 C1000.13135,2160.47949 1000.74169,2161.04915 1001.9624,2161.94434 C1001.9624,2162.26986 1002.81689,2162.55469 1004.52588,2162.79883 C1005.90935,2163.36849 1007.45556,2164.34505 1009.16455,2165.72852 C1010.79216,2166.54232 1013.64044,2167.84439 1017.70947,2169.63477 C1017.70947,2169.71615 1017.87223,2169.75684 1018.19775,2169.75684 C1019.09294,2169.59407 1019.58122,2169.5127 1019.6626,2169.5127 C1020.63917,2169.5127 1021.73779,2171.4658 1022.9585,2175.37207 C1023.7723,2177.56935 1024.50472,2178.83073 1025.15576,2179.15625 C1026.62061,2179.88868 1027.35303,2180.41764 1027.35303,2180.74316 C1030.93377,2187.82328 1034.67723,2196.89708 1038.5835,2207.96484 C1039.56006,2210.73178 1041.06558,2214.06834 1043.1001,2217.97461 C1048.38984,2228.39133 1053.47605,2238.60444 1058.35889,2248.61426 L1058.35889,2249.34668 C1058.35889,2249.59082 1058.64371,2250.68944 1059.21338,2252.64258 C1059.21338,2253.375 1059.66097,2254.51432 1060.55615,2256.06055 L1062.021,2259.60059 L1063.97412,2261.06543 L1064.4624,2261.06543 C1069.9149,2235.02363 1074.51284,2213.74292 1078.25635,2197.22266 C1080.29086,2188.92183 1082.1219,2180.377 1083.74951,2171.58789 C1084.31918,2169.22785 1084.92952,2167.4782 1085.58057,2166.33887 C1086.7199,2164.54849 1088.34748,2163.65332 1090.46338,2163.65332 C1092.74204,2163.65332 1095.75307,2164.54849 1099.49658,2166.33887 C1099.90349,2166.74577 1100.59521,2167.64094 1101.57178,2169.02441 L1102.18213,2169.5127 C1101.93799,2170.89617 1101.57178,2173.70375 1101.0835,2177.93555 C1100.26969,2182.49286 1099.29314,2186.39907 1098.15381,2189.6543 C1097.58414,2190.95639 1097.13656,2192.58397 1096.81104,2194.53711 C1096.56689,2196.32748 1096.44482,2197.4261 1096.44482,2197.83301 L1096.44482,2197.95508 L1096.56689,2197.83301 C1096.64828,2197.91439 1096.68896,2197.99577 1096.68896,2198.07715 C1094.97997,2208.08696 1094.12549,2214.76007 1094.12549,2218.09668 C1094.04411,2218.09668 1093.88135,2220.0091 1093.63721,2223.83398 C1094.04411,2226.92645 1094.4917,2228.47266 1094.97998,2228.47266 C1094.97998,2228.63542 1095.22412,2228.7168 1095.7124,2228.7168 C1096.28207,2228.7168 1096.60758,2227.82162 1096.68896,2226.03125 C1096.44482,2222.69464 1096.32275,2220.74154 1096.32275,2220.17188 L1096.32275,2219.80566 C1096.32275,2218.01529 1096.85172,2215.41115 1097.90967,2211.99316 C1098.15381,2211.09798 1098.27588,2210.28418 1098.27588,2209.55176 C1098.1945,2206.62206 1098.15381,2204.83171 1098.15381,2204.18066 C1098.39795,2202.39029 1098.92692,2199.5827 1099.74072,2195.75781 C1099.8221,2193.88606 1100.47314,2191.28192 1101.69385,2187.94531 L1101.57178,2187.33496 L1101.57178,2184.64941 C1101.57178,2184.32389 1101.53109,2184.12044 1101.44971,2184.03906 L1101.20557,2184.03906 L1103.03662,2176.22656 C1103.76905,2173.37824 1104.3387,2171.5472 1104.74561,2170.7334 C1105.15251,2170.48926 1105.43734,2170.36719 1105.6001,2170.36719 L1105.96631,2170.36719 C1106.8615,2170.36719 1107.55322,2171.38443 1108.0415,2173.41895 L1108.0415,2173.54102 C1106.25113,2182.4115 1103.85044,2196.40876 1100.83936,2215.5332 C1095.46823,2248.24821 1091.43995,2272.29582 1088.75439,2287.67676 C1085.33641,2307.53363 1082.36606,2322.87364 1079.84326,2333.69727 C1079.19222,2336.38283 1078.50049,2338.458 1077.76807,2339.92285 C1076.05907,2339.92285 1072.68183,2339.23113 1067.63623,2337.84766 C1063.89272,2337.03385 1061.24789,2336.22006 1059.70166,2335.40625 C1055.63263,2333.20897 1053.59814,2329.38414 1053.59814,2323.93164 L1053.59814,2322.4668 C1053.59814,2321.16471 1053.92366,2316.77022 1054.57471,2309.2832 L1054.69678,2306.10938 C1054.69678,2300.90102 1053.51678,2296.54722 1051.15674,2293.04785 C1045.867,2283.6077 1037.72906,2268.47113 1026.74268,2247.6377 C1023.16193,2241.04587 1019.49986,2234.08793 1015.75635,2226.76367 L1015.63428,2226.76367 C1015.63428,2228.22852 1015.10531,2230.62922 1014.04736,2233.96582 C1013.0708,2236.32586 1012.58252,2238.27896 1012.58252,2239.8252 C1009.81558,2267.73875 1007.78109,2286.4967 1006.479,2296.09961 C1005.99072,2300.49416 1005.42106,2304.07486 1004.77002,2306.8418 C1004.28174,2308.79493 1003.75277,2310.17838 1003.18311,2310.99219 C1002.7762,2311.64323 1002.20655,2311.96875 1001.47412,2311.96875 C998.463038,2311.64323 993.580275,2308.83564 986.825684,2303.5459 C984.221504,2301.43 982.919434,2299.92448 982.919434,2299.0293 C982.105627,2296.09959 981.69873,2292.15269 981.69873,2287.18848 L981.69873,2286.21191 C981.69873,2276.52762 983.529767,2260.21105 987.191895,2237.26172 C989.714694,2221.7994 991.830558,2207.15111 993.539551,2193.31641 C994.271976,2185.50387 994.638184,2179.31903 994.638184,2174.76172 L994.638184,2167.4375 C994.638184,2164.18228 995.289219,2161.65951 996.591309,2159.86914 L996.713379,2159.74707 Z M1048.34912,2241.90039 C1048.8374,2243.93491 1049.6512,2245.48111 1050.79053,2246.53906 C1051.60433,2247.35287 1052.29606,2247.75977 1052.86572,2247.75977 C1053.10986,2247.84115 1053.31331,2247.88184 1053.47607,2247.88184 C1054.04574,2247.55631 1054.33057,2247.14942 1054.33057,2246.66113 L1054.33057,2246.53906 C1053.67952,2244.34179 1052.29607,2242.51075 1050.18018,2241.0459 C1049.77327,2240.72038 1049.52913,2240.55762 1049.44775,2240.55762 L1049.20361,2240.55762 C1048.79671,2240.55762 1048.55257,2240.88313 1048.47119,2241.53418 C1048.47119,2241.61556 1048.4305,2241.73763 1048.34912,2241.90039 Z M1000.86377,2284.625 C1000.86377,2284.78776 1000.90446,2285.19466 1000.98584,2285.8457 L1000.98584,2287.79883 C1000.98584,2289.83334 1001.39274,2291.70507 1002.20654,2293.41406 L1002.32861,2293.41406 C1003.30518,2291.21679 1003.79346,2289.30437 1003.79346,2287.67676 C1003.79346,2287.18847 1003.75277,2285.92709 1003.67139,2283.89258 C1004.24105,2276.08004 1004.60726,2272.17383 1004.77002,2272.17383 C1005.99073,2265.9889 1006.60107,2261.71648 1006.60107,2259.35645 C1007.3335,2255.53156 1007.94385,2251.86948 1008.43213,2248.37012 C1007.53694,2249.42807 1006.88591,2250.56738 1006.479,2251.78809 C1006.15348,2252.52051 1005.78727,2254.555 1005.38037,2257.8916 C1004.89209,2260.0075 1003.99691,2263.91371 1002.69482,2269.61035 C1002.20654,2272.13315 1001.5962,2277.13798 1000.86377,2284.625 Z M1053.84229,2252.1543 C1053.84229,2253.04948 1054.1678,2253.49707 1054.81885,2253.49707 L1055.18506,2253.49707 C1055.67334,2253.33431 1055.91748,2253.09017 1055.91748,2252.76465 L1055.91748,2252.52051 C1055.8361,2251.86946 1055.51058,2251.54395 1054.94092,2251.54395 L1054.81885,2251.54395 C1054.1678,2251.54395 1053.84229,2251.74739 1053.84229,2252.1543 Z M1056.52783,2258.74609 L1056.52783,2258.86816 C1056.69059,2259.51921 1056.97542,2259.84473 1057.38232,2259.84473 C1057.87061,2259.5192 1058.11475,2259.19369 1058.11475,2258.86816 L1058.11475,2258.74609 C1058.03337,2258.17643 1057.78923,2257.8916 1057.38232,2257.8916 C1056.81266,2257.8916 1056.52783,2258.17643 1056.52783,2258.74609 Z M1059.21338,2264.72754 C1059.21338,2265.21582 1059.33545,2265.45996 1059.57959,2265.45996 C1060.23063,2265.45996 1060.59684,2265.21582 1060.67822,2264.72754 C1060.67822,2264.23926 1060.43408,2263.99512 1059.9458,2263.99512 L1059.82373,2263.99512 C1059.41683,2263.99512 1059.21338,2264.23926 1059.21338,2264.72754 Z M1073.73975,2335.77246 C1073.73975,2336.17936 1074.14664,2336.38281 1074.96045,2336.38281 C1075.61149,2335.56901 1076.54736,2332.68004 1077.76807,2327.71582 C1078.98878,2322.42608 1080.25016,2315.50883 1081.55225,2306.96387 L1083.13916,2301.4707 C1083.62744,2299.27343 1083.87158,2297.8086 1083.87158,2297.07617 C1083.87158,2296.01822 1083.46469,2295.48926 1082.65088,2295.48926 C1081.83707,2295.48926 1081.3488,2296.18098 1081.18604,2297.56445 C1080.04671,2302.20315 1079.47705,2305.45832 1079.47705,2307.33008 C1078.90739,2310.99221 1078.01221,2315.79359 1076.7915,2321.73438 C1076.05908,2325.15236 1075.16391,2328.69236 1074.10596,2332.35449 C1073.86182,2334.47039 1073.73975,2335.6097 1073.73975,2335.77246 Z M1204.54404,2144.73242 C1206.90408,2144.73242 1211.74616,2148.39449 1219.07041,2155.71875 C1220.45388,2157.02084 1221.14561,2157.9567 1221.14561,2158.52637 C1221.38975,2159.17741 1221.51182,2159.95052 1221.51182,2160.8457 C1221.51182,2163.28712 1221.06423,2165.60643 1220.16904,2167.80371 C1220.00628,2168.12923 1219.35525,2168.86165 1218.21592,2170.00098 C1214.79793,2174.72105 1211.42069,2180.74313 1208.08408,2188.06738 C1207.35166,2189.61361 1206.98545,2190.42741 1206.98545,2190.50879 L1206.86338,2190.50879 C1207.43304,2187.82323 1208.12477,2185.34116 1208.93857,2183.0625 C1210.0779,2180.1328 1211.70549,2176.91831 1213.82139,2173.41895 C1214.55381,2171.70995 1215.81519,2170.40788 1217.60557,2169.5127 C1218.01247,2169.18717 1218.21592,2168.90234 1218.21592,2168.6582 L1218.21592,2168.29199 C1218.21592,2167.64095 1217.8904,2167.23405 1217.23936,2167.07129 L1217.11729,2167.07129 C1216.54762,2167.07129 1215.89659,2167.68163 1215.16416,2168.90234 C1204.9102,2182.49291 1199.7833,2194.00809 1199.7833,2203.44824 L1199.7833,2204.30273 C1199.7833,2209.26695 1201.3702,2213.8242 1204.54404,2217.97461 L1204.54404,2218.09668 C1204.21852,2219.64291 1204.05576,2220.8636 1204.05576,2221.75879 C1205.11371,2220.78222 1205.68337,2220.00912 1205.76475,2219.43945 L1205.88682,2219.31738 C1206.70062,2220.13119 1207.962,2220.82291 1209.671,2221.39258 C1210.56618,2222.04362 1211.37998,2222.73535 1212.1124,2223.46777 L1212.1124,2223.58984 C1209.5896,2224.64779 1206.65995,2225.17676 1203.32334,2225.17676 C1196.73151,2225.17676 1190.01771,2223.38641 1183.18174,2219.80566 C1181.39137,2218.8291 1179.35688,2217.2422 1177.07822,2215.04492 C1174.6368,2212.35936 1173.41611,2209.67384 1173.41611,2206.98828 C1173.57888,2203.00063 1173.66025,2200.31511 1173.66025,2198.93164 L1173.66025,2198.6875 C1173.66025,2198.2806 1173.94508,2197.4668 1174.51475,2196.24609 L1175.1251,2194.65918 C1173.66025,2195.71713 1171.8699,2197.50747 1169.754,2200.03027 C1164.87117,2205.97106 1160.76151,2211.62693 1157.4249,2216.99805 C1150.26341,2228.39133 1144.24133,2239.41824 1139.3585,2250.0791 C1136.59156,2255.93851 1134.31293,2261.30955 1132.52256,2266.19238 C1131.30185,2274.73735 1130.16254,2280.14908 1129.10459,2282.42773 C1128.77907,2285.76434 1128.37217,2288.2871 1127.88389,2289.99609 C1127.55837,2291.86785 1127.39561,2293.49544 1127.39561,2294.87891 L1127.39561,2295.48926 C1127.39561,2298.41896 1128.49423,2300.37207 1130.6915,2301.34863 C1131.91221,2301.83692 1133.45842,2302.08105 1135.33018,2302.08105 C1138.1785,2302.08105 1142.41023,2301.55209 1148.02549,2300.49414 C1150.30415,2298.78515 1152.13518,2297.76791 1153.51865,2297.44238 L1149.36826,2297.44238 L1149.36826,2297.32031 C1153.8442,2296.42513 1160.68007,2292.5596 1169.87607,2285.72363 C1178.74656,2278.56214 1183.50726,2274.98145 1184.1583,2274.98145 C1187.33215,2273.67936 1189.04111,2273.02832 1189.28525,2273.02832 C1185.70451,2272.13313 1183.42588,2271.27865 1182.44932,2270.46484 C1181.55413,2269.65104 1180.86241,2268.26759 1180.37412,2266.31445 C1180.0486,2264.60546 1179.88584,2261.71649 1179.88584,2257.64746 C1179.72308,2255.69433 1179.51963,2254.71777 1179.27549,2254.71777 C1179.27549,2253.09016 1189.8955,2250.93361 1211.13584,2248.24805 L1211.50205,2248.24805 C1213.29243,2248.24805 1215.61174,2249.67219 1218.46006,2252.52051 C1220.65734,2255.12469 1221.75596,2257.68814 1221.75596,2260.21094 L1221.75596,2260.57715 C1221.75596,2261.6351 1221.5932,2262.24544 1221.26768,2262.4082 C1219.88421,2263.79167 1218.82627,2265.45995 1218.09385,2267.41309 C1217.52418,2269.36622 1217.23936,2270.54622 1217.23936,2270.95312 C1217.32074,2271.52279 1217.56488,2271.80762 1217.97178,2271.80762 L1218.09385,2271.80762 C1218.98904,2271.80762 1219.55869,2271.40072 1219.80283,2270.58691 C1219.96559,2269.12206 1220.16904,2268.14551 1220.41318,2267.65723 C1220.82009,2266.84342 1221.30836,2265.98894 1221.87803,2265.09375 C1223.01736,2265.66341 1223.58701,2266.15169 1223.58701,2266.55859 L1223.58701,2266.68066 C1223.58701,2266.84343 1223.13943,2267.53515 1222.24424,2268.75586 C1220.2911,2272.58075 1218.13455,2277.30075 1215.77451,2282.91602 C1213.33309,2291.54236 1209.50826,2306.84169 1204.2999,2328.81445 C1199.90535,2347.04371 1197.13845,2358.96579 1195.99912,2364.58105 C1195.02255,2372.14945 1193.96462,2376.54394 1192.82529,2377.76465 L1192.45908,2378.00879 C1191.23837,2377.76465 1190.54665,2377.5612 1190.38389,2377.39844 C1190.95355,2374.55012 1191.72666,2370.31839 1192.70322,2364.70312 C1193.19151,2362.83137 1193.92392,2360.87827 1194.90049,2358.84375 C1195.38877,2357.7858 1195.95843,2355.75132 1196.60947,2352.74023 C1196.85362,2351.92643 1197.09775,2350.01401 1197.3419,2347.00293 C1200.10884,2336.42345 1201.49229,2330.84896 1201.49229,2330.2793 L1201.12607,2329.91309 C1200.63779,2329.91309 1200.06814,2331.17447 1199.41709,2333.69727 C1197.05705,2341.1029 1195.55153,2345.70084 1194.90049,2347.49121 C1194.57497,2348.30502 1194.00531,2349.32226 1193.1915,2350.54297 L1193.1915,2350.90918 C1193.35427,2351.80437 1193.43565,2352.57747 1193.43565,2353.22852 C1193.43565,2354.69337 1192.94737,2357.74509 1191.9708,2362.38379 C1191.07561,2365.23211 1190.09906,2367.67349 1189.04111,2369.70801 C1188.71559,2370.11491 1188.55283,2370.39974 1188.55283,2370.5625 C1188.55283,2370.72526 1188.79697,2371.29492 1189.28525,2372.27148 C1189.44802,2372.59701 1189.5294,2372.96321 1189.5294,2373.37012 C1189.20387,2375.64877 1189.00042,2376.78809 1188.91904,2376.78809 C1187.12867,2376.05566 1184.40246,2374.50945 1180.74033,2372.14941 C1179.76377,2370.84732 1178.99066,2369.58594 1178.421,2368.36523 C1177.85133,2366.819 1177.5665,2365.76107 1177.5665,2365.19141 C1177.5665,2360.38995 1178.54306,2352.2927 1180.49619,2340.89941 C1182.93761,2326.57643 1185.7452,2311.56193 1188.91904,2295.85547 L1188.79697,2295.85547 C1177.07816,2301.95901 1166.94643,2306.71971 1158.40147,2310.1377 C1145.38057,2315.34605 1134.5978,2317.9502 1126.05283,2317.9502 C1114.74093,2317.9502 1107.13195,2313.43364 1103.22568,2304.40039 C1102.49326,2302.6914 1101.84222,2300.53484 1101.27256,2297.93066 L1100.41807,2293.41406 L1100.17393,2293.53613 C1099.8484,2292.23404 1099.68565,2290.48439 1099.68565,2288.28711 C1099.68565,2284.70636 1100.05185,2279.94567 1100.78428,2274.00488 C1103.55122,2264.07645 1106.56226,2255.32816 1109.81748,2247.75977 C1115.92103,2232.70435 1122.79759,2218.58503 1130.44736,2205.40137 C1134.10949,2199.13506 1138.38191,2192.54333 1143.26475,2185.62598 C1146.11307,2181.55695 1149.97859,2176.79625 1154.86143,2171.34375 C1166.33609,2159.13666 1176.50852,2153.0332 1185.379,2153.0332 L1186.35557,2153.0332 C1188.47146,2153.0332 1190.79078,2153.52148 1193.31357,2154.49805 C1195.34809,2152.13801 1197.34189,2150.14421 1199.29502,2148.5166 C1202.06196,2145.9938 1203.81162,2144.73242 1204.54404,2144.73242 Z M1112.50303,2254.35156 L1112.50303,2254.47363 C1112.50303,2254.79916 1112.6251,2255.04329 1112.86924,2255.20605 C1113.84581,2254.71777 1114.33408,2253.8226 1114.33408,2252.52051 C1114.98513,2250.8929 1116.24651,2247.55634 1118.11826,2242.51074 C1121.86177,2233.07059 1126.78522,2223.38644 1132.88877,2213.45801 C1135.73709,2208.81931 1139.35847,2203.52965 1143.75303,2197.58887 C1146.60135,2193.27569 1150.22273,2188.59638 1154.61729,2183.55078 C1159.1746,2178.74932 1162.30771,2175.6976 1164.0167,2174.39551 C1165.23741,2173.41894 1167.06845,2171.70997 1169.50986,2169.26855 C1169.50986,2169.18717 1170.20159,2168.41407 1171.58506,2166.94922 C1171.99196,2166.54232 1172.19541,2166.09473 1172.19541,2165.60645 C1172.19541,2164.87402 1171.95127,2164.46712 1171.46299,2164.38574 C1170.81194,2164.38574 1170.12022,2164.87402 1169.38779,2165.85059 C1166.86499,2168.45477 1164.26085,2170.89615 1161.57529,2173.1748 C1160.02906,2174.55828 1157.5063,2177.04035 1154.00693,2180.62109 C1150.99585,2183.79494 1148.79861,2186.43977 1147.41514,2188.55566 C1145.70614,2191.24122 1144.36338,2193.19433 1143.38682,2194.41504 C1139.96883,2198.72821 1136.9171,2203.00063 1134.23154,2207.23242 C1132.60393,2210.2435 1129.91841,2214.71937 1126.1749,2220.66016 C1122.67554,2226.7637 1119.90864,2232.41957 1117.87412,2237.62793 C1115.75823,2243.24319 1114.45616,2246.7832 1113.96787,2248.24805 C1113.64235,2249.7129 1113.35752,2251.09635 1113.11338,2252.39844 C1112.70648,2253.21224 1112.50303,2253.86328 1112.50303,2254.35156 Z M1197.21982,2189.6543 L1197.21982,2190.14258 C1198.44053,2188.75911 1199.57985,2186.806 1200.63779,2184.2832 C1201.53298,2182.08593 1202.59091,2178.87144 1203.81162,2174.63965 C1204.13714,2174.06998 1204.2999,2173.58171 1204.2999,2173.1748 L1203.56748,2173.1748 C1202.75368,2173.33757 1201.73643,2174.72102 1200.51572,2177.3252 C1199.86468,2178.70867 1199.25433,2180.49901 1198.68467,2182.69629 C1197.7081,2185.13771 1197.21982,2187.45702 1197.21982,2189.6543 Z M1196.60947,2196.12402 L1196.60947,2197.10059 C1197.17914,2196.44954 1197.46397,2195.71713 1197.46397,2194.90332 L1197.3419,2193.92676 C1196.85361,2194.41504 1196.60947,2195.14746 1196.60947,2196.12402 Z M1193.80186,2206.62207 L1193.80186,2206.74414 C1193.80186,2207.47657 1193.96462,2208.1276 1194.29014,2208.69727 C1195.42947,2207.7207 1195.99912,2206.50001 1195.99912,2205.03516 L1195.99912,2204.79102 C1195.99912,2204.30273 1195.91774,2203.69239 1195.75498,2202.95996 L1195.63291,2202.95996 C1194.4122,2204.01791 1193.80186,2205.2386 1193.80186,2206.62207 Z M1190.38389,2205.15723 C1190.05837,2205.40137 1189.89561,2205.76758 1189.89561,2206.25586 L1190.01768,2206.25586 C1190.3432,2206.01172 1190.50596,2205.72689 1190.50596,2205.40137 L1190.50596,2205.2793 C1190.50596,2205.19792 1190.46527,2205.15723 1190.38389,2205.15723 Z M1127.51768,2231.52441 C1129.71495,2229.32714 1130.97633,2227.21127 1131.30186,2225.17676 L1131.17979,2225.17676 C1129.71493,2225.99056 1128.657,2227.4147 1128.00596,2229.44922 C1127.76182,2230.01888 1127.59906,2230.71061 1127.51768,2231.52441 Z M1126.1749,2234.94238 C1126.98871,2234.29134 1127.39561,2233.47754 1127.39561,2232.50098 L1127.39561,2232.13477 C1126.5818,2232.86719 1126.1749,2233.80305 1126.1749,2234.94238 Z M1123.85557,2239.58105 C1123.85557,2238.68587 1124.26246,2237.79069 1125.07627,2236.89551 C1125.07627,2237.79069 1124.66937,2238.68587 1123.85557,2239.58105 Z M1121.78037,2243.97559 L1121.78037,2244.09766 C1122.26866,2243.12109 1122.55348,2242.30729 1122.63486,2241.65625 C1122.0652,2242.63282 1121.78037,2243.40592 1121.78037,2243.97559 Z M1111.16025,2256.18262 L1111.03818,2256.54883 L1111.16025,2256.54883 L1111.16025,2256.18262 Z M1110.5499,2257.76953 C1109.81748,2259.23438 1109.45127,2260.17025 1109.45127,2260.57715 L1109.57334,2260.57715 C1110.22439,2259.1123 1110.5499,2258.17643 1110.5499,2257.76953 Z M1106.15537,2270.2207 L1106.15537,2270.70898 C1107.53884,2268.83723 1108.5154,2266.07033 1109.08506,2262.4082 C1109.08506,2262.24544 1109.12575,2261.87923 1109.20713,2261.30957 C1107.17261,2264.48341 1106.15537,2267.45376 1106.15537,2270.2207 Z M1215.04209,2274.00488 L1215.04209,2274.24902 C1215.04209,2274.41178 1215.32692,2274.53385 1215.89658,2274.61523 C1217.03591,2274.61523 1217.76833,2274.16765 1218.09385,2273.27246 C1218.17523,2273.19108 1218.21592,2273.06901 1218.21592,2272.90625 C1218.21592,2272.58073 1218.05316,2272.41797 1217.72764,2272.41797 C1216.91383,2272.41797 1216.05935,2272.94693 1215.16416,2274.00488 L1215.04209,2274.00488 Z M1103.71397,2274.85938 C1103.71397,2275.10352 1103.83603,2275.30697 1104.08018,2275.46973 C1104.48708,2275.46973 1104.77191,2275.26628 1104.93467,2274.85938 C1105.09743,2274.28971 1105.17881,2273.88281 1105.17881,2273.63867 C1105.17881,2273.23177 1105.01605,2273.02832 1104.69053,2273.02832 C1104.28363,2273.02832 1104.08018,2273.23177 1104.08018,2273.63867 C1103.83603,2274.45248 1103.71397,2274.85938 1103.71397,2274.85938 Z M1183.79209,2290.60645 L1184.40244,2290.72852 L1184.52451,2290.72852 C1186.55903,2290.72852 1188.47144,2290.19955 1190.26182,2289.1416 C1190.50596,2287.92089 1190.62803,2287.18848 1190.62803,2286.94434 C1189.32594,2287.59538 1187.77973,2288.24642 1185.98936,2288.89746 C1185.09417,2289.38574 1184.36175,2289.9554 1183.79209,2290.60645 Z M1308.73701,2123.73633 L1310.56807,2123.73633 C1312.92811,2123.73633 1314.47431,2124.38736 1315.20674,2125.68945 C1315.45088,2126.25912 1315.57295,2127.07291 1315.57295,2128.13086 C1315.57295,2128.86328 1315.53226,2129.75846 1315.45088,2130.81641 C1330.34353,2128.29361 1341.98079,2127.03223 1350.36299,2127.03223 C1364.6046,2127.03223 1376.4453,2129.83982 1385.88545,2135.45508 C1388.16411,2137.00131 1389.95445,2140.29718 1391.25654,2145.34277 C1392.15173,2149.08628 1392.59932,2151.81249 1392.59932,2153.52148 C1392.59932,2154.00977 1391.74483,2154.2946 1390.03584,2154.37598 C1387.51304,2154.37598 1383.44407,2153.31804 1377.82881,2151.20215 C1375.14325,2150.38834 1372.45773,2149.98145 1369.77217,2149.98145 C1366.43556,2149.98145 1360.08797,2150.91731 1350.7292,2152.78906 C1346.09051,2153.60287 1340.02774,2154.45735 1332.54072,2155.35254 C1322.85643,2156.24773 1315.8578,2156.93945 1311.54463,2157.42773 C1312.19568,2157.42773 1312.52119,2157.50911 1312.52119,2157.67188 C1311.62601,2157.83464 1311.17842,2157.95671 1311.17842,2158.03809 C1306.05144,2183.9985 1300.84316,2207.19163 1295.55342,2227.61816 C1293.92581,2234.77966 1292.21684,2243.03967 1290.42647,2252.39844 C1290.26371,2252.39844 1290.18233,2252.5612 1290.18233,2252.88672 C1288.14781,2263.14068 1286.52022,2272.78413 1285.29951,2281.81738 C1285.05537,2284.34018 1284.60778,2287.92088 1283.95674,2292.55957 C1282.00361,2306.80118 1281.02705,2316.2005 1281.02705,2320.75781 L1281.02705,2322.10059 C1281.02705,2325.92547 1281.47464,2335.77238 1282.36983,2351.6416 L1282.36983,2353.7168 C1282.36983,2354.5306 1282.28845,2354.9375 1282.12569,2354.9375 L1280.05049,2354.9375 C1279.72497,2354.9375 1279.39945,2354.69336 1279.07393,2354.20508 C1278.42288,2353.79818 1277.9753,2353.59473 1277.73115,2353.59473 L1277.73115,2353.22852 C1277.73115,2352.41471 1278.26012,2351.2754 1279.31807,2349.81055 C1279.64359,2349.1595 1279.80635,2348.67123 1279.80635,2348.3457 L1279.80635,2347.85742 C1279.80635,2347.20638 1278.95187,2346.35189 1277.24287,2345.29395 L1277.36494,2345.17188 C1277.20218,2344.35807 1277.1208,2343.50359 1277.1208,2342.6084 L1277.1208,2342.48633 C1277.1208,2342.40495 1277.08011,2342.32357 1276.99873,2342.24219 L1277.1208,2341.87598 L1277.1208,2341.50977 C1277.1208,2339.80077 1277.56839,2337.76629 1278.46358,2335.40625 L1278.46358,2335.04004 C1278.46358,2334.71452 1278.21944,2333.90072 1277.73115,2332.59863 C1277.24287,2330.80826 1276.99873,2328.77377 1276.99873,2326.49512 L1276.99873,2325.27441 C1276.99873,2321.124 1277.40563,2317.74676 1278.21944,2315.14258 C1278.3822,2314.73568 1278.66702,2314.32878 1279.07393,2313.92188 C1279.48083,2313.10807 1279.68428,2312.33496 1279.68428,2311.60254 C1279.68428,2311.03287 1279.39945,2309.89356 1278.82979,2308.18457 C1278.50426,2306.88248 1278.34151,2305.78386 1278.34151,2304.88867 L1278.34151,2304.03418 C1278.34151,2302.81347 1278.70771,2300.86036 1279.44014,2298.1748 C1279.76566,2296.62857 1280.0098,2293.7396 1280.17256,2289.50781 C1280.57946,2286.00845 1281.10843,2282.67189 1281.75947,2279.49805 C1282.57328,2275.9173 1283.6719,2269.69178 1285.05537,2260.82129 C1285.62504,2257.4033 1285.90986,2255.16537 1285.90986,2254.10742 C1285.90986,2253.53776 1285.58435,2253.25293 1284.9333,2253.25293 C1284.1195,2253.41569 1283.7126,2253.7819 1283.7126,2254.35156 C1282.89879,2256.38608 1282.12569,2259.03091 1281.39326,2262.28613 C1280.98636,2263.75098 1280.70153,2265.82616 1280.53877,2268.51172 C1279.80635,2273.96422 1278.74841,2280.47457 1277.36494,2288.04297 C1276.46976,2292.84443 1275.69665,2298.62236 1275.04561,2305.37695 C1273.49938,2313.67778 1272.72627,2320.87985 1272.72627,2326.9834 C1272.72627,2329.26206 1272.84834,2331.29654 1273.09248,2333.08691 L1272.97041,2333.33105 L1272.97041,2340.89941 C1272.97041,2345.04983 1273.09248,2349.20017 1273.33662,2353.35059 L1273.09248,2353.35059 C1272.27868,2353.10644 1270.97661,2352.41472 1269.18623,2351.27539 C1265.84963,2348.91535 1263.73376,2346.51466 1262.83858,2344.07324 C1260.39716,2338.21384 1259.17647,2328.489 1259.17647,2314.89844 C1259.17647,2303.01687 1260.07164,2290.11823 1261.86201,2276.20215 C1262.83858,2269.77308 1264.22203,2262.08273 1266.0124,2253.13086 C1266.09378,2253.13086 1266.13447,2252.88672 1266.13447,2252.39844 L1266.0124,2252.27637 C1271.62767,2223.38625 1278.30078,2193.64208 1286.03194,2163.04297 C1272.11585,2166.62372 1259.42066,2170.52993 1247.946,2174.76172 C1239.40103,2177.85418 1234.43689,2179.40039 1233.05342,2179.40039 C1230.12372,2179.40039 1227.64165,2178.13901 1225.60713,2175.61621 C1224.22366,2173.74446 1223.53194,2171.95411 1223.53194,2170.24512 C1223.36917,2168.12922 1221.94503,2165.15887 1219.25947,2161.33398 C1219.09671,2161.17122 1219.01533,2160.96777 1219.01533,2160.72363 L1219.01533,2160.47949 C1219.01533,2158.52636 1225.28155,2155.63739 1237.81416,2151.8125 C1245.6267,2149.2897 1252.46257,2146.84832 1258.32197,2144.48828 C1266.29727,2141.72134 1276.38832,2138.95444 1288.59541,2136.1875 L1288.59541,2135.94336 C1288.59541,2134.64127 1288.47334,2132.32196 1288.2292,2128.98535 C1292.21685,2127.43912 1296.24513,2126.09636 1300.31416,2124.95703 C1303.97629,2124.14323 1306.78388,2123.73633 1308.73701,2123.73633 Z M1274.31319,2144.61035 C1276.3477,2144.28483 1277.36494,2143.87793 1277.36494,2143.38965 C1277.20218,2142.7386 1276.91735,2142.41309 1276.51045,2142.41309 C1276.02217,2142.41309 1275.28975,2143.1455 1274.31319,2144.61035 Z M1231.71065,2160.60156 C1232.52445,2160.92708 1233.33825,2161.08984 1234.15205,2161.08984 C1235.69828,2161.08984 1237.6107,2160.64226 1239.88936,2159.74707 C1248.43432,2157.06151 1255.96192,2154.09116 1262.47236,2150.83594 C1266.29725,2149.04556 1270.00002,2147.05177 1273.58076,2144.85449 L1272.97041,2144.85449 C1270.04071,2144.85449 1267.02967,2145.66829 1263.93721,2147.2959 C1262.79788,2147.86556 1259.9496,2148.88281 1255.39229,2150.34766 C1249.20736,2152.46355 1242.04597,2155.18976 1233.90791,2158.52637 C1233.58239,2158.68913 1232.84997,2159.38085 1231.71065,2160.60156 Z M1228.17061,2161.33398 L1228.17061,2161.45605 C1228.17061,2161.61882 1228.37406,2161.7002 1228.78096,2161.7002 C1229.51338,2161.7002 1230.28649,2161.37468 1231.10029,2160.72363 C1231.10029,2160.64225 1230.61202,2160.52018 1229.63545,2160.35742 L1229.26924,2160.35742 C1228.53681,2160.4388 1228.17061,2160.76432 1228.17061,2161.33398 Z M1296.0417,2207.96484 C1294.98375,2209.99936 1294.45479,2211.91177 1294.45479,2213.70215 L1294.45479,2214.67871 L1294.57686,2214.67871 C1295.79757,2212.07453 1296.40791,2210.08074 1296.40791,2208.69727 L1296.40791,2208.45312 C1296.40791,2208.29036 1296.28584,2208.1276 1296.0417,2207.96484 Z M1294.21065,2215.41113 C1292.25751,2218.58498 1291.28096,2221.92153 1291.28096,2225.4209 L1291.28096,2226.76367 L1291.40303,2226.76367 C1293.35616,2223.83397 1294.33272,2220.21259 1294.33272,2215.89941 L1294.33272,2215.41113 L1294.21065,2215.41113 Z M1289.69404,2231.89062 C1288.96162,2233.35548 1288.59541,2234.77962 1288.59541,2236.16309 C1288.67679,2236.81413 1288.71748,2237.30241 1288.71748,2237.62793 C1289.53129,2236.32584 1289.93819,2235.06446 1289.93819,2233.84375 L1289.93819,2233.11133 C1289.93819,2232.78581 1289.8975,2232.37891 1289.81611,2231.89062 L1289.69404,2231.89062 Z M1287.61885,2241.29004 C1286.31676,2243.81284 1285.66572,2246.17284 1285.66572,2248.37012 L1285.66572,2249.71289 L1285.78779,2249.71289 C1287.08988,2247.02733 1287.74092,2244.3825 1287.74092,2241.77832 C1287.65954,2241.61556 1287.61885,2241.4528 1287.61885,2241.29004 Z M1419.15557,2153.8877 C1421.02732,2153.8877 1423.59077,2155.59666 1426.846,2159.01465 C1430.26398,2163.16506 1432.37985,2166.98989 1433.19365,2170.48926 C1433.4378,2171.46583 1433.55987,2172.44238 1433.55987,2173.41895 C1433.55987,2174.23275 1432.94952,2177.56931 1431.72881,2183.42871 C1427.00874,2206.05252 1423.63149,2223.14219 1421.59697,2234.69824 C1417.69071,2256.50825 1414.80174,2271.52275 1412.92998,2279.74219 C1410.24442,2290.15891 1406.50097,2307.12651 1401.69951,2330.64551 C1400.72295,2336.26077 1399.62432,2340.73664 1398.40362,2344.07324 C1396.776,2348.30503 1395.18911,2350.4209 1393.64287,2350.4209 C1392.42216,2350.33952 1390.79458,2349.48503 1388.76006,2347.85742 C1387.53935,2346.63671 1385.749,2344.7243 1383.38897,2342.12012 C1381.67997,2340.4925 1379.93032,2339.35319 1378.13994,2338.70215 C1376.51233,2337.88834 1375.61716,2337.19662 1375.4544,2336.62695 C1374.96611,2335.65039 1374.72197,2334.22625 1374.72197,2332.35449 C1374.72197,2329.75031 1377.81439,2314.93926 1383.99932,2287.9209 C1386.68488,2276.28347 1388.84143,2265.66346 1390.46905,2256.06055 C1390.55043,2255.49088 1390.79456,2254.14812 1391.20147,2252.03223 C1374.03016,2253.90398 1363.00325,2255.16536 1358.12041,2255.81641 C1353.48172,2256.71159 1350.51137,2257.15918 1349.20928,2257.15918 L1347.13408,2257.15918 C1345.09957,2257.15918 1342.65819,2257.03711 1339.80987,2256.79297 C1338.8333,2263.22204 1337.69399,2268.63377 1336.3919,2273.02832 C1334.92705,2277.91116 1333.66567,2282.63116 1332.60772,2287.18848 C1331.63115,2292.31546 1330.89874,2295.85546 1330.41045,2297.80859 C1329.59665,2300.16863 1328.66078,2302.24381 1327.60283,2304.03418 C1324.42899,2308.9984 1320.92968,2311.48047 1317.10479,2311.48047 L1316.98272,2311.48047 C1314.62268,2311.48047 1312.26268,2310.50392 1309.90264,2308.55078 C1307.37984,2307.00455 1305.10122,2306.23145 1303.0667,2306.23145 C1302.2529,2305.9873 1301.846,2305.70248 1301.846,2305.37695 C1301.4391,2304.72591 1301.23565,2303.01694 1301.23565,2300.25 C1301.23565,2296.09959 1302.9853,2288.36855 1306.48467,2277.05664 C1308.19366,2271.60414 1309.41435,2266.76207 1310.14678,2262.53027 C1312.01853,2253.65979 1314.74474,2242.02253 1318.32549,2227.61816 C1318.73239,2226.80436 1319.05791,2225.4616 1319.30205,2223.58984 C1320.44138,2219.03253 1321.70276,2213.82425 1323.08623,2207.96484 L1323.2083,2207.96484 L1321.86553,2227.12988 C1321.86553,2227.94369 1321.9876,2228.59472 1322.23174,2229.08301 C1320.84827,2234.29137 1319.01723,2240.96448 1316.73858,2249.10254 C1315.43649,2254.39228 1314.01235,2260.37366 1312.46612,2267.04688 C1311.57093,2270.46486 1311.12334,2272.74348 1311.12334,2273.88281 C1311.12334,2275.10352 1311.73369,2276.12076 1312.9544,2276.93457 C1314.50063,2276.12076 1315.27373,2274.28973 1315.27373,2271.44141 C1315.27373,2266.55857 1316.45373,2261.22822 1318.81377,2255.4502 C1320.19724,2251.2184 1321.45862,2245.6846 1322.59795,2238.84863 C1324.0628,2231.76852 1325.73108,2224.68851 1327.60283,2217.6084 C1330.12563,2207.1103 1332.32288,2196.4496 1334.19463,2185.62598 C1334.35739,2184.24251 1334.43877,2182.89975 1334.43877,2181.59766 C1334.43877,2178.58657 1333.90981,2175.53485 1332.85186,2172.44238 L1331.99737,2179.52246 L1331.8753,2179.52246 C1331.30563,2178.46451 1331.0208,2177.36589 1331.0208,2176.22656 L1331.0208,2175.73828 C1331.0208,2174.19205 1331.71253,2171.6286 1333.096,2168.04785 C1333.42152,2166.82714 1333.74704,2165.0368 1334.07256,2162.67676 C1334.23532,2161.86295 1334.35739,2161.45605 1334.43877,2161.45605 C1336.31053,2162.26986 1337.81604,2162.67676 1338.95537,2162.67676 C1338.95537,2162.75814 1340.70503,2162.79883 1344.2044,2162.79883 C1345.26234,2162.79883 1346.48304,2163.12435 1347.86651,2163.77539 C1349.08722,2164.42644 1350.02308,2165.89126 1350.67412,2168.16992 C1351.89483,2172.48309 1352.50518,2175.98241 1352.50518,2178.66797 C1352.50518,2180.86525 1351.73207,2185.87008 1350.18584,2193.68262 C1348.47685,2203.36691 1346.27961,2216.50968 1343.59405,2233.11133 L1357.7542,2230.54785 C1366.78745,2229.89681 1374.27435,2229.16439 1380.21514,2228.35059 C1384.52831,2227.69954 1387.7428,2226.96713 1389.85869,2226.15332 C1390.10284,2225.99056 1391.0387,2225.66504 1392.66631,2225.17676 C1391.8525,2225.74642 1391.12009,2226.31608 1390.46905,2226.88574 C1390.14352,2227.21126 1389.94007,2227.74023 1389.85869,2228.47266 C1390.10284,2229.28646 1390.50973,2229.69336 1391.0794,2229.69336 C1392.30011,2229.44922 1393.76494,2228.7168 1395.47393,2227.49609 C1396.8574,2226.35677 1397.54912,2225.58366 1397.54912,2225.17676 L1397.54912,2225.05469 C1397.54912,2224.72917 1397.18292,2224.48503 1396.45049,2224.32227 L1396.32842,2224.07812 C1396.8167,2223.99674 1397.06084,2223.7933 1397.06084,2223.46777 C1399.90916,2209.79583 1401.53675,2202.10548 1401.94365,2200.39648 C1403.24574,2199.09439 1403.89678,2198.23991 1403.89678,2197.83301 C1406.50096,2186.68386 1407.88441,2180.53972 1408.04717,2179.40039 C1408.04717,2178.99349 1408.12855,2178.30176 1408.29131,2177.3252 L1408.29131,2177.20312 L1408.16924,2177.20312 L1404.99541,2185.87012 L1404.87334,2185.87012 C1407.07062,2174.96511 1408.16924,2166.94924 1408.16924,2161.82227 C1408.16924,2161.33398 1408.08786,2159.95053 1407.9251,2157.67188 C1407.9251,2155.96288 1408.73889,2154.86426 1410.36651,2154.37598 C1410.36651,2154.21322 1413.29616,2154.05046 1419.15557,2153.8877 Z M1331.63115,2180.9873 L1331.75322,2180.9873 C1330.69528,2188.31156 1329.27114,2196.53088 1327.48076,2205.64551 L1327.35869,2205.64551 L1327.35869,2203.32617 C1327.35869,2198.68748 1328.05042,2194.41506 1329.43389,2190.50879 C1329.92217,2188.71842 1330.16631,2187.17221 1330.16631,2185.87012 C1330.16631,2185.46321 1330.04424,2184.60873 1329.8001,2183.30664 C1329.8001,2182.89974 1330.41045,2182.12663 1331.63115,2180.9873 Z M1418.17901,2195.51367 C1417.52796,2200.07099 1416.87693,2207.02892 1416.22588,2216.3877 C1415.7376,2219.80568 1414.96449,2222.77603 1413.90655,2225.29883 C1413.01136,2229.2051 1412.56377,2232.50096 1412.56377,2235.18652 C1412.56377,2235.43067 1412.60446,2236.73274 1412.68584,2239.09277 C1410.97685,2248.77707 1409.87823,2255.735 1409.38994,2259.9668 L1409.38994,2260.21094 C1409.63409,2260.61784 1409.83753,2260.82129 1410.0003,2260.82129 C1410.56996,2260.82129 1411.01755,2259.72267 1411.34307,2257.52539 C1413.2962,2248.81766 1414.4762,2243.28387 1414.88311,2240.92383 C1415.37139,2238.97069 1415.98174,2237.34311 1416.71416,2236.04102 C1417.12107,2235.47135 1417.32451,2235.06445 1417.32451,2234.82031 L1417.32451,2234.4541 C1416.83623,2232.98925 1416.59209,2231.52442 1416.59209,2230.05957 C1416.91761,2224.93259 1417.20244,2221.51466 1417.44658,2219.80566 C1418.17901,2216.55044 1418.9928,2213.86492 1419.88799,2211.74902 C1420.37627,2210.85384 1420.62041,2210.28418 1420.62041,2210.04004 L1420.62041,2209.91797 C1420.62041,2209.59245 1420.37627,2209.14486 1419.88799,2208.5752 C1419.39971,2207.76139 1419.15557,2206.9476 1419.15557,2206.13379 C1419.15557,2205.80827 1419.19626,2204.38413 1419.27764,2201.86133 C1419.11488,2198.11782 1418.95212,2196.24609 1418.78936,2196.24609 C1418.46384,2195.75781 1418.26039,2195.51367 1418.17901,2195.51367 Z M1383.99932,2229.69336 C1384.16208,2230.18164 1384.40622,2230.42578 1384.73174,2230.42578 L1384.97588,2230.42578 C1385.70831,2230.3444 1386.07451,2229.97819 1386.07451,2229.32715 C1386.07451,2228.75748 1385.78969,2228.47266 1385.22002,2228.47266 C1384.40622,2228.47266 1383.99932,2228.87955 1383.99932,2229.69336 Z M1376.55303,2231.40234 C1377.12269,2231.48372 1377.61097,2231.52441 1378.01787,2231.52441 L1378.38408,2231.52441 C1379.84894,2231.52441 1381.1917,2230.99545 1382.4124,2229.9375 C1381.76136,2229.77474 1381.1917,2229.69336 1380.70342,2229.69336 L1380.45928,2229.69336 C1378.91305,2229.69336 1377.61098,2230.26302 1376.55303,2231.40234 Z M1364.59014,2233.72168 L1364.59014,2233.84375 L1367.39776,2233.84375 C1368.61847,2233.84375 1370.08329,2233.72168 1371.79229,2233.47754 C1371.87367,2233.72168 1372.11781,2233.84375 1372.52471,2233.84375 C1372.76885,2233.84375 1372.9723,2233.59961 1373.13506,2233.11133 C1374.11163,2232.78581 1375.08818,2232.21615 1376.06475,2231.40234 C1375.4137,2231.32096 1374.6406,2231.28027 1373.74541,2231.28027 C1370.73433,2231.28027 1367.6826,2232.09407 1364.59014,2233.72168 Z M1376.30889,2231.28027 L1376.30889,2231.40234 L1376.43096,2231.40234 L1376.43096,2231.28027 L1376.30889,2231.28027 Z M1343.47197,2236.28516 L1343.47197,2236.40723 C1344.93683,2236.65137 1346.40166,2236.77344 1347.86651,2236.77344 L1348.23272,2236.77344 C1350.02309,2236.77344 1352.58654,2236.48861 1355.92315,2235.91895 C1359.50389,2235.75618 1361.53838,2235.43067 1362.02666,2234.94238 C1362.2708,2234.94238 1362.92184,2234.61687 1363.97979,2233.96582 L1362.02666,2233.96582 C1356.16726,2233.96582 1349.98242,2234.73892 1343.47197,2236.28516 Z M1339.44365,2236.89551 C1340.01332,2236.97689 1340.37953,2237.01758 1340.54229,2237.01758 C1341.35609,2237.01758 1342.00713,2236.81413 1342.49541,2236.40723 C1342.08851,2236.24447 1341.68161,2236.16309 1341.27471,2236.16309 L1341.15264,2236.16309 C1340.66436,2236.16309 1340.0947,2236.40722 1339.44365,2236.89551 Z M1342.73955,2236.40723 L1342.73955,2236.5293 C1342.82093,2236.44792 1342.943,2236.40723 1343.10576,2236.40723 L1342.73955,2236.40723 Z M1400.35674,2278.52148 L1400.35674,2279.37598 C1400.60088,2279.62012 1400.76364,2279.74219 1400.84502,2279.74219 C1401.25192,2279.49805 1401.45537,2279.05046 1401.45537,2278.39941 C1401.45537,2278.23665 1401.37399,2277.99251 1401.21123,2277.66699 C1400.64157,2277.66699 1400.35674,2277.95182 1400.35674,2278.52148 Z M1403.65264,2283.77051 L1403.65264,2285.35742 C1403.65264,2286.08985 1403.16436,2287.4733 1402.1878,2289.50781 C1401.69951,2290.48438 1401.3333,2292.3968 1401.08916,2295.24512 C1400.76364,2296.79135 1400.31605,2298.05273 1399.74639,2299.0293 C1399.82777,2299.8431 1399.86846,2300.41276 1399.86846,2300.73828 L1399.86846,2301.10449 C1399.86846,2302.08106 1399.54294,2303.46451 1398.8919,2305.25488 C1398.24085,2307.6963 1397.22361,2312.98596 1395.84014,2321.12402 C1394.29391,2328.3669 1392.7477,2335.04001 1391.20147,2341.14355 L1391.20147,2341.63184 C1391.28285,2342.36426 1391.60837,2342.73047 1392.17803,2342.73047 C1393.23598,2342.73047 1394.04977,2340.45185 1394.61944,2335.89453 C1396.24705,2327.18681 1397.99671,2319.37438 1399.86846,2312.45703 C1401.74021,2305.0514 1402.67608,2300.6976 1402.67608,2299.39551 C1403.08298,2297.44237 1403.57126,2295.85547 1404.14092,2294.63477 C1404.87335,2292.11197 1405.64645,2288.44989 1406.46026,2283.64844 C1406.86716,2281.6953 1407.07061,2280.59668 1407.07061,2280.35254 L1407.07061,2279.13184 C1407.07061,2278.39941 1406.86716,2278.0332 1406.46026,2278.0332 L1406.21612,2278.0332 C1405.72783,2278.0332 1405.32093,2278.48079 1404.99541,2279.37598 C1404.10023,2281.00359 1403.65264,2282.46842 1403.65264,2283.77051 Z M1305.26397,2288.53125 C1305.26397,2289.10091 1305.67086,2289.71126 1306.48467,2290.3623 L1306.48467,2290.60645 C1305.83363,2293.21063 1305.50811,2295.61132 1305.50811,2297.80859 C1305.50811,2298.6224 1305.30466,2300.08723 1304.89776,2302.20312 L1304.89776,2302.44727 C1304.89776,2303.42383 1305.14189,2304.07487 1305.63018,2304.40039 L1306.11846,2304.52246 C1307.01365,2304.52246 1307.78675,2303.30177 1308.4378,2300.86035 C1309.17022,2298.58169 1309.53643,2296.34376 1309.53643,2294.14648 C1309.53643,2293.2513 1310.0247,2291.21681 1311.00127,2288.04297 C1311.65232,2286.74088 1311.97783,2285.03191 1311.97783,2282.91602 C1311.97783,2280.23046 1311.44887,2278.8877 1310.39092,2278.8877 C1309.17021,2278.8877 1308.27504,2280.71873 1307.70537,2284.38086 C1307.46123,2285.35743 1306.93227,2286.2526 1306.11846,2287.06641 C1305.63018,2287.63607 1305.34535,2288.12435 1305.26397,2288.53125 Z M1310.75713,2283.03809 C1311.16403,2283.03809 1311.40817,2283.32291 1311.48955,2283.89258 C1311.48955,2284.2181 1311.24541,2284.42155 1310.75713,2284.50293 L1310.51299,2284.50293 C1310.02471,2284.34017 1309.78057,2284.05534 1309.78057,2283.64844 C1309.78057,2283.32292 1310.10609,2283.11947 1310.75713,2283.03809 Z" id="Strength"></path>
        </g>
    </g>
</svg>