<?xml version="1.0" encoding="UTF-8"?>
<svg width="343px" height="192px" viewBox="0 0 343 192" version="1.1" xmlns="http://www.w3.org/2000/svg" xmlns:xlink="http://www.w3.org/1999/xlink">
    <!-- Generator: Sketch 54.1 (76490) - https://sketchapp.com -->
    <title>TEAM</title>
    <desc>Created with Sketch.</desc>
    <g id="Search-Guests-&gt;-Skin-Log" stroke="none" stroke-width="1" fill="none" fill-rule="evenodd">
        <path d="M120.726562,1 L122.191406,1 C132.152394,1 140.713506,2.98565723 147.875,6.95703125 C149.697926,8.12891211 151.130203,10.5051904 152.171875,14.0859375 C153.083338,17.4062666 153.539062,19.912752 153.539062,21.6054688 C153.539062,22.1263047 153.213545,22.6471328 152.5625,23.1679688 C152.106769,23.3632822 151.651044,23.4609375 151.195312,23.4609375 C149.632805,23.4609375 147.289078,22.5169365 144.164062,20.6289062 C142.406241,19.7174434 140.257825,19.2617188 137.71875,19.2617188 L136.644531,19.2617188 C132.022112,19.2617188 123.623759,20.6939961 111.449219,23.5585938 C105.785128,24.8606836 100.056019,25.9674434 94.2617188,26.8789062 C91.8528525,27.2695332 87.7187793,27.7252578 81.859375,28.2460938 C80.7525986,28.5065117 80.0039082,28.8320293 79.6132812,29.2226562 C79.1575498,29.8085967 78.8320322,30.6874941 78.6367188,31.859375 C77.9856738,37.5885703 77.3671904,41.2994707 76.78125,42.9921875 C75.6744736,47.158875 74.4700586,51.1301895 73.1679688,54.90625 C71.475252,60.5052363 70.6289062,64.2812402 70.6289062,66.234375 C69.2617119,73.4609736 67.7317793,79.32029 66.0390625,83.8125 C64.4114502,89.0208594 63.0117246,94.6197617 61.8398438,100.609375 C61.1887988,104.971376 60.3099014,109.658829 59.203125,114.671875 C56.9895723,126.065161 55.8828125,132.542961 55.8828125,134.105469 C54.5807227,141.527381 53.4414111,149.535113 52.4648438,158.128906 C52.1393213,160.537772 51.9765625,163.109361 51.9765625,165.84375 C51.9765625,168.643243 52.2044248,176.35801 52.6601562,188.988281 L52.6601562,189.476562 C52.6601562,190.713548 52.562501,191.332031 52.3671875,191.332031 L50.4140625,191.332031 C49.8932266,190.680986 49.3723984,190.290365 48.8515625,190.160156 L48.8515625,189.964844 C48.8515625,189.313799 49.3072871,188.369798 50.21875,187.132812 C50.5442725,186.546872 50.7070312,186.058596 50.7070312,185.667969 C50.7070312,185.082028 49.9908926,184.333338 48.5585938,183.421875 L48.65625,183.421875 C48.526041,182.575517 48.4609375,181.794274 48.4609375,181.078125 C48.4609375,179.320304 48.8515586,177.432302 49.6328125,175.414062 C49.6328125,175.348958 49.6653643,175.251303 49.7304688,175.121094 C49.7304688,174.860676 49.5026064,173.949227 49.046875,172.386719 C48.786457,171.084629 48.65625,169.750007 48.65625,168.382812 C48.65625,164.346334 49.0794229,161.12371 49.9257812,158.714844 C50.3815127,158.194008 50.7070303,157.705731 50.9023437,157.25 C51.0325527,156.794269 51.0976562,156.436199 51.0976562,156.175781 L51.0976562,155.980469 C51.0976562,155.589842 50.8697939,154.710944 50.4140625,153.34375 C50.218749,152.432287 50.1210938,151.585941 50.1210938,150.804688 L50.1210938,150.023438 C50.1210938,149.04687 50.3815078,147.582041 50.9023437,145.628906 C51.4882842,143.350249 51.78125,141.234385 51.78125,139.28125 C52.1067725,136.286443 52.4973936,133.584647 52.953125,131.175781 C54.3203193,125.576795 55.6549414,118.740926 56.9570313,110.667969 C57.0221357,110.082028 57.0546875,109.593752 57.0546875,109.203125 L57.0546875,109.007812 C57.0546875,108.747395 56.8268252,108.584636 56.3710938,108.519531 C55.7851533,108.519531 55.3294287,109.072911 55.0039062,110.179688 C54.2226523,112.197927 53.6041689,114.183584 53.1484375,116.136719 C52.8880195,117.3086 52.6601572,119.001291 52.4648438,121.214844 C51.6184854,126.292994 50.4791738,132.315069 49.046875,139.28125 C48.656248,141.690116 48.1028682,145.693982 47.3867188,151.292969 C45.8893154,158.454463 45.140625,164.606745 45.140625,169.75 C45.2057295,171.377612 45.270833,172.647131 45.3359375,173.558594 C45.2057285,176.683609 45.140625,179.84113 45.140625,183.03125 L45.140625,184.496094 C45.140625,186.384124 45.1731768,188.207022 45.2382812,189.964844 C45.1080723,190.029948 44.9778652,190.0625 44.8476562,190.0625 L44.359375,190.0625 C42.7317627,190.0625 41.2994854,189.183603 40.0625,187.425781 C38.1744697,185.472646 37.1653652,184.268231 37.0351562,183.8125 C34.8216035,179.645812 33.7148438,172.354219 33.7148438,161.9375 C33.7148438,153.083289 34.4309824,143.578176 35.8632812,133.421875 C38.1419385,120.531186 40.8437344,107.933655 43.96875,95.6289062 C48.070333,78.3762158 52.2695098,62.2630957 56.5664063,47.2890625 C57.3476602,43.5781064 57.7382812,39.2812744 57.7382812,34.3984375 L57.7382812,33.8125 L57.640625,33.8125 C46.3775479,36.8724111 35.6354678,40.4205527 25.4140625,44.4570312 C20.0754941,46.540375 16.201835,47.9401006 13.7929688,48.65625 C13.2721328,48.8515635 12.7838564,48.9492188 12.328125,48.9492188 C9.33331836,48.9492188 7.08724707,47.5820449 5.58984375,44.8476562 C4.93879883,43.6106709 4.61328125,42.4062559 4.61328125,41.234375 C4.61328125,40.6484346 4.1901084,39.5416748 3.34375,37.9140625 C3.34375,37.718749 2.56250781,36.514334 1,34.3007812 L1,34.0078125 C1,32.5104092 4.5481416,30.524752 11.6445312,28.0507812 C19.1315479,25.3814971 24.9257607,23.2330811 29.0273438,21.6054688 C32.5429863,19.8476475 39.3788555,17.5690244 49.5351562,14.7695312 C64.6393984,10.5377393 80.7850703,6.82683887 97.9726562,3.63671875 C107.347703,1.87889746 114.932263,1 120.726562,1 Z M45.3359375,20.7265625 L45.3359375,20.8242188 C46.9635498,20.5638008 47.7773438,20.2057314 47.7773438,19.75 C47.7122393,19.2942686 47.5494805,19.0664062 47.2890625,19.0664062 L47.1914062,19.0664062 C46.7356748,19.0664062 46.1171914,19.6197861 45.3359375,20.7265625 Z M10.6679688,33.8125 L10.6679688,33.9101562 C11.3190137,34.1054697 11.9049453,34.203125 12.4257812,34.203125 L12.8164062,34.203125 C13.9882871,34.203125 15.5507715,33.8125039 17.5039062,33.03125 C22.8424746,31.4036377 27.8879971,29.5156357 32.640625,27.3671875 C37.3281484,25.1536348 41.3645664,23.0052188 44.75,20.921875 L44.6523438,20.921875 C41.9830596,20.921875 39.3463672,21.6380137 36.7421875,23.0703125 C35.7005156,23.5260439 33.4218926,24.3072861 29.90625,25.4140625 C24.0468457,27.4974063 18.1875293,29.7760293 12.328125,32.25 C12.0026025,32.4453135 11.4492227,32.9661416 10.6679688,33.8125 Z M7.73828125,34.3984375 L7.73828125,34.59375 C7.73828125,34.6588545 7.9335918,34.723958 8.32421875,34.7890625 C8.7799502,34.7890625 9.36588184,34.5286484 10.0820312,34.0078125 L10.0820312,33.9101562 C9.43098633,33.7148428 9.00781348,33.6171875 8.8125,33.6171875 L8.6171875,33.6171875 C8.03124707,33.682292 7.73828125,33.9427061 7.73828125,34.3984375 Z M65.9414062,71.8984375 C65.0950479,73.5260498 64.671875,74.9257754 64.671875,76.0976562 L64.671875,77.3671875 L64.7695312,77.3671875 C65.7460986,75.2187393 66.234375,73.5911514 66.234375,72.484375 C66.234375,72.223957 66.1367197,72.0286465 65.9414062,71.8984375 Z M62.0351562,85.765625 L62.0351562,87.2304688 L62.1328125,87.2304688 C63.7604248,84.8216025 64.5742188,81.8268408 64.5742188,78.2460938 L64.5742188,77.953125 C63.9882783,78.6041699 63.4023467,79.7434814 62.8164062,81.3710938 C62.2955703,82.9336016 62.0351562,84.3984307 62.0351562,85.765625 Z M59.8867188,94.8476562 C59.8867188,94.9778652 59.9192705,95.3684863 59.984375,96.0195312 L60.0820312,96.0195312 C60.6679717,94.9127549 60.9609375,93.8385469 60.9609375,92.796875 L60.9609375,92.6015625 C60.9609375,92.1458311 60.9283857,91.7226582 60.8632812,91.3320312 C60.2122363,92.3737031 59.8867188,93.5455664 59.8867188,94.8476562 Z M59.1054688,99.046875 C58.0637969,101.130219 57.5429688,103.115876 57.5429688,105.003906 L57.5429688,105.882812 C58.5846406,103.734364 59.1054688,101.651052 59.1054688,99.6328125 L59.1054688,99.046875 Z M134.003125,53.1484375 L136.639844,53.1484375 C142.824771,53.1484375 146.763533,53.5716104 148.45625,54.4179688 C150.279176,55.0690137 152.329937,56.371084 154.608594,58.3242188 C155.975788,59.6263086 156.822134,60.6679648 157.147656,61.4492188 C157.34297,62.0351592 157.440625,62.7512979 157.440625,63.5976562 C157.440625,64.8997461 156.919797,66.2994717 155.878125,67.796875 C153.664572,68.5130244 152.13464,68.8710938 151.288281,68.8710938 C149.660669,68.9361982 148.000529,69.1966123 146.307812,69.6523438 L126.483594,75.1210938 C123.228369,75.7721387 120.396366,76.0976562 117.9875,76.0976562 L118.866406,76.8789062 C117.238794,77.1393242 113.690652,77.4973936 108.221875,77.953125 C108.156771,78.0182295 107.115114,78.1809883 105.096875,78.4414062 C104.055203,81.1757949 102.915892,84.5611777 101.678906,88.5976562 L101.776562,88.5976562 C105.878146,87.8164023 109.686701,87.1979189 113.202344,86.7421875 C119.061748,86.0911426 124.432788,85.5377627 129.315625,85.0820312 C130.943237,85.2773447 132.017445,85.4401035 132.538281,85.5703125 C133.059117,85.765626 133.319531,86.0585918 133.319531,86.4492188 C135.337771,86.8398457 136.900255,87.2955703 138.007031,87.8164062 C138.462763,87.9466152 138.78828,88.3372363 138.983594,88.9882812 L139.374219,91.5273438 C140.350786,93.8711055 140.839062,95.7916592 140.839062,97.2890625 L140.839062,98.4609375 C140.057809,99.1119824 137.876841,100.18619 134.296094,101.683594 C130.715347,103.050788 128.241413,103.734375 126.874219,103.734375 C115.090306,105.492196 105.064364,107.542957 96.7960937,109.886719 C93.6710781,110.798182 91.3273516,111.546872 89.7648437,112.132812 C90.6112021,112.718753 91.034375,113.044271 91.034375,113.109375 L91.034375,113.207031 C88.8208223,114.899748 87.6815107,116.006508 87.6164062,116.527344 L86.1515625,119.359375 C84.9796816,121.572928 84.2960947,123.428378 84.1007812,124.925781 C83.9705723,125.381513 83.872917,125.609375 83.8078125,125.609375 L83.8078125,125.804688 C83.612499,126.976568 83.7101543,127.790362 84.1007812,128.246094 L84.003125,129.125 C83.5473936,129.125 83.2544277,129.352862 83.1242187,129.808594 C82.1476514,133.845072 81.659375,136.742179 81.659375,138.5 C81.2036436,141.950538 80.9757812,144.131506 80.9757812,145.042969 C80.9757812,147.321626 81.4640576,148.981766 82.440625,150.023438 C82.831252,150.674482 83.4822871,151.423173 84.39375,152.269531 C83.6776006,149.730456 83.3195312,147.875006 83.3195312,146.703125 C83.3195312,146.377603 83.352083,145.238291 83.4171875,143.285156 C83.4171875,142.959634 83.2544287,142.276047 82.9289062,141.234375 L82.9289062,141.039062 C82.9289062,140.843749 83.2869756,140.160162 84.003125,138.988281 C84.5239609,137.751296 84.784375,136.546881 84.784375,135.375 C84.784375,135.244791 84.6867197,134.203135 84.4914062,132.25 L84.4914062,131.761719 C84.0356748,128.44139 85.0773311,124.404972 87.6164062,119.652344 C88.0721377,118.805985 89.0161387,117.60157 90.4484375,116.039062 C90.643751,115.648436 90.8390615,115.095056 91.034375,114.378906 C91.2296885,114.118488 91.4901025,113.988281 91.815625,113.988281 L92.0109375,113.988281 C93.1177139,114.11849 93.6710937,114.639318 93.6710937,115.550781 C93.6710937,115.941408 93.0200586,117.568996 91.7179687,120.433594 C90.0903564,124.014341 88.9510449,126.553378 88.3,128.050781 C86.8025967,132.6732 86.0539062,136.839825 86.0539062,140.550781 C86.0539062,144.652364 86.8351484,149.0143 88.3976562,153.636719 C91.1971494,153.50651 98.1632256,151.000024 109.296094,146.117188 C118.931559,141.820291 124.823427,138.825529 126.971875,137.132812 C131.529189,134.463528 135.272642,133.128906 138.202344,133.128906 C140.090374,133.128906 141.034375,133.714838 141.034375,134.886719 L140.64375,138.011719 L140.64375,138.109375 C140.64375,138.434897 140.741405,138.825519 140.936719,139.28125 C138.983584,140.322922 137.128134,141.494785 135.370312,142.796875 C134.654163,143.382815 134.133335,143.903644 133.807812,144.359375 C135.37032,144.033853 136.672391,143.415369 137.714062,142.503906 C139.016152,141.39713 139.927602,140.778646 140.448437,140.648438 C140.448437,140.713542 140.415886,140.941404 140.350781,141.332031 L140.839062,143.96875 C140.839062,145.010422 139.374233,146.800769 136.444531,149.339844 C132.668471,152.269546 128.501846,154.808583 123.944531,156.957031 C120.493993,158.714853 116.9133,160.309889 113.202344,161.742188 L113.202344,160.960938 C112.42109,161.416669 111.11902,161.904945 109.296094,162.425781 C107.603377,162.751304 106.040893,162.914062 104.608594,162.914062 C103.957549,162.979167 102.557823,163.434892 100.409375,164.28125 C99.7583301,164.802086 98.7492256,165.257811 97.3820312,165.648438 C96.6007773,165.843751 94.6476719,166.20182 91.5226562,166.722656 C89.3091035,167.178388 87.0304805,167.731768 84.6867187,168.382812 L84.39375,168.382812 C81.4640478,168.382812 79.0552178,167.60157 77.1671875,166.039062 C70.8520518,161.286435 67.6945312,153.79953 67.6945312,143.578125 C67.6945312,137.067676 69.1268086,128.604219 71.9914062,118.1875 C76.6789297,100.999914 80.0643125,89.5416953 82.1476562,83.8125 C84.361209,77.3020508 85.8911416,72.3541836 86.7375,68.96875 L86.7375,68.8710938 L86.6398437,67.6015625 C86.6398437,65.2578008 87.3885342,63.076833 88.8859375,61.0585938 C89.3416689,60.3424443 90.7739463,59.5612021 93.1828125,58.7148438 C95.7218877,57.6731719 99.8885127,56.6315156 105.682812,55.5898438 C115.6438,53.9622314 125.08381,53.1484375 134.003125,53.1484375 Z M105.878125,60.765625 C105.878125,61.2864609 106.496608,61.546875 107.733594,61.546875 C113.137267,61.0911436 118.215341,60.6028672 122.967969,60.0820312 L123.846875,60.0820312 C124.758338,60.1471357 125.376821,60.1796875 125.702344,60.1796875 C125.897657,60.114583 125.995312,60.0169277 125.995312,59.8867188 C125.995312,59.3007783 125.474484,58.9101572 124.432812,58.7148438 C124.172395,58.7148438 124.042187,58.682292 124.042187,58.6171875 C123.977083,58.6171875 123.911979,58.6497393 123.846875,58.7148438 C123.456248,58.7148438 123.000523,58.682292 122.479687,58.6171875 C117.076015,58.6171875 111.80263,59.1054639 106.659375,60.0820312 C106.138539,60.2773447 105.878125,60.505207 105.878125,60.765625 Z M91.7179687,62.9140625 L91.7179687,63.0117188 C91.7179687,63.3372412 92.0434863,63.630207 92.6945312,63.890625 C92.8247402,64.020834 92.987499,64.0859375 93.1828125,64.0859375 C97.0239775,63.4348926 100.21405,62.7187539 102.753125,61.9375 C102.818229,61.7421865 102.850781,61.6119795 102.850781,61.546875 C102.655468,61.0911436 101.841674,60.8632812 100.409375,60.8632812 C99.8885391,60.8632812 98.9445381,61.0585918 97.5773437,61.4492188 L97.5773437,61.3515625 C98.0981797,61.02604 98.3585937,60.8307295 98.3585937,60.765625 C98.2934893,60.635416 98.1632822,60.5703125 97.9679687,60.5703125 L97.5773437,60.5703125 C95.6893135,60.5703125 93.8338633,61.0911406 92.0109375,62.1328125 C91.815624,62.3932305 91.7179687,62.6536445 91.7179687,62.9140625 Z M111.932812,88.890625 C111.932812,89.020834 112.095571,89.0859375 112.421094,89.0859375 C112.616407,89.0859375 112.714062,88.9882822 112.714062,88.7929688 L112.714062,88.5976562 C112.648958,88.4674473 112.518751,88.4023438 112.323437,88.4023438 C112.06302,88.4023438 111.932812,88.5651025 111.932812,88.890625 Z M109.39375,89.28125 C109.39375,89.411459 109.491405,89.541666 109.686719,89.671875 L109.882031,89.671875 C110.207554,89.6067705 110.370312,89.4765635 110.370312,89.28125 C110.305208,89.020832 110.175001,88.890625 109.979687,88.890625 L109.784375,88.890625 C109.523957,88.890625 109.39375,89.020832 109.39375,89.28125 Z M106.464062,89.8671875 C106.529167,90.1276055 106.594271,90.2578125 106.659375,90.2578125 L107.05,90.2578125 C107.310418,90.2578125 107.473177,90.0299502 107.538281,89.5742188 C107.473177,89.3789053 107.34297,89.28125 107.147656,89.28125 L107.05,89.28125 C106.724478,89.28125 106.529167,89.4765605 106.464062,89.8671875 Z M100.507031,92.2109375 C100.507031,92.3411465 100.702342,92.4713535 101.092969,92.6015625 L101.092969,92.6992188 C102.004432,92.5690098 102.883329,92.2109404 103.729687,91.625 C104.250523,91.1692686 104.510937,90.7460957 104.510937,90.3554688 C104.380729,90.0299463 104.185418,89.8671875 103.925,89.8671875 L103.827344,89.8671875 C103.04609,89.932292 102.004434,90.5507754 100.702344,91.7226562 C100.572135,91.9179697 100.507031,92.0807285 100.507031,92.2109375 Z M96.3078125,111.15625 C96.503126,111.15625 96.6984365,111.253905 96.89375,111.449219 C96.89375,112.490891 96.1450596,113.207029 94.6476562,113.597656 L94.3546875,113.597656 C93.8989561,113.532552 93.6710937,113.337241 93.6710937,113.011719 L93.6710937,112.914062 C93.6710937,112.197913 94.4523359,111.644533 96.0148437,111.253906 L96.3078125,111.15625 Z M131.26875,145.824219 C132.115108,145.628905 132.733592,145.335939 133.124219,144.945312 L133.417187,144.554688 L133.319531,144.554688 C132.603382,144.554688 131.919795,144.97786 131.26875,145.824219 Z M125.507031,148.265625 L125.8,148.363281 L126.288281,148.363281 C127.72058,148.363281 128.892443,147.679694 129.803906,146.3125 C129.608593,146.3125 129.445834,146.279948 129.315625,146.214844 C127.753117,146.214844 126.483599,146.898431 125.507031,148.265625 Z M124.335156,149.046875 C124.660679,149.046875 124.921093,148.851564 125.116406,148.460938 L125.01875,148.460938 C124.758332,148.460938 124.53047,148.656248 124.335156,149.046875 Z M201.576562,46.8007812 C203.073966,46.8007812 205.385141,48.3632656 208.510156,51.4882812 L208.705469,51.4882812 C210.46329,51.4882812 212.546603,52.9205586 214.955469,55.7851562 C215.997141,56.6966191 217.1039,57.3476543 218.275781,57.7382812 C219.773185,58.3893262 220.521875,59.0078096 220.521875,59.59375 C220.521875,59.723959 220.326564,60.4726494 219.935937,61.8398438 C219.480206,64.1836055 218.926826,69.3267832 218.275781,77.2695312 L218.275781,77.3671875 C218.275781,81.924502 220.196335,102.139144 224.0375,138.011719 C224.688545,143.806019 225.502339,151.358026 226.478906,160.667969 C227.129951,165.225283 227.455469,168.415355 227.455469,170.238281 C227.455469,173.102879 226.771882,174.535156 225.404687,174.535156 C222.214567,173.753902 219.968496,172.940108 218.666406,172.09375 C217.624734,171.377601 215.704181,170.010427 212.904687,167.992188 C211.863016,167.536456 211.21198,166.950524 210.951562,166.234375 C210.495831,165.453121 209.844796,163.95574 208.998437,161.742188 C207.761452,157.705709 207.142969,153.994809 207.142969,150.609375 C207.142969,148.916658 207.370831,147.256519 207.826562,145.628906 L207.924219,145.433594 C207.924219,145.23828 207.728908,144.587245 207.338281,143.480469 L207.338281,143.285156 C207.46849,142.308589 207.566146,141.39714 207.63125,140.550781 C207.891668,140.029945 208.021875,139.281255 208.021875,138.304688 C208.021875,137.653643 207.728909,136.807297 207.142969,135.765625 C206.947655,135.374998 206.817448,134.886722 206.752344,134.300781 C207.012762,133.779945 207.142969,133.389324 207.142969,133.128906 C206.491924,131.631503 205.938544,130.036467 205.482812,128.34375 C205.287499,128.148437 204.961981,128.050781 204.50625,128.050781 L204.017969,128.050781 C202.129938,128.050781 196.172967,129.678369 186.146875,132.933594 C179.310903,135.082042 175.437244,136.15625 174.525781,136.15625 C173.3539,136.481772 171.986727,136.644531 170.424219,136.644531 L169.935937,136.546875 C164.336951,147.093803 160.23543,155.329397 157.63125,161.253906 C155.74322,165.550803 154.245839,169.326807 153.139062,172.582031 C152.032286,175.707047 151.478906,178.636705 151.478906,181.371094 L151.478906,181.859375 C151.478906,182.901047 151.576562,184.854152 151.771875,187.71875 C151.771875,188.109377 151.609116,188.304688 151.283594,188.304688 C148.353892,187.653643 145.424233,186.188813 142.494531,183.910156 C141.192441,182.933589 139.792716,181.957036 138.295312,180.980469 C137.448954,179.54817 137.025781,177.88803 137.025781,176 L137.025781,175.414062 C137.025781,171.768211 138.653369,166.104205 141.908594,158.421875 C142.689848,156.338531 144.089573,152.464872 146.107812,146.800781 C148.38647,140.941377 150.632541,135.472682 152.846094,130.394531 C150.241914,127.985665 148.939844,125.511731 148.939844,122.972656 C148.939844,120.693999 149.851293,118.057307 151.674219,115.0625 C152.390368,115.713545 152.911196,116.657546 153.236719,117.894531 C153.432032,118.415367 153.95286,119.033851 154.799219,119.75 C155.840891,120.466149 156.654685,120.824219 157.240625,120.824219 C163.946388,106.50123 171.042671,93.1875615 178.529687,80.8828125 C183.93336,71.8332881 189.532263,62.2630713 195.326562,52.171875 C197.865638,48.5911279 199.94895,46.8007812 201.576562,46.8007812 Z M187.416406,92.8945312 C190.606526,88.5976348 193.373426,84.0078369 195.717187,79.125 C196.433337,77.6275967 197.149476,75.967457 197.865625,74.1445312 C195.977595,76.097666 194.512766,77.9531162 193.471094,79.7109375 C192.68984,81.0130273 191.745839,82.803374 190.639062,85.0820312 L188.685937,88.2070312 C187.839579,89.8346436 187.416406,91.3971279 187.416406,92.8945312 Z M198.060937,84.203125 C195.326549,88.695335 193.731513,91.5273379 193.275781,92.6992188 C189.499721,100.381549 184.779716,109.333282 179.115625,119.554688 L179.115625,119.652344 C181.198969,119.131508 183.086971,118.513024 184.779687,117.796875 C188.685957,115.908845 194.154652,113.532566 201.185937,110.667969 C199.62343,99.0793691 198.581773,90.3229463 198.060937,84.3984375 L198.060937,84.203125 Z M214.369531,84.984375 C214.109113,86.5468828 213.978906,87.9791602 213.978906,89.28125 L213.978906,89.8671875 C213.978906,92.4062627 214.402079,94.2617129 215.248437,95.4335938 L215.834375,96.5078125 L215.932031,96.5078125 C216.192449,95.1406182 216.322656,93.8710996 216.322656,92.6992188 C216.322656,90.225248 215.671621,87.6536592 214.369531,84.984375 Z M215.44375,101.976562 L215.44375,102.171875 C215.44375,102.562502 215.736716,103.734365 216.322656,105.6875 C216.648179,107.380217 216.810937,108.714839 216.810937,109.691406 C216.810937,110.212242 216.778386,111.416657 216.713281,113.304688 C216.713281,115.257822 217.136454,119.09893 217.982812,124.828125 L219.252344,139.085938 C220.294016,148.135462 221.010154,153.083329 221.400781,153.929688 C222.051826,155.882822 222.898172,157.542962 223.939844,158.910156 L224.0375,158.910156 C222.865619,153.766901 221.758859,146.931032 220.717187,138.402344 C220.196352,134.626283 219.708075,129.19014 219.252344,122.09375 C219.252344,118.90363 218.731516,112.165416 217.689844,101.878906 C217.234112,100.902339 216.680732,100.414062 216.029687,100.414062 C215.639061,100.869794 215.44375,101.390622 215.44375,101.976562 Z M169.642969,126.878906 L169.740625,126.878906 C170.652088,126.292966 171.107812,125.44662 171.107812,124.339844 L171.010156,124.046875 C170.098693,124.958338 169.642969,125.902339 169.642969,126.878906 Z M169.545312,127.074219 C169.480208,127.204428 169.447656,127.302083 169.447656,127.367188 L169.642969,127.171875 L169.545312,127.074219 Z M159.779687,146.019531 L159.779687,146.507812 L159.877344,146.507812 C162.546628,142.406229 164.760147,138.500019 166.517969,134.789062 C167.429432,132.770823 168.340881,130.394545 169.252344,127.660156 C166.648164,130.524754 164.695059,133.682274 163.392969,137.132812 C162.481506,138.890634 161.570057,140.518222 160.658594,142.015625 C160.072653,143.382819 159.779687,144.717441 159.779687,146.019531 Z M157.533594,150.21875 C155.124728,154.059915 153.920312,156.989573 153.920312,159.007812 L153.920312,159.691406 C153.920312,160.082033 153.952864,160.635413 154.017969,161.351562 C156.36173,158.356756 157.533594,154.938821 157.533594,151.097656 L157.533594,150.21875 Z M150.014062,169.945312 C150.079167,170.986984 150.144271,171.507812 150.209375,171.507812 C151.44636,170.270827 152.064844,168.903653 152.064844,167.40625 C152.064844,167.210937 151.99974,166.657557 151.869531,165.746094 L151.771875,165.746094 C150.599994,166.917975 150.014062,168.3177 150.014062,169.945312 Z M259.189062,33.6171875 C261.46772,33.812501 263.160411,34.072915 264.267187,34.3984375 C266.220322,35.0494824 268.498945,36.0585869 271.103125,37.4257812 C272.209901,38.0768262 272.828385,38.5651025 272.958594,38.890625 C273.935161,39.8020879 275.107024,42.1783662 276.474219,46.0195312 C278.101831,50.5768457 279.794522,57.2174043 281.552344,65.9414062 L281.552344,66.0390625 C281.487239,68.0573018 281.454687,69.3268203 281.454687,69.8476562 C281.454687,70.7591191 281.649998,72.0286377 282.040625,73.65625 C282.301043,77.4323105 282.561457,79.3203125 282.821875,79.3203125 C283.017188,78.9296855 283.179947,77.6927188 283.310156,75.609375 L283.407812,75.609375 C283.66823,77.8229277 283.993748,79.7760332 284.384375,81.46875 C284.384375,82.4453174 284.547134,83.031249 284.872656,83.2265625 C285.133074,83.421876 285.360937,84.0078076 285.55625,84.984375 C287.118758,91.6901377 288.583587,98.1679375 289.950781,104.417969 L290.048437,104.417969 C295.45211,95.4335488 302.48329,81.2084307 311.142187,61.7421875 C314.527621,53.9296484 318.271073,45.2708809 322.372656,35.765625 C322.828388,35.3098936 323.316664,35.0820312 323.8375,35.0820312 L324.032812,35.0820312 C324.879171,35.0820312 326.409104,35.7005146 328.622656,36.9375 C330.706,37.6536494 332.821864,38.9557197 334.970312,40.84375 C336.988552,42.9270938 338.225519,44.5872334 338.68125,45.8242188 C339.592713,47.712249 340.048437,49.4049404 340.048437,50.9023438 C341.350527,51.8789111 342.001562,56.2733984 342.001562,64.0859375 C342.001562,68.513043 341.57839,80.0038135 340.732031,98.5585938 C340.601822,102.529968 340.536719,105.785144 340.536719,108.324219 C340.536719,112.881533 340.764581,116.690089 341.220312,119.75 C341.285417,120.205731 341.317969,120.531249 341.317969,120.726563 C341.317969,123.00522 341.15521,125.96743 340.829687,129.613281 L340.829687,129.90625 C340.829687,130.49219 340.894791,131.240881 341.025,132.152344 C340.43906,150.902437 340.146094,162.230449 340.146094,166.136719 C340.015885,167.438809 339.788022,168.675775 339.4625,169.847656 C338.355724,173.167985 336.825791,174.828125 334.872656,174.828125 C333.76588,174.828125 332.821879,174.079435 332.040625,172.582031 C330.673431,171.084628 329.501567,170.108075 328.525,169.652344 C327.157806,168.936194 325.237252,168.089849 322.763281,167.113281 C321.851818,166.722654 321.13568,165.811205 320.614844,164.378906 C320.094008,162.425771 319.833594,160.667977 319.833594,159.105469 C319.182549,148.68875 318.857031,139.769568 318.857031,132.347656 C318.857031,127.985655 318.987238,117.503989 319.247656,100.902344 L319.345312,94.6523438 C315.959879,100.772166 313.876566,104.776032 313.095312,106.664062 C311.663014,109.723974 309.644805,113.825495 307.040625,118.96875 L306.942969,118.96875 C307.008073,117.66666 307.040625,115.973969 307.040625,113.890625 L307.040625,113.207031 C307.040625,113.076822 307.203384,112.490891 307.528906,111.449219 L307.528906,111.351562 L307.040625,111.058594 C307.040625,107.152324 306.715107,102.692733 306.064062,97.6796875 C305.413018,99.6328223 305.0875,101.488272 305.0875,103.246094 C305.152604,104.613288 305.185156,105.459634 305.185156,105.785156 L305.185156,106.175781 C305.185156,106.957035 305.022397,109.398417 304.696875,113.5 C304.63177,113.695313 304.599219,114.118486 304.599219,114.769531 C303.75286,116.462248 302.939066,118.382802 302.157812,120.53125 L300.985937,122.777344 C300.985937,123.037762 301.2138,123.200521 301.669531,123.265625 C301.929949,123.265625 302.255467,122.875004 302.646094,122.09375 C303.101825,121.442705 303.785412,120.303394 304.696875,118.675781 L304.794531,118.675781 C304.794531,119.131513 304.95729,120.368479 305.282812,122.386719 C302.939051,126.878929 301.116152,130.199208 299.814062,132.347656 C299.228122,133.389328 298.544535,135.733055 297.763281,139.378906 C297.30755,141.332041 296.819273,142.634111 296.298437,143.285156 C295.777602,144.06641 294.866152,144.457031 293.564062,144.457031 C290.959883,144.457031 288.095328,143.480479 284.970312,141.527344 L282.626562,139.671875 C281.780204,139.216144 280.575789,138.272143 279.013281,136.839844 C277.8414,135.277336 276.995055,133.812507 276.474219,132.445312 C275.497651,130.101551 273.837512,124.502648 271.49375,115.648438 L266.415625,95.3359375 C265.829685,98.6562666 265.080994,102.106753 264.169531,105.6875 C257.984604,130.231894 253.394807,148.395774 250.4,160.179688 C248.837492,167.927122 247.372663,172.71223 246.005469,174.535156 C245.549737,175.055992 245.094013,175.316406 244.638281,175.316406 C243.075773,175.316406 240.569288,173.16799 237.11875,168.871094 L237.11875,168.675781 C237.509377,166.397124 237.704687,165.160157 237.704687,164.964844 C237.769792,164.639321 237.802344,164.151045 237.802344,163.5 L237.802344,161.15625 C237.802344,157.705712 238.713793,155.231778 240.536719,153.734375 L240.634375,153.34375 C240.634375,152.822914 240.308857,152.00912 239.657812,150.902344 C239.592708,150.70703 239.560156,150.544271 239.560156,150.414062 C239.560156,150.218749 239.853122,149.665369 240.439062,148.753906 C241.220316,146.93098 241.610937,144.359392 241.610937,141.039062 C241.806251,139.346346 242.16432,137.523447 242.685156,135.570312 L245.321875,127.171875 C246.428651,122.74477 246.982031,119.912767 246.982031,118.675781 L247.567969,113.109375 C248.0237,110.960927 248.251562,109.821615 248.251562,109.691406 C248.251562,109.105466 248.056252,108.8125 247.665625,108.8125 C247.665625,108.747396 247.502866,108.714844 247.177344,108.714844 C246.656508,108.714844 245.745059,111.318984 244.442969,116.527344 C242.164312,124.339883 241.025,128.473956 241.025,128.929688 C240.764582,130.231777 240.439064,132.5104 240.048437,135.765625 C239.592706,137.653655 238.681257,140.941383 237.314062,145.628906 C235.881764,150.90237 234.449486,157.184859 233.017187,164.476562 C231.780202,163.825518 230.99896,163.109379 230.673437,162.328125 C231.519796,158.226542 234.351799,146.410254 239.169531,126.878906 L242.489844,113.890625 C243.271098,113.369789 243.661719,112.686202 243.661719,111.839844 L243.661719,111.351562 C243.53151,110.309891 243.433854,109.300786 243.36875,108.324219 C243.36875,107.868487 243.564061,106.175796 243.954687,103.246094 L243.954687,101.878906 C243.954687,101.162757 243.759377,100.348963 243.36875,99.4375 C244.931258,94.2942451 246.851812,84.7891318 249.130469,70.921875 C249.455991,69.8150986 249.846612,67.9922002 250.302344,65.453125 C251.213807,62.9791543 251.669531,60.2773584 251.669531,57.3476562 C251.669531,56.5012979 251.962497,54.8086064 252.548437,52.2695312 C253.004169,50.9674414 253.785411,49.7304746 254.892187,48.5585938 C255.738546,47.9726533 256.161719,47.4518252 256.161719,46.9960938 C256.161719,46.5403623 255.803649,45.4661543 255.0875,43.7734375 L255.0875,43.2851562 C255.0875,43.0247383 255.478121,42.3411514 256.259375,41.234375 C257.040629,39.8020762 257.626561,37.9791777 258.017187,35.765625 C258.082292,35.4401025 258.179947,34.7565156 258.310156,33.7148438 C258.375261,33.6497393 258.440364,33.6171875 258.505469,33.6171875 C258.635678,33.6171875 258.86354,33.6171875 259.189062,33.6171875 Z M320.517187,48.1679688 C318.043217,52.1393428 314.918248,58.5845908 311.142187,67.5039062 C309.319262,71.4752803 307.528915,75.3489395 305.771094,79.125 C305.250258,80.8177168 304.989844,82.0546836 304.989844,82.8359375 C304.989844,83.16146 305.250258,83.3242188 305.771094,83.3242188 L305.86875,83.3242188 C306.389586,83.3242188 307.040621,81.9570449 307.821875,79.2226562 C308.863547,76.4231631 310.784101,71.865917 313.583594,65.5507812 L320.614844,48.1679688 L320.517187,48.1679688 Z M304.110937,83.9101562 C304.110937,84.1054697 304.176041,84.203125 304.30625,84.203125 C304.566668,84.1380205 304.696875,83.9101582 304.696875,83.5195312 L304.501562,83.3242188 C304.241145,83.4544277 304.110937,83.6497383 304.110937,83.9101562 Z M301.669531,89.1835938 L301.278906,90.9414062 C301.344011,90.9414062 301.799735,90.8111992 302.646094,90.5507812 L302.646094,90.453125 L301.669531,89.1835938 Z M296.49375,130.492188 C296.623959,130.882814 296.81927,131.078125 297.079687,131.078125 C297.535419,131.078125 298.023695,130.524745 298.544531,129.417969 C298.739845,128.832028 298.935155,128.083338 299.130469,127.171875 C298.023692,127.82292 297.209898,128.701817 296.689062,129.808594 C296.623958,129.808594 296.558854,130.036456 296.49375,130.492188 Z" id="TEAM" stroke="#979797" fill-rule="nonzero"></path>
    </g>
</svg>