<svg xmlns="http://www.w3.org/2000/svg" enable-background="new 0 0 512 512" viewBox="0 0 512 512">
    <path d="M485.547 251.733h-58.88v-153.6c-.029-23.552-19.115-42.638-42.667-42.666H128c-23.552.028-42.638 19.114-42.667 42.667v51.2H38.519C17.255 149.357.023 166.589 0 187.853v230.161c.023 21.264 17.255 38.496 38.519 38.519h136.294c16.24-.049 30.7-10.294 36.13-25.6H358.4c4.713 0 8.533-3.82 8.533-8.533v-17.067c0-14.138-11.462-25.6-25.6-25.6h-25.6V345.6H384v84.48c0 14.61 11.844 26.453 26.453 26.453h75.093c14.61 0 26.453-11.844 26.453-26.453V278.187c.001-14.61-11.843-26.454-26.452-26.454zm-289.28 166.281c-.009 11.844-9.609 21.443-21.453 21.453H38.519c-11.844-.009-21.443-9.609-21.453-21.453v-4.147h179.2v4.147zm0-21.214h-179.2V209.067h179.2V396.8zm0-204.8h-179.2v-4.147c.009-11.844 9.609-21.443 21.453-21.453h136.294c11.844.009 21.443 9.609 21.453 21.453V192zm145.066 204.8c4.713 0 8.533 3.821 8.533 8.533v8.533H213.333V396.8h128zm-128-17.067V345.6h85.333v34.133h-85.333zM384 328.533H213.333v-25.6H384v25.6zm0-50.346v7.68H213.333v-98.014c-.024-21.264-17.256-38.496-38.519-38.519H102.4v-51.2c0-14.138 11.461-25.6 25.6-25.6h256c14.138 0 25.6 11.461 25.6 25.6v153.685c-14.242.459-25.561 12.118-25.6 26.368zM494.933 430.08c0 5.184-4.203 9.387-9.387 9.387h-75.093c-5.184 0-9.387-4.203-9.387-9.387v-7.68h93.867v7.68zm0-24.747h-93.867v-102.4h93.867v102.4zm0-119.466h-93.867v-7.68c0-5.184 4.203-9.387 9.387-9.387h75.093c5.184 0 9.387 4.203 9.387 9.387v7.68z"/>
</svg>
