<?xml version="1.0" encoding="UTF-8"?>
<svg width="970px" height="290px" viewBox="0 0 970 290" version="1.1" xmlns="http://www.w3.org/2000/svg" xmlns:xlink="http://www.w3.org/1999/xlink">
    <!-- Generator: Sketch 54.1 (76490) - https://sketchapp.com -->
    <title>战队赞助</title>
    <desc>Created with Sketch.</desc>
    <g id="Search-Guests-&gt;-Skin-Log" stroke="none" stroke-width="1" fill="none" fill-rule="evenodd">
        <path d="M118.073658,191.115561 C118.152074,191.298776 118.234188,191.486922 118.32,191.68 L116.08,189.72 L118.073658,191.115561 L118.073658,191.115561 Z M118.073658,191.115561 C117.469764,189.704584 117.085215,188.586073 116.92,187.76 C116.733332,186.826662 116.26667,185.98667 115.52,185.24 C114.77333,184.49333 113.840006,183.186676 112.72,181.32 C114.026673,182.813341 115.706656,183.373335 117.76,183 L117.2,180.48 L119.44,183 L113.56,174.6 L114.96,175.72 L114.96,174.6 C120.560028,182.253372 126.813299,189.253302 133.72,195.6 L143.24,200.92 L148.56,197.84 C151.733349,193.91998 154.113325,191.213341 155.7,189.72 C157.286675,188.226659 158.033334,187.340001 157.94,187.06 C157.846666,186.779999 157.8,186.453335 157.8,186.08 L156.96,184.96 L139.88,135.68 L135.96,137.36 L137.64,135.68 C135.959992,135.68 134.513339,136.05333 133.3,136.8 C132.086661,137.54667 128.726694,139.179987 123.22,141.7 C117.713306,144.220013 114.353339,145.619999 113.14,145.9 C111.926661,146.180001 110.386676,146.739996 108.52,147.58 C106.653324,148.420004 104.786676,149.399994 102.92,150.52 L103.76,149.68 C103.199997,149.68 102.453338,149.913331 101.52,150.38 C100.586662,150.846669 99.4666732,151.733327 98.16,153.04 L98.72,154.16 L97.6,157.52 L96.48,155.84 C91.9999776,163.120036 87.5200224,170.213299 83.04,177.12 L81.08,178.52 C80.7066648,180.573344 80.4266676,182.159994 80.24,183.28 C80.0533324,184.400006 79.5866704,185.986656 78.84,188.04 C78.0933296,190.093344 77.6733338,192.146656 77.58,194.2 C77.4866662,196.253344 77.0666704,197.746662 76.32,198.68 C75.5733296,199.613338 74.4533408,201.386654 72.96,204 L77.16,200.08 L75.2,204.84 L77.44,205.68 C79.1200084,203.999992 81.2666536,202.506673 83.88,201.2 C83.1333296,203.813346 82.6200014,205.726661 82.34,206.94 C82.0599986,208.153339 81.5466704,209.366661 80.8,210.58 C80.0533296,211.793339 78.8400084,213.893318 77.16,216.88 L72.68,220.8 L67.64,225.84 L67.36,224.44 C66.6133296,226.306676 65.6800056,227.799994 64.56,228.92 L57.28,235.92 L55.88,236.76 L53.36,238.02 C52.7999972,238.300001 51.9133394,239.046661 50.7,240.26 C49.4866606,241.473339 47.3400154,242.313331 44.26,242.78 C41.1799846,243.246669 39.1266718,243.340001 38.1,243.06 C37.0733282,242.779999 36.0000056,242.173338 34.88,241.24 C34.1333296,239.933327 33.6200014,238.766672 33.34,237.74 C33.0599986,236.713328 32.92,233.680025 32.92,228.64 C32.92,223.599975 32.1733408,220.10001 30.68,218.14 C29.1866592,216.17999 28.5333324,214.360008 28.72,212.68 C28.9066676,210.999992 28.4400056,209.553339 27.32,208.34 C26.1999944,207.126661 25.1266718,205.633342 24.1,203.86 C23.0733282,202.086658 23.0733282,200.033345 24.1,197.7 C25.1266718,195.366655 24.7533422,192.566683 22.98,189.3 C21.2066578,186.033317 18.8266816,179.640048 15.84,170.12 L12.2,167.04 C12.3866676,166.106662 12.713331,165.360003 13.18,164.8 C13.646669,164.239997 13.413338,163.213341 12.48,161.72 C11.546662,160.226659 10.1000098,158.593342 8.14,156.82 C6.1799902,155.046658 4.8733366,153.460007 4.22,152.06 C3.5666634,150.659993 2.4933408,148.653346 1,146.04 C2.1200056,145.853332 2.913331,145.526669 3.38,145.06 C3.846669,144.593331 4.8733254,144.73333 6.46,145.48 C8.0466746,146.22667 10.6133156,147.066662 14.16,148 L25.36,160.04 L44.4,151.08 C43.0933268,146.599978 42.206669,143.520008 41.74,141.84 C41.273331,140.159992 40.3866732,138.573341 39.08,137.08 C37.7733268,135.586659 37.6799944,133.393348 38.8,130.5 C39.9200056,127.606652 41.5066564,116.920092 43.56,98.44 C45.6133436,79.9599076 44.3533562,68.2933576 39.78,63.44 C35.2066438,58.5866424 32.9666662,55.4133408 33.06,53.92 C33.1533338,52.4266592 32.9200028,51.3533366 32.36,50.7 C31.7999972,50.0466634 31.053338,48.5066788 30.12,46.08 C31.6133408,45.5199972 32.826662,45.1933338 33.76,45.1 C34.693338,45.0066662 36.7466508,45.4733282 39.92,46.5 C43.0933492,47.5266718 45.7999888,48.5533282 48.04,49.58 C50.2800112,50.6066718 53.3599804,52.053324 57.28,53.92 C59.3333436,56.720014 61.0133268,58.6333282 62.32,59.66 C63.6266732,60.6866718 64.4666648,62.3199888 64.84,64.56 C65.2133352,66.8000112 65.866662,68.9466564 66.8,71 C67.733338,73.0533436 68.1066676,75.7599832 67.92,79.12 C67.7333324,82.4800168 67.5000014,84.7199944 67.22,85.84 C66.9399986,86.9600056 66.8466662,87.8466634 66.94,88.5 C67.0333338,89.1533366 67.1733324,90.5066564 67.36,92.56 L83.74,86.26 C87.3800182,84.859993 90.2733226,84.2999986 92.42,84.58 C94.5666774,84.8600014 96.106662,85.1399986 97.04,85.42 C97.973338,85.7000014 99.1866592,86.2133296 100.68,86.96 L102.64,90.6 L102.08,92 L104.6,95.92 L102.64,96.76 L102.36,99.28 L108.8,100.96 C106.186654,101.146668 103.90001,101.333332 101.94,101.52 C99.9799902,101.706668 96.5733576,102.453327 91.72,103.76 C86.8666424,105.066673 83.3666774,106.373327 81.22,107.68 C79.0733226,108.986673 76.600014,110.666656 73.8,112.72 L74.36,111.6 C72.3066564,113.466676 69.9733464,114.120003 67.36,113.56 C67.1733324,116.546682 66.9400014,118.693327 66.66,120 C66.3799986,121.306673 66.1933338,124.479975 66.1,129.52 C66.0066662,134.560025 65.493338,139.03998 64.56,142.96 C70.7200308,140.719989 76.4133072,138.900007 81.64,137.5 C86.8666928,136.099993 89.946662,135.120003 90.88,134.56 L97.6,137.08 L134.56,118.6 C125.97329,78.2797984 120.653344,54.853366 118.6,48.32 C116.546656,41.786634 114.913339,37.7266746 113.7,36.14 C112.486661,34.5533254 110.946676,32.2666816 109.08,29.28 L105.44,26.2 L106,24.8 L107.96,24.8 L111.32,21.16 L112.72,19.76 L114.12,16.68 C114.493335,16.8666676 114.866665,17.0066662 115.24,17.1 C115.613335,17.1933338 116.126663,17.1466676 116.78,16.96 C117.433337,16.7733324 118.319994,16.5866676 119.44,16.4 L120.28,16.4 L122.52,18.36 L124.2,19.76 L123.36,23.68 L124.76,25.08 L124.2,23.68 L127.28,23.4 L123.36,29 C129.146696,54.200126 132.319997,67.4533268 132.88,68.76 C133.440003,70.0666732 133.626668,71.2333282 133.44,72.26 C133.253332,73.2866718 133.53333,74.266662 134.28,75.2 C135.02667,76.133338 135.306668,77.299993 135.12,78.7 C134.933332,80.100007 135.399994,81.8733226 136.52,84.02 C137.640006,86.1666774 138.57333,87.7999944 139.32,88.92 C140.06667,90.0400056 141.279992,91.999986 142.96,94.8 L143.52,93.68 L148.56,101.24 C154.160028,100.679997 158.593317,100.213335 161.86,99.84 C165.126683,99.4666648 168.673314,99.2333338 172.5,99.14 C176.326686,99.0466662 179.546654,99.3733296 182.16,100.12 C184.773346,100.86667 186.593328,101.61333 187.62,102.36 C188.646672,103.10667 189.999992,104.039994 191.68,105.16 C191.866668,106.466673 191.913334,107.353331 191.82,107.82 C191.726666,108.286669 191.68,109.219993 191.68,110.62 C191.68,112.020007 191.773332,113.279994 191.96,114.4 C190.653327,115.893341 189.720003,117.666656 189.16,119.72 C188.41333,120.840006 187.526672,121.726663 186.5,122.38 C185.473328,123.033337 182.346693,123.499999 177.12,123.78 C171.893307,124.060001 167.92668,124.713328 165.22,125.74 C162.51332,126.766672 159.106687,128.213324 155,130.08 C156.493341,133.813352 157.753328,136.986654 158.78,139.6 C159.806672,142.213346 164.519958,151.359922 172.92,167.04 C177.400022,159.386628 180.759989,154.20668 183,151.5 C185.240011,148.79332 186.826662,146.226679 187.76,143.8 C188.693338,141.373321 190.279989,137.546693 192.52,132.32 L196.44,130.64 L200.36,140.16 L188.88,165.64 L190.28,165.08 L181.32,180.76 L205.4,217.44 C206.706673,213.893316 207.873328,210.906679 208.9,208.48 C209.926672,206.053321 212.39998,185.986855 216.32,148.28 C214.826659,167.880098 214.826659,183.466609 216.32,195.04 C217.813341,206.613391 219.259993,214.35998 220.66,218.28 C222.060007,222.20002 222.853332,224.999992 223.04,226.68 C223.226668,228.360008 223.786662,230.693318 224.72,233.68 L227.24,234.24 C227.800003,237.226682 229.293321,239.653324 231.72,241.52 L234.52,237.6 L240.12,250.48 C239.559997,251.413338 239.419999,253.139987 239.7,255.66 C239.980001,258.180013 239.74667,260.466656 239,262.52 L241.52,263.08 C241.146665,264.573341 240.96,265.786662 240.96,266.72 C240.96,267.653338 240.58667,268.446663 239.84,269.1 C239.09333,269.753337 237.973341,271.293321 236.48,273.72 C235.359994,273.346665 234.520003,273.393331 233.96,273.86 C233.399997,274.326669 231.720014,275.073328 228.92,276.1 C226.119986,277.126672 222.76002,278.106662 218.84,279.04 L208.2,272.32 L201.76,263.64 C199.706656,262.89333 198.260004,262.193337 197.42,261.54 C196.579996,260.886663 195.740004,260.513334 194.9,260.42 C194.059996,260.326666 192.800008,260.000003 191.12,259.44 C189.253324,255.893316 188.040003,253.466673 187.48,252.16 C186.919997,250.853327 186.500001,249.780004 186.22,248.94 C185.939999,248.099996 185.893332,246.840008 186.08,245.16 C186.266668,243.479992 184.773349,240.633353 181.6,236.62 C178.426651,232.606647 173.293369,222.480081 166.2,206.24 L164.24,206.24 L162.56,208.48 L160.88,209.04 L160.32,209.88 L158.64,211 L162.28,207.36 L163.12,204.84 C158.079975,209.320022 152.760028,212.959986 147.16,215.76 L149.68,216.32 L146.04,216.88 L148.28,218.28 L146.6,218.56 L145.76,216.88 L143.8,218.28 C143.986668,219.400006 143.893335,220.146665 143.52,220.52 C142.586662,220.333332 141.933335,219.960003 141.56,219.4 C141.186665,218.839997 140.253341,218.839997 138.76,219.4 C137.266659,219.960003 135.866673,220.566663 134.56,221.22 C133.253327,221.873337 132.180004,222.060001 131.34,221.78 C130.499996,221.499999 129.426673,221.173335 128.12,220.8 L129.24,219.12 C125.506648,220.053338 122.146682,219.493344 119.16,217.44 L120.28,216.6 L121.12,210.72 L125.04,210.16 L124.2,208.48 L125.04,207.64 C123.546659,203.159978 122.240006,199.706679 121.12,197.28 C119.999994,194.853321 119.253335,192.986673 118.88,191.68 L118.073658,191.115561 L118.073658,191.115561 Z M177.12,72.4 C177.680003,72.2133324 178.33333,72.353331 179.08,72.82 C179.82667,73.286669 182.766641,73.8933296 187.9,74.64 C193.033359,75.3866704 196.113328,75.9466648 197.14,76.32 C198.166672,76.6933352 199.613324,77.0666648 201.48,77.44 L200.36,78.28 C201.666673,78.6533352 202.739996,78.8866662 203.58,78.98 C204.420004,79.0733338 205.21333,79.3999972 205.96,79.96 C206.70667,80.5200028 207.919992,81.4533268 209.6,82.76 L209.6,84.72 L207.36,85 L209.04,85.84 L209.04,92.28 L205.12,93.96 L206.52,96.2 L204,95.64 L202.88,97.32 C200.079986,97.1333324 197.886675,97.0866662 196.3,97.18 C194.713325,97.2733338 192.520014,96.5266746 189.72,94.94 C186.919986,93.3533254 184.16668,91.6733422 181.46,89.9 C178.75332,88.1266578 174.600028,85.0000224 169,80.52 L168.44,76.88 L172.08,76.88 L172.36,75.48 C173.853341,74.9199972 175.439992,73.8933408 177.12,72.4 Z M79.96,159.48 C75.8533128,160.973341 72.3066816,162.186662 69.32,163.12 C66.3333184,164.053338 57.0934108,168.066631 41.6,175.16 L38.24,181.88 L47.76,198.96 L50.28,198.96 C61.480056,186.079936 68.1999888,177.913351 70.44,174.46 C72.6800112,171.006649 75.8533128,166.013366 79.96,159.48 Z M326.12,138.256 L326.12,138.04 L326.4,137.92 L326.12,138.256 L326.12,138.256 Z M326.12,138.04 L324.44,138.76 L326.12,137.36 L326.12,138.04 L326.12,138.04 Z M326.12,138.256 L326.12,138.76 C326.86667,138.01333 327.706662,137.26667 328.64,136.52 L330.04,134 C328.919994,135.680008 327.426676,136.426668 325.56,136.24 L328.92,130.92 C324.99998,132.226673 321.873345,133.206663 319.54,133.86 C317.206655,134.513337 314.546682,134.886666 311.56,134.98 C308.573318,135.073334 306.10001,134.793337 304.14,134.14 C302.17999,133.486663 299.426684,132.506673 295.88,131.2 C294.013324,129.146656 292.053344,127.046677 290,124.9 C287.946656,122.753323 287.059999,120.233348 287.34,117.34 C287.620001,114.446652 288.366661,111.366683 289.58,108.1 C290.793339,104.833317 292.799986,98.7200448 295.6,89.76 C292.799986,91.0666732 290.606675,91.9999972 289.02,92.56 C287.433325,93.1200028 285.753342,93.4 283.98,93.4 C282.206658,93.4 279.873348,93.0266704 276.98,92.28 C274.086652,91.5333296 271.893341,90.5066732 270.4,89.2 C268.906659,87.8933268 267.506673,87.4266648 266.2,87.8 C264.893327,88.1733352 263.213344,88.6399972 261.16,89.2 C261.16,88.0799944 259.993345,84.9066928 257.66,79.68 C255.326655,74.4533072 253.693338,70.1600168 252.76,66.8 L256.12,63.16 L262.28,62.88 C263.586673,65.4933464 265.453321,67.8266564 267.88,69.88 C269.000006,70.6266704 269.93333,71.1399986 270.68,71.42 C271.42667,71.7000014 273.339985,71.373338 276.42,70.44 C279.500015,69.506662 284.633297,66.8000224 291.82,62.32 C299.006703,57.8399776 303.719989,54.5266774 305.96,52.38 C308.200011,50.2333226 309.973327,49.16 311.28,49.16 C312.586673,49.16 313.659996,48.7400042 314.5,47.9 C315.340004,47.0599958 316.086663,46.5000014 316.74,46.22 C317.393337,45.9399986 317.813332,45.8466662 318,45.94 C318.186668,46.0333338 318.559997,46.08 319.12,46.08 C319.680003,45.3333296 320.566661,44.8200014 321.78,44.54 C322.993339,44.2599986 324.019996,44.12 324.86,44.12 C325.700004,44.12 326.866659,44.0266676 328.36,43.84 C329.853341,43.6533324 330.879997,43.1866704 331.44,42.44 C332.373338,43.1866704 333.21333,43.6066662 333.96,43.7 C334.70667,43.7933338 335.686661,44.073331 336.9,44.54 C338.113339,45.006669 339.419993,45.4266648 340.82,45.8 C342.220007,46.1733352 343.29333,46.5466648 344.04,46.92 C344.78667,47.2933352 345.719994,47.8533296 346.84,48.6 C346.84,49.3466704 346.886666,50.0466634 346.98,50.7 C347.073334,51.3533366 346.793337,52.0533296 346.14,52.8 C345.486663,53.5466704 344.413341,55.0399888 342.92,57.28 L339.84,56.16 L337.6,59.8 C336.106659,60.733338 334.613341,61.2 333.12,61.2 C332.933332,61.9466704 332.886666,62.5066648 332.98,62.88 C333.073334,63.2533352 332.74667,63.9533282 332,64.98 C331.25333,66.0066718 330.040008,67.6399888 328.36,69.88 L327.8,67.08 L326.68,69.88 L327.8,71 L326.12,73.52 L326.4,70.16 C325.65333,71.093338 324.30001,73.0533184 322.34,76.04 C320.37999,79.0266816 319.306668,81.0799944 319.12,82.2 L316.88,84.16 L313.24,91.44 L312.96,90.04 L312.4,93.4 L310.44,94.24 C310.44,95.7333408 310.06667,97.0399944 309.32,98.16 L308.76,97.04 C308.386665,98.5333408 307.966669,99.6066634 307.5,100.26 C307.033331,100.913337 306.100007,102.966649 304.7,106.42 C303.299993,109.873351 302.320003,112.346659 301.76,113.84 L302.6,113 C300.919992,116.360017 300.733327,119.533318 302.04,122.52 C303.160006,123.26667 304.046663,123.873331 304.7,124.34 C305.353337,124.806669 306.986654,125.086666 309.6,125.18 C312.213346,125.273334 315.293316,124.760006 318.84,123.64 C322.386684,122.519994 327.613299,120.933344 334.52,118.88 L336.76,114.96 C339.000011,115.146668 340.49333,115.379999 341.24,115.66 C341.98667,115.940001 342.686663,115.70667 343.34,114.96 C343.993337,114.21333 345.29999,114.073331 347.26,114.54 C349.22001,115.006669 351.086658,115.24 352.86,115.24 C354.633342,115.24 356.266659,115.566663 357.76,116.22 C359.253341,116.873337 361.306654,117.666662 363.92,118.6 L367,121.68 L369.24,123.36 C369.426668,123.920003 369.613332,124.386665 369.8,124.76 C369.986668,125.133335 370.08,125.786662 370.08,126.72 C370.08,127.653338 370.173332,129.333321 370.36,131.76 C371.666673,129.333321 375.213304,121.773397 381,109.08 C386.786696,96.3866032 389.866665,86.540035 390.24,79.54 C390.613335,72.539965 392.806647,64.7000434 396.82,56.02 C400.833353,47.3399566 403.026665,42.3466732 403.4,41.04 C403.773335,39.7333268 403.96,38.146676 403.96,36.28 L405.08,37.4 L406.48,37.4 C407.040003,37.4 407.879994,37.7733296 409,38.52 C410.120006,39.2666704 412.266651,40.4799916 415.44,42.16 L418.8,48.04 L416.28,49.72 C415.719997,53.6400196 414.553342,59.6599594 412.78,67.78 C411.006658,75.9000406 409.886669,81.9199804 409.42,85.84 C408.953331,89.7600196 408.206672,92.653324 407.18,94.52 C406.153328,96.386676 405.64,98.0666592 405.64,99.56 C405.64,101.053341 405.313337,102.266662 404.66,103.2 C404.006663,104.133338 403.819999,105.113328 404.1,106.14 C404.380001,107.166672 404.006672,108.146662 402.98,109.08 C401.953328,110.013338 401.486666,111.506656 401.58,113.56 C401.673334,115.613344 401.393337,117.339993 400.74,118.74 C400.086663,120.140007 399.573335,121.586659 399.2,123.08 L398.36,123.08 C395.746654,132.040045 393.413344,138.946642 391.36,143.8 C389.306656,148.653358 385.993356,157.379937 381.42,169.98 C376.846644,182.580063 374.280003,189.25333 373.72,190 C373.159997,190.74667 372.320006,192.706651 371.2,195.88 L372.6,193.92 L372.6,194.48 C371.666662,196.720011 370.920003,198.166663 370.36,198.82 C369.799997,199.473337 369.52,200.219996 369.52,201.06 C369.52,201.900004 369.053338,203.066659 368.12,204.56 C367.186662,206.053341 366.766666,207.313328 366.86,208.34 C366.953334,209.366672 366.300007,211.419985 364.9,214.5 C363.499993,217.580015 363.593325,221.733307 365.18,226.96 C366.766675,232.186693 367.233337,236.199986 366.58,239 C365.926663,241.800014 365.22667,245.90664 364.48,251.32 L362.24,253.28 C359.999989,252.719997 358.366672,252.346668 357.34,252.16 C356.313328,251.973332 354.866676,251.926666 353,252.02 C351.133324,252.113334 348.84668,251.833337 346.14,251.18 C343.43332,250.526663 341.146676,249.500007 339.28,248.1 C337.413324,246.699993 334.800017,244.880011 331.44,242.64 C330.879997,241.333327 330.133338,239.140015 329.2,236.06 C328.266662,232.979985 327.240006,229.946682 326.12,226.96 L323.88,225.28 C324.066668,222.479986 323.973335,220.333341 323.6,218.84 C323.226665,217.346659 322.946668,216.413335 322.76,216.04 C322.573332,215.666665 322.386668,215.10667 322.2,214.36 L318.56,213.8 L316.88,211.56 L311.56,210.16 L309.04,207.64 L305.68,207.64 L304.84,205.4 L310.44,199.8 C315.666693,197.559989 319.679986,195.973338 322.48,195.04 C325.280014,194.106662 328.453316,192.893341 332,191.4 C335.546684,189.906659 338.066659,189.066668 339.56,188.88 L340.4,190.56 L346.28,185.8 C349.826684,178.333296 352.486658,173.24668 354.26,170.54 C356.033342,167.83332 357.479994,165.12668 358.6,162.42 C359.720006,159.71332 361.399989,155.466696 363.64,149.68 L348.8,164.8 L349.08,163.4 L353,159.76 L355.52,155 L357.76,153.32 C358.320003,150.893321 359.626656,148.466679 361.68,146.04 L363.92,146.04 L365.88,142.12 L363.92,143.8 L363.92,142.12 L360.84,145.48 L359.72,144.36 L360,143.24 C357.199986,146.600017 354.586679,149.866651 352.16,153.04 L342.36,162.56 L341.8,164.8 L344.04,163.4 L340.96,166.2 L340.4,165.08 L333.68,171.24 L333.4,172.36 L327.8,175.16 L327.24,178.52 C324.066651,180.573344 321.080014,182.719989 318.28,184.96 L317.44,186.36 L321.36,186.36 L320.52,187.2 C315.10664,187.2 309.973358,185.800014 305.12,183 C306.426673,183.74667 307.826659,183.653338 309.32,182.72 L306.8,177.12 C305.119992,177.680003 303.533341,177.866668 302.04,177.68 C300.919994,176.186659 300.266668,174.413344 300.08,172.36 L301.48,172.64 C300.73333,171.333327 299.753339,168.906684 298.54,165.36 C297.326661,161.813316 295.553345,158.126686 293.22,154.3 C290.886655,150.473314 289.626668,148.280003 289.44,147.72 C289.253332,147.159997 289.346665,146.600003 289.72,146.04 L283.28,138.48 L281.6,137.36 L281.04,135.68 L279.92,136.52 L279.64,135.4 L278.8,137.36 L279.64,137.64 C278.519994,139.133341 278.053332,140.766658 278.24,142.54 C278.426668,144.313342 278.380001,146.366655 278.1,148.7 C277.819999,151.033345 277.446669,153.039992 276.98,154.72 C276.513331,156.400008 276.746662,158.079992 277.68,159.76 C277.493332,159.76 277.446666,160.73999 277.54,162.7 C277.633334,164.66001 277.213338,166.61999 276.28,168.58 C275.346662,170.54001 275.299996,172.266659 276.14,173.76 C276.980004,175.253341 277.306668,177.073323 277.12,179.22 C276.933332,181.366677 276.513337,183.093327 275.86,184.4 C275.206663,185.706673 275.159997,186.826662 275.72,187.76 C276.280003,188.693338 276.373335,189.999992 276,191.68 C275.626665,193.360008 275.346668,196.346645 275.16,200.64 L276.56,200.08 L284.4,186.08 C282.346656,195.226712 280.573341,204.186623 279.08,212.96 L283.56,214.08 L285.24,218.84 L286.64,220.52 C285.89333,225.373358 285.52,230.413307 285.52,235.64 C283.839992,236.013335 281.740013,236.57333 279.22,237.32 C276.699987,238.06667 274.693341,238.906662 273.2,239.84 L270.68,235.92 L265.64,231.16 C265.453332,230.599997 265.406666,230.086669 265.5,229.62 C265.593334,229.153331 264.893341,227.240017 263.4,223.88 C261.906659,220.519983 260.78667,218.326672 260.04,217.3 C259.29333,216.273328 258.640003,215.106673 258.08,213.8 C257.519997,212.493327 257.193334,210.766677 257.1,208.62 C257.006666,206.473323 257.239997,204.980004 257.8,204.14 C258.360003,203.299996 259.106662,202.040008 260.04,200.36 L264.52,197.84 C266.573344,190.186628 267.739999,183.373363 268.02,177.4 C268.300001,171.426637 269.139993,163.306718 270.54,153.04 C271.940007,142.773282 272.360003,134.233367 271.8,127.42 C271.239997,120.606633 272.733316,114.960022 276.28,110.48 L277.68,109.36 C279.173341,111.600011 280.433328,113.09333 281.46,113.84 C282.486672,114.58667 283,115.753325 283,117.34 C283,118.926675 282.766669,119.859999 282.3,120.14 C281.833331,120.420001 281.506668,120.93333 281.32,121.68 L279.64,123.08 L279.64,132.6 L283.84,136.8 L284.68,135.68 L283,133.44 L283.84,133.16 C285.146673,134.840008 286.826656,135.959997 288.88,136.52 L284.4,131.2 L290,135.4 C289.25333,134.65333 288.88,133.720006 288.88,132.6 L292.52,136.8 C294.200008,136.613332 295.506662,137.126661 296.44,138.34 C297.373338,139.553339 299.566649,141.466654 303.02,144.08 C306.473351,146.693346 309.413321,148.559994 311.84,149.68 L315.76,147.44 L314.64,148.56 C315.38667,148.186665 316.319994,148 317.44,148 L323.04,141.56 L321.92,141.28 L323.04,139.6 L323.6,141.28 L326.12,138.256 L326.12,138.256 Z M307.08,96.2 L305.68,97.88 C305.306665,98.2533352 305.213332,98.5799986 305.4,98.86 C305.586668,99.1400014 305.353337,99.513331 304.7,99.98 C304.046663,100.446669 303.72,101.333327 303.72,102.64 C303.72,103.946673 303.160006,105.066662 302.04,106 C300.919994,106.933338 299.98667,109.173316 299.24,112.72 C298.49333,116.266684 298.166666,118.273331 298.26,118.74 C298.353334,119.206669 298.4,119.719997 298.4,120.28 C298.773335,118.973327 299.753325,116.500018 301.34,112.86 C302.926675,109.219982 304.933321,103.760036 307.36,96.48 L307.08,96.2 Z M397.52,128.12 C397.146665,130.173344 396.726669,131.806661 396.26,133.02 C395.793331,134.233339 395.373335,135.119997 395,135.68 L397.52,128.12 Z M395.205278,138.535835 L395.28,138.76 C395.201258,138.889692 395.123091,139.019614 395.045499,139.149766 C395.113585,138.909292 395.166845,138.704648 395.205278,138.535835 L395.205278,138.535835 Z M395.045499,139.149766 C394.783391,140.075507 394.30156,141.532248 393.6,143.52 C392.479994,146.693349 390.800011,150.706642 388.56,155.56 C389.83425,149.734856 391.996062,144.26483 395.045499,139.149766 L395.045499,139.149766 Z M395.205278,138.535835 L394.72,137.08 C395.093335,137.266668 395.28,137.593331 395.28,138.06 C395.28,138.158419 395.255093,138.317031 395.205278,138.535835 L395.205278,138.535835 Z M442.6,181.6 C447.26669,184.400014 451.233317,186.546659 454.5,188.04 C457.766683,189.533341 464.906612,190.979993 475.92,192.38 C486.933388,193.780007 494.306648,194.759997 498.04,195.32 L491.88,198.68 C491.88,199.613338 492.066665,200.406663 492.44,201.06 C492.813335,201.713337 493.139999,202.646661 493.42,203.86 C493.700001,205.073339 494.119997,206.333327 494.68,207.64 C495.240003,208.946673 495.52,209.97333 495.52,210.72 C495.52,211.46667 495.799997,212.773324 496.36,214.64 L495.52,215.76 L496.08,218.28 L495.52,219.12 L496.08,222.2 L494.4,223.32 C495.14667,224.440006 495.659999,225.233331 495.94,225.7 C496.220001,226.166669 496.266668,226.586665 496.08,226.96 C495.893332,227.333335 495.706668,227.986662 495.52,228.92 L494.4,229.48 C494.213332,231.160008 494.213332,233.026656 494.4,235.08 C494.586668,237.133344 494.819999,238.579996 495.1,239.42 C495.380001,240.260004 495.14667,241.239994 494.4,242.36 L496.64,244.6 L493.84,245.72 L493.56,247.96 L488.8,251.32 L486.84,255.8 L481.8,259.58 C480.679994,260.420004 478.813346,261.21333 476.2,261.96 C473.586654,262.70667 470.880014,262.800003 468.08,262.24 C465.279986,261.679997 463.133341,260.886672 461.64,259.86 C460.146659,258.833328 458.000014,257.386676 455.2,255.52 C452.773321,251.786648 451.093338,249.266673 450.16,247.96 C449.226662,246.653327 448.060007,245.393339 446.66,244.18 C445.259993,242.966661 444.420001,241.333344 444.14,239.28 C443.859999,237.226656 443.066673,235.266676 441.76,233.4 C440.453327,231.533324 439.566669,229.013349 439.1,225.84 C438.633331,222.666651 437.606675,220.10001 436.02,218.14 C434.433325,216.17999 433.826665,213.753348 434.2,210.86 C434.573335,207.966652 434.013341,204.840017 432.52,201.48 C431.026659,198.119983 428.506684,194.806683 424.96,191.54 C421.413316,188.273317 415.160045,174.786785 406.2,151.08 L408.16,151.08 L408.72,152.48 C409.653338,153.600006 410.959992,154.16 412.64,154.16 L410.68,151.08 L419.64,157.52 L414.32,150.24 L442.6,181.6 Z M333.96,162.56 C333.399997,163.120003 332.840003,163.493332 332.28,163.68 C331.719997,163.866668 330.740007,164.519994 329.34,165.64 C327.939993,166.760006 325.653349,168.813318 322.48,171.8 C325.653349,170.866662 328.639986,169.186679 331.44,166.76 L331.44,165.08 L333.96,162.84 L333.96,162.56 Z M566.68,1 C570.226684,1.3733352 573.679983,2.493324 577.04,4.36 C577.973338,9.5866928 578.44,13.1799902 578.44,15.14 C578.44,17.1000098 578.719997,18.4066634 579.28,19.06 C579.840003,19.7133366 580.49333,20.506662 581.24,21.44 L604.2,31.52 L603.36,32.64 L605.04,37.68 L603.36,38.8 C605.040008,41.0400112 607.093321,43.093324 609.52,44.96 L615.96,40.48 C616.70667,36.3733128 617.45333,33.5733408 618.2,32.08 C618.94667,30.5866592 619.133335,29.1866732 618.76,27.88 C618.386665,26.5733268 617.920003,24.7066788 617.36,22.28 L620.44,18.08 C622.680011,19.013338 624.359994,19.5266662 625.48,19.62 C626.600006,19.7133338 627.673328,20.1333296 628.7,20.88 C629.726672,21.6266704 631.453321,22.8399916 633.88,24.52 L635.84,27.88 C635.653332,28.2533352 635.513334,29.5599888 635.42,31.8 C635.326666,34.0400112 635.093335,37.2133128 634.72,41.32 L642.56,37.12 C643.120003,33.9466508 643.4,31.7066732 643.4,30.4 C643.4,29.0933268 643.166669,26.8533492 642.7,23.68 C642.233331,20.5066508 642,18.0800084 642,16.4 L643.68,15 L643.68,13.04 C645.920011,11.9199944 648.486652,10.9400042 651.38,10.1 C654.273348,9.2599958 655.999997,9.073331 656.56,9.54 C657.120003,10.006669 657.679997,10.5199972 658.24,11.08 L656,18.92 C658.240011,20.786676 660.013327,22.2333282 661.32,23.26 C662.626673,24.2866718 664.539987,25.1733296 667.06,25.92 C669.580013,26.6666704 671.399994,27.3666634 672.52,28.02 C673.640006,28.6733366 675.133324,29.466662 677,30.4 L675.32,30.68 L676.16,32.92 L673.08,35.16 L674.76,37.96 L680.08,40.48 C671.119955,45.14669 662.533374,49.9066424 654.32,54.76 L655.72,56.16 L659.36,54.76 L661.32,57 C666.173358,59.4266788 670.93331,62.039986 675.6,64.84 L673.36,67.64 L670,69.04 L670,70.44 C666.266648,71.1866704 662.813349,72.1199944 659.64,73.24 C659.826668,74.5466732 660.199997,75.5733296 660.76,76.32 C661.320003,77.0666704 662.019996,78.9333184 662.86,81.92 C663.700004,84.9066816 663.980001,87.7533198 663.7,90.46 C663.419999,93.1666802 663.28,97.786634 663.28,104.32 C670.560036,102.826659 677.466634,99.6533576 684,94.8 L687.36,70.44 C688.853341,70.8133352 690.253327,71.6533268 691.56,72.96 L692.96,78.84 L700.24,85.56 L702.2,84.44 L703.04,85.28 L704.16,85.56 C705.280006,86.8666732 706.399994,88.2666592 707.52,89.76 L710.04,89.76 C711.160006,91.626676 712.09333,93.1199944 712.84,94.24 C713.58667,95.3600056 714.053332,96.8066578 714.24,98.58 C714.426668,100.353342 714.426668,101.519997 714.24,102.08 C714.053332,102.640003 713.866668,103.386662 713.68,104.32 L712.56,102.64 L710.88,107.96 L709.76,106 L707.24,109.92 C703.133313,111.786676 699.773346,114.213318 697.16,117.2 L699.4,118.32 L702.2,114.68 L704.16,114.68 L706.4,111.6 L708.08,110.2 L708.08,113.28 L709.76,111.88 L713.96,107.68 C713.026662,109.920011 712.000006,111.879992 710.88,113.56 L708.08,114.96 L707.52,114.4 C705.839992,115.893341 704.580004,117.059996 703.74,117.9 C702.899996,118.740004 701.266679,119.719994 698.84,120.84 C696.413321,121.960006 694.920003,122.52 694.36,122.52 L692.68,122.52 L693.24,120.84 L691.56,120.28 L687.64,123.64 L687.64,122.52 L682.32,123.92 L680.92,125.6 C680.359997,125.413332 678.586682,125.739996 675.6,126.58 C672.613318,127.420004 670.840003,127.979999 670.28,128.26 L668.32,129.24 L667.2,130.36 C663.466648,133.160014 659.360022,134.093338 654.88,133.16 L653.76,139.6 L652.92,139.32 C652.733332,141.186676 652.686666,143.426654 652.78,146.04 C652.873334,148.653346 653.013332,150.146665 653.2,150.52 C653.386668,150.893335 653.386668,151.733327 653.2,153.04 L653.76,151.08 C654.320003,152.573341 654.460001,153.646663 654.18,154.3 C653.899999,154.953337 653.853332,155.65333 654.04,156.4 C654.226668,157.14667 654.180001,157.799997 653.9,158.36 C653.619999,158.920003 653.759997,159.853327 654.32,161.16 L654.6,158.64 C654.786668,162.746687 655.066665,165.686658 655.44,167.46 C655.813335,169.233342 655.766669,170.539996 655.3,171.38 C654.833331,172.220004 654.506668,173.573324 654.32,175.44 L652.92,176 C652.546665,176.74667 652.173335,177.306665 651.8,177.68 C651.426665,178.053335 651.053335,178.939993 650.68,180.34 C650.306665,181.740007 649.840003,183.746654 649.28,186.36 L650.96,181.04 L651.52,184.12 L653.76,181.88 L652.92,185.52 L652.92,183.84 L650.96,184.96 L650.96,188.88 L652.36,186.64 L653.2,189.44 L650.96,193.64 C651.146668,194.013335 651.379999,194.293332 651.66,194.48 C651.940001,194.666668 651.893335,194.993331 651.52,195.46 C651.146665,195.926669 650.866668,196.906659 650.68,198.4 L651.24,196.16 L652.64,197 C652.453332,198.680008 652.033337,200.639989 651.38,202.88 C650.726663,205.120011 650.120003,207.733318 649.56,210.72 C648.999997,213.706682 648.580001,215.666662 648.3,216.6 C648.019999,217.533338 647.88,219.026656 647.88,221.08 C650.866682,222.760008 653.573321,224.206661 656,225.42 C658.426679,226.633339 662.439972,227.24 668.04,227.24 C673.640028,227.24 678.679978,226.86667 683.16,226.12 C687.640022,225.37333 690.579993,224.533338 691.98,223.6 C693.380007,222.666662 694.359997,222.060001 694.92,221.78 C695.480003,221.499999 696.039997,221.36 696.6,221.36 L693.52,224.16 C695.946679,223.786665 698.466654,223.413335 701.08,223.04 L694.08,228.64 L693.8,230.04 L703.04,224.72 L695.76,232 L695.48,233.12 L693.24,234.8 L694.36,235.36 C693.426662,235.920003 693.053332,236.759994 693.24,237.88 L696.6,235.92 L694.92,241.24 C695.66667,242.546673 696.319997,243.433331 696.88,243.9 C697.440003,244.366669 697.906665,245.113328 698.28,246.14 C698.653335,247.166672 700.006655,248.846655 702.34,251.18 C704.673345,253.513345 706.306662,255.426659 707.24,256.92 C708.173338,258.413341 708.779999,259.906659 709.06,261.4 C709.340001,262.893341 709.946662,264.339993 710.88,265.74 C711.813338,267.140007 712.233334,268.119997 712.14,268.68 C712.046666,269.240003 712.093332,269.89333 712.28,270.64 C711.719997,270.64 711.160003,270.779999 710.6,271.06 C710.039997,271.340001 709.433337,271.85333 708.78,272.6 C708.126663,273.34667 706.866676,274.466659 705,275.96 C703.506659,279.88002 702.106673,283.706648 700.8,287.44 L696.04,288.56 L692.68,285.76 L691.28,286.04 L685.4,282.68 L686.52,284.64 L684,284.64 L682.88,282.68 C681.199992,281.746662 679.286677,280.626673 677.14,279.32 C674.993323,278.013327 673.54667,277.266668 672.8,277.08 L670.28,273.72 L675.04,274.84 L673.92,273.44 L675.32,272.6 L670.84,270.36 L668.32,267.28 C667.57333,267.28 666.966669,267.233334 666.5,267.14 C666.033331,267.046666 665.053341,266.673337 663.56,266.02 C662.066659,265.366663 660.480008,264.66667 658.8,263.92 L657.68,265.04 L657.68,263.36 C655.813324,263.173332 654.460004,262.846669 653.62,262.38 C652.779996,261.913331 651.473342,261.213338 649.7,260.28 C647.926658,259.346662 646.013344,258.600003 643.96,258.04 L644.24,256.36 C641.253318,256.920003 638.826676,256.173344 636.96,254.12 L637.24,252.16 C632.946645,250.666659 629.866676,249.686669 628,249.22 C626.133324,248.753331 623.146687,247.400011 619.04,245.16 C614.933313,242.919989 604.946746,234.986735 589.08,221.36 C588.146662,223.973346 586.840008,226.119992 585.16,227.8 L583.76,228.92 C583.573332,230.226673 583.246669,231.113331 582.78,231.58 C582.313331,232.046669 581.893335,232.65333 581.52,233.4 C581.146665,234.14667 580.773335,234.753331 580.4,235.22 C580.026665,235.686669 579.653335,236.386662 579.28,237.32 L580.4,237.6 C578.533324,239.653344 575.920017,243.293307 572.56,248.52 C569.199983,253.746693 566.586676,257.573321 564.72,260 L559.68,264.48 L559.68,263.08 C557.626656,264.573341 554.546687,266.393323 550.44,268.54 C546.333313,270.686677 543.440008,271.76 541.76,271.76 C540.079992,271.76 538.586673,272.086663 537.28,272.74 C535.973327,273.393337 534.94667,273.72 534.2,273.72 L530.56,271.48 C529.626662,269.426656 528.833337,267.560008 528.18,265.88 C527.526663,264.199992 527.106668,262.846672 526.92,261.82 C526.733332,260.793328 526.500001,259.90667 526.22,259.16 C525.939999,258.41333 525.333338,257.480006 524.4,256.36 L530.28,258.88 C530.093332,257.386659 530,256.313337 530,255.66 C530,255.006663 529.766669,254.493335 529.3,254.12 C528.833331,253.746665 528.413335,253.000006 528.04,251.88 L523.28,247.96 L528.32,247.96 L525.8,244.32 C526.54667,245.06667 527.29333,245.673331 528.04,246.14 C528.78667,246.606669 530.326655,247.259996 532.66,248.1 C534.993345,248.940004 538.86664,250.666654 544.28,253.28 L551,248.52 C557.346698,241.986634 562.85331,234.893372 567.52,227.24 L565.84,224.72 L563.88,225.56 L560.52,230.04 C557.533318,227.986656 556.04,225.280017 556.04,221.92 L554.36,221.92 L553.52,218.56 L552.12,218.56 L548.48,211.84 C547.173327,210.906662 546.240003,210.160003 545.68,209.6 C545.119997,209.039997 544.513337,208.76 543.86,208.76 C543.206663,208.76 542.413338,208.666668 541.48,208.48 L543.16,205.96 L542.32,204.28 L544,202.88 C545.306673,199.893318 546.239997,197.513342 546.8,195.74 C547.360003,193.966658 549.039986,190.420027 551.84,185.1 C554.640014,179.779973 556.41333,175.393351 557.16,171.94 C557.90667,168.486649 558.326666,165.40668 558.42,162.7 C558.513334,159.99332 558.93333,154.440042 559.68,146.04 L557.72,144.08 C558.093335,143.519997 558.466665,142.540007 558.84,141.14 C559.213335,139.739993 559.539999,138.620004 559.82,137.78 C560.100001,136.939996 560.519997,135.866673 561.08,134.56 L563.04,135.12 L562.48,134 C563.600006,133.813332 564.346665,133.533335 564.72,133.16 C565.093335,132.786665 565.65333,132.833331 566.4,133.3 C567.14667,133.766669 568.266659,134.37333 569.76,135.12 L571.72,149.68 C572.840006,148.559994 573.819996,147.533338 574.66,146.6 C575.500004,145.666662 578.953303,143.006689 585.02,138.62 C591.086697,134.233311 595.893316,131.340007 599.44,129.94 C602.986684,128.539993 607.373307,126.440014 612.6,123.64 L607.56,118.32 L608.4,107.4 L609.8,106 C609.8,105.439997 610.686658,104.273342 612.46,102.5 C614.233342,100.726658 615.773327,99.0933408 617.08,97.6 C614.093318,99.466676 611.946673,100.819996 610.64,101.66 C609.333327,102.500004 608.166672,103.153331 607.14,103.62 C606.113328,104.086669 604.573344,104.599997 602.52,105.16 L595.8,100.96 C595.8,100.21333 595.846666,99.6533352 595.94,99.28 C596.033334,98.9066648 595.893335,98.3933366 595.52,97.74 C595.146665,97.0866634 594.773335,95.9200084 594.4,94.24 C593.279994,96.4800112 592.113339,98.6266564 590.9,100.68 C589.686661,102.733344 589.313331,105.019987 589.78,107.54 C590.246669,110.060013 590.48,112.486655 590.48,114.82 C590.48,117.153345 589.966672,119.579987 588.94,122.1 C587.913328,124.620013 587.073337,126.439994 586.42,127.56 C585.766663,128.680006 584.786673,130.266656 583.48,132.32 C580.679986,133.440006 578.253344,133.160008 576.2,131.48 C575.266662,130.173327 574.193339,128.54001 572.98,126.58 C571.766661,124.61999 570.133344,121.960017 568.08,118.6 L562.48,116.08 C562.293332,114.773327 562.2,113.74667 562.2,113 C562.2,112.25333 562.899993,111.180007 564.3,109.78 C565.700007,108.379993 566.679997,106.933341 567.24,105.44 C567.800003,103.946659 567.893335,102.640006 567.52,101.52 C567.146665,100.399994 566.866668,98.440014 566.68,95.64 L560.8,98.44 C559.866662,99.9333408 558.840006,101.146662 557.72,102.08 C556.599994,103.013338 553.753356,107.77329 549.18,116.36 C544.606644,124.94671 542.180001,130.033325 541.9,131.62 C541.619999,133.206675 541.10667,134.559994 540.36,135.68 C539.61333,136.800006 538.120011,139.973307 535.88,145.2 C533.639989,150.426693 532.380001,154.113323 532.1,156.26 C531.819999,158.406677 531.540001,159.713331 531.26,160.18 C530.979999,160.646669 530.653335,161.25333 530.28,162 L522.72,162 L520.2,158.08 L517.96,158.08 C517.399997,156.959994 517.12,155.373344 517.12,153.32 C517.12,151.266656 517.026668,149.773338 516.84,148.84 C516.653332,147.906662 516.280003,146.413344 515.72,144.36 L517.4,143.8 C517.213332,141.933324 517.679994,140.160008 518.8,138.48 C519.920006,136.799992 521.599989,133.906687 523.84,129.8 C526.080011,125.693313 527.853327,122.986673 529.16,121.68 L528.6,123.92 C529.160003,123.546665 529.673331,123.080003 530.14,122.52 C530.606669,121.959997 531.306662,120.886675 532.24,119.3 C533.173338,117.713325 534.759989,114.96002 537,111.04 C531.026637,114.586684 526.360017,117.059993 523,118.46 C519.639983,119.860007 515.113362,122.193317 509.42,125.46 C503.726638,128.726683 500.320006,130.826662 499.2,131.76 C498.079994,132.693338 496.680008,133.439997 495,134 L493.88,131.76 C492.573327,130.453327 491.080008,129.893332 489.4,130.08 C487.533324,128.213324 486.786665,125.880014 487.16,123.08 L483.52,121.4 L481.84,118.88 L483.8,116.64 C485.293341,116.079997 486.459996,115.566669 487.3,115.1 C488.140004,114.633331 490.426648,114.77333 494.16,115.52 C497.893352,116.26667 508.71991,109.920067 526.64,96.48 L521.6,92 C520.293327,89.9466564 519.220004,88.2666732 518.38,86.96 C517.539996,85.6533268 516.420007,83.6933464 515.02,81.08 C513.619993,78.4666536 512.873334,76.226676 512.78,74.36 C512.686666,72.493324 512.453335,69.8800168 512.08,66.52 L510.12,65.4 C510.12,65.0266648 510.166666,64.7000014 510.26,64.42 C510.353334,64.1399986 510.120003,63.6266704 509.56,62.88 C508.999997,62.1333296 508.440003,60.9200084 507.88,59.24 L508.72,60.64 L509,56.16 C510.306673,54.8533268 511.286663,53.9200028 511.94,53.36 C512.593337,52.7999972 513.666659,52.286669 515.16,51.82 C516.653341,51.353331 518.986651,50.3733408 522.16,48.88 C525.146682,44.3999776 527.386659,41.1333436 528.88,39.08 C530.373341,37.0266564 531.726661,34.133352 532.94,30.4 C534.153339,26.666648 535.13333,22.933352 535.88,19.2 C536.62667,15.466648 536.113342,12.900007 534.34,11.5 C532.566658,10.099993 531.540001,9.0266704 531.26,8.28 C530.979999,7.5333296 530.653335,6.693338 530.28,5.76 L530.84,4.92 C533.453346,5.4800028 535.413327,5.8533324 536.72,6.04 C538.026673,6.2266676 539.753323,6.6933296 541.9,7.44 C544.046677,8.1866704 545.633328,9.026662 546.66,9.96 C547.686672,10.893338 549.133324,12.3866564 551,14.44 C553.240011,18.3600196 555.013327,21.0666592 556.32,22.56 C557.626673,24.0533408 558.140001,25.5466592 557.86,27.04 C557.579999,28.5333408 557.346668,30.9599832 557.16,34.32 L556.04,32.36 L555.2,38.24 L564.72,33.76 C564.906668,29.8399804 565.233331,26.8533436 565.7,24.8 C566.166669,22.7466564 566.306668,19.853352 566.12,16.12 C565.933332,12.386648 565.326672,9.586676 564.3,7.72 C563.273328,5.853324 562.666668,4.453338 562.48,3.52 L566.68,1 Z M592.44,49.72 L593.84,48.88 C593.09333,48.6933324 592.580001,48.5066676 592.3,48.32 C592.019999,48.1333324 590.853344,48.4133296 588.8,49.16 C586.746656,49.9066704 583.573355,51.0266592 579.28,52.52 L580.12,50.84 L576.76,52.52 C575.826662,54.7600112 575.033337,56.346662 574.38,57.28 C573.726663,58.213338 573.446666,58.913331 573.54,59.38 C573.633334,59.846669 573.586668,60.546662 573.4,61.48 C575.640011,60.3599944 577.13333,59.5200028 577.88,58.96 C578.62667,58.3999972 579.233331,58.1666662 579.7,58.26 C580.166669,58.3533338 580.586665,58.3066676 580.96,58.12 L583.48,55.6 L584.6,56.16 C585.533338,55.7866648 586.886658,55.3200028 588.66,54.76 C590.433342,54.1999972 591.69333,53.5466704 592.44,52.8 L592.72,54.76 C594.773344,54.3866648 596.639992,54.7599944 598.32,55.88 L600.84,54.2 L603.36,57.84 L612.04,60.08 L611.48,56.16 L607.56,52.8 C607.746668,52.0533296 607.933332,51.5866676 608.12,51.4 C608.306668,51.2133324 608.353334,50.7933366 608.26,50.14 C608.166666,49.4866634 608.213332,48.6000056 608.4,47.48 L592.44,49.72 Z M635.84,63.16 L628.28,73.52 L636.4,69.88 L637.8,62.88 L635.84,63.16 Z M557.72,65.12 L547.08,74.08 C545.773327,76.1333436 543.813346,78.7466508 541.2,81.92 C538.586654,85.0933492 535.413352,88.546648 531.68,92.28 L533.08,92.56 L555.2,76.04 L558,65.4 L557.72,65.12 Z M616.52,66.52 C613.906654,67.2666704 611.200014,67.4533352 608.4,67.08 L614.84,70.72 C614.09333,71.0933352 613.393337,71.513331 612.74,71.98 C612.086663,72.446669 610.686677,72.3533366 608.54,71.7 C606.393323,71.0466634 603.593351,71.3266606 600.14,72.54 C596.686649,73.7533394 593.233351,75.4333226 589.78,77.58 C586.326649,79.7266774 580.960036,83.2266424 573.68,88.08 C574.800006,89.946676 575.73333,91.2999958 576.48,92.14 C577.22667,92.9800042 577.739999,94.099993 578.02,95.5 C578.300001,96.900007 578.999994,99.3733156 580.12,102.92 C583.666684,98.25331 586.233325,95.0800084 587.82,93.4 C589.406675,91.7199916 590.386665,90.3666718 590.76,89.34 C591.133335,88.3133282 591.506665,87.0533408 591.88,85.56 C592.440003,85.1866648 592.953331,84.9533338 593.42,84.86 C593.886669,84.7666662 594.726661,84.1133394 595.94,82.9 C597.153339,81.6866606 599.159986,79.8666788 601.96,77.44 L598.6,83.6 C601.213346,84.533338 603.173327,85.1399986 604.48,85.42 C605.786673,85.7000014 607.839986,85.0933408 610.64,83.6 C613.440014,82.1066592 617.733304,79.960014 623.52,77.16 L620.44,72.68 L618.2,70.72 L616.52,66.52 Z M590.48,70.72 C588.239989,71.4666704 586.000011,72.3999944 583.76,73.52 L582.92,75.48 L590.48,72.12 L590.48,70.72 Z M650.12,80.24 C648.626659,81.9200084 647.226673,83.5999916 645.92,85.28 L640.04,90.88 L635,97.6 L632.2,99.84 L632.76,100.4 L633.88,99.28 C630.893318,103.760022 628.700007,106.839992 627.3,108.52 C625.899993,110.200008 624.873337,111.786659 624.22,113.28 C623.566663,114.773341 622.493341,117.199983 621,120.56 C623.613346,119.81333 625.666659,119.206669 627.16,118.74 C628.653341,118.273331 630.566655,117.946668 632.9,117.76 C635.233345,117.573332 637.426656,117.85333 639.48,118.6 C641.533344,119.34667 644.51998,120.186662 648.44,121.12 L646.48,113.84 L640.88,110.48 L639.2,108.24 L642.28,100.12 L647.88,95.92 C648.440003,94.053324 648.953331,92.653338 649.42,91.72 C649.886669,90.786662 650.166666,89.5733408 650.26,88.08 C650.353334,86.5866592 650.4,84.0666844 650.4,80.52 L650.12,80.24 Z M500.88,127.28 L501.72,128.12 L507.88,123.92 L500.88,127.28 Z M626.6,134.56 C619.693299,136.613344 613.253363,139.786645 607.28,144.08 C608.213338,144.640003 609.05333,145.013332 609.8,145.2 C610.54667,145.386668 611.433328,145.993328 612.46,147.02 C613.486672,148.046672 615.213321,149.866654 617.64,152.48 L615.96,152.76 L616.52,153.6 C616.333332,154.160003 616.193334,154.626665 616.1,155 C616.006666,155.373335 615.213341,156.353325 613.72,157.94 C612.226659,159.526675 610.966672,162.839975 609.94,167.88 C608.913328,172.920025 607.886672,176.559989 606.86,178.8 C605.833328,181.040011 604.386676,184.213313 602.52,188.32 L603.36,187.48 L603.92,188.04 L598.6,201.48 L601.12,197.56 L602.52,199.52 L616.24,208.48 L616.52,207.64 L610.64,201.76 L604.2,196.16 L605.32,196.44 L605.6,195.6 L606.16,196.44 L608.4,197.56 L606.16,195.04 L607.84,195.88 L607.56,194.2 C612.600025,197.560017 618.013304,199.986659 623.8,201.48 L624.08,200.36 L626.04,201.76 C626.78667,201.199997 627.206666,200.826668 627.3,200.64 C627.393334,200.453332 627.533332,199.146679 627.72,196.72 C627.906668,194.293321 628.279997,192.426673 628.84,191.12 C629.400003,189.813327 629.493335,188.18001 629.12,186.22 C628.746665,184.25999 628.979996,181.32002 629.82,177.4 C630.660004,173.47998 630.846669,167.553373 630.38,159.62 C629.913331,151.686627 629.353337,146.506679 628.7,144.08 C628.046663,141.653321 627.533335,138.573352 627.16,134.84 L626.6,134.56 Z M601.4,147.16 C597.666648,148.653341 594.913342,149.679997 593.14,150.24 C591.366658,150.800003 589.453344,150.893335 587.4,150.52 C585.346656,150.146665 582.826682,150.379996 579.84,151.22 C576.853318,152.060004 575.033337,152.85333 574.38,153.6 C573.726663,154.34667 572.746673,155.279994 571.44,156.4 C571.44,159.946684 570.973338,163.493316 570.04,167.04 L571.16,166.2 C571.16,167.693341 571.253332,168.766663 571.44,169.42 C571.626668,170.073337 571.486669,170.586665 571.02,170.96 C570.553331,171.333335 570.133335,171.986662 569.76,172.92 L570.32,173.48 L569.76,175.72 L571.16,175.44 C571.533335,178.800017 571.066673,182.253316 569.76,185.8 L571.44,186.64 C571.44,187.013335 571.486666,187.246666 571.58,187.34 C571.673334,187.433334 571.626668,188.599989 571.44,190.84 C571.253332,193.080011 570.926669,194.899993 570.46,196.3 C569.993331,197.700007 570.086663,198.959994 570.74,200.08 C571.393337,201.200006 571.393337,203.393317 570.74,206.66 C570.086663,209.926683 569.853332,212.353325 570.04,213.94 C570.226668,215.526675 570.69333,217.719986 571.44,220.52 C574.800017,214.546637 577.506656,209.973349 579.56,206.8 C581.613344,203.626651 584.553314,197.793376 588.38,189.3 C592.206686,180.806624 595.379987,172.733372 597.9,165.08 C600.420013,157.426628 601.633334,152.946673 601.54,151.64 C601.446666,150.333327 601.4,148.840008 601.4,147.16 Z M652.64,197.28 L650.4,203.72 L649.98,202.04 C649.886666,201.666665 650.026665,201.153337 650.4,200.5 C650.773335,199.846663 651.426662,198.493344 652.36,196.44 L652.64,197.28 Z M601.12,198.4 C597.573316,203.06669 595.053341,208.199972 593.56,213.8 C597.853355,215.480008 601.026656,216.69333 603.08,217.44 C605.133344,218.18667 607.466654,218.793331 610.08,219.26 C612.693346,219.726669 616.613307,220.613327 621.84,221.92 L620.44,218 L621.28,216.6 L618.48,211.56 C612.319969,208.199983 606.626693,203.906693 601.4,198.68 L601.12,198.4 Z M648.44,203.72 C646.386656,206.706682 645.546665,209.786651 645.92,212.96 C645.92,211.279992 646.479994,209.693341 647.6,208.2 C647.039997,209.880008 646.853332,211.559992 647.04,213.24 C647.600003,212.866665 648.019999,212.493335 648.3,212.12 C648.580001,211.746665 648.72,211.000006 648.72,209.88 C648.72,208.759994 648.906665,206.520017 649.28,203.16 L648.44,203.72 Z M734.448181,164.763635 C734.245497,164.312414 734.056103,163.857869 733.88,163.4 L734.448181,164.763635 L734.448181,164.763635 Z M734.448181,164.763635 C735.319712,166.703861 736.436978,168.582637 737.8,170.4 L738.64,170.12 L736.68,167.04 L737.8,167.88 C737.613332,167.319997 737.426668,166.620004 737.24,165.78 C737.053332,164.939996 736.866668,164.14667 736.68,163.4 L737.24,164.24 L740.6,167.04 C741.160003,162.37331 741.579999,158.593348 741.86,155.7 C742.140001,152.806652 742.559997,147.766703 743.12,140.58 C743.680003,133.393297 743.96,121.400084 743.96,104.6 L743.4,103.76 L736.4,108.24 L735,111.88 C731.266648,110.386659 727.906682,108.240014 724.92,105.44 L723.52,103.48 L723.8,102.64 L721.84,101.24 L722.96,100.4 L721.28,98.72 C722.586673,98.5333324 723.566663,98.3466676 724.22,98.16 C724.873337,97.9733324 725.946659,97.413338 727.44,96.48 C728.933341,95.546662 731.266651,94.0533436 734.44,92 L732.48,89.2 C734.533344,88.4533296 736.026662,87.9866676 736.96,87.8 C737.893338,87.6133324 739.33999,87.52 741.3,87.52 C743.26001,87.52 747.273303,85.0933576 753.34,80.24 C759.406697,75.3866424 764.959975,71.560014 770,68.76 C775.040025,65.959986 778.679989,64.1866704 780.92,63.44 C783.160011,62.6933296 786.23998,61.4800084 790.16,59.8 L791.84,56.16 L793.24,55.04 C793.426668,52.9866564 794.173327,51.026676 795.48,49.16 L795.76,49.72 L796.88,49.44 L796.88,48.6 L797.44,48.04 L798.28,48.6 L799.12,47.48 L799.4,47.48 L798.56,48.6 C799.680006,48.9733352 800.706662,48.6000056 801.64,47.48 L800.52,46.64 C800.706668,46.64 800.893332,46.5933338 801.08,46.5 C801.266668,46.4066662 801.593331,46.4999986 802.06,46.78 C802.526669,47.0600014 803.413327,47.2933324 804.72,47.48 L806.96,50.28 C809.573346,51.0266704 811.579993,51.633331 812.98,52.1 C814.380007,52.566669 815.919992,52.8933324 817.6,53.08 C819.280008,53.2666676 821.193323,53.826662 823.34,54.76 C825.486677,55.693338 827.119994,55.9733352 828.24,55.6 C829.360006,55.2266648 830.059999,55.1333324 830.34,55.32 C830.620001,55.5066676 830.946665,55.7866648 831.32,56.16 L830.76,57.84 L831.88,58.68 C831.88,58.8666676 831.926666,59.1466648 832.02,59.52 C832.113334,59.8933352 832.393331,60.3599972 832.86,60.92 C833.326669,61.4800028 834.119994,62.5066592 835.24,64 L838.32,66.52 L837.48,71.84 C837.853335,72.2133352 838.133332,72.5399986 838.32,72.82 C838.506668,73.1000014 838.646666,73.3333324 838.74,73.52 C838.833334,73.7066676 838.88,73.8933324 838.88,74.08 C837.946662,74.2666676 837.200003,74.4066662 836.64,74.5 C836.079997,74.5933338 835.333338,74.873331 834.4,75.34 L829.64,77.72 L827.12,80.52 L826.28,79.96 C825.159994,81.6400084 824.320003,82.8533296 823.76,83.6 C823.199997,84.3466704 822.873334,85.6066578 822.78,87.38 C822.686666,89.1533422 822.360003,90.8333254 821.8,92.42 C821.239997,94.0066746 820.96,95.3133282 820.96,96.34 C820.96,97.3666718 820.726669,98.6266592 820.26,100.12 C819.793331,101.613341 819.466668,104.133316 819.28,107.68 C819.093332,111.226684 818.860001,113.279997 818.58,113.84 C818.299999,114.400003 818.066668,115.146662 817.88,116.08 C818.066668,112.346648 818.253332,109.920006 818.44,108.8 C818.626668,107.679994 818.766666,106.560006 818.86,105.44 C818.953334,104.319994 819.093332,103.340004 819.28,102.5 C819.466668,101.659996 819.56,100.120011 819.56,97.88 L818.44,98.44 C818.44,99.0000028 818.486666,99.4199986 818.58,99.7 C818.673334,99.9800014 818.673334,100.306665 818.58,100.68 C818.486666,101.053335 818.486666,101.659996 818.58,102.5 C818.673334,103.340004 818.580001,103.946665 818.3,104.32 C818.019999,104.693335 817.786668,105.066665 817.6,105.44 L818.16,106 C817.599997,108.426679 817.040003,110.759989 816.48,113 L817.32,109.08 L816.48,108.52 C816.666668,106.839992 816.76,105.766669 816.76,105.3 C816.76,104.833331 816.993331,104.366669 817.46,103.9 C817.926669,103.433331 818.16,102.360008 818.16,100.68 C818.16,98.9999916 818.020001,97.8800028 817.74,97.32 C817.459999,96.7599972 817.040003,96.013338 816.48,95.08 L816.2,97.04 L815.64,97.88 L815.36,101.8 C815.733335,101.426665 816.199997,101.24 816.76,101.24 L815.92,106.84 L815.36,107.4 L814.52,108.52 L815.64,109.08 C814.706662,110.760008 814.333332,112.439992 814.52,114.12 L815.64,113.84 L815.36,115.24 L815.08,114.68 C814.519997,116.360008 814.146668,117.57333 813.96,118.32 C813.773332,119.06667 813.633334,120.139993 813.54,121.54 C813.446666,122.940007 813.306668,124.106662 813.12,125.04 L813.68,125.32 L812.28,127.28 L813.12,128.4 L812.28,129.52 L813.12,129.8 C813.12,130.360003 813.073334,130.873331 812.98,131.34 C812.886666,131.806669 812.700001,132.646661 812.42,133.86 C812.139999,135.073339 812,136.239994 812,137.36 L811.44,137.64 L811.44,139.88 L812,139.04 L812,140.72 L811.44,140.16 L810.88,143.24 L811.44,142.96 L810.6,145.48 L809.48,145.76 L809.48,145.48 L810.04,144.36 L809.48,143.8 L810.6,143.52 L810.6,141.84 L809.48,142.4 L808.36,146.88 L808.92,148 L810.04,146.04 L810.88,146.88 L811.44,146.04 C810.879997,147.160006 810.786665,148.186662 811.16,149.12 L810.04,149.96 C810.413335,151.640008 810.22667,153.319992 809.48,155 L810.04,155.56 L811.16,151.36 L811.44,151.36 L810.88,155.56 L811.44,155.56 L810.88,155.84 L811.16,156.68 L810.04,156.68 L810.6,157.24 L810.6,158.64 C810.6,159.013335 810.739999,159.433331 811.02,159.9 C811.300001,160.366669 811.44,160.97333 811.44,161.72 L812,158.92 C812,159.106668 812.046666,159.246666 812.14,159.34 C812.233334,159.433334 812.233334,159.666665 812.14,160.04 C812.046666,160.413335 811.906668,161.066662 811.72,162 L813.12,162 C813.12,161.813332 813.49333,160.36668 814.24,157.66 C814.98667,154.95332 815.453332,153.413335 815.64,153.04 C815.64,155.280011 815.546668,157.053327 815.36,158.36 C815.173332,159.666673 815.08,160.599997 815.08,161.16 L815.08,164.24 L816.76,163.68 C817.320003,163.493332 818.113328,163.866662 819.14,164.8 C820.166672,165.733338 821.473325,166.106668 823.06,165.92 C824.646675,165.733332 825.719997,165.873331 826.28,166.34 C826.840003,166.806669 827.679994,167.41333 828.8,168.16 C828.986668,168.90667 829.173332,169.513331 829.36,169.98 C829.546668,170.446669 829.546668,170.866665 829.36,171.24 C829.173332,171.613335 828.986668,172.359994 828.8,173.48 C827.679994,174.413338 826.373341,175.066665 824.88,175.44 L824.32,176 C823.57333,177.120006 822.546673,177.773332 821.24,177.96 L820.68,179.64 C820.493332,179.826668 820.353334,179.873334 820.26,179.78 C820.166666,179.686666 819.373341,179.919997 817.88,180.48 C816.386659,181.040003 815.220004,181.599997 814.38,182.16 C813.539996,182.720003 812.560006,183.326663 811.44,183.98 C810.319994,184.633337 808.733344,185.706659 806.68,187.2 L804.72,189.16 L804.16,188.88 C802.479992,190.000006 800.100015,191.446658 797.02,193.22 C793.939985,194.993342 791.700007,196.346662 790.3,197.28 C788.899993,198.213338 787.873337,198.913331 787.22,199.38 C786.566663,199.846669 785.86667,200.359997 785.12,200.92 L784.56,200.92 L783.72,202.04 C782.226659,202.78667 780.920006,203.813327 779.8,205.12 L779.52,204.28 C779.146665,204.840003 778.773335,205.306665 778.4,205.68 L777.84,205.68 L777,206.8 L775.04,208.48 L775.6,207.08 L773.36,208.76 L774.48,208.48 L771.68,210.72 L771.68,209.88 C770.746662,210.62667 769.813338,211.093332 768.88,211.28 L768.88,212.12 L766.64,213.52 L766.08,214.36 L765.8,213.52 L764.68,214.36 L759.92,218 L759.64,217.72 L762.16,215.48 L762.44,214.64 C759.826654,216.133341 757.306679,217.999989 754.88,220.24 C754.88,220.98667 754.740001,221.593331 754.46,222.06 C754.179999,222.526669 753.853335,223.039997 753.48,223.6 C753.106665,224.160003 752.780001,224.626665 752.5,225 C752.219999,225.373335 751.986668,225.93333 751.8,226.68 L752.08,225.84 L752.08,226.68 C749.839989,228.733344 748.206672,230.273328 747.18,231.3 C746.153328,232.326672 744.986673,233.306662 743.68,234.24 C742.373327,235.173338 741.253338,235.686666 740.32,235.78 C739.386662,235.873334 738.640003,235.780001 738.08,235.5 C737.519997,235.219999 736.86667,234.800003 736.12,234.24 C735.559997,233.679997 735.186668,233.213335 735,232.84 C734.813332,232.466665 734.72,231.766672 734.72,230.74 C734.72,229.713328 734.393337,228.780004 733.74,227.94 C733.086663,227.099996 732.620001,226.30667 732.34,225.56 C732.059999,224.81333 731.92,224.113337 731.92,223.46 C731.92,222.806663 731.826668,222.060004 731.64,221.22 C731.453332,220.379996 731.406666,219.633337 731.5,218.98 C731.593334,218.326663 731.500001,217.813335 731.22,217.44 C730.939999,217.066665 730.8,216.693335 730.8,216.32 L730.24,216.04 L730.24,214.08 L731.36,214.64 L730.24,212.4 L730.24,211.42 C730.24,211.139999 730.100001,210.813335 729.82,210.44 C729.539999,210.066665 729.02667,209.600003 728.28,209.04 L729.12,207.64 L730.24,207.64 C730.24,207.079997 730.146668,206.42667 729.96,205.68 C730.333335,206.240003 730.566666,206.659999 730.66,206.94 C730.753334,207.220001 730.8,207.546665 730.8,207.92 L730.8,208.76 C730.8,208.946668 730.986665,209.133332 731.36,209.32 C731.546668,208.946665 731.686666,208.620001 731.78,208.34 C731.873334,208.059999 731.873334,207.733335 731.78,207.36 C731.686666,206.986665 731.64,206.42667 731.64,205.68 L732.76,204.56 L733.6,203.44 L735.28,202.6 L736.12,203.16 C736.12,202.599997 736.213332,201.94667 736.4,201.2 L737.24,201.2 L738.64,200.08 C739.200003,199.706665 739.759997,199.52 740.32,199.52 C740.880003,199.52 741.626662,199.380001 742.56,199.1 C743.493338,198.819999 744.33333,198.493335 745.08,198.12 C744.519997,197.559997 743.913337,196.346676 743.26,194.48 C742.606663,192.613324 741.533341,191.073339 740.04,189.86 C738.546659,188.646661 737.380004,187.340007 736.54,185.94 C735.699996,184.539993 735.140001,183.280006 734.86,182.16 C734.579999,181.039994 733.880006,179.360011 732.76,177.12 C733.320003,177.680003 733.693332,178.146665 733.88,178.52 C734.066668,178.893335 734.253332,179.359997 734.44,179.92 L735,181.6 L735.56,181.32 L733.04,175.72 L734.16,175.44 L732.2,167.04 L733.88,170.68 L734.44,170.68 C733.133327,167.506651 732.200003,164.146684 731.64,160.6 C732.38667,163.026679 732.946665,164.659996 733.32,165.5 C733.693335,166.340004 734.113331,167.039997 734.58,167.6 L736.68,170.12 L734.448181,164.763635 L734.448181,164.763635 Z M927.380488,212.427317 L927.36,212.4 L927.5,212.26 L927.380488,212.427317 L927.380488,212.427317 Z M927.5,212.26 L928.2,211.28 L928.2,211.56 L927.5,212.26 L927.5,212.26 Z M927.380488,212.427317 L928.2,213.52 C928.2,214.640006 928.060001,215.433331 927.78,215.9 C927.499999,216.366669 927.220001,216.786665 926.94,217.16 C926.659999,217.533335 926.053338,218.186662 925.12,219.12 L925.96,220.52 C923.533321,223.133346 921.293344,225.653321 919.24,228.08 L918.12,228.08 C917.37333,229.013338 917,230.039994 917,231.16 L916.16,231.16 L915.04,232.84 L913.92,231.16 C913.359997,231.16 912.800003,230.78667 912.24,230.04 L911.4,227.52 L910,227.24 C909.25333,226.679997 908.88,225.840006 908.88,224.72 L907.48,223.6 L906.64,224.44 L908.04,224.72 C908.04,225.280003 907.853335,225.93333 907.48,226.68 L908.6,227.24 L908.6,232.28 L908.04,232.28 C907.666665,231.719997 907.48,231.206669 907.48,230.74 L907.48,229.9 C907.48,229.806666 907.573332,229.573335 907.76,229.2 L907.48,227.52 L906.64,228.08 L905.52,225.84 L904.12,225.84 L903.56,225.28 L901.32,225.84 L901.88,224.72 L901.32,224.16 C900.199994,225.840008 899.546668,227.706656 899.36,229.76 L897.96,229.2 C897.773332,228.45333 897.493335,227.893335 897.12,227.52 L897.68,225.84 L897.12,225.84 L895.44,230.6 L894.88,230.32 L895.16,229.48 L894.6,228.36 L892.08,232.28 L891.8,228.36 L890.68,230.32 L889.56,229.76 L888.16,232.28 L887.6,230.04 L886.48,231.44 L885.64,229.2 L884.52,232 L883.96,230.32 L882.28,228.92 L882,228.08 L881.16,230.6 L880.6,230.6 L880.6,226.96 L876.96,223.32 L878.64,222.48 C878.453332,222.106665 878.546665,221.54667 878.92,220.8 C876.493321,218.186654 874.440008,215.293349 872.76,212.12 L873.04,211.56 L872.48,209.04 C873.973341,210.720008 875.373327,212.306659 876.68,213.8 L877.52,213.8 C877.146665,212.306659 876.726669,210.766675 876.26,209.18 C875.793331,207.593325 875.326669,205.866676 874.86,204 C874.393331,202.133324 873.320008,200.22001 871.64,198.26 C869.959992,196.29999 869.12,194.94667 869.12,194.2 C869.12,193.45333 868.933335,192.613338 868.56,191.68 L868,191.68 L866.88,189.16 L865.48,188.32 C865.48,187.759997 865.246669,187.060004 864.78,186.22 C864.313331,185.379996 864.08,184.773335 864.08,184.4 L862.96,184.12 C862.96,183.746665 862.913334,183.420001 862.82,183.14 C862.726666,182.859999 862.773332,182.533335 862.96,182.16 C863.146668,181.786665 863.006669,181.413335 862.54,181.04 C862.073331,180.666665 861.606669,180.060004 861.14,179.22 C860.673331,178.379996 859.786673,176.933344 858.48,174.88 L857.36,174.88 L857.08,175.72 L856.52,174.88 L855.68,175.44 L855.12,175.16 L854,175.72 L854,176.28 L850.36,179.64 L850.36,180.76 C851.480006,179.826662 852.273331,179.126669 852.74,178.66 C853.206669,178.193331 853.486666,177.96 853.58,177.96 L854,177.96 L852.32,179.92 L851.76,180.2 L851.48,181.32 C850.359994,182.253338 849.053341,182.999997 847.56,183.56 L847.84,184.12 L848.96,183.84 C848.586665,184.58667 848.586665,185.426662 848.96,186.36 L849.52,186.08 C849.333332,186.453335 849.333332,186.919997 849.52,187.48 L850.36,186.64 L851.2,187.48 L849.8,188.6 L849.52,187.48 L847.28,188.6 L847.56,189.44 C846.626662,189.626668 845.880003,189.906665 845.32,190.28 L845.04,189.16 L843.92,189.44 L843.92,191.12 L843.92,190.56 L843.08,190.56 C842.893332,190.56 842.520003,190.746665 841.96,191.12 C841.399997,191.493335 840.466673,192.333327 839.16,193.64 L839.72,194.2 L840.56,193.64 L840.84,193.92 L841.68,194.2 L841.68,195.04 C839.999992,196.533341 838.226676,197.559997 836.36,198.12 L836.64,197.28 L835.8,197.56 L835.8,198.12 L835.24,198.68 L835.8,198.96 L834.12,200.36 L833.84,199.8 L833.56,201.2 L833,200.92 L833.28,199.8 L833,199.8 C832.626665,200.54667 832.253335,201.199997 831.88,201.76 L831.32,201.2 L829.64,202.04 L830.76,202.04 L831.32,202.88 L832.16,202.32 L832.16,202.6 C831.226662,203.160003 830.106673,203.81333 828.8,204.56 L828.8,205.12 L826.56,205.68 L826.28,207.36 L825.72,206.52 L823.2,208.48 L822.64,207.92 L821.8,208.48 L822.64,208.76 L822.08,209.32 L822.64,209.88 L820.96,209.88 L820.96,209.32 L819.84,209.04 L820.12,209.32 L818.44,209.6 L817.6,210.16 L818.72,210.16 L818.16,211 L820.12,210.72 L820.12,211 L819,211 L818.16,212.12 L818.16,211 L817.6,211 L817.6,213.52 L817.32,213.24 L816.48,213.24 L817.32,211.28 L816.76,211.84 L813.96,212.96 L814.52,212.4 L813.68,211.84 C813.306665,212.213335 813.12,212.77333 813.12,213.52 C812.186662,214.080003 811.066673,214.36 809.76,214.36 C810.880006,214.173332 811.719997,213.893335 812.28,213.52 C812.28,213.146665 812.466665,212.773335 812.84,212.4 C811.533327,212.773335 810.320006,212.58667 809.2,211.84 L809.48,212.4 L809.48,212.96 L808.64,211.84 L807.52,212.96 L808.64,213.24 L805.28,213.8 C804.958586,214.335691 804.637174,214.809885 804.315762,215.222589 L801.36,215.76 L801.36,215.2 L802.76,214.64 L801.92,213.8 L800.8,214.36 L801.36,213.8 L800.24,213.24 L802.48,211.56 C802.853335,211.933335 803.41333,212.026668 804.16,211.84 C803.973332,211.84 803.833334,211.793334 803.74,211.7 C803.646666,211.606666 803.413335,211.56 803.04,211.56 C802.666665,211.56 802.10667,211.466668 801.36,211.28 L801.36,211.84 L799.96,212.12 L799.96,212.96 L799.12,213.24 L799.68,212.4 L798,212.4 L797.72,213.24 L797.16,212.96 L795.76,213.52 L795.48,212.4 L794.92,213.52 L794.92,212.4 L791.84,213.24 C794.453346,211.933327 796.366661,211.000003 797.58,210.44 C798.793339,209.879997 800.099993,209.22667 801.5,208.48 C802.900007,207.73333 803.879997,207.36 804.44,207.36 L804.44,206.8 L805,206.8 C805.186668,206.8 805.513331,206.613335 805.98,206.24 C806.446669,205.866665 808.313317,204.840008 811.58,203.16 C814.846683,201.479992 816.806663,200.313337 817.46,199.66 C818.113337,199.006663 818.719997,198.633334 819.28,198.54 C819.840003,198.446666 820.773327,197.886672 822.08,196.86 C823.386673,195.833328 825.626651,193.920014 828.8,191.12 C831.973349,187.759983 834.353325,185.333341 835.94,183.84 C837.526675,182.346659 839.393323,180.153348 841.54,177.26 C843.686677,174.366652 845.973321,170.96002 848.4,167.04 C850.826679,163.11998 851.900001,160.693338 851.62,159.76 C851.339999,158.826662 851.013335,157.893338 850.64,156.96 L852.04,159.2 C852.226668,158.639997 852.366666,158.266668 852.46,158.08 L853.86,155.28 C854.700004,153.599992 855.353331,152.246672 855.82,151.22 C856.286669,150.193328 856.659999,149.353337 856.94,148.7 C857.220001,148.046663 857.639997,147.160006 858.2,146.04 L858.48,146.04 L861,139.04 C859.693327,138.853332 858.526672,138.713334 857.5,138.62 C856.473328,138.526666 854.466682,138.619999 851.48,138.9 C848.493318,139.180001 846.113342,139.180001 844.34,138.9 C842.566658,138.619999 841.493335,138.619999 841.12,138.9 C840.746665,139.180001 840.280003,139.506665 839.72,139.88 L838.6,139.04 C838.039997,137.919994 837.38667,136.800006 836.64,135.68 L831.88,135.68 L831.88,136.8 L829.64,135.4 L826.28,130.64 L822.08,126.72 L821.24,124.2 L822.08,123.92 L822.36,121.96 C823.666673,122.520003 825.159992,122.520003 826.84,121.96 L826.84,120.84 C828.333341,121.213335 829.593328,121.586665 830.62,121.96 C831.646672,122.333335 833.466654,122.799997 836.08,123.36 C838.693346,123.920003 841.773316,124.060001 845.32,123.78 C848.866684,123.499999 856.239944,121.960014 867.44,119.16 C869.680011,107.959944 871.686658,99.9800238 873.46,95.22 C875.233342,90.4599762 876.399997,86.680014 876.96,83.88 C877.520003,81.079986 877.380004,78.980007 876.54,77.58 C875.699996,76.179993 874.766672,74.8266732 873.74,73.52 C872.713328,72.2133268 871.966669,71.1866704 871.5,70.44 C871.033331,69.6933296 870.42667,68.5733408 869.68,67.08 L872.76,66.8 L870.24,64 L874.44,64.56 L872.2,63.16 C873.133338,62.9733324 873.879997,62.88 874.44,62.88 C875.000003,62.88 877.053316,63.2999958 880.6,64.14 C884.146684,64.9800042 886.153331,65.633331 886.62,66.1 C887.086669,66.566669 887.459999,66.8466662 887.74,66.94 C888.020001,67.0333338 888.626662,67.1733324 889.56,67.36 L890.12,67.92 L892.36,69.04 C892.733335,70.1600056 893.386662,70.9066648 894.32,71.28 L895.44,69.32 L896.28,69.88 L894.88,71.56 L896.56,72.4 L897.12,70.72 L898.8,70.72 L898.8,69.32 L897.4,69.04 L898.8,68.48 L898.8,69.04 L901.88,73.52 C901.88,72.7733296 901.413338,71.2800112 900.48,69.04 C899.546662,66.7999888 898.70667,64.746676 897.96,62.88 C899.453341,65.8666816 900.57333,67.9666606 901.32,69.18 C902.06667,70.3933394 902.44,71.5599944 902.44,72.68 C902.44,73.8000056 902.393334,74.7333296 902.3,75.48 C902.206666,76.2266704 902.16,76.7866648 902.16,77.16 C902.16,77.5333352 902.253332,77.9999972 902.44,78.56 C902.253332,78.56 902.020001,79.1199944 901.74,80.24 C901.459999,81.3600056 902.113325,82.8999902 903.7,84.86 C905.286675,86.8200098 906.126666,88.033331 906.22,88.5 C906.313334,88.966669 906.36,89.4799972 906.36,90.04 L905.52,92 L899.92,96.48 C899.17333,97.9733408 898.613335,98.9999972 898.24,99.56 C897.866665,100.120003 897.586668,100.819996 897.4,101.66 C897.213332,102.500004 896.793337,103.199997 896.14,103.76 C895.486663,104.320003 895.16,104.833331 895.16,105.3 L895.16,106.14 C895.16,106.233334 895.066668,106.559997 894.88,107.12 L894.32,107.4 C894.32,107.773335 894.366666,108.146665 894.46,108.52 C894.553334,108.893335 894.413335,109.266665 894.04,109.64 C893.666665,110.013335 893.200003,110.946659 892.64,112.44 L901.74,110.62 C905.006683,109.966663 906.966663,109.313337 907.62,108.66 C908.273337,108.006663 909.019996,107.586668 909.86,107.4 C910.700004,107.213332 911.679994,107.353331 912.8,107.82 C913.920006,108.286669 914.899996,108.380001 915.74,108.1 C916.580004,107.819999 917.233331,107.30667 917.7,106.56 C918.166669,105.81333 919.006661,105.486666 920.22,105.58 C921.433339,105.673334 923.01999,105.393337 924.98,104.74 C926.94001,104.086663 928.759992,103.666668 930.44,103.48 C932.120008,103.293332 933.379996,103.57333 934.22,104.32 C935.060004,105.06667 938.139973,106.326658 943.46,108.1 C948.780027,109.873342 952.139993,111.273328 953.54,112.3 C954.940007,113.326672 956.059996,113.886666 956.9,113.98 C957.740004,114.073334 958.766661,114.539996 959.98,115.38 C961.193339,116.220004 962.079997,116.733332 962.64,116.92 L964.88,119.44 L968.8,122.52 C968.8,123.26667 968.986665,124.106662 969.36,125.04 L968.52,125.88 L967.4,128.68 L965.72,130.36 L964.32,134.56 L962.36,134.56 L961.24,136.52 L959.84,137.36 L957.32,143.52 L956.48,144.08 C955.919997,145.013338 955.360003,146.319992 954.8,148 C954.239997,149.680008 953.680003,151.453324 953.12,153.32 L953.68,154.16 C952.559994,156.960014 951.906668,158.966661 951.72,160.18 C951.533332,161.393339 951.206669,162.326663 950.74,162.98 C950.273331,163.633337 949.946668,164.286663 949.76,164.94 C949.573332,165.593337 949.200003,166.946656 948.64,169 L948.36,168.72 L947.52,170.4 L946.96,170.96 C946.96,170.586665 947.146665,170.02667 947.52,169.28 L946.96,168.44 C945.093324,169.746673 943.78667,171.333324 943.04,173.2 L942.76,172.64 L940.24,176 C940.613335,175.066662 940.986665,174.366669 941.36,173.9 C941.733335,173.433331 941.873334,173.106668 941.78,172.92 C941.686666,172.733332 941.64,172.360003 941.64,171.8 C941.079997,172.54667 940.380004,173.806658 939.54,175.58 C938.699996,177.353342 937.533341,180.19998 936.04,184.12 L935.48,184.12 C935.106665,184.680003 934.780001,185.006666 934.5,185.1 C934.219999,185.193334 934.033334,185.519997 933.94,186.08 C933.846666,186.640003 933.473337,187.29333 932.82,188.04 C932.166663,188.78667 931.653335,189.906659 931.28,191.4 C930.906665,192.893341 930.300004,194.059996 929.46,194.9 C928.619996,195.740004 927.966669,196.766661 927.5,197.98 C927.033331,199.193339 926.520003,200.266662 925.96,201.2 C925.399997,202.133338 924.933335,203.019996 924.56,203.86 C924.186665,204.700004 924,205.49333 924,206.24 C924,206.98667 923.766669,207.639997 923.3,208.2 C922.833331,208.760003 922.320003,210.159989 921.76,212.4 L922.32,212.4 L922.6,211 L922.88,210.16 L926.52,205.12 L926.8,206.52 L926.52,206.24 L925.68,208.48 C926.053335,208.106665 926.379999,207.873334 926.66,207.78 L927.08,207.64 L927.36,207.64 L927.08,207.92 L924.56,211.28 L925.68,211.28 L925.12,212.96 L926.8,213.24 L927.380488,212.427317 L927.380488,212.427317 Z M804.315762,215.222589 L804.44,215.2 L804.279623,215.268733 C804.29167,215.253438 804.303716,215.238056 804.315762,215.222589 L804.315762,215.222589 Z M804.279623,215.268733 C804.053083,215.556369 803.826542,215.813458 803.6,216.04 L802.48,216.04 L804.279623,215.268733 L804.279623,215.268733 Z M898.8,72.96 L901.88,76.88 C901.88,76.1333296 901.926666,75.526669 902.02,75.06 C902.113334,74.593331 901.926669,74.1733352 901.46,73.8 C900.993331,73.4266648 900.293338,72.4933408 899.36,71 L898.8,72.96 Z M903.28,75.76 C903.653335,76.5066704 903.933332,77.113331 904.12,77.58 C904.306668,78.046669 904.306668,78.4199986 904.12,78.7 C903.933332,78.9800014 903.746668,79.586662 903.56,80.52 L903,79.68 L903.28,75.76 Z M798,80.24 L797.44,81.08 L797.16,80.52 L795.76,80.8 L795.76,81.36 L795.2,81.08 L794.64,82.2 L793.24,81.92 L793.24,82.48 C791.373324,83.6000056 789.320011,84.16 787.08,84.16 L786.8,84.72 L785.68,85.56 L785.68,85 L783.44,85.56 L782.6,84.72 L782.32,85.84 L779.52,87.24 L779.52,87.8 L778.12,88.92 L778.4,88.08 L778.4,87.8 C777.466662,88.1733352 776.720003,88.4999986 776.16,88.78 C775.599997,89.0600014 775.226668,89.1533338 775.04,89.06 C774.853332,88.9666662 774.480003,88.7333352 773.92,88.36 C771.866656,89.6666732 770.326672,90.553331 769.3,91.02 C768.273328,91.486669 767.340004,91.9999972 766.5,92.56 C765.659996,93.1200028 764.306676,93.9599944 762.44,95.08 L765.52,97.88 C766.080003,98.6266704 766.593331,99.233331 767.06,99.7 C767.526669,100.166669 767.806666,100.77333 767.9,101.52 C767.993334,102.26667 768.319997,103.479992 768.88,105.16 C768.319997,105.720003 767.946668,106.139999 767.76,106.42 C767.573332,106.700001 767.293335,107.21333 766.92,107.96 C766.546665,108.70667 766.36,109.45333 766.36,110.2 L766.36,114.12 C768.226676,112.626659 769.859993,111.553337 771.26,110.9 C772.660007,110.246663 774.059993,109.453338 775.46,108.52 C776.860007,107.586662 778.213327,106.74667 779.52,106 C780.826673,105.25333 781.713331,104.693335 782.18,104.32 C782.646669,103.946665 783.159997,103.76 783.72,103.76 L784.28,103.2 C789.133358,101.146656 794.079975,99.0000112 799.12,96.76 L799.68,80.24 L799.12,79.96 L798,80.24 Z M893.2,108.24 C892.266662,109.733341 891.42667,111.226659 890.68,112.72 L892.36,112.44 L893.2,108.24 Z M816.48,113.84 C816.48,114.58667 816.526666,115.146665 816.62,115.52 C816.713334,115.893335 816.713334,116.173332 816.62,116.36 C816.526666,116.546668 816.386668,116.733332 816.2,116.92 L816.48,117.48 L816.2,118.88 L816.2,117.2 L815.64,117.48 C815.64,117.106665 815.733332,116.826668 815.92,116.64 C816.106668,116.453332 816.246666,116.126669 816.34,115.66 C816.433334,115.193331 816.48,114.58667 816.48,113.84 Z M785.68,118.88 C784.373327,119.813338 783.160006,120.373332 782.04,120.56 L781.76,121.96 L781.48,121.12 C780.546662,122.053338 779.986668,122.89333 779.8,123.64 L777.84,124.48 L777.56,123.92 L777.28,125.04 L776.72,124.48 L776.16,125.6 L775.04,126.44 C774.666665,127.000003 774.293335,127.466665 773.92,127.84 L773.92,126.72 L773.36,126.16 C773.546668,127.280006 773.360003,128.21333 772.8,128.96 L772.8,128.12 L772.24,128.4 L771.68,128.12 L771.12,129.8 L765.8,133.44 L765.24,141 C778.4934,127.559933 785.12,120.606669 785.12,120.14 C785.12,119.673331 785.306665,119.253335 785.68,118.88 Z M797.16,119.44 C795.853327,120.000003 794.360008,120.979993 792.68,122.38 C790.999992,123.780007 789.880003,124.85333 789.32,125.6 C788.759997,126.34667 788.013338,126.72 787.08,126.72 L786.24,128.4 L785.12,128.96 L784.56,130.08 L784,130.36 L783.72,131.2 C782.97333,131.760003 782.413335,132.133332 782.04,132.32 L780.08,134.28 L777.56,136.52 L777.84,137.08 L776.72,138.48 L775.88,138.48 L775.6,139.32 L774.48,139.88 L775.04,139.88 L774.76,140.16 L773.92,141.56 L772.24,142.96 L770.28,146.04 L788.2,138.48 L790.44,136.24 L791.84,136.52 L792.96,135.12 L794.08,134.56 C794.640003,134.746668 795.199997,134.84 795.76,134.84 C795.76,134.279997 795.946665,133.720003 796.32,133.16 C796.693335,132.599997 796.88,131.386676 796.88,129.52 C796.88,127.653324 797.066665,124.293358 797.44,119.44 L797.16,119.44 Z M815.08,134 C815.08,130.266648 815.359997,126.533352 815.92,122.8 L815.08,134 Z M809.48,127.84 L809.48,129.1 C809.48,129.380001 809.386668,129.659999 809.2,129.94 C809.013332,130.220001 808.826668,130.686663 808.64,131.34 C808.453332,131.993337 808.453332,132.459999 808.64,132.74 C808.826668,133.020001 808.826668,133.346665 808.64,133.72 C808.453332,134.093335 808.406666,134.373332 808.5,134.56 L808.92,135.4 L808.36,135.68 L807.24,140.16 C807.613335,139.973332 808.079997,139.786668 808.64,139.6 C809.200003,136.053316 809.573332,133.486675 809.76,131.9 C809.946668,130.313325 810.226665,129.52 810.6,129.52 L809.76,127.84 L809.48,127.84 Z M807.8,129.52 C807.426665,131.573344 807.24,133.626656 807.24,135.68 C807.98667,133.813324 808.36,131.853344 808.36,129.8 L807.8,129.52 Z M897.68,132.04 L897.96,130.92 C897.21333,131.106668 896.653335,131.106668 896.28,130.92 L893.2,132.6 L893.2,132.04 C893.013332,131.853332 892.733335,131.853332 892.36,132.04 C891.986665,132.226668 891.520003,132.32 890.96,132.32 L890.96,133.16 L890.12,132.6 L887.32,133.16 C886.57333,134.840008 886.106668,136.05333 885.92,136.8 C885.733332,137.54667 885.453335,138.106665 885.08,138.48 C884.706665,138.853335 884.240003,139.41333 883.68,140.16 L883.68,139.6 C883.68,139.413332 883.959997,138.993337 884.52,138.34 C885.080003,137.686663 885.36,137.173335 885.36,136.8 C885.36,136.426665 885.313334,136.053335 885.22,135.68 C885.126666,135.306665 885.08,134.840003 885.08,134.28 L883.4,135.4 C880.973321,138.386682 879.013341,141.653316 877.52,145.2 L876.68,145.76 L876.12,148 L875.28,146.88 L873.6,151.08 L872.76,151.36 C871.453327,155.093352 869.680011,158.359986 867.44,161.16 L867.72,162 L866.88,162.28 L876.12,173.76 C879.106682,176.746682 881.253327,178.939993 882.56,180.34 C883.866673,181.740007 884.986662,182.393334 885.92,182.3 C886.853338,182.206666 887.413332,182.206666 887.6,182.3 C887.786668,182.393334 888.159997,182.44 888.72,182.44 L889,181.6 L889.84,181.32 C890.58667,178.706654 891.193331,176.980004 891.66,176.14 C892.126669,175.299996 892.36,174.600003 892.36,174.04 C892.36,173.479997 892.406666,172.873337 892.5,172.22 C892.593334,171.566663 893.433325,170.213344 895.02,168.16 C896.606675,166.106656 897.866662,164.146676 898.8,162.28 C899.733338,160.413324 900.526663,158.873339 901.18,157.66 C901.833337,156.446661 902.299999,155.46667 902.58,154.72 C902.860001,153.97333 903.279997,152.666676 903.84,150.8 C903.279997,150.426665 903,149.86667 903,149.12 L903.56,149.96 L904.82,147.02 C905.100001,146.366663 905.286666,145.760003 905.38,145.2 C905.473334,144.639997 905.52,143.893338 905.52,142.96 L906.36,141.84 L906.36,139.88 L905.52,139.88 L907.48,131.2 L906.64,130.64 L897.68,132.04 Z M815.08,134.84 L813.68,145.2 C813.866668,143.706659 813.96,142.680003 813.96,142.12 C813.96,141.559997 814.006666,140.626673 814.1,139.32 C814.193334,138.013327 814.333332,136.520008 814.52,134.84 L815.08,134.84 Z M811.44,135.12 C810.879997,136.613341 810.6,138.106659 810.6,139.6 L811.02,138.76 C811.113334,138.573332 811.16,138.200003 811.16,137.64 C811.16,137.079997 811.253332,136.240006 811.44,135.12 Z M816.48,142.12 C815.919997,140.813327 815.919997,139.600006 816.48,138.48 L816.48,142.12 Z M816.2,143.52 C816.013332,144.640006 815.826668,145.806661 815.64,147.02 C815.453332,148.233339 815.406666,149.119997 815.5,149.68 C815.593334,150.240003 815.453335,150.986662 815.08,151.92 C815.08,150.986662 815.126666,150.240003 815.22,149.68 C815.313334,149.119997 815.36,148.653335 815.36,148.28 C815.36,147.906665 815.406666,147.440003 815.5,146.88 C815.593334,146.319997 815.593334,145.900001 815.5,145.62 L815.08,144.36 L815.92,143.52 L816.2,143.52 Z M952.28,146.6 C951.53333,147.533338 951.16,148.37333 951.16,149.12 L951.72,149.68 L951.44,150.52 L952.84,150.52 C952.466665,149.213327 952.65333,147.906673 953.4,146.6 L952.28,146.6 Z M813.4,147.72 C813.586668,150.146679 813.213338,152.666654 812.28,155.28 L813.4,147.72 Z M808.36,148.84 L807.52,154.44 L808.36,154.16 L808.92,148.56 L808.36,148.84 Z M778.811726,153.394137 C778.693291,153.619092 778.604956,153.850736 778.54672,154.089068 L778.4,153.6 L778.811726,153.394137 L778.811726,153.394137 Z M778.54672,154.089068 L779.24,156.4 L778.96,156.68 C778.491418,155.742835 778.353658,154.879195 778.54672,154.089068 L778.54672,154.089068 Z M778.811726,153.394137 C778.92631,153.176498 779.069068,152.965119 779.24,152.76 L777.84,153.04 L777.84,156.96 L777,156.68 C776.25333,157.42667 775.600003,157.8 775.04,157.8 L775.04,156.68 L773.64,156.68 L773.92,155.56 L775.6,154.44 L773.36,155.28 L773.36,155.84 L772.52,156.68 L773.08,157.8 L771.68,159.48 L771.4,159.2 L770.28,160.32 L770,159.76 L770.28,159.2 L769.16,158.36 L769.16,160.18 C769.16,160.460001 769.066668,160.739999 768.88,161.02 C768.693332,161.300001 768.413335,161.626665 768.04,162 L768.32,161.44 L767.76,160.6 L766.64,162.56 L766.36,162.28 L766.08,163.4 C764.959994,164.520006 763.933338,165.45333 763,166.2 L762.16,177.96 C768.506698,170.493296 774.946634,163.026704 781.48,155.56 L781.2,154.72 C780.639997,155.093335 780.173335,155.28 779.8,155.28 L780.08,155.84 L779.52,155.56 L779.52,154.44 L780.08,153.32 L779.8,153.04 L782.04,151.08 L779.52,152.2 L779.52,153.04 L778.811726,153.394137 L778.811726,153.394137 Z M783.44,151.36 C782.319994,151.733335 781.293338,152.29333 780.36,153.04 L780.64,153.32 L783.44,151.36 Z M785.12,162.28 C784.37333,163.400006 783.766669,164.099999 783.3,164.38 C782.833331,164.660001 782.6,164.986665 782.6,165.36 L782.6,166.48 L781.76,165.92 C776.906642,172.080031 773.546676,176.046658 771.68,177.82 C769.813324,179.593342 767.90001,181.739987 765.94,184.26 C763.97999,186.780013 763,188.459996 763,189.3 L763,192.52 L763.56,193.08 L764.12,191.68 C763.933332,192.613338 764.026665,193.359997 764.4,193.92 C772.053372,188.693307 779.986626,183.37336 788.2,177.96 C787.45333,177.21333 787.45333,176.280006 788.2,175.16 L789.6,174.04 L787.36,172.92 C788.10667,172.92 788.759997,173.013332 789.32,173.2 L790.44,172.92 L788.9,171.38 C788.619999,171.099999 788.386668,170.96 788.2,170.96 C788.013332,170.96 787.640003,170.866668 787.08,170.68 L786.24,169.28 L784.56,168.72 L784.56,168.16 C785.30667,168.346668 785.819999,168.579999 786.1,168.86 C786.380001,169.140001 786.986662,169.466665 787.92,169.84 C788.853338,170.213335 789.69333,170.4 790.44,170.4 L790.72,169.28 L788.2,167.88 L786.8,166.76 L788.76,165.92 L785.68,162.28 L785.12,162.28 Z M866.88,163.96 L865.48,165.92 L864.92,165.92 C864.92,166.66667 865.199997,167.41333 865.76,168.16 L866.32,168.44 C866.693335,168.813335 867.25333,169.466662 868,170.4 C868.74667,171.333338 869.539996,172.266662 870.38,173.2 C871.220004,174.133338 872.759989,176.093318 875,179.08 C875.74667,179.640003 876.259999,180.013332 876.54,180.2 C876.820001,180.386668 877.006666,180.48 877.1,180.48 L877.52,180.48 L874.44,176 L873.04,175.16 L874.44,175.16 L871.64,170.4 L871.36,170.68 L870.24,167.88 L869.68,167.88 C868.746662,166.573327 867.90667,165.266673 867.16,163.96 L866.88,163.96 Z M945.56,164.24 C945.186665,165.360006 944.673337,166.526661 944.02,167.74 C943.366663,168.953339 943.04,169.93333 943.04,170.68 C944.160006,169.186659 945.046663,168.206669 945.7,167.74 C946.353337,167.273331 946.68,166.900001 946.68,166.62 C946.68,166.339999 946.773332,165.82667 946.96,165.08 L946.12,164.52 L945.56,164.24 Z M859.32,165.64 L858.2,167.88 L858.48,168.44 L860.16,165.08 L859.32,165.64 Z M863.52,167.32 L863.24,168.44 L864.08,168.44 L863.24,170.12 L865.2,173.48 L865.76,173.2 L865.48,171.8 L865.76,172.64 L866.88,171.8 L865.76,170.12 L865.2,170.12 C865.013332,170.12 864.873334,169.840003 864.78,169.28 C864.686666,168.719997 864.453335,168.06667 864.08,167.32 L863.52,167.32 Z M860.72,168.44 C859.97333,169.560006 859.413335,170.49333 859.04,171.24 L859.6,171.8 L859.04,173.2 L858.76,173.2 L860.16,175.44 L859.6,173.48 L860.16,173.76 C860.346668,174.880006 860.81333,175.859996 861.56,176.7 C862.30667,177.540004 863.753323,179.499985 865.9,182.58 C868.046677,185.660015 869.399997,187.526663 869.96,188.18 C870.520003,188.833337 871.17333,189.626662 871.92,190.56 L873.04,191.12 L870.52,187.2 L870.8,186.92 L871.64,187.2 C871.453332,186.639997 871.266668,186.126669 871.08,185.66 C870.893332,185.193331 870.566669,184.773335 870.1,184.4 C869.633331,184.026665 868.746673,183.186673 867.44,181.88 L867.72,181.6 L871.36,185.24 C868.373318,180.759978 865.480014,176.18669 862.68,171.52 L861.84,171.8 L861.28,171.24 L861.84,171.24 C862.213335,170.49333 862.4,169.653338 862.4,168.72 L861.84,169.28 L860.72,168.72 L860.72,168.44 Z M945.28,176 L945,176 L946.12,173.2 L945.28,176 Z M853.44,174.6 L852.04,176.28 L851.76,175.72 L851.76,177.12 L851.2,176.84 L851.2,177.12 L851.76,177.68 L854.56,174.04 L853.44,174.6 Z M868.56,175.44 C869.493338,177.120008 870.799992,178.706659 872.48,180.2 L872.2,178.52 L871.64,179.08 L871.64,177.68 L870.24,176.84 L869.96,175.44 L869.68,176 L869.12,175.44 L868.56,175.44 Z M939.96,178.24 C939.773332,178.800003 939.68,179.266665 939.68,179.64 C939.68,180.013335 939.400003,180.619996 938.84,181.46 C938.279997,182.300004 937.346673,184.026654 936.04,186.64 C936.600003,185.146659 937.299996,183.653341 938.14,182.16 C938.980004,180.666659 939.586665,179.360006 939.96,178.24 Z M943.6,180.48 C943.6,181.040003 943.460001,181.739996 943.18,182.58 C942.899999,183.420004 942.620001,184.026665 942.34,184.4 C942.059999,184.773335 941.873334,185.193331 941.78,185.66 C941.686666,186.126669 941.360003,186.73333 940.8,187.48 L940.52,187.2 C941.640006,185.146656 942.666662,182.906679 943.6,180.48 Z M871.196393,192.418833 C872.054666,193.422146 872.949201,194.389201 873.88,195.32 L874.72,196.16 C873.403302,195.031402 872.228769,193.784349 871.196393,192.418833 L871.196393,192.418833 Z M871.196393,192.418833 C870.179737,191.074109 869.300942,189.614502 868.56,188.04 L868,187.48 L867.16,185.24 L866.04,185.24 C867.581912,187.809853 869.300701,190.202786 871.196393,192.418833 L871.196393,192.418833 Z M846.16,186.36 L845.6,187.2 L845.6,186.36 L843.92,187.2 L844.48,188.04 L845.04,188.04 L845.6,189.16 L845.88,189.16 C847.000006,188.039994 847.793331,187.293335 848.26,186.92 C848.726669,186.546665 848.866668,186.313334 848.68,186.22 C848.493332,186.126666 848.4,185.800003 848.4,185.24 L846.16,186.36 Z M793.52,186.64 C793.333332,187.200003 793.053335,187.85333 792.68,188.6 C791.559994,189.34667 790.440006,190.186662 789.32,191.12 L794.64,188.32 L793.8,186.64 L793.52,186.64 Z M791.28,186.92 L789.6,188.6 L788.2,191.12 L790.72,189.44 C790.72,188.69333 790.999997,187.853338 791.56,186.92 L791.28,186.92 Z M939.96,188.32 C939.399997,190.000008 938.74667,191.586659 938,193.08 L938,192.8 L939.96,188.32 Z M845.32,193.92 L844.48,194.48 L844.48,195.32 L842.8,196.16 L842.52,197.28 L841.12,196.72 L842.24,195.32 L842.8,195.32 C842.986668,195.32 843.219999,195.180001 843.5,194.9 C843.780001,194.619999 844.29333,194.200003 845.04,193.64 L845.32,193.08 L845.32,193.92 Z M782.6,193.64 L781.2,195.32 L780.64,193.64 L780.08,194.48 L779.8,193.64 L779.52,195.6 L777.84,196.72 L779.24,197.28 L780.08,195.32 L780.08,196.16 L781.48,195.88 L782.88,193.64 L782.6,193.64 Z M936.32,195.32 L934.08,199.8 C934.640003,198.306659 935.386662,196.813341 936.32,195.32 Z M779.24,200.64 L777.84,202.04 L777.28,200.64 C776.53333,201.573338 776.346665,202.41333 776.72,203.16 L780.08,200.92 L779.52,199.8 L779.24,200.64 Z M768.6,201.2 C768.413332,202.506673 767.853338,203.53333 766.92,204.28 L766.36,204.84 C765.986665,205.400003 765.566669,206.146662 765.1,207.08 C764.633331,208.013338 764.306668,208.573332 764.12,208.76 L765.24,209.04 C765.800003,208.666665 766.45333,208.246669 767.2,207.78 C767.94667,207.313331 768.506665,206.893335 768.88,206.52 C769.066668,205.77333 769.299999,205.306668 769.58,205.12 C769.860001,204.933332 769.953334,204.746668 769.86,204.56 C769.766666,204.373332 769.72,204.186668 769.72,204 L768.32,204.84 L768.88,204 L768.32,203.44 L768.88,203.16 C769.066668,202.226662 769.53333,201.200006 770.28,200.08 L768.6,201.2 Z M931.56,204.28 L928.76,210.72 L928.48,210.16 C929.22667,208.293324 930.159994,206.333344 931.28,204.28 L931.56,204.28 Z M761.88,209.88 L762.16,209.32 L761.32,209.32 L761.04,211 L760.76,209.88 L758.8,211 L759.36,211.28 L758.8,212.12 L757.68,211 C757.119997,212.680008 756.933332,214.359992 757.12,216.04 C756.746665,216.04 756.373335,216.133332 756,216.32 C755.626665,216.506668 755.300001,216.646666 755.02,216.74 C754.739999,216.833334 754.506668,216.973332 754.32,217.16 C754.133332,217.346668 753.760003,217.44 753.2,217.44 L750.96,219.96 L750.68,219.96 L750.96,218.56 L750.12,219.12 L749.84,221.08 C750.213335,220.893332 750.539999,220.753334 750.82,220.66 C751.100001,220.566666 752.079992,220.053338 753.76,219.12 C755.440008,218.186662 757.773318,216.600011 760.76,214.36 C760.386665,213.61333 760.57333,212.960003 761.32,212.4 L761.6,212.96 L761.88,211.84 L763,211 L763.84,208.76 L761.88,209.88 Z M759.08,218.56 C758.146662,219.493338 757.213338,220.146665 756.28,220.52 L756.28,220.24 L758.52,218.56 L758.8,218 L759.08,218.56 Z M915.04,227.24 L914.76,226.68 C914.199997,227.053335 913.733335,227.24 913.36,227.24 L913.36,229.2 L914.76,229.76 L914.76,228.92 C915.320003,229.106668 915.97333,228.82667 916.72,228.08 L916.16,226.4 L915.04,227.24 Z" id="战队赞助" stroke="#F0BA41" fill-rule="nonzero"></path>
    </g>
</svg>