<svg xmlns="http://www.w3.org/2000/svg" width="512" height="512" viewBox="0 0 60 60">
    <g>
        <path d="M39.77 40.256C44.347 36.66 47.014 31.16 47 25.34V8.95c0-.332-.165-.643-.44-.829C40.607 4.101 31.401 4.002 31.002 4c-.39.002-9.6.094-15.562 4.121-.275.186-.44.497-.44.829v16.39c-.004 5.837 2.678 11.351 7.273 14.951l8.095 6.607c.368.3.896.3 1.264 0zm-16.238-1.52l-.013-.01C19.402 35.505 16.998 30.567 17 25.34V9.493C22.476 6.093 30.925 6 31.001 6c.087 0 8.531.099 13.999 3.493V25.34c.011 5.213-2.38 10.14-6.481 13.356L31 44.833z" transform="translate(-1)"/>
        <path d="M49.662 33.098c.888-2.49 1.34-5.114 1.338-7.758V7.933c.011-.9-.392-1.755-1.094-2.318C42.885.064 31.482 0 31 0S19.115.064 12.094 5.615c-.702.563-1.105 1.418-1.094 2.318V25.34c-.002 2.644.45 5.268 1.338 7.758L1.583 43.853c-.51.51-.705 1.256-.512 1.95.193.696.745 1.233 1.446 1.407l9.013 2.253 2.26 9.02c.17.703.71 1.258 1.41 1.447.176.05.36.075.543.075.528-.001 1.034-.213 1.405-.588l9.991-9.992 2.614 2.133c.732.583 1.77.582 2.499-.003l2.609-2.13 9.993 9.992c.37.376.875.587 1.403.588.184 0 .367-.026.544-.075.698-.19 1.238-.743 1.409-1.447l2.253-9.013 9.02-2.26c.7-.174 1.253-.711 1.447-1.406s-.003-1.441-.513-1.951zm-36.497 2.001c1.157 2.472 2.747 4.716 4.695 6.627l-5.813 5.813c-.009-.002-.015-.007-.024-.01l-9.026-2.262zm2.565 22.898l-2.26-9.025-.008-.02 5.89-5.89c.13.107.255.218.387.323l5.843 4.769zm15.282-7.992l-10.022-8.18c-.336-.265-.662-.54-.977-.823l-.006-.009-.013-.008c-2.452-2.187-4.353-4.922-5.55-7.982l-.025-.066c-.939-2.423-1.42-4.999-1.419-7.597V7.933c-.008-.287.115-.562.334-.748C19.804 2.068 30.89 2 31 2s11.184.06 17.666 5.185c.219.186.342.46.334.748V25.34c0 2.6-.48 5.176-1.42 7.6-.009.02-.016.04-.023.06-1.198 3.062-3.101 5.798-5.554 7.987l-.01.006-.004.007c-.321.286-.65.566-.991.835l-6.743 5.517c-.01.01-.023.012-.032.021l-.007.011zm15.255 7.998l-9.848-9.849 5.832-4.76c.136-.107.264-.222.397-.332l5.892 5.892c-.002.008-.007.015-.01.023zm3.704-10.472l-.018.008-5.813-5.814c1.948-1.91 3.538-4.155 4.695-6.626L58.997 45.27z" transform="translate(-1)"/>
        <path d="M39.719 30.816l-1.15-6.727 4.868-4.764c.507-.496.69-1.237.47-1.912-.219-.675-.801-1.168-1.503-1.271l-6.725-.981-3.007-6.119C32.359 8.404 31.71 8 31 8s-1.359.404-1.672 1.042l-3.008 6.119-6.724.98c-.702.104-1.285.596-1.504 1.271-.22.675-.037 1.416.47 1.913l4.868 4.764-1.15 6.727c-.123.7.163 1.41.739 1.828.575.418 1.338.472 1.967.139L31 29.609l6.013 3.174c.628.33 1.39.276 1.965-.142.574-.417.862-1.125.74-1.825zm-3.132-6.458l1.115 6.527-5.833-3.08c-.544-.286-1.194-.286-1.738 0l-5.833 3.08 1.115-6.528c.104-.605-.096-1.222-.535-1.65l-4.726-4.625 6.529-.953c.607-.089 1.132-.47 1.403-1.022L31 10.175l2.916 5.932c.271.551.796.933 1.403 1.022l6.529.953-4.725 4.625c-.44.428-.64 1.046-.536 1.65z" transform="translate(-1)"/>
    </g>
</svg>
