<svg xmlns="http://www.w3.org/2000/svg" width="400.65" height="76.15" viewBox="0 0 400.65 76.15">
  <metadata><?xpacket begin="﻿" id="W5M0MpCehiHzreSzNTczkc9d"?>
<x:xmpmeta xmlns:x="adobe:ns:meta/" x:xmptk="Adobe XMP Core 5.6-c138 79.159824, 2016/09/14-01:09:01        ">
   <rdf:RDF xmlns:rdf="http://www.w3.org/1999/02/22-rdf-syntax-ns#">
      <rdf:Description rdf:about=""/>
   </rdf:RDF>
</x:xmpmeta>
                                                                                                    
                                                                                                    
                                                                                                    
                                                                                                    
                                                                                                    
                                                                                                    
                                                                                                    
                                                                                                    
                                                                                                    
                                                                                                    
                                                                                                    
                                                                                                    
                                                                                                    
                                                                                                    
                                                                                                    
                                                                                                    
                                                                                                    
                                                                                                    
                                                                                                    
                                                                                                    
                           
<?xpacket end="w"?></metadata>
<defs>
    <style>
      .cls-1 {
        fill: #dfa322;
        fill-rule: evenodd;
      }
    </style>
  </defs>
  <path id="CLICK_TO_PLAY" data-name="CLICK TO PLAY" class="cls-1" d="M4060.95,7222.77a2.922,2.922,0,0,1-.47.39,23.638,23.638,0,0,0-2.45,2.77,5.312,5.312,0,0,0-1.6-.27h-0.19q-4.245,0-9.78,6.84a62.974,62.974,0,0,0-3.86,5.54,109.817,109.817,0,0,0-9.04,18.72q-1.545,4.095-2.57,7.85a27.217,27.217,0,0,0-1.09,7.5,30.345,30.345,0,0,0,.2,3.43c0.59,4.38,2.05,6.57,4.36,6.57a5.949,5.949,0,0,0,1.17-.16,13.041,13.041,0,0,0,2.3.2,36.008,36.008,0,0,0,9.66-1.61,39.781,39.781,0,0,0,6.12-2.3,18.112,18.112,0,0,0,3.58-2.19,6.325,6.325,0,0,0,1.28-1.25c1.41-.91,2.11-1.6,2.11-2.07a0.426,0.426,0,0,0-.08-0.23,1.423,1.423,0,0,1-.35-0.32,4.544,4.544,0,0,1-.9.67c-1.37.94-2.26,1.54-2.65,1.8a4.141,4.141,0,0,1-2.37.97h-0.04a3.1,3.1,0,0,1,.86-0.7,13.544,13.544,0,0,0,2.76-1.84c1.09-.93,1.82-1.55,2.18-1.83a3.065,3.065,0,0,0-.19-0.9c-0.34-.94-0.68-1.41-1.01-1.41a14.634,14.634,0,0,0-4.29,1.68,53.878,53.878,0,0,1-9.47,4.1v0.04c0.16,0,.54-0.04,1.13-0.11h0.04a4.933,4.933,0,0,0-1.4.89,1.412,1.412,0,0,1-1.01.43,7.9,7.9,0,0,0-1.6.28,3.349,3.349,0,0,1-1.4.39,10.31,10.31,0,0,1-1.09.15,1.807,1.807,0,0,1-1.29-.66,4.119,4.119,0,0,1-.82-2.97q0-4.17,2.65-11.48a104.97,104.97,0,0,1,6.39-13.99,52.176,52.176,0,0,1,4.48-7.07,10.341,10.341,0,0,1,1.44-1.64,23.671,23.671,0,0,0-1.32,6.92v0.39a12.716,12.716,0,0,0,2.22,7.42,9.842,9.842,0,0,0,1.52,1.68,4.315,4.315,0,0,0,2.92,1.17,7.622,7.622,0,0,0,2.14-.35,9.065,9.065,0,0,0,1.68-.74v-0.04a6.566,6.566,0,0,0-.78-0.59,2.25,2.25,0,0,1-1.05-.51h-0.04a2.008,2.008,0,0,1-.51.82,6.764,6.764,0,0,1,.16-1.21,4.138,4.138,0,0,1-.82-1.99,1.538,1.538,0,0,1-.47-0.31c-0.05-.91-0.08-1.43-0.08-1.56,0.03-.53.06-0.89,0.08-1.1a8.651,8.651,0,0,0,.31-2.26v-0.51a5.7,5.7,0,0,1,.08-0.74c0.13-.71.4-1.85,0.82-3.44q0.7-3.75,1.17-5.27a20.448,20.448,0,0,1,1.4-3.68,17.487,17.487,0,0,1,1.95-2.89,2.165,2.165,0,0,1,1.17-.97,0.27,0.27,0,0,1,.23.31v0.04a0.76,0.76,0,0,1-.47.51,2.493,2.493,0,0,0-.7.85,22.6,22.6,0,0,0-1.44,3.09,22.182,22.182,0,0,0-.78,2.77h0.04a35.659,35.659,0,0,1,3.47-6.91,4.367,4.367,0,0,0,.39-0.51,5.835,5.835,0,0,0,.43-2.26,2.78,2.78,0,0,0-.08-0.71,11.828,11.828,0,0,0-2.18-2.73,3.038,3.038,0,0,0-1.99-1.29h-0.2a1.507,1.507,0,0,0-.97.39h0Zm-26.8,36.56c0.13-.47.25-0.97,0.35-1.52a32.093,32.093,0,0,1,1.01-3.2,45.851,45.851,0,0,1,2.34-5.51c0.52-.96,1.3-2.4,2.34-4.3a45.718,45.718,0,0,1,3.58-5.74,18.2,18.2,0,0,1,1.95-3.05c0.39-.47,1.21-1.43,2.45-2.89,1.17-1.17,2.05-2.11,2.65-2.81a1.417,1.417,0,0,1,.78-0.7c0.13,0,.2.11,0.2,0.35a1.634,1.634,0,0,1-.47.82c-0.34.44-.85,1.01-1.52,1.72a40.1,40.1,0,0,0-2.84,3.08,44.914,44.914,0,0,0-3.32,4.73q-2.37,3.63-3.89,6.48a64.252,64.252,0,0,0-4.17,9.3c-0.36,1.15-.68,2.02-0.93,2.62a0.951,0.951,0,0,1-.43.9c-0.06,0-.08-0.07-0.08-0.2v-0.08Zm25.05-22.61a13.086,13.086,0,0,1,.89-3.64c0.42-1.09.77-1.64,1.06-1.64h0.15c-0.47,1.64-.79,2.7-0.97,3.17a9.138,9.138,0,0,1-1.09,2.34h-0.04v-0.23Zm0.04,1.4,0.04,0.24v0.07a0.913,0.913,0,0,1-.28.67v-0.31h0a1.08,1.08,0,0,1,.24-0.67h0Zm-0.51,2.85h0.04a3.017,3.017,0,0,1,.08.59v0.08a1.79,1.79,0,0,1-.51,1.17,1.152,1.152,0,0,1-.15-0.63,1.7,1.7,0,0,1,.54-1.21h0Zm-1.56.82h0.04a0.375,0.375,0,0,1-.15.36h-0.04a0.375,0.375,0,0,1,.15-0.36h0Zm-18.5,9.42a2.657,2.657,0,0,1,1.01-1.49h0.04a4.657,4.657,0,0,1-1.13,2.07,4.55,4.55,0,0,1,.08-0.58h0Zm-0.16.78v0.04a1.213,1.213,0,0,1-.35.9v-0.12a1.225,1.225,0,0,1,.35-0.82h0Zm-0.66,1.56a1.423,1.423,0,0,1-.39.9,1.423,1.423,0,0,1,.39-0.9h0Zm-0.7,1.56a4.6,4.6,0,0,1-.27.75,1.761,1.761,0,0,1,.23-0.75h0.04Zm-0.27.79v0.03h-0.04v-0.03h0.04Zm-3.12,4.06v0.08l-0.04.07v-0.15h0.04Zm-0.2.55a4.049,4.049,0,0,1-.31.89v-0.04a2.781,2.781,0,0,1,.28-0.85h0.03Zm-0.38,1.13c-0.06.44-.14,0.9-0.24,1.37a11.129,11.129,0,0,1-.66,1.64h-0.04v-0.16a6.327,6.327,0,0,1,.9-2.85h0.04Zm-1.52,3.87c0-.06.06-0.08,0.19-0.08h0.04a0.144,0.144,0,0,1,.08.11c0,0.06-.02.16-0.04,0.32a0.345,0.345,0,0,1-.27.35,0.214,0.214,0,0,1-.12-0.16,4.072,4.072,0,0,1,.12-0.54h0Zm8.45,11.67a8.77,8.77,0,0,0,1.05-.07h0.04v0.04l-0.86.31a1.511,1.511,0,0,1-.58-0.2v-0.04h0Zm34.4-56.52c-2.24.39-3.35,0.68-3.35,0.86v0.04a0.753,0.753,0,0,0,.31.39,3.964,3.964,0,0,1,.86.94,2.422,2.422,0,0,1,.35,1.44c0,0.55-.03,1.24-0.08,2.07a63.51,63.51,0,0,1-.86,6.72q-1.395,5.67-3.62,13.21-2.1,6.945-3.82,14.1a60.589,60.589,0,0,0-2.06,14.18v0.07a1.039,1.039,0,0,1-.7.9c0.1,0.81.16,1.27,0.19,1.37a1.69,1.69,0,0,0,.16.98h0.03a0.444,0.444,0,0,0,.28-0.2h0.04a0.145,0.145,0,0,1,.11.12,4.518,4.518,0,0,1-.27.9,2.5,2.5,0,0,0-.39,1.36v0.24a1.547,1.547,0,0,0-.27,1.01,1.359,1.359,0,0,0,.27.86,7.65,7.65,0,0,0,1.75,1.57,1.608,1.608,0,0,1,.74,1.05,0.443,0.443,0,0,0,.43.55,19.639,19.639,0,0,0,3.94-1.45,0.785,0.785,0,0,0,.46-0.23c0.06-.05.94-0.39,2.65-1.02a40.737,40.737,0,0,1,5.11-1.87c2.8-.84,6.52-1.73,11.14-2.7,4.28-.86,6.43-1.51,6.43-1.95l-0.04-.04a17.009,17.009,0,0,1-2.77.27,11,11,0,0,1-1.71-.15v-0.04a4.768,4.768,0,0,1,.62-0.31,7.2,7.2,0,0,1,3.35-.63h0.74a6.559,6.559,0,0,1,1.13-1.56c1.09-1.07,1.64-1.94,1.64-2.62a1.668,1.668,0,0,0-.12-0.62,2.167,2.167,0,0,0-1.91-.9h-0.23a3.99,3.99,0,0,0-.9-0.12h-0.04a24.884,24.884,0,0,0-4.52.66c-4.05.89-7.16,1.54-9.35,1.96a53.6,53.6,0,0,0-5.33,1.01,49.883,49.883,0,0,0-5.34,1.76q0-.435,1.17-5.08,3-10.815,4.32-15.74,4.56-17.145,4.56-25v-0.47a15.991,15.991,0,0,0-.47-4.1q-0.975-3.825-4.05-3.83Zm2.92,2.58a0.622,0.622,0,0,1,.51.51l0.15,0.82c0.08,1.43.12,2.52,0.12,3.28,0,1.09-.05,2.59-0.16,4.49a17.919,17.919,0,0,1-.54,4.53c-0.37,1.25-.64,2.33-0.82,3.24-0.13,1.05-.25,1.91-0.35,2.58-0.39,1.62-.66,2.75-0.82,3.4a1.273,1.273,0,0,1-.27.9h-0.04l-0.08-.12v-0.39c0.21-1.8.31-2.78,0.31-2.97v-0.5a0.169,0.169,0,0,1,.04-0.12,22.238,22.238,0,0,0,.86-3.09,14.932,14.932,0,0,0,.43-2.93c0-.18-0.02-0.49-0.04-0.94a0.466,0.466,0,0,1-.04-0.15,5.672,5.672,0,0,0,.39-1.95,35.7,35.7,0,0,0,.31-3.72c0-.39-0.05-1.1-0.16-2.14v-0.16a10.238,10.238,0,0,0,.24-1.76v-0.47a15.887,15.887,0,0,1-.24-1.68v-0.04l-0.03-.07c0.02-.37.1-0.55,0.23-0.55h0Zm-9.62,50.43a16.877,16.877,0,0,1,.58-2.38,62.926,62.926,0,0,1,2.03-7.19c0.67-1.69,1.1-2.88,1.28-3.56a3.808,3.808,0,0,1,1.09-1.99c-0.18.71-.63,2.18-1.36,4.42-0.34,1.4-.64,2.55-0.9,3.43a52.154,52.154,0,0,0-1.79,6.88,11.163,11.163,0,0,1-.23,1.52,3.927,3.927,0,0,1-.62,1.45h-0.04a3.689,3.689,0,0,1-.16-1.06v-0.31h0c0-.16.04-0.56,0.12-1.21h0Zm2.8-13.36a3.307,3.307,0,0,0,.04.43,1.807,1.807,0,0,1-.04.31,5.361,5.361,0,0,1-.66,1.8v-0.35a5.751,5.751,0,0,1,.62-2.19h0.04Zm15.82,17.27a2.927,2.927,0,0,1,2.37-1.33h0.16a3.523,3.523,0,0,1,.58.04,6.778,6.778,0,0,1-1.24.86,6.356,6.356,0,0,1-1.95.58h-0.04Zm17.37-46.1a0.812,0.812,0,0,0-.85.7,0.775,0.775,0,0,0,.23.51c0.36,0.37.55,1.38,0.55,3.05-0.06,2.08-.08,3.44-0.08,4.06a82.512,82.512,0,0,1-1.41,8.95q-2.52,12.15-2.53,13.86c0.05,0.55.08,0.86,0.08,0.94a21.973,21.973,0,0,1-.66,4.14h-0.04v-0.04c0-.31.19-1.56,0.58-3.75a0.471,0.471,0,0,0-.35-0.47,1.621,1.621,0,0,1-.15.36q-0.945,7.11-.94,8.28a12.045,12.045,0,0,0-.27,1.48,3.042,3.042,0,0,0,.39,1.49,1.307,1.307,0,0,0,.7.62,5.613,5.613,0,0,1,1.44.2,19.718,19.718,0,0,0,4.01,1.09h0.12c0.94,0,1.66-.72,2.18-2.15,0.11-.86.25-1.73,0.43-2.62,0.21-1.53.42-2.73,0.62-3.59a8.075,8.075,0,0,1,.71-2.15,24.521,24.521,0,0,0,.62-2.93,8.039,8.039,0,0,1-.16-1.6v-0.39q0.555-4.14,1.87-11.68,0.51-2.415.94-5.31c0.1-2.35.15-4.4,0.15-6.17a21.362,21.362,0,0,0-.23-4.03,2.382,2.382,0,0,0-1.13-1.36,5.907,5.907,0,0,0-1.36-.51c-1.41-.24-2.44-0.42-3.12-0.55l0.27,0.39a5.4,5.4,0,0,1,1.05,3.67c0,0.24-.07,1.32-0.23,3.25l-0.12,2.73-0.5,3.2c-0.08.6-.26,0.9-0.55,0.9a0.123,0.123,0,0,0-.08-0.04,0.563,0.563,0,0,1-.39-0.62v-0.08a11.519,11.519,0,0,0-.11-1.84,8.579,8.579,0,0,1-.27-1.75v-0.2a5.811,5.811,0,0,1,.66-2.58,1.521,1.521,0,0,0,.39-0.86v-0.04a0.419,0.419,0,0,0-.04-0.15,4.873,4.873,0,0,1-.39-1.88v-0.7a10.9,10.9,0,0,0-.62-3.63,1.608,1.608,0,0,0-1.1-.2h-0.31Zm-4.32,38.28a2.44,2.44,0,0,0,.47-0.7c0.15-1.02.39-1.52,0.7-1.52h0.04q0.39,0,.39.93v0.28a3.338,3.338,0,0,1-.28,1.33,9.934,9.934,0,0,0-.39,2.42c-0.28,1.33-.57,1.99-0.85,1.99-0.24,0-.35-0.17-0.35-0.51v-0.08a9.248,9.248,0,0,0,.19-1.72,10.17,10.17,0,0,0,.2-1.36v-0.2a0.726,0.726,0,0,1-.28-0.47v-0.04a0.753,0.753,0,0,1,.16-0.35h0Zm41.68-46.99a2.49,2.49,0,0,1-.47.39,23.638,23.638,0,0,0-2.45,2.77,5.312,5.312,0,0,0-1.6-.27h-0.19q-4.245,0-9.78,6.84a62.974,62.974,0,0,0-3.86,5.54,109.085,109.085,0,0,0-9.03,18.72q-1.56,4.095-2.58,7.85a27.217,27.217,0,0,0-1.09,7.5,30.345,30.345,0,0,0,.2,3.43q0.9,6.57,4.36,6.57a5.949,5.949,0,0,0,1.17-.16,13.041,13.041,0,0,0,2.3.2,36.008,36.008,0,0,0,9.66-1.61,39.781,39.781,0,0,0,6.12-2.3,18.112,18.112,0,0,0,3.58-2.19,6.649,6.649,0,0,0,1.29-1.25q2.1-1.365,2.1-2.07a0.426,0.426,0,0,0-.08-0.23,1.423,1.423,0,0,1-.35-0.32,4.544,4.544,0,0,1-.9.67q-2.055,1.41-2.64,1.8a4.192,4.192,0,0,1-2.38.97h-0.04a3.1,3.1,0,0,1,.86-0.7,13.544,13.544,0,0,0,2.76-1.84c1.09-.93,1.82-1.55,2.19-1.83a3.154,3.154,0,0,0-.2-0.9c-0.34-.94-0.68-1.41-1.01-1.41a14.634,14.634,0,0,0-4.29,1.68,54.042,54.042,0,0,1-9.46,4.1v0.04c0.15,0,.53-0.04,1.13-0.11h0.03a4.933,4.933,0,0,0-1.4.89,1.412,1.412,0,0,1-1.01.43,8.039,8.039,0,0,0-1.6.28,3.349,3.349,0,0,1-1.4.39,10.31,10.31,0,0,1-1.09.15,1.807,1.807,0,0,1-1.29-.66,4.123,4.123,0,0,1-.81-2.97q0-4.17,2.64-11.48a104.97,104.97,0,0,1,6.39-13.99,52.176,52.176,0,0,1,4.48-7.07,10.341,10.341,0,0,1,1.44-1.64,23.671,23.671,0,0,0-1.32,6.92v0.39a12.716,12.716,0,0,0,2.22,7.42,9.842,9.842,0,0,0,1.52,1.68,4.315,4.315,0,0,0,2.92,1.17,7.622,7.622,0,0,0,2.14-.35,9.065,9.065,0,0,0,1.68-.74v-0.04a6.566,6.566,0,0,0-.78-0.59,2.25,2.25,0,0,1-1.05-.51h-0.04a2.008,2.008,0,0,1-.51.82,6.764,6.764,0,0,1,.16-1.21,4.138,4.138,0,0,1-.82-1.99,1.538,1.538,0,0,1-.47-0.31c-0.05-.91-0.07-1.43-0.07-1.56,0.02-.53.05-0.89,0.07-1.1a8.651,8.651,0,0,0,.31-2.26v-0.51a5.7,5.7,0,0,1,.08-0.74c0.13-.71.4-1.85,0.82-3.44q0.7-3.75,1.17-5.27a20.448,20.448,0,0,1,1.4-3.68,17.487,17.487,0,0,1,1.95-2.89,2.165,2.165,0,0,1,1.17-.97,0.27,0.27,0,0,1,.23.31v0.04a0.76,0.76,0,0,1-.47.51,2.493,2.493,0,0,0-.7.85,22.6,22.6,0,0,0-1.44,3.09,24.042,24.042,0,0,0-.78,2.77h0.04a36.238,36.238,0,0,1,3.47-6.91,4.367,4.367,0,0,0,.39-0.51,5.835,5.835,0,0,0,.43-2.26,2.78,2.78,0,0,0-.08-0.71,11.828,11.828,0,0,0-2.18-2.73,3.038,3.038,0,0,0-1.99-1.29h-0.19a1.512,1.512,0,0,0-.98.39h0Zm-26.8,36.56c0.13-.47.25-0.97,0.35-1.52a32.093,32.093,0,0,1,1.01-3.2,45.851,45.851,0,0,1,2.34-5.51c0.52-.96,1.3-2.4,2.34-4.3a45.718,45.718,0,0,1,3.58-5.74,19.6,19.6,0,0,1,1.95-3.05c0.39-.47,1.21-1.43,2.45-2.89,1.17-1.17,2.06-2.11,2.65-2.81a1.417,1.417,0,0,1,.78-0.7c0.13,0,.2.11,0.2,0.35a1.634,1.634,0,0,1-.47.82,22.679,22.679,0,0,1-1.52,1.72c-1.25,1.25-2.19,2.28-2.84,3.08a43.241,43.241,0,0,0-3.31,4.73q-2.385,3.63-3.9,6.48a64.252,64.252,0,0,0-4.17,9.3c-0.36,1.15-.67,2.02-0.93,2.62a0.951,0.951,0,0,1-.43.9c-0.05,0-.08-0.07-0.08-0.2v-0.08Zm25.05-22.61a12.844,12.844,0,0,1,.9-3.64c0.41-1.09.76-1.64,1.05-1.64h0.15c-0.46,1.64-.79,2.7-0.97,3.17a9.138,9.138,0,0,1-1.09,2.34h-0.04v-0.23Zm0.04,1.4,0.04,0.24v0.07a0.876,0.876,0,0,1-.28.67v-0.31h0a1.08,1.08,0,0,1,.24-0.67h0Zm-0.51,2.85h0.04a3.017,3.017,0,0,1,.08.59v0.08a1.79,1.79,0,0,1-.51,1.17,1.152,1.152,0,0,1-.15-0.63,1.7,1.7,0,0,1,.54-1.21h0Zm-1.56.82h0.04a0.375,0.375,0,0,1-.15.36h-0.04a0.375,0.375,0,0,1,.15-0.36h0Zm-18.5,9.42a2.657,2.657,0,0,1,1.01-1.49h0.04a4.657,4.657,0,0,1-1.13,2.07,4.55,4.55,0,0,1,.08-0.58h0Zm-0.16.78v0.04a1.213,1.213,0,0,1-.35.9v-0.12a1.225,1.225,0,0,1,.35-0.82h0Zm-0.66,1.56a1.423,1.423,0,0,1-.39.9,1.423,1.423,0,0,1,.39-0.9h0Zm-0.7,1.56a4.6,4.6,0,0,1-.27.75,1.761,1.761,0,0,1,.23-0.75h0.04Zm-0.27.79v0.03h-0.04v-0.03h0.04Zm-3.12,4.06v0.08l-0.04.07v-0.15h0.04Zm-0.19.55a4.557,4.557,0,0,1-.32.89v-0.04a2.781,2.781,0,0,1,.28-0.85h0.04Zm-0.39,1.13c-0.06.44-.13,0.9-0.24,1.37a11.129,11.129,0,0,1-.66,1.64h-0.04v-0.16a6.327,6.327,0,0,1,.9-2.85h0.04Zm-1.52,3.87c0-.06.06-0.08,0.19-0.08h0.04a0.144,0.144,0,0,1,.08.11,1.886,1.886,0,0,1-.04.32,0.345,0.345,0,0,1-.27.35,0.214,0.214,0,0,1-.12-0.16,4.072,4.072,0,0,1,.12-0.54h0Zm8.45,11.67a8.77,8.77,0,0,0,1.05-.07h0.04v0.04l-0.86.31a1.511,1.511,0,0,1-.58-0.2v-0.04h0Zm55.9-50.97q-4.245,4.455-8.61,9.45-7.275,8.445-10.87,12.35l-1.83.23c0.29-.89.56-1.68,0.82-2.38a33.072,33.072,0,0,0,1.4-4.69,60.107,60.107,0,0,0,1.45-11.99v-0.59a12.916,12.916,0,0,0-.55-4.18,5.955,5.955,0,0,0-1.32-1.8,5.7,5.7,0,0,0-3.55-1.44,1.826,1.826,0,0,0-1.67.74q-1.02,5.235-1.91,11.17a30.833,30.833,0,0,1-.78,4.18q-0.75,3.015-3.94,15.51-4.245,16.95-4.24,24.65,0,5.31,1.94,6.76a18.828,18.828,0,0,0,5.5,1.99h0.04c-0.73-.81-1.3-1.49-1.72-2.03l0.04-.12v-0.04a0.952,0.952,0,0,1-.23-0.62,1.749,1.749,0,0,1,.31-1.06q0-.465.12-1.68a3.728,3.728,0,0,1-.12-0.94v-0.11a78.513,78.513,0,0,1,.9-8.21c0.36-2.13.54-3.28,0.54-3.43a3.265,3.265,0,0,1,.66-1.57l-0.58,2.07v0.04l0.15-.23c-0.1.42-.23,1.03-0.39,1.84-0.18,1.04-.32,2.2-0.42,3.47q-0.045,3.675-.24,5.78a3.571,3.571,0,0,1-.11,1.41,0.417,0.417,0,0,0-.28.19v0.2a3.125,3.125,0,0,1,.31,1.25v0.23h0.04c0-.02.16-0.27,0.47-0.74v0.08h0.04a10.438,10.438,0,0,0,.08-1.13v-0.2c-0.05-1.04-.08-1.69-0.08-1.95v-0.55c0-.39.03-0.9,0.08-1.52,0.15-1.38.23-2.12,0.23-2.23a17.308,17.308,0,0,1,.24-2.65v-0.36a5.824,5.824,0,0,1,.07-0.93c0.18-.58.34-1.15,0.47-1.72,0.29-.63.43-0.95,0.43-0.98l-0.04-.04-0.12.04h-0.04a2.673,2.673,0,0,1,.24-0.66,6.869,6.869,0,0,1,.19-1.06,6.384,6.384,0,0,1,1.41-3.04,2.326,2.326,0,0,1,1.16-.86,1.849,1.849,0,0,0,.63-0.12c0.15-.42.26-0.68,0.31-0.78a1.518,1.518,0,0,1,.66-0.7,1.576,1.576,0,0,1,.47-0.47,2.1,2.1,0,0,1,.31.07,1.328,1.328,0,0,0,.66-0.46,0.64,0.64,0,0,1,.47-0.32,1.647,1.647,0,0,0,.39-0.35h0.08a1.155,1.155,0,0,1,.31.59,6.892,6.892,0,0,1,.93,1.4,1.209,1.209,0,0,0,.24.63,56.058,56.058,0,0,0,4.83,5.55q1.005,1.17,6.78,6.91c2.52,2.42,4.14,3.91,4.87,4.45a14.785,14.785,0,0,0,3.07,1.57,21.474,21.474,0,0,0,7.02,1.44h0.62c1.19-.1,1.79-0.44,1.79-1.01a2.738,2.738,0,0,0-1.09-1.61q-2.145-1.755-4.56-4.02-1.245-1.1-5.72-5.59-4.065-4.215-6.67-7.34a65.426,65.426,0,0,1-6.31-8.63c0.24-.26,1.89-2.05,4.95-5.35q11.76-12.735,16.17-17.86c2.8-3.43,4.21-5.96,4.21-7.57a2,2,0,0,0-.28-1.02,4.742,4.742,0,0,1-.89-1.29,1.205,1.205,0,0,0-.94-1.05h-0.12q-2.13.15-8.88,7.03h0Zm4.95,3.2a15.744,15.744,0,0,0,1.6-1.76,4.466,4.466,0,0,1,1.71-1.52q-1.71,2.265-2.69,3.36a3.81,3.81,0,0,1-1.44,1.17h-0.11a0.092,0.092,0,0,1-.08-0.08h0a1.774,1.774,0,0,1,1.01-1.17h0Zm-24.15-3.01h0.08a0.34,0.34,0,0,1,.27.2,2.078,2.078,0,0,1,.23,1.05,8.839,8.839,0,0,1-.12,1.45,62.655,62.655,0,0,1-1.05,6.95,24.042,24.042,0,0,1-.85,4.14,20.743,20.743,0,0,0-.98,3.75,13.1,13.1,0,0,1-.31,1.88c-0.7,2.34-1.05,3.58-1.05,3.71a0.632,0.632,0,0,1-.27.39,0.226,0.226,0,0,1-.12-0.16c0.02-.1.04-0.17,0.04-0.19a30.852,30.852,0,0,0,.5-3.24v-0.32a0.912,0.912,0,0,1,.16-0.47,27.27,27.27,0,0,0,.94-3.16,12.639,12.639,0,0,0,.42-3.05v-0.35l-0.04-.15a12.7,12.7,0,0,0,.43-1.25,12.641,12.641,0,0,1,.43-2.07,29.661,29.661,0,0,0,.51-2.93,7.14,7.14,0,0,1,.12-1.84,7.127,7.127,0,0,0,.46-2.31c-0.05-.59-0.08-1-0.08-1.21v-0.07h0c0-.5.1-0.75,0.28-0.75h0Zm22.09,5.39a4.207,4.207,0,0,1,.97-0.97,2.258,2.258,0,0,1-.2.54,4.914,4.914,0,0,1-1.01,1.18h-0.04a1.783,1.783,0,0,1,.28-0.75h0Zm-6.98,8.21a4.754,4.754,0,0,1,1.29-1.96c0.93-1.12,2.27-2.53,4.01-4.25a2.023,2.023,0,0,1,1.56-.94h0.04q-3.63,4.065-6.98,7.69a1.771,1.771,0,0,1,.08-0.54h0Zm-9.27,9.41a25.364,25.364,0,0,1,2.14-2.5,18.289,18.289,0,0,0,2.07-2.58,5.961,5.961,0,0,1,1.05-1.21c0.62-.49,1.32-1.09,2.1-1.79a3.093,3.093,0,0,1,1.41-.79h0.03c-0.31.32-.64,0.68-1.01,1.1q-2.3,2.685-3.82,4.37c-1.37,1.51-2.23,2.49-2.57,2.93a7.367,7.367,0,0,1-1.59,1.64h-0.08a0.2,0.2,0,0,1-.2-0.19,2.4,2.4,0,0,1,.47-0.98h0Zm-10.6,2.31a1.088,1.088,0,0,1,.51-0.79,2.029,2.029,0,0,1-.04.63,0.419,0.419,0,0,1-.19.39h-0.08a0.161,0.161,0,0,1-.2-0.16v-0.07Zm-0.5,2.46v0.54a3.813,3.813,0,0,1-.59,2.07,3.532,3.532,0,0,1-.07-0.66v-0.12a3.674,3.674,0,0,1,.62-1.83h0.04Zm-0.63,2.81h0.04v0.12a1.041,1.041,0,0,1-.5,1.05,1.314,1.314,0,0,1-.04-0.27v-0.04h0a1.113,1.113,0,0,1,.5-0.86h0Zm90.77-44.77q-10.275,1.92-19.32,4.46a53.38,53.38,0,0,0-8.18,2.73q-2.46.975-6.93,2.58-4.245,1.485-4.25,2.38v0.12a10.323,10.323,0,0,1,.93,1.44,3.858,3.858,0,0,1,.51,1.33,3.128,3.128,0,0,0,.39,1.45,2.894,2.894,0,0,0,2.69,1.64,1.585,1.585,0,0,0,.58-0.12q1.44-.42,4.64-1.68a124.811,124.811,0,0,1,12.85-4.26h0.04v0.24a25.381,25.381,0,0,1-.46,5.15q-2.58,8.985-5.03,19.34-1.875,7.38-3.23,15.12a82.3,82.3,0,0,0-.86,11.4q0,6.255,1.32,8.75a6.881,6.881,0,0,0,1.21,1.45,2.117,2.117,0,0,0,1.72,1.05h0.19a0.5,0.5,0,0,0,.16-0.03c-0.03-.71-0.04-1.44-0.04-2.19v-0.59c0-1.27.02-2.54,0.08-3.79-0.03-.36-0.06-0.87-0.08-1.52a37.4,37.4,0,0,1,.89-7.38c0.29-2.24.51-3.84,0.67-4.81q0.855-4.17,1.36-7.22a18.423,18.423,0,0,1,.27-2.04,17.984,17.984,0,0,1,.74-2.38,0.711,0.711,0,0,1,.55-0.66c0.18,0.02.27,0.09,0.27,0.19v0.08a4.707,4.707,0,0,1-.04.59q-0.78,4.845-1.6,8.2c-0.18.96-.33,2.04-0.46,3.24a10.447,10.447,0,0,1-.35,2.54,7.579,7.579,0,0,0-.32,1.76v0.31a4.855,4.855,0,0,0,.12,1.02,4.659,4.659,0,0,1,.27,1.05v0.08a1.7,1.7,0,0,1-.07.43,2.488,2.488,0,0,1-.39.59,11.89,11.89,0,0,0-.51,3.86,7.686,7.686,0,0,0,.16,1.6,7.315,7.315,0,0,1,.27,1.1,0.243,0.243,0,0,0-.04.11,6.4,6.4,0,0,0-.47,2.27,6.505,6.505,0,0,0,.08.94h-0.04a1.51,1.51,0,0,1,.86.9,1.288,1.288,0,0,1-.2.58,2.276,2.276,0,0,0-.54,1.14v0.07a1.279,1.279,0,0,1,.62.47h0.78a0.972,0.972,0,0,0,.12-0.74v-0.2c-0.18-5.05-.28-8.13-0.28-9.25a23.034,23.034,0,0,1,.2-3.09q0.585-5.16,1.36-9.61,0-.93,1.33-7.77c0.44-2.01.79-3.88,1.05-5.63a64.7,64.7,0,0,1,1.67-6.72,43.123,43.123,0,0,0,1.84-7.03,19.486,19.486,0,0,1,1.01-4.53q0.78-2.265,1.44-4.76a27.14,27.14,0,0,0,.74-4.46,2.355,2.355,0,0,1,.39-1.05,1.852,1.852,0,0,1,.9-0.39c2.33-.21,3.98-0.39,4.94-0.55,2.31-.36,4.6-0.81,6.86-1.33a53.482,53.482,0,0,1,10.05-1.72h0.43a5.578,5.578,0,0,1,2.57.55,6.274,6.274,0,0,0,2.8,1.13,1.5,1.5,0,0,0,.55-0.11,0.855,0.855,0,0,0,.39-0.63,12.3,12.3,0,0,0-.55-3.01,4.837,4.837,0,0,0-1.71-2.85,20.765,20.765,0,0,0-10.25-2.38h-0.58a51.745,51.745,0,0,0-9.08,1.05h0Zm-20.25,6.18h0.03c0.11,0,.17.09,0.2,0.27a1.04,1.04,0,0,1-.97.43v-0.04a1.263,1.263,0,0,1,.74-0.66h0Zm-13.91,5.27c2.34-.99,4.67-1.9,7.01-2.74q2.1-.66,2.73-0.93a6.393,6.393,0,0,1,3.15-.86h0.04a51.841,51.841,0,0,1-4.83,2.58,49.409,49.409,0,0,1-6.04,2.26,5.432,5.432,0,0,1-1.87.47h-0.15a2.391,2.391,0,0,1-.7-0.12v-0.04a4.357,4.357,0,0,1,.66-0.62h0Zm-1.48.55h0.08a2.9,2.9,0,0,1,.5.11v0.04a1.281,1.281,0,0,1-.7.31,0.365,0.365,0,0,1-.23-0.07v-0.08a0.311,0.311,0,0,1,.35-0.31h0Zm22.98,15.54a5.273,5.273,0,0,1-.58,1.96h-0.04v-0.51a3.765,3.765,0,0,1,.51-1.68,0.271,0.271,0,0,1,.11.23h0Zm-1.36,3.56a4.354,4.354,0,0,1,.7-1.37v0.12a6.344,6.344,0,0,1-.97,3.59h-0.04v-0.58a5.494,5.494,0,0,1,.31-1.76h0Zm-0.78,3.98a2.776,2.776,0,0,1,.04.51v0.08a2.847,2.847,0,0,1-.35,1.29h-0.04c-0.03-.26-0.04-0.42-0.04-0.47a2.625,2.625,0,0,1,.39-1.41h0Zm-0.7,3.32a5.793,5.793,0,0,1-.62,2.5v-0.35a5.276,5.276,0,0,1,.62-2.38h0v0.23Zm23.26-21.05a23.65,23.65,0,0,0-3.74,1.05,18.666,18.666,0,0,0-9.55,7.78,27.731,27.731,0,0,0-2.49,5.15,44.643,44.643,0,0,0-1.6,6.1q-0.51,2.61-.9,6.99l0.04,0.04,0.71,1.72c-0.03.02-.26,0.14-0.71,0.35q-0.15,0-.15.27v1.29a21.518,21.518,0,0,0,1.36,8.12,9.267,9.267,0,0,0,4.52,5.04,11.13,11.13,0,0,0,2.22.82,8.765,8.765,0,0,0,5.38,1.76h0.89a13.227,13.227,0,0,0,7.09-2.3,20.353,20.353,0,0,0,3.35-2.62,26.779,26.779,0,0,0,2.34-2.5,38.671,38.671,0,0,0,2.61-3.52,36.909,36.909,0,0,0,2.88-5.35,20.135,20.135,0,0,0,1.48-8.16v-0.86a40.143,40.143,0,0,0-1.28-9.65,23.818,23.818,0,0,0-1.87-4.96,10.967,10.967,0,0,0-1.52-2.3,5.783,5.783,0,0,0-1.33-1.22,4.207,4.207,0,0,0-1.09-.46l-0.78-.63a11.276,11.276,0,0,0-1.67-1.09,7.567,7.567,0,0,0-4.13-1.02h-0.19a10.651,10.651,0,0,0-1.87.16h0Zm-7.41,17.34a53.929,53.929,0,0,1,3.31-6.37,26.287,26.287,0,0,1,2.38-3.39,13.411,13.411,0,0,1,1.36-1.22,8.5,8.5,0,0,1,4.25-1.71h0.23a2.718,2.718,0,0,1,1.25.31q2.34,1.215,2.34,6.6a41.753,41.753,0,0,1-.9,7.89,74.731,74.731,0,0,1-2.37,8.52,52.553,52.553,0,0,1-3.51,8,19.2,19.2,0,0,1-1.99,3.05q-3.735,3.99-5.61,3.99h-0.19c-0.83,0-1.49-.66-1.99-1.96a20.871,20.871,0,0,1-.66-3.36c-0.34-3.12-.6-5.21-0.78-6.25-0.15-.88-0.23-1.35-0.23-1.4a1.185,1.185,0,0,1,.43-0.82,2.631,2.631,0,0,0,.77-2.03v-0.43c-0.13-1.12-.19-1.75-0.19-1.88q0-2.58,2.1-7.54h0Zm-2.22-10.15,0.08,0.39-0.04.11a2.217,2.217,0,0,1-.85.94h0a1.656,1.656,0,0,1,.81-1.44h0Zm-1.44,2.53h0.08l0.04,0.08a0.316,0.316,0,0,1-.16.2l-0.04-.16h0a0.174,0.174,0,0,1,.08-0.12h0Zm-4.83,10.86a11.092,11.092,0,0,1,.86-3.04,17.4,17.4,0,0,1,1.67-4.14c0.47-.84,1-1.79,1.6-2.86a0.914,0.914,0,0,1,.58-0.39,5.071,5.071,0,0,1-.31,1.02,9.926,9.926,0,0,1-.97,2.11,21.334,21.334,0,0,0-1.71,3.67,37.369,37.369,0,0,0-1.13,4.1,9.1,9.1,0,0,1-.04,1.1,0.944,0.944,0,0,1-.55.54,10.037,10.037,0,0,1-.08-1.01,7.582,7.582,0,0,1,.08-1.1h0Zm29.57,2.15a2.2,2.2,0,0,1,.08.94v0.27a6.632,6.632,0,0,1-.12,1.33,9.047,9.047,0,0,1-.74,2.42,16.58,16.58,0,0,1-.58,1.96c-0.42.96-.97,2.07-1.64,3.32-0.6,1.04-.95,1.66-1.05,1.87a1.016,1.016,0,0,1-.63.43h-0.03l0.19-.62a9.066,9.066,0,0,1,1.17-2.54,26.329,26.329,0,0,0,1.4-2.89,32.259,32.259,0,0,0,1.13-3.79,5.756,5.756,0,0,0,.23-1.41v-0.31a0.949,0.949,0,0,1,.59-0.98h0Zm-30.62,1.53a0.287,0.287,0,0,1,.31-0.28,0.957,0.957,0,0,1,.16.71,8.276,8.276,0,0,1-.12,1.32,0.259,0.259,0,0,1-.31.28h-0.08a2.284,2.284,0,0,1-.12-0.86v-0.08a3.775,3.775,0,0,1,.16-1.09h0Zm26.53,4.64v0.08c-0.08.37-.13,0.59-0.16,0.67a0.16,0.16,0,0,1-.11-0.04,1.221,1.221,0,0,1-.2-0.47h0a2.7,2.7,0,0,1,.47-0.24h0Zm-0.66,6.68a0.106,0.106,0,0,1-.12.12l-0.08-.04a0.642,0.642,0,0,1,.16-0.23h0a0.245,0.245,0,0,1,.04.15h0Zm-1.56,2.23a1.891,1.891,0,0,1,.86-0.98,1.744,1.744,0,0,1-.82,1.45,2.715,2.715,0,0,1-.04-0.43h0v-0.04Zm-0.78,1.33a0.739,0.739,0,0,1,.39.12,3.629,3.629,0,0,1-1.33,1.79,0.363,0.363,0,0,1-.27-0.08v-0.03a4,4,0,0,1,1.21-1.8h0Zm41.68-44.49a13.684,13.684,0,0,0-2.72,1.44,2.838,2.838,0,0,0-.63.59v0.08l0.08-.04a20.3,20.3,0,0,1,1.99-.94,8.736,8.736,0,0,0,1.91-.67,15.5,15.5,0,0,1,2.49-.54,8.531,8.531,0,0,1,2.22-.31h0.27q0.705,0,1.29.03l-0.55.24a9.131,9.131,0,0,1-1.52.23,12.888,12.888,0,0,0-4.79.94,26.768,26.768,0,0,0-3.47,1.88,0.3,0.3,0,0,0-.23.31v0.04a1.675,1.675,0,0,0,.2.7,4.562,4.562,0,0,1,.77,1.56,2.435,2.435,0,0,0,2.42,1.76,7.435,7.435,0,0,0,2.26-.43c-0.31,1.46-.61,2.76-0.9,3.91q-1.4,5.43-4.75,17.65-4.905,18.255-4.91,24.03v0.15a6.254,6.254,0,0,0,1.48,4.14,6.97,6.97,0,0,0,1.56,1.25,7.361,7.361,0,0,0,3.39,1.02h0.23a0.655,0.655,0,0,0,.59-0.2,2.083,2.083,0,0,0,.66-1.71v-0.12a7.416,7.416,0,0,0-.08-0.98,18.568,18.568,0,0,1-.35-2.85q0-2.8,1.91-9.41a2.438,2.438,0,0,1,1.52-.86,1.722,1.722,0,0,0,1.4-.75,1.47,1.47,0,0,1,.63-0.78l0.07,0.04a0.889,0.889,0,0,0,.39.16,0.784,0.784,0,0,0,.35-0.08c0.52-.29.92-0.49,1.21-0.62a2.8,2.8,0,0,0,1.64-.86h0.04c-0.42.75-.67,1.19-0.74,1.32h0.03a35.544,35.544,0,0,0,4.29-3.16q1.59-1.215,5.34-4.8c2.36-2.43,4.06-4.26,5.1-5.51q1.68-1.95,2.84-3.56c-0.52.45-1.27,1.1-2.26,1.96v-0.04a12.1,12.1,0,0,0,2.46-3.32,19.924,19.924,0,0,1,1.52-2.58,7.692,7.692,0,0,1,.78-1.1,3.511,3.511,0,0,0,.43-0.27,14.3,14.3,0,0,0,1.01-2.34,6.73,6.73,0,0,0,.66-1.72v-0.31a3.647,3.647,0,0,1-.39-1.21v-0.04a2.606,2.606,0,0,1,.31-1.06,7.73,7.73,0,0,0,.31-1.52v-0.04a2.806,2.806,0,0,0-.07-0.55,0.534,0.534,0,0,1,.19-0.35,6.482,6.482,0,0,0-.15-0.7,19.174,19.174,0,0,0-.9-1.96,12.367,12.367,0,0,0-1.83-2.3,21.65,21.65,0,0,0-1.83-1.56,26.085,26.085,0,0,0-3.9-2.19,34.628,34.628,0,0,0-13.05-2.5h-0.15a20.061,20.061,0,0,0-8.07,1.41h0Zm3.35,4.37h0.12l0.08,0.2a0.121,0.121,0,0,1-.12.15,0.189,0.189,0,0,1-.19-0.19h0c0-.11.03-0.16,0.11-0.16h0Zm8.11,2.27a24.672,24.672,0,0,1,2.88.43q6.315,1.4,6.31,6.01,0,3.915-4.36,9.65-1.02,1.365-3.12,3.63-2.49,2.58-3.47,3.44l-2.06,1.84q-2.49,1.98-3.9,2.93h-0.04q1.245-3.945,2.96-10.78,1.875-7.4,3.16-13.72c0.05-.67.1-1.19,0.16-1.56a7.946,7.946,0,0,0,.46-1.68l-0.04-.27Zm17.1,2.61,0.15,0.28a0.965,0.965,0,0,1,.28.62,6.88,6.88,0,0,1-.08.9h-0.04l-0.31-1.8h0Zm-33.74,29.77q0.93-3.9,4.68-18.36,1.635-6.21,2.02-8.01a11.63,11.63,0,0,1,.62-2.3c0.08-.52.24-0.78,0.47-0.78h0.12a0.394,0.394,0,0,1,.35.47,5.084,5.084,0,0,1-.16.82,15.858,15.858,0,0,1-.7,1.95c-0.18.6-.52,2.03-1.01,4.3q-2.955,12.735-4.71,18.94c-0.68,2.45-1.17,3.8-1.48,4.06a0.554,0.554,0,0,1-.39-0.19h0a5.19,5.19,0,0,1,.19-0.9h0Zm34.01-27.7h0.04c0.05,0.29.08,0.46,0.08,0.51a0.106,0.106,0,0,1-.12.12h-0.04a0.622,0.622,0,0,1-.08-0.12,1.223,1.223,0,0,1,.12-0.51h0Zm-10.25,16.41a6.687,6.687,0,0,1,.86-0.66,16.711,16.711,0,0,0,1.68-1.92,2.719,2.719,0,0,1,1.59-1.44,17.25,17.25,0,0,0,1.06-1.92c1.24-2.37,2.26-4.45,3.03-6.25a8.5,8.5,0,0,1,.2-1.13c0-.16.05-0.23,0.15-0.23a2.016,2.016,0,0,0,.36.03v0.08a8.8,8.8,0,0,1-.47,2c-0.21.46-.46,1.05-0.74,1.75a11.976,11.976,0,0,1-.98,2.62,3.73,3.73,0,0,0-.5.98,15.676,15.676,0,0,1-.98,1.72c-0.49.65-.94,1.27-1.36,1.87a8.362,8.362,0,0,1-1.71,1.8c-0.81,1.01-1.25,1.55-1.33,1.6a3,3,0,0,1-.97.94c-0.24.05-.35,0.13-0.35,0.23-0.37.83-.68,1.25-0.94,1.25h-0.15c-0.19,0-.3-0.16-0.35-0.47a1.71,1.71,0,0,1,.74-0.97,1.311,1.311,0,0,0,.46-0.2v-0.04h0a2.289,2.289,0,0,1,.7-1.64h0Zm9.98-13.52a1.208,1.208,0,0,1-.08.24v-0.04c0.02-.1.04-0.17,0.04-0.2h0.04Zm-0.67,1.96a4.019,4.019,0,0,1,.43-1.33v0.39a5.2,5.2,0,0,1-.5,2.07,1.178,1.178,0,0,1-.51.59h0Zm-2.29,4.84a0.043,0.043,0,0,1,.04.04v0.04l-0.04.04-0.08-.08v-0.04h0.08Zm-30.58,20v0.04a9.037,9.037,0,0,1-.12.98,17.1,17.1,0,0,1-.47,1.76,0.214,0.214,0,0,1-.12-0.04l0.04-.59a4.8,4.8,0,0,1,.63-2.15h0.04Zm41.99-44.57c-2.23.39-3.35,0.68-3.35,0.86v0.04a0.753,0.753,0,0,0,.31.39,3.741,3.741,0,0,1,.86.94,2.422,2.422,0,0,1,.35,1.44c0,0.55-.03,1.24-0.08,2.07a60.944,60.944,0,0,1-.86,6.72q-1.4,5.67-3.62,13.21-2.1,6.945-3.82,14.1a61.125,61.125,0,0,0-2.06,14.18v0.07a1.023,1.023,0,0,1-.7.9c0.1,0.81.17,1.27,0.19,1.37a1.69,1.69,0,0,0,.16.98h0.04a0.408,0.408,0,0,0,.27-0.2h0.04a0.145,0.145,0,0,1,.12.12,4.17,4.17,0,0,1-.28.9,2.5,2.5,0,0,0-.39,1.36v0.24a1.547,1.547,0,0,0-.27,1.01,1.359,1.359,0,0,0,.27.86,7.614,7.614,0,0,0,1.76,1.57,1.646,1.646,0,0,1,.74,1.05c0,0.37.14,0.55,0.43,0.55a19.907,19.907,0,0,0,3.93-1.45,0.839,0.839,0,0,0,.47-0.23c0.05-.05.93-0.39,2.65-1.02a40.525,40.525,0,0,1,5.1-1.87c2.81-.84,6.52-1.73,11.14-2.7q6.435-1.29,6.43-1.95l-0.04-.04a16.908,16.908,0,0,1-2.77.27,11.252,11.252,0,0,1-1.71-.15v-0.04a5.656,5.656,0,0,1,.62-0.31,7.2,7.2,0,0,1,3.35-.63h0.74a6.559,6.559,0,0,1,1.13-1.56c1.09-1.07,1.64-1.94,1.64-2.62a1.668,1.668,0,0,0-.12-0.62,2.156,2.156,0,0,0-1.91-.9h-0.23a3.99,3.99,0,0,0-.9-0.12h-0.03a24.653,24.653,0,0,0-4.52.66q-6.075,1.335-9.35,1.96a53.929,53.929,0,0,0-5.34,1.01,50.652,50.652,0,0,0-5.34,1.76q0-.435,1.17-5.08,3-10.815,4.33-15.74,4.545-17.145,4.55-25v-0.47a16.471,16.471,0,0,0-.46-4.1q-0.975-3.825-4.05-3.83Zm2.92,2.58a0.622,0.622,0,0,1,.51.51l0.15,0.82c0.08,1.43.12,2.52,0.12,3.28,0,1.09-.05,2.59-0.15,4.49a17.908,17.908,0,0,1-.55,4.53c-0.36,1.25-.64,2.33-0.82,3.24-0.13,1.05-.24,1.91-0.35,2.58-0.39,1.62-.66,2.75-0.82,3.4a1.221,1.221,0,0,1-.27.9h-0.04l-0.08-.12v-0.39c0.21-1.8.32-2.78,0.32-2.97v-0.5a0.174,0.174,0,0,1,.03-0.12,22.238,22.238,0,0,0,.86-3.09,14.2,14.2,0,0,0,.43-2.93c0-.18-0.01-0.49-0.04-0.94a1.165,1.165,0,0,1-.04-0.15,5.672,5.672,0,0,0,.39-1.95,35.7,35.7,0,0,0,.31-3.72c0-.39-0.05-1.1-0.15-2.14v-0.16a11.044,11.044,0,0,0,.23-1.76v-0.47c-0.15-.93-0.23-1.49-0.23-1.68v-0.04l-0.04-.07c0.02-.37.1-0.55,0.23-0.55h0Zm-9.62,50.43a18.662,18.662,0,0,1,.58-2.38,65.067,65.067,0,0,1,2.03-7.19c0.68-1.69,1.1-2.88,1.29-3.56a3.741,3.741,0,0,1,1.09-1.99c-0.19.71-.64,2.18-1.37,4.42-0.33,1.4-.63,2.55-0.89,3.43a50.633,50.633,0,0,0-1.79,6.88,10.733,10.733,0,0,1-.24,1.52,3.927,3.927,0,0,1-.62,1.45h-0.04a4.072,4.072,0,0,1-.16-1.06v-0.31h0c0-.16.04-0.56,0.12-1.21h0Zm2.81-13.36c0,0.08.01,0.22,0.03,0.43a2.961,2.961,0,0,1-.03.31,5.466,5.466,0,0,1-.67,1.8v-0.35a5.62,5.62,0,0,1,.63-2.19h0.04Zm15.81,17.27a2.943,2.943,0,0,1,2.38-1.33h0.15a3.649,3.649,0,0,1,.59.04,6.893,6.893,0,0,1-1.25.86,6.356,6.356,0,0,1-1.95.58h-0.04Zm32.22-45.94q-3.465,6.045-6.7,11.48a164.752,164.752,0,0,0-8.49,15.98,1.938,1.938,0,0,1-.98-0.43,2.064,2.064,0,0,1-.62-0.74,2.244,2.244,0,0,0-.63-1.14,6.416,6.416,0,0,0-1.09,3.17,4.133,4.133,0,0,0,1.56,2.97q-1.32,3.045-2.69,6.56c-0.8,2.27-1.36,3.81-1.67,4.65-1.3,3.07-1.95,5.34-1.95,6.79v0.24a3.827,3.827,0,0,0,.51,1.99c0.6,0.39,1.15.78,1.67,1.17a8.927,8.927,0,0,0,3.51,1.76,0.188,0.188,0,0,0,.19-0.23c-0.07-1.15-.11-1.93-0.11-2.35v-0.19a10.613,10.613,0,0,1,.66-3.52q0.66-1.95,1.79-4.53,1.56-3.555,4.91-9.88l0.19,0.04a6.133,6.133,0,0,0,1.64-.2,33.837,33.837,0,0,0,4.64-1.29c4-1.3,6.37-1.95,7.13-1.95h0.19a0.536,0.536,0,0,1,.39.12,13.839,13.839,0,0,0,.66,1.91,1.218,1.218,0,0,1-.15.47,1.646,1.646,0,0,0,.15.59,2.128,2.128,0,0,1,.35,1.01,2.151,2.151,0,0,1-.15.9c-0.03.34-.07,0.7-0.12,1.09v0.08a3.727,3.727,0,0,1,.23.78l-0.04.08a7.459,7.459,0,0,0-.27,1.99,15.49,15.49,0,0,0,.74,4.46,14.906,14.906,0,0,0,.78,1.79,1.319,1.319,0,0,0,.78.71c1.12,0.8,1.88,1.35,2.3,1.64a9.569,9.569,0,0,0,2.69.97c0.54,0,.81-0.57.81-1.72a33.466,33.466,0,0,0-.38-3.82q-0.585-5.595-.98-9.07-2.3-21.51-2.3-24.25v-0.04q0.39-4.77.67-6.17c0.15-.55.23-0.85,0.23-0.9a1.228,1.228,0,0,0-.9-0.75,3.684,3.684,0,0,1-1.32-.78c-0.96-1.14-1.79-1.72-2.49-1.72h-0.08c-1.25-1.25-2.17-1.87-2.77-1.87h0c-0.65,0-1.48.72-2.49,2.15h0Zm-2.65,14.41,0.78-1.25c0.44-.91.82-1.63,1.13-2.15a12.224,12.224,0,0,1,1.75-2.22c-0.28.73-.57,1.39-0.86,1.99a33.676,33.676,0,0,1-3.31,5.51,4.063,4.063,0,0,1,.51-1.88h0Zm3.74-1.52c0.21,2.37.62,5.87,1.25,10.51q-4.215,1.71-6.55,2.85a16.2,16.2,0,0,1-2.26.74v-0.04q3.39-6.135,5.65-10.74a32.333,32.333,0,0,1,1.91-3.4h0v0.08Zm7.28,3.32a8.4,8.4,0,0,1-.15,1.52h-0.04l-0.23-.43a3.829,3.829,0,0,1-.51-2.22v-0.24a11.02,11.02,0,0,1,.15-1.72h0a7.061,7.061,0,0,1,.78,3.09h0Zm-0.11,3.08a0.805,0.805,0,0,1,.66.59c0.41,4.12.62,6.81,0.62,8.09q0.27,4.26.59,6.52a82.342,82.342,0,0,0,1.32,8.2h-0.04a6.878,6.878,0,0,1-1.01-1.99,47.014,47.014,0,0,1-.86-5.94l-0.5-5.7a39.17,39.17,0,0,1-.51-4.61c0.03-.75.04-1.24,0.04-1.44a9.241,9.241,0,0,0-.2-1.61,8.7,8.7,0,0,1-.35-1.4v-0.08a0.955,0.955,0,0,1,.24-0.63h0Zm-17.96,9.46,0.04,0.12a1.116,1.116,0,0,1-.55,1.01h-0.04a1.578,1.578,0,0,1,.55-1.13h0Zm-0.55,1.25-0.08.08a0.415,0.415,0,0,1,.04-0.12h0Zm-3.58,5.94c0.36-.6.73-1.25,1.09-1.96a11.844,11.844,0,0,1,2.34-3.79c-0.37,1.1-.73,2.05-1.09,2.85a41.855,41.855,0,0,1-2.65,4.69h-0.04v-0.19a4.094,4.094,0,0,1,.35-1.6h0Zm-0.35,1.87v0.04h-0.04v-0.04h0.04Zm-0.9,1.76a6.506,6.506,0,0,1-1.4,4.1c-0.03-.29-0.04-0.51-0.04-0.66v-0.28a7.644,7.644,0,0,1,1.44-3.51v0.35Zm-2.3,5.86h0.04c0.05,0.36.08,0.58,0.08,0.66a2.282,2.282,0,0,1-.74,1.64,1.908,1.908,0,0,1-.08-0.62,2.328,2.328,0,0,1,.7-1.68h0Zm61.75-54.81a34.322,34.322,0,0,0-2.84,3.95q-3.195,5.115-6.74,11.6-1.755,3.285-2.38,4.26a52.136,52.136,0,0,0-2.65,5,0.9,0.9,0,0,1-.31.7c-0.18-.08-0.34-0.16-0.47-0.23a3.549,3.549,0,0,1-.82-1.33,17.766,17.766,0,0,0-1.17-2.42,10.594,10.594,0,0,0-1.32-1.96,3.211,3.211,0,0,1-.74-1.44v-0.47a5.053,5.053,0,0,0-1.01-2.62,17.781,17.781,0,0,0-.86-1.56,1.333,1.333,0,0,1-.66-0.82,3.026,3.026,0,0,1-.55-1.64,3.345,3.345,0,0,1-.66-1.21,0.753,0.753,0,0,0-.35-0.55,1.338,1.338,0,0,1-.66-0.59,10.124,10.124,0,0,1-1.68-3.47,5.106,5.106,0,0,0,.55.86,10.423,10.423,0,0,1,.93,1.33,1.013,1.013,0,0,0,.55.35h0.04c-0.78-1.57-1.54-3-2.26-4.3a3.17,3.17,0,0,0-2.89-2.15,3.049,3.049,0,0,0-1.2.28,1.525,1.525,0,0,1-.51.23c-0.36-.03-0.61-0.04-0.74-0.04H4392c-0.91,0-1.79.69-2.65,2.07a22.47,22.47,0,0,0,1.44,4.57q2.8,6.96,5.85,13.63a1.988,1.988,0,0,1,.97,1.45v0.59a1.008,1.008,0,0,0,.47.7l0.12-.04a6.528,6.528,0,0,1,.46,1.29,9.721,9.721,0,0,0,1.09,2.5,3.44,3.44,0,0,1,.59.51,2.333,2.333,0,0,1,.86.86v0.03a0.343,0.343,0,0,1-.16.24,3.946,3.946,0,0,0,.78.51h-0.04a2.633,2.633,0,0,1-1.01-.2l-0.04.04h0.04a3.98,3.98,0,0,0,.89.7,8.622,8.622,0,0,0,2.54.51h0.15a7.033,7.033,0,0,0,1.4-.15q-4.86,11.2-8.64,21.17a11.792,11.792,0,0,0-.94,4.18,4.3,4.3,0,0,0,.23,1.52,4.086,4.086,0,0,0,1.37,1.68q3.39,3.09,4.94,3.09a0.421,0.421,0,0,1,.2-0.04,0.649,0.649,0,0,0,.58-0.75v-0.15a3.841,3.841,0,0,0-.04-0.55,6.825,6.825,0,0,1-.27-1.05q0-2.235,4.4-12.42c1.67-3.78,3.39-7.57,5.19-11.37q1.275-2.73,5.57-10.67a6.837,6.837,0,0,1,.81-2.34,12.877,12.877,0,0,0,.71-1.37,9.724,9.724,0,0,1,.74-1.48,17.213,17.213,0,0,0,1.01-1.49l-0.04-.07a0.725,0.725,0,0,1-.31-0.32v-0.04a12.5,12.5,0,0,1,1.71-3.24,4.468,4.468,0,0,1,.35-0.94,2.8,2.8,0,0,1,.08-0.5c0.31-.5.49-0.8,0.55-0.9l0.66-.63q0.12,0,.12.36a3.161,3.161,0,0,1-.08.78,0.037,0.037,0,0,1,.04.04l0.11-.04c1.79-3.39,3.05-5.86,3.78-7.43a11.331,11.331,0,0,1,.82-1.91,8.708,8.708,0,0,0,1.17-3.12v-0.04a0.651,0.651,0,0,0-.47-0.67,6.761,6.761,0,0,1-2.49-.86,11,11,0,0,0-2.65-1.13h0a2.806,2.806,0,0,0-1.52,1.13h0Zm5.18,3.48a3.785,3.785,0,0,1-1.05,1.91c0.02-.13.04-0.2,0.04-0.23a3.863,3.863,0,0,1,.89-1.8,0.214,0.214,0,0,1,.12.12h0Zm-31.75,1.21a4.04,4.04,0,0,1,.82,1.95v0.04a4.206,4.206,0,0,1-.66-0.9,9.6,9.6,0,0,1-.63-1.56,1.576,1.576,0,0,1,.47.47h0Zm28.95,3.79a5.139,5.139,0,0,1,.54-1.37,5.363,5.363,0,0,1,1.09-1.48,6.94,6.94,0,0,1-.23,1.01,11.88,11.88,0,0,1-.74,1.57,6.137,6.137,0,0,1-.78.89Zm-27.39-.35c0.7,1.61,1.27,2.84,1.71,3.67,0.63,1.12,1.22,2.29,1.8,3.52a42.4,42.4,0,0,0,2.41,4.72,17.147,17.147,0,0,0,1.33,2.07,5.188,5.188,0,0,1,.66,1.76v0.04h-0.08a4.467,4.467,0,0,1-1.25-1.17,8.76,8.76,0,0,0-.62-0.86c-0.08-.13-0.68-1.26-1.79-3.4a52.312,52.312,0,0,1-2.65-5.47c-0.65-1.69-1.16-2.93-1.52-3.71a3.99,3.99,0,0,1-.62-2.07v-0.35c0.2,0.39.41,0.81,0.62,1.25h0Zm26.41,2.5v0.08a2.525,2.525,0,0,1-.74,1.71h0a2.731,2.731,0,0,1,.74-1.79h0Zm-21.89,45.62a10.973,10.973,0,0,1,.54-2.34q0.555-1.365,1.56-4.02a79.839,79.839,0,0,1,3.08-7.47c0.49-.8,1.03-1.77,1.6-2.89q4.83-9.48,10.01-20.35,1.635-3.585,2.65-5.43a2.119,2.119,0,0,1,.85-1.17,0.418,0.418,0,0,1,.43.51v0.16a1.928,1.928,0,0,1-.04.31c-0.52.99-1.36,2.65-2.53,5q-3.39,6.75-7.63,15.35-3.24,6.72-5.42,11.13a70.882,70.882,0,0,0-4.28,9.96,14.571,14.571,0,0,1-.94,2.58h0c0.05-.7.09-1.15,0.12-1.33h0Z" transform="translate(-4029.91 -7211.16)"/>
</svg>
